<svg viewBox="0 0 945 473" xmlns="http://www.w3.org/2000/svg" fill-rule="evenodd" clip-rule="evenodd" stroke-linejoin="round" stroke-miterlimit="2"><path d="M0 0h945v473H0V0zm225.273 437.328c-10.27 0-27.854-9.29-32.736-71.35 0 62.55 16.36 82.844 35.43 82.844 22.727 0 38.368-27.38 38.368-78.45 0-57.668-21.273-92.624-47.413-92.624-10.515 0-20.539 4.898-26.385 8.556l9.274 77.96c0-53.274 10.27-79.185 26.645-79.185 13.438 0 28.1 20.539 28.1 65.978 0 57.683-18.58 86.271-31.283 86.271zm444.704 0c-10.27 0-27.854-9.29-32.752-71.35 0 62.55 16.376 82.844 35.43 82.844 22.727 0 38.369-27.38 38.369-78.45 0-57.668-21.258-92.624-47.398-92.624-10.515 0-20.524 4.898-26.4 8.556l9.29 77.96c0-53.274 10.253-79.185 26.644-79.185 13.438 0 28.1 20.539 28.1 65.978 0 57.683-18.58 86.271-31.283 86.271zM251.78 68.58c-.245 52.784-8.8 152.738-13.208 185.964h15.641V35.092l-97.015 194.046c.245-52.54 8.8-151.514 13.208-184.756h-15.657v199.723l-2.305 36.09h-28.589l28.589 7.33v100.2c0 37.878-5.862 50.09-12.228 50.09-5.862 0-10.254-12.702-14.172-49.846 0 45.21 8.31 60.85 17.6 60.85 12.213 0 20.523-12.472 20.523-62.809v-86.5c0-12.964 3.673-15.887 14.662-19.315h-14.417l-4.864-27.416L251.78 68.58v-.001.001zm176.295 211.615l-8.8-49.602-3.168 49.602h-28.589l28.589 7.33v100.2c0 37.878-5.862 50.09-12.228 50.09-5.862 0-10.254-12.702-14.157-49.846 0 45.21 8.295 60.85 17.585 60.85 12.213 0 20.523-12.472 20.523-62.809v-86.5c0-12.964 3.673-15.887 14.662-19.315h-14.417zm-97.979 168.619c21.013 0 37.634-26.874 37.634-78.45 0-57.178-21.748-92.608-45.21-92.608-18.58 0-33.241 23.217-33.241 72.574 0 3.918.26 7.086.735 11.004l67.691-2.939c-1.959 53.03-17.095 78.926-33.47 78.926-9.78 0-25.421-9.275-30.304-71.35h-.49c0 60.116 17.6 82.843 36.655 82.843zM68.125 277.753c-15.396 0-28.099 6.351-32.736 8.8l8.54 63.774c0-54.484 14.432-68.901 29.828-68.901 11.968 0 25.16 10.499 25.16 28.588 0 13.438-7.33 22.728-17.11 32.492-7.82 7.82-21.013 18.335-29.568 26.89-10.499 10.499-18.564 23.217-18.564 38.368.245 25.16 16.13 41.047 42.026 41.047 16.865 0 30.058-5.862 36.164-9.03l-6.596-63.544c0 54.5-16.36 68.916-35.43 68.916-13.927 0-26.4-10.514-26.4-28.589 0-14.677 7.33-25.91 17.11-35.69 7.331-7.33 22.972-19.299 31.528-27.854 9.534-9.535 16.62-20.033 16.62-34.205 0-23.707-15.151-41.062-40.572-41.062zm468.433 47.164c0-24.686 9.29-35.185 19.789-35.185 9.29 0 20.293 7.82 34.22 36.899v100.428c0 12.963-3.672 15.886-14.661 19.314h40.572l-14.187-5.861V245.486c0-8.295.98-11.478 14.677-14.891l-26.645-6.612.49 97.75c-10.515-26.14-25.911-43.985-42.042-43.985-13.192 0-23.936 11.984-23.936 45.7v103.61c0 12.964-3.673 15.887-14.677 19.315h40.572l-14.172-5.861V324.917zm272.695 121.455h15.886l2.449-20.523 11.478-44.72 60.116 9.274c2.694 17.845 5.127 36.67 6.596 55.969h17.6l-17.11-65.243v-1.224h-.245L866.201 228.39l-56.948 217.982zm-26.624-147.115c0-8.31.98-11.494 14.662-14.907l-26.875-6.596.964 58.402c-3.168-35.675-15.641-58.402-29.568-58.402-3.903 0-10.01 1.714-15.381 7.576l5.617 62.565h.49c1.713-44.246 9.029-57.928 16.115-57.928 8.8 0 22.253 20.784 22.253 83.088v54.01c0 12.947-3.673 15.886-14.677 19.299h41.062l-14.662-5.862V299.257zm-312.04 127.808c0 12.947-3.673 15.886-14.662 19.299h41.062l-14.677-5.862V299.257c0-8.31.98-11.479 14.677-14.907l-26.89-6.596.49 32.262v117.049zm368.722-47.16l31.772-123.66c4.882 17.844 17.585 65.487 26.63 123.66h-58.402zm-481.606-24.693l-54.973-3.168c.719-31.282 10.009-64.524 28.588-64.524 11.968 0 26.63 14.188 26.63 58.418 0 3.168 0 6.35-.245 9.274h.001-.001zM72.259 41.94c-25.91 0-48.638 36.409-48.638 99.464 0 71.364 24.931 115.824 53.765 115.824 26.155 0 48.638-36.41 48.638-99.694 0-71.364-24.932-115.594-53.765-115.594zm267.84 210.166l-31.772-1.224c-22.727-.98-27.12-11.968-31.038-92.378h-.49l-4.392 96.051h90.909l-11.004-6.351V65.162c0-13.927 4.163-17.11 13.453-20.784H329.34l10.759 6.367v201.361zm33.956 2.443h15.886l2.449-20.523 11.478-44.72 60.116 9.274c2.694 17.845 5.143 36.67 6.596 55.969h17.6l-17.11-65.243v-1.224h-.245L431.003 36.567l-56.948 217.982zm-304.98-7.819c-18.074 0-35.674-18.336-35.674-84.069C33.4 96.44 52.96 52.454 80.569 52.454c18.32 0 35.675 18.809 35.675 83.823 0 66.222-19.544 110.452-47.169 110.452v.001zm335.038-58.648l31.772-123.66c4.882 17.844 17.6 65.487 26.63 123.66h-58.402z"/></svg>