<svg viewBox="0 0 1200 600" xmlns="http://www.w3.org/2000/svg" fill-rule="evenodd" clip-rule="evenodd" stroke-linejoin="round" stroke-miterlimit="2"><path fill="none" d="M0 0h1200v600H0z"/><clipPath id="a"><path d="M0 0h1200v600H0z"/></clipPath><g clip-path="url(#a)"><path d="M-96.639-59.112H1482.62v824.266H-96.639V-59.112zm566.147 345.763l201.709-.82 99.014-30.826v-55.111l-10.275-50.442-21.484-42.968-33.628-33.628-53.243-23.353h-50.442l-57.914 18.682-50.442 35.496-45.77 53.244-34.562 61.651-15.88 70.992-4.67 61.65 12.143 61.651 32.694 61.65 51.376 46.705 77.53 23.352h69.123l59.782-27.088 36.43-39.233 23.353-44.837 13.077-50.44-15.88-6.54c-32.693 40.167-82.2 74.728-144.785 74.728-91.542 0-137.313-80.332-137.313-159.731 0-1.596.019-3.191.057-4.784zm7.469-50.18c15.996-57.063 56.572-102.899 112.973-102.899 62.585 0 81.267 53.244 81.267 103.686l-194.24-.787z"/></g></svg>