<svg xmlns="http://www.w3.org/2000/svg" xmlns:xlink="http://www.w3.org/1999/xlink" width="2267.72" height="3023.627" viewBox="0 0 1700.79 2267.72"><defs><symbol overflow="visible" id="b"><path d="M146.156 7.922c82.078 0 136.797-75.234 136.797-162.36 0-91.796-54.719-162.359-136.797-162.359C63.36-316.797 9-242.64 9-154.437 9-63.72 63.36 7.922 146.156 7.922zM170.641-.36c-28.438 0-67.328-147.953-67.328-240.125 0-46.438 6.484-68.032 18.374-68.032 30.594 0 66.954 148.672 66.954 239.391 0 46.813-6.485 68.766-18 68.766zm0 0"/></symbol><symbol overflow="visible" id="c"><path d="M7.203-237.594c11.875 7.547 16.203 16.547 16.203 39.953V16.203L7.203 36h115.922c-12.25-13.313-16.203-20.516-16.203-38.156V-9.36c37.797-2.516 67.312-14.407 89.64-36.72 26.641-26.64 44.641-64.437 44.641-109.077 0-64.797-31.328-96.844-64.797-96.844-35.281 0-61.562 30.594-69.484 62.64l2.516-62.64zm136.078 216.36c-10.437 0-24.844-20.532-36.36-53.282v-110.53c2.876-2.157 5.391-2.876 7.563-2.876 29.516 0 47.875 53.64 47.875 104.406 0 45.72-10.437 62.282-19.078 62.282zm0 0"/></symbol><symbol overflow="visible" id="d"><path d="M218.875-96.125L216-96.844c-18.36 22.688-37.078 34.922-61.563 34.922-31.312 0-53.64-21.234-64.078-64.437l126.36 25.921c2.875-17.28 3.969-28.078 3.969-41.765 0-64.797-37.813-110.516-93.97-110.516C63-252.719 9-191.516 9-111.953 9-42.125 54 7.203 112.313 7.203c58.328 0 94.328-45.36 106.562-103.328zm-134.281-90.36c0-41.03 6.844-56.156 16.922-56.156 11.89 0 29.53 45.72 31.687 96.485l-43.562 15.469c-3.235-15.829-5.047-34.188-5.047-55.797zm0 0"/></symbol><symbol overflow="visible" id="e"><path d="M234.719-179.281c0-51.125-19.797-72.719-50.406-72.719-33.11 0-60.47 33.125-78.47 68.406L109.438-252 6.126-237.594C18-230.047 22.313-221.047 22.313-197.64v177.844L6.125 0h115.922c-12.25-13.313-16.203-20.516-16.203-38.156v-140.406c6.11-3.235 12.594-5.032 17.64-5.032 21.594 0 27.72 24.469 27.72 59.75v104.047L138.593 0h112.328c-12.234-13.313-16.203-20.516-16.203-38.156zm0 0"/></symbol><symbol overflow="visible" id="g"><path d="M144-104.047l30.953 82.453L166.313 0h115.562l-108-288 16.203-21.594H66.953c19.453 35.64 19.094 74.875 3.969 114.828L-3.594 0H99.72c-6.844-23.766-11.516-50.406-14.766-77.406zM91.078-246.234l51.125 137.156H82.437c-3.593-56.156 0-109.438 8.641-137.156zm0 0"/></symbol><symbol overflow="visible" id="h"><path d="M61.203-257.406c31.672 0 52.203-15.828 52.203-37.078 0-21.235-21.25-38.516-54-38.516C27-333 8.641-315.719 8.641-294.484c0 21.25 19.078 37.078 52.562 37.078zM5.406-241.203c11.875 9.719 16.188 18.719 16.188 41.047v180.36L5.406 0h115.906c-12.234-9.719-16.187-16.922-16.187-38.156v-136.797L108.719-252zm0 0"/></symbol><symbol overflow="visible" id="i"><path d="M105.484-147.953L107.641-252 4.312-237.594c11.891 7.547 16.204 16.547 16.204 39.953v177.844L4.313 0h115.921C108-13.313 104.047-20.516 104.047-38.156v-60.485c0-37.078 8.266-61.562 19.078-61.562 11.156 0 21.953 30.61 31.672 92.156h3.61l31.312-177.828c-5.766-2.531-11.156-3.61-16.922-3.61-30.594 0-57.594 36.72-67.313 101.532zm0 0"/></symbol><symbol overflow="visible" id="p"><path d="M141.484-244.797h-36.359c0-37.797 9-64.797 42.828-82.797v-3.61c-77.75 0-119.156 42.845-126.36 86.407H1.798v3.594c14.406 5.766 19.797 13.328 19.797 34.562v186.844L5.406 0h115.906c-12.234-10.797-16.187-18-16.187-38.156v-182.89l36.36-20.157zm0 0"/></symbol><symbol overflow="visible" id="q"><path d="M38.875-99h-3.594L7.203-10.437c14.75 8.28 43.563 17.64 81.719 17.64C155.516 7.203 189-33.484 189-75.953c0-27.734-9-42.484-19.797-53.281C140.047-158.406 79.922-173.516 54-199.797c-3.234-3.25-11.156-11.516-11.156-19.078 0-7.203 7.562-11.531 17.64-11.531 23.391 0 64.078 27.36 101.516 84.25h3.594l27-88.203c-14.75-8.282-42.828-17.641-78.11-17.641C54-252 11.516-217.078 11.516-169.562c0 24.843 9.359 42.484 21.968 55.078 20.875 20.89 88.922 46.437 111.594 69.125 6.844 6.843 11.156 12.593 11.156 19.797 0 8.64-6.828 11.875-15.109 11.875-16.203 0-61.922-21.954-102.25-85.313zm0 0"/></symbol><symbol overflow="visible" id="r"><path d="M160.563-244.797h-55.438l-16.203-72.36-83.516 77.391c11.157 16.203 16.188 37.078 16.188 74.172v99.719c0 51.11 20.531 73.078 51.843 73.078 33.126 0 65.516-37.797 85.329-82.797-7.563 2.875-14.047 3.953-19.813 3.953-25.547 0-33.828-20.515-33.828-55.437v-93.969l55.438-20.156zm0 0"/></symbol><symbol overflow="visible" id="s"><path d="M7.203-309.594c13.313 8.64 19.078 16.547 18 39.953v248.047L7.203 0h145.438c65.156 0 112.672-37.797 112.672-93.234 0-45.72-29.875-83.532-105.829-83.532 55.438 0 104.391-28.797 104.391-72 0-42.468-45-60.828-111.234-60.828zm111.594 5.75c27.719 4.328 52.562 28.797 52.562 72 0 37.438-19.078 68.406-52.562 82.438 30.61 0 54.36 33.484 54.36 80.64 0 32.407-12.235 63-54.36 63zm0 0"/></symbol><symbol overflow="visible" id="t"><path d="M21.594-19.797L5.406 0h115.906c-12.234-9.719-16.187-16.922-16.187-38.156v-216l4.313-77.047L5.406-320.406c11.875 9.719 16.188 18.719 16.188 41.047zm0 0"/></symbol><symbol overflow="visible" id="j"><path d="M299.516-288l21.968-21.594H194.766c10.437 9.719 14.03 21.235 11.156 38.875l-18 105.485h-63.719L145.437-288l21.97-21.594H39.233c10.813 8.64 14.047 20.156 10.813 39.953L3.953 5.406l115.203-20.172-17.281-20.156 16.563-93.953 68.765-30.61L159.484 5.407l113.75-20.172-16.187-18.718zm0 0"/></symbol><symbol overflow="visible" id="k"><path d="M6.844-92.875c0 62.64 34.922 100.078 93.234 100.078 71.281 0 135.719-64.797 135.719-157.328 0-69.469-36-101.875-92.156-101.875C72.359-252 6.844-186.125 6.844-92.875zm84.594 43.563c0-73.813 26.28-197.641 48.25-197.641 5.75 0 11.515 8.266 11.515 52.547 0 73.812-27 196.562-48.969 196.562-5.39 0-10.796-11.156-10.796-51.468zm0 0"/></symbol><symbol overflow="visible" id="l"><path d="M128.516-252L22.313-233.281l16.203 18.719L-1.078 9 93.234-7.563v-57.234l5.407-31.687c9-50.75 18-71.282 24.484-71.282 8.281 0 13.672 24.844 18.36 90.36h3.593l50.047-172.078-2.531-2.516c-21.594 0-59.75 12.953-87.11 105.125zm0 0"/></symbol><symbol overflow="visible" id="m"><path d="M146.516-288l21.968-21.594H40.312c10.813 8.64 14.407 20.156 10.813 39.953L2.875 5.406l115.203-20.172-16.203-18.718zm30.609 87.844l132.828-109.438H195.125c3.234 85.313-24.484 123.828-72.719 162.719l23.39 70.922c19.798 59.75 41.767 83.156 67.329 83.156 42.11 0 49.313-57.25 49.313-94.328 0-47.156-12.594-115.188-18-141.828h-3.594c6.469 33.828 9 76.312 9 97.547 0 30.25-5.406 38.531-12.25 38.531-6.11 0-11.516-6.484-21.594-27.36zm0 0"/></symbol><symbol overflow="visible" id="n"><path d="M137.875-295.203c0-18-14.39-36.36-41.39-36.36-34.204 0-56.532 20.157-56.532 41.407 0 18 14.406 36.36 42.125 36.36 31.328 0 55.797-21.25 55.797-41.407zM3.594 7.203l106.203-18.719-16.203-18.718L132.484-252 26.281-233.281l16.203 18.719zm0 0"/></symbol><symbol overflow="visible" id="o"><path d="M128.516-252L22.313-233.281l16.203 18.719L0 5.405l95.766-16.562-.36-55.438c11.875-79.203 33.828-122.047 46.438-122.047 14.031 0 15.11 38.157 6.844 83.516L128.875 5.406l106.203-18.718-16.203-18.735 20.89-122.031C251.642-224.281 236.157-252 208.439-252c-36 0-78.125 39.594-96.844 98.281zm0 0"/></symbol><symbol overflow="visible" id="u"><path d="M25.594-25.516l7.453-41.922h1.031c7.047 0 11.281 13.844 11.281 38.235h.797l13.047-39.594H8.953c2.406 1.922 3.203 4.484 2.406 8.875L.563 1.203 26.155-3.28l-3.593-4.156 2.953-17.204h11.843L38-51.594zm0 0"/></symbol><symbol overflow="visible" id="v"><path d="M30.64-65.594c0-4-3.203-8.094-9.203-8.094-7.593 0-12.562 4.485-12.562 9.204 0 4 3.203 8.078 9.36 8.078 6.968 0 12.406-4.719 12.406-9.188zM.798 1.594l23.61-4.157-3.61-4.156L29.437-56 5.845-51.844l3.593 4.157zm0 0"/></symbol><symbol overflow="visible" id="w"><path d="M28.563-56l-23.61 4.156 3.61 4.157L-.235 2l20.953-3.688v-12.718l1.203-7.031c2-11.282 4-15.844 5.437-15.844 1.844 0 3.047 5.515 4.078 20.078h.797L43.36-55.437 42.797-56C38-56 29.516-53.125 23.437-32.64zm0 0"/></symbol><symbol overflow="visible" id="x"><path d="M23.922-14.64c5.672 4 6.484 7.203 6.484 8.796 0 1.532-.968 3.047-3.203 3.047-4.078 0-13.61-7.125-20.156-18.25h-.813L-3.125.484c3.125.563 6.64 1.11 11.688 1.11 23.359 0 31.671-9.672 31.671-19.75 0-5.532-3.03-9.844-9.28-14.078l-11.188-7.61c-5.282-3.593-6.078-7.031-6.078-8.64 0-1.516.953-3.11 3.187-3.11 4.078 0 13.766 8 19.61 18.313h.796l10.157-21.594C44.312-55.438 40.797-56 35.766-56c-23.36 0-31.688 9.516-31.688 19.766 0 5.359 3.203 9.922 9.36 14.234zm0 0"/></symbol><symbol overflow="visible" id="y"><path d="M39.125-53.594v-.812h-9.688v-15.438L6.485-54c1.829 3.594 2.079 7.438.641 15.594L4-20.156C1.36-4.563 5.688 1.594 13.203 1.594c8.39 0 16.563-7.516 19.281-21.907h-.797c-2.64 6.625-4.484 7.829-6.171 7.829-3.11 0-2.72-8.47-.953-18.563l3.203-18.078zm0 0"/></symbol><symbol overflow="visible" id="A"><path d="M.719 0c5.593.875 11.047 1.203 18.797 1.203 26.172 0 29.922-6.078 29.922-13.922 0-8.078-3.75-18.234-6.876-25.593h-.796C41.359-15.922 35.28-8.157 20.953 0l4.64-26.234h9.923l4.64-26.328-14.468 25.437 7.187-40.313h1.047c7.516 0 10.312 8.391 13.766 29.75h.796l11.594-31.109H9.047c2.39 1.922 3.187 4.484 2.39 8.875zm0 0"/></symbol><symbol overflow="visible" id="B"><path d="M50.234-2.719l-3.593-4.156 11.922-66.719-20.797 3.828v10.172l-.97 5.438c-9.358.953-18.796 4.562-25.202 11.36-8.156 8.718-12 21.28-12 30.077C-.406-4 3.359 1.516 9.766 1.516c3.28 0 6.796-1.438 10.234-4.875 3.281-3.282 7.516-9.282 10.797-19.844L25.766 1.594zm-26.64-9.922c-1.907 0-2.719-3.765-2.719-8.484 0-9.11 3.125-25.438 6.563-28.875.64-.64 1.359-.953 2.156-.953 2.25 0 4.328 1.594 5.922 3.828-3.438 20-9.438 34.484-11.922 34.484zm0 0"/></symbol><symbol overflow="visible" id="C"><path d="M1.516-20.64C1.516-6.72 9.28 1.593 22.234 1.593c15.844 0 30.172-14.39 30.172-34.953 0-15.438-8-22.641-20.484-22.641C16.078-56 1.516-41.36 1.516-20.64zm18.797 9.687c0-16.406 5.843-43.922 10.734-43.922 1.265 0 2.547 1.828 2.547 11.672 0 16.406-6 43.687-10.875 43.687-1.203 0-2.407-2.484-2.407-11.437zm0 0"/></symbol><symbol overflow="visible" id="D"><path d="M28.563-56l-23.61 4.156 3.61 4.157L0 1.203l21.281-3.687-.078-12.313c2.64-17.61 7.516-27.125 10.313-27.125 3.125 0 3.359 8.484 1.53 18.563L28.642 1.203l23.593-4.156-3.593-4.172 4.64-27.11C55.921-49.843 52.484-56 46.313-56c-8 0-17.36 8.797-21.516 21.844zm0 0"/></symbol><symbol overflow="visible" id="E"><path d="M132.797-256l19.516-19.203H38.406C48-267.516 51.203-257.281 48-239.688L19.844-86.077C13.766-52.484.954-20.797-16.953 6.406h3.187C54.078-22.406 95.36-43.844 103.688-90.563zm0 0"/></symbol><symbol overflow="visible" id="F"><path d="M15.047-80.64C3.516-18.235 18.562 6.405 43.203 6.405c31.672 0 68.797-35.531 85.438-87.687L113.594 6.406 208-10.234l-14.406-16.641 35.531-198.719-76.172 13.75C131.843-88.64 115.516-49.922 102.406-49.922c-12.484 0-13.453-33.922-6.094-74.234l17.922-99.531-94.39 16.64 14.39 16.64zm0 0"/></symbol><symbol overflow="visible" id="G"><path d="M126.078-294.406l-86.39 16.328v57.281L0 4.797l94.406-16.64L80-28.485zm0 0"/></symbol><symbol overflow="visible" id="H"><path d="M7.36-32.64l-30.407 71.046c73.922 0 115.844-14.406 158.734-51.203 33.594-29.125 52.47-56.64 64.313-124.484L215.36-224l-82.563 14.719v46.078c-4.156 35.844-11.516 65.922-23.031 77.437-3.204 3.204-6.72 5.125-10.25 5.125-7.672 0-12.47-10.562-12.47-28.796 0-29.126 9.595-75.516 18.548-114.563l-83.828 41.594 28.797 37.125c-19.516 17.594-47.36 47.687-47.36 79.687 0 9.594 2.235 19.516 8.953 27.828 8.328 10.25 19.203 12.813 28.485 12.813 28.156 0 60.797-22.406 80-69.766l-10.235 59.516c-7.36 43.203-18.562 48.64-26.89 48.64-12.47 0-44.47-15.359-72.954-46.078zm0 0"/></symbol><symbol overflow="visible" id="J"><path d="M-.313 6.406l94.391-16.64-14.39-16.641L114.233-224l-94.39 16.64 14.39 16.641zm0 0"/></symbol><symbol overflow="visible" id="K"><path d="M23.688-174.719c0 19.203 10.234 37.438 24.625 55.031C24.64-105.921-1.282-85.124-1.282-54.718c0 38.077 34.234 61.124 78.406 61.124 59.828 0 102.078-26.25 102.078-78.094 0-21.109-12.484-41.593-29.437-60.468 27.828-10.563 51.828-29.438 51.828-57.61 0-39.03-33.594-63.03-79.36-63.03-59.828 0-98.546 28.796-98.546 78.077zm45.109-52.797c0-9.28 4.156-14.078 11.203-14.078 26.875 0 61.766 40.313 64.313 103.672-32.313-34.875-75.516-65.281-75.516-89.594zm65.281 208.313c0 9.281-4.156 14.078-11.203 14.078-24.313 0-66.875-40.313-69.75-109.438 32.64 37.438 80.953 70.079 80.953 95.36zm0 0"/></symbol><symbol overflow="visible" id="N"><path d="M47.688-88.64h3.187c16-49.282 30.406-74.876 47.047-74.876 10.234 0 16.312 9.922 16.312 27.516 0 19.516-8.953 37.125-27.515 62.719-23.031-6.719-48-15.36-85.766-15.36L31.047 5.766a371.852 371.852 0 0117.265-26.25C65.282-8 85.767 6.406 119.047 6.406c42.234 0 71.031-25.922 71.031-64.64 0-22.407-6.078-46.407-14.719-63.36h-3.203c6.078 36.797-6.39 56.953-39.031 56.953-13.125 0-24.969-2.562-37.125-5.765 53.438-43.828 102.719-54.39 102.719-109.438 0-24.953-18.875-44.156-44.485-44.156-40 0-68.797 37.766-85.437 80.64l24-74.234H20.484zm0 0"/></symbol><symbol overflow="visible" id="O"><path d="M170.875-168.64l48.328-73.282c-20.797-4.484-35.203-6.39-49.922-6.39-51.515 0-88.328 24.312-111.36 47.359C23.048-166.078 8.954-118.406 8.954-80.641c0 25.922 7.36 50.563 24 67.204C44.797-1.595 61.125 6.405 83.203 6.405c56.953 0 111.031-48.328 111.031-117.765 0-38.72-21.109-59.204-43.187-59.204-30.094 0-53.125 30.079-65.61 61.125 18.25-101.124 30.407-128.968 41.61-128.968 11.516 0 33.594 50.562 40.64 69.765zM71.047-23.36l4.156-28.484c6.719-46.39 21.438-71.36 32.953-71.36 8.969 0 11.844 16.641 11.844 37.438 0 39.688-12.156 72.641-22.719 83.204C94.406.312 91.844 1.593 88 1.593c-7.36 0-13.125-11.516-16.953-24.953zm0 0"/></symbol><symbol overflow="visible" id="Q"><path d="M6.078-82.563c0 55.688 31.047 88.97 82.875 88.97 63.36 0 120.64-57.61 120.64-139.845 0-61.765-32-90.562-81.905-90.562-63.376 0-121.61 58.563-121.61 141.438zm75.203 38.72c0-65.594 23.36-175.673 42.875-175.673 5.125 0 10.25 7.36 10.25 46.72 0 65.593-24 174.718-43.531 174.718-4.797 0-9.594-9.922-9.594-45.766zm0 0"/></symbol><symbol overflow="visible" id="M"><path d="M13.766-80h96.64v-19.203h-96.64zm0 0"/></symbol><symbol overflow="visible" id="P"><path d="M17.594 38.406h4.172L101.438-72 17.594-99.203zm0 0"/></symbol><symbol overflow="visible" id="R"><path d="M14.313-13.797l2.312-6.969c-2.172-.656-4.328-1.015-6.672-1.015-4.61 0-8.453 2.547-8.453 6.36 0 2.046.75 3.218 1.797 4.265 1.594 1.594 6.719 2.937 7.922 4.14.578.563.937 1.344.937 2.422 0 .688-.25 1.328-.719 1.797-.703.703-1.593 1.094-2.734 1.094-1.047 0-2.375-.484-3.25-1.031L3.781-7.797h-.719L.72-.547C3.329.203 5.406.484 7.766.484c5.015 0 9.187-2.89 9.187-6.609 0-2.031-.687-3.11-1.594-4.016-1.437-1.437-6.75-3.265-7.984-4.5-.719-.718-1.078-1.234-1.078-2.421 0-.516.187-1.094.64-1.532.47-.484 1.157-1 2.266-1 .938 0 2.11.422 2.735.813l1.656 4.984zm0 0"/></symbol><symbol overflow="visible" id="S"><path d="M7.953.484c3.39 0 6.172-2.437 7.016-4.328l-.453-.625c-1.22.75-2.454 1.375-4.61 1.375-2.64 0-4.39-1.953-4.39-5.703 0-3.297 1.328-4.5 2.968-4.5.75 0 1.36.219 1.75.453l1.641 4.36h.547l2.64-6.875c-1.562-.391-3.03-.594-4.5-.594-4.656 0-9.515 3.922-9.515 9.265C1.047-2.25 3.719.484 7.953.484zm0 0"/></symbol><symbol overflow="visible" id="T"><path d="M3.063-2.047l-2.11.844V0h9.36v-1.203c-2.297-.984-2.688-1.531-2.688-3.5v-2.563c0-3.39 1.188-4.546 2.75-4.546L12-7.766h.563l1.921-7.78c-.53-.267-1.218-.407-1.968-.407-2.375 0-4.141 1.89-4.891 4.156v-4.156l-6.39 1.765v1.204c1.374.203 1.827.656 1.827 2.687zm0 0"/></symbol><symbol overflow="visible" id="U"><path d="M9.594-3.094c-2.219 0-3.656-1.281-4.078-4.25l9.609.719c.14-1.031.172-1.781.172-2.703 0-4.235-2-6.625-5.735-6.625-3.984 0-8.515 3.625-8.515 9.203C1.047-2.125 3.984.484 8.28.484c3.531 0 5.906-2.609 6.953-4.328l-.437-.625c-1.172.719-2.735 1.375-5.203 1.375zm-4.188-6.14c0-1.829.39-2.954.985-3.547.421-.422.984-.563 1.53-.563 1.798 0 3 1.797 3 3.86l-5.515.718v-.468zm0 0"/></symbol><symbol overflow="visible" id="V"><path d="M16.89-4.406v-6.125c0-4.266-1.921-5.422-3.953-5.422-2.25 0-4.53 1.437-5.828 2.36v-2.36L.72-14.188v1.047c1.375.204 1.828.657 1.828 2.704v8.39l-2.094.844V0h8.75v-1.203C7.5-2.187 7.11-2.734 7.11-4.703V-12c.844-.266 2.016-.547 2.97-.547 1.718 0 2.25.875 2.25 2.563v7.937l-2.095.844V0h8.75v-1.203c-1.703-.984-2.093-1.531-2.093-3.203zm0 0"/></symbol><symbol overflow="visible" id="W"><path d="M4.703-17.156c1.75 0 3.063-1.266 3.063-3.063 0-1.562-1.313-3-3.063-3-1.797 0-3.172 1.438-3.172 3 0 1.797 1.375 3.063 3.172 3.063zM7.11-4.406v-6.063l.297-5.484L.72-14.188v1.047c1.375.204 1.828.657 1.828 2.704v8.39l-2.094.844V0h8.75v-1.203C7.5-2.187 7.11-2.734 7.11-4.406zm0 0"/></symbol><symbol overflow="visible" id="X"><path d="M7.625-4.953c3.328 0 7.219-2 7.531-6.844l2.453-1.406v-.688l-4.203-1.343c-1.531-.485-2.875-.72-4.203-.72-4.078 0-7.969 2.517-7.969 6.079 0 2.172 1.344 3.61 3.204 4.36L1.563.296l7.703.422c1.656.094 2.89 1.047 2.89 2.281 0 1.828-1.5 2.672-3.719 2.672-2.671 0-4.062-1.719-4.062-3.61v-.468l-.719-.125C1.891 2.579.875 3.719.875 5.062c0 1.688 1.344 3.22 5.61 3.22 5.03 0 9.984-3.329 9.984-6.985-.032-2.047-1.282-3.813-5.188-4.094l-4.953-.36-1.14-2.124a8.998 8.998 0 002.437.328zm.828-2.156c-1.469 0-2.719-1.5-2.719-3.594 0-1.719.954-3.094 2.485-3.094 1.922 0 2.672 1.438 2.672 3.39 0 1.97-1.047 3.298-2.438 3.298zm0 0"/></symbol><symbol overflow="visible" id="Z"><path d="M16.688.297h1.437l4.14-10.594 2.25-3.984v-1.203h-4.328c0 2.703-.687 5.859-1.765 8.859l-4.531-9.156h-1.235L8.97-6.687l-1.766-4.438-.969-4.36H.391v1.204C1.5-12.781 2.156-11.766 3.234-9L6.906.297h1.438l3.89-9.172zm0 0"/></symbol><symbol overflow="visible" id="aa"><path d="M5.969-20.906h-.516L.297-14.813v.5c.61.266 1.047.626 1.36.938.624.656.593 1.89.593 4.14v6C2.25-.75 3.656.454 5.64.454c2.126 0 4.173-1.078 6-1.984v-.719L6.595-3.625v-9.453h4.843v-2.406H7.204zm0 0"/></symbol><symbol overflow="visible" id="ab"><path d="M7.438-22.11l-.563-.578L.265-21v.781c1.797.922 2.282 1.828 2.282 3.907v14.265l-2.094.844V0h8.75v-1.203C7.5-1.891 7.11-2.437 7.11-4.703V-12c.844-.266 2.016-.547 2.97-.547 1.718 0 2.25.875 2.25 2.563v7.937l-2.095.844V0h8.75v-1.203c-1.703-.688-2.093-1.234-2.093-3.5v-5.828c0-4.266-1.922-5.422-3.953-5.422-2.25 0-4.532 1.437-5.829 2.36zm0 0"/></symbol><symbol overflow="visible" id="ac"><path d="M.594-21.297v1.203c1.719.532 2.11 1.078 2.11 3.36v14.64l-2.11.89V0h18.218l-2.015-7.953h-.781l-1.703 5.25-6.75.578v-7.984l5.734 2.25v-5.704l-5.735 2.25v-7.828l6.75.547 1.704 5.25h.78l2.017-7.953zm0 0"/></symbol><symbol overflow="visible" id="ad"><path d="M6.953-15.781l.578-6.328-.578-.578L.125-21v.781c1.797.922 2.281 1.828 2.281 3.907v14.265l-2.11.844V0h8.767v-1.203c-1.72-.984-2.11-1.531-2.11-3.203zm0 0"/></symbol><symbol overflow="visible" id="ae"><path d="M9.844-13.297l1.64 3.188H12l2.313-5.25c-2.11-.422-3.297-.594-5.47-.594-4.046 0-7.312 2.094-7.312 5.094 0 1.593.422 2.343 1.172 3.093C3.781-6.687 8.406-5.375 9.266-4.5c.39.39.64.625.64 1.234 0 .297-.125.625-.39.891-.313.313-1.063.64-1.985.64-.968 0-1.828-.124-2.61-.577L3.563-5.25h-.53L.811-.234c1.594.421 3.954.718 6.172.718 3.75 0 7.235-2.046 7.235-5.14 0-1.344-.39-2.25-1.235-3.078-1.187-1.204-5.64-2.47-6.468-3.313-.391-.39-.641-.828-.641-1.219 0-.28.125-.578.328-.78.25-.25.906-.517 1.86-.517.515 0 1.124.063 1.78.266zm0 0"/></symbol><symbol overflow="visible" id="af"><path d="M6.813-5.484v-4.985l.296-5.484L.422-13.86v.906c1.375.203 1.828.656 1.828 2.687v5.313C2.25-.687 4.172.484 6.203.484c2.25 0 4.531-1.437 5.828-2.375V.484l6.781-1.75v-.89c-.718-.25-1.234-.578-1.593-1.031-.594-.766-.625-1.829-.625-4.188v-3.094l.297-5.484-7.235 2.094v.906c1.797.203 2.375.656 2.375 2.687v6.782c-.844.28-2.015.546-2.969.546-1.718 0-2.25-.874-2.25-2.546zm0 0"/></symbol><symbol overflow="visible" id="ag"><path d="M7.531-22.11l-.578-.578L.125-21v.781c1.797.922 2.281 1.828 2.281 3.907v13.078L.266-1.531v.718C1.984-.155 5.016.484 8.046.484c3.767 0 9.407-2.28 9.407-9.296 0-4.626-2.61-7.141-5.453-7.141-2.125 0-3.844 1.281-5.047 2.656zM6.953-3.03v-8.672c.734-.39 1.594-.844 2.563-.844 1.828 0 3.265 1.39 3.265 5.281 0 3.641-1.172 5.344-2.844 5.344-1.484 0-2.5-.625-2.984-1.11zm0 0"/></symbol><symbol overflow="visible" id="ah"><path d="M4.734.422c1.75 0 3.063-1.266 3.063-3.063 0-1.562-1.313-3-3.063-3-1.796 0-3.171 1.438-3.171 3C1.563-.844 2.938.422 4.733.422zm0 0"/></symbol><symbol overflow="visible" id="ai"><path d="M.484-21.297v1.203c1.704.532 2.094 1.078 2.094 3.36v14.547L.484-1.048V0h8.907c5.875 0 9.515-2.906 9.515-6.938 0-3.171-2.203-4.906-4.453-5.218 2.344-.985 3.906-2.75 3.906-5.125 0-2.844-3-4.016-6.203-4.016zM13.5-15.594c0 1.016-.36 1.906-1.016 2.578-.718.72-1.78 1.22-5.046 1.313v-7.25h1.015c3.485 0 5.047 1.281 5.047 3.36zM7.437-3.297v-6.39c3.266.093 4.829.53 5.704 1.406.593.594.906 1.469.906 2.469 0 2-1.39 3.562-3.453 3.562-1.266 0-2.281-.563-3.156-1.047zm0 0"/></symbol><symbol overflow="visible" id="aj"><path d="M11.547-2.188V.485l6.781-1.75v-.89c-.719-.25-1.234-.578-1.594-1.031-.593-.766-.625-1.829-.625-4.188v-6.781l.578-7.953-.578-.578L8.937-21l-.03.781c2.077.922 2.64 1.828 2.64 3.907v.859c-.328-.031-.688-.031-1.078-.031-3.781 0-9.422 2.187-9.422 8.828 0 4.61 2.61 7.14 5.469 7.14 2.125 0 3.828-1.296 5.03-2.671zm0-9.874v8.343c-.719.39-1.594.844-2.547.844-1.89 0-3.36-1.39-3.36-5.25 0-3.422 1.204-5.047 2.938-5.047 1.469 0 2.485.625 2.969 1.11zm0 0"/></symbol><symbol overflow="visible" id="ak"><path d="M9.203 6.594C7.5 5.609 7.11 5.062 7.11 3.39V.453c.36.031.72.031 1.079.031 3.78 0 9.421-2.28 9.421-9.296 0-4.626-2.609-7.141-5.453-7.141-2.14 0-3.844 1.281-5.047 2.656v-2.656L.33-14.22v.906c.718.235 1.234.563 1.593 1.016.594.781.625 1.828.625 4.203v13.86l-2.094.828v1.203h8.75zM7.11-3.031v-8.672c.72-.39 1.594-.844 2.547-.844 1.828 0 3.281 1.39 3.281 5.281 0 3.641-1.171 5.344-2.859 5.344-1.469 0-2.484-.625-2.969-1.11zm0 0"/></symbol><symbol overflow="visible" id="al"><path d="M9.906-1.5L9.953.484l6.313-1.39v-.656c-1.422-.625-1.813-1.016-1.813-4.563v-6.11c0-2.28-1.64-3.718-5.156-3.718-3 0-6.172 1.219-8.094 2.062l2.39 4.594h.548l1.89-4.297c1.14 0 2.735-.062 3.39.61.329.328.485.859.485 1.546v2.344l-1.5.297c-3.219.64-4.89 1.297-5.797 2.203-.953.953-1.406 2.094-1.406 3.469 0 2.25 1.922 3.61 4.016 3.61C7.234.484 8.64-.157 9.906-1.5zm0-1.656c-.61.25-1.172.484-2.015.484-1.735 0-2.344-.844-2.344-1.828 0-.516 0-1.016.25-1.688l4.11-.593zm0 0"/></symbol><symbol overflow="visible" id="am"><path d="M14.797-15.484H1.266l1.5 6.671h.718l1.922-3.968 3.469-.688L1.235-.39 1.53 0h14.094l-1.5-6.781h-.719l-1.922 4.078-4.343.719 7.953-13.11zm0 0"/></symbol><symbol overflow="visible" id="an"><path d="M.719 4.297c1.86.437 3.812.797 5.875.797 4.922 0 8.797-2.688 8.797-6.563 0-3.593-4.5-5.734-10.532-6.484l.297-3.625h5.547l1.594 3.922h.781l2.485-7.828H3.124l-1 11.14c5.563.89 8.64 2.188 8.64 4.828 0 1.563-1.109 2.422-2.64 2.422-.75 0-1.578-.203-2.75-.89L3.687-1.766h-.78zm0 0"/></symbol><symbol overflow="visible" id="ao"><path d="M2.156 4.234l.719.204 5.61-8.844-6.329-1.89zm0 0"/></symbol><symbol overflow="visible" id="ap"><path d="M7.11-4.406v-6.063l.296-5.484L.72-14.188v1.047c1.375.204 1.828.657 1.828 2.704v8.39l-2.094.844V0h8.75v-1.203C7.5-2.187 7.11-2.734 7.11-4.406zm0 0"/></symbol><symbol overflow="visible" id="aq"><path d="M3.39-8.156l2.672-5.64c1.25.03 2.032.233 2.485.687.36.359.484.843.484 1.468 0 1.891-4.89 7.407-8.25 11.25L1.078 0h13.735l-1.876-6.328h-.546l-1.297 2.422H6.297c4.39-2.75 7.687-5.031 7.687-8.328 0-2.344-1.89-3.72-5.703-3.72-2.312 0-5.25.954-7.562 1.907l2.125 5.89zm0 0"/></symbol><symbol overflow="visible" id="ar"><path d="M7.984.484c4.672 0 8.813-2.703 8.813-9.03 0-4.75-2.781-7.407-7.078-7.407-4.235 0-8.672 2.687-8.672 9.015 0 4.782 2.797 7.422 6.937 7.422zm4.11-7.265c0 1.765-.328 3.265-1.14 4.078-.485.484-1.079.719-1.829.719-.672 0-1.422-.204-1.89-.688-1.048-1.047-1.47-3.297-1.47-6.031 0-1.766.329-3.266 1.141-4.078.469-.485 1.078-.719 1.828-.719.657 0 1.407.203 1.891.688 1.047 1.046 1.469 3.296 1.469 6.03zm0 0"/></symbol><symbol overflow="visible" id="as"><path d="M10.984-15.688l-.328-.328-5.797 1.25L.516 0H9v4.688h2.406V0h3.172v-3.906h-3l-.984-4.703h-.781l-1 4.703H3.875zm0 0"/></symbol><symbol overflow="visible" id="at"><path d="M7.984.484c4.672 0 8.813-2.703 8.813-9.03 0-4.75-2.781-7.407-7.078-7.407-4.235 0-8.672 2.687-8.672 9.015 0 4.782 2.797 7.422 6.937 7.422zm4.11-7.265c0 1.765-.328 3.265-1.14 4.078-.485.484-1.079.719-1.829.719-.672 0-1.422-.204-1.89-.688-1.048-1.047-1.47-3.297-1.47-6.031 0-1.766.329-3.266 1.141-4.078.469-.485 1.078-.719 1.828-.719.657 0 1.407.203 1.891.688 1.047 1.046 1.469 3.296 1.469 6.03zm0 0"/></symbol><symbol overflow="visible" id="au"><path d="M6.953-9.516l.156-12.593-.562-.578L.125-21v.781c1.797.922 2.281 1.828 2.281 3.907v14.265l-2.11.844V0h8.767v-1.203c-1.72-.984-2.11-1.531-2.11-3.203v-3.36l2.078.532 2.313 5.109c.89 2 1.86 2.61 3.265 2.61 1.047 0 2.344-.641 3.954-1.594v-.72L15.78-3.39l-3.484-6.453 5.828-4.922v-.718h-7.11c.422 2.546.141 3.812-.703 4.656-.796.812-1.968 1.047-3.359 1.312zm0 0"/></symbol><symbol overflow="visible" id="av"><path d="M2.844-13.078v11.031L.75-1.203V0h8.766v-1.203c-1.72-.688-2.11-1.234-2.11-3.5v-8.375h2.64v-2.406h-2.64v-2.157l5.703-2.218v-.782l-6.953-2.047-3.25 7.204H.812v2.406zm0 0"/></symbol><symbol overflow="visible" id="aw"><path d="M16.594-12c.75-.234 1.797-.547 2.672-.547 1.703 0 2.25.875 2.25 2.563v7.937l-1.953.844V0h8.609v-1.203c-1.719-.984-2.11-1.531-2.11-3.5v-5.828c0-4.266-1.906-5.422-3.953-5.422-2.047 0-4.265 1.11-6.093 2.328-.813-1.578-1.922-2.328-3.391-2.328-2.125 0-4.25 1.469-5.516 2.36v-2.36L.72-14.188v1.047c1.375.204 1.828.657 1.828 2.704v8.39l-2.094.844V0h8.61v-1.203c-1.563-.984-1.954-1.531-1.954-3.5V-12c.75-.234 1.797-.547 2.672-.547 1.703 0 2.25.875 2.25 2.563v7.937l-1.953.844V0h8.469v-1.203c-1.563-.984-1.953-1.531-1.953-3.5zm0 0"/></symbol><clipPath id="a"><path d="M0 0h1700.79v2267.719H0zm0 0"/></clipPath></defs><g clip-path="url(#a)"><path d="M0 2267.719h1700.79V.004H0zm0 0"/></g><g fill="#fff"><use xlink:href="#b" x="47.786" y="362.269"/><use xlink:href="#c" x="328.946" y="362.269"/><use xlink:href="#d" x="566.546" y="362.269"/><use xlink:href="#e" x="785.426" y="362.269"/><use xlink:href="#f" x="1031.666" y="362.269"/><use xlink:href="#g" x="1084.226" y="362.269"/><use xlink:href="#h" x="1351.706" y="362.269"/><use xlink:href="#i" x="1467.266" y="362.269"/></g><g fill="#fff"><use xlink:href="#j" x="224.724" y="720.269"/><use xlink:href="#k" x="510.924" y="720.269"/><use xlink:href="#l" x="743.124" y="720.269"/></g><g fill="#fff"><use xlink:href="#l" x="911.244" y="720.269"/><use xlink:href="#k" x="1072.164" y="720.269"/><use xlink:href="#l" x="1304.364" y="720.269"/></g><use xlink:href="#m" x="72.444" y="1058.309" fill="#fff"/><g fill="#fff"><use xlink:href="#n" x="341.724" y="1058.309"/><use xlink:href="#o" x="461.244" y="1058.309"/><use xlink:href="#k" x="707.124" y="1058.309"/></g><g fill="#fff"><use xlink:href="#p" x="939.324" y="1058.309"/><use xlink:href="#d" x="1059.564" y="1058.309"/><use xlink:href="#q" x="1278.444" y="1058.309"/><use xlink:href="#r" x="1467.444" y="1058.309"/></g><g fill="#fff"><use xlink:href="#s" x="275.484" y="1404.269"/><use xlink:href="#d" x="542.604" y="1404.269"/><use xlink:href="#i" x="761.484" y="1404.269"/><use xlink:href="#t" x="936.444" y="1404.269"/><use xlink:href="#h" x="1052.364" y="1404.269"/><use xlink:href="#e" x="1167.924" y="1404.269"/></g><g fill="#fff"><use xlink:href="#u" x="598.477" y="1528.269"/><use xlink:href="#v" x="648.797" y="1528.269"/><use xlink:href="#w" x="676.157" y="1528.269"/><use xlink:href="#x" x="712.717" y="1528.269"/><use xlink:href="#y" x="754.957" y="1528.269"/><use xlink:href="#z" x="788.157" y="1528.269"/><use xlink:href="#A" x="800.637" y="1528.269"/><use xlink:href="#B" x="851.357" y="1528.269"/><use xlink:href="#v" x="904.957" y="1528.269"/><use xlink:href="#y" x="932.317" y="1528.269"/><use xlink:href="#v" x="965.517" y="1528.269"/><use xlink:href="#C" x="992.877" y="1528.269"/><use xlink:href="#D" x="1045.277" y="1528.269"/></g><g fill="#fff"><use xlink:href="#E" x="36.65" y="1828.269"/><use xlink:href="#F" x="157.93" y="1828.269"/><use xlink:href="#G" x="379.69" y="1828.269"/><use xlink:href="#H" x="487.21" y="1828.269"/><use xlink:href="#I" x="693.29" y="1828.269"/></g><g fill="#fff"><use xlink:href="#J" x="743.21" y="1828.269"/><use xlink:href="#K" x="850.73" y="1828.269"/></g><use xlink:href="#L" x="1033.45" y="1828.269" fill="#fff"/><use xlink:href="#M" x="1033.45" y="1808.429" fill="#fff"/><g fill="#fff"><use xlink:href="#N" x="1144.81" y="1828.269"/><use xlink:href="#O" x="1347.69" y="1828.269"/></g><use xlink:href="#P" x="1547.05" y="1828.269" fill="#fff"/><use xlink:href="#I" x="1664.137" y="1828.269" fill="#fff"/><g fill="#fff"><use xlink:href="#N" x="425.438" y="2106.269"/><use xlink:href="#Q" x="628.318" y="2106.269"/><use xlink:href="#N" x="847.198" y="2106.269"/><use xlink:href="#Q" x="1050.078" y="2106.269"/></g><g fill="#fff"><use xlink:href="#R" x="392.917" y="2183.24"/><use xlink:href="#S" x="410.407" y="2183.24"/><use xlink:href="#T" x="425.347" y="2183.24"/><use xlink:href="#U" x="438.997" y="2183.24"/><use xlink:href="#U" x="455.077" y="2183.24"/><use xlink:href="#V" x="471.157" y="2183.24"/><use xlink:href="#W" x="489.847" y="2183.24"/><use xlink:href="#V" x="498.787" y="2183.24"/><use xlink:href="#X" x="517.477" y="2183.24"/><use xlink:href="#Y" x="534.757" y="2183.24"/><use xlink:href="#Z" x="540.757" y="2183.24"/><use xlink:href="#W" x="565.087" y="2183.24"/><use xlink:href="#aa" x="574.027" y="2183.24"/><use xlink:href="#ab" x="585.427" y="2183.24"/><use xlink:href="#Y" x="604.117" y="2183.24"/><use xlink:href="#ac" x="610.117" y="2183.24"/><use xlink:href="#V" x="629.227" y="2183.24"/><use xlink:href="#X" x="647.917" y="2183.24"/><use xlink:href="#ad" x="665.197" y="2183.24"/><use xlink:href="#W" x="673.957" y="2183.24"/><use xlink:href="#ae" x="682.897" y="2183.24"/><use xlink:href="#ab" x="697.627" y="2183.24"/><use xlink:href="#Y" x="716.317" y="2183.24"/><use xlink:href="#ae" x="722.317" y="2183.24"/><use xlink:href="#af" x="737.047" y="2183.24"/><use xlink:href="#ag" x="755.587" y="2183.24"/><use xlink:href="#aa" x="773.497" y="2183.24"/><use xlink:href="#W" x="784.897" y="2183.24"/><use xlink:href="#aa" x="793.837" y="2183.24"/><use xlink:href="#ad" x="805.237" y="2183.24"/><use xlink:href="#U" x="813.997" y="2183.24"/><use xlink:href="#ae" x="830.077" y="2183.24"/><use xlink:href="#ah" x="844.807" y="2183.24"/><use xlink:href="#Y" x="853.567" y="2183.24"/><use xlink:href="#ai" x="859.567" y="2183.24"/><use xlink:href="#T" x="878.887" y="2183.24"/><use xlink:href="#af" x="892.537" y="2183.24"/><use xlink:href="#aj" x="911.077" y="2183.24"/><use xlink:href="#U" x="928.987" y="2183.24"/><use xlink:href="#T" x="945.067" y="2183.24"/><use xlink:href="#ad" x="958.717" y="2183.24"/><use xlink:href="#W" x="967.477" y="2183.24"/><use xlink:href="#S" x="976.417" y="2183.24"/><use xlink:href="#ab" x="991.357" y="2183.24"/><use xlink:href="#aa" x="1010.047" y="2183.24"/><use xlink:href="#ak" x="1021.447" y="2183.24"/><use xlink:href="#ad" x="1039.507" y="2183.24"/><use xlink:href="#al" x="1048.267" y="2183.24"/><use xlink:href="#aa" x="1064.527" y="2183.24"/><use xlink:href="#am" x="1075.927" y="2183.24"/><use xlink:href="#Y" x="1091.857" y="2183.24"/><use xlink:href="#an" x="1097.857" y="2183.24"/><use xlink:href="#ao" x="1113.547" y="2183.24"/><use xlink:href="#Y" x="1121.677" y="2183.24"/><use xlink:href="#ap" x="1127.677" y="2183.24"/><use xlink:href="#aq" x="1136.617" y="2183.24"/><use xlink:href="#ar" x="1151.677" y="2183.24"/><use xlink:href="#as" x="1168.927" y="2183.24"/><use xlink:href="#aq" x="1183.897" y="2183.24"/><use xlink:href="#ao" x="1198.957" y="2183.24"/><use xlink:href="#Y" x="1207.087" y="2183.24"/><use xlink:href="#ai" x="1213.087" y="2183.24"/><use xlink:href="#U" x="1232.407" y="2183.24"/><use xlink:href="#T" x="1248.487" y="2183.24"/><use xlink:href="#ad" x="1262.137" y="2183.24"/><use xlink:href="#W" x="1270.897" y="2183.24"/><use xlink:href="#V" x="1279.837" y="2183.24"/><use xlink:href="#ah" x="1298.527" y="2183.24"/></g><g fill="#fff"><use xlink:href="#Z" x="574.837" y="2220.23"/><use xlink:href="#Z" x="599.167" y="2220.23"/><use xlink:href="#Z" x="623.497" y="2220.23"/></g><use xlink:href="#ah" x="645.727" y="2220.23" fill="#fff"/><g fill="#fff"><use xlink:href="#at" x="654.187" y="2220.23"/><use xlink:href="#ak" x="671.437" y="2220.23"/><use xlink:href="#U" x="689.497" y="2220.23"/><use xlink:href="#V" x="705.577" y="2220.23"/><use xlink:href="#al" x="724.267" y="2220.23"/><use xlink:href="#W" x="740.527" y="2220.23"/><use xlink:href="#T" x="749.467" y="2220.23"/><use xlink:href="#ab" x="763.117" y="2220.23"/><use xlink:href="#at" x="781.807" y="2220.23"/><use xlink:href="#T" x="799.057" y="2220.23"/><use xlink:href="#T" x="812.707" y="2220.23"/><use xlink:href="#at" x="826.357" y="2220.23"/><use xlink:href="#T" x="843.607" y="2220.23"/><use xlink:href="#au" x="857.257" y="2220.23"/><use xlink:href="#W" x="875.437" y="2220.23"/><use xlink:href="#V" x="884.377" y="2220.23"/><use xlink:href="#at" x="903.067" y="2220.23"/><use xlink:href="#av" x="920.317" y="2220.23"/><use xlink:href="#U" x="930.577" y="2220.23"/><use xlink:href="#ae" x="946.657" y="2220.23"/><use xlink:href="#aa" x="961.387" y="2220.23"/><use xlink:href="#ag" x="972.787" y="2220.23"/><use xlink:href="#U" x="990.697" y="2220.23"/><use xlink:href="#T" x="1006.777" y="2220.23"/><use xlink:href="#ad" x="1020.427" y="2220.23"/><use xlink:href="#W" x="1029.187" y="2220.23"/><use xlink:href="#V" x="1038.127" y="2220.23"/><use xlink:href="#ah" x="1056.817" y="2220.23"/></g><g fill="#fff"><use xlink:href="#S" x="1065.277" y="2220.23"/><use xlink:href="#at" x="1080.217" y="2220.23"/><use xlink:href="#aw" x="1097.467" y="2220.23"/></g></svg>