<svg viewBox="0 0 2268 3024" xmlns="http://www.w3.org/2000/svg" fill-rule="evenodd" clip-rule="evenodd" stroke-linejoin="round" stroke-miterlimit="2"><path fill-rule="nonzero" d="M0 .006h2267.72v3023.62H0z"/><path d="M258.59 493.589c109.437 0 182.396-100.312 182.396-216.48 0-122.395-72.96-216.479-182.396-216.479-110.395 0-182.875 98.876-182.875 216.48 0 120.956 72.48 216.479 182.875 216.479zm32.646-11.043c-37.917 0-89.77-197.271-89.77-320.167 0-61.917 8.645-90.709 24.498-90.709 40.792 0 89.272 198.229 89.272 319.188 0 62.418-8.646 91.688-24 91.688zM448.199 166.234c15.833 10.063 21.604 22.063 21.604 53.271V504.63l-21.604 26.396h154.563c-16.334-17.75-21.604-27.354-21.604-50.874v-9.606c50.396-3.354 89.749-19.209 119.52-48.96 35.521-35.52 59.521-85.916 59.521-145.436 0-86.396-41.771-129.125-86.396-129.125-47.041 0-82.083 40.792-92.645 83.52l3.354-83.52-136.313 19.209zm181.437 288.48c-13.916 0-33.125-27.376-48.48-71.042V236.298c3.835-2.876 7.188-3.835 10.084-3.835 39.355 0 63.834 71.521 63.834 139.209 0 60.96-13.916 83.042-25.438 83.042zM1047.228 354.86l-3.833-.959c-24.48 30.251-49.437 46.563-82.084 46.563-41.749 0-71.52-28.312-85.437-85.916l168.48 34.561c3.833-23.04 5.292-37.437 5.292-55.687 0-86.396-50.418-147.355-125.294-147.355-84.957 0-156.957 81.605-156.957 187.688 0 93.105 60 158.875 137.751 158.875 77.77 0 125.77-60.48 142.082-137.77zM868.187 234.379c0-54.706 9.125-74.874 22.563-74.874 15.853 0 39.373 60.96 42.249 128.647l-58.083 20.625c-4.313-21.106-6.729-45.584-6.729-74.396v-.002zM1360.189 243.985c0-68.167-26.396-96.959-67.208-96.959-44.147 0-80.627 44.167-104.627 91.208l4.793-91.208-137.749 19.208c15.832 10.063 21.583 22.063 21.583 53.272v237.126l-21.584 26.394h154.562c-16.333-17.75-21.604-27.354-21.604-50.874V244.943c8.147-4.313 16.792-6.709 23.52-6.709 28.792 0 36.96 32.625 36.96 79.667V456.63l-16.814 26.396h149.77c-16.312-17.75-21.604-27.354-21.604-50.874l.002-188.167zM1637.63 344.297l41.271 109.937-11.52 28.792h154.082l-144-384 21.604-28.792h-164.166c25.937 47.52 25.458 99.833 5.292 153.104l-99.355 259.688h137.752c-9.125-31.688-15.355-67.208-19.688-103.208l78.728-35.521zm-70.563-189.583l68.167 182.875h-79.688c-4.791-74.875 0-145.918 11.521-182.875z" fill="#0f0" fill-rule="nonzero"/><path d="M1883.874 139.818c42.229 0 69.604-21.104 69.604-49.437 0-28.314-28.333-51.355-72-51.355-43.208 0-67.687 23.041-67.687 51.355 0 28.333 25.438 49.437 70.083 49.437zm-74.396 21.604c15.833 12.959 21.584 24.959 21.584 54.729v240.481l-21.584 26.394h154.541c-16.312-12.958-21.582-22.562-21.582-50.874V249.755l4.792-102.729-137.751 14.396z" fill="#0f0" fill-rule="nonzero"/><path d="M2096.995 285.755l2.876-138.729-137.772 19.208c15.855 10.063 21.606 22.063 21.606 53.271V456.63l-21.604 26.396h154.561c-16.312-17.75-21.583-27.354-21.583-50.874v-80.647c0-49.437 11.022-82.083 25.438-82.083 14.874 0 29.27 40.814 42.229 122.875h4.813l41.75-237.104c-7.688-3.375-14.875-4.814-22.563-4.814-40.792 0-76.792 48.961-89.751 135.377zM698.987 576.359l29.29-28.792H559.32c13.916 12.959 18.707 28.313 14.875 51.833l-24 140.647h-84.959l28.312-163.688 29.293-28.792H351.943c14.417 11.52 18.729 26.875 14.417 53.271l-61.457 366.729 153.604-26.896-23.042-26.874 22.084-125.271 91.687-40.814-36.959 219.857 151.667-26.896-21.583-24.958 56.626-339.356z" fill="#0f0" fill-rule="nonzero"/><path d="M690.357 836.526c0 83.52 46.563 133.437 124.312 133.437 95.042 0 180.959-86.396 180.959-209.77 0-92.626-48-135.834-122.875-135.834-95.042 0-182.396 87.834-182.396 212.167zm112.792 58.084c0-98.417 35.04-263.521 64.334-263.521 7.666 0 15.353 11.021 15.353 70.062 0 98.416-36 262.083-65.292 262.083-7.187 0-14.395-14.875-14.395-68.624zM1162.187 624.359l-141.604 24.959 21.604 24.958-52.792 298.083 125.749-22.084v-76.312l7.209-42.249c12-67.667 24-95.043 32.646-95.043 11.041 0 18.229 33.126 24.48 120.48h4.79l66.73-229.437-3.375-3.355c-28.792 0-79.667 17.271-116.147 140.167l30.71-140.167zM1386.345 624.359l-141.604 24.959 21.604 24.958-52.792 298.083 125.749-22.084v-76.312l7.209-42.249c12-67.667 24-95.043 32.646-95.043 11.041 0 18.229 33.126 24.48 120.48h4.79l66.73-229.437-3.375-3.355c-28.792 0-79.667 17.271-116.147 140.167l30.71-140.167zM1438.675 836.526c0 83.52 46.563 133.437 124.312 133.437 95.042 0 180.959-86.396 180.959-209.77 0-92.626-48-135.834-122.875-135.834-95.042 0-182.396 87.834-182.396 212.167zm112.792 58.084c0-98.417 35.04-263.521 64.334-263.521 7.666 0 15.353 11.021 15.353 70.062 0 98.416-36 262.083-65.292 262.083-7.187 0-14.395-14.875-14.395-68.624zM1910.505 624.359l-141.604 24.959 21.604 24.958-52.792 298.083 125.749-22.084v-76.312l7.209-42.249c12-67.667 24-95.043 32.646-95.043 11.041 0 18.229 33.126 24.48 120.48h4.79l66.73-229.437-3.375-3.355c-28.792 0-79.667 17.271-116.147 140.167l30.71-140.167zM291.947 1027.08l29.29-28.792H150.341c14.418 11.52 19.21 26.875 14.418 53.271l-64.334 366.729 153.604-26.896-21.604-24.957 59.522-339.355zm40.812 117.125l177.104-145.917H356.759c4.312 113.751-32.646 165.104-96.959 216.959l31.187 94.563c26.397 79.666 55.689 110.874 89.772 110.874 56.146 0 65.75-76.333 65.75-125.77 0-62.875-16.792-153.585-24-189.105h-4.792c8.626 45.105 12 101.75 12 130.063 0 40.334-7.208 51.375-16.333 51.375-8.147 0-15.355-8.645-28.792-36.48l-51.833-106.562z" fill="#0f0" fill-rule="nonzero"/><path d="M639.465 1017.476c0-24-19.186-48.48-55.186-48.48-45.606 0-75.376 26.876-75.376 55.209 0 24 19.208 48.48 56.166 48.48 41.771 0 74.396-28.333 74.396-55.209zm-179.041 403.208l141.604-24.958-21.604-24.958 51.853-295.688-141.604 24.959 21.604 24.958-51.853 295.687zM786.347 1075.08l-141.604 24.959 21.604 24.958-51.355 293.29 127.688-22.083-.48-73.917c15.833-105.604 45.104-162.729 61.917-162.729 18.708 0 20.147 50.875 9.126 111.354l-26.418 147.376 141.604-24.957-21.604-24.98 27.854-162.708c15.836-93.604-4.811-130.563-41.768-130.563-48 0-104.167 52.792-129.126 131.042l22.562-131.042zM951.957 1287.247c0 83.52 46.563 133.437 124.312 133.437 95.042 0 180.959-86.396 180.959-209.77 0-92.626-48-135.834-122.875-135.834-95.042 0-182.396 87.834-182.396 212.167zm112.792 58.084c0-98.417 35.04-263.521 64.334-263.521 7.666 0 15.353 11.021 15.353 70.062 0 98.416-36 262.083-65.292 262.083-7.187 0-14.395-14.875-14.395-68.624z" fill="#0f0" fill-rule="nonzero"/><path d="M1441.075 1084.684h-48.478c0-50.396 12-86.396 57.104-110.396v-4.813c-103.667 0-158.875 57.126-168.48 115.209h-26.394v4.792c19.208 7.688 26.396 17.771 26.396 46.083v249.125l-21.585 26.396h154.541c-16.312-14.396-21.582-24-21.582-50.874v-243.854l48.48-26.876-.002-4.792z" fill="#0f0" fill-rule="nonzero"/><path d="M1704.583 1282.914l-3.833-.959c-24.48 30.251-49.437 46.563-82.084 46.563-41.749 0-71.52-28.312-85.437-85.916l168.48 34.561c3.833-23.04 5.292-37.437 5.292-55.687 0-86.396-50.418-147.355-125.294-147.355-84.957 0-156.957 81.605-156.957 187.688 0 93.105 60 158.875 137.751 158.875 77.77 0 125.77-60.48 142.082-137.77zm-179.041-120.481c0-54.706 9.125-74.874 22.563-74.874 15.853 0 39.373 60.96 42.249 128.647l-58.083 20.625c-4.313-21.106-6.729-45.584-6.729-74.396v-.002zM1756.423 1279.08h-4.792l-37.437 118.084c19.667 11.04 58.084 23.52 108.959 23.52 88.792 0 133.437-54.249 133.437-110.874 0-36.979-12-56.646-26.396-71.042-38.875-38.896-119.041-59.042-153.604-94.084-4.312-4.333-14.875-15.355-14.875-25.437 0-9.604 10.083-15.375 23.52-15.375 31.188 0 85.438 36.48 135.355 112.334h4.792l36-117.605c-19.667-11.042-57.104-23.521-104.147-23.521-80.645 0-137.29 46.563-137.29 109.917 0 33.124 12.478 56.646 29.29 73.438 27.834 27.853 118.563 61.916 148.792 92.167 9.126 9.124 14.875 16.79 14.875 26.396 0 11.52-9.104 15.833-20.145 15.833-21.604 0-82.563-29.272-136.334-113.751zM2170.674 1084.684h-73.917l-21.604-96.48-111.355 103.188c14.876 21.604 21.584 49.438 21.584 98.896v132.959c0 68.147 27.375 97.437 69.124 97.437 44.168 0 87.355-50.396 113.772-110.396-10.084 3.834-18.729 5.271-26.417 5.271-34.063 0-45.104-27.353-45.104-73.916v-125.292l73.917-26.875v-4.792z" fill="#0f0" fill-rule="nonzero"/><g><path d="M376.916 1459.568c17.751 11.52 25.437 22.063 24 53.271v330.729l-24 28.792h193.917c86.875 0 150.23-50.396 150.23-124.312 0-60.96-39.834-111.376-141.106-111.376 73.918 0 139.188-38.396 139.188-96 0-56.624-60-81.104-148.312-81.104H376.916zm148.792 7.667c36.959 5.77 70.083 38.396 70.083 96 0 49.917-25.438 91.208-70.083 109.917 40.813 0 72.48 44.646 72.48 107.52 0 43.21-16.313 84-72.48 84v-397.437zM1015.305 1744.194l-3.833-.959c-24.48 30.251-49.437 46.563-82.084 46.563-41.749 0-71.52-28.312-85.437-85.916l168.48 34.561c3.833-23.04 5.292-37.437 5.292-55.687 0-86.396-50.418-147.355-125.294-147.355-84.957 0-156.957 81.605-156.957 187.688 0 93.105 60 158.875 137.751 158.875 77.77 0 125.77-60.48 142.082-137.77zm-179.041-120.481c0-54.706 9.125-74.874 22.563-74.874 15.853 0 39.373 60.96 42.249 128.647l-58.083 20.625c-4.313-21.106-6.729-45.584-6.729-74.396v-.002zM1155.955 1675.089l2.876-138.729-137.772 19.208c15.855 10.063 21.606 22.063 21.606 53.271v237.125l-21.604 26.396h154.561c-16.312-17.75-21.583-27.354-21.583-50.874v-80.647c0-49.437 11.022-82.083 25.438-82.083 14.874 0 29.27 40.814 42.229 122.875h4.813l41.75-237.104c-7.688-3.375-14.875-4.814-22.563-4.814-40.792 0-76.792 48.961-89.751 135.377z" fill="#0f0" fill-rule="nonzero"/><path d="M1277.382 1845.964l-21.584 26.396h154.541c-16.312-12.958-21.582-22.562-21.582-50.874v-288.001l5.75-102.729-138.709 14.396c15.833 12.959 21.584 24.959 21.584 54.729v346.083zM1484.754 1529.152c42.229 0 69.604-21.104 69.604-49.437 0-28.314-28.333-51.355-72-51.355-43.208 0-67.687 23.041-67.687 51.355 0 28.333 25.438 49.437 70.083 49.437zm-74.396 21.604c15.833 12.959 21.584 24.959 21.584 54.729v240.481l-21.584 26.394h154.541c-16.312-12.958-21.582-22.562-21.582-50.874v-182.397l4.792-102.729-137.751 14.396zM1870.189 1633.319c0-68.167-26.396-96.959-67.208-96.959-44.147 0-80.627 44.167-104.627 91.208l4.793-91.208-137.749 19.208c15.832 10.063 21.583 22.063 21.583 53.272v237.126l-21.584 26.394h154.562c-16.333-17.75-21.604-27.354-21.604-50.874v-187.209c8.147-4.313 16.792-6.709 23.52-6.709 28.792 0 36.96 32.625 36.96 79.667v138.729l-16.814 26.396h149.77c-16.312-17.75-21.604-27.354-21.604-50.874l.002-188.167z" fill="#0f0" fill-rule="nonzero"/></g><g><path d="M832.094 2003.669l9.938-55.896h1.374c9.396 0 15.042 18.459 15.042 50.98h1.062l17.396-52.792h-67c3.208 2.563 4.271 5.979 3.208 11.833l-14.394 81.5 34.122-5.977-4.79-5.541 3.937-22.939h15.791l.856-35.939-16.542 34.771zM905.916 1950.232c0-5.334-4.27-10.792-12.27-10.792-10.124 0-16.75 5.98-16.75 12.272 0 5.333 4.271 10.77 12.48 10.77 9.291 0 16.542-6.292 16.542-12.25h-.002zm-39.789 89.584l31.48-5.543-4.813-5.541 11.518-65.708-31.456 5.541 4.791 5.543-11.52 65.708zM939.627 1963.024l-31.48 5.541 4.813 5.543-11.73 66.249 27.937-4.917v-16.958l1.604-9.374c2.667-15.043 5.333-21.126 7.249-21.126 2.459 0 4.063 7.354 5.438 26.771h1.062l14.836-50.979-.75-.75c-6.396 0-17.708 3.833-25.814 31.146l6.835-31.146zM982.185 2018.17c7.563 5.334 8.645 9.604 8.645 11.728 0 2.043-1.29 4.063-4.27 4.063-5.438 0-18.147-9.5-26.875-24.333h-1.084l-12.479 28.708c4.167.75 8.854 1.48 15.584 1.48 31.146 0 42.228-12.896 42.228-26.334 0-7.376-4.04-13.125-12.373-18.77l-14.917-10.147c-7.043-4.791-8.104-9.375-8.104-11.52 0-2.021 1.27-4.147 4.249-4.147 5.437 0 18.355 10.667 26.147 24.418h1.061l13.543-28.792c-4.168-.751-8.855-1.5-15.563-1.5-31.147 0-42.251 12.688-42.251 26.354 0 7.146 4.271 13.23 12.48 18.979l13.979 9.813zM1058.777 1966.232v-1.083h-12.918v-20.584l-30.602 21.125c2.438 4.792 2.772 9.918.854 20.792l-4.168 24.334c-3.52 20.79 2.251 29 12.271 29 11.187 0 22.084-10.022 25.708-29.21h-1.063c-3.52 8.834-5.978 10.439-8.228 10.439-4.146 0-3.626-11.293-1.27-24.751l4.27-24.104 15.146-5.958zM1068.479 2037.69c7.457 1.167 14.729 1.604 25.062 1.604 34.896 0 39.896-8.104 39.896-18.562 0-10.771-5-24.312-9.168-34.124h-1.061c-.543 29.853-8.648 40.206-27.751 51.082l6.187-34.978h13.231l6.186-35.104-19.29 33.916 9.582-53.751h1.396c10.022 0 13.75 11.188 18.355 39.667h1.061l15.459-41.479h-68.041c3.186 2.563 4.249 5.979 3.186 11.833l-14.29 79.896z" fill="#0f0" fill-rule="nonzero"/><path d="M1202.119 2034.065l-4.791-5.541 15.896-88.959-27.729 5.104v13.563l-1.294 7.25c-12.477 1.271-25.061 6.083-33.602 15.147-10.875 11.624-16 28.373-16 40.103 0 11.625 5.02 18.98 13.562 18.98 4.374 0 9.062-1.918 13.646-6.5 4.374-4.376 10.021-12.376 14.396-26.459l-6.708 33.063 32.624-5.751zm-35.52-13.229c-2.543 0-3.626-5.02-3.626-11.312 0-12.147 4.167-33.918 8.751-38.5.853-.854 1.812-1.271 2.875-1.271 3 0 5.77 2.125 7.896 5.104-4.584 26.667-12.584 45.979-15.896 45.979zM1247.463 1950.232c0-5.334-4.27-10.792-12.27-10.792-10.124 0-16.75 5.98-16.75 12.272 0 5.333 4.271 10.77 12.48 10.77 9.291 0 16.542-6.292 16.542-12.25h-.002zm-39.789 89.584l31.48-5.543-4.813-5.541 11.518-65.708-31.456 5.541 4.791 5.543-11.52 65.708zM1295.257 1966.232v-1.083h-12.918v-20.584l-30.602 21.125c2.438 4.792 2.772 9.918.854 20.792l-4.168 24.334c-3.52 20.79 2.251 29 12.271 29 11.187 0 22.084-10.022 25.708-29.21h-1.063c-3.52 8.834-5.978 10.439-8.228 10.439-4.146 0-3.626-11.293-1.27-24.751l4.27-24.104 15.146-5.958zM1328.213 1950.232c0-5.334-4.27-10.792-12.27-10.792-10.124 0-16.75 5.98-16.75 12.272 0 5.333 4.271 10.77 12.48 10.77 9.291 0 16.542-6.292 16.542-12.25h-.002zm-39.789 89.584l31.48-5.543-4.813-5.541 11.518-65.708-31.456 5.541 4.791 5.543-11.52 65.708zM1325.861 2010.17c0 18.56 10.352 29.644 27.624 29.644 21.126 0 40.23-19.186 40.23-46.604 0-20.584-10.667-30.188-27.312-30.188-21.126.002-40.542 19.522-40.542 47.148zm25.063 12.916c0-21.874 7.791-58.562 14.312-58.562 1.687 0 3.396 2.437 3.396 15.562 0 21.875-8 58.25-14.5 58.25-1.604 0-3.209-3.312-3.209-15.25h.001zM1431.784 1963.024l-31.48 5.541 4.813 5.543-11.417 65.186 28.375-4.916-.104-16.417c3.52-23.48 10.021-36.167 13.75-36.167 4.167 0 4.479 11.312 2.04 24.751l-5.872 32.749 31.458-5.541-4.791-5.563 6.187-36.146c3.518-20.811-1.064-29.02-9.292-29.02-10.667 0-23.147 11.729-28.688 29.125l5.021-29.125z" fill="#0f0" fill-rule="nonzero"/></g><g><path d="M225.93 2096.357l26.02-25.604H100.076c12.792 10.249 17.063 23.896 12.792 47.353l-37.541 204.815c-8.104 44.791-25.187 87.04-49.063 123.311h4.249c90.459-38.416 145.502-67 156.606-129.292l38.812-220.583zM230.636 2330.17c-15.375 83.207 4.686 116.06 37.541 116.06 42.229 0 91.729-47.374 113.917-116.916l-20.062 116.918 125.874-22.187-19.208-22.188 47.375-264.959-101.563 18.333c-28.146 164.273-49.916 215.897-67.396 215.897-16.645 0-17.937-45.23-8.125-98.979l23.896-132.708-125.853 22.186 19.186 22.187-25.582 146.356zM674.357 2045.149l-115.187 21.77v76.375l-52.917 300.792 125.875-22.186-19.208-22.19 61.437-354.561zM659.426 2394.17l-40.542 94.728c98.562 0 154.458-19.208 211.645-68.27 44.792-38.834 69.96-75.52 85.751-165.979l20.48-115.626-110.084 19.626v61.437c-5.542 47.792-15.355 87.896-30.708 103.25-4.272 4.271-8.96 6.833-13.667 6.833-10.229 0-16.627-14.083-16.627-38.395 0-38.835 12.794-100.688 24.731-152.751l-111.771 55.459 38.396 49.5c-26.021 23.459-63.146 63.583-63.146 106.25 0 12.792 2.98 26.021 11.937 37.104 11.104 13.666 25.604 17.084 37.98 17.084 37.541 0 81.063-29.875 106.667-93.022l-13.647 79.355c-9.813 57.604-24.749 64.853-35.853 64.853-16.627 0-59.294-20.478-97.272-61.437l-4.27.001z" fill="#0f0" fill-rule="nonzero"/></g><g><path d="M990.53 2446.232l125.854-22.187-19.186-22.188 46.06-262.834-125.854 22.187 19.187 22.188-46.061 262.834zM1165.894 2204.732c0 25.604 13.645 49.917 32.833 73.374-31.564 18.356-66.126 46.086-66.126 86.627 0 50.769 45.645 81.499 104.541 81.499 79.771 0 136.104-35 136.104-104.126 0-28.145-16.645-55.457-39.249-80.624 37.104-14.084 69.104-39.25 69.104-76.813 0-52.04-44.792-84.04-105.814-84.04-79.77 0-131.394 38.394-131.394 104.102l.001.001zm60.145-70.396c0-12.374 5.542-18.771 14.938-18.771 35.833 0 82.354 53.75 85.75 138.229-43.084-46.5-100.688-87.041-100.688-119.458zm87.042 277.75c0 12.375-5.542 18.771-14.938 18.771-32.417 0-89.166-53.751-93-145.917 43.52 49.917 107.938 93.438 107.938 127.146z" fill="#0f0" fill-rule="nonzero"/></g><g><path fill="#0f0" fill-rule="nonzero" d="M1396.285 2278.969h128.853v25.604h-128.853z"/></g><g><path d="M1589.994 2319.504h4.249c21.334-65.71 40.542-99.835 62.73-99.835 13.645 0 21.749 13.229 21.749 36.688 0 26.021-11.937 49.5-36.687 83.625-30.708-8.959-64-20.48-114.354-20.48l40.125 125.876a495.784 495.784 0 0123.02-35c22.627 16.646 49.94 35.854 94.313 35.854 56.312 0 94.708-34.563 94.708-86.187 0-29.876-8.104-61.876-19.625-84.48h-4.271c8.104 49.063-8.52 75.937-52.041 75.937-17.5 0-33.292-3.416-49.5-7.686 71.251-58.438 136.959-72.52 136.959-145.918 0-33.271-25.167-58.875-59.314-58.875-53.333 0-91.729 50.355-113.916 107.52l32-98.978h-96.417l36.272 171.939zM2024.753 2212.837l64.438-97.709c-27.73-5.979-46.938-8.52-66.563-8.52-68.687 0-117.771 32.416-148.48 63.145-46.497 46.5-65.289 110.063-65.289 160.416 0 34.563 9.813 67.417 32 89.605 15.79 15.79 37.561 26.456 66.998 26.456 75.938 0 148.042-64.437 148.042-157.02 0-51.626-28.146-78.939-57.583-78.939-40.125 0-70.833 40.106-87.48 81.501 24.333-134.833 40.543-171.958 55.48-171.958 15.355 0 44.792 67.416 54.187 93.02l4.25.003zm-133.104 193.707l5.542-37.979c8.958-61.854 28.584-95.147 43.937-95.147 11.959 0 15.792 22.188 15.792 49.918 0 52.917-16.208 96.854-30.292 110.938-3.833 3.832-7.249 5.54-12.375 5.54-9.813 0-17.5-15.354-22.604-33.27z" fill="#0f0" fill-rule="nonzero"/></g><g><path d="M2086.189 2488.898h5.562l106.23-147.208-111.792-36.271v183.479z" fill="#0f0" fill-rule="nonzero"/></g><g><path d="M630.835 2690.174h4.249c21.334-65.71 40.542-99.835 62.73-99.835 13.645 0 21.749 13.229 21.749 36.688 0 26.021-11.937 49.5-36.687 83.625-30.708-8.959-64-20.48-114.354-20.48l40.125 125.876a495.784 495.784 0 0123.02-35c22.627 16.646 49.94 35.854 94.313 35.854 56.312 0 94.708-34.563 94.708-86.187 0-29.876-8.104-61.876-19.625-84.48h-4.271c8.104 49.063-8.52 75.937-52.041 75.937-17.5 0-33.292-3.416-49.5-7.686 71.251-58.438 136.959-72.52 136.959-145.918 0-33.271-25.167-58.875-59.314-58.875-53.333 0-91.729 50.355-113.916 107.52l32-98.978h-96.417l36.272 171.939zM845.861 2698.276c0 74.251 41.396 118.627 110.5 118.627 84.48 0 160.853-76.813 160.853-186.46 0-82.353-42.666-120.75-109.206-120.75-84.502 0-162.147 78.084-162.147 188.584v-.001zm100.271 51.627c0-87.459 31.146-234.231 57.166-234.231 6.834 0 13.667 9.813 13.667 62.293 0 87.458-32 232.958-58.041 232.958-6.396 0-12.792-13.23-12.792-61.022v.002zM1193.184 2690.174h4.249c21.334-65.71 40.542-99.835 62.73-99.835 13.645 0 21.749 13.229 21.749 36.688 0 26.021-11.937 49.5-36.687 83.625-30.708-8.959-64-20.48-114.354-20.48l40.125 125.876a495.784 495.784 0 0123.02-35c22.627 16.646 49.94 35.854 94.313 35.854 56.312 0 94.708-34.563 94.708-86.187 0-29.876-8.104-61.876-19.625-84.48h-4.271c8.104 49.063-8.52 75.937-52.041 75.937-17.5 0-33.292-3.416-49.5-7.686 71.251-58.438 136.959-72.52 136.959-145.918 0-33.271-25.167-58.875-59.314-58.875-53.333 0-91.729 50.355-113.916 107.52l32-98.978h-96.417l36.272 171.939zM1408.204 2698.276c0 74.251 41.396 118.627 110.5 118.627 84.48 0 160.853-76.813 160.853-186.46 0-82.353-42.666-120.75-109.206-120.75-84.502 0-162.147 78.084-162.147 188.584v-.001zm100.271 51.627c0-87.459 31.146-234.231 57.166-234.231 6.834 0 13.667 9.813 13.667 62.293 0 87.458-32 232.958-58.041 232.958-6.396 0-12.792-13.23-12.792-61.022v.002z" fill="#0f0" fill-rule="nonzero"/></g><g><path d="M542.973 2892.594l3.083-9.292c-2.896-.874-5.771-1.353-8.896-1.353-6.147 0-11.271 3.396-11.271 8.48 0 2.728 1 4.291 2.396 5.687 2.125 2.125 8.959 3.916 10.563 5.52.77.75 1.249 1.792 1.249 3.229 0 .917-.333 1.771-.959 2.396-.937.937-2.124 1.459-3.645 1.459-1.396 0-3.167-.646-4.333-1.375l-2.23-6.751h-.958l-3.123 9.667c3.479 1 6.248 1.375 9.395 1.375 6.686 0 12.249-3.854 12.249-8.812 0-2.708-.916-4.147-2.125-5.355-1.916-1.916-9-4.353-10.646-6-.958-.957-1.437-1.645-1.437-3.228 0-.688.249-1.459.853-2.043.627-.645 1.543-1.333 3.022-1.333 1.25 0 2.813.563 3.646 1.084l2.208 6.645h.959zM557.813 2911.636c4.52 0 8.229-3.25 9.355-5.771l-.604-.833c-1.627 1-3.272 1.833-6.147 1.833-3.52 0-5.853-2.604-5.853-7.604 0-4.396 1.77-6 3.957-6 1 0 1.813.292 2.333.604l2.188 5.813h.73l3.52-9.166c-2.083-.522-4.04-.792-6-.792-6.208 0-12.687 5.229-12.687 12.353 0 5.917 3.563 9.563 9.208 9.563zM571.213 2908.261l-2.813 1.125v1.604h12.48v-1.604c-3.063-1.312-3.584-2.041-3.584-4.666v-3.418c0-4.52 1.584-6.061 3.666-6.061l2.167 5.395h.751l2.561-10.374c-.707-.356-1.624-.542-2.624-.542-3.167 0-5.521 2.52-6.521 5.541v-5.541l-8.52 2.353v1.605c1.832.271 2.436.875 2.436 3.583l.001 11zM598.121 2906.865c-2.959 0-4.875-1.708-5.437-5.667l12.812.959c.186-1.375.229-2.375.229-3.604 0-5.647-2.667-8.833-7.647-8.833-5.312 0-11.353 4.833-11.353 12.27 0 6.167 3.916 9.646 9.644 9.646 4.708 0 7.875-3.479 9.271-5.771l-.583-.833c-1.563.958-3.647 1.833-6.937 1.833h.001zm-5.584-8.187c0-2.438.52-3.938 1.313-4.729.562-.563 1.312-.751 2.04-.751 2.398 0 4 2.396 4 5.147l-7.353.957v-.624zM619.561 2906.865c-2.959 0-4.875-1.708-5.437-5.667l12.812.959c.186-1.375.229-2.375.229-3.604 0-5.647-2.667-8.833-7.647-8.833-5.312 0-11.353 4.833-11.353 12.27 0 6.167 3.916 9.646 9.644 9.646 4.708 0 7.875-3.479 9.271-5.771l-.583-.833c-1.563.958-3.647 1.833-6.937 1.833h.001zm-5.584-8.187c0-2.438.52-3.938 1.313-4.729.562-.563 1.312-.751 2.04-.751 2.398 0 4 2.396 4 5.147l-7.353.957v-.624zM650.729 2905.116v-8.167c0-5.688-2.561-7.229-5.271-7.229-3 0-6.04 1.916-7.77 3.146v-3.146l-8.519 2.353v1.396c1.833.272 2.437.876 2.437 3.605v11.187l-2.792 1.125v1.604h11.667v-1.604c-2.272-1.312-2.792-2.041-2.792-4.666v-9.73c1.125-.354 2.688-.729 3.96-.729 2.291 0 3 1.167 3 3.417v10.583l-2.793 1.125v1.604h11.666v-1.604c-2.27-1.312-2.79-2.041-2.79-4.27h-.003zM659.4 2888.116c2.333 0 4.084-1.688 4.084-4.084 0-2.083-1.751-4-4.084-4-2.396 0-4.23 1.917-4.23 4 0 2.396 1.834 4.084 4.23 4.084zm3.209 17v-8.084l.396-7.312-8.916 2.353v1.396c1.833.272 2.437.876 2.437 3.605v11.187l-2.792 1.125v1.604h11.667v-1.604c-2.272-1.312-2.792-2.041-2.792-4.27zM687.569 2905.116v-8.167c0-5.688-2.561-7.229-5.271-7.229-3 0-6.04 1.916-7.77 3.146v-3.146l-8.519 2.353v1.396c1.833.272 2.437.876 2.437 3.605v11.187l-2.792 1.125v1.604h11.667v-1.604c-2.272-1.312-2.792-2.041-2.792-4.666v-9.73c1.125-.354 2.688-.729 3.96-.729 2.291 0 3 1.167 3 3.417v10.583l-2.793 1.125v1.604h11.666v-1.604c-2.27-1.312-2.79-2.041-2.79-4.27h-.003zM700.136 2904.386c4.437 0 9.625-2.666 10.041-9.125l3.271-1.875v-.917l-5.604-1.791c-2.042-.646-3.834-.96-5.604-.96-5.438 0-10.626 3.356-10.626 8.106 0 2.896 1.792 4.813 4.272 5.813l-3.833 7.748 10.271.563c2.208.125 3.853 1.396 3.853 3.041 0 2.437-2 3.563-4.959 3.563-3.561 0-5.416-2.292-5.416-4.814v-.624l-.958-.166c-2.354 1.481-3.708 3.001-3.708 4.792 0 2.25 1.792 4.293 7.48 4.293 6.706 0 13.312-4.439 13.312-9.313-.043-2.73-1.71-5.084-6.918-5.459l-6.604-.48-1.52-2.832c1.058.294 2.152.441 3.25.437zm1.104-2.874c-1.959 0-3.626-2-3.626-4.792 0-2.292 1.272-4.126 3.314-4.126 2.562 0 3.562 1.918 3.562 4.52 0 2.627-1.396 4.398-3.25 4.398zM743.26 2911.386h1.916l5.52-14.125 3-5.312v-1.604h-5.771c0 3.604-.916 7.812-2.353 11.812l-6.042-12.208h-1.646l-4.915 12.125-2.355-5.917-1.292-5.813h-7.792v1.605c1.479 2 2.354 3.353 3.791 7.041l4.896 12.396h1.917l5.187-12.229 5.939 12.229zM759.72 2888.116c2.333 0 4.084-1.688 4.084-4.084 0-2.083-1.751-4-4.084-4-2.396 0-4.23 1.917-4.23 4 0 2.396 1.834 4.084 4.23 4.084zm3.209 17v-8.084l.396-7.312-8.916 2.353v1.396c1.833.272 2.437.876 2.437 3.605v11.187l-2.792 1.125v1.604h11.667v-1.604c-2.272-1.312-2.792-2.041-2.792-4.27zM773.328 2883.116h-.688l-6.875 8.124v.666a5.874 5.874 0 011.813 1.251c.832.875.791 2.52.791 5.52v8c0 3.313 1.875 4.919 4.52 4.919 2.835 0 5.564-1.438 8-2.646v-.958l-6.727-1.835v-12.604h6.458v-3.208h-5.646l-1.646-7.229zM790.486 2881.51l-.75-.77-8.814 2.25v1.042c2.396 1.229 3.043 2.437 3.043 5.209v19.02l-2.792 1.125v1.604h11.667v-1.604c-2.271-.917-2.791-1.645-2.791-4.666v-9.73c1.125-.354 2.688-.729 3.96-.729 2.291 0 3 1.167 3 3.417v10.583l-2.793 1.125v1.604h11.666v-1.604c-2.27-.917-2.79-1.645-2.79-4.666v-7.771c0-5.688-2.563-7.229-5.271-7.229-3 0-6.043 1.916-7.772 3.146l.437-11.356zM814.281 2882.594v1.604c2.292.71 2.813 1.438 2.813 4.48v19.52l-2.813 1.187v1.605h24.291l-2.687-10.604h-1.041l-2.271 7-9 .771v-10.645l7.645 3v-7.606l-7.646 3v-10.437l9 .729 2.272 7h1.04l2.689-10.604h-24.292zM861.489 2905.116v-8.167c0-5.688-2.561-7.229-5.271-7.229-3 0-6.04 1.916-7.77 3.146v-3.146l-8.519 2.353v1.396c1.833.272 2.437.876 2.437 3.605v11.187l-2.792 1.125v1.604h11.667v-1.604c-2.272-1.312-2.792-2.041-2.792-4.666v-9.73c1.125-.354 2.688-.729 3.96-.729 2.291 0 3 1.167 3 3.417v10.583l-2.793 1.125v1.604h11.666v-1.604c-2.27-1.312-2.79-2.041-2.79-4.27h-.003zM874.056 2904.386c4.437 0 9.625-2.666 10.041-9.125l3.271-1.875v-.917l-5.604-1.791c-2.042-.646-3.834-.96-5.604-.96-5.438 0-10.626 3.356-10.626 8.106 0 2.896 1.792 4.813 4.272 5.813l-3.833 7.748 10.271.563c2.208.125 3.853 1.396 3.853 3.041 0 2.437-2 3.563-4.959 3.563-3.561 0-5.416-2.292-5.416-4.814v-.624l-.958-.166c-2.354 1.481-3.708 3.001-3.708 4.792 0 2.25 1.792 4.293 7.48 4.293 6.706 0 13.312-4.439 13.312-9.313-.043-2.73-1.71-5.084-6.918-5.459l-6.604-.48-1.52-2.832c1.058.294 2.152.441 3.25.437zm1.104-2.874c-1.959 0-3.626-2-3.626-4.792 0-2.292 1.272-4.126 3.314-4.126 2.562 0 3.562 1.918 3.562 4.52 0 2.627-1.396 4.398-3.25 4.398z" fill="#0f0" fill-rule="nonzero"/><path d="M896.2 2889.949l.77-8.437-.77-.771-9.104 2.249v1.042c2.396 1.229 3.041 2.437 3.041 5.209v19.02l-2.813 1.125v1.604h11.689v-1.604c-2.293-1.312-2.813-2.041-2.813-4.27v-15.167zM904.88 2888.116c2.333 0 4.084-1.688 4.084-4.084 0-2.083-1.751-4-4.084-4-2.396 0-4.23 1.917-4.23 4 0 2.396 1.834 4.084 4.23 4.084zm3.209 17v-8.084l.396-7.312-8.916 2.353v1.396c1.833.272 2.437.876 2.437 3.605v11.187l-2.792 1.125v1.604h11.667v-1.604c-2.272-1.312-2.792-2.041-2.792-4.27zM923.654 2893.261l2.187 4.251h.688l3.084-7c-2.813-.563-4.396-.792-7.293-.792-5.395 0-9.75 2.792-9.75 6.792 0 2.124.563 3.124 1.563 4.124 1.437 1.438 7.604 3.188 8.751 4.354.52.52.853.834.853 1.646 0 .396-.167.833-.52 1.188-.417.417-1.417.853-2.647.853-1.29 0-2.437-.165-3.48-.769l-1.81-3.918h-.707l-2.963 6.688c2.126.562 5.272.958 8.23.958 5 0 9.646-2.728 9.646-6.854 0-1.792-.52-3-1.646-4.104-1.583-1.605-7.52-3.293-8.624-4.417-.522-.52-.855-1.104-.855-1.625 0-.374.167-.771.437-1.04.334-.334 1.208-.69 2.48-.69.687 0 1.499.084 2.374.355h.002zM940.086 2881.51l-.75-.77-8.814 2.25v1.042c2.396 1.229 3.043 2.437 3.043 5.209v19.02l-2.792 1.125v1.604h11.667v-1.604c-2.271-.917-2.791-1.645-2.791-4.666v-9.73c1.125-.354 2.688-.729 3.96-.729 2.291 0 3 1.167 3 3.417v10.583l-2.793 1.125v1.604h11.666v-1.604c-2.27-.917-2.79-1.645-2.79-4.666v-7.771c0-5.688-2.563-7.229-5.271-7.229-3 0-6.043 1.916-7.772 3.146l.437-11.356zM976.214 2893.261l2.187 4.251h.688l3.084-7c-2.813-.563-4.396-.792-7.293-.792-5.395 0-9.75 2.792-9.75 6.792 0 2.124.563 3.124 1.563 4.124 1.437 1.438 7.604 3.188 8.751 4.354.52.52.853.834.853 1.646 0 .396-.167.833-.52 1.188-.417.417-1.417.853-2.647.853-1.29 0-2.437-.165-3.48-.769l-1.81-3.918h-.707l-2.963 6.688c2.126.562 5.272.958 8.23.958 5 0 9.646-2.728 9.646-6.854 0-1.792-.52-3-1.646-4.104-1.583-1.605-7.52-3.293-8.624-4.417-.522-.52-.855-1.104-.855-1.625 0-.374.167-.771.437-1.04.334-.334 1.208-.69 2.48-.69.687 0 1.499.084 2.374.355h.002zM991.813 2903.678v-6.646l.395-7.312-8.916 2.79v1.208c1.833.271 2.437.875 2.437 3.583v7.084c0 5.689 2.563 7.251 5.271 7.251 3 0 6.041-1.916 7.77-3.167v3.167l9.042-2.334v-1.186c-.958-.334-1.646-.771-2.124-1.375-.792-1.021-.834-2.439-.834-5.584v-4.125l.396-7.312-9.646 2.792v1.208c2.396.27 3.166.874 3.166 3.582v9.043c-1.125.373-2.686.728-3.958.728-2.291 0-3-1.165-3-3.395h.001z" fill="#0f0" fill-rule="nonzero"/><path d="M1017.491 2881.51l-.77-.77-9.104 2.25v1.042c2.396 1.229 3.041 2.437 3.041 5.209v17.437l-2.853 2.271v.957c2.29.878 6.333 1.73 10.373 1.73 5.023 0 12.543-3.04 12.543-12.395 0-6.168-3.48-9.521-7.271-9.521-2.833 0-5.125 1.708-6.729 3.541l.77-11.751zm-.77 25.44v-11.562c.978-.52 2.125-1.126 3.417-1.126 2.437 0 4.353 1.854 4.353 7.042 0 4.854-1.562 7.125-3.792 7.125-1.978 0-3.333-.833-3.978-1.48v.001zM1039.289 2883.116h-.688l-6.875 8.124v.666a5.874 5.874 0 011.813 1.251c.832.875.791 2.52.791 5.52v8c0 3.313 1.875 4.919 4.52 4.919 2.835 0 5.564-1.438 8-2.646v-.958l-6.727-1.835v-12.604h6.458v-3.208h-5.646l-1.646-7.229zM1052.801 2888.116c2.333 0 4.084-1.688 4.084-4.084 0-2.083-1.751-4-4.084-4-2.396 0-4.23 1.917-4.23 4 0 2.396 1.834 4.084 4.23 4.084zm3.209 17v-8.084l.396-7.312-8.916 2.353v1.396c1.833.272 2.437.876 2.437 3.605v11.187l-2.792 1.125v1.604h11.667v-1.604c-2.272-1.312-2.792-2.041-2.792-4.27zM1066.409 2883.116h-.688l-6.875 8.124v.666a5.874 5.874 0 011.813 1.251c.832.875.791 2.52.791 5.52v8c0 3.313 1.875 4.919 4.52 4.919 2.835 0 5.564-1.438 8-2.646v-.958l-6.727-1.835v-12.604h6.458v-3.208h-5.646l-1.646-7.229zM1082.921 2889.949l.77-8.437-.77-.771-9.104 2.249v1.042c2.396 1.229 3.041 2.437 3.041 5.209v19.02l-2.813 1.125v1.604h11.689v-1.604c-2.293-1.312-2.813-2.041-2.813-4.27v-15.167zM1098.122 2906.865c-2.959 0-4.875-1.708-5.437-5.667l12.812.959c.186-1.375.229-2.375.229-3.604 0-5.647-2.667-8.833-7.647-8.833-5.312 0-11.353 4.833-11.353 12.27 0 6.167 3.916 9.646 9.644 9.646 4.708 0 7.875-3.479 9.271-5.771l-.583-.833c-1.563.958-3.647 1.833-6.937 1.833h.001zm-5.584-8.187c0-2.438.52-3.938 1.313-4.729.562-.563 1.312-.751 2.04-.751 2.398 0 4 2.396 4 5.147l-7.353.957v-.624zM1119.895 2893.261l2.187 4.251h.688l3.084-7c-2.813-.563-4.396-.792-7.293-.792-5.395 0-9.75 2.792-9.75 6.792 0 2.124.563 3.124 1.563 4.124 1.437 1.438 7.604 3.188 8.751 4.354.52.52.853.834.853 1.646 0 .396-.167.833-.52 1.188-.417.417-1.417.853-2.647.853-1.29 0-2.437-.165-3.48-.769l-1.81-3.918h-.707l-2.963 6.688c2.126.562 5.272.958 8.23.958 5 0 9.646-2.728 9.646-6.854 0-1.792-.52-3-1.646-4.104-1.583-1.605-7.52-3.293-8.624-4.417-.522-.52-.855-1.104-.855-1.625 0-.374.167-.771.437-1.04.334-.334 1.208-.69 2.48-.69.687 0 1.499.084 2.374.355h.002zM1132.722 2911.553c2.333 0 4.084-1.688 4.084-4.084 0-2.083-1.751-4-4.084-4-2.395 0-4.228 1.917-4.228 4 0 2.396 1.833 4.084 4.227 4.084h.001zM1146.735 2882.594v1.604c2.272.71 2.792 1.438 2.792 4.48v19.396l-2.792 1.519v1.397h11.876c7.834 0 12.687-3.874 12.687-9.25 0-4.228-2.937-6.542-5.937-6.958 3.125-1.313 5.208-3.666 5.208-6.833 0-3.792-4-5.355-8.271-5.355h-15.563zm17.355 7.604c0 1.355-.48 2.542-1.355 3.438-.957.96-2.373 1.626-6.728 1.75v-9.666h1.354c4.646 0 6.729 1.708 6.729 4.48v-.002zm-8.084 16.396v-8.52c4.355.124 6.439.707 7.605 1.875.791.792 1.208 1.959 1.208 3.292 0 2.667-1.853 4.749-4.604 4.749-1.688 0-3.041-.75-4.208-1.396h-.001zM1175.934 2908.261l-2.813 1.125v1.604h12.48v-1.604c-3.063-1.312-3.584-2.041-3.584-4.666v-3.418c0-4.52 1.584-6.061 3.666-6.061l2.167 5.395h.751l2.561-10.374c-.707-.356-1.624-.542-2.624-.542-3.167 0-5.521 2.52-6.521 5.541v-5.541l-8.52 2.353v1.605c1.832.271 2.436.875 2.436 3.583l.001 11zM1199.134 2903.678v-6.646l.395-7.312-8.916 2.79v1.208c1.833.271 2.437.875 2.437 3.583v7.084c0 5.689 2.563 7.251 5.271 7.251 3 0 6.041-1.916 7.77-3.167v3.167l9.042-2.334v-1.186c-.958-.334-1.646-.771-2.124-1.375-.792-1.021-.834-2.439-.834-5.584v-4.125l.396-7.312-9.646 2.792v1.208c2.396.27 3.166.874 3.166 3.582v9.043c-1.125.373-2.686.728-3.958.728-2.291 0-3-1.165-3-3.395h.001zM1230.166 2908.073v3.564l9.041-2.333v-1.187c-.958-.333-1.645-.771-2.125-1.375-.791-1.021-.833-2.438-.833-5.584v-9.041l.77-10.604-.77-.771-9.563 2.248-.04 1.042c2.769 1.229 3.52 2.437 3.52 5.209v1.145c-.437-.041-.917-.041-1.437-.041-5.042 0-12.563 2.916-12.563 11.771 0 6.146 3.48 9.52 7.292 9.52 2.833 0 5.104-1.728 6.707-3.562l.001-.001zm0-13.165v11.124c-.959.52-2.125 1.125-3.396 1.125-2.52 0-4.48-1.853-4.48-7 0-4.563 1.605-6.729 3.917-6.729 1.959 0 3.314.833 3.959 1.48zM1251.442 2906.865c-2.959 0-4.875-1.708-5.437-5.667l12.812.959c.186-1.375.229-2.375.229-3.604 0-5.647-2.667-8.833-7.647-8.833-5.312 0-11.353 4.833-11.353 12.27 0 6.167 3.916 9.646 9.644 9.646 4.708 0 7.875-3.479 9.271-5.771l-.583-.833c-1.563.958-3.647 1.833-6.937 1.833h.001zm-5.584-8.187c0-2.438.52-3.938 1.313-4.729.562-.563 1.312-.751 2.04-.751 2.398 0 4 2.396 4 5.147l-7.353.957v-.624zM1264.174 2908.261l-2.813 1.125v1.604h12.48v-1.604c-3.063-1.312-3.584-2.041-3.584-4.666v-3.418c0-4.52 1.584-6.061 3.666-6.061l2.167 5.395h.751l2.561-10.374c-.707-.356-1.624-.542-2.624-.542-3.167 0-5.521 2.52-6.521 5.541v-5.541l-8.52 2.353v1.605c1.832.271 2.436.875 2.436 3.583l.001 11z" fill="#0f0" fill-rule="nonzero"/><path d="M1287.561 2889.949l.77-8.437-.77-.771-9.104 2.249v1.042c2.396 1.229 3.041 2.437 3.041 5.209v19.02l-2.813 1.125v1.604h11.689v-1.604c-2.293-1.312-2.813-2.041-2.813-4.27v-15.167zM1296.241 2888.116c2.333 0 4.084-1.688 4.084-4.084 0-2.083-1.751-4-4.084-4-2.396 0-4.23 1.917-4.23 4 0 2.396 1.834 4.084 4.23 4.084zm3.209 17v-8.084l.396-7.312-8.916 2.353v1.396c1.833.272 2.437.876 2.437 3.605v11.187l-2.792 1.125v1.604h11.667v-1.604c-2.272-1.312-2.792-2.041-2.792-4.27zM1312.494 2911.636c4.52 0 8.229-3.25 9.355-5.771l-.604-.833c-1.627 1-3.272 1.833-6.147 1.833-3.52 0-5.853-2.604-5.853-7.604 0-4.396 1.77-6 3.957-6 1 0 1.813.292 2.333.604l2.188 5.813h.73l3.52-9.166c-2.083-.522-4.04-.792-6-.792-6.208 0-12.687 5.229-12.687 12.353 0 5.917 3.563 9.563 9.208 9.563zM1331.727 2881.51l-.75-.77-8.814 2.25v1.042c2.396 1.229 3.043 2.437 3.043 5.209v19.02l-2.792 1.125v1.604h11.667v-1.604c-2.271-.917-2.791-1.645-2.791-4.666v-9.73c1.125-.354 2.688-.729 3.96-.729 2.291 0 3 1.167 3 3.417v10.583l-2.793 1.125v1.604h11.666v-1.604c-2.27-.917-2.79-1.645-2.79-4.666v-7.771c0-5.688-2.563-7.229-5.271-7.229-3 0-6.043 1.916-7.772 3.146l.437-11.356zM1354.689 2883.116h-.688l-6.875 8.124v.666a5.874 5.874 0 011.813 1.251c.832.875.791 2.52.791 5.52v8c0 3.313 1.875 4.919 4.52 4.919 2.835 0 5.564-1.438 8-2.646v-.958l-6.727-1.835v-12.604h6.458v-3.208h-5.646l-1.646-7.229zM1374.201 2919.782c-2.271-1.313-2.791-2.042-2.791-4.272v-3.916c.48.042.96.042 1.439.042 5.04 0 12.561-3.04 12.561-12.395 0-6.168-3.479-9.521-7.271-9.521-2.853 0-5.125 1.708-6.729 3.541v-3.541l-9.04 2.31v1.208c.957.314 1.645.751 2.124 1.355.792 1.041.833 2.437.833 5.604v18.48l-2.792 1.104v1.604h11.667l-.001-1.603zm-2.791-12.833v-11.563c.96-.52 2.125-1.125 3.396-1.125 2.437 0 4.375 1.853 4.375 7.041 0 4.855-1.562 7.126-3.812 7.126-1.959 0-3.312-.834-3.959-1.48v.001zM1395.281 2889.949l.77-8.437-.77-.771-9.104 2.249v1.042c2.396 1.229 3.041 2.437 3.041 5.209v19.02l-2.813 1.125v1.604h11.689v-1.604c-2.293-1.312-2.813-2.041-2.813-4.27v-15.167zM1410.898 2908.99l.063 2.646 8.417-1.854v-.874c-1.896-.834-2.417-1.355-2.417-6.084v-8.147c0-3.04-2.187-4.957-6.875-4.957-4 0-8.229 1.625-10.792 2.749l3.187 6.125h.73l2.52-5.729c1.52 0 3.647-.083 4.52.813.439.438.647 1.146.647 2.062v3.125l-2 .396c-4.292.853-6.52 1.729-7.729 2.937-1.271 1.271-1.875 2.792-1.875 4.626 0 3 2.563 4.813 5.355 4.813 2.686-.001 4.561-.856 6.249-2.647zm0-2.208c-.813.334-1.563.646-2.687.646-2.313 0-3.125-1.126-3.125-2.438 0-.688 0-1.354.333-2.25l5.48-.791-.001 4.833zM1427.329 2883.116h-.688l-6.875 8.124v.666a5.874 5.874 0 011.813 1.251c.832.875.791 2.52.791 5.52v8c0 3.313 1.875 4.919 4.52 4.919 2.835 0 5.564-1.438 8-2.646v-.958l-6.727-1.835v-12.604h6.458v-3.208h-5.646l-1.646-7.229zM1454.299 2890.345h-18.041l2 8.895h.957l2.563-5.291 4.625-.917-10.186 17.438.393.52h18.792l-2-9.041h-.959l-2.562 5.437-5.791.959 10.604-17.48-.395-.52zM1464.769 2916.72c2.48.582 5.082 1.062 7.833 1.062 6.563 0 11.729-3.584 11.729-8.75 0-4.791-6-7.646-14.042-8.646l.396-4.833h7.396l2.125 5.229h1.041l3.314-10.437h-16.586l-1.333 14.853c7.417 1.187 11.52 2.918 11.52 6.438 0 2.084-1.479 3.229-3.52 3.229-1 0-2.104-.271-3.667-1.187l-2.249-5.042h-1.04l-2.917 8.084zM1487.605 2916.636l.958.272 7.48-11.792-8.438-2.52v14.04zM1513.05 2905.116v-8.084l.395-7.312-8.915 2.353v1.396c1.833.272 2.437.876 2.437 3.605v11.187l-2.792 1.125v1.604h11.667v-1.604c-2.272-1.312-2.792-2.041-2.792-4.27zM1520.01 2900.116l3.563-7.52c1.666.04 2.709.31 3.313.916.48.478.645 1.124.645 1.957 0 2.521-6.52 9.876-11 15l.396.521h18.314l-2.502-8.437h-.728l-1.729 3.229h-6.396c5.853-3.666 10.249-6.708 10.249-11.104 0-3.125-2.52-4.96-7.604-4.96-3.082 0-7 1.272-10.082 2.543l2.833 7.853.728.002zM1546.215 2911.636c6.23 0 11.751-3.604 11.751-12.04 0-6.334-3.708-9.876-9.437-9.876-5.647 0-11.563 3.582-11.563 12.02 0 6.376 3.729 9.896 9.249 9.896zm5.48-9.687c0 2.353-.437 4.353-1.52 5.437-.646.646-1.438.959-2.438.959-.896 0-1.896-.272-2.52-.917-1.398-1.396-1.96-4.396-1.96-8.042 0-2.354.438-4.354 1.521-5.437.625-.647 1.437-.959 2.437-.959.876 0 1.876.271 2.522.918 1.396 1.394 1.958 4.394 1.958 8.04v.001zM1573.215 2890.073l-.437-.437-7.729 1.666-5.791 19.688h11.312v6.251h3.208v-6.251h4.229v-5.208h-4l-1.312-6.27h-1.041l-1.333 6.27h-6.584l9.478-15.709zM1583.05 2900.116l3.563-7.52c1.666.04 2.709.31 3.313.916.48.478.645 1.124.645 1.957 0 2.521-6.52 9.876-11 15l.396.521h18.314l-2.502-8.437h-.728l-1.729 3.229h-6.396c5.853-3.666 10.249-6.708 10.249-11.104 0-3.125-2.52-4.96-7.604-4.96-3.082 0-7 1.272-10.082 2.543l2.833 7.853.728.002zM1601.485 2916.636l.958.272 7.48-11.792-8.438-2.52v14.04zM1618.095 2882.594v1.604c2.272.71 2.792 1.438 2.792 4.48v19.396l-2.792 1.519v1.397h11.876c7.834 0 12.687-3.874 12.687-9.25 0-4.228-2.937-6.542-5.937-6.958 3.125-1.313 5.208-3.666 5.208-6.833 0-3.792-4-5.355-8.271-5.355h-15.563zm17.355 7.604c0 1.355-.48 2.542-1.355 3.438-.957.96-2.373 1.626-6.728 1.75v-9.666h1.354c4.646 0 6.729 1.708 6.729 4.48v-.002zm-8.084 16.396v-8.52c4.355.124 6.439.707 7.605 1.875.791.792 1.208 1.959 1.208 3.292 0 2.667-1.853 4.749-4.604 4.749-1.688 0-3.041-.75-4.208-1.396h-.001zM1656.002 2906.865c-2.959 0-4.875-1.708-5.437-5.667l12.812.959c.186-1.375.229-2.375.229-3.604 0-5.647-2.667-8.833-7.647-8.833-5.312 0-11.353 4.833-11.353 12.27 0 6.167 3.916 9.646 9.644 9.646 4.708 0 7.875-3.479 9.271-5.771l-.583-.833c-1.563.958-3.647 1.833-6.937 1.833h.001zm-5.584-8.187c0-2.438.52-3.938 1.313-4.729.562-.563 1.312-.751 2.04-.751 2.398 0 4 2.396 4 5.147l-7.353.957v-.624zM1668.734 2908.261l-2.813 1.125v1.604h12.48v-1.604c-3.063-1.312-3.584-2.041-3.584-4.666v-3.418c0-4.52 1.584-6.061 3.666-6.061l2.167 5.395h.751l2.561-10.374c-.707-.356-1.624-.542-2.624-.542-3.167 0-5.521 2.52-6.521 5.541v-5.541l-8.52 2.353v1.605c1.832.271 2.436.875 2.436 3.583l.001 11z" fill="#0f0" fill-rule="nonzero"/><path d="M1692.121 2889.949l.77-8.437-.77-.771-9.104 2.249v1.042c2.396 1.229 3.041 2.437 3.041 5.209v19.02l-2.813 1.125v1.604h11.689v-1.604c-2.293-1.312-2.813-2.041-2.813-4.27v-15.167zM1700.801 2888.116c2.333 0 4.084-1.688 4.084-4.084 0-2.083-1.751-4-4.084-4-2.396 0-4.23 1.917-4.23 4 0 2.396 1.834 4.084 4.23 4.084zm3.209 17v-8.084l.396-7.312-8.916 2.353v1.396c1.833.272 2.437.876 2.437 3.605v11.187l-2.792 1.125v1.604h11.667v-1.604c-2.272-1.312-2.792-2.041-2.792-4.27zM1728.97 2905.116v-8.167c0-5.688-2.561-7.229-5.271-7.229-3 0-6.04 1.916-7.77 3.146v-3.146l-8.519 2.353v1.396c1.833.272 2.437.876 2.437 3.605v11.187l-2.792 1.125v1.604h11.667v-1.604c-2.272-1.312-2.792-2.041-2.792-4.666v-9.73c1.125-.354 2.688-.729 3.96-.729 2.291 0 3 1.167 3 3.417v10.583l-2.793 1.125v1.604h11.666v-1.604c-2.27-1.312-2.79-2.041-2.79-4.27h-.003zM1737.682 2911.553c2.333 0 4.084-1.688 4.084-4.084 0-2.083-1.751-4-4.084-4-2.395 0-4.228 1.917-4.228 4 0 2.396 1.833 4.084 4.227 4.084h.001z" fill="#0f0" fill-rule="nonzero"/></g><g><path d="M788.7 2960.706h1.916l5.52-14.125 3-5.312v-1.604h-5.771c0 3.604-.916 7.812-2.353 11.812l-6.042-12.208h-1.646l-4.915 12.125-2.355-5.917-1.292-5.813h-7.792v1.605c1.479 2 2.354 3.353 3.791 7.041l4.896 12.396h1.917l5.187-12.229 5.939 12.229zM821.14 2960.706h1.916l5.52-14.125 3-5.312v-1.604h-5.771c0 3.604-.916 7.812-2.353 11.812l-6.042-12.208h-1.646l-4.915 12.125-2.355-5.917-1.292-5.813h-7.792v1.605c1.479 2 2.354 3.353 3.791 7.041l4.896 12.396h1.917l5.187-12.229 5.939 12.229zM853.58 2960.706h1.916l5.52-14.125 3-5.312v-1.604h-5.771c0 3.604-.916 7.812-2.353 11.812l-6.042-12.208h-1.646l-4.915 12.125-2.355-5.917-1.292-5.813h-7.792v1.605c1.479 2 2.354 3.353 3.791 7.041l4.896 12.396h1.917l5.187-12.229 5.939 12.229z" fill="#0f0" fill-rule="nonzero"/></g><g><path d="M867.281 2960.873c2.333 0 4.084-1.688 4.084-4.084 0-2.083-1.751-4-4.084-4-2.395 0-4.228 1.917-4.228 4 0 2.396 1.833 4.084 4.227 4.084h.001z" fill="#0f0" fill-rule="nonzero"/></g><g><path d="M882.894 2960.956c6.23 0 11.751-3.604 11.751-12.04 0-6.334-3.708-9.876-9.437-9.876-5.647 0-11.563 3.582-11.563 12.02 0 6.376 3.729 9.896 9.249 9.896zm5.48-9.687c0 2.353-.437 4.353-1.52 5.437-.646.646-1.438.959-2.438.959-.896 0-1.896-.272-2.52-.917-1.398-1.396-1.96-4.396-1.96-8.042 0-2.354.438-4.354 1.521-5.437.625-.647 1.437-.959 2.437-.959.876 0 1.876.271 2.522.918 1.396 1.394 1.958 4.394 1.958 8.04v.001zM907.52 2969.102c-2.271-1.313-2.791-2.042-2.791-4.272v-3.916c.48.042.96.042 1.439.042 5.04 0 12.561-3.04 12.561-12.395 0-6.168-3.479-9.521-7.271-9.521-2.853 0-5.125 1.708-6.729 3.541v-3.541l-9.04 2.31v1.208c.957.314 1.645.751 2.124 1.355.792 1.041.833 2.437.833 5.604v18.48l-2.792 1.104v1.604h11.667l-.001-1.603zm-2.791-12.833v-11.563c.96-.52 2.125-1.125 3.396-1.125 2.437 0 4.375 1.853 4.375 7.041 0 4.855-1.562 7.126-3.812 7.126-1.959 0-3.312-.834-3.959-1.48v.001zM932.121 2956.185c-2.959 0-4.875-1.708-5.437-5.667l12.812.959c.186-1.375.229-2.375.229-3.604 0-5.647-2.667-8.833-7.647-8.833-5.312 0-11.353 4.833-11.353 12.27 0 6.167 3.916 9.646 9.644 9.646 4.708 0 7.875-3.479 9.271-5.771l-.583-.833c-1.563.958-3.647 1.833-6.937 1.833h.001zm-5.584-8.187c0-2.438.52-3.938 1.313-4.729.562-.563 1.312-.751 2.04-.751 2.398 0 4 2.396 4 5.147l-7.353.957v-.624zM963.289 2954.436v-8.167c0-5.688-2.561-7.229-5.271-7.229-3 0-6.04 1.916-7.77 3.146v-3.146l-8.519 2.353v1.396c1.833.272 2.437.876 2.437 3.605v11.187l-2.792 1.125v1.604h11.667v-1.604c-2.272-1.312-2.792-2.041-2.792-4.666v-9.73c1.125-.354 2.688-.729 3.96-.729 2.291 0 3 1.167 3 3.417v10.583l-2.793 1.125v1.604h11.666v-1.604c-2.27-1.312-2.79-2.041-2.79-4.27h-.003zM978.897 2958.31l.063 2.646 8.417-1.854v-.874c-1.896-.834-2.417-1.355-2.417-6.084v-8.147c0-3.04-2.187-4.957-6.875-4.957-4 0-8.229 1.625-10.792 2.749l3.187 6.125h.73l2.52-5.729c1.52 0 3.647-.083 4.52.813.439.438.647 1.146.647 2.062v3.125l-2 .396c-4.292.853-6.52 1.729-7.729 2.937-1.271 1.271-1.875 2.792-1.875 4.626 0 3 2.563 4.813 5.355 4.813 2.686-.001 4.561-.856 6.249-2.647zm0-2.208c-.813.334-1.563.646-2.687.646-2.313 0-3.125-1.126-3.125-2.438 0-.688 0-1.354.333-2.25l5.48-.791-.001 4.833zM993.64 2937.436c2.333 0 4.084-1.688 4.084-4.084 0-2.083-1.751-4-4.084-4-2.396 0-4.23 1.917-4.23 4 0 2.396 1.834 4.084 4.23 4.084zm3.209 17v-8.084l.396-7.312-8.916 2.353v1.396c1.833.272 2.437.876 2.437 3.605v11.187l-2.792 1.125v1.604h11.667v-1.604c-2.272-1.312-2.792-2.041-2.792-4.27zM1003.373 2957.581l-2.813 1.125v1.604h12.48v-1.604c-3.063-1.312-3.584-2.041-3.584-4.666v-3.418c0-4.52 1.584-6.061 3.666-6.061l2.167 5.395h.751l2.561-10.374c-.707-.356-1.624-.542-2.624-.542-3.167 0-5.521 2.52-6.521 5.541v-5.541l-8.52 2.353v1.605c1.832.271 2.436.875 2.436 3.583l.001 11z" fill="#0f0" fill-rule="nonzero"/><path d="M1027.407 2930.83l-.75-.77-8.814 2.25v1.042c2.396 1.229 3.043 2.437 3.043 5.209v19.02l-2.792 1.125v1.604h11.667v-1.604c-2.271-.917-2.791-1.645-2.791-4.666v-9.73c1.125-.354 2.688-.729 3.96-.729 2.291 0 3 1.167 3 3.417v10.583l-2.793 1.125v1.604h11.666v-1.604c-2.27-.917-2.79-1.645-2.79-4.666v-7.771c0-5.688-2.563-7.229-5.271-7.229-3 0-6.043 1.916-7.772 3.146l.437-11.356zM1053.055 2960.956c6.23 0 11.751-3.604 11.751-12.04 0-6.334-3.708-9.876-9.437-9.876-5.647 0-11.563 3.582-11.563 12.02 0 6.376 3.729 9.896 9.249 9.896zm5.48-9.687c0 2.353-.437 4.353-1.52 5.437-.646.646-1.438.959-2.438.959-.896 0-1.896-.272-2.52-.917-1.398-1.396-1.96-4.396-1.96-8.042 0-2.354.438-4.354 1.521-5.437.625-.647 1.437-.959 2.437-.959.876 0 1.876.271 2.522.918 1.396 1.394 1.958 4.394 1.958 8.04v.001zM1069.494 2957.581l-2.813 1.125v1.604h12.48v-1.604c-3.063-1.312-3.584-2.041-3.584-4.666v-3.418c0-4.52 1.584-6.061 3.666-6.061l2.167 5.395h.751l2.561-10.374c-.707-.356-1.624-.542-2.624-.542-3.167 0-5.521 2.52-6.521 5.541v-5.541l-8.52 2.353v1.605c1.832.271 2.436.875 2.436 3.583l.001 11zM1087.694 2957.581l-2.813 1.125v1.604h12.48v-1.604c-3.063-1.312-3.584-2.041-3.584-4.666v-3.418c0-4.52 1.584-6.061 3.666-6.061l2.167 5.395h.751l2.561-10.374c-.707-.356-1.624-.542-2.624-.542-3.167 0-5.521 2.52-6.521 5.541v-5.541l-8.52 2.353v1.605c1.832.271 2.436.875 2.436 3.583l.001 11zM1112.455 2960.956c6.23 0 11.751-3.604 11.751-12.04 0-6.334-3.708-9.876-9.437-9.876-5.647 0-11.563 3.582-11.563 12.02 0 6.376 3.729 9.896 9.249 9.896zm5.48-9.687c0 2.353-.437 4.353-1.52 5.437-.646.646-1.438.959-2.438.959-.896 0-1.896-.272-2.52-.917-1.398-1.396-1.96-4.396-1.96-8.042 0-2.354.438-4.354 1.521-5.437.625-.647 1.437-.959 2.437-.959.876 0 1.876.271 2.522.918 1.396 1.394 1.958 4.394 1.958 8.04v.001zM1128.894 2957.581l-2.813 1.125v1.604h12.48v-1.604c-3.063-1.312-3.584-2.041-3.584-4.666v-3.418c0-4.52 1.584-6.061 3.666-6.061l2.167 5.395h.751l2.561-10.374c-.707-.356-1.624-.542-2.624-.542-3.167 0-5.521 2.52-6.521 5.541v-5.541l-8.52 2.353v1.605c1.832.271 2.436.875 2.436 3.583l.001 11z" fill="#0f0" fill-rule="nonzero"/><path d="M1152.281 2947.622l.208-16.79-.75-.771-8.562 2.249v1.042c2.396 1.229 3.041 2.437 3.041 5.209v19.02l-2.813 1.125v1.604h11.689v-1.604c-2.293-1.312-2.813-2.041-2.813-4.27v-4.48l2.77.709 3.084 6.812c1.187 2.667 2.48 3.48 4.354 3.48 1.396 0 3.125-.855 5.272-2.125v-.96l-3.711-2.082-4.645-8.604 7.77-6.562v-.958h-9.48c.563 3.395.188 5.083-.937 6.208-1.061 1.083-2.624 1.396-4.479 1.75l.002-.002zM1173.521 2937.436c2.333 0 4.084-1.688 4.084-4.084 0-2.083-1.751-4-4.084-4-2.396 0-4.23 1.917-4.23 4 0 2.396 1.834 4.084 4.23 4.084zm3.209 17v-8.084l.396-7.312-8.916 2.353v1.396c1.833.272 2.437.876 2.437 3.605v11.187l-2.792 1.125v1.604h11.667v-1.604c-2.272-1.312-2.792-2.041-2.792-4.27zM1201.69 2954.436v-8.167c0-5.688-2.561-7.229-5.271-7.229-3 0-6.04 1.916-7.77 3.146v-3.146l-8.519 2.353v1.396c1.833.272 2.437.876 2.437 3.605v11.187l-2.792 1.125v1.604h11.667v-1.604c-2.272-1.312-2.792-2.041-2.792-4.666v-9.73c1.125-.354 2.688-.729 3.96-.729 2.291 0 3 1.167 3 3.417v10.583l-2.793 1.125v1.604h11.666v-1.604c-2.27-1.312-2.79-2.041-2.79-4.27h-.003zM1214.735 2960.956c6.23 0 11.751-3.604 11.751-12.04 0-6.334-3.708-9.876-9.437-9.876-5.647 0-11.563 3.582-11.563 12.02 0 6.376 3.729 9.896 9.249 9.896zm5.48-9.687c0 2.353-.437 4.353-1.52 5.437-.646.646-1.438.959-2.438.959-.896 0-1.896-.272-2.52-.917-1.398-1.396-1.96-4.396-1.96-8.042 0-2.354.438-4.354 1.521-5.437.625-.647 1.437-.959 2.437-.959.876 0 1.876.271 2.522.918 1.396 1.394 1.958 4.394 1.958 8.04v.001zM1230.882 2942.873v14.708l-2.792 1.125v1.604h11.688v-1.604c-2.293-.917-2.813-1.645-2.813-4.666v-11.167h3.52v-3.208h-3.52v-2.876l7.604-2.957v-1.043l-9.271-2.729-4.333 9.605h-2.792v3.208h2.709zM1253.562 2956.185c-2.959 0-4.875-1.708-5.437-5.667l12.812.959c.186-1.375.229-2.375.229-3.604 0-5.647-2.667-8.833-7.647-8.833-5.312 0-11.353 4.833-11.353 12.27 0 6.167 3.916 9.646 9.644 9.646 4.708 0 7.875-3.479 9.271-5.771l-.583-.833c-1.563.958-3.647 1.833-6.937 1.833h.001zm-5.584-8.187c0-2.438.52-3.938 1.313-4.729.562-.563 1.312-.751 2.04-.751 2.398 0 4 2.396 4 5.147l-7.353.957v-.624zM1275.335 2942.581l2.187 4.251h.688l3.084-7c-2.813-.563-4.396-.792-7.293-.792-5.395 0-9.75 2.792-9.75 6.792 0 2.124.563 3.124 1.563 4.124 1.437 1.438 7.604 3.188 8.751 4.354.52.52.853.834.853 1.646 0 .396-.167.833-.52 1.188-.417.417-1.417.853-2.647.853-1.29 0-2.437-.165-3.48-.769l-1.81-3.918h-.707l-2.963 6.688c2.126.562 5.272.958 8.23.958 5 0 9.646-2.728 9.646-6.854 0-1.792-.52-3-1.646-4.104-1.583-1.605-7.52-3.293-8.624-4.417-.522-.52-.855-1.104-.855-1.625 0-.374.167-.771.437-1.04.334-.334 1.208-.69 2.48-.69.687 0 1.499.084 2.374.355h.002zM1289.809 2932.436h-.688l-6.875 8.124v.666a5.874 5.874 0 011.813 1.251c.832.875.791 2.52.791 5.52v8c0 3.313 1.875 4.919 4.52 4.919 2.835 0 5.564-1.438 8-2.646v-.958l-6.727-1.835v-12.604h6.458v-3.208h-5.646l-1.646-7.229zM1307.091 2930.83l-.77-.77-9.104 2.25v1.042c2.396 1.229 3.041 2.437 3.041 5.209v17.437l-2.853 2.271v.957c2.29.878 6.333 1.73 10.373 1.73 5.023 0 12.543-3.04 12.543-12.395 0-6.168-3.48-9.521-7.271-9.521-2.833 0-5.125 1.708-6.729 3.541l.77-11.751zm-.77 25.44v-11.562c.978-.52 2.125-1.126 3.417-1.126 2.437 0 4.353 1.854 4.353 7.042 0 4.854-1.562 7.125-3.792 7.125-1.978 0-3.333-.833-3.978-1.48v.001zM1333.722 2956.185c-2.959 0-4.875-1.708-5.437-5.667l12.812.959c.186-1.375.229-2.375.229-3.604 0-5.647-2.667-8.833-7.647-8.833-5.312 0-11.353 4.833-11.353 12.27 0 6.167 3.916 9.646 9.644 9.646 4.708 0 7.875-3.479 9.271-5.771l-.583-.833c-1.563.958-3.647 1.833-6.937 1.833h.001zm-5.584-8.187c0-2.438.52-3.938 1.313-4.729.562-.563 1.312-.751 2.04-.751 2.398 0 4 2.396 4 5.147l-7.353.957v-.624zM1346.454 2957.581l-2.813 1.125v1.604h12.48v-1.604c-3.063-1.312-3.584-2.041-3.584-4.666v-3.418c0-4.52 1.584-6.061 3.666-6.061l2.167 5.395h.751l2.561-10.374c-.707-.356-1.624-.542-2.624-.542-3.167 0-5.521 2.52-6.521 5.541v-5.541l-8.52 2.353v1.605c1.832.271 2.436.875 2.436 3.583l.001 11z" fill="#0f0" fill-rule="nonzero"/><path d="M1369.841 2939.269l.77-8.437-.77-.771-9.104 2.249v1.042c2.396 1.229 3.041 2.437 3.041 5.209v19.02l-2.813 1.125v1.604h11.689v-1.604c-2.293-1.312-2.813-2.041-2.813-4.27v-15.167zM1378.521 2937.436c2.333 0 4.084-1.688 4.084-4.084 0-2.083-1.751-4-4.084-4-2.396 0-4.23 1.917-4.23 4 0 2.396 1.834 4.084 4.23 4.084zm3.209 17v-8.084l.396-7.312-8.916 2.353v1.396c1.833.272 2.437.876 2.437 3.605v11.187l-2.792 1.125v1.604h11.667v-1.604c-2.272-1.312-2.792-2.041-2.792-4.27zM1406.69 2954.436v-8.167c0-5.688-2.561-7.229-5.271-7.229-3 0-6.04 1.916-7.77 3.146v-3.146l-8.519 2.353v1.396c1.833.272 2.437.876 2.437 3.605v11.187l-2.792 1.125v1.604h11.667v-1.604c-2.272-1.312-2.792-2.041-2.792-4.666v-9.73c1.125-.354 2.688-.729 3.96-.729 2.291 0 3 1.167 3 3.417v10.583l-2.793 1.125v1.604h11.666v-1.604c-2.27-1.312-2.79-2.041-2.79-4.27h-.003zM1415.402 2960.873c2.333 0 4.084-1.688 4.084-4.084 0-2.083-1.751-4-4.084-4-2.395 0-4.228 1.917-4.228 4 0 2.396 1.833 4.084 4.227 4.084h.001z" fill="#0f0" fill-rule="nonzero"/></g><g><path d="M1430.974 2960.956c4.52 0 8.229-3.25 9.355-5.771l-.604-.833c-1.627 1-3.272 1.833-6.147 1.833-3.52 0-5.853-2.604-5.853-7.604 0-4.396 1.77-6 3.957-6 1 0 1.813.292 2.333.604l2.188 5.813h.73l3.52-9.166c-2.083-.522-4.04-.792-6-.792-6.208 0-12.687 5.229-12.687 12.353 0 5.917 3.563 9.563 9.208 9.563zM1450.935 2960.956c6.23 0 11.751-3.604 11.751-12.04 0-6.334-3.708-9.876-9.437-9.876-5.647 0-11.563 3.582-11.563 12.02 0 6.376 3.729 9.896 9.249 9.896zm5.48-9.687c0 2.353-.437 4.353-1.52 5.437-.646.646-1.438.959-2.438.959-.896 0-1.896-.272-2.52-.917-1.398-1.396-1.96-4.396-1.96-8.042 0-2.354.438-4.354 1.521-5.437.625-.647 1.437-.959 2.437-.959.876 0 1.876.271 2.522.918 1.396 1.394 1.958 4.394 1.958 8.04v.001zM1485.415 2944.31c1-.312 2.396-.729 3.563-.729 2.271 0 3 1.167 3 3.417v10.583l-2.604 1.125v1.604h11.479v-1.604c-2.292-1.312-2.814-2.041-2.814-4.666v-7.771c0-5.688-2.541-7.229-5.27-7.229-2.73 0-5.687 1.48-8.124 3.104-1.084-2.104-2.563-3.104-4.522-3.104-2.833 0-5.666 1.958-7.354 3.146v-3.146l-8.519 2.353v1.396c1.833.272 2.437.876 2.437 3.605v11.187l-2.792 1.125v1.604h11.48v-1.604c-2.084-1.312-2.605-2.041-2.605-4.666v-9.73c1-.312 2.396-.729 3.563-.729 2.27 0 3 1.167 3 3.417v10.583l-2.604 1.125v1.604h11.292v-1.604c-2.084-1.312-2.604-2.041-2.604-4.666l-.002-9.73z" fill="#0f0" fill-rule="nonzero"/></g></svg>