<svg width="4523" height="1300.002" xmlns="http://www.w3.org/2000/svg"><path d="M211 453.002c0-66 55-127 134-127 61 0 105 7 140 20l39 151h21l81-207c-56-14-136-24-200-24-107 0-191 29-249 87-36 36-57 87-57 131 0 37 15 72 39 98 50 52 161 93 210 144 28 30 41 58 41 90 0 73-57 128-151 128-41 0-83-7-118-20l-39-151H81l-81 207c56 14 135 24 199 24 107 0 183-29 245-91 38-38 60-94 60-139 0-37-17-74-36-94-60-63-182-114-230-164-15-16-28-33-27-63zm465 183l-89 375-62 243 10 10 173-58v-16l-62-53 32-138c23 3 47 5 69 5 83 0 154-22 220-88 70-70 127-196 127-308 0-83-43-132-108-132-51 0-101 32-138 69-33 33-63 75-90 125l42-184-10-10-114 47zm214 273c-25 25-55 35-85 35-37 0-80-13-109-32 32-139 97-245 156-304 37-37 71-53 95-53 30 0 48 26 48 81 0 76-43 211-105 273zm667-18l70-302 75-56v-14c-54-23-133-43-207-43-83 0-154 22-220 88-70 70-127 196-127 308 0 83 43 132 108 132 51 0 101-32 138-69 33-33 63-75 90-125l-42 181 12 13 178-55v-14zm-207-320c25-25 57-35 87-35 37 0 75 13 109 32-32 139-97 245-156 304-37 37-73 53-97 53-30 0-48-26-48-81 0-76 43-211 105-273zm549 354c-57 0-90-38-90-104 0-85 35-195 89-249 26-26 52-33 77-33 19 0 35 6 53 16l38 141h16l77-192c-30-11-75-28-130-28-73 0-140 28-197 85-71 71-121 177-121 288 0 102 63 155 144 155 100 0 177-65 210-102l-9-19c-54 25-98 42-157 42zm617-41l-11-14c-51 32-101 55-150 55-68 0-104-34-104-114 0-6 0-12 1-18 124-3 220-33 275-88 35-35 53-83 53-126 0-65-42-103-119-103-73 0-136 32-184 80-82 82-118 197-118 281 0 105 71 167 151 167 94 0 176-72 206-120zm-173-313c25-25 52-37 77-37 50 0 77 47 77 88 0 57-54 100-135 100-22 0-53-3-96-6 16-56 43-111 77-145zm400-228l-149 648 12 13 176-55v-14l-76-40 94-406 63-243-10-10-172 38v16zm512 548l70-302 75-56v-14c-54-23-133-43-207-43-83 0-154 22-220 88-70 70-127 196-127 308 0 83 43 132 108 132 51 0 101-32 138-69 33-33 63-75 90-125l-42 181 12 13 178-55v-14zm-207-320c25-25 57-35 87-35 37 0 75 13 109 32-32 139-97 245-156 304-37 37-73 53-97 53-30 0-48-26-48-81 0-76 43-211 105-273zm553-95l-114 45v121l-80 349 12 13 107-32v-131c25-113 69-188 114-233 36-36 72-53 98-53 40 0 64 31 48 103l-76 333 12 13 176-55v-14l-76-40 54-239c27-119-26-180-93-180-53 0-97 26-133 62-28 28-54 62-72 90l33-142zm841 473v-14l-75-44 93-401 63-244-10-10-169 38v16l62 53-32 138c-23-3-46-5-69-5-83 0-154 22-220 88-70 70-127 196-127 308 0 83 43 132 108 132 51 0 101-32 138-69 33-33 65-75 92-125l-42 181 12 13zm-280-378c25-25 55-35 85-35 37 0 75 13 109 32-32 139-97 245-156 304-37 37-71 53-95 53-30 0-48-26-48-81 0-76 43-211 105-273zm0 0"/></svg>