<svg width="2812" height="1300.002" xmlns="http://www.w3.org/2000/svg"><path d="M330 940.002l2 66 210-46v-22c-47-21-60-34-60-152v-204c0-76-55-124-172-124-100 0-206 41-270 69l80 153h18l63-143c38 0 91-2 113 20 11 11 16 29 16 52v78l-50 10c-107 21-163 43-193 73-32 32-47 70-47 116 0 75 64 120 134 120 67 0 114-21 156-66zm0-55c-20 8-39 16-67 16-58 0-78-28-78-61 0-17 0-34 8-56l137-20zm474-632l-19-19-219 56v26c60 31 76 61 76 130v436l-71 57v24c57 22 158 43 259 43 126 0 314-76 314-310 0-154-87-238-182-238-71 0-128 43-168 89zm-10 636v-289c24-13 53-28 85-28 61 0 109 46 109 176 0 121-39 178-95 178-49 0-83-21-99-37zm651 117c156 0 294-90 294-301 0-158-93-247-236-247-141 0-289 90-289 301 0 159 93 247 231 247zm137-242c0 59-11 109-38 136-16 16-36 24-61 24-22 0-47-7-63-23-35-35-49-110-49-201 0-59 11-109 38-136 16-16 36-24 61-24 22 0 47 7 63 23 35 35 49 110 49 201zm419 43v-166l10-183-223 70v30c46 7 61 22 61 90v177c0 142 64 181 132 181 75 0 151-48 194-79v79l226-58v-30c-24-8-41-19-53-34-20-26-21-61-21-140v-103l10-183-241 70v30c60 7 79 22 79 90v226c-28 9-67 18-99 18-57 0-75-29-75-85zm610-514h-17l-172 203v17c20 9 35 21 45 31 21 22 20 63 20 138v200c0 83 47 123 113 123 71 0 139-36 200-66v-24l-168-46v-315h161v-80h-141zm0 0"/></svg>