<svg width="3417" height="1300.002" xmlns="http://www.w3.org/2000/svg"><path d="M330 940.002l2 66 210-46v-22c-47-21-60-34-60-152v-204c0-76-55-124-172-124-100 0-206 41-270 69l80 153h18l63-143c38 0 91-2 113 20 11 11 16 29 16 52v78l-50 10c-107 21-163 43-193 73-32 32-47 70-47 116 0 75 64 120 134 120 67 0 114-21 156-66zm0-55c-20 8-39 16-67 16-58 0-78-28-78-61 0-17 0-34 8-56l137-20zm617 32v89l226-58v-30c-24-8-41-19-53-34-20-26-21-61-21-140v-226l19-265-19-19-239 56-1 26c69 31 88 61 88 130v29c-11-1-23-1-36-1-126 0-314 73-314 294 0 154 87 238 182 238 71 0 128-43 168-89zm0-329v278c-24 13-53 28-85 28-63 0-112-46-112-175 0-114 40-168 98-168 49 0 83 21 99 37zm617 329v89l226-58v-30c-24-8-41-19-53-34-20-26-21-61-21-140v-226l19-265-19-19-239 56-1 26c69 31 88 61 88 130v29c-11-1-23-1-36-1-126 0-314 73-314 294 0 154 87 238 182 238 71 0 128-43 168-89zm0-329v278c-24 13-53 28-85 28-63 0-112-46-112-175 0-114 40-168 98-168 49 0 83 21 99 37zm282 177h283v-80h-283zm599 241c156 0 294-90 294-301 0-158-93-247-236-247-141 0-289 90-289 301 0 159 93 247 231 247zm137-242c0 59-11 109-38 136-16 16-36 24-61 24-22 0-47-7-63-23-35-35-49-110-49-201 0-59 11-109 38-136 16-16 36-24 61-24 22 0 47 7 63 23 35 35 49 110 49 201zm755 79v-204c0-142-64-181-132-181-75 0-151 48-194 79v-79l-213 59v35c46 7 61 22 61 90v280l-70 28v40h292v-40c-57-33-70-51-70-117v-243c28-9 67-18 99-18 57 0 75 29 75 85v265l-70 28v40h292v-40c-57-33-70-51-70-107zm0 0"/></svg>