<svg width="1132" height="1300.002" xmlns="http://www.w3.org/2000/svg"><path d="M523 940.002v-14c-29-7-49-18-62-31-24-24-25-61-25-135v-166c0-75-65-118-135-118-86 0-178 43-242 78l45 138h16l55-148c86 0 126 3 153 30 14 14 18 33 18 59v75l-72 19c-79 21-150 46-180 76-24 24-33 52-33 82 0 68 56 119 133 119 58 0 108-26 152-53l2 54zm-177-35c-26 12-77 27-117 27-60 0-76-40-76-84 0-9 1-23 3-33l190-45zm294 32l-81 31v22h252v-25c-27-5-45-14-58-27-17-17-23-45-23-175v-308l9-213-10-10-167 67v15c25 7 41 17 53 29 21 21 25 53 25 107zm298 0l-81 31v22h252v-25c-27-5-45-14-58-27-17-17-23-45-23-175v-308l9-213-10-10-167 67v15c25 7 41 17 53 29 21 21 25 53 25 107zm0 0"/></svg>