<svg width="1778" height="1300.002" xmlns="http://www.w3.org/2000/svg"><path d="M335 834.002l-36 159 12 13 222-44v-25l-62-53 65-291 83-81v-20c-66-20-109-34-197-34-115 0-204 39-269 104-93 93-131 223-131 302 0 94 53 142 118 142 38 0 81-16 121-56 29-29 52-64 74-116zm-75-261c15-15 35-22 55-22 26 0 53 9 79 27-38 164-92 240-136 284-16 16-29 24-39 24-26 0-38-22-38-59 0-63 35-210 79-254zm587-113l-179 37v175l-74 319 13 13 164-32v-122c25-108 69-194 112-237 20-20 41-31 58-31 38 0 44 35 27 109l-72 302 12 13 222-44v-25l-59-51 53-227c28-120 1-202-99-201-46 0-90 25-125 60-29 29-52 60-72 93l32-138zm847 502v-25l-62-53 146-637-13-13-230 41v25c47 23 67 55 52 119l-9 39c-110 0-199 39-264 104-93 93-131 223-131 302 0 94 53 142 118 142 38 0 81-16 121-56 29-29 52-64 74-116l-36 159 12 13zm-273-389c15-15 35-22 55-22 26 0 53 9 79 27-38 164-92 240-136 284-16 16-29 24-39 24-26 0-38-22-38-59 0-63 35-210 79-254zm0 0"/></svg>