<svg width="997" height="1300.002" xmlns="http://www.w3.org/2000/svg"><path d="M433 891.002l70-302 75-56v-14c-54-23-133-43-207-43-83 0-154 22-220 88-70 70-127 196-127 308 0 83 43 132 108 132 51 0 101-32 138-69 33-33 63-75 90-125l-42 181 12 13 178-55v-14zm-207-320c25-25 57-35 87-35 37 0 75 13 109 32-32 139-97 245-156 304-37 37-73 53-97 53-30 0-48-26-48-81 0-76 43-211 105-273zm687 295c0-43-26-81-59-114-22-22-62-56-84-78-24-24-42-45-42-71 0-17 7-37 21-51 11-11 31-24 61-24 20 0 42 4 73 33l40 112h16l58-166c-46-17-99-31-160-31-102 0-199 60-199 149 0 39 21 72 50 101 25 25 80 68 99 87 21 21 36 40 36 64 0 17-8 39-22 53-11 11-30 22-60 22-20 0-51-6-83-33l-39-112h-16l-57 171c46 14 107 26 168 26 102 0 199-52 199-138zm0 0"/></svg>