<svg width="3711" height="1300.002" xmlns="http://www.w3.org/2000/svg"><path d="M322 472.002l56-225-13-13-230 41v25c47 23 66 56 52 119l-104 453-83 81v20c68 20 111 34 197 34 117 0 206-39 269-104 95-93 133-223 131-302 2-94-51-142-118-142-36 0-79 16-121 56-27 29-50 64-74 116zm37 420c-13 15-33 22-55 22-24 0-51-9-79-27 40-164 94-240 136-284 18-16 31-24 39-24 28 0 40 22 38 59 2 63-33 210-79 254zm441 114c99 0 186-78 238-163l-16-18c-62 40-116 61-159 61-55 0-98-32-98-92v-3c191-7 337-118 337-231 0-72-59-102-127-102-65 0-145 27-215 97-104 104-121 224-121 278 0 112 73 173 161 173zm51-433c21-21 42-26 57-26 31 0 50 24 50 62 0 47-23 90-82 90-22 0-45 0-94-7 14-45 38-88 69-119zm430 308l66-285 88-349-13-13-236 41v25c47 23 66 56 52 119l-131 574 12 13 229-44v-25zm348-458c58 0 105-46 105-105 0-57-47-105-105-105s-105 48-105 105c0 59 47 105 105 105zm46 50l-13-13-179 37v175l-77 322 12 13 223-44v-25l-59-51zm208 533c99 0 186-78 238-163l-16-18c-62 40-116 61-159 61-55 0-98-32-98-92v-3c191-7 337-118 337-231 0-72-59-102-127-102-65 0-145 27-215 97-104 104-121 224-121 278 0 112 73 173 161 173zm51-433c21-21 42-26 57-26 31 0 50 24 50 62 0 47-23 90-82 90-22 0-45 0-94-7 14-45 38-88 69-119zm563-107l-10-10-245 71v25l115 53c-87 74-146 165-146 248 0 87 51 153 155 153 232 0 350-308 350-548l-184 32v356c-28 38-53 62-93 62s-68-44-68-102c0-66 52-189 126-340zm404 540c99 0 186-78 238-163l-16-18c-62 40-116 61-159 61-55 0-98-32-98-92v-3c191-7 337-118 337-231 0-72-59-102-127-102-65 0-145 27-215 97-104 104-121 224-121 278 0 112 73 173 161 173zm51-433c21-21 42-26 57-26 31 0 50 24 50 62 0 47-23 90-82 90-22 0-45 0-94-7 14-45 38-88 69-119zm479 9c0-13 6-26 15-35s22-17 45-17c21 0 36 8 54 20l57 121h24l85-185c-48-16-119-28-194-28-105 0-236 48-236 172 0 33 18 61 43 86 34 34 97 73 129 105 19 19 32 39 32 61 0 13-4 24-14 34-12 12-27 18-45 18-21 0-46-7-60-15l-65-134h-24l-89 193c53 14 136 28 211 28 103 0 236-48 236-172 0-33-18-61-44-87-35-35-96-73-129-106-19-19-31-38-31-59zm0 0"/></svg>