<svg width="3913" height="1300.002" xmlns="http://www.w3.org/2000/svg"><path d="M242 253.002l-19-19-219 56v26c60 31 76 61 76 130v436l-71 57v24c57 22 158 43 259 43 126 0 314-76 314-310 0-154-87-238-182-238-71 0-128 43-168 89zm-10 636v-289c24-13 53-28 85-28 61 0 109 46 109 176 0 121-39 178-95 178-49 0-83-21-99-37zm705-2c-74 0-122-43-136-142l320 24c5-34 6-59 6-90 0-141-67-221-191-221-133 0-284 121-284 307 0 154 98 241 241 241 118 0 197-87 232-144l-15-21c-39 24-91 46-173 46zm-140-205c0-61 13-98 33-118 14-14 33-19 51-19 60 0 100 60 100 129l-184 24v-16zm608-218l19-211-19-19-228 56v26c60 31 76 61 76 130v476l-70 28v40h292v-40c-57-33-70-51-70-107zm237-46c58 0 102-42 102-102 0-52-44-100-102-100-60 0-106 48-106 100 0 60 46 102 106 102zm80 425v-202l10-183-223 59v35c46 7 61 22 61 90v280l-70 28v40h292v-40c-57-33-70-51-70-107zm401 44c-74 0-122-43-136-142l320 24c5-34 6-59 6-90 0-141-67-221-191-221-133 0-284 121-284 307 0 154 98 241 241 241 118 0 197-87 232-144l-15-21c-39 24-91 46-173 46zm-140-205c0-61 13-98 33-118 14-14 33-19 51-19 60 0 100 60 100 129l-184 24v-16zm808-22l97-160v-26h-157c0 141-24 222-62 309l-11 25-75-176-46-158h-200v26c34 49 68 107 93 164l145 326h70zm375 227c-74 0-122-43-136-142l320 24c5-34 6-59 6-90 0-141-67-221-191-221-133 0-284 121-284 307 0 154 98 241 241 241 118 0 197-87 232-144l-15-21c-39 24-91 46-173 46zm-140-205c0-61 13-98 33-118 14-14 33-19 51-19 60 0 100 60 100 129l-184 24v-16zm704-135l55 106h17l77-175c-70-14-110-20-182-20-135 0-244 70-244 170 0 53 14 78 39 103 36 36 190 80 219 109 13 13 21 21 21 41 0 10-4 21-13 30-10 10-35 21-66 21-32 0-61-4-87-19l-45-98h-18l-74 167c53 14 132 24 206 24 125 0 241-68 241-171 0-45-13-75-41-103-40-40-188-82-216-110-13-13-21-28-21-41 0-9 4-19 11-26 8-8 30-17 62-17 17 0 37 2 59 9zm0 0"/></svg>