<svg width="2811" height="1300.002" xmlns="http://www.w3.org/2000/svg"><path d="M322 472.002l56-225-13-13-230 41v25c47 23 66 56 52 119l-104 453-83 81v20c68 20 111 34 197 34 117 0 206-39 269-104 95-93 133-223 131-302 2-94-51-142-118-142-36 0-79 16-121 56-27 29-50 64-74 116zm37 420c-13 15-33 22-55 22-24 0-51-9-79-27 40-164 94-240 136-284 18-16 31-24 39-24 28 0 40 22 38 59 2 63-33 210-79 254zm441 114c99 0 186-78 238-163l-16-18c-62 40-116 61-159 61-55 0-98-32-98-92v-3c191-7 337-118 337-231 0-72-59-102-127-102-65 0-145 27-215 97-104 104-121 224-121 278 0 112 73 173 161 173zm51-433c21-21 42-26 57-26 31 0 50 24 50 62 0 47-23 90-82 90-22 0-45 0-94-7 14-45 38-88 69-119zm511-264l-200 215-5 50c34 0 61 25 50 73l-52 222c-19 80 7 137 82 137 60 0 122-27 192-62v-22l-119-50 70-308h136v-90h-128v-165zm372 0l-200 215-5 50c34 0 61 25 50 73l-52 222c-19 80 7 137 82 137 60 0 122-27 192-62v-22l-119-50 70-308h136v-90h-128v-165zm295 697c99 0 186-78 238-163l-16-18c-62 40-116 61-159 61-55 0-98-32-98-92v-3c191-7 337-118 337-231 0-72-59-102-127-102-65 0-145 27-215 97-104 104-121 224-121 278 0 112 73 173 161 173zm51-433c21-21 42-26 57-26 31 0 50 24 50 62 0 47-23 90-82 90-22 0-45 0-94-7 14-45 38-88 69-119zm329 99l-74 319 13 13 164-32v-122c26-110 68-198 110-240l36 155h26l127-296c-15-7-33-11-55-11-76 0-143 65-184 138l31-123-13-13-181 37zm0 0"/></svg>