<svg width="1655" height="1300.002" xmlns="http://www.w3.org/2000/svg"><path d="M242 253.002l-19-19-219 56v26c60 31 76 61 76 130v436l-71 57v24c57 22 158 43 259 43 126 0 314-76 314-310 0-154-87-238-182-238-71 0-128 43-168 89zm-10 636v-289c24-13 53-28 85-28 61 0 109 46 109 176 0 121-39 178-95 178-49 0-83-21-99-37zm612-82v-166l10-183-223 70v30c46 7 61 22 61 90v177c0 142 64 181 132 181 75 0 151-48 194-79v79l226-58v-30c-24-8-41-19-53-34-20-26-21-61-21-140v-103l10-183-241 70v30c60 7 79 22 79 90v226c-28 9-67 18-99 18-57 0-75-29-75-85zm610-514h-17l-172 203v17c20 9 35 21 45 31 21 22 20 63 20 138v200c0 83 47 123 113 123 71 0 139-36 200-66v-24l-168-46v-315h161v-80h-141zm0 0"/></svg>