<svg width="1120" height="1300.002" xmlns="http://www.w3.org/2000/svg"><path d="M202 343.002l-127 548-75 56v14c54 23 128 43 202 43 83 0 154-22 220-88 70-70 127-196 127-308 0-83-43-132-108-132-51 0-101 32-138 69-33 33-63 75-90 125l105-424-10-10-168 38v16zm143 566c-25 25-55 35-85 35-37 0-75-13-109-32 32-139 97-245 156-304 37-37 71-53 95-53 30 0 48 26 48 81 0 76-43 211-105 273zm665-18l93-402-12-13-108 32v131c-25 113-71 188-116 233-36 36-72 53-98 53-31 0-53-19-53-72 0-94 42-176 141-369l-10-10-200 53v16l99 58c-70 77-124 190-124 281 0 81 51 122 102 122 53 0 97-28 133-64 28-28 54-62 72-90l-7 30c-65 278-131 299-239 299-27 0-55-6-85-16l-48-103h-12l-73 172c68 24 107 32 177 32 134-1 311-124 368-373zm0 0"/></svg>