<svg width="3377" height="1300.002" xmlns="http://www.w3.org/2000/svg"><path d="M656 951.002l-80-245h-26l-75 229c-83-10-149-31-196-78-56-56-82-141-82-256 0-103 27-171 67-211 27-27 60-38 90-38 42 0 79 15 105 28l81 176h26l89-270c-80-19-134-22-191-22-228 0-432 166-432 407 0 105 30 186 87 243 58 58 151 92 262 92 82 0 184-19 275-55zm188-533c58 0 102-42 102-102 0-52-44-100-102-100-60 0-106 48-106 100 0 60 46 102 106 102zm80 425v-202l10-183-223 59v35c46 7 61 22 61 90v280l-70 28v40h292v-40c-57-33-70-51-70-107zm183 79l-70 28v40h312v-40c-77-33-90-51-90-117v-85c0-113 40-152 92-152l54 135h19l64-259c-18-9-41-14-66-14-79 0-138 63-163 139v-139l-213 59v40c46 7 61 22 61 90zm638 84c113 0 206-81 234-144l-15-21c-41 25-82 46-154 46-88 0-146-65-146-190 0-110 44-150 99-150 25 0 45 7 58 15l55 145h18l88-229c-52-13-101-20-150-20-155 0-317 131-317 309 0 148 89 239 230 239zm485-542l19-211-19-19-228 56v26c60 31 76 61 76 130v476l-70 28v40h292v-40c-57-33-70-51-70-107zm400 423c-74 0-122-43-136-142l320 24c5-34 6-59 6-90 0-141-67-221-191-221-133 0-284 121-284 307 0 154 98 241 241 241 118 0 197-87 232-144l-15-21c-39 24-91 46-173 46zm-140-205c0-61 13-98 33-118 14-14 33-19 51-19 60 0 100 60 100 129l-184 24v-16zm704-135l55 106h17l77-175c-70-14-110-20-182-20-135 0-244 70-244 170 0 53 14 78 39 103 36 36 190 80 219 109 13 13 21 21 21 41 0 10-4 21-13 30-10 10-35 21-66 21-32 0-61-4-87-19l-45-98h-18l-74 167c53 14 132 24 206 24 125 0 241-68 241-171 0-45-13-75-41-103-40-40-188-82-216-110-13-13-21-28-21-41 0-9 4-19 11-26 8-8 30-17 62-17 17 0 37 2 59 9zm0 0"/></svg>