<svg width="4776" height="1300.002" xmlns="http://www.w3.org/2000/svg"><path d="M606 948.002l-57-252h-25l-95 234c-79-5-123-21-153-51-39-39-57-103-57-185 0-126 49-227 100-278 35-35 76-58 125-58 38 0 81 12 107 31l50 167h26l126-270c-75-19-134-22-190-22-137 0-271 43-366 138-92 92-147 220-147 331 0 83 20 151 67 198 48 48 124 75 225 75 82 0 167-17 264-58zm314-525c58 0 105-46 105-105 0-57-47-105-105-105s-105 48-105 105c0 59 47 105 105 105zm46 50l-13-13-179 37v175l-77 322 12 13 223-44v-25l-59-51zm103 199l-74 319 13 13 164-32v-122c26-110 68-198 110-240l36 155h26l127-296c-15-7-33-11-55-11-76 0-143 65-184 138l31-123-13-13-181 37zm730 37l20 1 125-241c-26-7-88-11-126-11-121 0-197 37-259 99-83 83-124 200-124 281 0 104 70 168 173 168 101 0 190-67 242-143l-16-18c-65 25-112 41-153 41-65 0-89-40-89-106 0-69 30-172 75-217 13-13 27-14 34-14 22 0 44 17 60 37zm182-216v135l-44 164c-32 120-5 214 98 214 76 0 144-70 194-138l-29 125 12 13 215-44v-25l-59-51 68-289 31-126-13-13-164 32v122c-37 157-118 270-171 270-38 0-52-35-32-109l81-302-13-13zm668 388l66-285 88-349-13-13-236 41v25c47 23 66 56 52 119l-131 574 12 13 229-44v-25zm440-47l-36 159 12 13 222-44v-25l-62-53 65-291 83-81v-20c-66-20-109-34-197-34-115 0-204 39-269 104-93 93-131 223-131 302 0 94 53 142 118 142 38 0 81-16 121-56 29-29 52-64 74-116zm-75-261c15-15 35-22 55-22 26 0 53 9 79 27-38 164-92 240-136 284-16 16-29 24-39 24-26 0-38-22-38-59 0-63 35-210 79-254zm408 99l-74 319 13 13 164-32v-122c26-110 68-198 110-240l36 155h26l127-296c-15-7-33-11-55-11-76 0-143 65-184 138l31-123-13-13-181 37zm531 334c83 0 155-34 208-87 75-75 102-173 102-250 0-132-71-212-190-212-79 0-150 37-201 88-75 75-102 172-102 250 0 131 71 211 183 211zm91-476c38 0 67 43 67 124 0 77-27 206-80 259-13 13-27 20-43 20-38 0-66-45-66-126 0-77 26-204 79-257 13-13 27-20 43-20zm330 142l-74 319 13 13 164-32v-122c26-110 68-198 110-240l36 155h26l127-296c-15-7-33-11-55-11-76 0-143 65-184 138l31-123-13-13-181 37zm0 0"/></svg>