<svg width="4809" height="1300.002" xmlns="http://www.w3.org/2000/svg"><path d="M212 925.002c-57 0-90-38-90-104 0-85 35-195 89-249 26-26 52-33 77-33 19 0 35 6 53 16l38 141h16l77-192c-30-11-75-28-130-28-73 0-140 28-197 85-71 71-121 177-121 288 0 102 63 155 144 155 100 0 177-65 210-102l-9-19c-54 25-98 42-157 42zm263-109c0 115 57 188 164 188 73 0 137-34 181-75 76-73 114-179 114-265 0-115-57-188-164-188-73 0-137 34-181 75-76 73-114 179-114 265zm360-156c0 71-23 181-93 251-33 33-63 39-82 39-67 0-86-58-86-130 0-71 23-181 93-251 34-34 63-39 82-39 67 0 86 58 86 130zm353-174l-10-10-114 47v119l-80 349 12 13 105-32v-131c23-105 84-189 156-259l26 151h14l94-247-10-10c-53 0-100 11-153 64-32 32-57 70-77 103zm391 0l-10-10-114 47v119l-80 349 12 13 105-32v-131c23-105 84-189 156-259l26 151h14l94-247-10-10c-53 0-100 11-153 64-32 32-57 70-77 103zm547 398l-11-14c-51 32-101 55-150 55-68 0-104-34-104-114 0-6 0-12 1-18 124-3 220-33 275-88 35-35 53-83 53-126 0-65-42-103-119-103-73 0-136 32-184 80-82 82-118 197-118 281 0 105 71 167 151 167 94 0 176-72 206-120zm-173-313c25-25 52-37 77-37 50 0 77 47 77 88 0 57-54 100-135 100-22 0-53-3-96-6 16-56 43-111 77-145zm582 295c0-43-26-81-59-114-22-22-62-56-84-78-24-24-42-45-42-71 0-17 7-37 21-51 11-11 31-24 61-24 20 0 42 4 73 33l40 112h16l58-166c-46-17-99-31-160-31-102 0-199 60-199 149 0 39 21 72 50 101 25 25 80 68 99 87 21 21 36 40 36 64 0 17-8 39-22 53-11 11-30 22-60 22-20 0-51-6-83-33l-39-112h-16l-57 171c46 14 107 26 168 26 102 0 199-52 199-138zm173-230l-89 375-62 243 10 10 173-58v-16l-62-53 32-138c23 3 47 5 69 5 83 0 154-22 220-88 70-70 127-196 127-308 0-83-43-132-108-132-51 0-101 32-138 69-33 33-63 75-90 125l42-184-10-10-114 47zm214 273c-25 25-55 35-85 35-37 0-80-13-109-32 32-139 97-245 156-304 37-37 71-53 95-53 30 0 48 26 48 81 0 76-43 211-105 273zm262-93c0 115 57 188 164 188 73 0 137-34 181-75 76-73 114-179 114-265 0-115-57-188-164-188-73 0-137 34-181 75-76 73-114 179-114 265zm360-156c0 71-23 181-93 251-33 33-63 39-82 39-67 0-86-58-86-130 0-71 23-181 93-251 34-34 63-39 82-39 67 0 86 58 86 130zm343-184l-114 45v121l-80 349 12 13 107-32v-131c25-113 69-188 114-233 36-36 72-53 98-53 40 0 64 31 48 103l-76 333 12 13 176-55v-14l-76-40 54-239c27-119-26-180-93-180-53 0-97 26-133 62-28 28-54 62-72 90l33-142zm841 473v-14l-75-44 93-401 63-244-10-10-169 38v16l62 53-32 138c-23-3-46-5-69-5-83 0-154 22-220 88-70 70-127 196-127 308 0 83 43 132 108 132 51 0 101-32 138-69 33-33 65-75 92-125l-42 181 12 13zm-280-378c25-25 55-35 85-35 37 0 75 13 109 32-32 139-97 245-156 304-37 37-71 53-95 53-30 0-48-26-48-81 0-76 43-211 105-273zm0 0"/></svg>