<svg width="5990" height="1300.002" xmlns="http://www.w3.org/2000/svg"><path d="M265 1006.002c113 0 206-81 234-144l-15-21c-41 25-82 46-154 46-88 0-146-65-146-190 0-110 44-150 99-150 25 0 45 7 58 15l55 145h18l88-229c-52-13-101-20-150-20-155 0-317 131-317 309 0 148 89 239 230 239zm519 0c156 0 294-90 294-301 0-158-93-247-236-247-141 0-289 90-289 301 0 159 93 247 231 247zm137-242c0 59-11 109-38 136-16 16-36 24-61 24-22 0-47-7-63-23-35-35-49-110-49-201 0-59 11-109 38-136 16-16 36-24 61-24 22 0 47 7 63 23 35 35 49 110 49 201zm419 43v-166l10-183-223 70v30c46 7 61 22 61 90v177c0 142 64 181 132 181 75 0 151-48 194-79v79l226-58v-30c-24-8-41-19-53-34-20-26-21-61-21-140v-103l10-183-241 70v30c60 7 79 22 79 90v226c-28 9-67 18-99 18-57 0-75-29-75-85zm974 36v-204c0-142-64-181-132-181-75 0-151 48-194 79v-79l-213 59v35c46 7 61 22 61 90v280l-70 28v40h292v-40c-57-33-70-51-70-117v-243c28-9 67-18 99-18 57 0 75 29 75 85v265l-70 28v40h292v-40c-57-33-70-51-70-107zm279-550h-17l-172 203v17c20 9 35 21 45 31 21 22 20 63 20 138v200c0 83 47 123 113 123 71 0 139-36 200-66v-24l-168-46v-315h161v-80h-141zm303 629l-70 28v40h312v-40c-77-33-90-51-90-117v-85c0-113 40-152 92-152l54 135h19l64-259c-18-9-41-14-66-14-79 0-138 63-163 139v-139l-213 59v40c46 7 61 22 61 90zm694 40l150-302 97-160v-26h-157c0 141-23 216-71 309l-6 11-77-162-46-158h-210v26c41 48 76 109 103 164l147 300-18 67c-23 84-52 121-119 112l-47-139h-26l-67 248c39 8 75 14 108 14 111 0 175-68 217-222zm805-372c25-8 60-18 89-18 57 0 75 29 75 85v265l-65 28v40h287v-40c-57-33-70-51-70-117v-194c0-142-64-181-132-181s-142 37-203 78c-27-53-64-78-113-78-71 0-142 49-184 79v-79l-213 59v35c46 7 61 22 61 90v280l-70 28v40h287v-40c-52-33-65-51-65-117v-243c25-8 60-18 89-18 57 0 75 29 75 85v265l-65 28v40h282v-40c-52-33-65-51-65-117zm716 297c-74 0-122-43-136-142l320 24c5-34 6-59 6-90 0-141-67-221-191-221-133 0-284 121-284 307 0 154 98 241 241 241 118 0 197-87 232-144l-15-21c-39 24-91 46-173 46zm-140-205c0-61 13-98 33-118 14-14 33-19 51-19 60 0 100 60 100 129l-184 24v-16zm939 161v-204c0-142-64-181-132-181-75 0-151 48-194 79v-79l-213 59v35c46 7 61 22 61 90v280l-70 28v40h292v-40c-57-33-70-51-70-117v-243c28-9 67-18 99-18 57 0 75 29 75 85v265l-70 28v40h292v-40c-57-33-70-51-70-107zm0 0"/></svg>