<svg width="5168" height="1300.002" xmlns="http://www.w3.org/2000/svg"><path d="M212 925.002c-57 0-90-38-90-104 0-85 35-195 89-249 26-26 52-33 77-33 19 0 35 6 53 16l38 141h16l77-192c-30-11-75-28-130-28-73 0-140 28-197 85-71 71-121 177-121 288 0 102 63 155 144 155 100 0 177-65 210-102l-9-19c-54 25-98 42-157 42zm263-109c0 115 57 188 164 188 73 0 137-34 181-75 76-73 114-179 114-265 0-115-57-188-164-188-73 0-137 34-181 75-76 73-114 179-114 265zm360-156c0 71-23 181-93 251-33 33-63 39-82 39-67 0-86-58-86-130 0-71 23-181 93-251 34-34 63-39 82-39 67 0 86 58 86 130zm259 183l97-355-12-13-115 34v129l-52 185c-33 116 23 180 95 180 48 0 97-28 133-64 28-28 54-62 72-90l-33 142 12 13 174-55v-14l-76-40 94-407-12-13-108 32v131c-25 113-68 188-113 233-36 36-72 53-102 53-24 0-73-10-54-81zm627-367l-114 45v121l-80 349 12 13 107-32v-131c25-113 69-188 114-233 36-36 72-53 98-53 40 0 64 31 48 103l-76 333 12 13 176-55v-14l-76-40 54-239c27-119-26-180-93-180-53 0-97 26-133 62-28 28-54 62-72 90l33-142zm555-150l-140 199v20c34 0 61 25 50 73l-63 275c-13 56 6 111 69 111 54 0 104-22 164-49v-14l-147-41 79-345h143v-65h-139v-164zm363 160l-10-10-114 47v119l-80 349 12 13 105-32v-131c23-105 84-189 156-259l26 151h14l94-247-10-10c-53 0-100 11-153 64-32 32-57 70-77 103zm601 405l93-402-12-13-108 32v131c-25 113-71 188-116 233-36 36-72 53-98 53-31 0-53-19-53-72 0-94 42-176 141-369l-10-10-200 53v16l99 58c-70 77-124 190-124 281 0 81 51 122 102 122 53 0 97-28 133-64 28-28 54-62 72-90l-7 30c-65 278-131 299-239 299-27 0-55-6-85-16l-48-103h-12l-73 172c68 24 107 32 177 32 134-1 311-124 368-373zm326-415l-114 47v119l-80 349 12 13 105-33v-130c25-113 71-188 116-233 35-35 68-53 93-53 36 0 59 31 43 103l-76 333 12 13 105-33v-130c25-113 67-189 111-233 35-35 67-53 92-53 36 0 59 31 43 103l-76 333 12 13 178-55v-14l-76-40 54-239c27-119-26-180-90-180-51 0-94 24-132 62-21 21-42 44-65 76 7-87-36-138-90-138-51 0-95 31-133 69-27 27-49 57-67 85l33-144zm994 408l-11-14c-51 32-101 55-150 55-68 0-104-34-104-114 0-6 0-12 1-18 124-3 220-33 275-88 35-35 53-83 53-126 0-65-42-103-119-103-73 0-136 32-184 80-82 82-118 197-118 281 0 105 71 167 151 167 94 0 176-72 206-120zm-173-313c25-25 52-37 77-37 50 0 77 47 77 88 0 57-54 100-135 100-22 0-53-3-96-6 16-56 43-111 77-145zm448-95l-114 45v121l-80 349 12 13 107-32v-131c25-113 69-188 114-233 36-36 72-53 98-53 40 0 64 31 48 103l-76 333 12 13 176-55v-14l-76-40 54-239c27-119-26-180-93-180-53 0-97 26-133 62-28 28-54 62-72 90l33-142zm0 0"/></svg>