<svg width="3058" height="1300.002" xmlns="http://www.w3.org/2000/svg"><path d="M265 1006.002c113 0 206-81 234-144l-15-21c-41 25-82 46-154 46-88 0-146-65-146-190 0-110 44-150 99-150 25 0 45 7 58 15l55 145h18l88-229c-52-13-101-20-150-20-155 0-317 131-317 309 0 148 89 239 230 239zm355-84l-70 28v40h312v-40c-77-33-90-51-90-117v-85c0-113 40-152 92-152l54 135h19l64-259c-18-9-41-14-66-14-79 0-138 63-163 139v-139l-213 59v40c46 7 61 22 61 90zm530-504c58 0 102-42 102-102 0-52-44-100-102-100-60 0-106 48-106 100 0 60 46 102 106 102zm80 425v-202l10-183-223 59v35c46 7 61 22 61 90v280l-70 28v40h292v-40c-57-33-70-51-70-107zm280-550h-17l-172 203v17c20 9 35 21 45 31 21 22 20 63 20 138v200c0 83 47 123 113 123 71 0 139-36 200-66v-24l-168-46v-315h161v-80h-141zm358 125c58 0 102-42 102-102 0-52-44-100-102-100-60 0-106 48-106 100 0 60 46 102 106 102zm80 425v-202l10-183-223 59v35c46 7 61 22 61 90v280l-70 28v40h292v-40c-57-33-70-51-70-107zm346 163c113 0 206-81 234-144l-15-21c-41 25-82 46-154 46-88 0-146-65-146-190 0-110 44-150 99-150 25 0 45 7 58 15l55 145h18l88-229c-52-13-101-20-150-20-155 0-317 131-317 309 0 148 89 239 230 239zm581-459l55 106h17l77-175c-70-14-110-20-182-20-135 0-244 70-244 170 0 53 14 78 39 103 36 36 190 80 219 109 13 13 21 21 21 41 0 10-4 21-13 30-10 10-35 21-66 21-32 0-61-4-87-19l-45-98h-18l-74 167c53 14 132 24 206 24 125 0 241-68 241-171 0-45-13-75-41-103-40-40-188-82-216-110-13-13-21-28-21-41 0-9 4-19 11-26 8-8 30-17 62-17 17 0 37 2 59 9zm0 0"/></svg>