<svg width="2890" height="1300.002" xmlns="http://www.w3.org/2000/svg"><path d="M384 709.002l20 1 125-241c-26-7-88-11-126-11-121 0-197 37-259 99-83 83-124 200-124 281 0 104 70 168 173 168 101 0 190-67 242-143l-16-18c-65 25-112 41-153 41-65 0-89-40-89-106 0-69 30-172 75-217 13-13 27-14 34-14 22 0 44 17 60 37zm173-37l-74 319 13 13 164-32v-122c26-110 68-198 110-240l36 155h26l127-296c-15-7-33-11-55-11-76 0-143 65-184 138l31-123-13-13-181 37zm589-249c58 0 105-46 105-105 0-57-47-105-105-105s-105 48-105 105c0 59 47 105 105 105zm46 50l-13-13-179 37v175l-77 322 12 13 223-44v-25l-59-51zm285-164l-200 215-5 50c34 0 61 25 50 73l-52 222c-19 80 7 137 82 137 60 0 122-27 192-62v-22l-119-50 70-308h136v-90h-128v-165zm355 114c58 0 105-46 105-105 0-57-47-105-105-105s-105 48-105 105c0 59 47 105 105 105zm46 50l-13-13-179 37v175l-77 322 12 13 223-44v-25l-59-51zm409 236l20 1 125-241c-26-7-88-11-126-11-121 0-197 37-259 99-83 83-124 200-124 281 0 104 70 168 173 168 101 0 190-67 242-143l-16-18c-65 25-112 41-153 41-65 0-89-40-89-106 0-69 30-172 75-217 13-13 27-14 34-14 22 0 44 17 60 37zm323-127c0-13 6-26 15-35s22-17 45-17c21 0 36 8 54 20l57 121h24l85-185c-48-16-119-28-194-28-105 0-236 48-236 172 0 33 18 61 43 86 34 34 97 73 129 105 19 19 32 39 32 61 0 13-4 24-14 34-12 12-27 18-45 18-21 0-46-7-60-15l-65-134h-24l-89 193c53 14 136 28 211 28 103 0 236-48 236-172 0-33-18-61-44-87-35-35-96-73-129-106-19-19-31-38-31-59zm0 0"/></svg>