<svg width="3287" height="1300.002" xmlns="http://www.w3.org/2000/svg"><path d="M527 962.002v-25l-62-53 146-637-13-13-230 41v25c47 23 67 55 52 119l-9 39c-110 0-199 39-264 104-93 93-131 223-131 302 0 94 53 142 118 142 38 0 81-16 121-56 29-29 52-64 74-116l-36 159 12 13zm-273-389c15-15 35-22 55-22 26 0 53 9 79 27-38 164-92 240-136 284-16 16-29 24-39 24-26 0-38-22-38-59 0-63 35-210 79-254zm499 433c99 0 186-78 238-163l-16-18c-62 40-116 61-159 61-55 0-98-32-98-92v-3c191-7 337-118 337-231 0-72-59-102-127-102-65 0-145 27-215 97-104 104-121 224-121 278 0 112 73 173 161 173zm51-433c21-21 42-26 57-26 31 0 50 24 50 62 0 47-23 90-82 90-22 0-45 0-94-7 14-45 38-88 69-119zm635 136l20 1 125-241c-26-7-88-11-126-11-121 0-197 37-259 99-83 83-124 200-124 281 0 104 70 168 173 168 101 0 190-67 242-143l-16-18c-65 25-112 41-153 41-65 0-89-40-89-106 0-69 30-172 75-217 13-13 27-14 34-14 22 0 44 17 60 37zm274 172l66-285 88-349-13-13-236 41v25c47 23 66 56 52 119l-131 574 12 13 229-44v-25zm440-47l-36 159 12 13 222-44v-25l-62-53 65-291 83-81v-20c-66-20-109-34-197-34-115 0-204 39-269 104-93 93-131 223-131 302 0 94 53 142 118 142 38 0 81-16 121-56 29-29 52-64 74-116zm-75-261c15-15 35-22 55-22 26 0 53 9 79 27-38 164-92 240-136 284-16 16-29 24-39 24-26 0-38-22-38-59 0-63 35-210 79-254zm408 99l-74 319 13 13 164-32v-122c26-110 68-198 110-240l36 155h26l127-296c-15-7-33-11-55-11-76 0-143 65-184 138l31-123-13-13-181 37zm499 334c99 0 186-78 238-163l-16-18c-62 40-116 61-159 61-55 0-98-32-98-92v-3c191-7 337-118 337-231 0-72-59-102-127-102-65 0-145 27-215 97-104 104-121 224-121 278 0 112 73 173 161 173zm51-433c21-21 42-26 57-26 31 0 50 24 50 62 0 47-23 90-82 90-22 0-45 0-94-7 14-45 38-88 69-119zm0 0"/></svg>