<svg width="5324" height="1300.002" xmlns="http://www.w3.org/2000/svg"><path d="M564 939.002v-14c-65-9-75-32-75-146v-324l9-213-10-10-167 67v15c25 7 41 17 53 29 21 21 25 53 25 107v27c-11-1-23-1-36-1-120 0-311 84-311 317 0 126 78 211 190 211 69 0 120-27 159-55v56zm-165-370v331c-34 17-78 29-124 29-34 0-63-9-85-31-30-30-46-78-46-143 0-81 20-134 50-164 26-26 60-38 97-38 36 0 74 8 108 16zm477 354c-83 0-140-64-141-188l327 22c5-31 8-64 8-84 0-118-65-197-169-197-108 0-256 102-256 297 0 162 119 231 207 231 114 0 195-80 221-172l-17-7c-35 43-87 98-180 98zm-97-343c23-23 51-29 81-29 94 0 120 67 120 128l-244 20c5-55 19-95 43-119zm612 424c107 0 188-80 214-192l-17-7c-36 63-96 118-182 118-80 0-135-59-135-187 0-65 12-119 45-152 23-23 54-37 94-37 24 0 49 4 73 11l50 126h16l66-182c-61-22-106-26-153-26-149 0-285 128-285 294 0 152 90 234 214 234zm350-67l-81 31v22h252v-25c-27-5-45-14-58-27-17-17-23-45-23-175v-308l9-213-10-10-167 67v15c25 7 41 17 53 29 21 21 25 53 25 107zm717 3v-14c-29-7-49-18-62-31-24-24-25-61-25-135v-166c0-75-65-118-135-118-86 0-178 43-242 78l45 138h16l55-148c86 0 126 3 153 30 14 14 18 33 18 59v75l-72 19c-79 21-150 46-180 76-24 24-33 52-33 82 0 68 56 119 133 119 58 0 108-26 152-53l2 54zm-177-35c-26 12-77 27-117 27-60 0-76-40-76-84 0-9 1-23 3-33l190-45zm305 32l-81 31v22h252v-25c-27-5-45-14-58-27-17-17-23-45-23-175v-24c0-70 13-111 39-137 18-18 42-29 72-29l47 120h16l52-199c-23-13-41-18-68-18-43 0-83 22-114 53-18 18-34 47-44 87v-140l-168 65v15c25 5 42 10 55 23 20 20 23 59 23 113zm590-14c-83 0-140-64-141-188l327 22c5-31 8-64 8-84 0-118-65-197-169-197-108 0-256 102-256 297 0 162 119 231 207 231 114 0 195-80 221-172l-17-7c-35 43-87 98-180 98zm-97-343c23-23 51-29 81-29 94 0 120 67 120 128l-244 20c5-55 19-95 43-119zm511-277h-16l-106 207v15c47 15 55 45 55 116v265c0 67 39 98 84 98 54 0 120-29 171-52v-17l-165-29v-351h161v-65h-161zm635 634l-81 31v22h252v-25c-27-5-45-14-58-27-17-17-23-45-23-175v-123c0-112-46-164-135-164-75 0-138 33-188 64v-85l9-213-10-10-167 67v15c25 7 41 17 53 29 21 21 25 53 25 107v487l-81 31v22h252v-25c-27-5-45-14-58-27-17-17-23-45-23-175v-173c36-19 78-34 137-34s96 39 96 126zm713 3v-14c-29-7-49-18-62-31-24-24-25-61-25-135v-166c0-75-65-118-135-118-86 0-178 43-242 78l45 138h16l55-148c86 0 126 3 153 30 14 14 18 33 18 59v75l-72 19c-79 21-150 46-180 76-24 24-33 52-33 82 0 68 56 119 133 119 58 0 108-26 152-53l2 54zm-177-35c-26 12-77 27-117 27-60 0-76-40-76-84 0-9 1-23 3-33l190-45zm355-602h-16l-106 207v15c47 15 55 45 55 116v265c0 67 39 98 84 98 54 0 120-29 171-52v-17l-165-29v-351h161v-65h-161zm0 0"/></svg>