<svg width="2469" height="1300.002" xmlns="http://www.w3.org/2000/svg"><path d="M508 949.002v-14l-75-44 93-401 63-244-10-10-169 38v16l62 53-32 138c-23-3-46-5-69-5-83 0-154 22-220 88-70 70-127 196-127 308 0 83 43 132 108 132 51 0 101-32 138-69 33-33 65-75 92-125l-42 181 12 13zm-280-378c25-25 55-35 85-35 37 0 75 13 109 32-32 139-97 245-156 304-37 37-71 53-95 53-30 0-48-26-48-81 0-76 43-211 105-273zm358 245c0 115 57 188 164 188 73 0 137-34 181-75 76-73 114-179 114-265 0-115-57-188-164-188-73 0-137 34-181 75-76 73-114 179-114 265zm360-156c0 71-23 181-93 251-33 33-63 39-82 39-67 0-86-58-86-130 0-71 23-181 93-251 34-34 63-39 82-39 67 0 86 58 86 130zm344-270c40 0 72-32 72-72 0-39-32-71-72-71-39 0-71 32-71 71 0 40 32 72 71 72zm11 86l-114 47v119l-84 349 12 13 178-55v-14l-76-40 94-409zm257 0l-114 45v121l-80 349 12 13 107-32v-131c25-113 69-188 114-233 36-36 72-53 98-53 40 0 64 31 48 103l-76 333 12 13 176-55v-14l-76-40 54-239c27-119-26-180-93-180-53 0-97 26-133 62-28 28-54 62-72 90l33-142zm678 404c-60 278-124 299-191 299-36 0-64-6-94-16l-48-103h-12l-73 172c68 24 107 32 177 32 125-1 274-125 329-373l70-302 75-56v-14c-54-23-133-43-207-43-83 0-154 22-220 88-70 70-127 196-127 308 0 83 43 132 108 132 51 0 101-32 138-69 33-33 63-75 90-125zm-119-309c25-25 57-35 87-35 37 0 75 13 109 32-32 139-97 245-156 304-37 37-73 53-97 53-30 0-48-26-48-81 0-76 43-211 105-273zm0 0"/></svg>