<svg width="2320" height="1300.002" xmlns="http://www.w3.org/2000/svg"><path d="M382 884.002l-11-14c-51 32-101 55-150 55-68 0-104-34-104-114 0-6 0-12 1-18 124-3 220-33 275-88 35-35 53-83 53-126 0-65-42-103-119-103-73 0-136 32-184 80-82 82-118 197-118 281 0 105 71 167 151 167 94 0 176-72 206-120zm-173-313c25-25 52-37 77-37 50 0 77 47 77 88 0 57-54 100-135 100-22 0-53-3-96-6 16-56 43-111 77-145zm496-97l-200 53v16l106 59c-72 67-129 159-129 262 0 93 66 140 134 140 120 0 311-129 311-458v-70l-106 38v290c-34 62-94 121-169 121-48 0-70-45-70-89 0-76 34-159 133-352zm619 410l-11-14c-51 32-101 55-150 55-68 0-104-34-104-114 0-6 0-12 1-18 124-3 220-33 275-88 35-35 53-83 53-126 0-65-42-103-119-103-73 0-136 32-184 80-82 82-118 197-118 281 0 105 71 167 151 167 94 0 176-72 206-120zm-173-313c25-25 52-37 77-37 50 0 77 47 77 88 0 57-54 100-135 100-22 0-53-3-96-6 16-56 43-111 77-145zm458-85l-10-10-114 47v119l-80 349 12 13 105-32v-131c23-105 84-189 156-259l26 151h14l94-247-10-10c-53 0-100 11-153 64-32 32-57 70-77 103zm601 405l93-402-12-13-108 32v131c-25 113-71 188-116 233-36 36-72 53-98 53-31 0-53-19-53-72 0-94 42-176 141-369l-10-10-200 53v16l99 58c-70 77-124 190-124 281 0 81 51 122 102 122 53 0 97-28 133-64 28-28 54-62 72-90l-7 30c-65 278-131 299-239 299-27 0-55-6-85-16l-48-103h-12l-73 172c68 24 107 32 177 32 134-1 311-124 368-373zm0 0"/></svg>