<svg width="1439" height="1300.002" xmlns="http://www.w3.org/2000/svg"><path d="M204 879.002l74-315h104v-90h-80v-68l207-81v-26l-230-65-130 240H55v90h75l-101 429 12 13 226-35v-25zm500-45l-36 159 12 13 222-44v-25l-62-53 65-291 83-81v-20c-66-20-109-34-197-34-115 0-204 39-269 104-93 93-131 223-131 302 0 94 53 142 118 142 38 0 81-16 121-56 29-29 52-64 74-116zm-75-261c15-15 35-22 55-22 26 0 53 9 79 27-38 164-92 240-136 284-16 16-29 24-39 24-26 0-38-22-38-59 0-63 35-210 79-254zm408 99l-74 319 13 13 164-32v-122c26-110 68-198 110-240l36 155h26l127-296c-15-7-33-11-55-11-76 0-143 65-184 138l31-123-13-13-181 37zm0 0"/></svg>