<svg width="1611" height="1300.002" xmlns="http://www.w3.org/2000/svg"><path d="M115 555.002v382l-81 31v22h252v-25c-27-5-45-14-58-27-17-17-23-45-23-175v-208h114v-65H207v-145l190-54v-14l-217-41-72 254H37v65zm491 368c-83 0-140-64-141-188l327 22c5-31 8-64 8-84 0-118-65-197-169-197-108 0-256 102-256 297 0 162 119 231 207 231 114 0 195-80 221-172l-17-7c-35 43-87 98-180 98zm-97-343c23-23 51-29 81-29 94 0 120 67 120 128l-244 20c5-55 19-95 43-119zm924 175l-29 84-157-363h-26l-151 362-71-201-25-147H837v25c36 46 55 82 82 160l114 329h26l157-375 161 375h26l125-363 65-126v-25h-118c0 106-10 172-42 265zm0 0"/></svg>