<svg width="1427" height="1300.002" xmlns="http://www.w3.org/2000/svg"><path d="M204 879.002l74-315h104v-90h-80v-68l207-81v-26l-230-65-130 240H55v90h75l-101 429 12 13 226-35v-25zm400 127c83 0 155-34 208-87 75-75 102-173 102-250 0-132-71-212-190-212-79 0-150 37-201 88-75 75-102 172-102 250 0 131 71 211 183 211zm91-476c38 0 67 43 67 124 0 77-27 206-80 259-13 13-27 20-43 20-38 0-66-45-66-126 0-77 26-204 79-257 13-13 27-20 43-20zm330 142l-74 319 13 13 164-32v-122c26-110 68-198 110-240l36 155h26l127-296c-15-7-33-11-55-11-76 0-143 65-184 138l31-123-13-13-181 37zm0 0"/></svg>