<svg width="2248" height="1300.002" xmlns="http://www.w3.org/2000/svg"><path d="M247 253.002l-19-19-219 56v26c60 31 76 61 76 130v476l-70 28v40h292v-40c-57-23-70-41-70-117v-243c28-9 67-18 99-18 57 0 75 29 75 85v265l-70 28v40h292v-40c-57-23-70-41-70-117v-194c0-142-64-181-132-181-75 0-151 48-194 79zm726 687l2 66 210-46v-22c-47-21-60-34-60-152v-204c0-76-55-124-172-124-100 0-206 41-270 69l80 153h18l63-143c38 0 91-2 113 20 11 11 16 29 16 52v78l-50 10c-107 21-163 43-193 73-32 32-47 70-47 116 0 75 64 120 134 120 67 0 114-21 156-66zm0-55c-20 8-39 16-67 16-58 0-78-28-78-61 0-17 0-34 8-56l137-20zm664-225l97-160v-26h-157c0 141-24 222-62 309l-11 25-75-176-46-158h-200v26c34 49 68 107 93 164l145 326h70zm375 227c-74 0-122-43-136-142l320 24c5-34 6-59 6-90 0-141-67-221-191-221-133 0-284 121-284 307 0 154 98 241 241 241 118 0 197-87 232-144l-15-21c-39 24-91 46-173 46zm-140-205c0-61 13-98 33-118 14-14 33-19 51-19 60 0 100 60 100 129l-184 24v-16zm0 0"/></svg>