<svg width="2068" height="1300.002" xmlns="http://www.w3.org/2000/svg"><path d="M18 991.002l12 13 106-32v-131c25-113 71-188 116-233 36-36 72-53 98-53 40 0 64 31 48 103l-76 333 12 13 178-55v-14l-76-40 54-239c27-119-28-180-95-180-53 0-99 30-138 69-27 27-49 57-67 85l36-155 61-229-10-10-174 38v16l61 53zm963-100l70-302 75-56v-14c-54-23-133-43-207-43-83 0-154 22-220 88-70 70-127 196-127 308 0 83 43 132 108 132 51 0 101-32 138-69 33-33 63-75 90-125l-42 181 12 13 178-55v-14zm-207-320c25-25 57-35 87-35 37 0 75 13 109 32-32 139-97 245-156 304-37 37-73 53-97 53-30 0-48-26-48-81 0-76 43-211 105-273zm611-97l-200 53v16l106 59c-72 67-129 159-129 262 0 93 66 140 134 140 120 0 311-129 311-458v-70l-106 38v290c-34 62-94 121-169 121-48 0-70-45-70-89 0-76 34-159 133-352zm619 410l-11-14c-51 32-101 55-150 55-68 0-104-34-104-114 0-6 0-12 1-18 124-3 220-33 275-88 35-35 53-83 53-126 0-65-42-103-119-103-73 0-136 32-184 80-82 82-118 197-118 281 0 105 71 167 151 167 94 0 176-72 206-120zm-173-313c25-25 52-37 77-37 50 0 77 47 77 88 0 57-54 100-135 100-22 0-53-3-96-6 16-56 43-111 77-145zm0 0"/></svg>