<svg width="4482" height="1300.002" xmlns="http://www.w3.org/2000/svg"><path d="M157 418.002c58 0 102-42 102-102 0-52-44-100-102-100-60 0-106 48-106 100 0 60 46 102 106 102zm80 425v-202l10-183-223 59v35c46 7 61 22 61 90v280l-70 28v40h292v-40c-57-33-70-51-70-107zm634-253c25-8 60-18 89-18 57 0 75 29 75 85v265l-65 28v40h287v-40c-57-33-70-51-70-117v-194c0-142-64-181-132-181s-142 37-203 78c-27-53-64-78-113-78-71 0-142 49-184 79v-79l-213 59v35c46 7 61 22 61 90v280l-70 28v40h287v-40c-52-33-65-51-65-117v-243c25-8 60-18 89-18 57 0 75 29 75 85v265l-65 28v40h282v-40c-52-33-65-51-65-117zm949 0c25-8 60-18 89-18 57 0 75 29 75 85v265l-65 28v40h287v-40c-57-33-70-51-70-117v-194c0-142-64-181-132-181s-142 37-203 78c-27-53-64-78-113-78-71 0-142 49-184 79v-79l-213 59v35c46 7 61 22 61 90v280l-70 28v40h287v-40c-52-33-65-51-65-117v-243c25-8 60-18 89-18 57 0 75 29 75 85v265l-65 28v40h282v-40c-52-33-65-51-65-117zm716 297c-74 0-122-43-136-142l320 24c5-34 6-59 6-90 0-141-67-221-191-221-133 0-284 121-284 307 0 154 98 241 241 241 118 0 197-87 232-144l-15-21c-39 24-91 46-173 46zm-140-205c0-61 13-98 33-118 14-14 33-19 51-19 60 0 100 60 100 129l-184 24v-16zm939 161v-204c0-142-64-181-132-181-75 0-151 48-194 79v-79l-213 59v35c46 7 61 22 61 90v280l-70 28v40h292v-40c-57-33-70-51-70-117v-243c28-9 67-18 99-18 57 0 75 29 75 85v265l-70 28v40h292v-40c-57-33-70-51-70-107zm408-296l55 106h17l77-175c-70-14-110-20-182-20-135 0-244 70-244 170 0 53 14 78 39 103 36 36 190 80 219 109 13 13 21 21 21 41 0 10-4 21-13 30-10 10-35 21-66 21-32 0-61-4-87-19l-45-98h-18l-74 167c53 14 132 24 206 24 125 0 241-68 241-171 0-45-13-75-41-103-40-40-188-82-216-110-13-13-21-28-21-41 0-9 4-19 11-26 8-8 30-17 62-17 17 0 37 2 59 9zm503 340c-74 0-122-43-136-142l320 24c5-34 6-59 6-90 0-141-67-221-191-221-133 0-284 121-284 307 0 154 98 241 241 241 118 0 197-87 232-144l-15-21c-39 24-91 46-173 46zm-140-205c0-61 13-98 33-118 14-14 33-19 51-19 60 0 100 60 100 129l-184 24v-16zm0 0"/></svg>