<svg width="829" height="1300.002" xmlns="http://www.w3.org/2000/svg"><path d="M157 418.002c58 0 102-42 102-102 0-52-44-100-102-100-60 0-106 48-106 100 0 60 46 102 106 102zm80 425v-202l10-183-223 59v35c46 7 61 22 61 90v280l-70 28v40h292v-40c-57-33-70-51-70-107zm409-296l55 106h17l77-175c-70-14-110-20-182-20-135 0-244 70-244 170 0 53 14 78 39 103 36 36 190 80 219 109 13 13 21 21 21 41 0 10-4 21-13 30-10 10-35 21-66 21-32 0-61-4-87-19l-45-98h-18l-74 167c53 14 132 24 206 24 125 0 241-68 241-171 0-45-13-75-41-103-40-40-188-82-216-110-13-13-21-28-21-41 0-9 4-19 11-26 8-8 30-17 62-17 17 0 37 2 59 9zm0 0"/></svg>