<svg width="4610" height="1300.002" xmlns="http://www.w3.org/2000/svg"><path d="M152 390.002c42 0 75-34 75-75s-33-75-75-75c-41 0-76 34-76 75s35 75 76 75zm-37 547l-81 31v22h252v-25c-27-5-45-14-58-27-17-17-23-45-23-175v-115l10-172-178 65v15c25 7 42 18 53 31 23 26 25 61 25 115zm516-61c0 23-6 38-19 51-15 15-35 24-70 24-27 0-59-5-87-17l-41-110h-16l-53 161c54 13 103 19 154 19 121 0 225-57 225-158 0-43-18-71-37-90-54-54-179-76-210-107-14-14-24-29-24-53 0-19 6-32 18-44 13-13 28-23 56-23 25 0 55 6 82 17l41 106h16l53-157c-52-13-100-19-149-19-112 0-208 52-208 152 0 41 14 66 31 83 52 52 177 72 212 107 17 17 26 33 26 58zm751-121l-29 84-157-363h-26l-151 362-71-201-25-147H786v25c36 46 55 82 82 160l114 329h26l157-375 161 375h26l125-363 65-126v-25h-118c0 106-10 172-42 265zm200 12c0 124 75 237 209 237 144 0 268-129 268-291 0-124-75-237-209-237-144 0-268 129-268 291zm385-7c0 63-15 110-44 139-22 22-50 33-94 33-38 0-75-12-107-44-34-34-48-95-48-168 0-63 15-110 44-139 22-22 50-33 94-33 38 0 75 12 107 44 34 34 48 95 48 168zm259 177l-81 31v22h252v-25c-27-5-45-14-58-27-17-17-23-45-23-175v-24c0-70 13-111 39-137 18-18 42-29 72-29l47 120h16l52-199c-23-13-41-18-68-18-43 0-83 22-114 53-18 18-34 47-44 87v-140l-168 65v15c25 5 42 10 55 23 20 20 23 59 23 113zm431 0l-81 31v22h252v-25c-27-5-45-14-58-27-17-17-23-45-23-175v-26l89 22 102 185c26 48 52 60 86 60 32 0 64-14 103-51v-14l-105-28-119-212 203-195v-14h-152c-10 72-41 127-72 158s-76 47-135 58v-251l9-213-10-10-167 67v15c25 7 41 17 53 29 21 21 25 53 25 107zm619-547c42 0 75-34 75-75s-33-75-75-75c-41 0-76 34-76 75s35 75 76 75zm-37 547l-81 31v22h252v-25c-27-5-45-14-58-27-17-17-23-45-23-175v-115l10-172-178 65v15c25 7 42 18 53 31 23 26 25 61 25 115zm305-245v245l-81 31v22h252v-25c-27-5-45-14-58-27-17-17-23-45-23-175v-173c36-19 78-35 137-35s96 25 96 92v290l-81 31v22h252v-25c-27-5-45-14-58-27-17-17-23-45-23-175v-123c0-112-52-164-139-164-74 0-134 33-184 64v-64l-168 65v15c25 5 42 10 55 23 20 20 23 59 23 113zm1027 352c0-52-54-91-152-103l-151-18-28-78c17 4 34 6 52 6 56 0 115-19 161-65 42-42 64-98 64-156v-32l87-43v-14l-83-30c-50-18-107-35-170-35-102 0-239 79-239 214 0 69 37 119 94 144l-68 151 256 28c61 7 90 41 90 80 0 23-8 44-23 59-25 25-73 47-147 47-99 0-131-46-131-99v-61l-13-4c-41 37-71 79-71 121 0 55 64 108 179 108 129 0 293-96 293-220zm-129-375c0 32-9 62-29 82-23 23-57 34-91 34-39 0-72-15-93-36-22-22-31-53-31-93 0-32 8-61 29-82 25-25 57-34 91-34 39 0 72 15 93 36 20 20 31 53 31 93zm0 0"/></svg>