<svg width="2929" height="1300.002" xmlns="http://www.w3.org/2000/svg"><path d="M387 390.002c40 0 72-32 72-72 0-39-32-71-72-71-39 0-71 32-71 71 0 40 32 72 71 72zm-101 241l-115 501-171 62v14l175 56 113-243 122-535-10-10-114 47zm292 212l97-355-12-13-115 34v129l-52 185c-33 116 23 180 95 180 48 0 97-28 133-64 28-28 54-62 72-90l-33 142 12 13 174-55v-14l-76-40 94-407-12-13-108 32v131c-25 113-68 188-113 233-36 36-72 53-102 53-24 0-73-10-54-81zm761 23c0-43-26-81-59-114-22-22-62-56-84-78-24-24-42-45-42-71 0-17 7-37 21-51 11-11 31-24 61-24 20 0 42 4 73 33l40 112h16l58-166c-46-17-99-31-160-31-102 0-199 60-199 149 0 39 21 72 50 101 25 25 80 68 99 87 21 21 36 40 36 64 0 17-8 39-22 53-11 11-30 22-60 22-20 0-51-6-83-33l-39-112h-16l-57 171c46 14 107 26 168 26 102 0 199-52 199-138zm291-540l-140 199v20c34 0 61 25 50 73l-63 275c-13 56 6 111 69 111 54 0 104-22 164-49v-14l-147-41 79-345h143v-65h-139v-164zm354 64c40 0 72-32 72-72 0-39-32-71-72-71-39 0-71 32-71 71 0 40 32 72 71 72zm11 86l-114 47v119l-84 349 12 13 178-55v-14l-76-40 94-409zm253 449c-57 0-90-38-90-104 0-85 35-195 89-249 26-26 52-33 77-33 19 0 35 6 53 16l38 141h16l77-192c-30-11-75-28-130-28-73 0-140 28-197 85-71 71-121 177-121 288 0 102 63 155 144 155 100 0 177-65 210-102l-9-19c-54 25-98 42-157 42zm617-41l-11-14c-51 32-101 55-150 55-68 0-104-34-104-114 0-6 0-12 1-18 124-3 220-33 275-88 35-35 53-83 53-126 0-65-42-103-119-103-73 0-136 32-184 80-82 82-118 197-118 281 0 105 71 167 151 167 94 0 176-72 206-120zm-173-313c25-25 52-37 77-37 50 0 77 47 77 88 0 57-54 100-135 100-22 0-53-3-96-6 16-56 43-111 77-145zm0 0"/></svg>