<svg width="2318" height="1300.002" xmlns="http://www.w3.org/2000/svg"><path d="M18 987.002l12 13 107-32v-131c36-96 95-173 141-219 44-44 80-63 101-63 26 0 40 16 40 45 0 50-46 108-156 168 0 87 18 236 103 236 48 0 87-45 115-111l-13-11c-23 23-45 35-65 35-42 0-54-98-54-157 73-49 172-114 172-192 0-51-41-92-95-92-60 0-105 34-143 72s-81 89-104 125l48-198 63-229-10-10-176 38v16l62 53zm726-511l-114 45v121l-80 349 12 13 107-32v-131c25-113 69-188 114-233 36-36 72-53 98-53 40 0 64 31 48 103l-76 333 12 13 176-55v-14l-76-40 54-239c27-119-26-180-93-180-53 0-97 26-133 62-28 28-54 62-72 90l33-142zm361 340c0 115 57 188 164 188 73 0 137-34 181-75 76-73 114-179 114-265 0-115-57-188-164-188-73 0-137 34-181 75-76 73-114 179-114 265zm360-156c0 71-23 181-93 251-33 33-63 39-82 39-67 0-86-58-86-130 0-71 23-181 93-251 34-34 63-39 82-39 67 0 86 58 86 130zm833-114v-60l-10-10-96 33v327c-27 45-63 89-117 89-51 0-84-83-58-194l56-243-12-13-108 32v117l-26 112c-38 164-104 189-137 189-45 0-57-45-57-89 0-76 34-159 133-352l-10-10-200 53v16l99 58c-64 67-122 171-122 263 0 93 59 140 119 140s126-47 168-120c14 62 54 120 129 120 102 0 249-129 249-458zm0 0"/></svg>