<svg width="2675" height="1300.002" xmlns="http://www.w3.org/2000/svg"><path d="M232 673.002l5-420-19-19-214 56v26c60 31 76 61 76 130v476l-70 28v40h292v-40c-57-33-70-51-70-107v-112l69 18 77 170c30 67 62 87 109 87 35 0 78-21 132-53v-24l-89-44-120-223 194-164v-24H367c14 85 5 127-23 155-27 27-66 35-112 44zm957 170v-204c0-142-64-181-132-181-75 0-151 48-194 79v-79l-213 59v35c46 7 61 22 61 90v280l-70 28v40h292v-40c-57-33-70-51-70-117v-243c28-9 67-18 99-18 57 0 75 29 75 85v265l-70 28v40h292v-40c-57-33-70-51-70-107zm346 163c156 0 294-90 294-301 0-158-93-247-236-247-141 0-289 90-289 301 0 159 93 247 231 247zm137-242c0 59-11 109-38 136-16 16-36 24-61 24-22 0-47-7-63-23-35-35-49-110-49-201 0-59 11-109 38-136 16-16 36-24 61-24 22 0 47 7 63 23 35 35 49 110 49 201zm728 236h48l138-353 75-133v-40h-144c0 90-23 195-59 295l-151-305h-41l-123 303-59-148-32-145h-195v40c37 50 59 84 95 176l122 310h48l130-306zm0 0"/></svg>