<svg width="1458" height="1300.002" xmlns="http://www.w3.org/2000/svg"><path d="M104 937.002l-81 31v22h252v-25c-27-5-45-14-58-27-17-17-23-45-23-175v-308l9-213-10-10-167 67v15c25 7 41 17 53 29 21 21 25 53 25 107zm346-547c42 0 75-34 75-75s-33-75-75-75c-41 0-76 34-76 75s35 75 76 75zm-37 547l-81 31v22h252v-25c-27-5-45-14-58-27-17-17-23-45-23-175v-115l10-172-178 65v15c25 7 42 18 53 31 23 26 25 61 25 115zm305-382v382l-81 31v22h252v-25c-27-5-45-14-58-27-17-17-23-45-23-175v-208h114v-65H810v-145l190-54v-14l-217-41-72 254h-71v65zm491 368c-83 0-140-64-141-188l327 22c5-31 8-64 8-84 0-118-65-197-169-197-108 0-256 102-256 297 0 162 119 231 207 231 114 0 195-80 221-172l-17-7c-35 43-87 98-180 98zm-97-343c23-23 51-29 81-29 94 0 120 67 120 128l-244 20c5-55 19-95 43-119zm0 0"/></svg>