<svg width="2763" height="1300.002" xmlns="http://www.w3.org/2000/svg"><path d="M201 940.002v-607l81-28v-25H26v25c27 5 45 14 58 27 17 17 23 45 23 175v430l-81 33v20h528l-53-239h-16l-52 169zm412-173c0 124 75 237 209 237 144 0 268-129 268-291 0-124-75-237-209-237-144 0-268 129-268 291zm385-7c0 63-15 110-44 139-22 22-50 33-94 33-38 0-75-12-107-44-34-34-48-95-48-168 0-63 15-110 44-139 22-22 50-33 94-33 38 0 75 12 107 44 34 34 48 95 48 168zm196 7c0 124 75 237 209 237 144 0 268-129 268-291 0-124-75-237-209-237-144 0-268 129-268 291zm385-7c0 63-15 110-44 139-22 22-50 33-94 33-38 0-75-12-107-44-34-34-48-95-48-168 0-63 15-110 44-139 22-22 50-33 94-33 38 0 75 12 107 44 34 34 48 95 48 168zm248 177l-81 31v22h252v-25c-27-5-45-14-58-27-17-17-23-45-23-175v-26l89 22 102 185c26 48 52 60 86 60 32 0 64-14 103-51v-14l-105-28-119-212 203-195v-14h-152c-10 72-41 127-72 158s-76 47-135 58v-251l9-213-10-10-167 67v15c25 7 41 17 53 29 21 21 25 53 25 107zm793-61c0 23-6 38-19 51-15 15-35 24-70 24-27 0-59-5-87-17l-41-110h-16l-53 161c54 13 103 19 154 19 121 0 225-57 225-158 0-43-18-71-37-90-54-54-179-76-210-107-14-14-24-29-24-53 0-19 6-32 18-44 13-13 28-23 56-23 25 0 55 6 82 17l41 106h16l53-157c-52-13-100-19-149-19-112 0-208 52-208 152 0 41 14 66 31 83 52 52 177 72 212 107 17 17 26 33 26 58zm0 0"/></svg>