<svg width="2083" height="1300.002" xmlns="http://www.w3.org/2000/svg"><path d="M67 892.002l-60 58v40h224v-40c-65-28-90-61-84-152l16-227 219 325h22l218-327 24 343-70 38v40h292v-40c-47-18-55-36-60-112l-40-574h-36l-291 437-294-437h-36zm1141 48l2 66 210-46v-22c-47-21-60-34-60-152v-204c0-76-55-124-172-124-100 0-206 41-270 69l80 153h18l63-143c38 0 91-2 113 20 11 11 16 29 16 52v78l-50 10c-107 21-163 43-193 73-32 32-47 70-47 116 0 75 64 120 134 120 67 0 114-21 156-66zm0-55c-20 8-39 16-67 16-58 0-78-28-78-61 0-17 0-34 8-56l137-20zm795-42v-204c0-142-64-181-132-181-75 0-151 48-194 79v-79l-213 59v35c46 7 61 22 61 90v280l-70 28v40h292v-40c-57-33-70-51-70-117v-243c28-9 67-18 99-18 57 0 75 29 75 85v265l-70 28v40h292v-40c-57-33-70-51-70-107zm0 0"/></svg>