<svg width="2052" height="1300.002" xmlns="http://www.w3.org/2000/svg"><path d="M225 264.002l-225 729 11 13 215-56 1-25-102-65 96-308 154 344h22l225-329v426l11 13 227-44 2-25-85-76v-597h-36l-290 425-190-425zm995 570l-36 159 12 13 222-44v-25l-62-53 65-291 83-81v-20c-66-20-109-34-197-34-115 0-204 39-269 104-93 93-131 223-131 302 0 94 53 142 118 142 38 0 81-16 121-56 29-29 52-64 74-116zm-75-261c15-15 35-22 55-22 26 0 53 9 79 27-38 164-92 240-136 284-16 16-29 24-39 24-26 0-38-22-38-59 0-63 35-210 79-254zm587-113l-179 37v175l-74 319 13 13 164-32v-122c25-108 69-194 112-237 20-20 41-31 58-31 38 0 44 35 27 109l-72 302 12 13 222-44v-25l-59-51 53-227c28-120 1-202-99-201-46 0-90 25-125 60-29 29-52 60-72 93l32-138zm0 0"/></svg>