<svg width="1994" height="1300.002" xmlns="http://www.w3.org/2000/svg"><path d="M133 255.002l-58 675-60 38v22h218v-25c-33-11-55-24-68-37-17-17-26-49-16-165l23-266 217 422h15l220-427 39 445-81 31v22h233v-25c-12-5-26-15-35-24-18-18-27-46-35-136l-48-550h-16l-266 516-266-516zm1220 685v-14c-29-7-49-18-62-31-24-24-25-61-25-135v-166c0-75-65-118-135-118-86 0-178 43-242 78l45 138h16l55-148c86 0 126 3 153 30 14 14 18 33 18 59v75l-72 19c-79 21-150 46-180 76-24 24-33 52-33 82 0 68 56 119 133 119 58 0 108-26 152-53l2 54zm-177-35c-26 12-77 27-117 27-60 0-76-40-76-84 0-9 1-23 3-33l190-45zm305-213v245l-81 31v22h252v-25c-27-5-45-14-58-27-17-17-23-45-23-175v-173c36-19 78-35 137-35s96 25 96 92v290l-81 31v22h252v-25c-27-5-45-14-58-27-17-17-23-45-23-175v-123c0-112-52-164-139-164-74 0-134 33-184 64v-64l-168 65v15c25 5 42 10 55 23 20 20 23 59 23 113zm0 0"/></svg>