<svg width="2587" height="1300.002" xmlns="http://www.w3.org/2000/svg"><path d="M741 937.002l-81 31v22h252v-25c-27-5-45-14-58-27-17-17-23-45-23-175v-123c0-112-44-164-130-164-71 0-133 30-199 70-21-47-57-70-114-70-73 0-137 32-183 64v-64l-168 65v15c25 7 42 18 53 31 23 26 25 61 25 115v235l-81 31v22h252v-25c-27-5-45-14-58-27-17-17-23-45-23-175v-173c35-18 75-34 132-34 56 0 91 39 91 126v255l-81 31v22h252v-25c-27-5-45-14-58-27-17-17-23-45-23-175v-172c45-22 81-35 132-35 56 0 91 39 91 126zm713 3v-14c-29-7-49-18-62-31-24-24-25-61-25-135v-166c0-75-65-118-135-118-86 0-178 43-242 78l45 138h16l55-148c86 0 126 3 153 30 14 14 18 33 18 59v75l-72 19c-79 21-150 46-180 76-24 24-33 52-33 82 0 68 56 119 133 119 58 0 108-26 152-53l2 54zm-177-35c-26 12-77 27-117 27-60 0-76-40-76-84 0-9 1-23 3-33l190-45zm305-213v245l-81 31v22h252v-25c-27-5-45-14-58-27-17-17-23-45-23-175v-173c36-19 78-35 137-35s96 25 96 92v290l-81 31v22h252v-25c-27-5-45-14-58-27-17-17-23-45-23-175v-123c0-112-52-164-139-164-74 0-134 33-184 64v-64l-168 65v15c25 5 42 10 55 23 20 20 23 59 23 113zm511 351l-49 210c29 7 54 11 79 11 114 0 185-103 213-218l16-65 172-372 62-102-5-17h-119c-2 92-24 183-81 305l-35 75-116-257-32-123h-131v25c29 37 47 62 80 132l153 325-16 66c-17 70-53 133-141 133l-36-128zm0 0"/></svg>