<svg width="1937" height="1300.002" xmlns="http://www.w3.org/2000/svg"><path d="M216 476.002l-114 47v119l-80 349 12 13 105-33v-130c25-113 71-188 116-233 35-35 68-53 93-53 36 0 59 31 43 103l-76 333 12 13 105-33v-130c25-113 67-189 111-233 35-35 67-53 92-53 36 0 59 31 43 103l-76 333 12 13 178-55v-14l-76-40 54-239c27-119-26-180-90-180-51 0-94 24-132 62-21 21-42 44-65 76 7-87-36-138-90-138-51 0-95 31-133 69-27 27-49 57-67 85l33-144zm1045 415l70-302 75-56v-14c-54-23-133-43-207-43-83 0-154 22-220 88-70 70-127 196-127 308 0 83 43 132 108 132 51 0 101-32 138-69 33-33 63-75 90-125l-42 181 12 13 178-55v-14zm-207-320c25-25 57-35 87-35 37 0 75 13 109 32-32 139-97 245-156 304-37 37-73 53-97 53-30 0-48-26-48-81 0-76 43-211 105-273zm773 320l93-402-12-13-108 32v131c-25 113-71 188-116 233-36 36-72 53-98 53-31 0-53-19-53-72 0-94 42-176 141-369l-10-10-200 53v16l99 58c-70 77-124 190-124 281 0 81 51 122 102 122 53 0 97-28 133-64 28-28 54-62 72-90l-7 30c-65 278-131 299-239 299-27 0-55-6-85-16l-48-103h-12l-73 172c68 24 107 32 177 32 134-1 311-124 368-373zm0 0"/></svg>