<svg width="2926" height="1300.002" xmlns="http://www.w3.org/2000/svg"><path d="M741 937.002l-81 31v22h252v-25c-27-5-45-14-58-27-17-17-23-45-23-175v-123c0-112-44-164-130-164-71 0-133 30-199 70-21-47-57-70-114-70-73 0-137 32-183 64v-64l-168 65v15c25 7 42 18 53 31 23 26 25 61 25 115v235l-81 31v22h252v-25c-27-5-45-14-58-27-17-17-23-45-23-175v-173c35-18 75-34 132-34 56 0 91 39 91 126v255l-81 31v22h252v-25c-27-5-45-14-58-27-17-17-23-45-23-175v-172c45-22 81-35 132-35 56 0 91 39 91 126zm342-547c42 0 75-34 75-75s-33-75-75-75c-41 0-76 34-76 75s35 75 76 75zm-37 547l-81 31v22h252v-25c-27-5-45-14-58-27-17-17-23-45-23-175v-115l10-172-178 65v15c25 7 42 18 53 31 23 26 25 61 25 115zm305-245v245l-81 31v22h252v-25c-27-5-45-14-58-27-17-17-23-45-23-175v-173c36-19 78-35 137-35s96 25 96 92v290l-81 31v22h252v-25c-27-5-45-14-58-27-17-17-23-45-23-175v-123c0-112-52-164-139-164-74 0-134 33-184 64v-64l-168 65v15c25 5 42 10 55 23 20 20 23 59 23 113zm1077 247v-14c-65-9-75-32-75-146v-324l9-213-10-10-167 67v15c25 7 41 17 53 29 21 21 25 53 25 107v27c-11-1-23-1-36-1-120 0-311 84-311 317 0 126 78 211 190 211 69 0 120-27 159-55v56zm-165-370v331c-34 17-78 29-124 29-34 0-63-9-85-31-30-30-46-78-46-143 0-81 20-134 50-164 26-26 60-38 97-38 36 0 74 8 108 16zm520 307c0 23-6 38-19 51-15 15-35 24-70 24-27 0-59-5-87-17l-41-110h-16l-53 161c54 13 103 19 154 19 121 0 225-57 225-158 0-43-18-71-37-90-54-54-179-76-210-107-14-14-24-29-24-53 0-19 6-32 18-44 13-13 28-23 56-23 25 0 55 6 82 17l41 106h16l53-157c-52-13-100-19-149-19-112 0-208 52-208 152 0 41 14 66 31 83 52 52 177 72 212 107 17 17 26 33 26 58zm0 0"/></svg>