<svg width="3494" height="1300.002" xmlns="http://www.w3.org/2000/svg"><path d="M553 590.002c25-8 60-18 89-18 57 0 75 29 75 85v265l-65 28v40h287v-40c-57-33-70-51-70-117v-194c0-142-64-181-132-181s-142 37-203 78c-27-53-64-78-113-78-71 0-142 49-184 79v-79l-213 59v35c46 7 61 22 61 90v280l-70 28v40h287v-40c-52-33-65-51-65-117v-243c25-8 60-18 89-18 57 0 75 29 75 85v265l-65 28v40h282v-40c-52-33-65-51-65-117zm553-172c58 0 102-42 102-102 0-52-44-100-102-100-60 0-106 48-106 100 0 60 46 102 106 102zm80 425v-202l10-183-223 59v35c46 7 61 22 61 90v280l-70 28v40h292v-40c-57-33-70-51-70-107zm644 0v-204c0-142-64-181-132-181-75 0-151 48-194 79v-79l-213 59v35c46 7 61 22 61 90v280l-70 28v40h292v-40c-57-33-70-51-70-117v-243c28-9 67-18 99-18 57 0 75 29 75 85v265l-70 28v40h292v-40c-57-33-70-51-70-107zm307-36v-166l10-183-223 70v30c46 7 61 22 61 90v177c0 142 64 181 132 181 75 0 151-48 194-79v79l226-58v-30c-24-8-41-19-53-34-20-26-21-61-21-140v-103l10-183-241 70v30c60 7 79 22 79 90v226c-28 9-67 18-99 18-57 0-75-29-75-85zm610-514h-17l-172 203v17c20 9 35 21 45 31 21 22 20 63 20 138v200c0 83 47 123 113 123 71 0 139-36 200-66v-24l-168-46v-315h161v-80h-141zm511 594c-74 0-122-43-136-142l320 24c5-34 6-59 6-90 0-141-67-221-191-221-133 0-284 121-284 307 0 154 98 241 241 241 118 0 197-87 232-144l-15-21c-39 24-91 46-173 46zm-140-205c0-61 13-98 33-118 14-14 33-19 51-19 60 0 100 60 100 129l-184 24v-16zm0 0"/></svg>