<svg width="3361" height="1300.002" xmlns="http://www.w3.org/2000/svg"><path d="M741 937.002l-81 31v22h252v-25c-27-5-45-14-58-27-17-17-23-45-23-175v-123c0-112-44-164-130-164-71 0-133 30-199 70-21-47-57-70-114-70-73 0-137 32-183 64v-64l-168 65v15c25 7 42 18 53 31 23 26 25 61 25 115v235l-81 31v22h252v-25c-27-5-45-14-58-27-17-17-23-45-23-175v-173c35-18 75-34 132-34 56 0 91 39 91 126v255l-81 31v22h252v-25c-27-5-45-14-58-27-17-17-23-45-23-175v-172c45-22 81-35 132-35 56 0 91 39 91 126zm342-547c42 0 75-34 75-75s-33-75-75-75c-41 0-76 34-76 75s35 75 76 75zm-37 547l-81 31v22h252v-25c-27-5-45-14-58-27-17-17-23-45-23-175v-115l10-172-178 65v15c25 7 42 18 53 31 23 26 25 61 25 115zm305-245v245l-81 31v22h252v-25c-27-5-45-14-58-27-17-17-23-45-23-175v-173c36-19 78-35 137-35s96 25 96 92v290l-81 31v22h252v-25c-27-5-45-14-58-27-17-17-23-45-23-175v-123c0-112-52-164-139-164-74 0-134 33-184 64v-64l-168 65v15c25 5 42 10 55 23 20 20 23 59 23 113zm1018-44l10-172-191 65v15c29 7 49 18 62 31 26 26 29 48 29 122v184c-30 17-72 32-132 32-65 0-93-35-93-106v-171l10-172-175 65v15c25 6 40 19 52 31 24 24 23 61 23 135v139c0 92 49 143 128 143 72 0 141-31 187-64v65l177-65v-14c-29-7-49-18-62-31-24-24-25-61-25-135zm272-345h-16l-106 207v15c47 15 55 45 55 116v265c0 67 39 98 84 98 54 0 120-29 171-52v-17l-165-29v-351h161v-65h-161zm471 620c-83 0-140-64-141-188l327 22c5-31 8-64 8-84 0-118-65-197-169-197-108 0-256 102-256 297 0 162 119 231 207 231 114 0 195-80 221-172l-17-7c-35 43-87 98-180 98zm-97-343c23-23 51-29 81-29 94 0 120 67 120 128l-244 20c5-55 19-95 43-119zm0 0"/></svg>