<svg width="3628" height="1300.002" xmlns="http://www.w3.org/2000/svg"><path d="M553 590.002c25-8 60-18 89-18 57 0 75 29 75 85v265l-65 28v40h287v-40c-57-33-70-51-70-117v-194c0-142-64-181-132-181s-142 37-203 78c-27-53-64-78-113-78-71 0-142 49-184 79v-79l-213 59v35c46 7 61 22 61 90v280l-70 28v40h287v-40c-52-33-65-51-65-117v-243c25-8 60-18 89-18 57 0 75 29 75 85v265l-65 28v40h282v-40c-52-33-65-51-65-117zm662 416c156 0 294-90 294-301 0-158-93-247-236-247-141 0-289 90-289 301 0 159 93 247 231 247zm137-242c0 59-11 109-38 136-16 16-36 24-61 24-22 0-47-7-63-23-35-35-49-110-49-201 0-59 11-109 38-136 16-16 36-24 61-24 22 0 47 7 63 23 35 35 49 110 49 201zm577 153v89l226-58v-30c-24-8-41-19-53-34-20-26-21-61-21-140v-226l19-265-19-19-239 56-1 26c69 31 88 61 88 130v29c-11-1-23-1-36-1-126 0-314 73-314 294 0 154 87 238 182 238 71 0 128-43 168-89zm0-329v278c-24 13-53 28-85 28-63 0-112-46-112-175 0-114 40-168 98-168 49 0 83 21 99 37zm552 299c-74 0-122-43-136-142l320 24c5-34 6-59 6-90 0-141-67-221-191-221-133 0-284 121-284 307 0 154 98 241 241 241 118 0 197-87 232-144l-15-21c-39 24-91 46-173 46zm-140-205c0-61 13-98 33-118 14-14 33-19 51-19 60 0 100 60 100 129l-184 24v-16zm704-135l55 106h17l77-175c-70-14-110-20-182-20-135 0-244 70-244 170 0 53 14 78 39 103 36 36 190 80 219 109 13 13 21 21 21 41 0 10-4 21-13 30-10 10-35 21-66 21-32 0-61-4-87-19l-45-98h-18l-74 167c53 14 132 24 206 24 125 0 241-68 241-171 0-45-13-75-41-103-40-40-188-82-216-110-13-13-21-28-21-41 0-9 4-19 11-26 8-8 30-17 62-17 17 0 37 2 59 9zm382-254h-17l-172 203v17c20 9 35 21 45 31 21 22 20 63 20 138v200c0 83 47 123 113 123 71 0 139-36 200-66v-24l-168-46v-315h161v-80h-141zm0 0"/></svg>