<svg width="4921" height="1300.002" xmlns="http://www.w3.org/2000/svg"><path d="M280 473.002l-13-13-183 37v175l-75 319 12 13 167-32v-122c25-108 69-194 112-237 19-19 39-31 55-31 28 0 38 34 20 109l-41 174-30 126 12 13 167-33v-121c25-108 69-194 112-237 19-19 39-31 57-31 16 0 33 26 13 109l-72 302 12 13 222-44v-25l-59-51 53-227c28-120-9-201-87-201-45 0-89 22-127 60-19 19-38 41-64 76 2-83-38-136-104-136-45 0-87 25-122 60-29 29-52 60-72 93zm671 20v135l-44 164c-32 120-5 214 98 214 76 0 144-70 194-138l-29 125 12 13 215-44v-25l-59-51 68-289 31-126-13-13-164 32v122c-37 157-118 270-171 270-38 0-52-35-32-109l81-302-13-13zm668 388l66-285 88-349-13-13-236 41v25c47 23 66 56 52 119l-131 574 12 13 229-44v-25zm365-572l-200 215-5 50c34 0 61 25 50 73l-52 222c-19 80 7 137 82 137 60 0 122-27 192-62v-22l-119-50 70-308h136v-90h-128v-165zm355 114c58 0 105-46 105-105 0-57-47-105-105-105s-105 48-105 105c0 59 47 105 105 105zm46 50l-13-13-179 37v175l-77 322 12 13 223-44v-25l-59-51zm285-164l-200 215-5 50c34 0 61 25 50 73l-52 222c-19 80 7 137 82 137 60 0 122-27 192-62v-22l-119-50 70-308h136v-90h-128v-165zm199 184v135l-44 164c-32 120-5 214 98 214 76 0 144-70 194-138l-29 125 12 13 215-44v-25l-59-51 68-289 31-126-13-13-164 32v122c-37 157-118 270-171 270-38 0-52-35-32-109l81-302-13-13zm1016 469v-25l-62-53 146-637-13-13-230 41v25c47 23 67 55 52 119l-9 39c-110 0-199 39-264 104-93 93-131 223-131 302 0 94 53 142 118 142 38 0 81-16 121-56 29-29 52-64 74-116l-36 159 12 13zm-273-389c15-15 35-22 55-22 26 0 53 9 79 27-38 164-92 240-136 284-16 16-29 24-39 24-26 0-38-22-38-59 0-63 35-210 79-254zm499 433c99 0 186-78 238-163l-16-18c-62 40-116 61-159 61-55 0-98-32-98-92v-3c191-7 337-118 337-231 0-72-59-102-127-102-65 0-145 27-215 97-104 104-121 224-121 278 0 112 73 173 161 173zm51-433c21-21 42-26 57-26 31 0 50 24 50 62 0 47-23 90-82 90-22 0-45 0-94-7 14-45 38-88 69-119zm479 9c0-13 6-26 15-35s22-17 45-17c21 0 36 8 54 20l57 121h24l85-185c-48-16-119-28-194-28-105 0-236 48-236 172 0 33 18 61 43 86 34 34 97 73 129 105 19 19 32 39 32 61 0 13-4 24-14 34-12 12-27 18-45 18-21 0-46-7-60-15l-65-134h-24l-89 193c53 14 136 28 211 28 103 0 236-48 236-172 0-33-18-61-44-87-35-35-96-73-129-106-19-19-31-38-31-59zm0 0"/></svg>