<svg width="7982" height="1300.002" xmlns="http://www.w3.org/2000/svg"><path d="M257 460.002l-179 37v175l-74 319 13 13 164-32v-122c25-108 69-194 112-237 20-20 41-31 58-31 38 0 44 35 27 109l-72 302 12 13 222-44v-25l-59-51 53-227c28-120 1-202-99-201-46 0-90 25-125 60-29 29-52 60-72 93l32-138zm655 374l-36 159 12 13 222-44v-25l-62-53 65-291 83-81v-20c-66-20-109-34-197-34-115 0-204 39-269 104-93 93-131 223-131 302 0 94 53 142 118 142 38 0 81-16 121-56 29-29 52-64 74-116zm-75-261c15-15 35-22 55-22 26 0 53 9 79 27-38 164-92 240-136 284-16 16-29 24-39 24-26 0-38-22-38-59 0-63 35-210 79-254zm590-264l-200 215-5 50c34 0 61 25 50 73l-52 222c-19 80 7 137 82 137 60 0 122-27 192-62v-22l-119-50 70-308h136v-90h-128v-165zm199 184v135l-44 164c-32 120-5 214 98 214 76 0 144-70 194-138l-29 125 12 13 215-44v-25l-59-51 68-289 31-126-13-13-164 32v122c-37 157-118 270-171 270-38 0-52-35-32-109l81-302-13-13zm567 179l-74 319 13 13 164-32v-122c26-110 68-198 110-240l36 155h26l127-296c-15-7-33-11-55-11-76 0-143 65-184 138l31-123-13-13-181 37zm681 162l-36 159 12 13 222-44v-25l-62-53 65-291 83-81v-20c-66-20-109-34-197-34-115 0-204 39-269 104-93 93-131 223-131 302 0 94 53 142 118 142 38 0 81-16 121-56 29-29 52-64 74-116zm-75-261c15-15 35-22 55-22 26 0 53 9 79 27-38 164-92 240-136 284-16 16-29 24-39 24-26 0-38-22-38-59 0-63 35-210 79-254zm509 308l66-285 88-349-13-13-236 41v25c47 23 66 56 52 119l-131 574 12 13 229-44v-25zm284 0l66-285 88-349-13-13-236 41v25c47 23 66 56 52 119l-131 574 12 13 229-44v-25zm570 19l100-430-13-13-163 32v122c-25 108-68 194-111 237-20 20-41 31-58 31-18 0-36-15-36-51 0-103 54-210 128-361l-10-10-245 71v25l118 53c-83 81-149 171-149 282 0 61 35 118 110 118 46 0 90-28 125-63 29-29 52-60 72-93l-41 166c-27 110-61 161-126 161-33 0-64-14-80-25l-42-127h-22l-101 216c70 20 126 25 162 25 99 0 174-33 247-106 61-61 110-150 135-260zm494-191l20 1 125-241c-26-7-88-11-126-11-121 0-197 37-259 99-83 83-124 200-124 281 0 104 70 168 173 168 101 0 190-67 242-143l-16-18c-65 25-112 41-153 41-65 0-89-40-89-106 0-69 30-172 75-217 13-13 27-14 34-14 22 0 44 17 60 37zm173-37l-74 319 13 13 164-32v-122c26-110 68-198 110-240l36 155h26l127-296c-15-7-33-11-55-11-76 0-143 65-184 138l31-123-13-13-181 37zm499 334c99 0 186-78 238-163l-16-18c-62 40-116 61-159 61-55 0-98-32-98-92v-3c191-7 337-118 337-231 0-72-59-102-127-102-65 0-145 27-215 97-104 104-121 224-121 278 0 112 73 173 161 173zm51-433c21-21 42-26 57-26 31 0 50 24 50 62 0 47-23 90-82 90-22 0-45 0-94-7 14-45 38-88 69-119zm778 389v-25l-62-53 146-637-13-13-230 41v25c47 23 67 55 52 119l-9 39c-110 0-199 39-264 104-93 93-131 223-131 302 0 94 53 142 118 142 38 0 81-16 121-56 29-29 52-64 74-116l-36 159 12 13zm-273-389c15-15 35-22 55-22 26 0 53 9 79 27-38 164-92 240-136 284-16 16-29 24-39 24-26 0-38-22-38-59 0-63 35-210 79-254zm559-150c58 0 105-46 105-105 0-57-47-105-105-105s-105 48-105 105c0 59 47 105 105 105zm46 50l-13-13-179 37v175l-77 322 12 13 223-44v-25l-59-51zm285-164l-200 215-5 50c34 0 61 25 50 73l-52 222c-19 80 7 137 82 137 60 0 122-27 192-62v-22l-119-50 70-308h136v-90h-128v-165zm295 697c99 0 186-78 238-163l-16-18c-62 40-116 61-159 61-55 0-98-32-98-92v-3c191-7 337-118 337-231 0-72-59-102-127-102-65 0-145 27-215 97-104 104-121 224-121 278 0 112 73 173 161 173zm51-433c21-21 42-26 57-26 31 0 50 24 50 62 0 47-23 90-82 90-22 0-45 0-94-7 14-45 38-88 69-119zm778 389v-25l-62-53 146-637-13-13-230 41v25c47 23 67 55 52 119l-9 39c-110 0-199 39-264 104-93 93-131 223-131 302 0 94 53 142 118 142 38 0 81-16 121-56 29-29 52-64 74-116l-36 159 12 13zm-273-389c15-15 35-22 55-22 26 0 53 9 79 27-38 164-92 240-136 284-16 16-29 24-39 24-26 0-38-22-38-59 0-63 35-210 79-254zm0 0"/></svg>