<svg width="2545" height="1300.002" xmlns="http://www.w3.org/2000/svg"><path d="M52 767.002c0 124 75 237 209 237 144 0 268-129 268-291 0-124-75-237-209-237-144 0-268 129-268 291zm385-7c0 63-15 110-44 139-22 22-50 33-94 33-38 0-75-12-107-44-34-34-48-95-48-168 0-63 15-110 44-139 22-22 50-33 94-33 38 0 75 12 107 44 34 34 48 95 48 168zm309-457h-16l-106 207v15c47 15 55 45 55 116v265c0 67 39 98 84 98 54 0 120-29 171-52v-17l-165-29v-351h161v-65H769zm635 634l-81 31v22h252v-25c-27-5-45-14-58-27-17-17-23-45-23-175v-123c0-112-46-164-135-164-75 0-138 33-188 64v-85l9-213-10-10-167 67v15c25 7 41 17 53 29 21 21 25 53 25 107v487l-81 31v22h252v-25c-27-5-45-14-58-27-17-17-23-45-23-175v-173c36-19 78-34 137-34s96 39 96 126zm473-14c-83 0-140-64-141-188l327 22c5-31 8-64 8-84 0-118-65-197-169-197-108 0-256 102-256 297 0 162 119 231 207 231 114 0 195-80 221-172l-17-7c-35 43-87 98-180 98zm-97-343c23-23 51-29 81-29 94 0 120 67 120 128l-244 20c5-55 19-95 43-119zm461 357l-81 31v22h252v-25c-27-5-45-14-58-27-17-17-23-45-23-175v-24c0-70 13-111 39-137 18-18 42-29 72-29l47 120h16l52-199c-23-13-41-18-68-18-43 0-83 22-114 53-18 18-34 47-44 87v-140l-168 65v15c25 5 42 10 55 23 20 20 23 59 23 113zm0 0"/></svg>