<svg width="1955" height="1300.002" xmlns="http://www.w3.org/2000/svg"><path d="M286 1225.002c-27-5-45-14-58-27-17-17-23-45-23-175v-20c9 1 17 1 26 1 78 0 169-27 235-93 50-50 86-123 86-224 0-126-78-211-190-211-69 0-120 27-159 55v-65l-179 73v15c29 7 49 18 62 31 26 26 29 61 29 135v477l-81 31v22h252zm-81-312v-333c34-17 78-29 124-29 34 0 63 9 85 31 30 30 46 78 46 143 0 81-20 134-50 164-26 26-60 38-97 38-36 0-74-6-108-14zm922 27v-14c-29-7-49-18-62-31-24-24-25-61-25-135v-166c0-75-65-118-135-118-86 0-178 43-242 78l45 138h16l55-148c86 0 126 3 153 30 14 14 18 33 18 59v75l-72 19c-79 21-150 46-180 76-24 24-33 52-33 82 0 68 56 119 133 119 58 0 108-26 152-53l2 54zm-177-35c-26 12-77 27-117 27-60 0-76-40-76-84 0-9 1-23 3-33l190-45zm305 32l-81 31v22h252v-25c-27-5-45-14-58-27-17-17-23-45-23-175v-24c0-70 13-111 39-137 18-18 42-29 72-29l47 120h16l52-199c-23-13-41-18-68-18-43 0-83 22-114 53-18 18-34 47-44 87v-140l-168 65v15c25 5 42 10 55 23 20 20 23 59 23 113zm492-634h-16l-106 207v15c47 15 55 45 55 116v265c0 67 39 98 84 98 54 0 120-29 171-52v-17l-165-29v-351h161v-65h-161zm0 0"/></svg>