<svg width="2710" height="1300.002" xmlns="http://www.w3.org/2000/svg"><path d="M151 636.002l-89 375-62 243 10 10 173-58v-16l-62-53 32-138c23 3 47 5 69 5 83 0 154-22 220-88 70-70 127-196 127-308 0-83-43-132-108-132-51 0-101 32-138 69-33 33-63 75-90 125l42-184-10-10-114 47zm214 273c-25 25-55 35-85 35-37 0-80-13-109-32 32-139 97-245 156-304 37-37 71-53 95-53 30 0 48 26 48 81 0 76-43 211-105 273zm262-93c0 115 57 188 164 188 73 0 137-34 181-75 76-73 114-179 114-265 0-115-57-188-164-188-73 0-137 34-181 75-76 73-114 179-114 265zm360-156c0 71-23 181-93 251-33 33-63 39-82 39-67 0-86-58-86-130 0-71 23-181 93-251 34-34 63-39 82-39 67 0 86 58 86 130zm833-114v-60l-10-10-96 33v327c-27 45-63 89-117 89-51 0-84-83-58-194l56-243-12-13-108 32v117l-26 112c-38 164-104 189-137 189-45 0-57-45-57-89 0-76 34-159 133-352l-10-10-200 53v16l99 58c-64 67-122 171-122 263 0 93 59 140 119 140s126-47 168-120c14 62 54 120 129 120 102 0 249-129 249-458zm402 338l-11-14c-51 32-101 55-150 55-68 0-104-34-104-114 0-6 0-12 1-18 124-3 220-33 275-88 35-35 53-83 53-126 0-65-42-103-119-103-73 0-136 32-184 80-82 82-118 197-118 281 0 105 71 167 151 167 94 0 176-72 206-120zm-173-313c25-25 52-37 77-37 50 0 77 47 77 88 0 57-54 100-135 100-22 0-53-3-96-6 16-56 43-111 77-145zm458-85l-10-10-114 47v119l-80 349 12 13 105-32v-131c23-105 84-189 156-259l26 151h14l94-247-10-10c-53 0-100 11-153 64-32 32-57 70-77 103zm0 0"/></svg>