<svg width="1628" height="1300.002" xmlns="http://www.w3.org/2000/svg"><path d="M226 486.002l-10-10-114 47v119l-80 349 12 13 105-32v-131c23-105 84-189 156-259l26 151h14l94-247-10-10c-53 0-100 11-153 64-32 32-57 70-77 103zm547 398l-11-14c-51 32-101 55-150 55-68 0-104-34-104-114 0-6 0-12 1-18 124-3 220-33 275-88 35-35 53-83 53-126 0-65-42-103-119-103-73 0-136 32-184 80-82 82-118 197-118 281 0 105 71 167 151 167 94 0 176-72 206-120zm-173-313c25-25 52-37 77-37 50 0 77 47 77 88 0 57-54 100-135 100-22 0-53-3-96-6 16-56 43-111 77-145zm582 295c0-43-26-81-59-114-22-22-62-56-84-78-24-24-42-45-42-71 0-17 7-37 21-51 11-11 31-24 61-24 20 0 42 4 73 33l40 112h16l58-166c-46-17-99-31-160-31-102 0-199 60-199 149 0 39 21 72 50 101 25 25 80 68 99 87 21 21 36 40 36 64 0 17-8 39-22 53-11 11-30 22-60 22-20 0-51-6-83-33l-39-112h-16l-57 171c46 14 107 26 168 26 102 0 199-52 199-138zm291-540l-140 199v20c34 0 61 25 50 73l-63 275c-13 56 6 111 69 111 54 0 104-22 164-49v-14l-147-41 79-345h143v-65h-139v-164zm0 0"/></svg>