<svg width="5500" height="1300.002" xmlns="http://www.w3.org/2000/svg"><path d="M282 965.002c-27-5-45-14-58-27-17-17-23-45-23-175v-73l147 14 82 157 49 129h146v-25c-34-26-75-61-119-146l-47-91c-14-27-29-45-50-56 105-30 170-105 170-209 0-109-63-183-206-183H26v25c27 5 45 14 58 27 17 17 23 45 23 175v430l-81 31v22h256zm28-625c116 0 171 69 171 162 0 41-11 72-33 94-28 28-83 50-247 50v-306zm621 583c-83 0-140-64-141-188l327 22c5-31 8-64 8-84 0-118-65-197-169-197-108 0-256 102-256 297 0 162 119 231 207 231 114 0 195-80 221-172l-17-7c-35 43-87 98-180 98zm-97-343c23-23 51-29 81-29 94 0 120 67 120 128l-244 20c5-55 19-95 43-119zm790 29l62-102-5-17h-119c-2 92-24 183-81 305l-35 75-116-257-32-123h-131v25c29 37 47 62 80 132l168 357h26zm81 158c0 124 75 237 209 237 144 0 268-129 268-291 0-124-75-237-209-237-144 0-268 129-268 291zm385-7c0 63-15 110-44 139-22 22-50 33-94 33-38 0-75-12-107-44-34-34-48-95-48-168 0-63 15-110 44-139 22-22 50-33 94-33 38 0 75 12 107 44 34 34 48 95 48 168zm248 177l-81 31v22h252v-25c-27-5-45-14-58-27-17-17-23-45-23-175v-308l9-213-10-10-167 67v15c25 7 41 17 53 29 21 21 25 53 25 107zm699-289l10-172-191 65v15c29 7 49 18 62 31 26 26 29 48 29 122v184c-30 17-72 32-132 32-65 0-93-35-93-106v-171l10-172-175 65v15c25 6 40 19 52 31 24 24 23 61 23 135v139c0 92 49 143 128 143 72 0 141-31 187-64v65l177-65v-14c-29-7-49-18-62-31-24-24-25-61-25-135zm272-345h-16l-106 207v15c47 15 55 45 55 116v265c0 67 39 98 84 98 54 0 120-29 171-52v-17l-165-29v-351h161v-65h-161zm360 87c42 0 75-34 75-75s-33-75-75-75c-41 0-76 34-76 75s35 75 76 75zm-37 547l-81 31v22h252v-25c-27-5-45-14-58-27-17-17-23-45-23-175v-115l10-172-178 65v15c25 7 42 18 53 31 23 26 25 61 25 115zm242-170c0 124 75 237 209 237 144 0 268-129 268-291 0-124-75-237-209-237-144 0-268 129-268 291zm385-7c0 63-15 110-44 139-22 22-50 33-94 33-38 0-75-12-107-44-34-34-48-95-48-168 0-63 15-110 44-139 22-22 50-33 94-33 38 0 75 12 107 44 34 34 48 95 48 168zm259-68v245l-81 31v22h252v-25c-27-5-45-14-58-27-17-17-23-45-23-175v-173c36-19 78-35 137-35s96 25 96 92v290l-81 31v22h252v-25c-27-5-45-14-58-27-17-17-23-45-23-175v-123c0-112-52-164-139-164-74 0-134 33-184 64v-64l-168 65v15c25 5 42 10 55 23 20 20 23 59 23 113zm839 184c0 23-6 38-19 51-15 15-35 24-70 24-27 0-59-5-87-17l-41-110h-16l-53 161c54 13 103 19 154 19 121 0 225-57 225-158 0-43-18-71-37-90-54-54-179-76-210-107-14-14-24-29-24-53 0-19 6-32 18-44 13-13 28-23 56-23 25 0 55 6 82 17l41 106h16l53-157c-52-13-100-19-149-19-112 0-208 52-208 152 0 41 14 66 31 83 52 52 177 72 212 107 17 17 26 33 26 58zm0 0"/></svg>