<svg width="1954" height="1300.002" xmlns="http://www.w3.org/2000/svg"><path d="M326 876.002c0 23-6 38-19 51-15 15-35 24-70 24-27 0-59-5-87-17l-41-110H93l-53 161c54 13 103 19 154 19 121 0 225-57 225-158 0-43-18-71-37-90-54-54-179-76-210-107-14-14-24-29-24-53 0-19 6-32 18-44 13-13 28-23 56-23 25 0 55 6 82 17l41 106h16l53-157c-52-13-100-19-149-19-112 0-208 52-208 152 0 41 14 66 31 83 52 52 177 72 212 107 17 17 26 33 26 58zm666 64v-14c-29-7-49-18-62-31-24-24-25-61-25-135v-166c0-75-65-118-135-118-86 0-178 43-242 78l45 138h16l55-148c86 0 126 3 153 30 14 14 18 33 18 59v75l-72 19c-79 21-150 46-180 76-24 24-33 52-33 82 0 68 56 119 133 119 58 0 108-26 152-53l2 54zm-177-35c-26 12-77 27-117 27-60 0-76-40-76-84 0-9 1-23 3-33l190-45zm188 138l-49 210c29 7 54 11 79 11 114 0 185-103 213-218l16-65 172-372 62-102-5-17h-119c-2 92-24 183-81 305l-35 75-116-257-32-123H977v25c29 37 47 62 80 132l153 325-16 66c-17 70-53 133-141 133l-36-128zm808-167c0 23-6 38-19 51-15 15-35 24-70 24-27 0-59-5-87-17l-41-110h-16l-53 161c54 13 103 19 154 19 121 0 225-57 225-158 0-43-18-71-37-90-54-54-179-76-210-107-14-14-24-29-24-53 0-19 6-32 18-44 13-13 28-23 56-23 25 0 55 6 82 17l41 106h16l53-157c-52-13-100-19-149-19-112 0-208 52-208 152 0 41 14 66 31 83 52 52 177 72 212 107 17 17 26 33 26 58zm0 0"/></svg>