<svg width="4094" height="1300.002" xmlns="http://www.w3.org/2000/svg"><path d="M367 866.002c0-43-26-81-59-114-22-22-62-56-84-78-24-24-42-45-42-71 0-17 7-37 21-51 11-11 31-24 61-24 20 0 42 4 73 33l40 112h16l58-166c-46-17-99-31-160-31-102 0-199 60-199 149 0 39 21 72 50 101 25 25 80 68 99 87 21 21 36 40 36 64 0 17-8 39-22 53-11 11-30 22-60 22-20 0-51-6-83-33l-39-112H57l-57 171c46 14 107 26 168 26 102 0 199-52 199-138zm237-523l-149 648 12 13 176-55v-14l-76-40 94-406 63-243-10-10-172 38v16zm512 548l70-302 75-56v-14c-54-23-133-43-207-43-83 0-154 22-220 88-70 70-127 196-127 308 0 83 43 132 108 132 51 0 101-32 138-69 33-33 63-75 90-125l-42 181 12 13 178-55v-14zm-207-320c25-25 57-35 87-35 37 0 75 13 109 32-32 139-97 245-156 304-37 37-73 53-97 53-30 0-48-26-48-81 0-76 43-211 105-273zm469 272l97-355-12-13-115 34v129l-52 185c-33 116 23 180 95 180 48 0 97-28 133-64 28-28 54-62 72-90l-33 142 12 13 174-55v-14l-76-40 94-407-12-13-108 32v131c-25 113-68 188-113 233-36 36-72 53-102 53-24 0-73-10-54-81zm756 37c-60 278-124 299-191 299-36 0-64-6-94-16l-48-103h-12l-73 172c68 24 107 32 177 32 125-1 274-125 329-373l70-302 75-56v-14c-54-23-133-43-207-43-83 0-154 22-220 88-70 70-127 196-127 308 0 83 43 132 108 132 51 0 101-32 138-69 33-33 63-75 90-125zm-119-309c25-25 57-35 87-35 37 0 75 13 109 32-32 139-97 245-156 304-37 37-73 53-97 53-30 0-48-26-48-81 0-76 43-211 105-273zm340 420l12 13 106-32v-131c25-113 71-188 116-233 36-36 72-53 98-53 40 0 64 31 48 103l-76 333 12 13 178-55v-14l-76-40 54-239c27-119-28-180-95-180-53 0-99 30-138 69-27 27-49 57-67 85l36-155 61-229-10-10-174 38v16l61 53zm752-665l-140 199v20c34 0 61 25 50 73l-63 275c-13 56 6 111 69 111 54 0 104-22 164-49v-14l-147-41 79-345h143v-65h-139v-164zm499 558l-11-14c-51 32-101 55-150 55-68 0-104-34-104-114 0-6 0-12 1-18 124-3 220-33 275-88 35-35 53-83 53-126 0-65-42-103-119-103-73 0-136 32-184 80-82 82-118 197-118 281 0 105 71 167 151 167 94 0 176-72 206-120zm-173-313c25-25 52-37 77-37 50 0 77 47 77 88 0 57-54 100-135 100-22 0-53-3-96-6 16-56 43-111 77-145zm458-85l-10-10-114 47v119l-80 349 12 13 105-32v-131c23-105 84-189 156-259l26 151h14l94-247-10-10c-53 0-100 11-153 64-32 32-57 70-77 103zm0 0"/></svg>