<svg width="1743" height="1300.002" xmlns="http://www.w3.org/2000/svg"><path d="M326 876.002c0 23-6 38-19 51-15 15-35 24-70 24-27 0-59-5-87-17l-41-110H93l-53 161c54 13 103 19 154 19 121 0 225-57 225-158 0-43-18-71-37-90-54-54-179-76-210-107-14-14-24-29-24-53 0-19 6-32 18-44 13-13 28-23 56-23 25 0 55 6 82 17l41 106h16l53-157c-52-13-100-19-149-19-112 0-208 52-208 152 0 41 14 66 31 83 52 52 177 72 212 107 17 17 26 33 26 58zm308-573h-16l-106 207v15c47 15 55 45 55 116v265c0 67 39 98 84 98 54 0 120-29 171-52v-17l-165-29v-351h161v-65H657zm360 87c42 0 75-34 75-75s-33-75-75-75c-41 0-76 34-76 75s35 75 76 75zm-37 547l-81 31v22h252v-25c-27-5-45-14-58-27-17-17-23-45-23-175v-115l10-172-178 65v15c25 7 42 18 53 31 23 26 25 61 25 115zm294 0l-81 31v22h252v-25c-27-5-45-14-58-27-17-17-23-45-23-175v-308l9-213-10-10-167 67v15c25 7 41 17 53 29 21 21 25 53 25 107zm298 0l-81 31v22h252v-25c-27-5-45-14-58-27-17-17-23-45-23-175v-308l9-213-10-10-167 67v15c25 7 41 17 53 29 21 21 25 53 25 107zm0 0"/></svg>