<svg width="2282" height="1300.002" xmlns="http://www.w3.org/2000/svg"><path d="M367 866.002c0-43-26-81-59-114-22-22-62-56-84-78-24-24-42-45-42-71 0-17 7-37 21-51 11-11 31-24 61-24 20 0 42 4 73 33l40 112h16l58-166c-46-17-99-31-160-31-102 0-199 60-199 149 0 39 21 72 50 101 25 25 80 68 99 87 21 21 36 40 36 64 0 17-8 39-22 53-11 11-30 22-60 22-20 0-51-6-83-33l-39-112H57l-57 171c46 14 107 26 168 26 102 0 199-52 199-138zm291-540l-140 199v20c34 0 61 25 50 73l-63 275c-13 56 6 111 69 111 54 0 104-22 164-49v-14l-147-41 79-345h143v-65H674v-164zm269 517l97-355-12-13-115 34v129l-52 185c-33 116 23 180 95 180 48 0 97-28 133-64 28-28 54-62 72-90l-33 142 12 13 174-55v-14l-76-40 94-407-12-13-108 32v131c-25 113-68 188-113 233-36 36-72 53-102 53-24 0-73-10-54-81zm582 48l75-331h137v-70h-117v-135l184-64v-16l-198-39-79 254h-87v70h72l-100 431 12 13 176-55v-14zm349 0l75-331h137v-70h-117v-135l184-64v-16l-198-39-79 254h-87v70h72l-100 431 12 13 176-55v-14zm245 113c40 0 70-32 70-70s-30-70-70-70c-39 0-70 32-70 70s31 70 70 70zm0 0"/></svg>