<svg width="5189" height="1300.002" xmlns="http://www.w3.org/2000/svg"><path d="M328 547.002l55 106h17l77-175c-70-14-110-20-182-20-135 0-244 70-244 170 0 53 14 78 39 103 36 36 190 80 219 109 13 13 21 21 21 41 0 10-4 21-13 30-10 10-35 21-66 21-32 0-61-4-87-19l-45-98h-18l-74 167c53 14 132 24 206 24 125 0 241-68 241-171 0-45-13-75-41-103-40-40-188-82-216-110-13-13-21-28-21-41 0-9 4-19 11-26 8-8 30-17 62-17 17 0 37 2 59 9zm410 260v-166l10-183-223 70v30c46 7 61 22 61 90v177c0 142 64 181 132 181 75 0 151-48 194-79v79l226-58v-30c-24-8-41-19-53-34-20-26-21-61-21-140v-103l10-183-241 70v30c60 7 79 22 79 90v226c-28 9-67 18-99 18-57 0-75-29-75-85zm665 18c111 0 241-67 251-228l82-47v-23l-140-45c-51-16-96-24-140-24-136 0-266 84-266 203 0 72 45 120 107 145l-96 194 257 14c55 3 96 35 96 76 0 61-50 89-124 89-89 0-135-57-135-120v-16l-24-4c-59 37-93 75-93 120 0 56 45 107 187 107 168 0 333-111 333-233-1-68-43-127-173-136l-165-12-38-71c26 7 53 11 81 11zm28-72c-49 0-91-50-91-120 0-57 32-103 83-103 64 0 89 48 89 113 0 66-35 110-81 110zm568 72c111 0 241-67 251-228l82-47v-23l-140-45c-51-16-96-24-140-24-136 0-266 84-266 203 0 72 45 120 107 145l-96 194 257 14c55 3 96 35 96 76 0 61-50 89-124 89-89 0-135-57-135-120v-16l-24-4c-59 37-93 75-93 120 0 56 45 107 187 107 168 0 333-111 333-233-1-68-43-127-173-136l-165-12-38-71c26 7 53 11 81 11zm28-72c-49 0-91-50-91-120 0-57 32-103 83-103 64 0 89 48 89 113 0 66-35 110-81 110zm634 134c-74 0-122-43-136-142l320 24c5-34 6-59 6-90 0-141-67-221-191-221-133 0-284 121-284 307 0 154 98 241 241 241 118 0 197-87 232-144l-15-21c-39 24-91 46-173 46zm-140-205c0-61 13-98 33-118 14-14 33-19 51-19 60 0 100 60 100 129l-184 24v-16zm704-135l55 106h17l77-175c-70-14-110-20-182-20-135 0-244 70-244 170 0 53 14 78 39 103 36 36 190 80 219 109 13 13 21 21 21 41 0 10-4 21-13 30-10 10-35 21-66 21-32 0-61-4-87-19l-45-98h-18l-74 167c53 14 132 24 206 24 125 0 241-68 241-171 0-45-13-75-41-103-40-40-188-82-216-110-13-13-21-28-21-41 0-9 4-19 11-26 8-8 30-17 62-17 17 0 37 2 59 9zm382-254h-17l-172 203v17c20 9 35 21 45 31 21 22 20 63 20 138v200c0 83 47 123 113 123 71 0 139-36 200-66v-24l-168-46v-315h161v-80h-141zm358 125c58 0 102-42 102-102 0-52-44-100-102-100-60 0-106 48-106 100 0 60 46 102 106 102zm80 425v-202l10-183-223 59v35c46 7 61 22 61 90v280l-70 28v40h292v-40c-57-33-70-51-70-107zm533-183l97-160v-26h-157c0 141-24 222-62 309l-11 25-75-176-46-158h-200v26c34 49 68 107 93 164l145 326h70zm375 227c-74 0-122-43-136-142l320 24c5-34 6-59 6-90 0-141-67-221-191-221-133 0-284 121-284 307 0 154 98 241 241 241 118 0 197-87 232-144l-15-21c-39 24-91 46-173 46zm-140-205c0-61 13-98 33-118 14-14 33-19 51-19 60 0 100 60 100 129l-184 24v-16zm0 0"/></svg>