<svg width="5140" height="1300.002" xmlns="http://www.w3.org/2000/svg"><path d="M326 876.002c0 23-6 38-19 51-15 15-35 24-70 24-27 0-59-5-87-17l-41-110H93l-53 161c54 13 103 19 154 19 121 0 225-57 225-158 0-43-18-71-37-90-54-54-179-76-210-107-14-14-24-29-24-53 0-19 6-32 18-44 13-13 28-23 56-23 25 0 55 6 82 17l41 106h16l53-157c-52-13-100-19-149-19-112 0-208 52-208 152 0 41 14 66 31 83 52 52 177 72 212 107 17 17 26 33 26 58zm648-228l10-172-191 65v15c29 7 49 18 62 31 26 26 29 48 29 122v184c-30 17-72 32-132 32-65 0-93-35-93-106v-171l10-172-175 65v15c25 6 40 19 52 31 24 24 23 61 23 135v139c0 92 49 143 128 143 72 0 141-31 187-64v65l177-65v-14c-29-7-49-18-62-31-24-24-25-61-25-135zm393 577c-27-5-45-14-58-27-17-17-23-45-23-175v-20c9 1 17 1 26 1 78 0 169-27 235-93 50-50 86-123 86-224 0-126-78-211-190-211-69 0-120 27-159 55v-65l-179 73v15c29 7 49 18 62 31 26 26 29 61 29 135v477l-81 31v22h252zm-81-312v-333c34-17 78-29 124-29 34 0 63 9 85 31 30 30 46 78 46 143 0 81-20 134-50 164-26 26-60 38-97 38-36 0-74-6-108-14zm514 24l-81 31v22h252v-25c-27-5-45-14-58-27-17-17-23-45-23-175v-24c0-70 13-111 39-137 18-18 42-29 72-29l47 120h16l52-199c-23-13-41-18-68-18-43 0-83 22-114 53-18 18-34 47-44 87v-140l-168 65v15c25 5 42 10 55 23 20 20 23 59 23 113zm590-14c-83 0-140-64-141-188l327 22c5-31 8-64 8-84 0-118-65-197-169-197-108 0-256 102-256 297 0 162 119 231 207 231 114 0 195-80 221-172l-17-7c-35 43-87 98-180 98zm-97-343c23-23 51-29 81-29 94 0 120 67 120 128l-244 20c5-55 19-95 43-119zm1087 357l-81 31v22h252v-25c-27-5-45-14-58-27-17-17-23-45-23-175v-123c0-112-44-164-130-164-71 0-133 30-199 70-21-47-57-70-114-70-73 0-137 32-183 64v-64l-168 65v15c25 7 42 18 53 31 23 26 25 61 25 115v235l-81 31v22h252v-25c-27-5-45-14-58-27-17-17-23-45-23-175v-173c35-18 75-34 132-34 56 0 91 39 91 126v255l-81 31v22h252v-25c-27-5-45-14-58-27-17-17-23-45-23-175v-172c45-22 81-35 132-35 56 0 91 39 91 126zm713 3v-14c-29-7-49-18-62-31-24-24-25-61-25-135v-166c0-75-65-118-135-118-86 0-178 43-242 78l45 138h16l55-148c86 0 126 3 153 30 14 14 18 33 18 59v75l-72 19c-79 21-150 46-180 76-24 24-33 52-33 82 0 68 56 119 133 119 58 0 108-26 152-53l2 54zm-177-35c-26 12-77 27-117 27-60 0-76-40-76-84 0-9 1-23 3-33l190-45zm456 99c107 0 188-80 214-192l-17-7c-36 63-96 118-182 118-80 0-135-59-135-187 0-65 12-119 45-152 23-23 54-37 94-37 24 0 49 4 73 11l50 126h16l66-182c-61-22-106-26-153-26-149 0-285 128-285 294 0 152 90 234 214 234zm274 39l-49 210c29 7 54 11 79 11 114 0 185-103 213-218l16-65 172-372 62-102-5-17h-119c-2 92-24 183-81 305l-35 75-116-257-32-123h-131v25c29 37 47 62 80 132l153 325-16 66c-17 70-53 133-141 133l-36-128zm0 0"/></svg>