<svg width="2560" height="1300.002" xmlns="http://www.w3.org/2000/svg"><path d="M260 309.002l-200 215-5 50c34 0 61 25 50 73l-52 222c-19 80 7 137 82 137 60 0 122-27 192-62v-22l-119-50 70-308h136v-90H286v-165zm447 525l-36 159 12 13 222-44v-25l-62-53 65-291 83-81v-20c-66-20-109-34-197-34-115 0-204 39-269 104-93 93-131 223-131 302 0 94 53 142 118 142 38 0 81-16 121-56 29-29 52-64 74-116zm-75-261c15-15 35-22 55-22 26 0 53 9 79 27-38 164-92 240-136 284-16 16-29 24-39 24-26 0-38-22-38-59 0-63 35-210 79-254zm335 418l13 13 161-32v-122c20-85 72-183 128-239 28-28 53-41 71-41s32 15 32 39c0 36-28 95-143 165 0 113 20 232 108 232 58 0 114-54 143-168l-23-7c-16 33-33 49-48 49-22 0-41-53-41-139 79-61 140-122 140-192 0-48-28-91-94-91-52 0-97 26-140 69-22 22-54 56-74 86l93-366-13-13-229 41v25c47 23 63 56 48 119zm714 15c99 0 186-78 238-163l-16-18c-62 40-116 61-159 61-55 0-98-32-98-92v-3c191-7 337-118 337-231 0-72-59-102-127-102-65 0-145 27-215 97-104 104-121 224-121 278 0 112 73 173 161 173zm51-433c21-21 42-26 57-26 31 0 50 24 50 62 0 47-23 90-82 90-22 0-45 0-94-7 14-45 38-88 69-119zm508-113l-179 37v175l-74 319 13 13 164-32v-122c25-108 69-194 112-237 20-20 41-31 58-31 38 0 44 35 27 109l-72 302 12 13 222-44v-25l-59-51 53-227c28-120 1-202-99-201-46 0-90 25-125 60-29 29-52 60-72 93l32-138zm0 0"/></svg>