<svg width="5308" height="1300.002" xmlns="http://www.w3.org/2000/svg"><path d="M199 293.002h-17l-172 203v17c20 9 35 21 45 31 21 22 20 63 20 138v200c0 83 47 123 113 123 71 0 139-36 200-66v-24l-168-46v-315h161v-80H240zm511 594c-74 0-122-43-136-142l320 24c5-34 6-59 6-90 0-141-67-221-191-221-133 0-284 121-284 307 0 154 98 241 241 241 118 0 197-87 232-144l-15-21c-39 24-91 46-173 46zm-140-205c0-61 13-98 33-118 14-14 33-19 51-19 60 0 100 60 100 129l-184 24v-16zm939 161v-204c0-142-64-181-132-181-75 0-151 48-194 79v-79l-213 59v35c46 7 61 22 61 90v280l-70 28v40h292v-40c-57-33-70-51-70-117v-243c28-9 67-18 99-18 57 0 75 29 75 85v265l-70 28v40h292v-40c-57-33-70-51-70-107zm465 74v89l226-58v-30c-24-8-41-19-53-34-20-26-21-61-21-140v-226l19-265-19-19-239 56-1 26c69 31 88 61 88 130v29c-11-1-23-1-36-1-126 0-314 73-314 294 0 154 87 238 182 238 71 0 128-43 168-89zm0-329v278c-24 13-53 28-85 28-63 0-112-46-112-175 0-114 40-168 98-168 49 0 83 21 99 37zm552 299c-74 0-122-43-136-142l320 24c5-34 6-59 6-90 0-141-67-221-191-221-133 0-284 121-284 307 0 154 98 241 241 241 118 0 197-87 232-144l-15-21c-39 24-91 46-173 46zm-140-205c0-61 13-98 33-118 14-14 33-19 51-19 60 0 100 60 100 129l-184 24v-16zm939 161v-204c0-142-64-181-132-181-75 0-151 48-194 79v-79l-213 59v35c46 7 61 22 61 90v280l-70 28v40h292v-40c-57-33-70-51-70-117v-243c28-9 67-18 99-18 57 0 75 29 75 85v265l-70 28v40h292v-40c-57-33-70-51-70-107zm345 163c113 0 206-81 234-144l-15-21c-41 25-82 46-154 46-88 0-146-65-146-190 0-110 44-150 99-150 25 0 45 7 58 15l55 145h18l88-229c-52-13-101-20-150-20-155 0-317 131-317 309 0 148 89 239 230 239zm410-588c58 0 102-42 102-102 0-52-44-100-102-100-60 0-106 48-106 100 0 60 46 102 106 102zm80 425v-202l10-183-223 59v35c46 7 61 22 61 90v280l-70 28v40h292v-40c-57-33-70-51-70-107zm401 44c-74 0-122-43-136-142l320 24c5-34 6-59 6-90 0-141-67-221-191-221-133 0-284 121-284 307 0 154 98 241 241 241 118 0 197-87 232-144l-15-21c-39 24-91 46-173 46zm-140-205c0-61 13-98 33-118 14-14 33-19 51-19 60 0 100 60 100 129l-184 24v-16zm704-135l55 106h17l77-175c-70-14-110-20-182-20-135 0-244 70-244 170 0 53 14 78 39 103 36 36 190 80 219 109 13 13 21 21 21 41 0 10-4 21-13 30-10 10-35 21-66 21-32 0-61-4-87-19l-45-98h-18l-74 167c53 14 132 24 206 24 125 0 241-68 241-171 0-45-13-75-41-103-40-40-188-82-216-110-13-13-21-28-21-41 0-9 4-19 11-26 8-8 30-17 62-17 17 0 37 2 59 9zm0 0"/></svg>