<svg width="2548" height="1300.002" xmlns="http://www.w3.org/2000/svg"><path d="M199 293.002h-17l-172 203v17c20 9 35 21 45 31 21 22 20 63 20 138v200c0 83 47 123 113 123 71 0 139-36 200-66v-24l-168-46v-315h161v-80H240zm448-40l-19-19-219 56v26c60 31 76 61 76 130v476l-70 28v40h292v-40c-57-23-70-41-70-117v-243c28-9 67-18 99-18 57 0 75 29 75 85v265l-70 28v40h292v-40c-57-23-70-41-70-117v-194c0-142-64-181-132-181-75 0-151 48-194 79zm716 634c-74 0-122-43-136-142l320 24c5-34 6-59 6-90 0-141-67-221-191-221-133 0-284 121-284 307 0 154 98 241 241 241 118 0 197-87 232-144l-15-21c-39 24-91 46-173 46zm-140-205c0-61 13-98 33-118 14-14 33-19 51-19 60 0 100 60 100 129l-184 24v-16zm929-92c25-8 60-18 89-18 57 0 75 29 75 85v265l-65 28v40h287v-40c-57-33-70-51-70-117v-194c0-142-64-181-132-181s-142 37-203 78c-27-53-64-78-113-78-71 0-142 49-184 79v-79l-213 59v35c46 7 61 22 61 90v280l-70 28v40h287v-40c-52-33-65-51-65-117v-243c25-8 60-18 89-18 57 0 75 29 75 85v265l-65 28v40h282v-40c-52-33-65-51-65-117zm0 0"/></svg>