<svg width="2176" height="1300.002" xmlns="http://www.w3.org/2000/svg"><path d="M222 326.002l-140 199v20c34 0 61 25 50 73l-63 275c-13 56 6 111 69 111 54 0 104-22 164-49v-14l-147-41 79-345h143v-65H238v-164zm155 665l12 13 106-32v-131c25-113 71-188 116-233 36-36 72-53 98-53 40 0 64 31 48 103l-76 333 12 13 178-55v-14l-76-40 54-239c27-119-28-180-95-180-53 0-99 30-138 69-27 27-49 57-67 85l36-155 61-229-10-10-174 38v16l61 53zm912-107l-11-14c-51 32-101 55-150 55-68 0-104-34-104-114 0-6 0-12 1-18 124-3 220-33 275-88 35-35 53-83 53-126 0-65-42-103-119-103-73 0-136 32-184 80-82 82-118 197-118 281 0 105 71 167 151 167 94 0 176-72 206-120zm-173-313c25-25 52-37 77-37 50 0 77 47 77 88 0 57-54 100-135 100-22 0-53-3-96-6 16-56 43-111 77-145zm448-95l-114 47v119l-80 349 12 13 105-33v-130c25-113 71-188 116-233 35-35 68-53 93-53 36 0 59 31 43 103l-76 333 12 13 105-33v-130c25-113 67-189 111-233 35-35 67-53 92-53 36 0 59 31 43 103l-76 333 12 13 178-55v-14l-76-40 54-239c27-119-26-180-90-180-51 0-94 24-132 62-21 21-42 44-65 76 7-87-36-138-90-138-51 0-95 31-133 69-27 27-49 57-67 85l33-144zm0 0"/></svg>