<svg width="2303" height="1300.002" xmlns="http://www.w3.org/2000/svg"><path d="M222 326.002l-140 199v20c34 0 61 25 50 73l-63 275c-13 56 6 111 69 111 54 0 104-22 164-49v-14l-147-41 79-345h143v-65H238v-164zm155 665l12 13 106-32v-131c25-113 71-188 116-233 36-36 72-53 98-53 40 0 64 31 48 103l-76 333 12 13 178-55v-14l-76-40 54-239c27-119-28-180-95-180-53 0-99 30-138 69-27 27-49 57-67 85l36-155 61-229-10-10-174 38v16l61 53zm747-601c40 0 72-32 72-72 0-39-32-71-72-71-39 0-71 32-71 71 0 40 32 72 71 72zm11 86l-114 47v119l-84 349 12 13 178-55v-14l-76-40 94-409zm257 0l-114 45v121l-80 349 12 13 107-32v-131c25-113 69-188 114-233 36-36 72-53 98-53 40 0 64 31 48 103l-76 333 12 13 176-55v-14l-76-40 54-239c27-119-26-180-93-180-53 0-97 26-133 62-28 28-54 62-72 90l33-142zm678 404c-60 278-124 299-191 299-36 0-64-6-94-16l-48-103h-12l-73 172c68 24 107 32 177 32 125-1 274-125 329-373l70-302 75-56v-14c-54-23-133-43-207-43-83 0-154 22-220 88-70 70-127 196-127 308 0 83 43 132 108 132 51 0 101-32 138-69 33-33 63-75 90-125zm-119-309c25-25 57-35 87-35 37 0 75 13 109 32-32 139-97 245-156 304-37 37-73 53-97 53-30 0-48-26-48-81 0-76 43-211 105-273zm0 0"/></svg>