<svg width="2600" height="1300.002" xmlns="http://www.w3.org/2000/svg"><path d="M199 293.002h-17l-172 203v17c20 9 35 21 45 31 21 22 20 63 20 138v200c0 83 47 123 113 123 71 0 139-36 200-66v-24l-168-46v-315h161v-80H240zm448-40l-19-19-219 56v26c60 31 76 61 76 130v476l-70 28v40h292v-40c-57-23-70-41-70-117v-243c28-9 67-18 99-18 57 0 75 29 75 85v265l-70 28v40h292v-40c-57-23-70-41-70-117v-194c0-142-64-181-132-181-75 0-151 48-194 79zm553 165c58 0 102-42 102-102 0-52-44-100-102-100-60 0-106 48-106 100 0 60 46 102 106 102zm80 425v-202l10-183-223 59v35c46 7 61 22 61 90v280l-70 28v40h292v-40c-57-33-70-51-70-107zm644 0v-204c0-142-64-181-132-181-75 0-151 48-194 79v-79l-213 59v35c46 7 61 22 61 90v280l-70 28v40h292v-40c-57-33-70-51-70-117v-243c28-9 67-18 99-18 57 0 75 29 75 85v265l-70 28v40h292v-40c-57-33-70-51-70-107zm334-18c111 0 241-67 251-228l82-47v-23l-140-45c-51-16-96-24-140-24-136 0-266 84-266 203 0 72 45 120 107 145l-96 194 257 14c55 3 96 35 96 76 0 61-50 89-124 89-89 0-135-57-135-120v-16l-24-4c-59 37-93 75-93 120 0 56 45 107 187 107 168 0 333-111 333-233-1-68-43-127-173-136l-165-12-38-71c26 7 53 11 81 11zm28-72c-49 0-91-50-91-120 0-57 32-103 83-103 64 0 89 48 89 113 0 66-35 110-81 110zm0 0"/></svg>