<svg width="2476" height="1300.002" xmlns="http://www.w3.org/2000/svg"><path d="M165 303.002h-16l-106 207v15c47 15 55 45 55 116v265c0 67 39 98 84 98 54 0 120-29 171-52v-17l-165-29v-351h161v-65H188zm635 634l-81 31v22h252v-25c-27-5-45-14-58-27-17-17-23-45-23-175v-123c0-112-46-164-135-164-75 0-138 33-188 64v-85l9-213-10-10-167 67v15c25 7 41 17 53 29 21 21 25 53 25 107v487l-81 31v22h252v-25c-27-5-45-14-58-27-17-17-23-45-23-175v-173c36-19 78-34 137-34s96 39 96 126zm342-547c42 0 75-34 75-75s-33-75-75-75c-41 0-76 34-76 75s35 75 76 75zm-37 547l-81 31v22h252v-25c-27-5-45-14-58-27-17-17-23-45-23-175v-115l10-172-178 65v15c25 7 42 18 53 31 23 26 25 61 25 115zm305-245v245l-81 31v22h252v-25c-27-5-45-14-58-27-17-17-23-45-23-175v-173c36-19 78-35 137-35s96 25 96 92v290l-81 31v22h252v-25c-27-5-45-14-58-27-17-17-23-45-23-175v-123c0-112-52-164-139-164-74 0-134 33-184 64v-64l-168 65v15c25 5 42 10 55 23 20 20 23 59 23 113zm1027 352c0-52-54-91-152-103l-151-18-28-78c17 4 34 6 52 6 56 0 115-19 161-65 42-42 64-98 64-156v-32l87-43v-14l-83-30c-50-18-107-35-170-35-102 0-239 79-239 214 0 69 37 119 94 144l-68 151 256 28c61 7 90 41 90 80 0 23-8 44-23 59-25 25-73 47-147 47-99 0-131-46-131-99v-61l-13-4c-41 37-71 79-71 121 0 55 64 108 179 108 129 0 293-96 293-220zm-129-375c0 32-9 62-29 82-23 23-57 34-91 34-39 0-72-15-93-36-22-22-31-53-31-93 0-32 8-61 29-82 25-25 57-34 91-34 39 0 72 15 93 36 20 20 31 53 31 93zm0 0"/></svg>