<svg width="2963" height="1300.002" xmlns="http://www.w3.org/2000/svg"><path d="M165 303.002h-16l-106 207v15c47 15 55 45 55 116v265c0 67 39 98 84 98 54 0 120-29 171-52v-17l-165-29v-351h161v-65H188zm635 634l-81 31v22h252v-25c-27-5-45-14-58-27-17-17-23-45-23-175v-123c0-112-46-164-135-164-75 0-138 33-188 64v-85l9-213-10-10-167 67v15c25 7 41 17 53 29 21 21 25 53 25 107v487l-81 31v22h252v-25c-27-5-45-14-58-27-17-17-23-45-23-175v-173c36-19 78-34 137-34s96 39 96 126zm342-547c42 0 75-34 75-75s-33-75-75-75c-41 0-76 34-76 75s35 75 76 75zm-37 547l-81 31v22h252v-25c-27-5-45-14-58-27-17-17-23-45-23-175v-115l10-172-178 65v15c25 7 42 18 53 31 23 26 25 61 25 115zm305-245v245l-81 31v22h252v-25c-27-5-45-14-58-27-17-17-23-45-23-175v-173c36-19 78-35 137-35s96 25 96 92v290l-81 31v22h252v-25c-27-5-45-14-58-27-17-17-23-45-23-175v-123c0-112-52-164-139-164-74 0-134 33-184 64v-64l-168 65v15c25 5 42 10 55 23 20 20 23 59 23 113zm617 245l-81 31v22h252v-25c-27-5-45-14-58-27-17-17-23-45-23-175v-26l89 22 102 185c26 48 52 60 86 60 32 0 64-14 103-51v-14l-105-28-119-212 203-195v-14h-152c-10 72-41 127-72 158s-76 47-135 58v-251l9-213-10-10-167 67v15c25 7 41 17 53 29 21 21 25 53 25 107zm793-61c0 23-6 38-19 51-15 15-35 24-70 24-27 0-59-5-87-17l-41-110h-16l-53 161c54 13 103 19 154 19 121 0 225-57 225-158 0-43-18-71-37-90-54-54-179-76-210-107-14-14-24-29-24-53 0-19 6-32 18-44 13-13 28-23 56-23 25 0 55 6 82 17l41 106h16l53-157c-52-13-100-19-149-19-112 0-208 52-208 152 0 41 14 66 31 83 52 52 177 72 212 107 17 17 26 33 26 58zm0 0"/></svg>