<svg width="2487" height="1300.002" xmlns="http://www.w3.org/2000/svg"><path d="M260 309.002l-200 215-5 50c34 0 61 25 50 73l-52 222c-19 80 7 137 82 137 60 0 122-27 192-62v-22l-119-50 70-308h136v-90H286v-165zm116 682l13 13 164-32v-122c25-108 69-194 112-237 20-20 41-31 58-31 38 0 45 35 27 109l-72 302 12 13 222-44v-25l-59-51 53-227c28-120 1-202-99-201-46 0-90 25-125 60-29 29-52 60-72 93l91-364-13-13-229 41v25c47 23 65 56 50 119zm788 15c83 0 155-34 208-87 75-75 102-173 102-250 0-132-71-212-190-212-79 0-150 37-201 88-75 75-102 172-102 250 0 131 71 211 183 211zm91-476c38 0 67 43 67 124 0 77-27 206-80 259-13 13-27 20-43 20-38 0-66-45-66-126 0-77 26-204 79-257 13-13 27-20 43-20zm480 52c0-13 6-26 15-35s22-17 45-17c21 0 36 8 54 20l57 121h24l85-185c-48-16-119-28-194-28-105 0-236 48-236 172 0 33 18 61 43 86 34 34 97 73 129 105 19 19 32 39 32 61 0 13-4 24-14 34-12 12-27 18-45 18-21 0-46-7-60-15l-65-134h-24l-89 193c53 14 136 28 211 28 103 0 236-48 236-172 0-33-18-61-44-87-35-35-96-73-129-106-19-19-31-38-31-59zm450 424c99 0 186-78 238-163l-16-18c-62 40-116 61-159 61-55 0-98-32-98-92v-3c191-7 337-118 337-231 0-72-59-102-127-102-65 0-145 27-215 97-104 104-121 224-121 278 0 112 73 173 161 173zm51-433c21-21 42-26 57-26 31 0 50 24 50 62 0 47-23 90-82 90-22 0-45 0-94-7 14-45 38-88 69-119zm0 0"/></svg>