<svg width="3594" height="1300.002" xmlns="http://www.w3.org/2000/svg"><path d="M132 843.002l97-355-12-13-115 34v129l-52 185c-33 116 23 180 95 180 48 0 97-28 133-64 28-28 54-62 72-90l-33 142 12 13 174-55v-14l-76-40 94-407-12-13-108 32v131c-25 113-68 188-113 233-36 36-72 53-102 53-24 0-73-10-54-81zm579-500l-149 648 12 13 176-55v-14l-76-40 94-406 63-243-10-10-172 38v16zm301-17l-140 199v20c34 0 61 25 50 73l-63 275c-13 56 6 111 69 111 54 0 104-22 164-49v-14l-147-41 79-345h143v-65h-139v-164zm354 64c40 0 72-32 72-72 0-39-32-71-72-71-39 0-71 32-71 71 0 40 32 72 71 72zm11 86l-114 47v119l-84 349 12 13 178-55v-14l-76-40 94-409zm257 0l-114 47v119l-80 349 12 13 105-33v-130c25-113 71-188 116-233 35-35 68-53 93-53 36 0 59 31 43 103l-76 333 12 13 105-33v-130c25-113 67-189 111-233 35-35 67-53 92-53 36 0 59 31 43 103l-76 333 12 13 178-55v-14l-76-40 54-239c27-119-26-180-90-180-51 0-94 24-132 62-21 21-42 44-65 76 7-87-36-138-90-138-51 0-95 31-133 69-27 27-49 57-67 85l33-144zm1045 415l70-302 75-56v-14c-54-23-133-43-207-43-83 0-154 22-220 88-70 70-127 196-127 308 0 83 43 132 108 132 51 0 101-32 138-69 33-33 63-75 90-125l-42 181 12 13 178-55v-14zm-207-320c25-25 57-35 87-35 37 0 75 13 109 32-32 139-97 245-156 304-37 37-73 53-97 53-30 0-48-26-48-81 0-76 43-211 105-273zm559-245l-140 199v20c34 0 61 25 50 73l-63 275c-13 56 6 111 69 111 54 0 104-22 164-49v-14l-147-41 79-345h143v-65h-139v-164zm499 558l-11-14c-51 32-101 55-150 55-68 0-104-34-104-114 0-6 0-12 1-18 124-3 220-33 275-88 35-35 53-83 53-126 0-65-42-103-119-103-73 0-136 32-184 80-82 82-118 197-118 281 0 105 71 167 151 167 94 0 176-72 206-120zm-173-313c25-25 52-37 77-37 50 0 77 47 77 88 0 57-54 100-135 100-22 0-53-3-96-6 16-56 43-111 77-145zm0 0"/></svg>