<svg width="1286" height="1300.002" xmlns="http://www.w3.org/2000/svg"><path d="M475 772.002l69-302-13-13-164 32v122l-45 199c-16 69-60 98-87 98s-50-30-50-88c0-82 53-199 139-354l-10-10-257 71v25l133 63c-101 68-165 155-165 238 0 87 51 153 155 153 67 0 117-37 158-84 25 46 64 84 137 84 163 0 307-205 307-457v-91l-173 32v373c-25 30-46 45-82 45-40 0-68-67-52-136zm509 234c99 0 186-78 238-163l-16-18c-62 40-116 61-159 61-55 0-98-32-98-92v-3c191-7 337-118 337-231 0-72-59-102-127-102-65 0-145 27-215 97-104 104-121 224-121 278 0 112 73 173 161 173zm51-433c21-21 42-26 57-26 31 0 50 24 50 62 0 47-23 90-82 90-22 0-45 0-94-7 14-45 38-88 69-119zm0 0"/></svg>