<svg width="2748" height="1300.002" xmlns="http://www.w3.org/2000/svg"><path d="M475 772.002l69-302-13-13-164 32v122l-45 199c-16 69-60 98-87 98s-50-30-50-88c0-82 53-199 139-354l-10-10-257 71v25l133 63c-101 68-165 155-165 238 0 87 51 153 155 153 67 0 117-37 158-84 25 46 64 84 137 84 163 0 307-205 307-457v-91l-173 32v373c-25 30-46 45-82 45-40 0-68-67-52-136zm330 219l13 13 164-32v-122c25-108 69-194 112-237 20-20 41-31 58-31 38 0 45 35 27 109l-72 302 12 13 222-44v-25l-59-51 53-227c28-120 1-202-99-201-46 0-90 25-125 60-29 29-52 60-72 93l91-364-13-13-229 41v25c47 23 65 56 50 119zm816-568c58 0 105-46 105-105 0-57-47-105-105-105s-105 48-105 105c0 59 47 105 105 105zm46 50l-13-13-179 37v175l-77 322 12 13 223-44v-25l-59-51zm409 236l20 1 125-241c-26-7-88-11-126-11-121 0-197 37-259 99-83 83-124 200-124 281 0 104 70 168 173 168 101 0 190-67 242-143l-16-18c-65 25-112 41-153 41-65 0-89-40-89-106 0-69 30-172 75-217 13-13 27-14 34-14 22 0 44 17 60 37zm99 282l13 13 164-32v-122c25-108 69-194 112-237 20-20 41-31 58-31 38 0 45 35 27 109l-72 302 12 13 222-44v-25l-59-51 53-227c28-120 1-202-99-201-46 0-90 25-125 60-29 29-52 60-72 93l91-364-13-13-229 41v25c47 23 65 56 50 119zm0 0"/></svg>