<svg width="2953" height="1300.002" xmlns="http://www.w3.org/2000/svg"><path d="M556 1000.002h48l138-353 75-133v-40H673c0 90-23 195-59 295l-151-305h-41l-123 303-59-148-32-145H13v40c37 50 59 84 95 176l122 310h48l130-306zm522-747l-19-19-219 56v26c60 31 76 61 76 130v476l-70 28v40h292v-40c-57-23-70-41-70-117v-243c28-9 67-18 99-18 57 0 75 29 75 85v265l-70 28v40h292v-40c-57-23-70-41-70-117v-194c0-142-64-181-132-181-75 0-151 48-194 79zm553 165c58 0 102-42 102-102 0-52-44-100-102-100-60 0-106 48-106 100 0 60 46 102 106 102zm80 425v-202l10-183-223 59v35c46 7 61 22 61 90v280l-70 28v40h292v-40c-57-33-70-51-70-107zm346 163c113 0 206-81 234-144l-15-21c-41 25-82 46-154 46-88 0-146-65-146-190 0-110 44-150 99-150 25 0 45 7 58 15l55 145h18l88-229c-52-13-101-20-150-20-155 0-317 131-317 309 0 148 89 239 230 239zm500-753l-19-19-219 56v26c60 31 76 61 76 130v476l-70 28v40h292v-40c-57-23-70-41-70-117v-243c28-9 67-18 99-18 57 0 75 29 75 85v265l-70 28v40h292v-40c-57-23-70-41-70-117v-194c0-142-64-181-132-181-75 0-151 48-194 79zm0 0"/></svg>