<svg width="1936" height="1300.002" xmlns="http://www.w3.org/2000/svg"><path d="M475 772.002l69-302-13-13-164 32v122l-45 199c-16 69-60 98-87 98s-50-30-50-88c0-82 53-199 139-354l-10-10-257 71v25l133 63c-101 68-165 155-165 238 0 87 51 153 155 153 67 0 117-37 158-84 25 46 64 84 137 84 163 0 307-205 307-457v-91l-173 32v373c-25 30-46 45-82 45-40 0-68-67-52-136zm330 219l13 13 164-32v-122c25-108 69-194 112-237 20-20 41-31 58-31 38 0 45 35 27 109l-72 302 12 13 222-44v-25l-59-51 53-227c28-120 1-202-99-201-46 0-90 25-125 60-29 29-52 60-72 93l91-364-13-13-229 41v25c47 23 65 56 50 119zm788 15c83 0 155-34 208-87 75-75 102-173 102-250 0-132-71-212-190-212-79 0-150 37-201 88-75 75-102 172-102 250 0 131 71 211 183 211zm91-476c38 0 67 43 67 124 0 77-27 206-80 259-13 13-27 20-43 20-38 0-66-45-66-126 0-77 26-204 79-257 13-13 27-20 43-20zm0 0"/></svg>