<svg width="1799" height="1300.002" xmlns="http://www.w3.org/2000/svg"><path d="M716 546.002v-60l-10-10-96 33v327c-27 45-63 89-117 89-51 0-84-83-58-194l56-243-12-13-108 32v117l-26 112c-38 164-104 189-137 189-45 0-57-45-57-89 0-76 34-159 133-352l-10-10-200 53v16l99 58c-64 67-122 171-122 263 0 93 59 140 119 140s126-47 168-120c14 62 54 120 129 120 102 0 249-129 249-458zm38 445l12 13 106-32v-131c25-113 71-188 116-233 36-36 72-53 98-53 40 0 64 31 48 103l-76 333 12 13 178-55v-14l-76-40 54-239c27-119-28-180-95-180-53 0-99 30-138 69-27 27-49 57-67 85l36-155 61-229-10-10-174 38v16l61 53zm558-175c0 115 57 188 164 188 73 0 137-34 181-75 76-73 114-179 114-265 0-115-57-188-164-188-73 0-137 34-181 75-76 73-114 179-114 265zm360-156c0 71-23 181-93 251-33 33-63 39-82 39-67 0-86-58-86-130 0-71 23-181 93-251 34-34 63-39 82-39 67 0 86 58 86 130zm0 0"/></svg>