<svg width="1984" height="1300.002" xmlns="http://www.w3.org/2000/svg"><path d="M608 755.002l-29 84-157-363h-26l-151 362-71-201-25-147H12v25c36 46 55 82 82 160l114 329h26l157-375 161 375h26l125-363 65-126v-25H650c0 106-10 172-42 265zm605 182l-81 31v22h252v-25c-27-5-45-14-58-27-17-17-23-45-23-175v-123c0-112-46-164-135-164-75 0-138 33-188 64v-85l9-213-10-10-167 67v15c25 7 41 17 53 29 21 21 25 53 25 107v487l-81 31v22h252v-25c-27-5-45-14-58-27-17-17-23-45-23-175v-173c36-19 78-34 137-34s96 39 96 126zm242-170c0 124 75 237 209 237 144 0 268-129 268-291 0-124-75-237-209-237-144 0-268 129-268 291zm385-7c0 63-15 110-44 139-22 22-50 33-94 33-38 0-75-12-107-44-34-34-48-95-48-168 0-63 15-110 44-139 22-22 50-33 94-33 38 0 75 12 107 44 34 34 48 95 48 168zm0 0"/></svg>