<svg width="3325" height="1300.002" xmlns="http://www.w3.org/2000/svg"><path d="M716 546.002v-60l-10-10-96 33v327c-27 45-63 89-117 89-51 0-84-83-58-194l56-243-12-13-108 32v117l-26 112c-38 164-104 189-137 189-45 0-57-45-57-89 0-76 34-159 133-352l-10-10-200 53v16l99 58c-64 67-122 171-122 263 0 93 59 140 119 140s126-47 168-120c14 62 54 120 129 120 102 0 249-129 249-458zm237-156c40 0 72-32 72-72 0-39-32-71-72-71-39 0-71 32-71 71 0 40 32 72 71 72zm11 86l-114 47v119l-84 349 12 13 178-55v-14l-76-40 94-409zm391 390c0-43-26-81-59-114-22-22-62-56-84-78-24-24-42-45-42-71 0-17 7-37 21-51 11-11 31-24 61-24 20 0 42 4 73 33l40 112h16l58-166c-46-17-99-31-160-31-102 0-199 60-199 149 0 39 21 72 50 101 25 25 80 68 99 87 21 21 36 40 36 64 0 17-8 39-22 53-11 11-30 22-60 22-20 0-51-6-83-33l-39-112h-16l-57 171c46 14 107 26 168 26 102 0 199-52 199-138zm577 83v-14l-75-44 93-401 63-244-10-10-169 38v16l62 53-32 138c-23-3-46-5-69-5-83 0-154 22-220 88-70 70-127 196-127 308 0 83 43 132 108 132 51 0 101-32 138-69 33-33 65-75 92-125l-42 181 12 13zm-280-378c25-25 55-35 85-35 37 0 75 13 109 32-32 139-97 245-156 304-37 37-71 53-95 53-30 0-48-26-48-81 0-76 43-211 105-273zm358 245c0 115 57 188 164 188 73 0 137-34 181-75 76-73 114-179 114-265 0-115-57-188-164-188-73 0-137 34-181 75-76 73-114 179-114 265zm360-156c0 71-23 181-93 251-33 33-63 39-82 39-67 0-86-58-86-130 0-71 23-181 93-251 34-34 63-39 82-39 67 0 86 58 86 130zm343-184l-114 47v119l-80 349 12 13 105-33v-130c25-113 71-188 116-233 35-35 68-53 93-53 36 0 59 31 43 103l-76 333 12 13 105-33v-130c25-113 67-189 111-233 35-35 67-53 92-53 36 0 59 31 43 103l-76 333 12 13 178-55v-14l-76-40 54-239c27-119-26-180-90-180-51 0-94 24-132 62-21 21-42 44-65 76 7-87-36-138-90-138-51 0-95 31-133 69-27 27-49 57-67 85l33-144zm0 0"/></svg>