<svg width="2081" height="1300.002" xmlns="http://www.w3.org/2000/svg"><path d="M608 755.002l-29 84-157-363h-26l-151 362-71-201-25-147H12v25c36 46 55 82 82 160l114 329h26l157-375 161 375h26l125-363 65-126v-25H650c0 106-10 172-42 265zm330-365c42 0 75-34 75-75s-33-75-75-75c-41 0-76 34-76 75s35 75 76 75zm-37 547l-81 31v22h252v-25c-27-5-45-14-58-27-17-17-23-45-23-175v-115l10-172-178 65v15c25 7 42 18 53 31 23 26 25 61 25 115zm355-634h-16l-106 207v15c47 15 55 45 55 116v265c0 67 39 98 84 98 54 0 120-29 171-52v-17l-165-29v-351h161v-65h-161zm635 634l-81 31v22h252v-25c-27-5-45-14-58-27-17-17-23-45-23-175v-123c0-112-46-164-135-164-75 0-138 33-188 64v-85l9-213-10-10-167 67v15c25 7 41 17 53 29 21 21 25 53 25 107v487l-81 31v22h252v-25c-27-5-45-14-58-27-17-17-23-45-23-175v-173c36-19 78-34 137-34s96 39 96 126zm0 0"/></svg>