<svg width="3566" height="1300.002" xmlns="http://www.w3.org/2000/svg"><path d="M716 546.002v-60l-10-10-96 33v327c-27 45-63 89-117 89-51 0-84-83-58-194l56-243-12-13-108 32v117l-26 112c-38 164-104 189-137 189-45 0-57-45-57-89 0-76 34-159 133-352l-10-10-200 53v16l99 58c-64 67-122 171-122 263 0 93 59 140 119 140s126-47 168-120c14 62 54 120 129 120 102 0 249-129 249-458zm48 270c0 115 57 188 164 188 73 0 137-34 181-75 76-73 114-179 114-265 0-115-57-188-164-188-73 0-137 34-181 75-76 73-114 179-114 265zm360-156c0 71-23 181-93 251-33 33-63 39-82 39-67 0-86-58-86-130 0-71 23-181 93-251 34-34 63-39 82-39 67 0 86 58 86 130zm353-174l-10-10-114 47v119l-80 349 12 13 105-32v-131c23-105 84-189 156-259l26 151h14l94-247-10-10c-53 0-100 11-153 64-32 32-57 70-77 103zm183 501l12 13 107-32v-131c36-96 95-173 141-219 44-44 80-63 101-63 26 0 40 16 40 45 0 50-46 108-156 168 0 87 18 236 103 236 48 0 87-45 115-111l-13-11c-23 23-45 35-65 35-42 0-54-98-54-157 73-49 172-114 172-192 0-51-41-92-95-92-60 0-105 34-143 72s-81 89-104 125l48-198 63-229-10-10-176 38v16l62 53zm727-597c40 0 72-32 72-72 0-39-32-71-72-71-39 0-71 32-71 71 0 40 32 72 71 72zm11 86l-114 47v119l-84 349 12 13 178-55v-14l-76-40 94-409zm257 0l-114 45v121l-80 349 12 13 107-32v-131c25-113 69-188 114-233 36-36 72-53 98-53 40 0 64 31 48 103l-76 333 12 13 176-55v-14l-76-40 54-239c27-119-26-180-93-180-53 0-97 26-133 62-28 28-54 62-72 90l33-142zm678 404c-60 278-124 299-191 299-36 0-64-6-94-16l-48-103h-12l-73 172c68 24 107 32 177 32 125-1 274-125 329-373l70-302 75-56v-14c-54-23-133-43-207-43-83 0-154 22-220 88-70 70-127 196-127 308 0 83 43 132 108 132 51 0 101-32 138-69 33-33 63-75 90-125zm-119-309c25-25 57-35 87-35 37 0 75 13 109 32-32 139-97 245-156 304-37 37-73 53-97 53-30 0-48-26-48-81 0-76 43-211 105-273zm0 0"/></svg>