<svg width="2353" height="1300.002" xmlns="http://www.w3.org/2000/svg"><path d="M608 755.002l-29 84-157-363h-26l-151 362-71-201-25-147H12v25c36 46 55 82 82 160l114 329h26l157-375 161 375h26l125-363 65-126v-25H650c0 106-10 172-42 265zm200 12c0 124 75 237 209 237 144 0 268-129 268-291 0-124-75-237-209-237-144 0-268 129-268 291zm385-7c0 63-15 110-44 139-22 22-50 33-94 33-38 0-75-12-107-44-34-34-48-95-48-168 0-63 15-110 44-139 22-22 50-33 94-33 38 0 75 12 107 44 34 34 48 95 48 168zm259 177l-81 31v22h252v-25c-27-5-45-14-58-27-17-17-23-45-23-175v-24c0-70 13-111 39-137 18-18 42-29 72-29l47 120h16l52-199c-23-13-41-18-68-18-43 0-83 22-114 53-18 18-34 47-44 87v-140l-168 65v15c25 5 42 10 55 23 20 20 23 59 23 113zm431 0l-81 31v22h252v-25c-27-5-45-14-58-27-17-17-23-45-23-175v-26l89 22 102 185c26 48 52 60 86 60 32 0 64-14 103-51v-14l-105-28-119-212 203-195v-14h-152c-10 72-41 127-72 158s-76 47-135 58v-251l9-213-10-10-167 67v15c25 7 41 17 53 29 21 21 25 53 25 107zm0 0"/></svg>