<?xml version="1.0" encoding="UTF-8" standalone="no"?>
<!DOCTYPE svg PUBLIC "-//W3C//DTD SVG 1.1//EN" "http://www.w3.org/Graphics/SVG/1.1/DTD/svg11.dtd">
<svg width="100%" height="100%" viewBox="0 0 1733 1000" version="1.1" xmlns="http://www.w3.org/2000/svg" xmlns:xlink="http://www.w3.org/1999/xlink" xml:space="preserve" xmlns:serif="http://www.serif.com/" style="fill-rule:evenodd;clip-rule:evenodd;stroke-linejoin:round;stroke-miterlimit:2;">
    <g id="Artboard1" transform="matrix(1.44383,0,0,1.66667,0,0)">
        <rect x="0" y="0" width="1200" height="600" style="fill:none;"/>
        <clipPath id="_clip1">
            <rect x="0" y="0" width="1200" height="600"/>
        </clipPath>
        <g clip-path="url(#_clip1)">
            <g transform="matrix(1.383,7.39557e-33,0,0.555049,2.33882,14.3279)">
                <rect x="-32.338" y="-25.814" width="913.652" height="1080.99"/>
            </g>
            <g transform="matrix(1.96518,-4.84604e-17,-6.71275e-17,1.70243,-37.6376,-349.265)">
                <g transform="matrix(374.861,0,0,374.861,48.2987,538.029)">
                    <path d="M0.388,-0.795L0.428,-0.86L0.087,-0.86L0.24,-0.475L-0.061,0.015L0.283,-0.036C0.214,-0.156 0.203,-0.3 0.246,-0.459L0.344,-0.212C0.413,-0.037 0.491,0.02 0.569,0.02C0.694,0.02 0.714,-0.145 0.714,-0.247C0.714,-0.373 0.677,-0.514 0.653,-0.591L0.643,-0.591C0.654,-0.537 0.679,-0.44 0.679,-0.358C0.679,-0.281 0.655,-0.258 0.636,-0.258C0.619,-0.258 0.6,-0.276 0.576,-0.334L0.527,-0.455L0.853,-0.86L0.536,-0.86C0.568,-0.694 0.553,-0.583 0.522,-0.467L0.388,-0.795Z" style="fill:rgb(0,255,0);fill-rule:nonzero;"/>
                </g>
                <g transform="matrix(374.861,0,0,374.861,335.067,538.029)">
                    <path d="M0.198,-0.39L0.208,-0.39L0.331,-0.658C0.415,-0.658 0.428,-0.619 0.428,-0.554C0.428,-0.481 0.391,-0.379 0.314,-0.271C0.229,-0.3 0.131,-0.339 0.017,-0.339L0.065,0.019C0.105,-0.021 0.145,-0.061 0.183,-0.101C0.23,-0.052 0.302,0.021 0.421,0.021C0.561,0.021 0.656,-0.088 0.656,-0.277C0.656,-0.369 0.627,-0.495 0.59,-0.567L0.58,-0.567C0.6,-0.499 0.607,-0.463 0.607,-0.421C0.607,-0.297 0.539,-0.238 0.456,-0.238C0.418,-0.238 0.377,-0.249 0.333,-0.264C0.494,-0.449 0.634,-0.639 0.758,-0.86L0.11,-0.86L0.198,-0.39Z" style="fill:rgb(0,255,0);fill-rule:nonzero;"/>
                </g>
            </g>
        </g>
    </g>
</svg>
