<?xml version="1.0" encoding="UTF-8" standalone="no"?>
<!DOCTYPE svg PUBLIC "-//W3C//DTD SVG 1.1//EN" "http://www.w3.org/Graphics/SVG/1.1/DTD/svg11.dtd">
<svg width="100%" height="100%" viewBox="0 0 2149 1000" version="1.1" xmlns="http://www.w3.org/2000/svg" xmlns:xlink="http://www.w3.org/1999/xlink" xml:space="preserve" xmlns:serif="http://www.serif.com/" style="fill-rule:evenodd;clip-rule:evenodd;stroke-linejoin:round;stroke-miterlimit:2;">
    <g transform="matrix(1,0,0,1,-1793.8,0)">
        <g id="Artboard1" transform="matrix(1.79007,0,0,1.66667,1793.8,0)">
            <rect x="0" y="0" width="1200" height="600" style="fill:none;"/>
            <clipPath id="_clip1">
                <rect x="0" y="0" width="1200" height="600"/>
            </clipPath>
            <g clip-path="url(#_clip1)">
                <g transform="matrix(1.33612,7.56875e-33,0,0.568046,26.1142,13.6406)">
                    <rect x="-32.338" y="-25.814" width="913.652" height="1080.99" style="fill:white;"/>
                </g>
                <g transform="matrix(0.824609,-2.52108e-17,-2.81674e-17,0.885664,-19.2004,96.7931)">
                    <g transform="matrix(374.861,0,0,374.861,48.2987,538.029)">
                        <path d="M0.115,-0.053L0.034,-0.022L0.034,-0L0.286,-0L0.286,-0.025C0.259,-0.03 0.241,-0.039 0.228,-0.052C0.211,-0.069 0.205,-0.097 0.205,-0.227L0.205,-0.251C0.205,-0.321 0.218,-0.362 0.244,-0.388C0.262,-0.406 0.286,-0.417 0.316,-0.417L0.363,-0.297L0.379,-0.297L0.431,-0.496C0.408,-0.509 0.39,-0.514 0.363,-0.514C0.32,-0.514 0.28,-0.492 0.249,-0.461C0.231,-0.443 0.215,-0.414 0.205,-0.374L0.205,-0.514L0.037,-0.449L0.037,-0.434C0.062,-0.429 0.079,-0.424 0.092,-0.411C0.112,-0.391 0.115,-0.352 0.115,-0.298L0.115,-0.053Z" style="fill-rule:nonzero;"/>
                    </g>
                    <g transform="matrix(374.861,0,0,374.861,206.49,538.029)">
                        <path d="M0.283,-0.067C0.2,-0.067 0.143,-0.131 0.142,-0.255L0.469,-0.233C0.474,-0.264 0.477,-0.297 0.477,-0.317C0.477,-0.435 0.412,-0.514 0.308,-0.514C0.2,-0.514 0.052,-0.412 0.052,-0.217C0.052,-0.055 0.171,0.014 0.259,0.014C0.373,0.014 0.454,-0.066 0.48,-0.158L0.463,-0.165C0.428,-0.122 0.376,-0.067 0.283,-0.067ZM0.186,-0.41C0.209,-0.433 0.237,-0.439 0.267,-0.439C0.361,-0.439 0.387,-0.372 0.387,-0.311L0.143,-0.291C0.148,-0.346 0.162,-0.386 0.186,-0.41Z" style="fill-rule:nonzero;"/>
                    </g>
                    <g transform="matrix(374.861,0,0,374.861,405.916,538.029)">
                        <path d="M0.115,-0.435L0.115,-0.053L0.034,-0.022L0.034,-0L0.286,-0L0.286,-0.025C0.259,-0.03 0.241,-0.039 0.228,-0.052C0.211,-0.069 0.205,-0.097 0.205,-0.227L0.205,-0.435L0.319,-0.435L0.319,-0.5L0.207,-0.5L0.207,-0.645L0.397,-0.699L0.397,-0.713L0.18,-0.754L0.108,-0.5L0.037,-0.5L0.037,-0.435L0.115,-0.435Z" style="fill-rule:nonzero;"/>
                    </g>
                    <g transform="matrix(374.861,0,0,374.861,526.996,538.029)">
                        <path d="M0.283,-0.067C0.2,-0.067 0.143,-0.131 0.142,-0.255L0.469,-0.233C0.474,-0.264 0.477,-0.297 0.477,-0.317C0.477,-0.435 0.412,-0.514 0.308,-0.514C0.2,-0.514 0.052,-0.412 0.052,-0.217C0.052,-0.055 0.171,0.014 0.259,0.014C0.373,0.014 0.454,-0.066 0.48,-0.158L0.463,-0.165C0.428,-0.122 0.376,-0.067 0.283,-0.067ZM0.186,-0.41C0.209,-0.433 0.237,-0.439 0.267,-0.439C0.361,-0.439 0.387,-0.372 0.387,-0.311L0.143,-0.291C0.148,-0.346 0.162,-0.386 0.186,-0.41Z" style="fill-rule:nonzero;"/>
                    </g>
                    <g transform="matrix(374.861,0,0,374.861,726.422,538.029)">
                        <path d="M0.115,-0.053L0.034,-0.022L0.034,-0L0.286,-0L0.286,-0.025C0.259,-0.03 0.241,-0.039 0.228,-0.052C0.211,-0.069 0.205,-0.097 0.205,-0.227L0.205,-0.251C0.205,-0.321 0.218,-0.362 0.244,-0.388C0.262,-0.406 0.286,-0.417 0.316,-0.417L0.363,-0.297L0.379,-0.297L0.431,-0.496C0.408,-0.509 0.39,-0.514 0.363,-0.514C0.32,-0.514 0.28,-0.492 0.249,-0.461C0.231,-0.443 0.215,-0.414 0.205,-0.374L0.205,-0.514L0.037,-0.449L0.037,-0.434C0.062,-0.429 0.079,-0.424 0.092,-0.411C0.112,-0.391 0.115,-0.352 0.115,-0.298L0.115,-0.053Z" style="fill-rule:nonzero;"/>
                    </g>
                    <g transform="matrix(374.861,0,0,374.861,884.613,538.029)">
                        <path d="M0.283,-0.067C0.2,-0.067 0.143,-0.131 0.142,-0.255L0.469,-0.233C0.474,-0.264 0.477,-0.297 0.477,-0.317C0.477,-0.435 0.412,-0.514 0.308,-0.514C0.2,-0.514 0.052,-0.412 0.052,-0.217C0.052,-0.055 0.171,0.014 0.259,0.014C0.373,0.014 0.454,-0.066 0.48,-0.158L0.463,-0.165C0.428,-0.122 0.376,-0.067 0.283,-0.067ZM0.186,-0.41C0.209,-0.433 0.237,-0.439 0.267,-0.439C0.361,-0.439 0.387,-0.372 0.387,-0.311L0.143,-0.291C0.148,-0.346 0.162,-0.386 0.186,-0.41Z" style="fill-rule:nonzero;"/>
                    </g>
                    <g transform="matrix(374.861,0,0,374.861,1084.04,538.029)">
                        <path d="M0.115,-0.298L0.115,-0.053L0.034,-0.022L0.034,-0L0.286,-0L0.286,-0.025C0.259,-0.03 0.241,-0.039 0.228,-0.052C0.211,-0.069 0.205,-0.097 0.205,-0.227L0.205,-0.4C0.241,-0.419 0.283,-0.435 0.342,-0.435C0.401,-0.435 0.438,-0.41 0.438,-0.343L0.438,-0.053L0.357,-0.022L0.357,-0L0.609,-0L0.609,-0.025C0.582,-0.03 0.564,-0.039 0.551,-0.052C0.534,-0.069 0.528,-0.097 0.528,-0.227L0.528,-0.35C0.528,-0.462 0.476,-0.514 0.389,-0.514C0.315,-0.514 0.255,-0.481 0.205,-0.45L0.205,-0.514L0.037,-0.449L0.037,-0.434C0.062,-0.429 0.079,-0.424 0.092,-0.411C0.112,-0.391 0.115,-0.352 0.115,-0.298Z" style="fill-rule:nonzero;"/>
                    </g>
                    <g transform="matrix(374.861,0,0,374.861,1319.45,538.029)">
                        <path d="M0.165,-0.687L0.149,-0.687L0.043,-0.48L0.043,-0.465C0.09,-0.45 0.098,-0.42 0.098,-0.349L0.098,-0.084C0.098,-0.017 0.137,0.014 0.182,0.014C0.236,0.014 0.302,-0.015 0.353,-0.038L0.353,-0.055L0.188,-0.084L0.188,-0.435L0.349,-0.435L0.349,-0.5L0.188,-0.5L0.165,-0.687Z" style="fill-rule:nonzero;"/>
                    </g>
                </g>
                <g transform="matrix(0.824609,-2.52108e-17,-2.81674e-17,0.885664,-19.2004,-194.344)">
                    <g transform="matrix(338.729,0,0,338.729,48.2987,538.029)">
                        <path d="M0.727,-0.86L0.523,-0.86C0.552,-0.746 0.61,-0.431 0.562,-0.134L0.325,-0.804L0.355,-0.86L0.108,-0.86C0.132,-0.819 0.146,-0.77 0.122,-0.656L-0.014,0.011L0.186,-0.024C0.139,-0.174 0.115,-0.526 0.151,-0.724L0.373,-0.092L0.403,0.017L0.568,-0.016C0.576,-0.133 0.594,-0.264 0.637,-0.453L0.727,-0.86Z" style="fill-rule:nonzero;"/>
                    </g>
                    <g transform="matrix(338.729,0,0,338.729,276.263,538.029)">
                        <path d="M0.329,-0.812L0.386,-0.86L0.104,-0.86C0.136,-0.839 0.147,-0.814 0.137,-0.758L0.067,-0.351C0.023,-0.099 0.128,0.017 0.273,0.017C0.351,0.017 0.42,-0.005 0.474,-0.059C0.53,-0.115 0.57,-0.206 0.592,-0.338L0.683,-0.86L0.477,-0.86C0.528,-0.809 0.6,-0.574 0.59,-0.422C0.579,-0.261 0.492,-0.148 0.381,-0.148C0.283,-0.148 0.226,-0.206 0.253,-0.364L0.329,-0.812Z" style="fill-rule:nonzero;"/>
                    </g>
                    <g transform="matrix(338.729,0,0,338.729,499.147,538.029)">
                        <path d="M0.553,0.013L0.791,-0.03L0.74,-0.071L0.755,-0.812L0.793,-0.86L0.548,-0.86C0.561,-0.729 0.533,-0.591 0.486,-0.476L0.435,-0.352L0.321,-0.812L0.353,-0.86L0.123,-0.86C0.147,-0.779 0.166,-0.683 0.124,-0.544L-0.04,0.011L0.139,-0.021C0.127,-0.205 0.14,-0.434 0.16,-0.663L0.341,-0.034L0.348,-0.034L0.57,-0.661L0.553,0.013Z" style="fill-rule:nonzero;"/>
                    </g>
                    <g transform="matrix(338.729,0,0,338.729,771.485,538.029)">
                        <path d="M0.009,0.003C0.061,0.01 0.121,0.017 0.19,0.017C0.478,0.017 0.612,-0.144 0.612,-0.288C0.612,-0.391 0.552,-0.469 0.395,-0.478C0.572,-0.508 0.68,-0.601 0.68,-0.71C0.68,-0.807 0.598,-0.86 0.439,-0.86L0.107,-0.86C0.139,-0.839 0.149,-0.814 0.14,-0.758L0.009,0.003ZM0.275,-0.419L0.3,-0.419C0.387,-0.419 0.43,-0.345 0.43,-0.235C0.43,-0.103 0.359,-0.006 0.278,-0.006C0.25,-0.006 0.225,-0.016 0.201,-0.027L0.341,-0.846L0.365,-0.846C0.44,-0.846 0.498,-0.794 0.498,-0.688C0.498,-0.577 0.418,-0.464 0.275,-0.426L0.275,-0.419Z" style="fill-rule:nonzero;"/>
                    </g>
                    <g transform="matrix(338.729,0,0,338.729,994.03,538.029)">
                        <path d="M0.401,-0.366L0.442,-0.599L0.434,-0.6L0.257,-0.376L0.34,-0.845L0.396,-0.844C0.489,-0.843 0.516,-0.761 0.534,-0.494L0.541,-0.494L0.662,-0.86L0.109,-0.86C0.141,-0.839 0.153,-0.814 0.143,-0.758L0.008,-0.001C0.068,0.009 0.129,0.013 0.214,0.013C0.359,0.013 0.455,-0.006 0.498,-0.049C0.525,-0.076 0.533,-0.111 0.533,-0.16C0.533,-0.25 0.498,-0.356 0.464,-0.441L0.457,-0.441C0.463,-0.406 0.463,-0.369 0.463,-0.344C0.463,-0.225 0.422,-0.145 0.367,-0.09C0.323,-0.046 0.244,-0.023 0.191,-0.002L0.256,-0.366L0.401,-0.366Z" style="fill-rule:nonzero;"/>
                    </g>
                    <g transform="matrix(338.729,0,0,338.729,1190.83,538.029)">
                        <path d="M0.008,0.013L0.26,-0.033L0.208,-0.073L0.344,-0.846L0.382,-0.846C0.461,-0.846 0.501,-0.801 0.501,-0.719C0.501,-0.631 0.415,-0.534 0.326,-0.462L0.286,-0.426L0.286,-0.419C0.364,-0.071 0.43,0.017 0.504,0.017C0.595,0.017 0.619,-0.108 0.619,-0.21C0.619,-0.331 0.589,-0.439 0.58,-0.494L0.573,-0.494C0.582,-0.424 0.59,-0.356 0.59,-0.293C0.59,-0.229 0.577,-0.194 0.556,-0.194C0.53,-0.194 0.498,-0.247 0.368,-0.484C0.555,-0.516 0.698,-0.589 0.698,-0.715C0.698,-0.805 0.63,-0.86 0.489,-0.86L0.107,-0.86C0.139,-0.839 0.15,-0.814 0.141,-0.758L0.008,0.013Z" style="fill-rule:nonzero;"/>
                    </g>
                </g>
            </g>
        </g>
    </g>
</svg>
