<?xml version="1.0" encoding="UTF-8" standalone="no"?>
<!DOCTYPE svg PUBLIC "-//W3C//DTD SVG 1.1//EN" "http://www.w3.org/Graphics/SVG/1.1/DTD/svg11.dtd">
<svg width="100%" height="100%" viewBox="0 0 2656 1000" version="1.1" xmlns="http://www.w3.org/2000/svg" xmlns:xlink="http://www.w3.org/1999/xlink" xml:space="preserve" xmlns:serif="http://www.serif.com/" style="fill-rule:evenodd;clip-rule:evenodd;stroke-linejoin:round;stroke-miterlimit:2;">
    <g transform="matrix(1,0,0,1,-4105,-2.84217e-14)">
        <g id="Artboard2" transform="matrix(1.06705,0,0,1.04197,-275.848,-41.9724)">
            <rect x="4105.56" y="40.282" width="2488.34" height="959.718" style="fill:none;"/>
            <clipPath id="_clip1">
                <rect x="4105.56" y="40.282" width="2488.34" height="959.718"/>
            </clipPath>
            <g clip-path="url(#_clip1)">
                <g transform="matrix(2.79696,0,5.7757e-33,1.04947,4139.29,-2.70388)">
                    <rect x="-32.338" y="-25.814" width="913.652" height="1080.99"/>
                </g>
                <g transform="matrix(3.24331,-9.45445e-17,-1.10787e-16,3.32138,3977.58,-821.942)">
                    <g transform="matrix(374.861,0,0,374.861,48.2987,538.029)">
                        <path d="M0.266,-0.66L0.266,-0.053L0.185,-0.022L0.185,-0L0.441,-0L0.441,-0.025C0.414,-0.03 0.396,-0.039 0.383,-0.052C0.366,-0.069 0.36,-0.097 0.36,-0.227L0.36,-0.66L0.497,-0.649L0.549,-0.451L0.565,-0.451L0.618,-0.71L0.008,-0.71L0.061,-0.451L0.077,-0.451L0.129,-0.649L0.266,-0.66Z" style="fill:white;fill-rule:nonzero;"/>
                    </g>
                    <g transform="matrix(374.861,0,0,374.861,282.962,538.029)">
                        <path d="M0.571,-0.053L0.49,-0.022L0.49,-0L0.746,-0L0.746,-0.025C0.719,-0.03 0.701,-0.039 0.688,-0.052C0.671,-0.069 0.665,-0.097 0.665,-0.227L0.665,-0.657L0.746,-0.688L0.746,-0.71L0.49,-0.71L0.49,-0.685C0.517,-0.68 0.535,-0.671 0.548,-0.658C0.565,-0.641 0.571,-0.613 0.571,-0.483L0.571,-0.39L0.201,-0.39L0.201,-0.657L0.282,-0.688L0.282,-0.71L0.026,-0.71L0.026,-0.685C0.053,-0.68 0.071,-0.671 0.084,-0.658C0.101,-0.641 0.107,-0.613 0.107,-0.483L0.107,-0.053L0.026,-0.022L0.026,-0L0.282,-0L0.282,-0.025C0.255,-0.03 0.237,-0.039 0.224,-0.052C0.207,-0.069 0.201,-0.097 0.201,-0.227L0.201,-0.33L0.571,-0.33L0.571,-0.053Z" style="fill:white;fill-rule:nonzero;"/>
                    </g>
                    <g transform="matrix(374.861,0,0,374.861,572.354,538.029)">
                        <path d="M0.026,-0.71L0.026,-0.685C0.053,-0.68 0.071,-0.671 0.084,-0.658C0.101,-0.641 0.107,-0.613 0.107,-0.483L0.107,-0.053L0.026,-0.022L0.026,-0L0.587,-0L0.532,-0.219L0.516,-0.219L0.467,-0.063L0.201,-0.05L0.201,-0.344L0.422,-0.296L0.422,-0.422L0.201,-0.374L0.201,-0.66L0.467,-0.647L0.516,-0.491L0.532,-0.491L0.587,-0.71L0.026,-0.71Z" style="fill:white;fill-rule:nonzero;"/>
                    </g>
                </g>
            </g>
        </g>
    </g>
</svg>
