<?xml version="1.0" encoding="UTF-8" standalone="no"?>
<!DOCTYPE svg PUBLIC "-//W3C//DTD SVG 1.1//EN" "http://www.w3.org/Graphics/SVG/1.1/DTD/svg11.dtd">
<svg width="100%" height="100%" viewBox="0 0 4021 1000" version="1.1" xmlns="http://www.w3.org/2000/svg" xmlns:xlink="http://www.w3.org/1999/xlink" xml:space="preserve" xmlns:serif="http://www.serif.com/" style="fill-rule:evenodd;clip-rule:evenodd;stroke-linejoin:round;stroke-miterlimit:2;">
    <g transform="matrix(1,0,0,1,-7197.53,-2.84217e-14)">
        <g id="Artboard4" transform="matrix(1.61554,0,0,1.04197,564.821,-41.9724)">
            <rect x="4105.56" y="40.282" width="2488.34" height="959.718" style="fill:none;"/>
            <g transform="matrix(2.01928,-8.91202e-17,-6.89755e-17,3.13082,4006.29,-727.869)">
                <g transform="matrix(374.861,0,0,374.861,48.2987,538.029)">
                    <path d="M0.477,-0.46L0.554,-0.692C0.482,-0.714 0.41,-0.726 0.332,-0.726C0.178,-0.726 0.05,-0.641 0.05,-0.514C0.05,-0.446 0.075,-0.407 0.11,-0.372C0.163,-0.319 0.334,-0.274 0.374,-0.234C0.393,-0.215 0.405,-0.189 0.405,-0.153C0.405,-0.13 0.397,-0.109 0.381,-0.093C0.358,-0.07 0.328,-0.057 0.29,-0.057C0.255,-0.057 0.211,-0.073 0.182,-0.091L0.126,-0.26L0.102,-0.26L0.024,-0.018C0.111,0.007 0.18,0.016 0.259,0.016C0.426,0.016 0.565,-0.08 0.565,-0.204C0.565,-0.272 0.542,-0.308 0.512,-0.338C0.464,-0.386 0.287,-0.447 0.246,-0.488C0.222,-0.512 0.21,-0.529 0.21,-0.569C0.21,-0.586 0.216,-0.605 0.231,-0.62C0.247,-0.636 0.27,-0.653 0.307,-0.653C0.338,-0.653 0.377,-0.639 0.398,-0.626L0.453,-0.46L0.477,-0.46Z" style="fill:rgb(0,255,0);fill-rule:nonzero;"/>
                </g>
                <g transform="matrix(374.861,0,0,374.861,274.34,538.029)">
                    <path d="M0.199,-0.697L0.182,-0.697L0.01,-0.494L0.01,-0.477C0.03,-0.468 0.045,-0.456 0.055,-0.446C0.076,-0.424 0.075,-0.383 0.075,-0.308L0.075,-0.108C0.075,-0.025 0.122,0.015 0.188,0.015C0.259,0.015 0.327,-0.021 0.388,-0.051L0.388,-0.075L0.22,-0.121L0.22,-0.436L0.381,-0.436L0.381,-0.516L0.24,-0.516L0.199,-0.697Z" style="fill:rgb(0,255,0);fill-rule:nonzero;"/>
                </g>
                <g transform="matrix(374.861,0,0,374.861,424.284,538.029)">
                    <path d="M0.102,-0.068L0.032,-0.04L0.032,-0L0.344,-0L0.344,-0.04C0.267,-0.073 0.254,-0.091 0.254,-0.157L0.254,-0.242C0.254,-0.355 0.294,-0.394 0.346,-0.394L0.4,-0.259L0.419,-0.259L0.483,-0.518C0.465,-0.527 0.442,-0.532 0.417,-0.532C0.338,-0.532 0.279,-0.469 0.254,-0.393L0.254,-0.532L0.041,-0.473L0.041,-0.433C0.087,-0.426 0.102,-0.411 0.102,-0.343L0.102,-0.068Z" style="fill:rgb(0,255,0);fill-rule:nonzero;"/>
                </g>
                <g transform="matrix(374.861,0,0,374.861,602.343,538.029)">
                    <path d="M0.33,-0.05L0.332,0.016L0.542,-0.03L0.542,-0.052C0.495,-0.073 0.482,-0.086 0.482,-0.204L0.482,-0.408C0.482,-0.484 0.427,-0.532 0.31,-0.532C0.21,-0.532 0.104,-0.491 0.04,-0.463L0.12,-0.31L0.138,-0.31L0.201,-0.453C0.239,-0.453 0.292,-0.455 0.314,-0.433C0.325,-0.422 0.33,-0.404 0.33,-0.381L0.33,-0.303L0.28,-0.293C0.173,-0.272 0.117,-0.25 0.087,-0.22C0.055,-0.188 0.04,-0.15 0.04,-0.104C0.04,-0.029 0.104,0.016 0.174,0.016C0.241,0.016 0.288,-0.005 0.33,-0.05ZM0.33,-0.105C0.31,-0.097 0.291,-0.089 0.263,-0.089C0.205,-0.089 0.185,-0.117 0.185,-0.15C0.185,-0.167 0.185,-0.184 0.193,-0.206L0.33,-0.226L0.33,-0.105Z" style="fill:rgb(0,255,0);fill-rule:nonzero;"/>
                </g>
                <g transform="matrix(374.861,0,0,374.861,813.015,538.029)">
                    <path d="M0.598,-0.619C0.598,-0.727 0.482,-0.756 0.395,-0.756C0.223,-0.756 0.08,-0.656 0.08,-0.466L0.08,-0.068L0.01,-0.04L0.01,-0L0.232,-0L0.232,-0.508C0.232,-0.622 0.294,-0.674 0.353,-0.674C0.395,-0.674 0.44,-0.647 0.44,-0.587C0.44,-0.535 0.408,-0.467 0.319,-0.378L0.476,-0.2C0.499,-0.173 0.506,-0.145 0.506,-0.125C0.506,-0.111 0.502,-0.097 0.488,-0.083C0.474,-0.069 0.444,-0.061 0.41,-0.057L0.342,-0.199L0.324,-0.199L0.262,-0.005C0.315,0.008 0.371,0.016 0.434,0.016C0.583,0.016 0.659,-0.063 0.659,-0.142C0.659,-0.203 0.64,-0.24 0.577,-0.313L0.466,-0.44C0.543,-0.488 0.598,-0.541 0.598,-0.619Z" style="fill:rgb(0,255,0);fill-rule:nonzero;"/>
                </g>
                <g transform="matrix(374.861,0,0,374.861,1069.04,538.029)">
                    <path d="M0.32,-0.103C0.246,-0.103 0.198,-0.146 0.184,-0.245L0.504,-0.221C0.509,-0.255 0.51,-0.28 0.51,-0.311C0.51,-0.452 0.443,-0.532 0.319,-0.532C0.186,-0.532 0.035,-0.411 0.035,-0.225C0.035,-0.071 0.133,0.016 0.276,0.016C0.394,0.016 0.473,-0.071 0.508,-0.128L0.493,-0.149C0.454,-0.125 0.402,-0.103 0.32,-0.103ZM0.18,-0.308C0.18,-0.369 0.193,-0.406 0.213,-0.426C0.227,-0.44 0.246,-0.445 0.264,-0.445C0.324,-0.445 0.364,-0.385 0.364,-0.316L0.18,-0.292L0.18,-0.308Z" style="fill:rgb(0,255,0);fill-rule:nonzero;"/>
                </g>
            </g>
        </g>
    </g>
</svg>
