<?xml version="1.0" encoding="UTF-8" standalone="no"?>
<!DOCTYPE svg PUBLIC "-//W3C//DTD SVG 1.1//EN" "http://www.w3.org/Graphics/SVG/1.1/DTD/svg11.dtd">
<svg width="100%" height="100%" viewBox="0 0 2885 1000" version="1.1" xmlns="http://www.w3.org/2000/svg" xmlns:xlink="http://www.w3.org/1999/xlink" xml:space="preserve" xmlns:serif="http://www.serif.com/" style="fill-rule:evenodd;clip-rule:evenodd;stroke-linejoin:round;stroke-miterlimit:2;">
    <g id="Artboard1" transform="matrix(2.40353,0,0,1.66667,0,0)">
        <rect x="0" y="0" width="1200" height="600" style="fill:none;"/>
        <clipPath id="_clip1">
            <rect x="0" y="0" width="1200" height="600"/>
        </clipPath>
        <g clip-path="url(#_clip1)">
            <g transform="matrix(0.416055,0,0,0.6,0,0)">
                <rect x="0" y="-47.53" width="2977.51" height="1117.83" style="fill:rgb(0,255,0);"/>
            </g>
            <g transform="matrix(0.566102,0,0,0.816384,-31.4248,-93.0767)">
                <g transform="matrix(643.298,0,0,643.298,109.594,692.757)">
                    <path d="M0.365,-0.767C0.36,-0.75 0.356,-0.733 0.351,-0.716C0.335,-0.757 0.311,-0.787 0.276,-0.787C0.121,-0.787 0.015,-0.345 0.015,-0.153C0.015,-0.026 0.061,0.02 0.104,0.02C0.136,0.02 0.167,-0.008 0.201,-0.061L0.191,-0L0.301,-0C0.339,-0.206 0.367,-0.357 0.376,-0.468C0.409,-0.556 0.443,-0.656 0.482,-0.767L0.365,-0.767ZM0.149,-0.116C0.141,-0.116 0.137,-0.129 0.137,-0.154C0.137,-0.312 0.235,-0.674 0.277,-0.674C0.283,-0.674 0.286,-0.663 0.286,-0.642C0.286,-0.588 0.275,-0.502 0.259,-0.403C0.203,-0.221 0.162,-0.116 0.149,-0.116Z" style="fill:white;fill-rule:nonzero;"/>
                </g>
                <g transform="matrix(643.298,0,0,643.298,356.621,692.757)">
                    <path d="M0.244,-0.589L0.306,-0.824L0.182,-0.824L0.12,-0.589L0.063,-0.589C0.077,-0.568 0.09,-0.544 0.102,-0.519L0.023,-0.218C0,-0.131 -0.01,-0.06 -0.01,0.007C-0.01,0.141 0.053,0.196 0.121,0.196C0.26,0.196 0.308,-0.007 0.308,-0.134C0.308,-0.249 0.275,-0.385 0.236,-0.472L0.403,-0.472L0.431,-0.589L0.244,-0.589ZM0.13,0.081C0.117,0.081 0.11,0.055 0.11,0.01C0.11,-0.044 0.12,-0.123 0.145,-0.218L0.168,-0.306C0.181,-0.243 0.187,-0.18 0.187,-0.125C0.187,-0.025 0.166,0.081 0.13,0.081Z" style="fill:white;fill-rule:nonzero;"/>
                </g>
                <g transform="matrix(643.298,0,0,643.298,604.29,692.757)">
                    <path d="M0.324,-0.608C0.283,-0.608 0.241,-0.584 0.2,-0.545L0.2,-0.588L0.078,-0.588L0.085,-0.393C0.025,-0.287 -0.017,-0.163 -0.017,-0.078C-0.017,-0.031 -0.003,0.02 0.042,0.02C0.104,0.02 0.172,-0.137 0.193,-0.406C0.224,-0.453 0.252,-0.487 0.264,-0.487C0.27,-0.487 0.275,-0.48 0.275,-0.459C0.275,-0.437 0.27,-0.409 0.254,-0.352L0.379,-0.352C0.4,-0.409 0.409,-0.457 0.409,-0.496C0.409,-0.569 0.376,-0.608 0.324,-0.608Z" style="fill:white;fill-rule:nonzero;"/>
                </g>
                <g transform="matrix(643.298,0,0,643.298,851.96,692.757)">
                    <path d="M0.262,-0.635C0.323,-0.635 0.371,-0.679 0.371,-0.735C0.371,-0.78 0.343,-0.811 0.29,-0.811C0.229,-0.811 0.179,-0.767 0.179,-0.711C0.179,-0.666 0.21,-0.635 0.262,-0.635ZM0.16,0.02C0.192,0.02 0.211,0.015 0.238,0.002L0.268,-0.116C0.242,-0.102 0.223,-0.097 0.206,-0.097C0.167,-0.097 0.151,-0.128 0.151,-0.173C0.151,-0.294 0.25,-0.447 0.35,-0.588L0.096,-0.588L0.068,-0.471L0.137,-0.471C0.082,-0.375 0.026,-0.252 0.026,-0.145C0.026,-0.059 0.072,0.02 0.16,0.02Z" style="fill:white;fill-rule:nonzero;"/>
                </g>
                <g transform="matrix(643.298,0,0,643.298,1062.32,692.757)">
                    <path d="M0.413,-0.498C0.413,-0.559 0.389,-0.612 0.333,-0.612C0.29,-0.612 0.251,-0.582 0.21,-0.535L0.29,-0.824L0.166,-0.824L-0.042,-0L0.081,-0C0.098,-0.082 0.116,-0.157 0.135,-0.223L0.19,-0L0.314,-0L0.242,-0.236C0.342,-0.32 0.413,-0.394 0.413,-0.498ZM0.159,-0.296C0.201,-0.417 0.244,-0.489 0.278,-0.489C0.29,-0.489 0.294,-0.476 0.294,-0.464C0.294,-0.433 0.245,-0.366 0.159,-0.296Z" style="fill:white;fill-rule:nonzero;"/>
                </g>
                <g transform="matrix(643.298,0,0,643.298,1309.99,692.757)">
                    <path d="M0.301,-0.608C0.264,-0.608 0.232,-0.589 0.207,-0.56L0.122,-0.56C0.06,-0.448 0,-0.282 0,-0.163C0,-0.05 0.068,0.02 0.147,0.02C0.306,0.02 0.421,-0.235 0.421,-0.431C0.421,-0.54 0.37,-0.608 0.301,-0.608ZM0.249,-0.196C0.239,-0.266 0.231,-0.336 0.231,-0.397C0.231,-0.454 0.252,-0.504 0.273,-0.504C0.29,-0.504 0.3,-0.471 0.3,-0.415C0.3,-0.338 0.278,-0.258 0.249,-0.196ZM0.154,-0.088C0.128,-0.088 0.112,-0.117 0.112,-0.181C0.112,-0.235 0.122,-0.298 0.141,-0.363L0.141,-0.352C0.141,-0.274 0.15,-0.212 0.159,-0.154L0.226,-0.154C0.202,-0.114 0.175,-0.088 0.154,-0.088Z" style="fill:white;fill-rule:nonzero;"/>
                </g>
                <g transform="matrix(643.298,0,0,643.298,1580.82,692.757)">
                    <path d="M0.447,-0.695C0.447,-0.794 0.389,-0.847 0.325,-0.847C0.191,-0.847 0.091,-0.655 0.091,-0.431C0.091,-0.369 0.097,-0.306 0.11,-0.234C0.052,-0.153 -0.01,-0.073 -0.069,-0L0.082,-0L0.143,-0.082C0.149,-0.056 0.156,-0.029 0.164,-0L0.293,-0C0.273,-0.081 0.255,-0.153 0.241,-0.219C0.356,-0.383 0.447,-0.545 0.447,-0.695ZM0.212,-0.48C0.215,-0.556 0.257,-0.729 0.301,-0.729C0.314,-0.729 0.324,-0.714 0.324,-0.681C0.324,-0.604 0.279,-0.501 0.214,-0.391C0.211,-0.422 0.21,-0.451 0.212,-0.48Z" style="fill:white;fill-rule:nonzero;"/>
                </g>
                <g transform="matrix(643.298,0,0,643.298,1828.49,692.757)">
                    <path d="M0.328,-0.588C0.324,-0.571 0.319,-0.554 0.314,-0.537C0.294,-0.582 0.266,-0.608 0.233,-0.608C0.099,-0.608 -0.004,-0.302 -0.004,-0.136C-0.004,-0.049 0.033,0.02 0.087,0.02C0.121,0.02 0.161,-0.013 0.203,-0.067L0.188,-0L0.293,-0C0.327,-0.127 0.343,-0.235 0.346,-0.322C0.383,-0.408 0.416,-0.501 0.44,-0.588L0.328,-0.588ZM0.137,-0.101C0.122,-0.101 0.118,-0.118 0.118,-0.147C0.118,-0.265 0.192,-0.488 0.231,-0.488C0.246,-0.488 0.252,-0.441 0.252,-0.397C0.252,-0.376 0.25,-0.351 0.247,-0.321C0.203,-0.194 0.16,-0.101 0.137,-0.101Z" style="fill:white;fill-rule:nonzero;"/>
                </g>
            </g>
        </g>
    </g>
</svg>
