<?xml version="1.0" encoding="UTF-8" standalone="no"?>
<!DOCTYPE svg PUBLIC "-//W3C//DTD SVG 1.1//EN" "http://www.w3.org/Graphics/SVG/1.1/DTD/svg11.dtd">
<svg width="100%" height="100%" viewBox="0 0 1799 1000" version="1.1" xmlns="http://www.w3.org/2000/svg" xmlns:xlink="http://www.w3.org/1999/xlink" xml:space="preserve" xmlns:serif="http://www.serif.com/" style="fill-rule:evenodd;clip-rule:evenodd;stroke-linejoin:round;stroke-miterlimit:2;">
    <g transform="matrix(1,0,0,1,-3247.59,0)">
        <g id="Artboard2" transform="matrix(1.49898,0,0,1,1373.86,0)">
            <rect x="1250" y="0" width="1200" height="1000" style="fill:none;"/>
            <clipPath id="_clip1">
                <rect x="1250" y="0" width="1200" height="1000"/>
            </clipPath>
            <g clip-path="url(#_clip1)">
                <g transform="matrix(0.667119,0,0,1,-916.529,0)">
                    <rect x="3194.56" y="-47.53" width="2210.53" height="1365.82"/>
                </g>
                <g transform="matrix(0.667119,0,0,1,-1003.61,-55.3462)">
                    <g transform="matrix(789.779,0,0,789.779,3457.66,807.186)">
                        <path d="M0.405,-0.588L0.473,-0.824L0.281,-0.824L0.211,-0.588L0.036,-0.588L0.036,-0.421C0.076,-0.41 0.114,-0.397 0.149,-0.382L0.123,-0.294C0.091,-0.186 0.082,-0.131 0.082,-0.081C0.082,0.116 0.222,0.2 0.355,0.2C0.502,0.2 0.622,0.085 0.622,-0.081C0.622,-0.219 0.521,-0.358 0.421,-0.419L0.659,-0.419L0.659,-0.588L0.405,-0.588ZM0.433,-0.081C0.433,-0.02 0.409,0.035 0.358,0.035C0.321,0.035 0.275,-0.009 0.275,-0.081C0.275,-0.129 0.284,-0.166 0.296,-0.208L0.317,-0.281C0.392,-0.218 0.433,-0.146 0.433,-0.081Z" style="fill:white;fill-rule:nonzero;"/>
                    </g>
                    <g transform="matrix(789.779,0,0,789.779,4010.5,807.186)">
                        <path d="M0.35,-0.635C0.429,-0.635 0.481,-0.682 0.481,-0.753C0.481,-0.822 0.429,-0.871 0.35,-0.871C0.272,-0.871 0.22,-0.822 0.22,-0.753C0.22,-0.682 0.272,-0.635 0.35,-0.635ZM0.502,-0.152C0.442,-0.152 0.409,-0.202 0.409,-0.28C0.409,-0.38 0.462,-0.536 0.485,-0.588L0.032,-0.588L0.032,-0.419L0.256,-0.419C0.233,-0.349 0.223,-0.291 0.223,-0.229C0.223,-0.068 0.341,0.024 0.471,0.024C0.539,0.024 0.585,0.007 0.672,-0.029L0.672,-0.199C0.585,-0.164 0.546,-0.152 0.502,-0.152Z" style="fill:white;fill-rule:nonzero;"/>
                    </g>
                    <g transform="matrix(789.779,0,0,789.779,4563.35,807.186)">
                        <path d="M0.442,-0.612C0.371,-0.612 0.297,-0.581 0.233,-0.528C0.227,-0.551 0.221,-0.571 0.215,-0.588L0.03,-0.588C0.056,-0.512 0.079,-0.428 0.094,-0.349C0.064,-0.286 0.046,-0.216 0.046,-0.145C0.046,-0.04 0.099,0.024 0.167,0.024C0.259,0.024 0.294,-0.106 0.294,-0.188C0.294,-0.246 0.285,-0.31 0.273,-0.373C0.308,-0.416 0.352,-0.445 0.389,-0.445C0.44,-0.445 0.473,-0.401 0.473,-0.332L0.473,-0L0.661,-0L0.661,-0.34C0.661,-0.504 0.586,-0.612 0.442,-0.612Z" style="fill:white;fill-rule:nonzero;"/>
                    </g>
                </g>
            </g>
        </g>
    </g>
</svg>
