<?xml version="1.0" encoding="UTF-8" standalone="no"?>
<!DOCTYPE svg PUBLIC "-//W3C//DTD SVG 1.1//EN" "http://www.w3.org/Graphics/SVG/1.1/DTD/svg11.dtd">
<svg width="100%" height="100%" viewBox="0 0 2963 1000" version="1.1" xmlns="http://www.w3.org/2000/svg" xmlns:xlink="http://www.w3.org/1999/xlink" xml:space="preserve" xmlns:serif="http://www.serif.com/" style="fill-rule:evenodd;clip-rule:evenodd;stroke-linejoin:round;stroke-miterlimit:2;">
    <g transform="matrix(1,0,0,1,-5622,0)">
        <g id="Artboard3" transform="matrix(2.96235,0,0,1,-11032.7,0)">
            <rect x="5622.14" y="0" width="1000" height="1000" style="fill:none;"/>
            <clipPath id="_clip1">
                <rect x="5622.14" y="0" width="1000" height="1000"/>
            </clipPath>
            <g clip-path="url(#_clip1)">
                <g transform="matrix(0.506424,0,0,1.5002,3838.94,-259.584)">
                    <g transform="matrix(789.779,0,0,789.779,3457.66,807.186)">
                        <path d="M0.454,-0.774C0.419,-0.774 0.381,-0.744 0.348,-0.694C0.314,-0.744 0.278,-0.774 0.247,-0.774C0.144,-0.774 0.044,-0.498 0.044,-0L0.074,-0C0.074,-0.488 0.173,-0.746 0.248,-0.746C0.274,-0.746 0.304,-0.718 0.333,-0.671C0.279,-0.576 0.237,-0.426 0.237,-0.265C0.237,-0.101 0.278,0.009 0.349,0.009C0.421,0.009 0.461,-0.101 0.461,-0.265C0.461,-0.427 0.417,-0.575 0.363,-0.669C0.393,-0.717 0.424,-0.745 0.451,-0.745C0.537,-0.745 0.628,-0.488 0.628,-0L0.656,-0C0.656,-0.498 0.565,-0.774 0.454,-0.774ZM0.433,-0.265C0.433,-0.119 0.403,-0.019 0.349,-0.019C0.295,-0.019 0.267,-0.119 0.267,-0.265C0.267,-0.42 0.304,-0.556 0.349,-0.643C0.395,-0.553 0.433,-0.415 0.433,-0.265Z" style="fill:rgb(0,255,0);fill-rule:nonzero;"/>
                    </g>
                    <g transform="matrix(789.779,0,0,789.779,4010.5,807.186)">
                        <path d="M0.35,0.009C0.526,0.009 0.65,-0.156 0.65,-0.38C0.65,-0.604 0.526,-0.774 0.35,-0.774C0.174,-0.774 0.05,-0.605 0.05,-0.38C0.05,-0.156 0.174,0.009 0.35,0.009ZM0.35,-0.019C0.19,-0.019 0.082,-0.172 0.082,-0.38C0.082,-0.588 0.19,-0.746 0.35,-0.746C0.51,-0.746 0.618,-0.588 0.618,-0.38C0.618,-0.172 0.51,-0.019 0.35,-0.019Z" style="fill:rgb(0,255,0);fill-rule:nonzero;"/>
                    </g>
                    <g transform="matrix(789.779,0,0,789.779,4563.35,807.186)">
                        <path d="M0.458,-0.774C0.368,-0.774 0.264,-0.692 0.183,-0.578C0.146,-0.652 0.108,-0.717 0.078,-0.765L0.041,-0.765C0.078,-0.706 0.123,-0.631 0.162,-0.548C0.089,-0.437 0.038,-0.302 0.038,-0.185C0.038,-0.071 0.085,0.009 0.159,0.009C0.234,0.009 0.292,-0.071 0.292,-0.196C0.292,-0.308 0.249,-0.435 0.198,-0.546C0.275,-0.661 0.374,-0.746 0.458,-0.746C0.532,-0.746 0.592,-0.676 0.592,-0.529L0.592,-0L0.624,-0L0.624,-0.529C0.624,-0.701 0.556,-0.774 0.458,-0.774ZM0.261,-0.191C0.261,-0.085 0.212,-0.019 0.162,-0.019C0.111,-0.019 0.07,-0.085 0.07,-0.189C0.07,-0.291 0.114,-0.412 0.177,-0.515C0.225,-0.41 0.261,-0.296 0.261,-0.191Z" style="fill:rgb(0,255,0);fill-rule:nonzero;"/>
                    </g>
                    <g transform="matrix(789.779,0,0,789.779,5116.2,807.186)">
                        <path d="M0.35,0.009C0.526,0.009 0.65,-0.156 0.65,-0.38C0.65,-0.604 0.526,-0.774 0.35,-0.774C0.174,-0.774 0.05,-0.605 0.05,-0.38C0.05,-0.156 0.174,0.009 0.35,0.009ZM0.35,-0.019C0.19,-0.019 0.082,-0.172 0.082,-0.38C0.082,-0.588 0.19,-0.746 0.35,-0.746C0.51,-0.746 0.618,-0.588 0.618,-0.38C0.618,-0.172 0.51,-0.019 0.35,-0.019Z" style="fill:rgb(0,255,0);fill-rule:nonzero;"/>
                    </g>
                </g>
            </g>
        </g>
    </g>
</svg>
