<?xml version="1.0" encoding="UTF-8" standalone="no"?>
<!DOCTYPE svg PUBLIC "-//W3C//DTD SVG 1.1//EN" "http://www.w3.org/Graphics/SVG/1.1/DTD/svg11.dtd">
<svg width="100%" height="100%" viewBox="0 0 1864 1000" version="1.1" xmlns="http://www.w3.org/2000/svg" xmlns:xlink="http://www.w3.org/1999/xlink" xml:space="preserve" xmlns:serif="http://www.serif.com/" style="fill-rule:evenodd;clip-rule:evenodd;stroke-linejoin:round;stroke-miterlimit:2;">
    <g transform="matrix(1,0,0,1,-8897,0)">
        <g id="Artboard4" transform="matrix(1.8634,0,0,1,-7682.91,0)">
            <rect x="8897.68" y="0" width="1000" height="1000" style="fill:none;"/>
            <clipPath id="_clip1">
                <rect x="8897.68" y="0" width="1000" height="1000"/>
            </clipPath>
            <g clip-path="url(#_clip1)">
                <g transform="matrix(0.536654,0,0,1,7090.16,-84.1064)">
                    <rect x="3194.56" y="-47.53" width="2210.53" height="1365.82"/>
                </g>
                <g transform="matrix(0.80509,0,0,1.5002,6011.81,-250.584)">
                    <g transform="matrix(789.779,0,0,789.779,3457.66,807.186)">
                        <path d="M0.421,-0.787C0.395,-0.787 0.366,-0.76 0.339,-0.718C0.325,-0.76 0.299,-0.787 0.267,-0.787C0.138,-0.787 0.029,-0.328 -0.051,-0L0.077,-0C0.138,-0.284 0.234,-0.651 0.263,-0.651C0.268,-0.651 0.269,-0.644 0.269,-0.634C0.269,-0.615 0.263,-0.581 0.256,-0.54C0.208,-0.407 0.173,-0.254 0.173,-0.172C0.173,-0.134 0.182,-0.118 0.194,-0.118C0.255,-0.118 0.338,-0.47 0.349,-0.614C0.358,-0.638 0.365,-0.653 0.37,-0.653C0.377,-0.653 0.378,-0.642 0.378,-0.633C0.378,-0.505 0.334,-0.284 0.262,-0L0.389,-0C0.467,-0.315 0.493,-0.533 0.493,-0.646C0.493,-0.733 0.471,-0.787 0.421,-0.787Z" style="fill:rgb(0,255,0);fill-rule:nonzero;"/>
                    </g>
                    <g transform="matrix(789.779,0,0,789.779,3839.91,807.186)">
                        <path d="M0.421,-0.787C0.395,-0.787 0.366,-0.76 0.339,-0.718C0.325,-0.76 0.299,-0.787 0.267,-0.787C0.138,-0.787 0.029,-0.328 -0.051,-0L0.077,-0C0.138,-0.284 0.234,-0.651 0.263,-0.651C0.268,-0.651 0.269,-0.644 0.269,-0.634C0.269,-0.615 0.263,-0.581 0.256,-0.54C0.208,-0.407 0.173,-0.254 0.173,-0.172C0.173,-0.134 0.182,-0.118 0.194,-0.118C0.255,-0.118 0.338,-0.47 0.349,-0.614C0.358,-0.638 0.365,-0.653 0.37,-0.653C0.377,-0.653 0.378,-0.642 0.378,-0.633C0.378,-0.505 0.334,-0.284 0.262,-0L0.389,-0C0.467,-0.315 0.493,-0.533 0.493,-0.646C0.493,-0.733 0.471,-0.787 0.421,-0.787Z" style="fill:rgb(0,255,0);fill-rule:nonzero;"/>
                    </g>
                    <g transform="matrix(789.779,0,0,789.779,4222.17,807.186)">
                        <path d="M0.421,-0.787C0.395,-0.787 0.366,-0.76 0.339,-0.718C0.325,-0.76 0.299,-0.787 0.267,-0.787C0.138,-0.787 0.029,-0.328 -0.051,-0L0.077,-0C0.138,-0.284 0.234,-0.651 0.263,-0.651C0.268,-0.651 0.269,-0.644 0.269,-0.634C0.269,-0.615 0.263,-0.581 0.256,-0.54C0.208,-0.407 0.173,-0.254 0.173,-0.172C0.173,-0.134 0.182,-0.118 0.194,-0.118C0.255,-0.118 0.338,-0.47 0.349,-0.614C0.358,-0.638 0.365,-0.653 0.37,-0.653C0.377,-0.653 0.378,-0.642 0.378,-0.633C0.378,-0.505 0.334,-0.284 0.262,-0L0.389,-0C0.467,-0.315 0.493,-0.533 0.493,-0.646C0.493,-0.733 0.471,-0.787 0.421,-0.787Z" style="fill:rgb(0,255,0);fill-rule:nonzero;"/>
                    </g>
                    <g transform="matrix(789.779,0,0,789.779,4604.42,807.186)">
                        <path d="M0.421,-0.787C0.395,-0.787 0.366,-0.76 0.339,-0.718C0.325,-0.76 0.299,-0.787 0.267,-0.787C0.138,-0.787 0.029,-0.328 -0.051,-0L0.077,-0C0.138,-0.284 0.234,-0.651 0.263,-0.651C0.268,-0.651 0.269,-0.644 0.269,-0.634C0.269,-0.615 0.263,-0.581 0.256,-0.54C0.208,-0.407 0.173,-0.254 0.173,-0.172C0.173,-0.134 0.182,-0.118 0.194,-0.118C0.255,-0.118 0.338,-0.47 0.349,-0.614C0.358,-0.638 0.365,-0.653 0.37,-0.653C0.377,-0.653 0.378,-0.642 0.378,-0.633C0.378,-0.505 0.334,-0.284 0.262,-0L0.389,-0C0.467,-0.315 0.493,-0.533 0.493,-0.646C0.493,-0.733 0.471,-0.787 0.421,-0.787Z" style="fill:rgb(0,255,0);fill-rule:nonzero;"/>
                    </g>
                </g>
            </g>
        </g>
    </g>
</svg>
