<svg width="2449" height="1064.002" xmlns="http://www.w3.org/2000/svg"><path d="M264 786.002c96 0 177-64 207-154v148h22v-470h-22v148c-30-90-111-154-207-154-125 0-218 107-218 241s93 241 218 241zm-197-241c0-124 84-222 200-222 121 0 206 106 206 222s-85 222-206 222c-116 0-200-99-200-222zm563-495v730h22v-148c30 90 111 154 206 154 126 0 219-107 219-241s-93-241-219-241c-95 0-176 64-206 154v-408zm226 717c-121 0-206-107-206-223s85-221 206-221c116 0 200 99 200 222 0 124-84 222-200 222zm781-222c0-130-96-241-233-241-140 0-235 108-235 241 0 130 95 241 235 241 137 0 233-108 233-241zm-21 0c0 120-90 221-212 221-124 0-214-102-214-221 0-121 90-221 214-221 122 0 212 102 212 221zm136 43c0 132 73 198 177 198 105 0 178-66 178-198v-278h-22v280c0 119-63 176-156 176-92 0-155-57-155-176v-280h-22zm510-259v356c0 66 31 101 84 101 30 0 57-11 83-33l-10-15c-25 20-48 29-72 29-41 0-64-29-64-82v-356h142v-19h-142v-126h-21v126h-63v19zm0 0"/></svg>