<svg width="2487" height="1064.002" xmlns="http://www.w3.org/2000/svg"><path d="M267 788.002c89 0 165-56 198-136v128h36v-470h-36v128c-33-80-109-136-198-136-126 0-222 107-222 243s96 243 222 243zm-186-244c0-119 80-211 193-211 115 0 194 104 194 213s-79 211-194 211c-113 0-193-94-193-213zm555-494v730h36v-128c33 80 109 136 198 136 126 0 222-107 222-243s-96-243-222-243c-89 0-165 56-198 135v-387zm227 707c-115 0-194-104-194-213s79-211 194-211c112 0 193 94 193 213s-81 211-193 211zm794-212c0-132-98-243-237-243-141 0-239 109-239 243 0 132 98 243 239 243 139 0 237-109 237-243zm-37 0c0 115-84 211-200 211-118 0-203-98-203-211 0-115 85-211 203-211 116 0 200 97 200 211zm150 36c0 140 76 207 182 207 105 0 182-67 182-207v-271h-36v276c0 117-62 170-146 170s-146-53-146-170v-276h-36zm519-239v337c0 72 36 109 94 109 31 0 59-11 86-32l-16-25c-23 17-46 25-67 25-38 0-61-26-61-77v-337h139v-32h-139v-124h-36v124h-65v32zm0 0"/></svg>