<svg width="3273" height="1064.002" xmlns="http://www.w3.org/2000/svg"><path d="M501 780.002l66-470H455l-9 58c-33-44-85-73-153-73-146 0-262 124-262 283 0 124 83 217 205 217 62 0 117-25 159-64l-6 49zm-355-216c0-96 76-169 161-169 76 0 122 61 122 132 0 89-72 168-160 168-74 0-123-56-123-131zm956 216l102-730h-112l-45 318c-33-44-85-73-153-73-146 0-262 124-262 283 0 124 83 217 205 217 62 0 117-25 159-64l-6 49zm-355-216c0-96 76-169 161-169 76 0 122 61 122 132 0 89-72 168-160 168-74 0-123-56-123-131zm959 216l102-730h-112l-45 318c-33-44-85-73-153-73-146 0-262 124-262 283 0 124 83 217 205 217 62 0 117-25 159-64l-6 49zm-355-216c0-96 76-169 161-169 76 0 122 61 122 132 0 89-72 168-160 168-74 0-123-56-123-131zm762 16l13-91h-284l-13 91zm587-68c0-122-87-217-230-217-161 0-283 129-283 280 0 123 88 220 231 220 162 0 282-133 282-283zm-114 15c0 90-73 166-163 166-74 0-121-58-121-130 0-90 73-166 162-166 75 0 122 58 122 130zm295 253l37-262c13-88 69-125 118-125 46 0 86 32 74 110l-38 277h112l43-301c17-123-53-183-138-183-57 0-110 23-149 67l7-53h-112l-66 470zm0 0"/></svg>