<svg width="3227" height="1064.002" xmlns="http://www.w3.org/2000/svg"><path d="M270 796.002c56 0 101-20 134-55v39h160v-470H404v38c-33-34-78-54-134-54-135 0-230 112-230 251s95 251 230 251zm-70-251c0-58 47-105 105-105 59 0 105 47 105 105s-46 105-105 105c-58 0-105-47-105-105zm644 235v-730H684v730zm245 0h131l85-246 85 246h127l180-470h-163l-89 233-81-233h-118l-81 233-89-233H909zm853 16c56 0 101-20 134-55v39h160v-470h-160v38c-33-34-78-54-134-54-135 0-230 112-230 251s95 251 230 251zm-70-251c0-58 47-105 105-105 59 0 105 47 105 105s-46 105-105 105c-58 0-105-47-105-105zm419-235l188 422-126 283h161l313-705h-160l-105 246-105-246zm911 43c-47-34-107-59-178-59-72 0-174 45-174 152 0 153 192 139 192 194 0 13-12 23-28 23-43 0-74-23-119-56l-73 109c49 39 112 80 202 80 106 0 178-72 178-156 0-156-192-146-192-193 0-13 10-20 30-20 26 0 51 8 86 34zm0 0"/></svg>