<svg width="3871" height="1064.002" xmlns="http://www.w3.org/2000/svg"><path d="M270 796.002c56 0 101-20 134-55v39h160v-470H404v38c-33-34-78-54-134-54-135 0-230 112-230 251s95 251 230 251zm-70-251c0-58 47-105 105-105 59 0 105 47 105 105s-46 105-105 105c-58 0-105-47-105-105zm484 235h160v-293c0-35 28-54 52-54 22 0 45 15 45 49v298h160v-293c0-35 28-54 52-54 22 0 45 15 45 49v298h160v-319c0-114-72-167-149-167-47 0-98 20-136 58-26-39-66-58-108-58s-86 19-121 54v-38H684zm794-201c0 144 102 215 221 215 118 0 221-71 221-215v-269h-160v274c0 42-27 66-61 66s-61-24-61-66v-274h-160zm902-226c-47-34-107-59-178-59-72 0-174 45-174 152 0 153 192 139 192 194 0 13-12 23-28 23-43 0-74-23-119-56l-73 109c49 39 112 80 202 80 106 0 178-72 178-156 0-156-192-146-192-193 0-13 10-20 30-20 26 0 51 8 86 34zm245 427v-470h-160v470h160zm-79-530c53 0 94-42 94-95s-41-94-94-94-95 41-95 94 42 95 95 95zm199 530h160v-261c0-63 34-84 66-84 29 0 56 22 56 72v273h160v-319c0-114-72-167-151-167-45 0-93 17-131 51v-35h-160zm775 0c55 0 99-19 131-51v46c0 70-38 107-100 107-41 0-84-24-112-77l-131 70c50 104 146 153 242 153 144 0 261-90 261-262v-456h-160v37c-32-33-76-53-131-53-132 0-233 104-233 243s101 243 233 243zm32-340c59 0 105 47 105 105s-46 105-105 105c-58 0-105-47-105-105s47-105 105-105zm0 0"/></svg>