<svg width="3453" height="1064.002" xmlns="http://www.w3.org/2000/svg"><path d="M470 780.002l66-470h-54l-15 106c-27-68-90-116-178-116-140 0-256 121-256 276 0 123 80 214 205 214 75 0 147-43 191-103l-13 93zm-380-210c0-127 94-223 204-223 100 0 160 78 160 174 0 118-93 222-204 222-97 0-160-72-160-173zm567 210l40-281c14-99 82-152 143-152s103 43 90 134l-42 299h55l39-281c17-102 84-154 144-154 63 0 102 45 89 136l-41 299h54l42-304c18-121-42-176-125-176-64 0-123 33-161 95-15-64-63-95-126-95-54 0-112 29-150 89l11-79h-50l-66 470zm872 10c111 0 189-73 207-201l39-279h-54l-39 279c-15 105-73 152-152 152-80 0-130-48-115-152l39-279h-54l-39 279c-19 129 43 201 168 201zm644-435c-46-39-91-55-136-55-89 0-155 58-155 137 0 140 204 108 204 216 0 58-51 91-105 91-47 0-87-20-126-57l-32 36c39 36 87 67 158 67 91 0 159-57 159-143 0-141-204-111-204-217 0-51 44-85 97-85 34 0 72 15 109 45zm112 425c3-17 64-453 66-470h-54c-3 17-64 453-66 470h54zm53-552c25 0 44-20 44-45 0-20-14-34-36-34-25 0-45 19-45 44 0 20 15 35 37 35zm135 552l38-267c16-111 96-166 162-166 71 0 126 44 110 155l-39 278h54l40-284c19-132-51-196-147-196-59 0-124 33-164 97l12-87h-54l-66 470zm938-470h-54l-15 107c-27-71-93-117-179-117-145 0-254 117-254 270 0 124 82 214 203 214 78 0 149-42 193-102l-15 106c-17 117-103 188-195 188-74 0-128-40-163-111l-49 19c43 92 114 140 209 140 141 0 234-107 252-235zm-446 255c0-127 91-218 208-218 95 0 157 78 157 174 0 119-94 216-206 216-97 0-159-71-159-172zm0 0"/></svg>