<svg width="1743" height="1064.002" xmlns="http://www.w3.org/2000/svg"><path d="M274 795.002c62 0 116-26 154-68v53h114v-470H428v54c-38-43-92-69-154-69-131 0-232 108-232 250s101 250 232 250zm-117-251c0-85 60-147 142-147 81 0 135 74 135 150s-55 146-135 146c-82 0-142-64-142-149zm509 236h114v-262c0-87 50-123 99-123 45 0 89 31 89 108v277h113v-302c0-123-78-183-162-183-50 0-102 22-139 65v-50H666zm751 15c62 0 115-26 153-68v53h114v-730h-114v313c-38-42-91-68-153-68-130 0-233 108-233 250s103 250 233 250zm-118-251c0-85 60-147 142-147 81 0 135 74 135 150s-55 146-135 146c-82 0-142-64-142-149zm0 0"/></svg>