<svg width="1597" height="1064.002" xmlns="http://www.w3.org/2000/svg"><path d="M452 780.002l66-470h-22l-21 155c-15-91-87-161-194-161-139 0-246 122-246 269 0 120 76 213 199 213 89 0 176-65 216-147l-20 141zm-396-208c0-140 103-249 226-249 110 0 184 83 184 193 0 136-111 251-229 251-109 0-181-81-181-195zm555 208l38-272c17-120 112-185 185-185 88 0 149 52 130 182l-39 275h22l39-276c20-136-45-200-148-200-63 0-140 44-178 126l17-120h-22l-66 470zm876 0l103-730h-22l-58 414c-18-90-84-160-186-160-142 0-254 124-254 273 0 118 74 209 188 209 96 0 182-57 227-148l-20 142zm-396-205c0-137 106-252 233-252 106 0 177 87 177 194 0 132-111 250-238 250-105 0-172-85-172-192zm0 0"/></svg>