<svg width="2830" height="1064.002" xmlns="http://www.w3.org/2000/svg"><path d="M267 788.002c89 0 165-56 198-136v128h36v-470h-36v128c-33-80-109-136-198-136-126 0-222 107-222 243s96 243 222 243zm-186-244c0-119 80-211 193-211 115 0 194 104 194 213s-79 211-194 211c-113 0-193-94-193-213zm555 236h36v-270c0-116 79-177 160-177 82 0 135 51 135 158v289h36v-293c0-122-66-185-163-185-71 0-139 40-168 115v-107h-36zm697 8c89 0 165-56 198-136v128h36v-730h-36v388c-33-80-109-136-198-136-126 0-222 107-222 243s96 243 222 243zm-186-244c0-119 80-211 193-211 115 0 194 104 194 213s-79 211-194 211c-113 0-193-94-193-213zm496-234l196 453-110 251h38l303-704h-37l-175 408-176-408zm669 478c79 0 147-39 193-112l-26-19c-36 59-96 99-167 99-107 0-178-86-182-202h389c0-3 1-9 1-14 0-141-81-238-211-238-118 0-215 99-215 244 0 139 88 242 218 242zm-181-265c9-111 83-189 178-189 101 0 168 76 173 189zm501-181v337c0 72 36 109 94 109 31 0 59-11 86-32l-16-25c-23 17-46 25-67 25-38 0-61-26-61-77v-337h139v-32h-139v-124h-36v124h-65v32zm0 0"/></svg>