<svg width="4661" height="1064.002" xmlns="http://www.w3.org/2000/svg"><path d="M452 780.002l66-470h-22l-21 155c-15-91-87-161-194-161-139 0-246 122-246 269 0 120 76 213 199 213 89 0 176-65 216-147l-20 141zm-396-208c0-140 103-249 226-249 110 0 184 83 184 193 0 136-111 251-229 251-109 0-181-81-181-195zm555 208l38-272c17-120 112-185 185-185 88 0 149 52 130 182l-39 275h22l39-276c20-136-45-200-148-200-63 0-140 44-178 126l17-120h-22l-66 470zm933-270c0-115-78-206-212-206-147 0-262 125-262 271 0 115 80 211 215 211 146 0 259-138 259-276zm-22 1c0 132-109 255-237 255-117 0-194-83-194-192 0-139 112-250 240-250 118 0 191 82 191 187zm99-182h63l-50 356c-9 66 24 101 72 101 31 0 55-11 82-31l-9-16c-22 16-45 28-71 28-32 0-61-23-53-82l50-356h142l3-19h-142l18-126h-22l-18 126h-63zm277 451l38-272c17-120 109-185 191-185 84 0 142 57 124 182l-39 275h22l39-276c19-136-46-200-140-200-71 0-151 44-186 129l54-383h-22l-103 730zm460-204c0 129 77 210 193 210 74 0 137-30 199-101l-15-13c-58 66-116 94-184 94-100 0-172-71-172-191 0-9 0-18 1-26h397c3-16 4-33 4-49 0-113-66-196-188-196-125 0-235 114-235 272zm24-45c18-127 114-207 211-207 117 0 177 87 164 207zm497 249l38-272c19-135 108-182 184-182l3-22c-82 0-147 49-176 123l17-117h-22l-66 470zm637 0l66-470h-22l-21 155c-15-91-87-161-194-161-139 0-246 122-246 269 0 120 76 213 199 213 89 0 176-65 216-147l-20 141zm-396-208c0-140 103-249 226-249 110 0 184 83 184 193 0 136-111 251-229 251-109 0-181-81-181-195zm555 208l38-272c17-120 112-185 185-185 88 0 149 52 130 182l-39 275h22l39-276c20-136-45-200-148-200-63 0-140 44-178 126l17-120h-22l-66 470zm876 0l103-730h-22l-58 414c-18-90-84-160-186-160-142 0-254 124-254 273 0 118 74 209 188 209 96 0 182-57 227-148l-20 142zm-396-205c0-137 106-252 233-252 106 0 177 87 177 194 0 132-111 250-238 250-105 0-172-85-172-192zm0 0"/></svg>