<svg width="4293" height="1064.002" xmlns="http://www.w3.org/2000/svg"><path d="M264 786.002c96 0 177-64 207-154v148h22v-470h-22v148c-30-90-111-154-207-154-125 0-218 107-218 241s93 241 218 241zm-197-241c0-124 84-222 200-222 121 0 206 106 206 222s-85 222-206 222c-116 0-200-99-200-222zm563 235h22v-261c0-146 74-193 150-193v-22c-75 0-127 44-150 121v-115h-22zm271 0v-470h-21v470h21zm-10-554c12 0 21-9 21-21s-9-20-21-20c-11 0-20 8-20 20s9 21 20 21zm388 123c-41-30-81-45-124-45-65 0-127 45-127 113 0 152 244 107 244 247 0 76-65 103-120 103s-97-24-136-53l-12 15c40 30 88 57 148 57 65 0 141-34 141-122 0-158-244-112-244-247 0-59 53-94 106-94 36 0 72 12 113 40zm145-20v356c0 66 31 101 84 101 30 0 57-11 83-33l-10-15c-25 20-48 29-72 29-41 0-64-29-64-82v-356h142v-19h-142v-126h-21v126h-63v19zm681 216c0-130-96-241-233-241-140 0-235 108-235 241 0 130 95 241 235 241 137 0 233-108 233-241zm-21 0c0 120-90 221-212 221-124 0-214-102-214-221 0-121 90-221 214-221 122 0 212 102 212 221zm485 173c-45 33-90 48-141 48-119 0-210-89-210-221 0-133 91-221 210-221 54 0 95 13 141 48l12-15c-52-37-93-53-152-53-138 0-232 104-232 241s94 241 232 241c56 0 103-17 152-52zm113 62h22v-261c0-146 74-193 150-193v-22c-75 0-127 44-150 121v-115h-22zm422 6c96 0 177-64 207-154v148h22v-470h-22v148c-30-90-111-154-207-154-125 0-218 107-218 241s93 241 218 241zm-197-241c0-124 84-222 200-222 121 0 206 106 206 222s-85 222-206 222c-116 0-200-99-200-222zm580-216v356c0 66 31 101 84 101 30 0 57-11 83-33l-10-15c-25 20-48 29-72 29-41 0-64-29-64-82v-356h142v-19h-142v-126h-21v126h-63v19zm280 451v-470h-21v470h21zm-10-554c12 0 21-9 21-21s-9-20-21-20c-11 0-20 8-20 20s9 21 20 21zm492 492c-45 33-90 48-141 48-119 0-210-89-210-221 0-133 91-221 210-221 54 0 95 13 141 48l12-15c-52-37-93-53-152-53-138 0-232 104-232 241s94 241 232 241c56 0 103-17 152-52zm0 0"/></svg>