<svg width="4990" height="1064.002" xmlns="http://www.w3.org/2000/svg"><path d="M274 795.002c62 0 116-26 154-68v53h114v-470H428v54c-38-43-92-69-154-69-131 0-232 108-232 250s101 250 232 250zm-117-251c0-85 60-147 142-147 81 0 135 74 135 150s-55 146-135 146c-82 0-142-64-142-149zm509 236h114v-244c0-105 67-136 148-136v-105c-55 0-110 22-148 66v-51H666zm444 0v-470H996v470h114zm-54-542c40 0 71-31 71-71 0-41-31-71-71-71s-72 30-72 71c0 40 32 71 72 71zm486 116c-42-34-97-59-156-59-66 0-161 42-161 142 0 158 211 128 211 212 0 32-27 51-58 51-45 0-84-24-124-57l-55 77c41 34 100 75 183 75 91 0 167-60 167-146 0-163-212-135-212-212 0-30 26-47 56-47 27 0 56 10 93 40zm138 56v230c0 107 64 155 147 155 40 0 73-11 103-30l-39-88c-19 9-36 14-51 14-28 0-46-18-46-55v-226h128v-100h-128v-116h-114v116h-78v100zm794 134c0-138-108-249-254-249s-254 113-254 251 108 249 254 249 254-113 254-251zm-115 2c0 80-58 146-139 146s-139-67-139-148c0-80 58-146 139-146s139 67 139 148zm554 106c-29 26-65 40-102 40-74 0-138-62-138-149s64-145 138-145c37 0 73 14 102 40l68-77c-45-40-99-66-169-66-146 0-254 114-254 252s108 248 254 248c70 0 124-26 169-66zm145 128h114v-244c0-105 67-136 148-136v-105c-55 0-110 22-148 66v-51h-114zm521 15c62 0 116-26 154-68v53h114v-470h-114v54c-38-43-92-69-154-69-131 0-232 108-232 250s101 250 232 250zm-117-251c0-85 60-147 142-147 81 0 135 74 135 150s-55 146-135 146c-82 0-142-64-142-149zm545-134v230c0 107 64 155 147 155 40 0 73-11 103-30l-39-88c-19 9-36 14-51 14-28 0-46-18-46-55v-226h128v-100h-128v-116h-114v116h-78v100zm441 370v-470h-114v470h114zm-54-542c40 0 71-31 71-71 0-41-31-71-71-71s-72 30-72 71c0 40 32 71 72 71zm514 414c-29 26-65 40-102 40-74 0-138-62-138-149s64-145 138-145c37 0 73 14 102 40l68-77c-45-40-99-66-169-66-146 0-254 114-254 252s108 248 254 248c70 0 124-26 169-66zm0 0"/></svg>