<svg width="1041" height="1064.002" xmlns="http://www.w3.org/2000/svg"><path d="M522 780.002l66-470H432l-7 45c-29-37-73-61-134-61-153 0-261 129-261 283 0 123 82 219 198 219 59 0 106-21 143-53l-5 37zm-334-222c0-66 59-122 124-122 55 0 94 43 94 96 0 66-60 122-125 122-55 0-93-43-93-96zm843-202c-42-34-94-62-168-62-89 0-193 50-193 169 0 129 169 124 169 175 0 16-17 28-35 28-43 0-74-20-113-53l-85 103c43 39 100 80 200 80 112 0 190-79 190-173 0-137-168-127-168-175 0-15 12-24 35-24 26 0 51 7 84 32zm0 0"/></svg>