<svg width="4990" height="1064.002" xmlns="http://www.w3.org/2000/svg"><path d="M267 788.002c89 0 165-56 198-136v128h36v-470h-36v128c-33-80-109-136-198-136-126 0-222 107-222 243s96 243 222 243zm-186-244c0-119 80-211 193-211 115 0 194 104 194 213s-79 211-194 211c-113 0-193-94-193-213zm809-194c-41-31-83-48-128-48-65 0-133 43-133 118 0 154 239 111 239 242 0 68-58 95-110 95-53 0-96-24-134-54l-19 24c39 31 89 61 153 61 68 0 145-38 145-126 0-160-239-115-239-242 0-55 49-88 98-88 34 0 69 12 109 42zm378 0c-41-31-83-48-128-48-65 0-133 43-133 118 0 154 239 111 239 242 0 68-58 95-110 95-53 0-96-24-134-54l-19 24c39 31 89 61 153 61 68 0 145-38 145-126 0-160-239-115-239-242 0-55 49-88 98-88 34 0 69 12 109 42zm577 195c0-132-98-243-237-243-141 0-239 109-239 243 0 132 98 243 239 243 139 0 237-109 237-243zm-37 0c0 115-84 211-200 211-118 0-203-98-203-211 0-115 85-211 203-211 116 0 200 97 200 211zm498 163c-44 33-87 48-135 48-111 0-200-85-200-212 0-126 89-210 200-210 51 0 91 14 135 48l19-25c-49-38-93-55-154-55-139 0-236 107-236 244s97 242 236 242c59 0 107-18 154-54zm155 72v-470h-36v470h36zm-16-553c16 0 28-13 28-29 0-17-12-29-28-29-17 0-29 12-29 29 0 16 12 29 29 29zm347 561c89 0 165-56 198-136v128h36v-470h-36v128c-33-80-109-136-198-136-126 0-222 107-222 243s96 243 222 243zm-186-244c0-119 80-211 193-211 115 0 194 104 194 213s-79 211-194 211c-113 0-193-94-193-213zm574-202v337c0 72 36 109 94 109 31 0 59-11 86-32l-16-25c-23 17-46 25-67 25-38 0-61-26-61-77v-337h139v-32h-139v-124h-36v124h-65v32zm304 438v-470h-36v470h36zm-16-553c16 0 28-13 28-29 0-17-12-29-28-29-17 0-29 12-29 29 0 16 12 29 29 29zm601 318c0-132-98-243-237-243-141 0-239 109-239 243 0 132 98 243 239 243 139 0 237-109 237-243zm-37 0c0 115-84 211-200 211-118 0-203-98-203-211 0-115 85-211 203-211 116 0 200 97 200 211zm150 235h36v-270c0-116 79-177 160-177 82 0 135 51 135 158v289h36v-293c0-122-66-185-163-185-71 0-139 40-168 115v-107h-36zm752-430c-41-31-83-48-128-48-65 0-133 43-133 118 0 154 239 111 239 242 0 68-58 95-110 95-53 0-96-24-134-54l-19 24c39 31 89 61 153 61 68 0 145-38 145-126 0-160-239-115-239-242 0-55 49-88 98-88 34 0 69 12 109 42zm0 0"/></svg>