<svg width="1103" height="1064.002" xmlns="http://www.w3.org/2000/svg"><path d="M27 780.002h54l15-106c28 69 92 116 175 116 140 0 259-122 259-278 0-121-79-212-200-212-78 0-150 40-196 104l50-354h-54zm290-433c95 0 157 74 157 171 0 127-96 225-208 225-98 0-156-80-156-174 0-118 93-222 207-222zm295 231c0 126 75 212 202 212 81 0 147-33 205-102l-38-32c-41 47-96 85-166 85-108 0-146-87-146-182h381c4-21 6-41 6-62 0-116-69-197-194-197-135 0-250 119-250 278zm63-65c23-100 102-164 186-164 93 0 143 65 138 164zm0 0"/></svg>