<svg width="1058" height="1064.002" xmlns="http://www.w3.org/2000/svg"><path d="M70 50.002v730h10v-164c28 97 113 168 214 168 125 0 216-107 216-239s-91-239-216-239c-101 0-186 71-214 168v-424zm10 517c-1-7-1-14-1-22s0-15 1-22c10-117 101-208 214-208 120 0 206 103 206 230s-86 230-206 230c-113 0-204-91-214-208zm522-22c0 142 86 239 209 239 76 0 145-38 190-115l-8-5c-43 74-110 111-182 111-118 0-199-92-199-229h400v-9c0-139-79-231-202-231-114 0-208 94-208 239zm10-8c3-131 86-222 198-222 116 0 192 88 192 222zm0 0"/></svg>