<svg width="2244" height="1064.002" xmlns="http://www.w3.org/2000/svg"><path d="M60 50.002v730h160v-37c32 33 76 53 131 53 132 0 233-112 233-251s-101-251-233-251c-55 0-99 20-131 53v-297zm259 600c-59 0-105-47-105-105s46-105 105-105c58 0 105 47 105 105s-47 105-105 105zm605 146c87 0 147-34 197-78l-85-101c-41 35-76 47-112 47-45 0-79-25-96-66h323c0-4 4-35 4-53 0-139-91-251-241-251-143 0-251 114-251 253 0 148 98 249 261 249zm-98-310c15-42 48-66 88-66 43 0 69 24 80 66zm642 294c55 0 99-19 131-51v46c0 70-38 107-100 107-41 0-84-24-112-77l-131 70c50 104 146 153 242 153 144 0 261-90 261-262v-456h-160v37c-32-33-76-53-131-53-132 0-233 104-233 243s101 243 233 243zm32-340c59 0 105 47 105 105s-46 105-105 105c-58 0-105-47-105-105s47-105 105-105zm719-87c-47-34-107-59-178-59-72 0-174 45-174 152 0 153 192 139 192 194 0 13-12 23-28 23-43 0-74-23-119-56l-73 109c49 39 112 80 202 80 106 0 178-72 178-156 0-156-192-146-192-193 0-13 10-20 30-20 26 0 51 8 86 34zm0 0"/></svg>