<svg width="3437" height="1064.002" xmlns="http://www.w3.org/2000/svg"><path d="M65 50.002v730h80v-65c43 49 103 79 170 79 128 0 233-105 233-249s-105-249-233-249c-67 0-127 30-170 78v-324zm232 675c-98 0-158-93-158-183 0-91 60-177 158-177 99 0 169 77 169 182s-70 178-169 178zm569 69c85 0 152-40 200-105l-58-45c-24 33-72 78-142 78-86 0-141-72-150-155h369s1-14 1-22c0-145-85-249-225-249-126 0-228 106-228 251 0 135 92 247 233 247zm-147-295c16-78 74-131 142-131 76 0 125 54 139 131zm555 281v-730h-80v730zm210 0v-470h-80v470h80zm-35-550c31 0 54-24 54-55s-23-54-54-54-55 23-55 54 24 55 55 55zm376 564c85 0 152-40 200-105l-58-45c-24 33-72 78-142 78-86 0-141-72-150-155h369s1-14 1-22c0-145-85-249-225-249-126 0-228 106-228 251 0 135 92 247 233 247zm-147-295c16-78 74-131 142-131 76 0 125 54 139 131zm384-189l209 470h48l209-470h-84l-147 329-148-329zm716 484c85 0 152-40 200-105l-58-45c-24 33-72 78-142 78-86 0-141-72-150-155h369s1-14 1-22c0-145-85-249-225-249-126 0-228 106-228 251 0 135 92 247 233 247zm-147-295c16-78 74-131 142-131 76 0 125 54 139 131zm756-145c-38-34-89-58-139-58-63 0-153 40-153 134 0 162 226 121 226 225 0 47-39 72-81 72-46 0-91-25-127-58l-41 54c34 31 91 71 168 71 81 0 159-51 159-139 0-168-226-126-226-225 0-43 37-67 75-67 28 0 59 11 98 44zm0 0"/></svg>