<svg width="2470" height="1064.002" xmlns="http://www.w3.org/2000/svg"><path d="M67 50.002v730h54v-101c38 66 107 111 186 111 127 0 227-105 227-245s-100-245-227-245c-79 0-148 44-186 110v-360zm229 693c-108 0-179-99-179-200 0-102 71-196 179-196 107 0 182 86 182 199s-75 197-182 197zm326-197c0 138 90 244 224 244 82 0 150-39 197-108l-40-31c-31 48-86 90-157 90-97 0-162-80-168-182h381v-17c0-143-82-242-216-242-122 0-221 101-221 246zm58-33c12-97 79-164 163-164 90 0 149 66 158 164zm493-153v311c0 79 43 119 106 119 34 0 62-10 90-31l-23-39c-21 15-42 22-62 22-34 0-57-23-57-71v-311h136v-50h-136v-123h-54v123h-67v50zm303 0v311c0 79 43 119 106 119 34 0 62-10 90-31l-23-39c-21 15-42 22-62 22-34 0-57-23-57-71v-311h136v-50h-136v-123h-54v123h-67v50zm238 186c0 138 90 244 224 244 82 0 150-39 197-108l-40-31c-31 48-86 90-157 90-97 0-162-80-168-182h381v-17c0-143-82-242-216-242-122 0-221 101-221 246zm58-33c12-97 79-164 163-164 90 0 149 66 158 164zm491 267h54v-262c0-123 73-165 148-165v-53c-63 0-117 33-148 95v-85h-54zm0 0"/></svg>