<svg width="2931" height="1064.002" xmlns="http://www.w3.org/2000/svg"><path d="M60 50.002v730h160v-37c32 33 76 53 131 53 132 0 233-112 233-251s-101-251-233-251c-55 0-99 20-131 53v-297zm259 600c-59 0-105-47-105-105s46-105 105-105c58 0 105 47 105 105s-47 105-105 105zm605 146c87 0 147-34 197-78l-85-101c-41 35-76 47-112 47-45 0-79-25-96-66h323c0-4 4-35 4-53 0-139-91-251-241-251-143 0-251 114-251 253 0 148 98 249 261 249zm-98-310c15-42 48-66 88-66 43 0 69 24 80 66zm459-40v167c0 130 80 183 179 183 45 0 81-12 113-27l-48-132c-17 7-32 10-44 10-27 0-40-16-40-44v-157h124v-136h-124v-110h-160v110h-90v136zm414 0v167c0 130 80 183 179 183 45 0 81-12 113-27l-48-132c-17 7-32 10-44 10-27 0-40-16-40-44v-157h124v-136h-124v-110h-160v110h-90v136zm585 350c87 0 147-34 197-78l-85-101c-41 35-76 47-112 47-45 0-79-25-96-66h323c0-4 4-35 4-53 0-139-91-251-241-251-143 0-251 114-251 253 0 148 98 249 261 249zm-98-310c15-42 48-66 88-66 43 0 69 24 80 66zm429 294h160v-219c0-105 62-126 151-126v-141c-56 0-110 18-151 53v-37h-160zm0 0"/></svg>