<svg width="2587" height="1064.002" xmlns="http://www.w3.org/2000/svg"><path d="M25 780.002h80l10-68c36 50 93 82 166 82 141 0 263-121 263-282 0-125-83-216-209-216-65 0-125 27-172 71l45-317h-80zm290-415c89 0 146 66 146 156 0 118-89 204-188 204-92 0-142-75-142-159 0-105 80-201 184-201zm308 215c0 123 74 214 209 214 85 0 154-37 209-104l-56-47c-28 33-81 79-151 79-90 0-128-74-128-155h369c5-24 8-48 8-72 0-118-71-199-200-199-142 0-260 123-260 284zm94-81c25-80 93-131 166-131s117 48 117 131zm500-116l-39 277c-12 87 38 134 112 134 35 0 66-11 101-28l-27-60c-21 11-43 17-61 17-31 0-51-19-45-63l39-277h131l10-73h-131l17-120h-80l-17 120h-70l-10 73zm321 0l-39 277c-12 87 38 134 112 134 35 0 66-11 101-28l-27-60c-21 11-43 17-61 17-31 0-51-19-45-63l39-277h131l10-73h-131l17-120h-80l-17 120h-70l-10 73zm225 197c0 123 74 214 209 214 85 0 154-37 209-104l-56-47c-28 33-81 79-151 79-90 0-128-74-128-155h369c5-24 8-48 8-72 0-118-71-199-200-199-142 0-260 123-260 284zm94-81c25-80 93-131 166-131s117 48 117 131zm516 281l37-263c15-105 92-142 166-142l11-79c-58 0-115 24-156 71l8-57h-80l-66 470zm0 0"/></svg>