<svg width="2729" height="1064.002" xmlns="http://www.w3.org/2000/svg"><path d="M23 780.002h112l8-58c34 44 86 73 153 73 146 0 262-125 262-283 0-124-82-217-204-217-62 0-117 24-160 63l44-308H126zm297-385c75 0 124 56 124 131 0 96-77 169-161 169-77 0-122-62-122-132 0-89 72-168 159-168zm315 185c0 125 80 215 221 215 86 0 151-33 206-91l-63-72c-35 34-82 67-138 67-68 0-108-50-113-120h352c6-24 10-51 10-78 0-119-72-206-207-206-151 0-268 126-268 285zm125-86c24-65 80-105 140-105 61 0 96 38 98 105zm488-86l-32 223c-15 105 40 164 132 164 38 0 69-11 103-27l-28-90c-20 10-40 15-55 15-29 0-46-18-41-56l33-229h128l14-98h-129l17-116h-112l-17 116h-78l-13 98zm355 0l-32 223c-15 105 40 164 132 164 38 0 69-11 103-27l-28-90c-20 10-40 15-55 15-29 0-46-18-41-56l33-229h128l14-98h-129l17-116h-112l-17 116h-78l-13 98zm254 172c0 125 80 215 221 215 86 0 151-33 206-91l-63-72c-35 34-82 67-138 67-68 0-108-50-113-120h352c6-24 10-51 10-78 0-119-72-206-207-206-151 0-268 126-268 285zm125-86c24-65 80-105 140-105 61 0 96 38 98 105zm530 286l34-238c16-108 88-143 168-143l15-104c-59 0-115 22-158 66l7-51h-112l-66 470zm0 0"/></svg>