<svg width="4026" height="1064.002" xmlns="http://www.w3.org/2000/svg"><path d="M20 780.002h156l7-45c29 37 73 61 134 61 153 0 261-129 261-283 0-123-82-219-198-219-58 0-106 21-142 53l41-297H123zm307-344c55 0 93 43 93 96 0 66-59 122-124 122-55 0-94-43-94-96 0-66 60-122 125-122zm325 144c0 128 89 216 238 216 87 0 146-28 202-73l-74-105c-45 35-83 49-120 49-46 0-78-27-89-71h325c7-25 14-55 14-86 0-121-74-216-218-216-162 0-278 130-278 286zm168-93c21-44 61-70 103-70 44 0 69 26 74 70zm468-44l-22 149c-19 128 43 204 159 204 42 0 75-10 107-24l-30-132c-19 8-34 11-46 11-27 0-39-16-35-45l23-163h125l19-133h-125l15-110h-156l-15 110h-89l-19 133zm430 337h127l122-249 51 249h123l246-470h-159l-124 238-49-238h-115l-119 245-59-245h-158zm648-200c0 128 89 216 238 216 87 0 146-28 202-73l-74-105c-45 35-83 49-120 49-46 0-78-27-89-71h325c7-25 14-55 14-86 0-121-74-216-218-216-162 0-278 130-278 286zm168-93c21-44 61-70 103-70 44 0 69 26 74 70zm402 93c0 128 89 216 238 216 87 0 146-28 202-73l-74-105c-45 35-83 49-120 49-46 0-78-27-89-71h325c7-25 14-55 14-86 0-121-74-216-218-216-162 0-278 130-278 286zm168-93c21-44 61-70 103-70 44 0 69 26 74 70zm548 293l37-261c9-65 48-87 81-87 31 0 56 22 48 75l-38 273h156l45-317c16-114-48-168-126-168-57 0-105 22-143 56l6-41h-156l-66 470zm0 0"/></svg>