<svg width="1425" height="1064.002" xmlns="http://www.w3.org/2000/svg"><path d="M25 780.002h80l10-68c36 50 93 82 166 82 141 0 263-121 263-282 0-125-83-216-209-216-65 0-125 27-172 71l45-317h-80zm290-415c89 0 146 66 146 156 0 118-89 204-188 204-92 0-142-75-142-159 0-105 80-201 184-201zm490 429c119 0 199-77 217-209l39-275h-80l-39 275c-14 100-63 137-135 137-65 0-111-41-97-137l39-275h-80l-39 275c-18 133 45 209 175 209zm399-411l-39 277c-12 87 38 134 112 134 35 0 66-11 101-28l-27-60c-21 11-43 17-61 17-31 0-51-19-45-63l39-277h131l10-73h-131l17-120h-80l-17 120h-70l-10 73zm0 0"/></svg>