<svg width="1552" height="1064.002" xmlns="http://www.w3.org/2000/svg"><path d="M383 675.002c-45 33-86 47-126 47-75 0-142-62-142-156 0-121 91-198 182-198 40 0 83 13 131 47l43-58c-52-42-105-61-170-61-157 0-269 131-269 281 0 121 82 217 221 217 63 0 118-21 166-59zm557 105l66-470h-80l-10 68c-36-50-93-82-166-82-141 0-263 121-263 282 0 125 83 216 209 216 65 0 125-27 172-71l-8 57zm-370-211c0-118 89-204 188-204 92 0 142 75 142 159 0 105-80 201-184 201-89 0-146-66-146-156zm578 211l37-263c15-105 84-152 145-152 57 0 107 39 93 135l-39 280h80l41-289c18-130-56-195-147-195-56 0-112 25-153 75l9-61h-80l-66 470zm0 0"/></svg>