<svg width="1519" height="1064.002" xmlns="http://www.w3.org/2000/svg"><path d="M385 694.002c-47 33-91 47-132 47-93 0-163-70-163-172 0-127 100-220 205-220 49 0 90 14 136 47l30-39c-48-38-97-57-164-57-150 0-264 130-264 276 0 118 80 214 217 214 58 0 111-19 160-55zm534 86l66-470h-54l-15 106c-27-68-90-116-178-116-140 0-256 121-256 276 0 123 80 214 205 214 75 0 147-43 191-103l-13 93zm-380-210c0-127 94-223 204-223 100 0 160 78 160 174 0 118-93 222-204 222-97 0-160-72-160-173zm567 210l38-267c16-111 96-166 162-166 71 0 126 44 110 155l-39 278h54l40-284c19-132-51-196-147-196-59 0-124 33-164 97l12-87h-54l-66 470zm0 0"/></svg>