<svg width="4581" height="1064.002" xmlns="http://www.w3.org/2000/svg"><path d="M574 578.002c-52 44-114 68-174 68-112 0-182-84-182-192 0-144 118-244 238-244 66 0 120 28 171 79l103-116c-61-66-141-113-257-113-249 0-428 189-428 413 0 181 139 323 344 323 120 0 199-38 279-103zm312 202c2-10 65-460 66-470H796c-1 10-64 460-66 470h156zm2-532c57 0 100-49 101-105 0-46-32-80-86-80-58 0-99 48-99 105-1 46 32 80 84 80zm270 532l29-204c16-111 82-144 171-144l19-138c-59 0-115 20-159 59l6-43h-156l-66 470zm531-160c-24 21-56 34-88 34-55 0-89-43-89-97 0-67 53-121 120-121 32 0 58 11 81 32l105-98c-41-43-95-76-176-76-169 0-288 130-288 282 0 124 96 220 238 220 82 0 130-25 183-67zm359 174c128 0 220-71 240-215l38-269h-155l-39 274c-6 45-39 70-74 70s-60-25-54-70l39-274h-157l-38 269c-20 144 72 215 200 215zm478-14l103-730h-156l-103 730zm622 0l66-470h-156l-7 45c-29-37-73-61-134-61-153 0-261 129-261 283 0 123 82 219 198 219 59 0 106-21 143-53l-5 37zm-334-222c0-66 59-122 124-122 55 0 94 43 94 96 0 66-60 122-125 122-55 0-93-43-93-96zm605 222l29-204c16-111 82-144 171-144l19-138c-59 0-115 20-159 59l6-43h-156l-66 470zm723-273c0-122-93-213-239-213-167 0-288 130-288 282 0 124 92 220 238 220 169 0 289-139 289-289zm-158 26c0 67-53 121-122 121-55 0-89-44-89-97 0-67 53-121 120-121 56 0 91 44 91 97zm378 247l29-204c16-111 82-144 171-144l19-138c-59 0-115 20-159 59l6-43h-156l-66 470zm0 0"/></svg>