<svg width="3952" height="1064.002" xmlns="http://www.w3.org/2000/svg"><path d="M570 668.002c-71 49-134 71-206 71-150 0-257-110-257-271 0-203 162-351 342-351 70 0 134 21 191 70l35-39c-56-53-128-82-223-82-227 0-404 183-404 409 0 182 123 315 316 315 87 0 157-29 233-78zm178 112c3-17 64-453 66-470h-54c-3 17-64 453-66 470h54zm53-552c25 0 44-20 44-45 0-20-14-34-36-34-25 0-45 19-45 44 0 20 15 35 37 35zm135 552l38-267c17-118 99-160 174-160l7-53c-68 0-128 34-164 93l11-83h-54l-66 470zm553-86c-47 33-91 47-132 47-93 0-163-70-163-172 0-127 100-220 205-220 49 0 90 14 136 47l30-39c-48-38-97-57-164-57-150 0-264 130-264 276 0 118 80 214 217 214 58 0 111-19 160-55zm292 96c111 0 189-73 207-201l39-279h-54l-39 279c-15 105-73 152-152 152-80 0-130-48-115-152l39-279h-54l-39 279c-19 129 43 201 168 201zm366-10l103-730h-54l-103 730zm578 0l66-470h-54l-15 106c-27-68-90-116-178-116-140 0-256 121-256 276 0 123 80 214 205 214 75 0 147-43 191-103l-13 93zm-380-210c0-127 94-223 204-223 100 0 160 78 160 174 0 118-93 222-204 222-97 0-160-72-160-173zm567 210l38-267c17-118 99-160 174-160l7-53c-68 0-128 34-164 93l11-83h-54l-66 470zm692-267c0-119-81-213-219-213-153 0-272 126-272 275 0 119 83 215 221 215 152 0 270-132 270-277zm-56 4c0 119-97 224-213 224-100 0-165-75-165-171 0-121 98-221 213-221 101 0 165 74 165 168zm185 263l38-267c17-118 99-160 174-160l7-53c-68 0-128 34-164 93l11-83h-54l-66 470zm0 0"/></svg>