<svg width="2910" height="1064.002" xmlns="http://www.w3.org/2000/svg"><path d="M575 618.002c-66 47-127 70-191 70-124 0-214-97-214-228 0-171 143-292 285-292 67 0 123 24 178 75l75-83c-60-60-135-99-243-99-237 0-419 190-419 413 0 180 132 321 333 321 102 0 177-35 258-91zm253 162c2-16 64-454 66-470H782c-2 16-64 454-66 470h112zm24-542c44 0 78-37 78-81 0-35-25-61-65-61-44 0-78 36-78 80 0 35 26 62 65 62zm212 542l34-238c16-108 88-143 168-143l15-104c-59 0-115 22-158 66l7-51h-112l-66 470zm539-128c-36 28-73 41-110 41-66 0-119-54-119-131 0-98 75-165 156-165 36 0 72 12 110 40l69-75c-47-42-101-67-173-67-162 0-277 131-277 282 0 122 88 218 228 218 71 0 123-23 174-63zm240 128l103-730h-112l-103 730zm135-200c0 125 80 215 221 215 86 0 151-33 206-91l-63-72c-35 34-82 67-138 67-68 0-108-50-113-120h352c6-24 10-51 10-78 0-119-72-206-207-206-151 0-268 126-268 285zm125-86c24-65 80-105 140-105 61 0 96 38 98 105zm789-138c-46-39-95-61-154-61-91 0-177 59-177 157 0 137 185 116 185 192 0 36-34 57-68 57-45 0-83-22-117-55l-63 74c35 34 90 75 181 75 105 0 179-70 179-163 0-140-184-119-184-193 0-31 27-50 61-50 29 0 61 11 94 38zm0 0"/></svg>