<svg width="4876" height="1064.002" xmlns="http://www.w3.org/2000/svg"><path d="M387 709.002c-50 32-95 47-138 47-105 0-178-78-178-184 0-133 106-238 222-238 56 0 95 16 141 49l19-26c-44-36-91-55-158-55-147 0-261 130-261 274 0 116 78 212 214 212 54 0 105-19 155-53zm573-198c0-116-79-209-215-209-149 0-266 126-266 273 0 117 81 213 217 213 150 0 264-135 264-277zm-36 3c0 126-104 242-227 242-110 0-181-80-181-184 0-131 105-238 228-238 110 0 180 79 180 180zm149 266l38-270c16-116 105-177 175-177 81 0 139 49 121 171l-39 276h36l40-280c19-134-48-198-148-198-62 0-133 40-172 114l15-106h-36l-66 470zm879 0l103-730h-36l-56 393c-22-80-86-141-180-141-142 0-257 123-257 275 0 120 77 211 194 211 88 0 167-50 213-129l-17 121zm-389-207c0-132 101-240 221-240 103 0 169 84 169 186 0 125-103 238-225 238-101 0-165-80-165-184zm532 4c0 127 76 211 197 211 77 0 141-32 201-102l-25-21c-50 58-107 91-175 91-96 0-161-70-161-183 0-6 0-13 1-19h389c3-19 5-37 5-55 0-114-67-197-190-197-130 0-242 116-242 275zm41-54c20-115 109-189 200-189 107 0 163 78 153 189zm501 257l39-278c15-109 90-169 158-169 71 0 114 49 100 150l-41 297h35l39-278h1c19-115 94-170 158-170 73 0 114 50 100 151l-42 297h36l42-300c17-123-40-178-124-178-64 0-129 38-167 110-9-75-58-110-125-110-58 0-121 35-159 105l13-97h-33l-66 470zm738 0l38-270c16-116 105-177 175-177 81 0 139 49 121 171l-39 276h36l40-280c19-134-48-198-148-198-62 0-133 40-172 114l15-106h-36l-66 470zm453-203c0 127 76 211 197 211 77 0 141-32 201-102l-25-21c-50 58-107 91-175 91-96 0-161-70-161-183 0-6 0-13 1-19h389c3-19 5-37 5-55 0-114-67-197-190-197-130 0-242 116-242 275zm41-54c20-115 109-189 200-189 107 0 163 78 153 189zm898 257l103-730h-36l-56 393c-22-80-86-141-180-141-142 0-257 123-257 275 0 120 77 211 194 211 88 0 167-50 213-129l-17 121zm-389-207c0-132 101-240 221-240 103 0 169 84 169 186 0 125-103 238-225 238-101 0-165-80-165-184zm0 0"/></svg>