<svg width="4999" height="1064.002" xmlns="http://www.w3.org/2000/svg"><path d="M412 695.002c-40 32-81 46-127 46-99 0-185-79-185-197 0-119 86-195 185-195 47 0 87 13 127 46l31-38c-47-38-94-57-157-57-142 0-242 109-242 246s100 244 242 244c62 0 111-20 157-57zm566-150c0-134-101-245-242-245-142 0-243 110-243 245 0 134 101 245 243 245 141 0 242-110 242-245zm-55 0c0 107-79 196-187 196s-187-90-187-196c0-107 79-196 187-196s187 89 187 196zm166 235h54v-267c0-111 72-166 145-166 72 0 126 45 126 148v285h54v-291c0-126-73-189-166-189-64 0-127 33-159 98v-88h-54zm713 10c79 0 149-45 186-111v101h54v-730h-54v361c-37-66-107-111-186-111-127 0-227 105-227 245s100 245 227 245zm-171-246c0-113 76-197 182-197 108 0 179 99 179 200 0 102-71 196-179 196-106 0-182-86-182-199zm520 2c0 138 90 244 224 244 82 0 150-39 197-108l-40-31c-31 48-86 90-157 90-97 0-162-80-168-182h381v-17c0-143-82-242-216-242-122 0-221 101-221 246zm58-33c12-97 79-164 163-164 90 0 149 66 158 164zm491-203v470h54v-281c0-99 61-152 122-152s109 43 109 134v299h55v-281c0-99 58-154 122-154 63 0 109 45 109 136v299h54v-304c0-121-68-176-148-176-62 0-119 33-150 96-23-65-77-96-136-96-54 0-109 30-141 91v-81zm755 470h54v-267c0-111 72-166 145-166 72 0 126 45 126 148v285h54v-291c0-126-73-189-166-189-64 0-127 33-159 98v-88h-54zm486-234c0 138 90 244 224 244 82 0 150-39 197-108l-40-31c-31 48-86 90-157 90-97 0-162-80-168-182h381v-17c0-143-82-242-216-242-122 0-221 101-221 246zm58-33c12-97 79-164 163-164 90 0 149 66 158 164zm695 277c79 0 149-45 186-111v101h54v-730h-54v361c-37-66-107-111-186-111-127 0-227 105-227 245s100 245 227 245zm-171-246c0-113 76-197 182-197 108 0 179 99 179 200 0 102-71 196-179 196-106 0-182-86-182-199zm0 0"/></svg>