<svg width="3881" height="1064.002" xmlns="http://www.w3.org/2000/svg"><path d="M420 726.002c-47 34-92 49-145 49-126 0-219-93-219-230s93-230 219-230c56 0 96 14 145 49l5-7c-53-37-93-51-150-51-137 0-229 102-229 239s92 239 229 239c54 0 101-15 150-50zm529-181c0-129-94-239-230-239-139 0-233 107-233 239 0 129 94 239 233 239 136 0 230-107 230-239zm-10 0c0 125-93 230-220 230-130 0-223-107-223-230 0-125 93-230 223-230 127 0 220 107 220 230zm126 235h10v-274c0-122 88-191 182-191 96 0 148 57 148 170v295h10v-295c0-118-56-179-158-179-82 0-158 48-182 137v-133h-10zm722-432c-42-30-80-42-121-42-66 0-122 45-122 108 0 150 247 105 247 252 0 81-70 109-127 109s-98-24-138-52l-6 7c41 30 87 54 144 54 61 0 137-30 137-118 0-156-247-109-247-252 0-62 56-99 112-99 37 0 74 12 115 40zm145-29v371c0 61 27 94 76 94 29 0 55-11 81-32l-6-7c-26 21-50 30-74 30-44 0-67-30-67-85v-371h144v-9h-144v-127h-10v127h-62v9zm247 461h10v-260c0-154 75-204 151-204v-10c-79 0-130 48-151 130v-126h-10zm409 4c102 0 186-71 214-168v164h10v-470h-10v164c-28-97-112-168-214-168-125 0-216 107-216 239s91 239 216 239zm-206-239c0-127 86-230 206-230 113 0 204 91 214 208 1 7 1 14 1 22s0 15-1 22c-10 117-101 208-214 208-120 0-206-103-206-230zm583 235v-470h-10v470h10zm-5-555c8 0 14-6 14-14s-6-14-14-14-14 6-14 14 6 14 14 14zm139 555h10v-274c0-122 88-191 182-191 96 0 148 57 148 170v295h10v-295c0-118-56-179-158-179-82 0-158 48-182 137v-133h-10zm722-432c-42-30-80-42-121-42-66 0-122 45-122 108 0 150 247 105 247 252 0 81-70 109-127 109s-98-24-138-52l-6 7c41 30 87 54 144 54 61 0 137-30 137-118 0-156-247-109-247-252 0-62 56-99 112-99 37 0 74 12 115 40zm0 0"/></svg>