<svg width="4520" height="1064.002" xmlns="http://www.w3.org/2000/svg"><path d="M418 718.002c-45 33-90 48-141 48-119 0-210-89-210-221 0-133 91-221 210-221 54 0 95 13 141 48l12-15c-52-37-93-53-152-53-138 0-232 104-232 241s94 241 232 241c56 0 103-17 152-52zm538-173c0-130-96-241-233-241-140 0-235 108-235 241 0 130 95 241 235 241 137 0 233-108 233-241zm-21 0c0 120-90 221-212 221-124 0-214-102-214-221 0-121 90-221 214-221 122 0 212 102 212 221zm136 235h22v-261c0-146 74-193 150-193v-22c-75 0-127 44-150 121v-115h-22zm247 0h22v-261c0-146 74-193 150-193v-22c-75 0-127 44-150 121v-115h-22zm194-234c0 140 87 240 212 240 78 0 147-39 192-114l-16-11c-40 67-104 105-176 105-113 0-189-89-191-217h395v-10c0-141-79-235-205-235-116 0-211 97-211 242zm21-15c6-122 85-207 190-207 109 0 181 82 183 207zm755-182c-41-30-81-45-124-45-65 0-127 45-127 113 0 152 244 107 244 247 0 76-65 103-120 103s-97-24-136-53l-12 15c40 30 88 57 148 57 65 0 141-34 141-122 0-158-244-112-244-247 0-59 53-94 106-94 36 0 72 12 113 40zm128 665h22v-382c30 90 111 154 206 154 126 0 219-107 219-241s-93-241-219-241c-95 0-176 64-206 154v-148h-22zm20-470c0-116 85-221 206-221 116 0 200 99 200 222 0 124-84 222-200 222-121 0-206-107-206-223zm987 1c0-130-96-241-233-241-140 0-235 108-235 241 0 130 95 241 235 241 137 0 233-108 233-241zm-21 0c0 120-90 221-212 221-124 0-214-102-214-221 0-121 90-221 214-221 122 0 212 102 212 221zm136 235h22v-272c0-120 84-185 172-185 90 0 142 54 142 165v292h22v-294c0-120-61-182-160-182-78 0-150 45-176 128v-122h-22zm685 6c96 0 177-64 207-154v148h22v-730h-22v408c-30-90-111-154-207-154-125 0-218 107-218 241s93 241 218 241zm-197-241c0-124 84-222 200-222 121 0 206 106 206 222s-85 222-206 222c-116 0-200-99-200-222zm0 0"/></svg>