<svg width="4460" height="1064.002" xmlns="http://www.w3.org/2000/svg"><path d="M389 728.002c-52 32-100 47-144 47-123 0-200-86-200-200 0-139 116-260 246-260 64 0 102 17 146 49l6-7c-40-32-83-51-152-51-140 0-256 129-256 269 0 113 75 209 210 209 49 0 98-17 148-49zm554-219c0-113-77-203-210-203-145 0-259 124-259 269 0 114 80 209 213 209 145 0 256-139 256-275zm-10 0c0 137-113 266-246 266-123 0-203-86-203-200 0-145 116-260 249-260 123 0 200 85 200 194zm100 271l39-274c20-140 111-190 187-190l2-10c-86 0-153 53-180 133l18-129h-10l-66 470zm247 0l39-274c20-140 111-190 187-190l2-10c-86 0-153 53-180 133l18-129h-10l-66 470zm403 4c73 0 134-28 197-100l-7-6c-63 72-122 97-190 97-103 0-180-72-180-199 0-10 0-20 1-30h402c2-15 3-30 3-45 0-112-65-195-185-195-122 0-231 112-231 270 0 129 78 208 190 208zm41-469c125 0 188 95 173 222h-392c17-136 117-222 219-222zm561 39c-43-33-82-48-124-48-81 0-138 49-138 119 0 136 217 105 217 237 0 70-58 113-127 113-47 0-84-15-137-60l-6 7c55 46 95 62 143 62 74 0 137-47 137-122 0-139-217-108-217-237 0-65 52-110 128-110 39 0 78 16 119 46zm135-44l-99 704h10l57-406c12 99 86 176 189 176 140 0 253-124 253-271 0-116-73-207-185-207-101 0-195 63-238 165l23-161zm400 204c0 141-109 261-241 261-109 0-184-89-184-201 0-141 117-259 248-259 108 0 177 88 177 199zm565-5c0-113-77-203-210-203-145 0-259 124-259 269 0 114 80 209 213 209 145 0 256-139 256-275zm-10 0c0 137-113 266-246 266-123 0-203-86-203-200 0-145 116-260 249-260 123 0 200 85 200 194zm100 271l39-274c17-122 117-191 192-191 95 0 158 54 138 191l-39 274h10l39-274c20-137-43-200-148-200-65 0-146 47-183 135l18-131h-10l-66 470zm874 0l103-730h-10l-61 431c-14-99-82-175-189-175-142 0-253 124-253 271 0 116 73 207 185 207 101 0 192-62 237-162l-22 158zm-400-204c0-141 109-261 241-261 109 0 184 89 184 201 0 137-116 259-248 259-108 0-177-88-177-199zm0 0"/></svg>