<svg width="4762" height="1064.002" xmlns="http://www.w3.org/2000/svg"><path d="M416 708.002c-44 33-87 48-135 48-111 0-200-85-200-212 0-126 89-210 200-210 51 0 91 14 135 48l19-25c-49-38-93-55-154-55-139 0-236 107-236 244s97 242 236 242c59 0 107-18 154-54zm550-163c0-132-98-243-237-243-141 0-239 109-239 243 0 132 98 243 239 243 139 0 237-109 237-243zm-37 0c0 115-84 211-200 211-118 0-203-98-203-211 0-115 85-211 203-211 116 0 200 97 200 211zm150 36c0 140 76 207 182 207 105 0 182-67 182-207v-271h-36v276c0 117-62 170-146 170s-146-53-146-170v-276h-36zm500 199h36v-270c0-116 79-177 160-177 82 0 135 51 135 158v289h36v-293c0-122-66-185-163-185-71 0-139 40-168 115v-107h-36zm517-438v337c0 72 36 109 94 109 31 0 59-11 86-32l-16-25c-23 17-46 25-67 25-38 0-61-26-61-77v-337h139v-32h-139v-124h-36v124h-65v32zm266 438h36v-261c0-136 74-182 149-182v-35c-70 0-123 40-149 110v-102h-36zm200-470l196 453-110 251h38l303-704h-37l-175 408-176-408zm504 0v470h36v-278c0-109 66-169 135-169 71 0 121 49 121 150v297h35v-278c0-109 66-170 135-170 73 0 121 50 121 151v297h36v-300c0-123-65-178-147-178-64 0-124 38-153 111-20-76-75-111-140-111-58 0-117 35-146 105v-97zm945 478c79 0 147-39 193-112l-26-19c-36 59-96 99-167 99-107 0-178-86-182-202h389c0-3 1-9 1-14 0-141-81-238-211-238-118 0-215 99-215 244 0 139 88 242 218 242zm-181-265c9-111 83-189 178-189 101 0 168 76 173 189zm502 257h36v-270c0-116 79-177 160-177 82 0 135 51 135 158v289h36v-293c0-122-66-185-163-185-71 0-139 40-168 115v-107h-36zm0 0"/></svg>