<svg width="3235" height="1064.002" xmlns="http://www.w3.org/2000/svg"><path d="M388 719.002c-51 33-98 47-141 47-115 0-191-82-191-193 0-136 112-249 236-249 60 0 99 16 144 48l12-15c-42-34-87-53-155-53-143 0-258 130-258 271 0 115 76 211 211 211 52 0 102-18 151-51zm124 61l38-272c19-135 108-182 184-182l3-22c-82 0-147 49-176 123l17-117h-22l-66 470zm210-204c0 129 77 210 193 210 74 0 137-30 199-101l-15-13c-58 66-116 94-184 94-100 0-172-71-172-191 0-9 0-18 1-26h397c3-16 4-33 4-49 0-113-66-196-188-196-125 0-235 114-235 272zm24-45c18-127 114-207 211-207 117 0 177 87 164 207zm899 249l103-730h-22l-58 414c-18-90-84-160-186-160-142 0-254 124-254 273 0 118 74 209 188 209 96 0 182-57 227-148l-20 142zm-396-205c0-137 106-252 233-252 106 0 177 87 177 194 0 132-111 250-238 250-105 0-172-85-172-192zm557 205c1-12 64-458 66-470h-22c-1 12-64 458-66 470h22zm67-554c13 0 24-11 24-24 0-10-8-17-19-17-13 0-23 10-23 23 0 10 8 18 18 18zm88 103h63l-50 356c-9 66 24 101 72 101 31 0 55-11 82-31l-9-16c-22 16-45 28-71 28-32 0-61-23-53-82l50-356h142l3-19h-142l18-126h-22l-18 126h-63zm241 247c0 129 77 210 193 210 74 0 137-30 199-101l-15-13c-58 66-116 94-184 94-100 0-172-71-172-191 0-9 0-18 1-26h397c3-16 4-33 4-49 0-113-66-196-188-196-125 0-235 114-235 272zm24-45c18-127 114-207 211-207 117 0 177 87 164 207zm899 249l103-730h-22l-58 414c-18-90-84-160-186-160-142 0-254 124-254 273 0 118 74 209 188 209 96 0 182-57 227-148l-20 142zm-396-205c0-137 106-252 233-252 106 0 177 87 177 194 0 132-111 250-238 250-105 0-172-85-172-192zm0 0"/></svg>