<svg width="2713" height="1064.002" xmlns="http://www.w3.org/2000/svg"><path d="M365 620.002c-24 21-56 34-88 34-55 0-89-43-89-97 0-67 53-121 120-121 32 0 58 11 81 32l105-98c-41-43-95-76-176-76-169 0-288 130-288 282 0 124 96 220 238 220 82 0 130-25 183-67zm297 160l29-204c16-111 82-144 171-144l19-138c-59 0-115 20-159 59l6-43H572l-66 470zm372 0c2-10 65-460 66-470H944c-1 10-64 460-66 470h156zm2-532c57 0 100-49 101-105 0-46-32-80-86-80-58 0-99 48-99 105-1 46 32 80 84 80zm210 195l-22 149c-19 128 43 204 159 204 42 0 75-10 107-24l-30-132c-19 8-34 11-46 11-27 0-39-16-35-45l23-163h125l19-133h-125l15-110h-156l-15 110h-89l-19 133zm461 337c2-10 65-460 66-470h-156c-1 10-64 460-66 470h156zm2-532c57 0 100-49 101-105 0-46-32-80-86-80-58 0-99 48-99 105-1 46 32 80 84 80zm459 372c-24 21-56 34-88 34-55 0-89-43-89-97 0-67 53-121 120-121 32 0 58 11 81 32l105-98c-41-43-95-76-176-76-169 0-288 130-288 282 0 124 96 220 238 220 82 0 130-25 183-67zm535-264c-42-34-94-62-168-62-89 0-193 50-193 169 0 129 169 124 169 175 0 16-17 28-35 28-43 0-74-20-113-53l-85 103c43 39 100 80 200 80 112 0 190-79 190-173 0-137-168-127-168-175 0-15 12-24 35-24 26 0 51 7 84 32zm0 0"/></svg>