<svg width="2386" height="1064.002" xmlns="http://www.w3.org/2000/svg"><path d="M408 677.002c-36 31-76 45-118 45-83 0-165-71-165-179s82-175 165-175c42 0 82 14 118 45l45-56c-43-38-94-61-161-61-144 0-249 114-249 251s105 247 249 247c67 0 118-23 161-61zm131 103h80v-263c0-105 72-142 146-142v-79c-54 0-109 25-146 75v-61h-80zm376 0v-470h-80v470h80zm-35-550c31 0 54-24 54-55s-23-54-54-54-55 23-55 54 24 55 55 55zm191 153v277c0 90 52 134 124 134 36 0 66-10 95-31l-33-57c-19 11-38 17-55 17-29 0-51-19-51-63v-277h131v-73h-131v-120h-80v120h-70v73zm380 397v-470h-80v470h80zm-35-550c31 0 54-24 54-55s-23-54-54-54-55 23-55 54 24 55 55 55zm508 447c-36 31-76 45-118 45-83 0-165-71-165-179s82-175 165-175c42 0 82 14 118 45l45-56c-43-38-94-61-161-61-144 0-249 114-249 251s105 247 249 247c67 0 118-23 161-61zm412-323c-38-34-89-58-139-58-63 0-153 40-153 134 0 162 226 121 226 225 0 47-39 72-81 72-46 0-91-25-127-58l-41 54c34 31 91 71 168 71 81 0 159-51 159-139 0-168-226-126-226-225 0-43 37-67 75-67 28 0 59 11 98 44zm0 0"/></svg>