<svg width="2334" height="1064.002" xmlns="http://www.w3.org/2000/svg"><path d="M273 796.002c55 0 99-20 131-53v37h160v-730H404v297c-32-33-76-53-131-53-132 0-233 112-233 251s101 251 233 251zm-73-251c0-58 47-105 105-105 59 0 105 47 105 105s-46 105-105 105c-58 0-105-47-105-105zm689 251c56 0 101-20 134-55v39h160v-470h-160v38c-33-34-78-54-134-54-135 0-230 112-230 251s95 251 230 251zm-70-251c0-58 47-105 105-105 59 0 105 47 105 105s-46 105-105 105c-58 0-105-47-105-105zm644 235v-470h-160v470h160zm-79-530c53 0 94-42 94-95s-41-94-94-94-95 41-95 94 42 95 95 95zm359 530v-730h-160v730zm55-470l188 422-126 283h161l313-705h-160l-105 246-105-246zm0 0"/></svg>