<svg width="2341" height="1064.002" xmlns="http://www.w3.org/2000/svg"><path d="M522 780.002l102-730H468l-43 305c-29-37-73-61-134-61-153 0-261 129-261 283 0 123 82 219 198 219 59 0 106-21 143-53l-5 37zm-334-222c0-66 59-122 124-122 55 0 94 43 94 96 0 66-60 122-125 122-55 0-93-43-93-96zm956 222l66-470h-156l-7 45c-29-37-73-61-134-61-153 0-261 129-261 283 0 123 82 219 198 219 59 0 106-21 143-53l-5 37zm-334-222c0-66 59-122 124-122 55 0 94 43 94 96 0 66-60 122-125 122-55 0-93-43-93-96zm605 222c2-10 65-460 66-470h-156c-1 10-64 460-66 470h156zm2-532c57 0 100-49 101-105 0-46-32-80-86-80-58 0-99 48-99 105-1 46 32 80 84 80zm270 532l103-730h-156l-103 730zm242 235l412-705h-156l-144 253-73-253h-160l130 422-166 283zm0 0"/></svg>