<svg width="3999" height="1064.002" xmlns="http://www.w3.org/2000/svg"><path d="M267 788.002c89 0 165-56 198-136v128h36v-730h-36v388c-33-80-109-136-198-136-126 0-222 107-222 243s96 243 222 243zm-186-244c0-119 80-211 193-211 115 0 194 104 194 213s-79 211-194 211c-113 0-193-94-193-213zm754 244c89 0 165-56 198-136v128h36v-470h-36v128c-33-80-109-136-198-136-126 0-222 107-222 243s96 243 222 243zm-186-244c0-119 80-211 193-211 115 0 194 104 194 213s-79 211-194 211c-113 0-193-94-193-213zm574-202v337c0 72 36 109 94 109 31 0 59-11 86-32l-16-25c-23 17-46 25-67 25-38 0-61-26-61-77v-337h139v-32h-139v-124h-36v124h-65v32zm445 446c89 0 165-56 198-136v128h36v-470h-36v128c-33-80-109-136-198-136-126 0-222 107-222 243s96 243 222 243zm-186-244c0-119 80-211 193-211 115 0 194 104 194 213s-79 211-194 211c-113 0-193-94-193-213zm555-494v730h36v-128c33 80 109 136 198 136 126 0 222-107 222-243s-96-243-222-243c-89 0-165 56-198 135v-387zm227 707c-115 0-194-104-194-213s79-211 194-211c112 0 193 94 193 213s-81 211-193 211zm540 31c89 0 165-56 198-136v128h36v-470h-36v128c-33-80-109-136-198-136-126 0-222 107-222 243s96 243 222 243zm-186-244c0-119 80-211 193-211 115 0 194 104 194 213s-79 211-194 211c-113 0-193-94-193-213zm809-194c-41-31-83-48-128-48-65 0-133 43-133 118 0 154 239 111 239 242 0 68-58 95-110 95-53 0-96-24-134-54l-19 24c39 31 89 61 153 61 68 0 145-38 145-126 0-160-239-115-239-242 0-55 49-88 98-88 34 0 69 12 109 42zm319 438c79 0 147-39 193-112l-26-19c-36 59-96 99-167 99-107 0-178-86-182-202h389c0-3 1-9 1-14 0-141-81-238-211-238-118 0-215 99-215 244 0 139 88 242 218 242zm-181-265c9-111 83-189 178-189 101 0 168 76 173 189zm0 0"/></svg>