<svg width="3205" height="1064.002" xmlns="http://www.w3.org/2000/svg"><path d="M275 795.002c62 0 115-26 153-68v53h114v-730H428v313c-38-42-91-68-153-68-130 0-233 108-233 250s103 250 233 250zm-118-251c0-85 60-147 142-147 81 0 135 74 135 150s-55 146-135 146c-82 0-142-64-142-149zm731 251c85 0 149-38 198-94l-69-68c-31 33-74 64-129 64-69 0-116-50-128-117h350c0-1 2-23 2-35 0-143-87-250-232-250-133 0-237 109-237 252 0 140 94 248 245 248zm-126-302c15-63 62-103 118-103 62 0 102 41 115 103zm789 159c-29 26-65 40-102 40-74 0-138-62-138-149s64-145 138-145c37 0 73 14 102 40l68-77c-45-40-99-66-169-66-146 0-254 114-254 252s108 248 254 248c70 0 124-26 169-66zm259 128v-730h-114v730zm240 0v-470h-114v470h114zm-54-542c40 0 71-31 71-71 0-41-31-71-71-71s-72 30-72 71c0 40 32 71 72 71zm180 542h114v-262c0-87 50-123 99-123 45 0 89 31 89 108v277h113v-302c0-123-78-183-162-183-50 0-102 22-139 65v-50h-114zm763 15c85 0 149-38 198-94l-69-68c-31 33-74 64-129 64-69 0-116-50-128-117h350c0-1 2-23 2-35 0-143-87-250-232-250-133 0-237 109-237 252 0 140 94 248 245 248zm-126-302c15-63 62-103 118-103 62 0 102 41 115 103zm0 0"/></svg>