<svg width="3208" height="1064.002" xmlns="http://www.w3.org/2000/svg"><path d="M485 780.002l103-730h-80l-47 328c-36-50-93-82-166-82-141 0-263 121-263 282 0 125 83 216 209 216 65 0 125-27 172-71l-8 57zm-370-211c0-118 89-204 188-204 92 0 142 75 142 159 0 105-80 201-184 201-89 0-146-66-146-156zm508 11c0 123 74 214 209 214 85 0 154-37 209-104l-56-47c-28 33-81 79-151 79-90 0-128-74-128-155h369c5-24 8-48 8-72 0-118-71-199-200-199-142 0-260 123-260 284zm94-81c25-80 93-131 166-131s117 48 117 131zm795 176c-45 33-86 47-126 47-75 0-142-62-142-156 0-121 91-198 182-198 40 0 83 13 131 47l43-58c-52-42-105-61-170-61-157 0-269 131-269 281 0 121 82 217 221 217 63 0 118-21 166-59zm197 105l103-730h-80l-103 730zm591 0l66-470h-80l-10 68c-36-50-93-82-166-82-141 0-263 121-263 282 0 125 83 216 209 216 65 0 125-27 172-71l-8 57zm-370-211c0-118 89-204 188-204 92 0 142 75 142 159 0 105-80 201-184 201-89 0-146-66-146-156zm578 211l37-263c15-105 92-142 166-142l11-79c-58 0-115 24-156 71l8-57h-80l-66 470zm194-200c0 123 74 214 209 214 85 0 154-37 209-104l-56-47c-28 33-81 79-151 79-90 0-128-74-128-155h369c5-24 8-48 8-72 0-118-71-199-200-199-142 0-260 123-260 284zm94-81c25-80 93-131 166-131s117 48 117 131zm0 0"/></svg>