<svg width="3204" height="1064.002" xmlns="http://www.w3.org/2000/svg"><path d="M276 794.002c67 0 127-30 170-78v64h80v-730h-80v325c-43-49-103-79-170-79-128 0-233 105-233 249s105 249 233 249zm-151-251c0-105 70-178 169-178 98 0 158 93 158 183 0 91-60 177-158 177-99 0-169-77-169-182zm739 251c85 0 152-40 200-105l-58-45c-24 33-72 78-142 78-86 0-141-72-150-155h369s1-14 1-22c0-145-85-249-225-249-126 0-228 106-228 251 0 135 92 247 233 247zm-147-295c16-78 74-131 142-131 76 0 125 54 139 131zm818 178c-36 31-76 45-118 45-83 0-165-71-165-179s82-175 165-175c42 0 82 14 118 45l45-56c-43-38-94-61-161-61-144 0-249 114-249 251s105 247 249 247c67 0 118-23 161-61zm211 103v-730h-80v730zm341 14c67 0 127-30 170-78v64h80v-470h-80v65c-43-49-103-79-170-79-128 0-233 105-233 249s105 249 233 249zm-151-251c0-105 70-178 169-178 98 0 158 93 158 183 0 91-60 177-158 177-99 0-169-77-169-182zm528 237h80v-263c0-105 72-142 146-142v-79c-54 0-109 25-146 75v-61h-80zm477 14c85 0 152-40 200-105l-58-45c-24 33-72 78-142 78-86 0-141-72-150-155h369s1-14 1-22c0-145-85-249-225-249-126 0-228 106-228 251 0 135 92 247 233 247zm-147-295c16-78 74-131 142-131 76 0 125 54 139 131zm0 0"/></svg>