<svg width="2937" height="1064.002" xmlns="http://www.w3.org/2000/svg"><path d="M445 780.002l103-730h-10l-61 431c-14-99-82-175-189-175-142 0-253 124-253 271 0 116 73 207 185 207 101 0 192-62 237-162l-22 158zm-400-204c0-141 109-261 241-261 109 0 184 89 184 201 0 137-116 259-248 259-108 0-177-88-177-199zm736 208c73 0 134-28 197-100l-7-6c-63 72-122 97-190 97-103 0-180-72-180-199 0-10 0-20 1-30h402c2-15 3-30 3-45 0-112-65-195-185-195-122 0-231 112-231 270 0 129 78 208 190 208zm41-469c125 0 188 95 173 222H603c17-136 117-222 219-222zm622 413c-52 32-100 47-144 47-123 0-200-86-200-200 0-139 116-260 246-260 64 0 102 17 146 49l6-7c-40-32-83-51-152-51-140 0-256 129-256 269 0 113 75 209 210 209 49 0 98-17 148-49zm110 52l103-730h-10l-103 730zm556 0l66-470h-10l-24 172c-11-99-85-176-199-176-138 0-243 122-243 267 0 118 75 211 197 211 95 0 186-72 225-161l-22 157zm-400-207c0-145 105-258 233-258 113 0 192 84 192 200 0 141-117 260-238 260-112 0-187-84-187-202zm550 207l39-274c20-140 111-190 187-190l2-10c-86 0-153 53-180 133l18-129h-10l-66 470zm403 4c73 0 134-28 197-100l-7-6c-63 72-122 97-190 97-103 0-180-72-180-199 0-10 0-20 1-30h402c2-15 3-30 3-45 0-112-65-195-185-195-122 0-231 112-231 270 0 129 78 208 190 208zm41-469c125 0 188 95 173 222h-392c17-136 117-222 219-222zm0 0"/></svg>