<svg width="2697" height="1064.002" xmlns="http://www.w3.org/2000/svg"><path d="M264 786.002c96 0 177-64 207-154v148h22v-730h-22v408c-30-90-111-154-207-154-125 0-218 107-218 241s93 241 218 241zm-197-241c0-124 84-222 200-222 121 0 206 106 206 222s-85 222-206 222c-116 0-200-99-200-222zm540 1c0 140 87 240 212 240 78 0 147-39 192-114l-16-11c-40 67-104 105-176 105-113 0-189-89-191-217h395v-10c0-141-79-235-205-235-116 0-211 97-211 242zm21-15c6-122 85-207 190-207 109 0 181 82 183 207zm755-182c-41-30-81-45-124-45-65 0-127 45-127 113 0 152 244 107 244 247 0 76-65 103-120 103s-97-24-136-53l-12 15c40 30 88 57 148 57 65 0 141-34 141-122 0-158-244-112-244-247 0-59 53-94 106-94 36 0 72 12 113 40zm152 431v-470h-21v470h21zm-10-554c12 0 21-9 21-21s-9-20-21-20c-11 0-20 8-20 20s9 21 20 21zm143 554h22v-261c0-146 74-193 150-193v-22c-75 0-127 44-150 121v-115h-22zm194-234c0 140 87 240 212 240 78 0 147-39 192-114l-16-11c-40 67-104 105-176 105-113 0-189-89-191-217h395v-10c0-141-79-235-205-235-116 0-211 97-211 242zm21-15c6-122 85-207 190-207 109 0 181 82 183 207zm755-182c-41-30-81-45-124-45-65 0-127 45-127 113 0 152 244 107 244 247 0 76-65 103-120 103s-97-24-136-53l-12 15c40 30 88 57 148 57 65 0 141-34 141-122 0-158-244-112-244-247 0-59 53-94 106-94 36 0 72 12 113 40zm0 0"/></svg>