<svg width="2765" height="1064.002" xmlns="http://www.w3.org/2000/svg"><path d="M460 780.002l103-730h-36l-56 393c-22-80-86-141-180-141-142 0-257 123-257 275 0 120 77 211 194 211 88 0 167-50 213-129l-17 121zm-389-207c0-132 101-240 221-240 103 0 169 84 169 186 0 125-103 238-225 238-101 0-165-80-165-184zm532 4c0 127 76 211 197 211 77 0 141-32 201-102l-25-21c-50 58-107 91-175 91-96 0-161-70-161-183 0-6 0-13 1-19h389c3-19 5-37 5-55 0-114-67-197-190-197-130 0-242 116-242 275zm41-54c20-115 109-189 200-189 107 0 163 78 153 189zm784-168c-45-37-87-53-131-53-85 0-148 55-148 130 0 138 210 107 210 225 0 63-54 100-115 100-46 0-85-18-131-58l-21 23c46 41 91 66 152 66 84 0 150-54 150-134 0-141-209-111-209-226 0-57 47-96 110-96 36 0 74 15 113 46zm99 425c2-14 64-456 66-470h-36c-2 14-64 456-66 470h36zm61-553c18 0 32-15 32-33 0-14-10-25-26-25-18 0-32 14-32 33 0 14 10 25 26 25zm111 553l38-270c18-127 104-173 179-173l6-35c-77 0-139 43-172 111l15-103h-36l-66 470zm206-203c0 127 76 211 197 211 77 0 141-32 201-102l-25-21c-50 58-107 91-175 91-96 0-161-70-161-183 0-6 0-13 1-19h389c3-19 5-37 5-55 0-114-67-197-190-197-130 0-242 116-242 275zm41-54c20-115 109-189 200-189 107 0 163 78 153 189zm784-168c-45-37-87-53-131-53-85 0-148 55-148 130 0 138 210 107 210 225 0 63-54 100-115 100-46 0-85-18-131-58l-21 23c46 41 91 66 152 66 84 0 150-54 150-134 0-141-209-111-209-226 0-57 47-96 110-96 36 0 74 15 113 46zm0 0"/></svg>