<svg width="3692" height="1064.002" xmlns="http://www.w3.org/2000/svg"><path d="M275 795.002c62 0 115-26 153-68v53h114v-730H428v313c-38-42-91-68-153-68-130 0-233 108-233 250s103 250 233 250zm-118-251c0-85 60-147 142-147 81 0 135 74 135 150s-55 146-135 146c-82 0-142-64-142-149zm621 236v-470H664v470h114zm-54-542c40 0 71-31 71-71 0-41-31-71-71-71s-72 30-72 71c0 40 32 71 72 71zm216 172v370h114v-370h207v370h113v-370h101v-100h-101v-78c0-62 37-93 78-93 18 0 36 6 52 17l51-90c-31-19-64-31-106-31-56 0-105 20-139 58-39-37-93-57-153-57-120 0-217 80-217 222v52h-78v100zm217-274c57 0 104 42 104 118v56h-207v-56c0-76 47-118 103-118zm514 659c85 0 149-38 198-94l-69-68c-31 33-74 64-129 64-69 0-116-50-128-117h350c0-1 2-23 2-35 0-143-87-250-232-250-133 0-237 109-237 252 0 140 94 248 245 248zm-126-302c15-63 62-103 118-103 62 0 102 41 115 103zm455 287h114v-244c0-105 67-136 148-136v-105c-55 0-110 22-148 66v-51h-114zm524 15c85 0 149-38 198-94l-69-68c-31 33-74 64-129 64-69 0-116-50-128-117h350c0-1 2-23 2-35 0-143-87-250-232-250-133 0-237 109-237 252 0 140 94 248 245 248zm-126-302c15-63 62-103 118-103 62 0 102 41 115 103zm455 287h114v-262c0-87 50-123 99-123 45 0 89 31 89 108v277h113v-302c0-123-78-183-162-183-50 0-102 22-139 65v-50h-114zm575-370v230c0 107 64 155 147 155 40 0 73-11 103-30l-39-88c-19 9-36 14-51 14-28 0-46-18-46-55v-226h128v-100h-128v-116h-114v116h-78v100zm0 0"/></svg>