<svg width="3239" height="1064.002" xmlns="http://www.w3.org/2000/svg"><path d="M264 786.002c96 0 177-64 207-154v148h22v-730h-22v408c-30-90-111-154-207-154-125 0-218 107-218 241s93 241 218 241zm-197-241c0-124 84-222 200-222 121 0 206 106 206 222s-85 222-206 222c-116 0-200-99-200-222zm587 235v-470h-21v470h21zm-10-554c12 0 21-9 21-21s-9-20-21-20c-11 0-20 8-20 20s9 21 20 21zm388 123c-41-30-81-45-124-45-65 0-127 45-127 113 0 152 244 107 244 247 0 76-65 103-120 103s-97-24-136-53l-12 15c40 30 88 57 148 57 65 0 141-34 141-122 0-158-244-112-244-247 0-59 53-94 106-94 36 0 72 12 113 40zm323 437c96 0 177-64 207-154v148h22v-470h-22v148c-30-90-111-154-207-154-125 0-218 107-218 241s93 241 218 241zm-197-241c0-124 84-222 200-222 121 0 206 106 206 222s-85 222-206 222c-116 0-200-99-200-222zm718 235l202-470h-22l-185 433-185-433h-23l200 470zm696-235c0-130-96-241-233-241-140 0-235 108-235 241 0 130 95 241 235 241 137 0 233-108 233-241zm-21 0c0 120-90 221-212 221-124 0-214-102-214-221 0-121 90-221 214-221 122 0 212 102 212 221zm201 235h15l152-431 151 431h15l143-470h-21l-128 432-152-432h-15l-152 433-139-433h-22zm0 0"/></svg>