<svg width="3207" height="1064.002" xmlns="http://www.w3.org/2000/svg"><path d="M445 780.002l103-730h-10l-61 431c-14-99-82-175-189-175-142 0-253 124-253 271 0 116 73 207 185 207 101 0 192-62 237-162l-22 158zm-400-204c0-141 109-261 241-261 109 0 184 89 184 201 0 137-116 259-248 259-108 0-177-88-177-199zm551 204c2-10 65-460 66-470h-10c-1 10-64 460-66 470h10zm73-555c9 0 16-7 16-16 0-7-5-12-12-12-9 0-16 7-16 16 0 7 5 12 12 12zm365 129c-43-33-82-48-124-48-81 0-138 49-138 119 0 136 217 105 217 237 0 70-58 113-127 113-47 0-84-15-137-60l-6 7c55 46 95 62 143 62 74 0 137-47 137-122 0-139-217-108-217-237 0-65 52-110 128-110 39 0 78 16 119 46zm486 426l66-470h-10l-24 172c-11-99-85-176-199-176-138 0-243 122-243 267 0 118 75 211 197 211 95 0 186-72 225-161l-22 157zm-400-207c0-145 105-258 233-258 113 0 192 84 192 200 0 141-117 260-238 260-112 0-187-84-187-202zm549-263l132 470h7l266-470h-11l-256 453-128-453zm865 199c0-113-77-203-210-203-145 0-259 124-259 269 0 114 80 209 213 209 145 0 256-139 256-275zm-10 0c0 137-113 266-246 266-123 0-203-86-203-200 0-145 116-260 249-260 123 0 200 85 200 194zm166 271h10l202-450 78 450h8l219-470h-11l-209 451-78-451h-8l-204 454-96-454h-10zm0 0"/></svg>