<svg width="3813" height="1064.002" xmlns="http://www.w3.org/2000/svg"><path d="M522 780.002l102-730H468l-43 305c-29-37-73-61-134-61-153 0-261 129-261 283 0 123 82 219 198 219 59 0 106-21 143-53l-5 37zm-334-222c0-66 59-122 124-122 55 0 94 43 94 96 0 66-60 122-125 122-55 0-93-43-93-96zm610 222c2-10 65-460 66-470H708c-1 10-64 460-66 470h156zm2-532c57 0 100-49 101-105 0-46-32-80-86-80-58 0-99 48-99 105-1 46 32 80 84 80zm508 108c-42-34-94-62-168-62-89 0-193 50-193 169 0 129 169 124 169 175 0 16-17 28-35 28-43 0-74-20-113-53l-85 103c43 39 100 80 200 80 112 0 190-79 190-173 0-137-168-127-168-175 0-15 12-24 35-24 26 0 51 7 84 32zm532 424l66-470h-156l-7 45c-29-37-73-61-134-61-153 0-261 129-261 283 0 123 82 219 198 219 59 0 106-21 143-53l-5 37zm-334-222c0-66 59-122 124-122 55 0 94 43 94 96 0 66-60 122-125 122-55 0-93-43-93-96zm450-248l143 470h115l275-470h-156l-144 253-73-253zm1029 197c0-122-93-213-239-213-167 0-288 130-288 282 0 124 92 220 238 220 169 0 289-139 289-289zm-158 26c0 67-53 121-122 121-55 0-89-44-89-97 0-67 53-121 120-121 56 0 91 44 91 97zm317 247h127l122-249 51 249h123l246-470h-159l-124 238-49-238h-115l-119 245-59-245h-158zm0 0"/></svg>