<svg width="3641" height="1064.002" xmlns="http://www.w3.org/2000/svg"><path d="M501 780.002l102-730H491l-45 318c-33-44-85-73-153-73-146 0-262 124-262 283 0 124 83 217 205 217 62 0 117-25 159-64l-6 49zm-355-216c0-96 76-169 161-169 76 0 122 61 122 132 0 89-72 168-160 168-74 0-123-56-123-131zm593 216c2-16 64-454 66-470H693c-2 16-64 454-66 470h112zm24-542c44 0 78-37 78-81 0-35-25-61-65-61-44 0-78 36-78 80 0 35 26 62 65 62zm471 118c-46-39-95-61-154-61-91 0-177 59-177 157 0 137 185 116 185 192 0 36-34 57-68 57-45 0-83-22-117-55l-63 74c35 34 90 75 181 75 105 0 179-70 179-163 0-140-184-119-184-193 0-31 27-50 61-50 29 0 61 11 94 38zm519 424l66-470h-112l-9 58c-33-44-85-73-153-73-146 0-262 124-262 283 0 124 83 217 205 217 62 0 117-25 159-64l-6 49zm-355-216c0-96 76-169 161-169 76 0 122 61 122 132 0 89-72 168-160 168-74 0-123-56-123-131zm481-254l143 470h77l275-470h-117l-173 302-89-302zm982 202c0-122-87-217-230-217-161 0-283 129-283 280 0 123 88 220 231 220 162 0 282-133 282-283zm-114 15c0 90-73 166-163 166-74 0-121-58-121-130 0-90 73-166 162-166 75 0 122 58 122 130zm282 253h83l140-291 57 291h80l252-470h-113l-153 289-57-289h-80l-140 292-73-292h-115zm0 0"/></svg>