<svg width="2687" height="1064.002" xmlns="http://www.w3.org/2000/svg"><path d="M273 796.002c55 0 99-20 131-53v37h160v-730H404v297c-32-33-76-53-131-53-132 0-233 112-233 251s101 251 233 251zm-73-251c0-58 47-105 105-105 59 0 105 47 105 105s-46 105-105 105c-58 0-105-47-105-105zm981-2c0-139-112-249-261-249s-261 114-261 253 112 249 261 249 261-114 261-253zm-160 4c0 58-41 103-101 103s-101-49-101-107 41-103 101-103 101 49 101 107zm420 233v-470h-160v470h160zm-79-530c53 0 94-42 94-95s-41-94-94-94-95 41-95 94 42 95 95 95zm199 530h160v-261c0-63 34-84 66-84 29 0 56 22 56 72v273h160v-319c0-114-72-167-151-167-45 0-93 17-131 51v-35h-160zm775 0c55 0 99-19 131-51v46c0 70-38 107-100 107-41 0-84-24-112-77l-131 70c50 104 146 153 242 153 144 0 261-90 261-262v-456h-160v37c-32-33-76-53-131-53-132 0-233 104-233 243s101 243 233 243zm32-340c59 0 105 47 105 105s-46 105-105 105c-58 0-105-47-105-105s47-105 105-105zm0 0"/></svg>