<svg width="2467" height="1064.002" xmlns="http://www.w3.org/2000/svg"><path d="M485 780.002l103-730h-80l-47 328c-36-50-93-82-166-82-141 0-263 121-263 282 0 125 83 216 209 216 65 0 125-27 172-71l-8 57zm-370-211c0-118 89-204 188-204 92 0 142 75 142 159 0 105-80 201-184 201-89 0-146-66-146-156zm1011-54c0-122-83-219-224-219-157 0-279 128-279 279 0 122 84 219 225 219 157 0 278-128 278-279zm-82 7c0 108-88 200-194 200-87 0-144-69-144-155 0-107 88-199 193-199 88 0 145 69 145 154zm235 258c3-21 63-449 66-470h-80c-3 21-63 449-66 470h80zm41-550c34 0 60-28 60-62 0-27-19-47-50-47-34 0-61 26-61 61 0 27 20 48 51 48zm170 550l37-263c15-105 84-152 145-152 57 0 107 39 93 135l-39 280h80l41-289c18-130-56-195-147-195-56 0-112 25-153 75l9-61h-80l-66 470zm937-470h-79l-10 69c-37-51-96-83-168-83-148 0-260 116-260 277 0 125 87 211 207 211 65 0 127-25 174-67l-11 76c-16 109-100 164-176 164-66 0-114-41-139-108l-72 27c36 98 109 152 207 152 147 0 241-106 259-234zm-434 254c0-119 83-199 193-199 85 0 137 75 137 159 0 107-82 191-186 191-89 0-144-61-144-151zm0 0"/></svg>