<svg width="2529" height="1064.002" xmlns="http://www.w3.org/2000/svg"><path d="M30 580.002c0 128 89 216 238 216 87 0 146-28 202-73l-74-105c-45 35-83 49-120 49-46 0-78-27-89-71h325c7-25 14-55 14-86 0-121-74-216-218-216-162 0-278 130-278 286zm168-93c21-44 61-70 103-70 44 0 69 26 74 70zm363-177l143 470h115l275-470H938l-144 253-73-253zm502 270c0 128 89 216 238 216 87 0 146-28 202-73l-74-105c-45 35-83 49-120 49-46 0-78-27-89-71h325c7-25 14-55 14-86 0-121-74-216-218-216-162 0-278 130-278 286zm168-93c21-44 61-70 103-70 44 0 69 26 74 70zm548 293l29-204c16-111 82-144 171-144l19-138c-59 0-115 20-159 59l6-43h-156l-66 470zm338 235l412-705h-156l-144 253-73-253h-160l130 422-166 283zm0 0"/></svg>