<svg width="1840" height="1064.002" xmlns="http://www.w3.org/2000/svg"><path d="M52 780.002l65-461h120l1-9H118l15-109c13-90 63-146 135-146 29 0 55 9 77 24l6-7c-24-18-55-26-83-26-78 0-132 59-145 155l-15 109H49l-1 9h59l-65 461zm587 0l66-470h-10l-24 172c-11-99-85-176-199-176-138 0-243 122-243 267 0 118 75 211 197 211 95 0 186-72 225-161l-22 157zm-400-207c0-145 105-258 233-258 113 0 192 84 192 200 0 141-117 260-238 260-112 0-187-84-187-202zm900 155c-52 32-100 47-144 47-123 0-200-86-200-200 0-139 116-260 246-260 64 0 102 17 146 49l6-7c-40-32-83-51-152-51-140 0-256 129-256 269 0 113 75 209 210 209 49 0 98-17 148-49zm179-409l-52 371c-9 62 21 94 64 94 30 0 53-11 78-31l-5-7c-22 17-45 29-73 29-32 0-63-23-54-85l52-371h144l1-9h-144l18-127h-10l-18 127h-62l-1 9zm481 35c-43-33-82-48-124-48-81 0-138 49-138 119 0 136 217 105 217 237 0 70-58 113-127 113-47 0-84-15-137-60l-6 7c55 46 95 62 143 62 74 0 137-47 137-122 0-139-217-108-217-237 0-65 52-110 128-110 39 0 78 16 119 46zm0 0"/></svg>