<svg width="1920" height="1064.002" xmlns="http://www.w3.org/2000/svg"><path d="M44 342.002h63l-61 438h35l62-438h114l4-32H147l14-100c13-89 63-135 126-135 25 0 50 7 72 22l18-27c-25-18-56-28-89-28-79 0-147 59-162 168l-14 100H49zm638 438l66-470h-36l-18 134c-21-81-89-142-188-142-139 0-250 122-250 273 0 120 78 213 201 213 84 0 164-56 206-128l-17 120zm-389-209c0-135 99-238 216-238 106 0 174 81 174 185 0 128-104 239-218 239-104 0-172-78-172-186zm884 138c-50 32-95 47-138 47-105 0-178-78-178-184 0-133 106-238 222-238 56 0 95 16 141 49l19-26c-44-36-91-55-158-55-147 0-261 130-261 274 0 116 78 212 214 212 54 0 105-19 155-53zm122-367h65l-48 337c-10 71 28 109 82 109 32 0 58-11 86-30l-13-27c-21 15-44 25-68 25-32 0-59-22-51-77l47-337h139l5-32h-139l17-124h-35l-18 124h-65zm586 13c-45-37-87-53-131-53-85 0-148 55-148 130 0 138 210 107 210 225 0 63-54 100-115 100-46 0-85-18-131-58l-21 23c46 41 91 66 152 66 84 0 150-54 150-134 0-141-209-111-209-226 0-57 47-96 110-96 36 0 74 15 113 46zm0 0"/></svg>