<svg width="2162" height="1064.002" xmlns="http://www.w3.org/2000/svg"><path d="M21 410.002h78v370h114v-370h101v-100H213v-78c0-62 37-93 78-93 18 0 36 6 51 17l51-90c-30-19-64-31-106-31-104 0-188 71-188 201v74H21zm562 385c62 0 116-26 154-68v53h114v-470H737v54c-38-43-92-69-154-69-131 0-232 108-232 250s101 250 232 250zm-117-251c0-85 60-147 142-147 81 0 135 74 135 150s-55 146-135 146c-82 0-142-64-142-149zm843 108c-29 26-65 40-102 40-74 0-138-62-138-149s64-145 138-145c37 0 73 14 102 40l68-77c-45-40-99-66-169-66-146 0-254 114-254 252s108 248 254 248c70 0 124-26 169-66zm181-242v230c0 107 64 155 147 155 40 0 73-11 103-30l-39-88c-19 9-36 14-51 14-28 0-46-18-46-55v-226h128v-100h-128v-116h-114v116h-78v100zm633-56c-42-34-97-59-156-59-66 0-161 42-161 142 0 158 211 128 211 212 0 32-27 51-58 51-45 0-84-24-124-57l-55 77c41 34 100 75 183 75 91 0 167-60 167-146 0-163-212-135-212-212 0-30 26-47 56-47 27 0 56 10 93 40zm0 0"/></svg>