<svg width="3021" height="1064.002" xmlns="http://www.w3.org/2000/svg"><path d="M110 446.002v334h160v-334h97v-136h-97v-69c0-39 23-61 53-61 14 0 29 5 43 14l69-129c-33-17-68-31-122-31-125 0-203 80-203 206v70H20v136zm517 350c56 0 101-20 134-55v39h160v-470H761v38c-33-34-78-54-134-54-135 0-230 112-230 251s95 251 230 251zm-70-251c0-58 47-105 105-105 59 0 105 47 105 105s-46 105-105 105c-58 0-105-47-105-105zm644 235v-470h-160v470h160zm-79-530c53 0 94-42 94-95s-41-94-94-94-95 41-95 94 42 95 95 95zm359 530v-730h-160v730zm120-201c0 144 102 215 221 215 118 0 221-71 221-215v-269h-160v274c0 42-27 66-61 66s-61-24-61-66v-274h-160zm562 201h160v-219c0-105 62-126 151-126v-141c-56 0-110 18-151 53v-37h-160zm587 16c87 0 147-34 197-78l-85-101c-41 35-76 47-112 47-45 0-79-25-96-66h323c0-4 4-35 4-53 0-139-91-251-241-251-143 0-251 114-251 253 0 148 98 249 261 249zm-98-310c15-42 48-66 88-66 43 0 69 24 80 66zm0 0"/></svg>