<svg width="2748" height="1064.002" xmlns="http://www.w3.org/2000/svg"><path d="M34 408.002h78l-53 372h112l53-372h101l14-98H237l12-78c10-68 51-95 90-95 20 0 38 6 59 18l52-87c-28-20-64-33-108-33-98 0-187 65-205 191l-12 84H47zm768 372l66-470H756l-9 58c-33-44-85-73-153-73-146 0-262 124-262 283 0 124 83 217 205 217 62 0 117-25 159-64l-6 49zm-355-216c0-96 76-169 161-169 76 0 122 61 122 132 0 89-72 168-160 168-74 0-123-56-123-131zm590 216c2-16 64-454 66-470H991c-2 16-64 454-66 470h112zm24-542c44 0 78-37 78-81 0-35-25-61-65-61-44 0-78 36-78 80 0 35 26 62 65 62zm213 542l103-730h-112l-103 730zm328 14c123 0 208-74 227-211l39-273h-112l-39 275c-11 76-53 108-109 108-53 0-90-34-79-108l39-275h-113l-38 273c-20 137 56 211 185 211zm430-14l34-238c16-108 88-143 168-143l15-104c-59 0-115 22-158 66l7-51h-112l-66 470zm195-200c0 125 80 215 221 215 86 0 151-33 206-91l-63-72c-35 34-82 67-138 67-68 0-108-50-113-120h352c6-24 10-51 10-78 0-119-72-206-207-206-151 0-268 126-268 285zm125-86c24-65 80-105 140-105 61 0 96 38 98 105zm0 0"/></svg>