<svg width="2474" height="1064.002" xmlns="http://www.w3.org/2000/svg"><path d="M22 310.002v50h66v420h54v-420h110v-50H142v-93c0-84 46-128 104-128 23 0 44 7 65 21l26-41c-28-19-58-29-91-29-85 0-158 62-158 181v89zm493 480c79 0 149-45 186-111v101h54v-470h-54v101c-37-66-107-111-186-111-127 0-227 105-227 245s100 245 227 245zm-171-246c0-113 76-197 182-197 108 0 179 99 179 200 0 102-71 196-179 196-106 0-182-86-182-199zm598 236v-470h-54v470h54zm-24-552c23 0 40-17 40-40s-17-39-40-39c-22 0-40 16-40 39s18 40 40 40zm210 552v-730h-54v730zm134-208c0 150 81 218 187 218 107 0 188-68 188-218v-262h-54v270c0 114-60 161-134 161-72 0-133-47-133-161v-270h-54zm509 208h54v-262c0-123 73-165 148-165v-53c-63 0-117 33-148 95v-85h-54zm221-234c0 138 90 244 224 244 82 0 150-39 197-108l-40-31c-31 48-86 90-157 90-97 0-162-80-168-182h381v-17c0-143-82-242-216-242-122 0-221 101-221 246zm58-33c12-97 79-164 163-164 90 0 149 66 158 164zm0 0"/></svg>