<svg width="1118" height="1064.002" xmlns="http://www.w3.org/2000/svg"><path d="M42 360.002h66l-60 420h55l59-420h110l7-50H169l13-93c13-89 64-128 118-128 24 0 47 7 70 22l26-42c-25-19-56-29-92-29-82 0-160 58-177 177l-13 93H48zm670 420l66-470h-54l-15 106c-27-68-90-116-178-116-140 0-256 121-256 276 0 123 80 214 205 214 75 0 147-43 191-103l-13 93zm-380-210c0-127 94-223 204-223 100 0 160 78 160 174 0 118-93 222-204 222-97 0-160-72-160-173zm567 210l38-267c17-118 99-160 174-160l7-53c-68 0-128 34-164 93l11-83h-54l-66 470zm0 0"/></svg>