<svg width="1253" height="1064.002" xmlns="http://www.w3.org/2000/svg"><path d="M34 408.002h78l-53 372h112l53-372h101l14-98H237l12-78c10-68 51-95 90-95 20 0 38 6 59 18l52-87c-28-20-64-33-108-33-98 0-187 65-205 191l-12 84H47zm768 372l66-470H756l-9 58c-33-44-85-73-153-73-146 0-262 124-262 283 0 124 83 217 205 217 62 0 117-25 159-64l-6 49zm-355-216c0-96 76-169 161-169 76 0 122 61 122 132 0 89-72 168-160 168-74 0-123-56-123-131zm589 216l34-238c16-108 88-143 168-143l15-104c-59 0-115 22-158 66l7-51H990l-66 470zm0 0"/></svg>