<svg width="1384" height="1064.002" xmlns="http://www.w3.org/2000/svg"><path d="M44 342.002h63l-61 438h35l62-438h114l4-32H147l14-100c13-89 63-135 126-135 25 0 50 7 72 22l18-27c-25-18-56-28-89-28-79 0-147 59-162 168l-14 100H49zm212 235c0 127 76 211 197 211 77 0 141-32 201-102l-25-21c-50 58-107 91-175 91-96 0-161-70-161-183 0-6 0-13 1-19h389c3-19 5-37 5-55 0-114-67-197-190-197-130 0-242 116-242 275zm41-54c20-115 109-189 200-189 107 0 163 78 153 189zm551 257h24l184-403 73 403h23l232-470h-36l-197 405-72-405h-25l-186 407-91-407h-37zm0 0"/></svg>