<svg width="2392" height="1064.002" xmlns="http://www.w3.org/2000/svg"><path d="M70 780.002h10v-360h285v-9H80v-326h285v-9H70zm423 0v-470h-10v470h10zm-5-555c8 0 14-6 14-14s-6-14-14-14-14 6-14 14 6 14 14 14zm139 555h10v-260c0-154 75-204 151-204v-10c-79 0-130 48-151 130v-126h-10zm183-235c0 142 86 239 209 239 76 0 145-38 190-115l-8-5c-43 74-110 111-182 111-118 0-199-92-199-229h400v-9c0-139-79-231-202-231-114 0-208 94-208 239zm10-8c3-131 86-222 198-222 116 0 192 88 192 222zm459-227v9h59v461h10v-461h120v-9h-120v-109c0-92 43-146 117-146 27 0 50 7 77 24l5-7c-25-18-52-26-82-26-80 0-127 58-127 155v109zm679 235c0-129-94-239-230-239-139 0-233 107-233 239 0 129 94 239 233 239 136 0 230-107 230-239zm-10 0c0 125-93 230-220 230-130 0-223-107-223-230 0-125 93-230 223-230 127 0 220 107 220 230zm48 235h11l179-235 182 235h12l-187-242 174-228h-11l-170 222-171-222h-12l176 229zm0 0"/></svg>