<svg width="3181" height="1064.002" xmlns="http://www.w3.org/2000/svg"><path d="M69 780.002h22v-355h281v-20H91v-310h281v-19H69zm437 0v-730h-22v730zm333 6c96 0 177-64 207-154v148h22v-470h-22v148c-30-90-111-154-207-154-125 0-218 107-218 241s93 241 218 241zm-197-241c0-124 84-222 200-222 121 0 206 106 206 222s-85 222-206 222c-116 0-200-99-200-222zm580-216v356c0 66 31 101 84 101 30 0 57-11 83-33l-10-15c-25 20-48 29-72 29-41 0-64-29-64-82v-356h142v-19h-142v-126h-21v126h-63v19zm278 451v-730h-22v730zm333 6c96 0 177-64 207-154v148h22v-470h-22v148c-30-90-111-154-207-154-125 0-218 107-218 241s93 241 218 241zm-197-241c0-124 84-222 200-222 121 0 206 106 206 222s-85 222-206 222c-116 0-200-99-200-222zm563 235h22v-272c0-120 84-185 172-185 90 0 142 54 142 165v292h22v-294c0-120-61-182-160-182-78 0-150 45-176 128v-122h-22zm685 6c96 0 177-64 207-154v148h22v-730h-22v408c-30-90-111-154-207-154-125 0-218 107-218 241s93 241 218 241zm-197-241c0-124 84-222 200-222 121 0 206 106 206 222s-85 222-206 222c-116 0-200-99-200-222zm0 0"/></svg>