<svg width="3252" height="1064.002" xmlns="http://www.w3.org/2000/svg"><path d="M68 780.002h37v-349h276v-33H105v-289h276v-33H68zm457 0v-730h-36v730zm335 8c89 0 165-56 198-136v128h36v-470h-36v128c-33-80-109-136-198-136-126 0-222 107-222 243s96 243 222 243zm-186-244c0-119 80-211 193-211 115 0 194 104 194 213s-79 211-194 211c-113 0-193-94-193-213zm574-202v337c0 72 36 109 94 109 31 0 59-11 86-32l-16-25c-23 17-46 25-67 25-38 0-61-26-61-77v-337h139v-32h-139v-124h-36v124h-65v32zm302 438v-730h-36v730zm335 8c89 0 165-56 198-136v128h36v-470h-36v128c-33-80-109-136-198-136-126 0-222 107-222 243s96 243 222 243zm-186-244c0-119 80-211 193-211 115 0 194 104 194 213s-79 211-194 211c-113 0-193-94-193-213zm555 236h36v-270c0-116 79-177 160-177 82 0 135 51 135 158v289h36v-293c0-122-66-185-163-185-71 0-139 40-168 115v-107h-36zm697 8c89 0 165-56 198-136v128h36v-730h-36v388c-33-80-109-136-198-136-126 0-222 107-222 243s96 243 222 243zm-186-244c0-119 80-211 193-211 115 0 194 104 194 213s-79 211-194 211c-113 0-193-94-193-213zm0 0"/></svg>