<svg width="1114" height="1064.002" xmlns="http://www.w3.org/2000/svg"><path d="M42 360.002h66l-60 420h55l59-420h110l7-50H169l13-93c13-89 64-128 118-128 24 0 47 7 70 22l26-42c-25-19-56-29-92-29-82 0-160 58-177 177l-13 93H48zm724 153c0-119-81-213-219-213-153 0-272 126-272 275 0 119 83 215 221 215 152 0 270-132 270-277zm-56 4c0 119-97 224-213 224-100 0-165-75-165-171 0-121 98-221 213-221 101 0 165 74 165 168zm185 263l38-267c17-118 99-160 174-160l7-53c-68 0-128 34-164 93l11-83h-54l-66 470zm0 0"/></svg>