<svg width="1073" height="1064.002" xmlns="http://www.w3.org/2000/svg"><path d="M44 342.002h63l-61 438h35l62-438h114l4-32H147l14-100c13-89 63-135 126-135 25 0 50 7 72 22l18-27c-25-18-56-28-89-28-79 0-147 59-162 168l-14 100H49zm693 169c0-116-79-209-215-209-149 0-266 126-266 273 0 117 81 213 217 213 150 0 264-135 264-277zm-36 3c0 126-104 242-227 242-110 0-181-80-181-184 0-131 105-238 228-238 110 0 180 79 180 180zm149 266l38-270c18-127 104-173 179-173l6-35c-77 0-139 43-172 111l15-103h-36l-66 470zm0 0"/></svg>