<svg width="3374" height="1064.002" xmlns="http://www.w3.org/2000/svg"><path d="M23 310.002v9h59v461h10v-461h120v-9H92v-109c0-92 43-146 117-146 27 0 50 7 77 24l5-7c-25-18-52-26-82-26-80 0-127 58-127 155v109zm270 284c0 125 69 190 173 190s174-64 174-190v-284h-10v284c0 121-65 181-164 181-98 0-163-60-163-181v-284h-10zm497 186v-730h-10v730zm93-470v9h59v461h10v-461h120v-9H952v-121c0-85 35-134 100-134s100 49 100 134v37h10v-37c0-91-40-143-110-143s-110 53-110 143v121zm269 470h10v-470h-10zm160 0v-730h-10v730zm140 0h10v-274c0-122 74-191 153-191 85 0 137 55 137 171v294h10v-274c0-122 74-191 153-191 85 0 137 55 137 171v294h10v-294c0-126-62-180-147-180-66 0-135 48-155 142-12-99-69-142-145-142-64 0-131 45-153 133v-129h-10zm720-235c0 142 86 239 209 239 76 0 145-38 190-115l-8-5c-43 74-110 111-182 111-118 0-199-92-199-229h400v-9c0-139-79-231-202-231-114 0-208 94-208 239zm10-8c3-131 86-222 198-222 116 0 192 88 192 222zm516 243h10v-274c0-122 88-191 182-191 96 0 148 57 148 170v295h10v-295c0-118-56-179-158-179-82 0-158 48-182 137v-133h-10zm499-461v371c0 61 27 94 76 94 29 0 55-11 81-32l-6-7c-26 21-50 30-74 30-44 0-67-30-67-85v-371h144v-9h-144v-127h-10v127h-62v9zm0 0"/></svg>