<svg width="5095" height="1064.002" xmlns="http://www.w3.org/2000/svg"><path d="M274 784.002c67 0 129-28 172-74v83c0 106-74 164-157 164-58 0-118-37-148-107l-69 29c40 102 132 149 219 149 140 0 235-98 235-245v-473h-80v66c-43-49-105-80-172-80-128 0-231 100-231 244s103 244 231 244zm18-419c97 0 160 93 160 183 0 92-63 167-160 167-99 0-167-72-167-177s68-173 167-173zm575 429c85 0 152-40 200-105l-58-45c-24 33-72 78-142 78-86 0-141-72-150-155h369s1-14 1-22c0-145-85-249-225-249-126 0-228 106-228 251 0 135 92 247 233 247zm-147-295c16-78 74-131 142-131 76 0 125 54 139 131zm475 281h80v-263c0-105 63-152 124-152 57 0 112 39 112 135v280h80v-289c0-130-83-195-170-195-54 0-109 25-146 75v-61h-80zm734 14c85 0 152-40 200-105l-58-45c-24 33-72 78-142 78-86 0-141-72-150-155h369s1-14 1-22c0-145-85-249-225-249-126 0-228 106-228 251 0 135 92 247 233 247zm-147-295c16-78 74-131 142-131 76 0 125 54 139 131zm475 281h80v-263c0-105 72-142 146-142v-79c-54 0-109 25-146 75v-61h-80zm487 14c67 0 127-30 170-78v64h80v-470h-80v65c-43-49-103-79-170-79-128 0-233 105-233 249s105 249 233 249zm-151-251c0-105 70-178 169-178 98 0 158 93 158 183 0 91-60 177-158 177-99 0-169-77-169-182zm554-160v277c0 90 52 134 124 134 36 0 66-10 95-31l-33-57c-19 11-38 17-55 17-29 0-51-19-51-63v-277h131v-73h-131v-120h-80v120h-70v73zm380 397v-470h-80v470h80zm-35-550c31 0 54-24 54-55s-23-54-54-54-55 23-55 54 24 55 55 55zm641 315c0-137-105-249-249-249s-249 112-249 249 105 249 249 249 249-112 249-249zm-82 0c0 97-70 177-167 177-96 0-167-80-167-177s71-177 167-177c97 0 167 80 167 177zm190 235h80v-263c0-105 63-152 124-152 57 0 112 39 112 135v280h80v-289c0-130-83-195-170-195-54 0-109 25-146 75v-61h-80zm804-426c-38-34-89-58-139-58-63 0-153 40-153 134 0 162 226 121 226 225 0 47-39 72-81 72-46 0-91-25-127-58l-41 54c34 31 91 71 168 71 81 0 159-51 159-139 0-168-226-126-226-225 0-43 37-67 75-67 28 0 59 11 98 44zm0 0"/></svg>