<svg width="4709" height="1064.002" xmlns="http://www.w3.org/2000/svg"><path d="M264 784.002c96 0 177-65 207-153v149c0 139-81 221-205 221-94 0-150-52-190-138l-18 9c41 93 106 148 209 148 138 0 226-94 226-242v-468h-22v149c-30-90-111-155-207-155-125 0-218 106-218 240s93 240 218 240zm3-461c121 0 205 107 205 222 0 8 0 15-1 22-10 112-95 198-204 198-117 0-200-98-200-221 0-124 83-221 200-221zm341 223c0 140 87 240 212 240 78 0 147-39 192-114l-16-11c-40 67-104 105-176 105-113 0-189-89-191-217h395v-10c0-141-79-235-205-235-116 0-211 97-211 242zm21-15c6-122 85-207 190-207 109 0 181 82 183 207zm510 249h22v-272c0-120 84-185 172-185 90 0 142 54 142 165v292h22v-294c0-120-61-182-160-182-78 0-150 45-176 128v-122h-22zm467-234c0 140 87 240 212 240 78 0 147-39 192-114l-16-11c-40 67-104 105-176 105-113 0-189-89-191-217h395v-10c0-141-79-235-205-235-116 0-211 97-211 242zm21-15c6-122 85-207 190-207 109 0 181 82 183 207zm510 249h22v-261c0-146 74-193 150-193v-22c-75 0-127 44-150 121v-115h-22zm422 6c96 0 177-64 207-154v148h22v-470h-22v148c-30-90-111-154-207-154-125 0-218 107-218 241s93 241 218 241zm-197-241c0-124 84-222 200-222 121 0 206 106 206 222s-85 222-206 222c-116 0-200-99-200-222zm580-216v356c0 66 31 101 84 101 30 0 57-11 83-33l-10-15c-25 20-48 29-72 29-41 0-64-29-64-82v-356h142v-19h-142v-126h-21v126h-63v19zm280 451v-470h-21v470h21zm-10-554c12 0 21-9 21-21s-9-20-21-20c-11 0-20 8-20 20s9 21 20 21zm588 319c0-130-96-241-233-241-140 0-235 108-235 241 0 130 95 241 235 241 137 0 233-108 233-241zm-21 0c0 120-90 221-212 221-124 0-214-102-214-221 0-121 90-221 214-221 122 0 212 102 212 221zm136 235h22v-272c0-120 84-185 172-185 90 0 142 54 142 165v292h22v-294c0-120-61-182-160-182-78 0-150 45-176 128v-122h-22zm735-431c-41-30-81-45-124-45-65 0-127 45-127 113 0 152 244 107 244 247 0 76-65 103-120 103s-97-24-136-53l-12 15c40 30 88 57 148 57 65 0 141-34 141-122 0-158-244-112-244-247 0-59 53-94 106-94 36 0 72 12 113 40zm0 0"/></svg>