<svg width="2411" height="1064.002" xmlns="http://www.w3.org/2000/svg"><path d="M556 310.002H445l-8 58c-34-45-87-73-154-73-149 0-260 118-260 276 0 124 85 211 207 211 60 0 115-24 157-62l-9 66c-13 93-81 141-152 141-59 0-101-33-127-93l-96 42c40 103 121 153 219 153 145 0 247-100 268-246zm-419 251c0-97 73-166 164-166 72 0 118 61 118 132 0 90-72 162-159 162-75 0-123-53-123-128zm591 219l34-238c16-108 88-143 168-143l15-104c-59 0-115 22-158 66l7-51H682l-66 470zm195-200c0 125 80 215 221 215 86 0 151-33 206-91l-63-72c-35 34-82 67-138 67-68 0-108-50-113-120h352c6-24 10-51 10-78 0-119-72-206-207-206-151 0-268 126-268 285zm125-86c24-65 80-105 140-105 61 0 96 38 98 105zm897 286l66-470h-112l-9 58c-33-44-85-73-153-73-146 0-262 124-262 283 0 124 83 217 205 217 62 0 117-25 159-64l-6 49zm-355-216c0-96 76-169 161-169 76 0 122 61 122 132 0 89-72 168-160 168-74 0-123-56-123-131zm567-156l-32 223c-15 105 40 164 132 164 38 0 69-11 103-27l-28-90c-20 10-40 15-55 15-29 0-46-18-41-56l33-229h128l14-98h-129l17-116h-112l-17 116h-78l-13 98zm0 0"/></svg>