<svg width="2367" height="1064.002" xmlns="http://www.w3.org/2000/svg"><path d="M60 780.002h160v-261c0-63 34-84 66-84 29 0 56 22 56 72v273h160v-319c0-114-72-167-151-167-45 0-93 17-131 51v-295H60zm772 16c56 0 101-20 134-55v39h160v-470H966v38c-33-34-78-54-134-54-135 0-230 112-230 251s95 251 230 251zm-70-251c0-58 47-105 105-105 59 0 105 47 105 105s-46 105-105 105c-58 0-105-47-105-105zm484 235h160v-261c0-63 34-84 66-84 29 0 56 22 56 72v273h160v-319c0-114-72-167-151-167-45 0-93 17-131 51v-35h-160zm775 16c55 0 99-20 131-53v37h160v-730h-160v297c-32-33-76-53-131-53-132 0-233 112-233 251s101 251 233 251zm-73-251c0-58 47-105 105-105 59 0 105 47 105 105s-46 105-105 105c-58 0-105-47-105-105zm0 0"/></svg>