<svg width="1412" height="1064.002" xmlns="http://www.w3.org/2000/svg"><path d="M51 780.002l38-272c17-120 109-185 191-185 84 0 142 57 124 182l-39 275h22l39-276c19-136-46-200-140-200-71 0-151 44-186 129l54-383h-22l-103 730zm877 0l66-470h-22l-21 155c-15-91-87-161-194-161-139 0-246 122-246 269 0 120 76 213 199 213 89 0 176-65 216-147l-20 141zm-396-208c0-140 103-249 226-249 110 0 184 83 184 193 0 136-111 251-229 251-109 0-181-81-181-195zm841-218c-44-34-84-50-127-50-83 0-142 52-142 124 0 137 213 106 213 232 0 67-56 107-121 107-47 0-85-16-135-59l-12 14c51 44 93 64 147 64 78 0 143-50 143-127 0-140-214-110-214-233 0-61 50-103 120-103 38 0 77 15 116 46zm0 0"/></svg>