<svg width="1965" height="1064.002" xmlns="http://www.w3.org/2000/svg"><path d="M69 780.002h22v-272c0-120 88-185 179-185 86 0 135 54 135 174v283h22v-285c0-129-58-191-154-191-80 0-156 45-182 128v-382H69zm685 6c96 0 177-64 207-154v148h22v-470h-22v148c-30-90-111-154-207-154-125 0-218 107-218 241s93 241 218 241zm-197-241c0-124 84-222 200-222 121 0 206 106 206 222s-85 222-206 222c-116 0-200-99-200-222zm718 235l202-470h-22l-185 433-185-433h-23l200 470zm228-234c0 140 87 240 212 240 78 0 147-39 192-114l-16-11c-40 67-104 105-176 105-113 0-189-89-191-217h395v-10c0-141-79-235-205-235-116 0-211 97-211 242zm21-15c6-122 85-207 190-207 109 0 181 82 183 207zm0 0"/></svg>