<svg width="2230" height="1064.002" xmlns="http://www.w3.org/2000/svg"><path d="M176 780.002l37-261c9-65 48-87 81-87 31 0 56 22 48 75l-38 273h156l45-317c16-114-48-168-126-168-57 0-105 22-143 56l43-301H123l-103 730zm896 0l66-470H982l-7 45c-29-37-73-61-134-61-153 0-261 129-261 283 0 123 82 219 198 219 59 0 106-21 143-53l-5 37zm-334-222c0-66 59-122 124-122 55 0 94 43 94 96 0 66-60 122-125 122-55 0-93-43-93-96zm450-248l143 470h115l275-470h-156l-144 253-73-253zm502 270c0 128 89 216 238 216 87 0 146-28 202-73l-74-105c-45 35-83 49-120 49-46 0-78-27-89-71h325c7-25 14-55 14-86 0-121-74-216-218-216-162 0-278 130-278 286zm168-93c21-44 61-70 103-70 44 0 69 26 74 70zm0 0"/></svg>