<svg width="1923" height="1064.002" xmlns="http://www.w3.org/2000/svg"><path d="M40 780.002l39-274c17-122 114-191 199-191 90 0 149 61 131 191l-39 274h10l39-274c19-136-44-200-139-200-74 0-158 47-193 138l56-394h-10l-103 730zm874 0l66-470h-10l-24 172c-11-99-85-176-199-176-138 0-243 122-243 267 0 118 75 211 197 211 95 0 186-72 225-161l-22 157zm-400-207c0-145 105-258 233-258 113 0 192 84 192 200 0 141-117 260-238 260-112 0-187-84-187-202zm549-263l132 470h7l266-470h-11l-256 453-128-453zm586 474c73 0 134-28 197-100l-7-6c-63 72-122 97-190 97-103 0-180-72-180-199 0-10 0-20 1-30h402c2-15 3-30 3-45 0-112-65-195-185-195-122 0-231 112-231 270 0 129 78 208 190 208zm41-469c125 0 188 95 173 222h-392c17-136 117-222 219-222zm0 0"/></svg>