<svg width="3262" height="1064.002" xmlns="http://www.w3.org/2000/svg"><path d="M63 780.002h114v-262c0-87 50-123 99-123 45 0 89 31 89 108v277h113v-302c0-123-78-183-162-183-50 0-102 22-139 65v-310H63zm763 15c85 0 149-38 198-94l-69-68c-31 33-74 64-129 64-69 0-116-50-128-117h350c0-1 2-23 2-35 0-143-87-250-232-250-133 0-237 109-237 252 0 140 94 248 245 248zm-126-302c15-63 62-103 118-103 62 0 102 41 115 103zm569 287v-730h-114v730zm126 234h114v-287c38 42 91 68 153 68 130 0 233-108 233-250s-103-250-233-250c-62 0-115 26-153 67v-52h-114zm108-471c0-76 55-146 135-146 82 0 142 64 142 149s-60 147-142 147c-81 0-135-74-135-150zm445-133h78v370h114v-370h101v-100h-101v-78c0-62 37-93 78-93 18 0 36 6 51 17l51-90c-30-19-64-31-106-31-104 0-188 71-188 201v74h-78zm381 157c0 156 94 227 206 227 113 0 207-71 207-227v-257h-114v267c0 81-45 115-93 115-47 0-92-34-92-115v-267h-114zm653 213v-730h-114v730zm172 15c41 0 73-33 73-74 0-42-32-74-73-74-42 0-74 32-74 74 0 41 32 74 74 74zm0 0"/></svg>