<svg width="2326" height="1064.002" xmlns="http://www.w3.org/2000/svg"><path d="M70 780.002h10v-274c0-122 93-191 190-191 92 0 140 57 140 181v284h10v-284c0-129-52-190-150-190-85 0-166 48-190 137v-393H70zm460-235c0 142 86 239 209 239 76 0 145-38 190-115l-8-5c-43 74-110 111-182 111-118 0-199-92-199-229h400v-9c0-139-79-231-202-231-114 0-208 94-208 239zm10-8c3-131 86-222 198-222 116 0 192 88 192 222zm516 243h10v-260c0-154 75-204 151-204v-10c-79 0-130 48-151 130v-126h-10zm183-235c0 142 86 239 209 239 76 0 145-38 190-115l-8-5c-43 74-110 111-182 111-118 0-199-92-199-229h400v-9c0-139-79-231-202-231-114 0-208 94-208 239zm10-8c3-131 86-222 198-222 116 0 192 88 192 222zm529 243v-470h-10v470h10zm-5-555c8 0 14-6 14-14s-6-14-14-14-14 6-14 14 6 14 14 14zm139 555h10v-274c0-122 88-191 182-191 96 0 148 57 148 170v295h10v-295c0-118-56-179-158-179-82 0-158 48-182 137v-133h-10zm0 0"/></svg>