<svg width="2998" height="1064.002" xmlns="http://www.w3.org/2000/svg"><path d="M67 780.002h54v-267c0-111 74-166 148-166 70 0 123 45 123 151v282h54v-287c0-130-72-193-163-193-65 0-130 33-162 98v-348H67zm564 0v-470h-54v470h54zm-24-552c23 0 40-17 40-40s-17-39-40-39c-22 0-40 16-40 39s18 40 40 40zm359 556c80 0 149-44 187-109v112c0 121-77 189-178 189-74 0-132-43-166-120l-47 20c41 98 121 148 215 148 139 0 230-96 230-243v-471h-54v102c-38-67-108-112-187-112-127 0-226 102-226 242 0 139 99 242 226 242zm11-437c108 0 180 99 180 200 0 103-72 190-180 190-107 0-181-83-181-196 0-114 74-194 181-194zm364 433h54v-267c0-111 74-166 148-166 70 0 123 45 123 151v282h54v-287c0-130-72-193-163-193-65 0-130 33-162 98v-348h-54zm486-234c0 138 90 244 224 244 82 0 150-39 197-108l-40-31c-31 48-86 90-157 90-97 0-162-80-168-182h381v-17c0-143-82-242-216-242-122 0-221 101-221 246zm58-33c12-97 79-164 163-164 90 0 149 66 158 164zm756-161c-39-33-85-52-132-52-64 0-142 41-142 124 0 158 234 115 234 235 0 59-51 85-98 85-50 0-94-24-131-55l-28 37c36 30 89 64 159 64 74 0 151-43 151-131 0-164-234-120-234-235 0-50 44-79 89-79 31 0 64 12 104 43zm143 8v311c0 79 43 119 106 119 34 0 62-10 90-31l-23-39c-21 15-42 22-62 22-34 0-57-23-57-71v-311h136v-50h-136v-123h-54v123h-67v50zm0 0"/></svg>