<svg width="1038" height="1064.002" xmlns="http://www.w3.org/2000/svg"><path d="M64 780.002l38-270c16-116 103-177 179-177 78 0 134 53 117 171l-39 276h36l40-280c18-133-49-198-142-198-68 0-141 39-178 116l52-368h-36l-103 730zm484 0c2-14 64-456 66-470h-36c-2 14-64 456-66 470h36zm61-553c18 0 32-15 32-33 0-14-10-25-26-25-18 0-32 14-32 33 0 14 10 25 26 25zm394 128c-45-37-87-53-131-53-85 0-148 55-148 130 0 138 210 107 210 225 0 63-54 100-115 100-46 0-85-18-131-58l-21 23c46 41 91 66 152 66 84 0 150-54 150-134 0-141-209-111-209-226 0-57 47-96 110-96 36 0 74 15 113 46zm0 0"/></svg>