<svg width="1175" height="1064.002" xmlns="http://www.w3.org/2000/svg"><path d="M135 780.002l37-262c12-88 69-125 118-125 46 0 85 32 74 110l-39 277h113l42-301c17-123-52-183-138-183-57 0-109 23-148 67l44-313H126l-103 730zm527 0c2-16 64-454 66-470H616c-2 16-64 454-66 470h112zm24-542c44 0 78-37 78-81 0-35-25-61-65-61-44 0-78 36-78 80 0 35 26 62 65 62zm471 118c-46-39-95-61-154-61-91 0-177 59-177 157 0 137 185 116 185 192 0 36-34 57-68 57-45 0-83-22-117-55l-63 74c35 34 90 75 181 75 105 0 179-70 179-163 0-140-184-119-184-193 0-31 27-50 61-50 29 0 61 11 94 38zm0 0"/></svg>