<svg width="3911" height="1064.002" xmlns="http://www.w3.org/2000/svg"><path d="M40 780.002l39-274c17-122 114-191 199-191 90 0 149 61 131 191l-39 274h10l39-274c19-136-44-200-139-200-74 0-158 47-193 138l56-394h-10l-103 730zm469 0c2-10 65-460 66-470h-10c-1 10-64 460-66 470h10zm73-555c9 0 16-7 16-16 0-7-5-12-12-12-9 0-16 7-16 16 0 7 5 12 12 12zm365 129c-43-33-82-48-124-48-81 0-138 49-138 119 0 136 217 105 217 237 0 70-58 113-127 113-47 0-84-15-137-60l-6 7c55 46 95 62 143 62 74 0 137-47 137-122 0-139-217-108-217-237 0-65 52-110 128-110 39 0 78 16 119 46zm80 426l39-274c20-140 111-190 187-190l2-10c-86 0-153 53-180 133l18-129h-10l-66 470zm403 4c73 0 134-28 197-100l-7-6c-63 72-122 97-190 97-103 0-180-72-180-199 0-10 0-20 1-30h402c2-15 3-30 3-45 0-112-65-195-185-195-122 0-231 112-231 270 0 129 78 208 190 208zm41-469c125 0 188 95 173 222h-392c17-136 117-222 219-222zm678 465l66-470h-10l-24 172c-11-99-85-176-199-176-138 0-243 122-243 267 0 118 75 211 197 211 95 0 186-72 225-161l-22 157zm-400-207c0-145 105-258 233-258 113 0 192 84 192 200 0 141-117 260-238 260-112 0-187-84-187-202zm956 207l103-730h-10l-61 431c-14-99-82-175-189-175-142 0-253 124-253 271 0 116 73 207 185 207 101 0 192-62 237-162l-22 158zm-400-204c0-141 109-261 241-261 109 0 184 89 184 201 0 137-116 259-248 259-108 0-177-88-177-199zm736 208c73 0 134-28 197-100l-7-6c-63 72-122 97-190 97-103 0-180-72-180-199 0-10 0-20 1-30h402c2-15 3-30 3-45 0-112-65-195-185-195-122 0-231 112-231 270 0 129 78 208 190 208zm41-469c125 0 188 95 173 222h-392c17-136 117-222 219-222zm272 465l39-274c20-140 111-190 187-190l2-10c-86 0-153 53-180 133l18-129h-10l-66 470zm516-426c-43-33-82-48-124-48-81 0-138 49-138 119 0 136 217 105 217 237 0 70-58 113-127 113-47 0-84-15-137-60l-6 7c55 46 95 62 143 62 74 0 137-47 137-122 0-139-217-108-217-237 0-65 52-110 128-110 39 0 78 16 119 46zm0 0"/></svg>