<svg width="2559" height="1064.002" xmlns="http://www.w3.org/2000/svg"><path d="M81 780.002l38-267c16-111 95-166 165-166 69 0 122 47 107 155l-39 278h54l40-284c19-132-51-196-144-196-62 0-128 33-167 98l49-348h-54l-103 730zm938-267c0-119-81-213-219-213-153 0-272 126-272 275 0 119 83 215 221 215 152 0 270-132 270-277zm-56 4c0 119-97 224-213 224-100 0-165-75-165-171 0-121 98-221 213-221 101 0 165 74 165 168zm197-207l-100 704h55l48-340c27 68 91 116 174 116 141 0 260-122 260-278 0-121-80-212-200-212-78 0-151 40-196 105l13-95zm380 208c0 127-96 225-207 225-98 0-157-80-157-174 0-118 93-222 207-222 96 0 157 74 157 171zm138 60c0 126 75 212 202 212 81 0 147-33 205-102l-38-32c-41 47-96 85-166 85-108 0-146-87-146-182h381c4-21 6-41 6-62 0-116-69-197-194-197-135 0-250 119-250 278zm63-65c23-100 102-164 186-164 93 0 143 65 138 164zm787-158c-46-39-91-55-136-55-89 0-155 58-155 137 0 140 204 108 204 216 0 58-51 91-105 91-47 0-87-20-126-57l-32 36c39 36 87 67 158 67 91 0 159-57 159-143 0-141-204-111-204-217 0-51 44-85 97-85 34 0 72 15 109 45zm0 0"/></svg>