<svg width="3578" height="1064.002" xmlns="http://www.w3.org/2000/svg"><path d="M106 780.002v-470H70v470h36zm-16-553c16 0 28-13 28-29 0-17-12-29-28-29-17 0-29 12-29 29 0 16 12 29 29 29zm148 83v470h36v-278c0-109 66-169 135-169 71 0 121 49 121 150v297h35v-278c0-109 66-170 135-170 73 0 121 50 121 151v297h36v-300c0-123-65-178-147-178-64 0-124 38-153 111-20-76-75-111-140-111-58 0-117 35-146 105v-97zm750 0v470h36v-278c0-109 66-169 135-169 71 0 121 49 121 150v297h35v-278c0-109 66-170 135-170 73 0 121 50 121 151v297h36v-300c0-123-65-178-147-178-64 0-124 38-153 111-20-76-75-111-140-111-58 0-117 35-146 105v-97zm945 478c79 0 147-39 193-112l-26-19c-36 59-96 99-167 99-107 0-178-86-182-202h389c0-3 1-9 1-14 0-141-81-238-211-238-118 0-215 99-215 244 0 139 88 242 218 242zm-181-265c9-111 83-189 178-189 101 0 168 76 173 189zm502 257h36v-270c0-116 79-177 160-177 82 0 135 51 135 158v289h36v-293c0-122-66-185-163-185-71 0-139 40-168 115v-107h-36zm752-430c-41-31-83-48-128-48-65 0-133 43-133 118 0 154 239 111 239 242 0 68-58 95-110 95-53 0-96-24-134-54l-19 24c39 31 89 61 153 61 68 0 145-38 145-126 0-160-239-115-239-242 0-55 49-88 98-88 34 0 69 12 109 42zm319 438c79 0 147-39 193-112l-26-19c-36 59-96 99-167 99-107 0-178-86-182-202h389c0-3 1-9 1-14 0-141-81-238-211-238-118 0-215 99-215 244 0 139 88 242 218 242zm-181-265c9-111 83-189 178-189 101 0 168 76 173 189zm0 0"/></svg>