<svg width="4663" height="1064.002" xmlns="http://www.w3.org/2000/svg"><path d="M145 780.002v-470H65v470h80zm-35-550c31 0 54-24 54-55s-23-54-54-54-55 23-55 54 24 55 55 55zm165 550h80v-263c0-105 63-152 124-152 57 0 112 39 112 135v280h80v-289c0-130-83-195-170-195-54 0-109 25-146 75v-61h-80zm479-470v73h70v397h80v-397h104v-73H904v-84c0-79 47-117 96-117 21 0 41 7 58 19l38-61c-29-20-61-31-95-31-89 0-177 65-177 197v77zm529 484c85 0 152-40 200-105l-58-45c-24 33-72 78-142 78-86 0-141-72-150-155h369s1-14 1-22c0-145-85-249-225-249-126 0-228 106-228 251 0 135 92 247 233 247zm-147-295c16-78 74-131 142-131 76 0 125 54 139 131zm818 178c-36 31-76 45-118 45-83 0-165-71-165-179s82-175 165-175c42 0 82 14 118 45l45-56c-43-38-94-61-161-61-144 0-249 114-249 251s105 247 249 247c67 0 118-23 161-61zm131-118c0 164 88 235 196 235s196-71 196-235v-249h-80v262c0 110-58 150-116 150s-116-40-116-150v-262h-80zm522 221h80v-263c0-105 63-152 124-152 57 0 112 39 112 135v280h80v-289c0-130-83-195-170-195-54 0-109 25-146 75v-61h-80zm734 14c67 0 127-30 170-78v64h80v-730h-80v325c-43-49-103-79-170-79-128 0-233 105-233 249s105 249 233 249zm-151-251c0-105 70-178 169-178 98 0 158 93 158 183 0 91-60 177-158 177-99 0-169-77-169-182zm608 237v-470h-80v470h80zm-35-550c31 0 54-24 54-55s-23-54-54-54-55 23-55 54 24 55 55 55zm191 153v277c0 90 52 134 124 134 36 0 66-10 95-31l-33-57c-19 11-38 17-55 17-29 0-51-19-51-63v-277h131v-73h-131v-120h-80v120h-70v73zm239-73l191 430-123 275h84l314-705h-84l-147 329-148-329zm0 0"/></svg>