<svg width="4477" height="1064.002" xmlns="http://www.w3.org/2000/svg"><path d="M122 780.002v-470H68v470h54zm-24-552c23 0 40-17 40-40s-17-39-40-39c-22 0-40 16-40 39s18 40 40 40zm156 552h54v-267c0-111 72-166 145-166 72 0 126 45 126 148v285h54v-291c0-126-73-189-166-189-64 0-127 33-159 98v-88h-54zm464-470v50h66v420h54v-420h110v-50H838v-93c0-84 46-128 104-128 23 0 44 7 65 21l26-41c-28-19-58-29-91-29-85 0-158 62-158 181v89zm266 236c0 138 90 244 224 244 82 0 150-39 197-108l-40-31c-31 48-86 90-157 90-97 0-162-80-168-182h381v-17c0-143-82-242-216-242-122 0-221 101-221 246zm58-33c12-97 79-164 163-164 90 0 149 66 158 164zm836 182c-40 32-81 46-127 46-99 0-185-79-185-197 0-119 86-195 185-195 47 0 87 13 127 46l31-38c-47-38-94-57-157-57-142 0-242 109-242 246s100 244 242 244c62 0 111-20 157-57zm124-123c0 150 81 218 187 218 107 0 188-68 188-218v-262h-54v270c0 114-60 161-134 161-72 0-133-47-133-161v-270h-54zm509 208h54v-267c0-111 72-166 145-166 72 0 126 45 126 148v285h54v-291c0-126-73-189-166-189-64 0-127 33-159 98v-88h-54zm713 10c79 0 149-45 186-111v101h54v-730h-54v361c-37-66-107-111-186-111-127 0-227 105-227 245s100 245 227 245zm-171-246c0-113 76-197 182-197 108 0 179 99 179 200 0 102-71 196-179 196-106 0-182-86-182-199zm598 236v-470h-54v470h54zm-24-552c23 0 40-17 40-40s-17-39-40-39c-22 0-40 16-40 39s18 40 40 40zm178 132v311c0 79 43 119 106 119 34 0 62-10 90-31l-23-39c-21 15-42 22-62 22-34 0-57-23-57-71v-311h136v-50h-136v-123h-54v123h-67v50zm221-50l194 443-116 262h58l308-705h-58l-163 374-164-374zm0 0"/></svg>