<svg width="5225" height="1064.002" xmlns="http://www.w3.org/2000/svg"><path d="M220 780.002v-470H60v470h160zm-79-530c53 0 94-42 94-95s-41-94-94-94-95 41-95 94 42 95 95 95zm199 530h160v-261c0-63 34-84 66-84 29 0 56 22 56 72v273h160v-319c0-114-72-167-151-167-45 0-93 17-131 51v-35H340zm612-334v334h160v-334h97v-136h-97v-69c0-39 23-61 53-61 14 0 29 5 43 14l69-129c-33-17-68-31-122-31-125 0-203 80-203 206v70h-90v136zm548 350c87 0 147-34 197-78l-85-101c-41 35-76 47-112 47-45 0-79-25-96-66h323c0-4 4-35 4-53 0-139-91-251-241-251-143 0-251 114-251 253 0 148 98 249 261 249zm-98-310c15-42 48-66 88-66 43 0 69 24 80 66zm751 131c-20 20-50 33-81 33-60 0-101-49-101-107s41-103 101-103c31 0 61 13 81 33l99-106c-48-43-106-73-180-73-149 0-261 114-261 253s112 249 261 249c74 0 132-30 180-73zm164-38c0 144 102 215 221 215 118 0 221-71 221-215v-269h-160v274c0 42-27 66-61 66s-61-24-61-66v-274h-160zm562 201h160v-261c0-63 34-84 66-84 29 0 56 22 56 72v273h160v-319c0-114-72-167-151-167-45 0-93 17-131 51v-35h-160zm775 16c55 0 99-20 131-53v37h160v-730h-160v297c-32-33-76-53-131-53-132 0-233 112-233 251s101 251 233 251zm-73-251c0-58 47-105 105-105 59 0 105 47 105 105s-46 105-105 105c-58 0-105-47-105-105zm639 235v-470h-160v470h160zm-79-530c53 0 94-42 94-95s-41-94-94-94-95 41-95 94 42 95 95 95zm249 196v167c0 130 80 183 179 183 45 0 81-12 113-27l-48-132c-17 7-32 10-44 10-27 0-40-16-40-44v-157h124v-136h-124v-110h-160v110h-90v136zm299-136l188 422-126 283h161l313-705h-160l-105 246-105-246zm0 0"/></svg>