<svg width="3492" height="1064.002" xmlns="http://www.w3.org/2000/svg"><path d="M83 780.002v-470H73v470h10zm-5-555c8 0 14-6 14-14s-6-14-14-14-14 6-14 14 6 14 14 14zm377 123c-42-30-80-42-121-42-66 0-122 45-122 108 0 150 247 105 247 252 0 81-70 109-127 109s-98-24-138-52l-6 7c41 30 87 54 144 54 61 0 137-30 137-118 0-156-247-109-247-252 0-62 56-99 112-99 37 0 74 12 115 40zm207 432h9l160-452 160 452h8l134-470h-10l-128 452-160-452h-7l-161 454-140-454h-10zm962-235c0-129-94-239-230-239-139 0-233 107-233 239 0 129 94 239 233 239 136 0 230-107 230-239zm-10 0c0 125-93 230-220 230-130 0-223-107-223-230 0-125 93-230 223-230 127 0 220 107 220 230zm126 235h10v-260c0-154 75-204 151-204v-10c-79 0-130 48-151 130v-126h-10zm248-730v730h10v-259l270 259h14l-279-268 241-202h-15l-231 195v-455zm400 730v-470h-10v470h10zm-5-555c8 0 14-6 14-14s-6-14-14-14-14 6-14 14 6 14 14 14zm139 555h10v-274c0-122 88-191 182-191 96 0 148 57 148 170v295h10v-295c0-118-56-179-158-179-82 0-158 48-182 137v-133h-10zm676 4c102 0 186-72 214-169v162c0 146-83 232-214 232-102 0-157-54-199-143l-8 4c42 92 101 148 207 148 138 0 224-93 224-241v-467h-10v165c-28-97-112-169-214-169-125 0-216 107-216 239s91 239 216 239zm0-469c120 0 214 103 214 230s-94 230-214 230-206-103-206-230 86-230 206-230zm0 0"/></svg>