<svg width="2403" height="1064.002" xmlns="http://www.w3.org/2000/svg"><path d="M93 1014.002v-704H73v704zm-11-788c12 0 21-9 21-21s-9-20-21-20c-11 0-20 8-20 20s9 21 20 21zm144 362c0 132 73 198 177 198 105 0 178-66 178-198v-278h-22v280c0 119-63 176-156 176-92 0-155-57-155-176v-280h-22zm738-239c-41-30-81-45-124-45-65 0-127 45-127 113 0 152 244 107 244 247 0 76-65 103-120 103s-97-24-136-53l-12 15c40 30 88 57 148 57 65 0 141-34 141-122 0-158-244-112-244-247 0-59 53-94 106-94 36 0 72 12 113 40zm145-20v356c0 66 31 101 84 101 30 0 57-11 83-33l-10-15c-25 20-48 29-72 29-41 0-64-29-64-82v-356h142v-19h-142v-126h-21v126h-63v19zm280 451v-470h-21v470h21zm-10-554c12 0 21-9 21-21s-9-20-21-20c-11 0-20 8-20 20s9 21 20 21zm492 492c-45 33-90 48-141 48-119 0-210-89-210-221 0-133 91-221 210-221 54 0 95 13 141 48l12-15c-52-37-93-53-152-53-138 0-232 104-232 241s94 241 232 241c56 0 103-17 152-52zm70-172c0 140 87 240 212 240 78 0 147-39 192-114l-16-11c-40 67-104 105-176 105-113 0-189-89-191-217h395v-10c0-141-79-235-205-235-116 0-211 97-211 242zm21-15c6-122 85-207 190-207 109 0 181 82 183 207zm0 0"/></svg>