<svg width="2536" height="1064.002" xmlns="http://www.w3.org/2000/svg"><path d="M54 1014.002l99-704H99l-99 704zm85-786c25 0 44-20 44-45 0-20-14-34-36-34-25 0-45 19-45 44 0 20 15 35 37 35zm261 562c111 0 189-73 207-201l39-279h-54l-39 279c-15 105-73 152-152 152-80 0-130-48-115-152l39-279h-54l-39 279c-19 129 43 201 168 201zm644-435c-46-39-91-55-136-55-89 0-155 58-155 137 0 140 204 108 204 216 0 58-51 91-105 91-47 0-87-20-126-57l-32 36c39 36 87 67 158 67 91 0 159-57 159-143 0-141-204-111-204-217 0-51 44-85 97-85 34 0 72 15 109 45zm139 5l-43 311c-11 78 32 119 94 119 33 0 61-11 93-29l-19-40c-22 13-44 21-66 21-31 0-55-21-48-71l44-311h136l6-50h-135l17-123h-55l-17 123h-67l-7 50zm272 420c3-17 64-453 66-470h-54c-3 17-64 453-66 470h54zm53-552c25 0 44-20 44-45 0-20-14-34-36-34-25 0-45 19-45 44 0 20 15 35 37 35zm440 466c-47 33-91 47-132 47-93 0-163-70-163-172 0-127 100-220 205-220 49 0 90 14 136 47l30-39c-48-38-97-57-164-57-150 0-264 130-264 276 0 118 80 214 217 214 58 0 111-19 160-55zm97-116c0 126 75 212 202 212 81 0 147-33 205-102l-38-32c-41 47-96 85-166 85-108 0-146-87-146-182h381c4-21 6-41 6-62 0-116-69-197-194-197-135 0-250 119-250 278zm63-65c23-100 102-164 186-164 93 0 143 65 138 164zm0 0"/></svg>