<svg width="2393" height="1064.002" xmlns="http://www.w3.org/2000/svg"><path d="M22 1014.002l99-704h-21l-99 704zm101-788c13 0 23-11 23-24 0-10-8-17-18-17-13 0-24 10-24 23 0 10 8 18 19 18zm237 560c102 0 178-70 195-193l40-283h-22l-39 283c-16 113-83 173-173 173-100 0-155-58-139-173l40-283h-22l-39 283c-18 126 42 193 159 193zm614-432c-44-34-84-50-127-50-83 0-142 52-142 124 0 137 213 106 213 232 0 67-56 107-121 107-47 0-85-16-135-59l-12 14c51 44 93 64 147 64 78 0 143-50 143-127 0-140-214-110-214-233 0-61 50-103 120-103 38 0 77 15 116 46zm85-25h63l-50 356c-9 66 24 101 72 101 31 0 55-11 82-31l-9-16c-22 16-45 28-71 28-32 0-61-23-53-82l50-356h142l3-19h-142l18-126h-22l-18 126h-63zm277 451c1-12 64-458 66-470h-22c-1 12-64 458-66 470h22zm67-554c13 0 24-11 24-24 0-10-8-17-19-17-13 0-23 10-23 23 0 10 8 18 18 18zm430 493c-51 33-98 47-141 47-115 0-191-82-191-193 0-136 112-249 236-249 60 0 99 16 144 48l12-15c-42-34-87-53-155-53-143 0-258 130-258 271 0 115 76 211 211 211 52 0 102-18 151-51zm89-143c0 129 77 210 193 210 74 0 137-30 199-101l-15-13c-58 66-116 94-184 94-100 0-172-71-172-191 0-9 0-18 1-26h397c3-16 4-33 4-49 0-113-66-196-188-196-125 0-235 114-235 272zm24-45c18-127 114-207 211-207 117 0 177 87 164 207zm0 0"/></svg>