<svg width="2486" height="1064.002" xmlns="http://www.w3.org/2000/svg"><path d="M60 50.002v730h160v-225l151 225h183l-188-264 160-206H343l-123 173v-433zm554 730h160v-261c0-63 34-84 66-84 29 0 56 22 56 72v273h160v-319c0-114-72-167-151-167-45 0-93 17-131 51v-35H614zm1064-237c0-139-112-249-261-249s-261 114-261 253 112 249 261 249 261-114 261-253zm-160 4c0 58-41 103-101 103s-101-49-101-107 41-103 101-103 101 49 101 107zm355 233h131l85-246 85 246h127l180-470h-163l-89 233-81-233h-118l-81 233-89-233h-167zm0 0"/></svg>