<svg width="2184" height="1064.002" xmlns="http://www.w3.org/2000/svg"><path d="M75 50.002v730h54v-244l233 244h70l-254-266 221-204h-69l-201 187v-447zm440 730h54v-267c0-111 72-166 145-166 72 0 126 45 126 148v285h54v-291c0-126-73-189-166-189-64 0-127 33-159 98v-88h-54zm971-235c0-134-101-245-242-245-142 0-243 110-243 245 0 134 101 245 243 245 141 0 242-110 242-245zm-55 0c0 107-79 196-187 196s-187-90-187-196c0-107 79-196 187-196s187 89 187 196zm251 235h35l127-369 127 369h34l169-470h-54l-128 372-128-372h-37l-128 373-132-373h-57zm0 0"/></svg>