<svg width="2263" height="1064.002" xmlns="http://www.w3.org/2000/svg"><path d="M71 50.002v730h80v-235l211 235h103l-240-265 209-205H334l-183 183v-443zm471 730h80v-263c0-105 63-152 124-152 57 0 112 39 112 135v280h80v-289c0-130-83-195-170-195-54 0-109 25-146 75v-61h-80zm999-235c0-137-105-249-249-249s-249 112-249 249 105 249 249 249 249-112 249-249zm-82 0c0 97-70 177-167 177-96 0-167-80-167-177s71-177 167-177c97 0 167 80 167 177zm292 235h50l108-321 107 321h49l190-470h-80l-128 326-109-326h-55l-109 326-128-326h-84zm0 0"/></svg>