<svg width="4189" height="1064.002" xmlns="http://www.w3.org/2000/svg"><path d="M80 780.002v-730H70v730zm153 0v-470h-10v470h10zm-5-555c8 0 14-6 14-14s-6-14-14-14-14 6-14 14 6 14 14 14zm115 320c0 142 86 239 209 239 76 0 145-38 190-115l-8-5c-43 74-110 111-182 111-118 0-199-92-199-229h400v-9c0-139-79-231-202-231-114 0-208 94-208 239zm10-8c3-131 86-222 198-222 116 0 192 88 192 222zm754-189c-42-30-80-42-121-42-66 0-122 45-122 108 0 150 247 105 247 252 0 81-70 109-127 109s-98-24-138-52l-6 7c41 30 87 54 144 54 61 0 137-30 137-118 0-156-247-109-247-252 0-62 56-99 112-99 37 0 74 12 115 40zm130-298v730h10v-164c28 97 113 168 214 168 125 0 216-107 216-239s-91-239-216-239c-101 0-186 71-214 168v-424zm10 517c-1-7-1-14-1-22s0-15 1-22c10-117 101-208 214-208 120 0 206 103 206 230s-86 230-206 230c-113 0-204-91-214-208zm522-22c0 142 86 239 209 239 76 0 145-38 190-115l-8-5c-43 74-110 111-182 111-118 0-199-92-199-229h400v-9c0-139-79-231-202-231-114 0-208 94-208 239zm10-8c3-131 86-222 198-222 116 0 192 88 192 222zm428-227l198 467-102 237h11l298-704h-11l-191 453-192-453zm896 235c0-129-94-239-230-239-139 0-233 107-233 239 0 129 94 239 233 239 136 0 230-107 230-239zm-10 0c0 125-93 230-220 230-130 0-223-107-223-230 0-125 93-230 223-230 127 0 220 107 220 230zm126 235h10v-274c0-122 88-191 182-191 96 0 148 57 148 170v295h10v-295c0-118-56-179-158-179-82 0-158 48-182 137v-133h-10zm676 4c102 0 186-71 214-168v164h10v-730h-10v424c-28-97-112-168-214-168-125 0-216 107-216 239s91 239 216 239zm-206-239c0-127 86-230 206-230 113 0 204 91 214 208 1 7 1 14 1 22s0 15-1 22c-10 117-101 208-214 208-120 0-206-103-206-230zm0 0"/></svg>