<svg width="1202" height="1064.002" xmlns="http://www.w3.org/2000/svg"><path d="M51 780.002l103-730h-22l-103 730zm161 0c1-12 64-458 66-470h-22c-1 12-64 458-66 470h22zm67-554c13 0 24-11 24-24 0-10-8-17-19-17-13 0-23 10-23 23 0 10 8 18 18 18zm77 350c0 129 77 210 193 210 74 0 137-30 199-101l-15-13c-58 66-116 94-184 94-100 0-172-71-172-191 0-9 0-18 1-26h397c3-16 4-33 4-49 0-113-66-196-188-196-125 0-235 114-235 272zm24-45c18-127 114-207 211-207 117 0 177 87 164 207zm783-177c-44-34-84-50-127-50-83 0-142 52-142 124 0 137 213 106 213 232 0 67-56 107-121 107-47 0-85-16-135-59l-12 14c51 44 93 64 147 64 78 0 143-50 143-127 0-140-214-110-214-233 0-61 50-103 120-103 38 0 77 15 116 46zm0 0"/></svg>