<svg width="1231" height="1064.002" xmlns="http://www.w3.org/2000/svg"><path d="M105 780.002l103-730h-80l-103 730zm211 0c3-21 63-449 66-470h-80c-3 21-63 449-66 470h80zm41-550c34 0 60-28 60-62 0-27-19-47-50-47-34 0-61 26-61 61 0 27 20 48 51 48zm104 153h70l-56 397h80l56-397h104l10-73H621l12-84c13-88 64-117 109-117 20 0 42 5 65 20l38-61c-26-20-57-32-98-32-84 0-175 58-194 190l-12 84h-70zm264 197c0 123 74 214 209 214 85 0 154-37 209-104l-56-47c-28 33-81 79-151 79-90 0-128-74-128-155h369c5-24 8-48 8-72 0-118-71-199-200-199-142 0-260 123-260 284zm94-81c25-80 93-131 166-131s117 48 117 131zm0 0"/></svg>