<svg width="1342" height="1064.002" xmlns="http://www.w3.org/2000/svg"><path d="M177 780.002v-730H63v730zm240 0v-470H303v470h114zm-54-542c40 0 71-31 71-71 0-41-31-71-71-71s-72 30-72 71c0 40 32 71 72 71zm138 172h78v370h114v-370h101v-100H693v-78c0-62 37-93 78-93 18 0 36 6 51 17l51-90c-30-19-64-31-106-31-104 0-188 71-188 201v74h-78zm575 385c85 0 149-38 198-94l-69-68c-31 33-74 64-129 64-69 0-116-50-128-117h350c0-1 2-23 2-35 0-143-87-250-232-250-133 0-237 109-237 252 0 140 94 248 245 248zm-126-302c15-63 62-103 118-103 62 0 102 41 115 103zm0 0"/></svg>