<svg width="1233" height="1064.002" xmlns="http://www.w3.org/2000/svg"><path d="M145 780.002v-730H65v730zm210 0v-470h-80v470h80zm-35-550c31 0 54-24 54-55s-23-54-54-54-55 23-55 54 24 55 55 55zm121 80v73h70v397h80v-397h104v-73H591v-84c0-79 47-117 96-117 21 0 41 7 58 19l38-61c-29-20-61-31-95-31-89 0-177 65-177 197v77zm529 484c85 0 152-40 200-105l-58-45c-24 33-72 78-142 78-86 0-141-72-150-155h369s1-14 1-22c0-145-85-249-225-249-126 0-228 106-228 251 0 135 92 247 233 247zm-147-295c16-78 74-131 142-131 76 0 125 54 139 131zm0 0"/></svg>