<svg width="2394" height="1064.002" xmlns="http://www.w3.org/2000/svg"><path d="M372 780.002v-76H149v-628H65v704zm522-235c0-137-105-249-249-249s-249 112-249 249 105 249 249 249 249-112 249-249zm-82 0c0 97-70 177-167 177-96 0-167-80-167-177s71-177 167-177c97 0 167 80 167 177zm666 0c0-137-105-249-249-249s-249 112-249 249 105 249 249 249 249-112 249-249zm-82 0c0 97-70 177-167 177-96 0-167-80-167-177s71-177 167-177c97 0 167 80 167 177zm196-495v730h80v-235l211 235h103l-240-265 209-205h-100l-183 183v-443zm752 304c-38-34-89-58-139-58-63 0-153 40-153 134 0 162 226 121 226 225 0 47-39 72-81 72-46 0-91-25-127-58l-41 54c34 31 91 71 168 71 81 0 159-51 159-139 0-168-226-126-226-225 0-43 37-67 75-67 28 0 59 11 98 44zm0 0"/></svg>