<svg width="1939" height="1064.002" xmlns="http://www.w3.org/2000/svg"><path d="M36 780.002h54l91-578 232 578h34l233-576 92 576h56l-113-704h-35l-248 611-247-611h-36zm1089 10c79 0 149-45 186-111v101h54v-470h-54v101c-37-66-107-111-186-111-127 0-227 105-227 245s100 245 227 245zm-171-246c0-113 76-197 182-197 108 0 179 99 179 200 0 102-71 196-179 196-106 0-182-86-182-199zm543 236h54v-267c0-111 72-166 145-166 72 0 126 45 126 148v285h54v-291c0-126-73-189-166-189-64 0-127 33-159 98v-88h-54zm0 0"/></svg>