<svg width="1965" height="1064.002" xmlns="http://www.w3.org/2000/svg"><path d="M0 780.002h78l159-518 142 518h50l282-507v507h82v-704h-51l-317 568-157-568h-51zm1353 0l66-470h-80l-10 68c-36-50-93-82-166-82-141 0-263 121-263 282 0 125 83 216 209 216 65 0 125-27 172-71l-8 57zm-370-211c0-118 89-204 188-204 92 0 142 75 142 159 0 105-80 201-184 201-89 0-146-66-146-156zm578 211l37-263c15-105 84-152 145-152 57 0 107 39 93 135l-39 280h80l41-289c18-130-56-195-147-195-56 0-112 25-153 75l9-61h-80l-66 470zm0 0"/></svg>