<svg width="1852" height="1064.002" xmlns="http://www.w3.org/2000/svg"><path d="M0 780.002h10l198-680 166 680h9l360-679v679h10v-704h-8l-364 686-169-686h-7zm1273 0l66-470h-10l-24 172c-11-99-85-176-199-176-138 0-243 122-243 267 0 118 75 211 197 211 95 0 186-72 225-161l-22 157zm-400-207c0-145 105-258 233-258 113 0 192 84 192 200 0 141-117 260-238 260-112 0-187-84-187-202zm550 207l39-274c17-122 117-191 192-191 95 0 158 54 138 191l-39 274h10l39-274c20-137-43-200-148-200-65 0-146 47-183 135l18-131h-10l-66 470zm0 0"/></svg>