<svg width="2202" height="1064.002" xmlns="http://www.w3.org/2000/svg"><path d="M50 780.002l39-276c16-116 95-181 170-181 78 0 122 52 107 162l-41 295h21l38-276h1c22-124 102-181 170-181 79 0 122 52 107 162l-41 295h21l41-296c18-125-37-180-122-180-65 0-135 43-171 126-3-87-53-126-125-126-62 0-130 40-167 119l16-113H94l-66 470zm1135 0l66-470h-22l-21 155c-15-91-87-161-194-161-139 0-246 122-246 269 0 120 76 213 199 213 89 0 176-65 216-147l-20 141zm-396-208c0-140 103-249 226-249 110 0 184 83 184 193 0 136-111 251-229 251-109 0-181-81-181-195zm555 208l38-272c17-120 112-185 185-185 88 0 149 52 130 182l-39 275h22l39-276c20-136-45-200-148-200-63 0-140 44-178 126l17-120h-22l-66 470zm457 234l401-704h-24l-246 434-123-434h-22l131 458-139 246zm0 0"/></svg>