<svg width="1949" height="1064.002" xmlns="http://www.w3.org/2000/svg"><path d="M60 780.002h160v-293c0-35 28-54 52-54 22 0 45 15 45 49v298h160v-293c0-35 28-54 52-54 22 0 45 15 45 49v298h160v-319c0-114-72-167-149-167-47 0-98 20-136 58-26-39-66-58-108-58s-86 19-121 54v-38H60zm1004 16c56 0 101-20 134-55v39h160v-470h-160v38c-33-34-78-54-134-54-135 0-230 112-230 251s95 251 230 251zm-70-251c0-58 47-105 105-105 59 0 105 47 105 105s-46 105-105 105c-58 0-105-47-105-105zm419-235l188 422-126 283h161l313-705h-160l-105 246-105-246zm0 0"/></svg>