<svg width="1773" height="1064.002" xmlns="http://www.w3.org/2000/svg"><path d="M63 780.002l39-278c15-109 90-169 158-169 71 0 114 49 100 150l-41 297h35l39-278h1c19-115 94-170 158-170 73 0 114 50 100 151l-42 297h36l42-300c17-123-40-178-124-178-64 0-129 38-167 110-9-75-58-110-125-110-58 0-121 35-159 105l13-97H93l-66 470zm1135 0l66-470h-36l-18 134c-21-81-89-142-188-142-139 0-250 122-250 273 0 120 78 213 201 213 84 0 164-56 206-128l-17 120zm-389-209c0-135 99-238 216-238 106 0 174 81 174 185 0 128-104 239-218 239-104 0-172-78-172-186zm561 443l403-704h-39l-233 411-118-411h-37l131 452-144 252zm0 0"/></svg>