<svg width="1744" height="1064.002" xmlns="http://www.w3.org/2000/svg"><path d="M69 310.002v470h22v-276c0-116 70-181 145-181 78 0 130 52 130 162v295h21v-276c0-116 70-181 145-181 79 0 130 52 130 162v295h21v-296c0-125-63-180-147-180-65 0-129 42-154 125-16-86-73-125-143-125-61 0-124 41-150 122v-116zm942 476c96 0 177-64 207-154v148h22v-470h-22v148c-30-90-111-154-207-154-125 0-218 107-218 241s93 241 218 241zm-197-241c0-124 84-222 200-222 121 0 206 106 206 222s-85 222-206 222c-116 0-200-99-200-222zm505-235l197 461-106 243h23l301-704h-23l-184 433-185-433zm0 0"/></svg>