<svg width="1729" height="1064.002" xmlns="http://www.w3.org/2000/svg"><path d="M70 780.002h10v-274c0-122 74-191 153-191 85 0 137 55 137 171v294h10v-274c0-122 74-191 153-191 85 0 137 55 137 171v294h10v-294c0-126-62-180-147-180-66 0-135 48-155 142-12-99-69-142-145-142-64 0-131 45-153 133v-129H70zm936 4c102 0 186-71 214-168v164h10v-470h-10v164c-28-97-112-168-214-168-125 0-216 107-216 239s91 239 216 239zm-206-239c0-127 86-230 206-230 113 0 204 91 214 208 1 7 1 14 1 22s0 15-1 22c-10 117-101 208-214 208-120 0-206-103-206-230zm512-235l198 467-102 237h11l298-704h-11l-191 453-192-453zm0 0"/></svg>