<svg width="2652" height="1064.002" xmlns="http://www.w3.org/2000/svg"><path d="M20 780.002h156l41-293c5-37 37-57 63-57 23 0 45 16 40 52l-42 298h156l43-301c8-32 37-50 61-50 23 0 45 17 40 53l-42 298h156l45-318c16-115-49-168-126-168-49 0-101 21-143 62-20-42-59-62-102-62-44 0-92 21-130 61l6-45H86zm948 0c2-10 65-460 66-470H878c-1 10-64 460-66 470h156zm2-532c57 0 100-49 101-105 0-46-32-80-86-80-58 0-99 48-99 105-1 46 32 80 84 80zm682 62h-156l-6 44c-29-37-74-60-134-60-151 0-260 120-260 275 0 121 82 211 207 211 54 0 99-22 135-56l-7 52c-10 72-56 110-119 110-50 0-83-23-111-73l-129 62c45 112 137 155 235 155 143 0 257-92 281-263zm-400 248c0-67 60-122 125-122 55 0 93 43 93 96 0 66-59 121-124 121-55 0-94-42-94-95zm610 222l37-261c9-65 48-87 81-87 31 0 56 22 48 75l-38 273h156l45-317c16-114-48-168-126-168-57 0-105 22-143 56l43-301h-156l-103 730zm490-337l-22 149c-19 128 43 204 159 204 42 0 75-10 107-24l-30-132c-19 8-34 11-46 11-27 0-39-16-35-45l23-163h125l19-133h-125l15-110h-156l-15 110h-89l-19 133zm0 0"/></svg>