<svg width="2660" height="1064.002" xmlns="http://www.w3.org/2000/svg"><path d="M20 780.002h156l41-293c5-37 37-57 63-57 23 0 45 16 40 52l-42 298h156l43-301c8-32 37-50 61-50 23 0 45 17 40 53l-42 298h156l45-318c16-115-49-168-126-168-49 0-101 21-143 62-20-42-59-62-102-62-44 0-92 21-130 61l6-45H86zm948 0c2-10 65-460 66-470H878c-1 10-64 460-66 470h156zm2-532c57 0 100-49 101-105 0-46-32-80-86-80-58 0-99 48-99 105-1 46 32 80 84 80zm270 532l37-261c9-65 48-87 81-87 31 0 56 22 48 75l-38 273h156l45-317c16-114-48-168-126-168-57 0-105 22-143 56l6-41h-156l-66 470zm896 0l102-730h-156l-43 305c-29-37-73-61-134-61-153 0-261 129-261 283 0 123 82 219 198 219 59 0 106-21 143-53l-5 37zm-334-222c0-66 59-122 124-122 55 0 94 43 94 96 0 66-60 122-125 122-55 0-93-43-93-96zm848-202c-42-34-94-62-168-62-89 0-193 50-193 169 0 129 169 124 169 175 0 16-17 28-35 28-43 0-74-20-113-53l-85 103c43 39 100 80 200 80 112 0 190-79 190-173 0-137-168-127-168-175 0-15 12-24 35-24 26 0 51 7 84 32zm0 0"/></svg>