<svg width="2478" height="1064.002" xmlns="http://www.w3.org/2000/svg"><path d="M65 310.002v470h80v-285c0-86 53-130 104-130 47 0 93 37 93 113v302h80v-285c0-85 50-133 104-133 51 0 93 40 93 116v302h80v-309c0-119-71-175-148-175-61 0-115 29-149 83-27-55-77-83-130-83-50 0-101 25-134 76v-62zm841 470v-470h-80v470h80zm-35-550c31 0 54-24 54-55s-23-54-54-54-55 23-55 54 24 55 55 55zm165 550h80v-263c0-105 63-152 124-152 57 0 112 39 112 135v280h80v-289c0-130-83-195-170-195-54 0-109 25-146 75v-61h-80zm734 14c67 0 127-30 170-78v64h80v-730h-80v325c-43-49-103-79-170-79-128 0-233 105-233 249s105 249 233 249zm-151-251c0-105 70-178 169-178 98 0 158 93 158 183 0 91-60 177-158 177-99 0-169-77-169-182zm809-189c-38-34-89-58-139-58-63 0-153 40-153 134 0 162 226 121 226 225 0 47-39 72-81 72-46 0-91-25-127-58l-41 54c34 31 91 71 168 71 81 0 159-51 159-139 0-168-226-126-226-225 0-43 37-67 75-67 28 0 59 11 98 44zm0 0"/></svg>