<svg width="2602" height="1064.002" xmlns="http://www.w3.org/2000/svg"><path d="M50 780.002l39-276c16-116 95-181 170-181 78 0 122 52 107 162l-41 295h21l38-276h1c22-124 102-181 170-181 79 0 122 52 107 162l-41 295h21l41-296c18-125-37-180-122-180-65 0-135 43-171 126-3-87-53-126-125-126-62 0-130 40-167 119l16-113H94l-66 470zm734 0c1-12 64-458 66-470h-22c-1 12-64 458-66 470h22zm67-554c13 0 24-11 24-24 0-10-8-17-19-17-13 0-23 10-23 23 0 10 8 18 18 18zm92 554l38-272c17-120 112-185 185-185 88 0 149 52 130 182l-39 275h22l39-276c20-136-45-200-148-200-63 0-140 44-178 126l17-120h-22l-66 470zm623 6c102 0 178-70 195-193l40-283h-22l-39 283c-16 113-83 173-173 173-100 0-155-58-139-173l40-283h-22l-39 283c-18 126 42 193 159 193zm324-457h63l-50 356c-9 66 24 101 72 101 31 0 55-11 82-31l-9-16c-22 16-45 28-71 28-32 0-61-23-53-82l50-356h142l3-19h-142l18-126h-22l-18 126h-63zm241 247c0 129 77 210 193 210 74 0 137-30 199-101l-15-13c-58 66-116 94-184 94-100 0-172-71-172-191 0-9 0-18 1-26h397c3-16 4-33 4-49 0-113-66-196-188-196-125 0-235 114-235 272zm24-45c18-127 114-207 211-207 117 0 177 87 164 207zm0 0"/></svg>