<svg width="3164" height="1064.002" xmlns="http://www.w3.org/2000/svg"><path d="M60 780.002h160v-293c0-35 28-54 52-54 22 0 45 15 45 49v298h160v-293c0-35 28-54 52-54 22 0 45 15 45 49v298h160v-319c0-114-72-167-149-167-47 0-98 20-136 58-26-39-66-58-108-58s-86 19-121 54v-38H60zm954 0v-470H854v470h160zm-79-530c53 0 94-42 94-95s-41-94-94-94-95 41-95 94 42 95 95 95zm199 530h160v-261c0-63 34-84 66-84 29 0 56 22 56 72v273h160v-319c0-114-72-167-151-167-45 0-93 17-131 51v-35h-160zm562-201c0 144 102 215 221 215 118 0 221-71 221-215v-269h-160v274c0 42-27 66-61 66s-61-24-61-66v-274h-160zm612-133v167c0 130 80 183 179 183 45 0 81-12 113-27l-48-132c-17 7-32 10-44 10-27 0-40-16-40-44v-157h124v-136h-124v-110h-160v110h-90v136zm585 350c87 0 147-34 197-78l-85-101c-41 35-76 47-112 47-45 0-79-25-96-66h323c0-4 4-35 4-53 0-139-91-251-241-251-143 0-251 114-251 253 0 148 98 249 261 249zm-98-310c15-42 48-66 88-66 43 0 69 24 80 66zm0 0"/></svg>