<svg width="2939" height="1064.002" xmlns="http://www.w3.org/2000/svg"><path d="M22 780.002h112l41-288c9-66 57-100 97-100 37 0 70 29 61 88l-42 300h112l40-288h1c9-65 55-102 98-102 39 0 69 31 60 90l-42 300h112l44-313c17-117-47-172-127-172-56 0-111 25-151 72-20-48-63-72-114-72-47 0-97 23-135 68l7-53H88zm882 0c2-16 64-454 66-470H858c-2 16-64 454-66 470h112zm24-542c44 0 78-37 78-81 0-35-25-61-65-61-44 0-78 36-78 80 0 35 26 62 65 62zm212 542l37-262c13-88 69-125 118-125 46 0 86 32 74 110l-38 277h112l43-301c17-123-53-183-138-183-57 0-110 23-149 67l7-53h-112l-66 470zm616 14c123 0 208-74 227-211l39-273h-112l-39 275c-11 76-53 108-109 108-53 0-90-34-79-108l39-275h-113l-38 273c-20 137 56 211 185 211zm408-386l-32 223c-15 105 40 164 132 164 38 0 69-11 103-27l-28-90c-20 10-40 15-55 15-29 0-46-18-41-56l33-229h128l14-98h-129l17-116h-112l-17 116h-78l-13 98zm254 172c0 125 80 215 221 215 86 0 151-33 206-91l-63-72c-35 34-82 67-138 67-68 0-108-50-113-120h352c6-24 10-51 10-78 0-119-72-206-207-206-151 0-268 126-268 285zm125-86c24-65 80-105 140-105 61 0 96 38 98 105zm0 0"/></svg>