<svg width="3022" height="1064.002" xmlns="http://www.w3.org/2000/svg"><path d="M69 310.002v470h22v-276c0-116 70-181 145-181 78 0 130 52 130 162v295h21v-276c0-116 70-181 145-181 79 0 130 52 130 162v295h21v-296c0-125-63-180-147-180-65 0-129 42-154 125-16-86-73-125-143-125-61 0-124 41-150 122v-116zm1192 235c0-130-96-241-233-241-140 0-235 108-235 241 0 130 95 241 235 241 137 0 233-108 233-241zm-21 0c0 120-90 221-212 221-124 0-214-102-214-221 0-121 90-221 214-221 122 0 212 102 212 221zm331 241c96 0 177-64 207-154v148h22v-730h-22v408c-30-90-111-154-207-154-125 0-218 107-218 241s93 241 218 241zm-197-241c0-124 84-222 200-222 121 0 206 106 206 222s-85 222-206 222c-116 0-200-99-200-222zm540 1c0 140 87 240 212 240 78 0 147-39 192-114l-16-11c-40 67-104 105-176 105-113 0-189-89-191-217h395v-10c0-141-79-235-205-235-116 0-211 97-211 242zm21-15c6-122 85-207 190-207 109 0 181 82 183 207zm755-182c-41-30-81-45-124-45-65 0-127 45-127 113 0 152 244 107 244 247 0 76-65 103-120 103s-97-24-136-53l-12 15c40 30 88 57 148 57 65 0 141-34 141-122 0-158-244-112-244-247 0-59 53-94 106-94 36 0 72 12 113 40zm145-20v356c0 66 31 101 84 101 30 0 57-11 83-33l-10-15c-25 20-48 29-72 29-41 0-64-29-64-82v-356h142v-19h-142v-126h-21v126h-63v19zm0 0"/></svg>