<svg width="3196" height="1064.002" xmlns="http://www.w3.org/2000/svg"><path d="M104 780.002l40-285c12-86 71-130 122-130 47 0 88 37 77 113l-42 302h80l40-285c12-85 69-133 123-133 51 0 87 40 76 116l-42 302h80l43-309c17-119-46-175-128-175-63 0-118 28-156 80-20-53-66-80-123-80-50 0-101 24-139 72l8-58H90l-66 470zm1184-265c0-122-83-219-224-219-157 0-279 128-279 279 0 122 84 219 225 219 157 0 278-128 278-279zm-82 7c0 108-88 200-194 200-87 0-144-69-144-155 0-107 88-199 193-199 88 0 145 69 145 154zm615 258l103-730h-80l-47 328c-36-50-93-82-166-82-141 0-263 121-263 282 0 125 83 216 209 216 65 0 125-27 172-71l-8 57zm-370-211c0-118 89-204 188-204 92 0 142 75 142 159 0 105-80 201-184 201-89 0-146-66-146-156zm508 11c0 123 74 214 209 214 85 0 154-37 209-104l-56-47c-28 33-81 79-151 79-90 0-128-74-128-155h369c5-24 8-48 8-72 0-118-71-199-200-199-142 0-260 123-260 284zm94-81c25-80 93-131 166-131s117 48 117 131zm789-143c-48-43-96-60-143-60-93 0-165 65-165 148 0 143 196 110 196 204 0 51-46 79-92 79s-89-24-120-56l-47 52c30 31 83 71 167 71 101 0 171-64 171-155 0-143-196-114-196-207 0-42 39-69 80-69 31 0 68 14 102 43zm133 27l-39 277c-12 87 38 134 112 134 35 0 66-11 101-28l-27-60c-21 11-43 17-61 17-31 0-51-19-45-63l39-277h131l10-73h-131l17-120h-80l-17 120h-70l-10 73zm0 0"/></svg>