<svg width="3915" height="1064.002" xmlns="http://www.w3.org/2000/svg"><path d="M50 780.002l39-276c16-116 95-181 170-181 78 0 122 52 107 162l-41 295h21l38-276h1c22-124 102-181 170-181 79 0 122 52 107 162l-41 295h21l41-296c18-125-37-180-122-180-65 0-135 43-171 126-3-87-53-126-125-126-62 0-130 40-167 119l16-113H94l-66 470zm1192-270c0-115-78-206-212-206-147 0-262 125-262 271 0 115 80 211 215 211 146 0 259-138 259-276zm-22 1c0 132-109 255-237 255-117 0-194-83-194-192 0-139 112-250 240-250 118 0 191 82 191 187zm525 269l103-730h-22l-58 414c-18-90-84-160-186-160-142 0-254 124-254 273 0 118 74 209 188 209 96 0 182-57 227-148l-20 142zm-396-205c0-137 106-252 233-252 106 0 177 87 177 194 0 132-111 250-238 250-105 0-172-85-172-192zm541 1c0 129 77 210 193 210 74 0 137-30 199-101l-15-13c-58 66-116 94-184 94-100 0-172-71-172-191 0-9 0-18 1-26h397c3-16 4-33 4-49 0-113-66-196-188-196-125 0-235 114-235 272zm24-45c18-127 114-207 211-207 117 0 177 87 164 207zm497 249l38-272c19-135 108-182 184-182l3-22c-82 0-147 49-176 123l17-117h-22l-66 470zm637 0l66-470h-22l-21 155c-15-91-87-161-194-161-139 0-246 122-246 269 0 120 76 213 199 213 89 0 176-65 216-147l-20 141zm-396-208c0-140 103-249 226-249 110 0 184 83 184 193 0 136-111 251-229 251-109 0-181-81-181-195zm551-243h63l-50 356c-9 66 24 101 72 101 31 0 55-11 82-31l-9-16c-22 16-45 28-71 28-32 0-61-23-53-82l50-356h142l3-19h-142l18-126h-22l-18 126h-63zm241 247c0 129 77 210 193 210 74 0 137-30 199-101l-15-13c-58 66-116 94-184 94-100 0-172-71-172-191 0-9 0-18 1-26h397c3-16 4-33 4-49 0-113-66-196-188-196-125 0-235 114-235 272zm24-45c18-127 114-207 211-207 117 0 177 87 164 207zm0 0"/></svg>