<svg width="4181" height="1064.002" xmlns="http://www.w3.org/2000/svg"><path d="M65 310.002v470h80v-285c0-86 53-130 104-130 47 0 93 37 93 113v302h80v-285c0-85 50-133 104-133 51 0 93 40 93 116v302h80v-309c0-119-71-175-148-175-61 0-115 29-149 83-27-55-77-83-130-83-50 0-101 25-134 76v-62zm1237 235c0-137-105-249-249-249s-249 112-249 249 105 249 249 249 249-112 249-249zm-82 0c0 97-70 177-167 177-96 0-167-80-167-177s71-177 167-177c97 0 167 80 167 177zm401 249c67 0 127-30 170-78v64h80v-730h-80v325c-43-49-103-79-170-79-128 0-233 105-233 249s105 249 233 249zm-151-251c0-105 70-178 169-178 98 0 158 93 158 183 0 91-60 177-158 177-99 0-169-77-169-182zm739 251c85 0 152-40 200-105l-58-45c-24 33-72 78-142 78-86 0-141-72-150-155h369s1-14 1-22c0-145-85-249-225-249-126 0-228 106-228 251 0 135 92 247 233 247zm-147-295c16-78 74-131 142-131 76 0 125 54 139 131zm475 281h80v-263c0-105 72-142 146-142v-79c-54 0-109 25-146 75v-61h-80zm487 14c67 0 127-30 170-78v64h80v-470h-80v65c-43-49-103-79-170-79-128 0-233 105-233 249s105 249 233 249zm-151-251c0-105 70-178 169-178 98 0 158 93 158 183 0 91-60 177-158 177-99 0-169-77-169-182zm554-160v277c0 90 52 134 124 134 36 0 66-10 95-31l-33-57c-19 11-38 17-55 17-29 0-51-19-51-63v-277h131v-73h-131v-120h-80v120h-70v73zm491 411c85 0 152-40 200-105l-58-45c-24 33-72 78-142 78-86 0-141-72-150-155h369s1-14 1-22c0-145-85-249-225-249-126 0-228 106-228 251 0 135 92 247 233 247zm-147-295c16-78 74-131 142-131 76 0 125 54 139 131zm0 0"/></svg>