<svg width="2987" height="1064.002" xmlns="http://www.w3.org/2000/svg"><path d="M70 780.002h10v-274c0-122 74-191 153-191 85 0 137 55 137 171v294h10v-274c0-122 74-191 153-191 85 0 137 55 137 171v294h10v-294c0-126-62-180-147-180-66 0-135 48-155 142-12-99-69-142-145-142-64 0-131 45-153 133v-129H70zm1183-235c0-129-94-239-230-239-139 0-233 107-233 239 0 129 94 239 233 239 136 0 230-107 230-239zm-10 0c0 125-93 230-220 230-130 0-223-107-223-230 0-125 93-230 223-230 127 0 220 107 220 230zm318 239c102 0 186-71 214-168v164h10v-730h-10v424c-28-97-112-168-214-168-125 0-216 107-216 239s91 239 216 239zm-206-239c0-127 86-230 206-230 113 0 204 91 214 208 1 7 1 14 1 22s0 15-1 22c-10 117-101 208-214 208-120 0-206-103-206-230zm546 0c0 142 86 239 209 239 76 0 145-38 190-115l-8-5c-43 74-110 111-182 111-118 0-199-92-199-229h400v-9c0-139-79-231-202-231-114 0-208 94-208 239zm10-8c3-131 86-222 198-222 116 0 192 88 192 222zm754-189c-42-30-80-42-121-42-66 0-122 45-122 108 0 150 247 105 247 252 0 81-70 109-127 109s-98-24-138-52l-6 7c41 30 87 54 144 54 61 0 137-30 137-118 0-156-247-109-247-252 0-62 56-99 112-99 37 0 74 12 115 40zm145-29v371c0 61 27 94 76 94 29 0 55-11 81-32l-6-7c-26 21-50 30-74 30-44 0-67-30-67-85v-371h144v-9h-144v-127h-10v127h-62v9zm0 0"/></svg>