<svg width="4330" height="1064.002" xmlns="http://www.w3.org/2000/svg"><path d="M63 310.002v470h114v-288c0-65 42-98 82-98 36 0 72 27 72 86v300h114v-288c0-64 41-100 82-100 39 0 73 29 73 88v300h114v-313c0-117-72-172-149-172-54 0-107 25-144 71-26-47-72-71-120-71-46 0-94 22-128 65v-50zm1262 234c0-138-108-249-254-249s-254 113-254 251 108 249 254 249 254-113 254-251zm-115 2c0 80-58 146-139 146s-139-67-139-148c0-80 58-146 139-146s139 67 139 148zm432 249c62 0 115-26 153-68v53h114v-730h-114v313c-38-42-91-68-153-68-130 0-233 108-233 250s103 250 233 250zm-118-251c0-85 60-147 142-147 81 0 135 74 135 150s-55 146-135 146c-82 0-142-64-142-149zm731 251c85 0 149-38 198-94l-69-68c-31 33-74 64-129 64-69 0-116-50-128-117h350c0-1 2-23 2-35 0-143-87-250-232-250-133 0-237 109-237 252 0 140 94 248 245 248zm-126-302c15-63 62-103 118-103 62 0 102 41 115 103zm455 287h114v-244c0-105 67-136 148-136v-105c-55 0-110 22-148 66v-51h-114zm521 15c62 0 116-26 154-68v53h114v-470h-114v54c-38-43-92-69-154-69-131 0-232 108-232 250s101 250 232 250zm-117-251c0-85 60-147 142-147 81 0 135 74 135 150s-55 146-135 146c-82 0-142-64-142-149zm545-134v230c0 107 64 155 147 155 40 0 73-11 103-30l-39-88c-19 9-36 14-51 14-28 0-46-18-46-55v-226h128v-100h-128v-116h-114v116h-78v100zm531 385c85 0 149-38 198-94l-69-68c-31 33-74 64-129 64-69 0-116-50-128-117h350c0-1 2-23 2-35 0-143-87-250-232-250-133 0-237 109-237 252 0 140 94 248 245 248zm-126-302c15-63 62-103 118-103 62 0 102 41 115 103zm0 0"/></svg>