<svg width="2000" height="1064.002" xmlns="http://www.w3.org/2000/svg"><path d="M39 780.002l39-274c17-122 100-191 179-191 85 0 129 55 113 171l-41 294h10l38-274h1c24-132 108-191 179-191 85 0 129 55 113 171l-41 294h10l41-294c18-126-36-180-121-180-67 0-143 49-176 143 4-100-48-143-124-143-64 0-137 45-172 133l18-129H95l-66 470zm1194-271c0-113-77-203-210-203-145 0-259 124-259 269 0 114 80 209 213 209 145 0 256-139 256-275zm-10 0c0 137-113 266-246 266-123 0-203-86-203-200 0-145 116-260 249-260 123 0 200 85 200 194zm100 271l39-274c20-140 111-190 187-190l2-10c-86 0-153 53-180 133l18-129h-10l-66 470zm403 4c73 0 134-28 197-100l-7-6c-63 72-122 97-190 97-103 0-180-72-180-199 0-10 0-20 1-30h402c2-15 3-30 3-45 0-112-65-195-185-195-122 0-231 112-231 270 0 129 78 208 190 208zm41-469c125 0 188 95 173 222h-392c17-136 117-222 219-222zm0 0"/></svg>