<svg width="2171" height="1064.002" xmlns="http://www.w3.org/2000/svg"><path d="M63 780.002l39-278c15-109 90-169 158-169 71 0 114 49 100 150l-41 297h35l39-278h1c19-115 94-170 158-170 73 0 114 50 100 151l-42 297h36l42-300c17-123-40-178-124-178-64 0-129 38-167 110-9-75-58-110-125-110-58 0-121 35-159 105l13-97H93l-66 470zm878 8c106 0 183-72 200-196l40-282h-36l-39 282c-16 109-79 164-164 164-92 0-144-54-129-164l40-282h-36l-39 282c-18 127 43 196 163 196zm668-79c-50 32-95 47-138 47-105 0-178-78-178-184 0-133 106-238 222-238 56 0 95 16 141 49l19-26c-44-36-91-55-158-55-147 0-261 130-261 274 0 116 78 212 214 212 54 0 105-19 155-53zm142 71l38-270c16-116 103-177 179-177 78 0 134 53 117 171l-39 276h36l40-280c18-133-49-198-142-198-68 0-141 39-178 116l52-368h-36l-103 730zm0 0"/></svg>