<svg width="4621" height="1064.002" xmlns="http://www.w3.org/2000/svg"><path d="M63 310.002v470h114v-288c0-65 42-98 82-98 36 0 72 27 72 86v300h114v-288c0-64 41-100 82-100 39 0 73 29 73 88v300h114v-313c0-117-72-172-149-172-54 0-107 25-144 71-26-47-72-71-120-71-46 0-94 22-128 65v-50zm775 257c0 156 94 227 206 227 113 0 207-71 207-227v-257h-114v267c0 81-45 115-93 115-47 0-92-34-92-115v-267H838zm653 213v-730h-114v730zm162-370v230c0 107 64 155 147 155 40 0 73-11 103-30l-39-88c-19 9-36 14-51 14-28 0-46-18-46-55v-226h128v-100h-128v-116h-114v116h-78v100zm441 370v-470h-114v470h114zm-54-542c40 0 71-31 71-71 0-41-31-71-71-71s-72 30-72 71c0 40 32 71 72 71zm216 172v230c0 107 64 155 147 155 40 0 73-11 103-30l-39-88c-19 9-36 14-51 14-28 0-46-18-46-55v-226h128v-100h-128v-116h-114v116h-78v100zm327 157c0 156 94 227 206 227 113 0 207-71 207-227v-257h-114v267c0 81-45 115-93 115-47 0-92-34-92-115v-267h-114zm751 228c62 0 115-26 153-68v53h114v-730h-114v313c-38-42-91-68-153-68-130 0-233 108-233 250s103 250 233 250zm-118-251c0-85 60-147 142-147 81 0 135 74 135 150s-55 146-135 146c-82 0-142-64-142-149zm731 251c85 0 149-38 198-94l-69-68c-31 33-74 64-129 64-69 0-116-50-128-117h350c0-1 2-23 2-35 0-143-87-250-232-250-133 0-237 109-237 252 0 140 94 248 245 248zm-126-302c15-63 62-103 118-103 62 0 102 41 115 103zm761-139c-42-34-97-59-156-59-66 0-161 42-161 142 0 158 211 128 211 212 0 32-27 51-58 51-45 0-84-24-124-57l-55 77c41 34 100 75 183 75 91 0 167-60 167-146 0-163-212-135-212-212 0-30 26-47 56-47 27 0 56 10 93 40zm0 0"/></svg>