<svg width="4400" height="1064.002" xmlns="http://www.w3.org/2000/svg"><path d="M65 310.002v470h80v-285c0-86 53-130 104-130 47 0 93 37 93 113v302h80v-285c0-85 50-133 104-133 51 0 93 40 93 116v302h80v-309c0-119-71-175-148-175-61 0-115 29-149 83-27-55-77-83-130-83-50 0-101 25-134 76v-62zm761 249c0 164 88 235 196 235s196-71 196-235v-249h-80v262c0 110-58 150-116 150s-116-40-116-150v-262h-80zm602 221v-730h-80v730zm156-397v277c0 90 52 134 124 134 36 0 66-10 95-31l-33-57c-19 11-38 17-55 17-29 0-51-19-51-63v-277h131v-73h-131v-120h-80v120h-70v73zm380 397v-470h-80v470h80zm-35-550c31 0 54-24 54-55s-23-54-54-54-55 23-55 54 24 55 55 55zm191 153v277c0 90 52 134 124 134 36 0 66-10 95-31l-33-57c-19 11-38 17-55 17-29 0-51-19-51-63v-277h131v-73h-131v-120h-80v120h-70v73zm300 176c0 164 88 235 196 235s196-71 196-235v-249h-80v262c0 110-58 150-116 150s-116-40-116-150v-262h-80zm733 235c67 0 127-30 170-78v64h80v-730h-80v325c-43-49-103-79-170-79-128 0-233 105-233 249s105 249 233 249zm-151-251c0-105 70-178 169-178 98 0 158 93 158 183 0 91-60 177-158 177-99 0-169-77-169-182zm739 251c85 0 152-40 200-105l-58-45c-24 33-72 78-142 78-86 0-141-72-150-155h369s1-14 1-22c0-145-85-249-225-249-126 0-228 106-228 251 0 135 92 247 233 247zm-147-295c16-78 74-131 142-131 76 0 125 54 139 131zm756-145c-38-34-89-58-139-58-63 0-153 40-153 134 0 162 226 121 226 225 0 47-39 72-81 72-46 0-91-25-127-58l-41 54c34 31 91 71 168 71 81 0 159-51 159-139 0-168-226-126-226-225 0-43 37-67 75-67 28 0 59 11 98 44zm0 0"/></svg>