<svg width="1891" height="1064.002" xmlns="http://www.w3.org/2000/svg"><path d="M63 780.002l39-278c15-109 90-169 158-169 71 0 114 49 100 150l-41 297h35l39-278h1c19-115 94-170 158-170 73 0 114 50 100 151l-42 297h36l42-300c17-123-40-178-124-178-64 0-129 38-167 110-9-75-58-110-125-110-58 0-121 35-159 105l13-97H93l-66 470zm878 8c106 0 183-72 200-196l40-282h-36l-39 282c-16 109-79 164-164 164-92 0-144-54-129-164l40-282h-36l-39 282c-18 127 43 196 163 196zm627-433c-45-37-87-53-131-53-85 0-148 55-148 130 0 138 210 107 210 225 0 63-54 100-115 100-46 0-85-18-131-58l-21 23c46 41 91 66 152 66 84 0 150-54 150-134 0-141-209-111-209-226 0-57 47-96 110-96 36 0 74 15 113 46zm79-13h65l-48 337c-10 71 28 109 82 109 32 0 58-11 86-30l-13-27c-21 15-44 25-68 25-32 0-59-22-51-77l47-337h139l5-32h-139l17-124h-35l-18 124h-65zm0 0"/></svg>