<svg width="2195" height="1064.002" xmlns="http://www.w3.org/2000/svg"><path d="M60 780.002h160v-293c0-35 28-54 52-54 22 0 45 15 45 49v298h160v-293c0-35 28-54 52-54 22 0 45 15 45 49v298h160v-319c0-114-72-167-149-167-47 0-98 20-136 58-26-39-66-58-108-58s-86 19-121 54v-38H60zm794-201c0 144 102 215 221 215 118 0 221-71 221-215v-269h-160v274c0 42-27 66-61 66s-61-24-61-66v-274H854zm902-226c-47-34-107-59-178-59-72 0-174 45-174 152 0 153 192 139 192 194 0 13-12 23-28 23-43 0-74-23-119-56l-73 109c49 39 112 80 202 80 106 0 178-72 178-156 0-156-192-146-192-193 0-13 10-20 30-20 26 0 51 8 86 34zm135 93v167c0 130 80 183 179 183 45 0 81-12 113-27l-48-132c-17 7-32 10-44 10-27 0-40-16-40-44v-157h124v-136h-124v-110h-160v110h-90v136zm0 0"/></svg>