<svg width="3444" height="1064.002" xmlns="http://www.w3.org/2000/svg"><path d="M63 780.002l38-270c16-116 105-177 175-177 81 0 139 49 121 171l-39 276h36l40-280c19-134-48-198-148-198-62 0-133 40-172 114l15-106H93l-66 470zm879 0l66-470h-36l-18 134c-21-81-89-142-188-142-139 0-250 122-250 273 0 120 78 213 201 213 84 0 164-56 206-128l-17 120zm-389-209c0-135 99-238 216-238 106 0 174 81 174 185 0 128-104 239-218 239-104 0-172-78-172-186zm541-229h65l-48 337c-10 71 28 109 82 109 32 0 58-11 86-30l-13-27c-21 15-44 25-68 25-32 0-59-22-51-77l47-337h139l5-32h-139l17-124h-35l-18 124h-65zm443 446c106 0 183-72 200-196l40-282h-36l-39 282c-16 109-79 164-164 164-92 0-144-54-129-164l40-282h-36l-39 282c-18 127 43 196 163 196zm344-8l38-270c18-127 104-173 179-173l6-35c-77 0-139 43-172 111l15-103h-36l-66 470zm642 0l66-470h-36l-18 134c-21-81-89-142-188-142-139 0-250 122-250 273 0 120 78 213 201 213 84 0 164-56 206-128l-17 120zm-389-209c0-135 99-238 216-238 106 0 174 81 174 185 0 128-104 239-218 239-104 0-172-78-172-186zm561 209l103-730h-36l-103 730zm173 0l103-730h-36l-103 730zm173 234l403-704h-39l-233 411-118-411h-37l131 452-144 252zm0 0"/></svg>