<svg width="3560" height="1064.002" xmlns="http://www.w3.org/2000/svg"><path d="M80 780.002l38-267c16-111 96-166 162-166 71 0 126 44 110 155l-39 278h54l40-284c19-132-51-196-147-196-59 0-124 33-164 97l12-87H92l-66 470zm883 0l66-470h-54l-15 106c-27-68-90-116-178-116-140 0-256 121-256 276 0 123 80 214 205 214 75 0 147-43 191-103l-13 93zm-380-210c0-127 94-223 204-223 100 0 160 78 160 174 0 118-93 222-204 222-97 0-160-72-160-173zm595-210l-43 311c-11 78 32 119 94 119 33 0 61-11 93-29l-19-40c-22 13-44 21-66 21-31 0-55-21-48-71l44-311h136l6-50h-135l17-123h-55l-17 123h-67l-7 50zm399 430c111 0 189-73 207-201l39-279h-54l-39 279c-15 105-73 152-152 152-80 0-130-48-115-152l39-279h-54l-39 279c-19 129 43 201 168 201zm365-10l38-267c17-118 99-160 174-160l7-53c-68 0-128 34-164 93l11-83h-54l-66 470zm648 0l66-470h-54l-15 106c-27-68-90-116-178-116-140 0-256 121-256 276 0 123 80 214 205 214 75 0 147-43 191-103l-13 93zm-380-210c0-127 94-223 204-223 100 0 160 78 160 174 0 118-93 222-204 222-97 0-160-72-160-173zm568 210l103-730h-54l-103 730zm189 0l103-730h-54l-103 730zm185 235l408-705h-60l-217 379-109-379h-58l131 442-152 263zm0 0"/></svg>