<svg width="7989" height="1064.002" xmlns="http://www.w3.org/2000/svg"><path d="M176 780.002l37-261c9-65 48-87 81-87 31 0 56 22 48 75l-38 273h156l45-317c16-114-48-168-126-168-57 0-105 22-143 56l6-41H86l-66 470zm896 0l66-470H982l-7 45c-29-37-73-61-134-61-153 0-261 129-261 283 0 123 82 219 198 219 59 0 106-21 143-53l-5 37zm-334-222c0-66 59-122 124-122 55 0 94 43 94 96 0 66-60 122-125 122-55 0-93-43-93-96zm545-115l-22 149c-19 128 43 204 159 204 42 0 75-10 107-24l-30-132c-19 8-34 11-46 11-27 0-39-16-35-45l23-163h125l19-133h-125l15-110h-156l-15 110h-89l-19 133zm523 351c128 0 220-71 240-215l38-269h-155l-39 274c-6 45-39 70-74 70s-60-25-54-70l39-274h-157l-38 269c-20 144 72 215 200 215zm478-14l29-204c16-111 82-144 171-144l19-138c-59 0-115 20-159 59l6-43h-156l-66 470zm698 0l66-470h-156l-7 45c-29-37-73-61-134-61-153 0-261 129-261 283 0 123 82 219 198 219 59 0 106-21 143-53l-5 37zm-334-222c0-66 59-122 124-122 55 0 94 43 94 96 0 66-60 122-125 122-55 0-93-43-93-96zm605 222l103-730h-156l-103 730zm276 0l103-730h-156l-103 730zm242 235l412-705h-156l-144 253-73-253h-160l130 422-166 283zm716-395c-24 21-56 34-88 34-55 0-89-43-89-97 0-67 53-121 120-121 32 0 58 11 81 32l105-98c-41-43-95-76-176-76-169 0-288 130-288 282 0 124 96 220 238 220 82 0 130-25 183-67zm297 160l29-204c16-111 82-144 171-144l19-138c-59 0-115 20-159 59l6-43h-156l-66 470zm196-200c0 128 89 216 238 216 87 0 146-28 202-73l-74-105c-45 35-83 49-120 49-46 0-78-27-89-71h325c7-25 14-55 14-86 0-121-74-216-218-216-162 0-278 130-278 286zm168-93c21-44 61-70 103-70 44 0 69 26 74 70zm894 293l102-730h-156l-43 305c-29-37-73-61-134-61-153 0-261 129-261 283 0 123 82 219 198 219 59 0 106-21 143-53l-5 37zm-334-222c0-66 59-122 124-122 55 0 94 43 94 96 0 66-60 122-125 122-55 0-93-43-93-96zm610 222c2-10 65-460 66-470h-156c-1 10-64 460-66 470h156zm2-532c57 0 100-49 101-105 0-46-32-80-86-80-58 0-99 48-99 105-1 46 32 80 84 80zm210 195l-22 149c-19 128 43 204 159 204 42 0 75-10 107-24l-30-132c-19 8-34 11-46 11-27 0-39-16-35-45l23-163h125l19-133h-125l15-110h-156l-15 110h-89l-19 133zm295 137c0 128 89 216 238 216 87 0 146-28 202-73l-74-105c-45 35-83 49-120 49-46 0-78-27-89-71h325c7-25 14-55 14-86 0-121-74-216-218-216-162 0-278 130-278 286zm168-93c21-44 61-70 103-70 44 0 69 26 74 70zm894 293l102-730h-156l-43 305c-29-37-73-61-134-61-153 0-261 129-261 283 0 123 82 219 198 219 59 0 106-21 143-53l-5 37zm-334-222c0-66 59-122 124-122 55 0 94 43 94 96 0 66-60 122-125 122-55 0-93-43-93-96zm0 0"/></svg>