<svg width="2832" height="1064.002" xmlns="http://www.w3.org/2000/svg"><path d="M68 76.002v704h37v-650l538 650h23v-704h-37v630l-524-630zm933 712c89 0 165-56 198-136v128h36v-470h-36v128c-33-80-109-136-198-136-126 0-222 107-222 243s96 243 222 243zm-186-244c0-119 80-211 193-211 115 0 194 104 194 213s-79 211-194 211c-113 0-193-94-193-213zm574-202v337c0 72 36 109 94 109 31 0 59-11 86-32l-16-25c-23 17-46 25-67 25-38 0-61-26-61-77v-337h139v-32h-139v-124h-36v124h-65v32zm266 239c0 140 76 207 182 207 105 0 182-67 182-207v-271h-36v276c0 117-62 170-146 170s-146-53-146-170v-276h-36zm500 199h36v-261c0-136 74-182 149-182v-35c-70 0-123 40-149 110v-102h-36zm424 8c79 0 147-39 193-112l-26-19c-36 59-96 99-167 99-107 0-178-86-182-202h389c0-3 1-9 1-14 0-141-81-238-211-238-118 0-215 99-215 244 0 139 88 242 218 242zm-181-265c9-111 83-189 178-189 101 0 168 76 173 189zm0 0"/></svg>