<svg width="2730" height="1064.002" xmlns="http://www.w3.org/2000/svg"><path d="M39 780.002l96-691 473 691h7l98-704h-10l-95 687-471-687h-10l-98 704zm1130 0l66-470h-10l-24 172c-11-99-85-176-199-176-138 0-243 122-243 267 0 118 75 211 197 211 95 0 186-72 225-161l-22 157zm-400-207c0-145 105-258 233-258 113 0 192 84 192 200 0 141-117 260-238 260-112 0-187-84-187-202zm620-254l-52 371c-9 62 21 94 64 94 30 0 53-11 78-31l-5-7c-22 17-45 29-73 29-32 0-63-23-54-85l52-371h144l1-9h-144l18-127h-10l-18 127h-62l-1 9zm350 465c98 0 173-69 190-189l40-285h-10l-40 285c-17 115-87 180-180 180-107 0-163-61-147-180l40-285h-10l-40 285c-17 125 42 189 157 189zm314-4l39-274c20-140 111-190 187-190l2-10c-86 0-153 53-180 133l18-129h-10l-66 470zm403 4c73 0 134-28 197-100l-7-6c-63 72-122 97-190 97-103 0-180-72-180-199 0-10 0-20 1-30h402c2-15 3-30 3-45 0-112-65-195-185-195-122 0-231 112-231 270 0 129 78 208 190 208zm41-469c125 0 188 95 173 222h-392c17-136 117-222 219-222zm0 0"/></svg>