<svg width="2423" height="1064.002" xmlns="http://www.w3.org/2000/svg"><path d="M50 780.002l38-272c17-120 112-185 185-185 88 0 149 52 130 182l-39 275h22l39-276c20-136-45-200-148-200-63 0-140 44-178 126l17-120H94l-66 470zm459-204c0 129 77 210 193 210 74 0 137-30 199-101l-15-13c-58 66-116 94-184 94-100 0-172-71-172-191 0-9 0-18 1-26h397c3-16 4-33 4-49 0-113-66-196-188-196-125 0-235 114-235 272zm24-45c18-127 114-207 211-207 117 0 177 87 164 207zm482 45c0 129 77 210 193 210 74 0 137-30 199-101l-15-13c-58 66-116 94-184 94-100 0-172-71-172-191 0-9 0-18 1-26h397c3-16 4-33 4-49 0-113-66-196-188-196-125 0-235 114-235 272zm24-45c18-127 114-207 211-207 117 0 177 87 164 207zm899 249l103-730h-22l-58 414c-18-90-84-160-186-160-142 0-254 124-254 273 0 118 74 209 188 209 96 0 182-57 227-148l-20 142zm-396-205c0-137 106-252 233-252 106 0 177 87 177 194 0 132-111 250-238 250-105 0-172-85-172-192zm842-221c-44-34-84-50-127-50-83 0-142 52-142 124 0 137 213 106 213 232 0 67-56 107-121 107-47 0-85-16-135-59l-12 14c51 44 93 64 147 64 78 0 143-50 143-127 0-140-214-110-214-233 0-61 50-103 120-103 38 0 77 15 116 46zm0 0"/></svg>