<svg width="2750" height="1064.002" xmlns="http://www.w3.org/2000/svg"><path d="M60 780.002h160v-261c0-63 34-84 66-84 29 0 56 22 56 72v273h160v-319c0-114-72-167-151-167-45 0-93 17-131 51v-35H60zm803 16c87 0 147-34 197-78l-85-101c-41 35-76 47-112 47-45 0-79-25-96-66h323c0-4 4-35 4-53 0-139-91-251-241-251-143 0-251 114-251 253 0 148 98 249 261 249zm-98-310c15-42 48-66 88-66 43 0 69 24 80 66zm670 310c87 0 147-34 197-78l-85-101c-41 35-76 47-112 47-45 0-79-25-96-66h323c0-4 4-35 4-53 0-139-91-251-241-251-143 0-251 114-251 253 0 148 98 249 261 249zm-98-310c15-42 48-66 88-66 43 0 69 24 80 66zm642 310c55 0 99-20 131-53v37h160v-730h-160v297c-32-33-76-53-131-53-132 0-233 112-233 251s101 251 233 251zm-73-251c0-58 47-105 105-105 59 0 105 47 105 105s-46 105-105 105c-58 0-105-47-105-105zm819-192c-47-34-107-59-178-59-72 0-174 45-174 152 0 153 192 139 192 194 0 13-12 23-28 23-43 0-74-23-119-56l-73 109c49 39 112 80 202 80 106 0 178-72 178-156 0-156-192-146-192-193 0-13 10-20 30-20 26 0 51 8 86 34zm0 0"/></svg>