<svg width="2458" height="1064.002" xmlns="http://www.w3.org/2000/svg"><path d="M63 780.002l38-270c16-116 105-177 175-177 81 0 139 49 121 171l-39 276h36l40-280c19-134-48-198-148-198-62 0-133 40-172 114l15-106H93l-66 470zm453-203c0 127 76 211 197 211 77 0 141-32 201-102l-25-21c-50 58-107 91-175 91-96 0-161-70-161-183 0-6 0-13 1-19h389c3-19 5-37 5-55 0-114-67-197-190-197-130 0-242 116-242 275zm41-54c20-115 109-189 200-189 107 0 163 78 153 189zm472 54c0 127 76 211 197 211 77 0 141-32 201-102l-25-21c-50 58-107 91-175 91-96 0-161-70-161-183 0-6 0-13 1-19h389c3-19 5-37 5-55 0-114-67-197-190-197-130 0-242 116-242 275zm41-54c20-115 109-189 200-189 107 0 163 78 153 189zm898 257l103-730h-36l-56 393c-22-80-86-141-180-141-142 0-257 123-257 275 0 120 77 211 194 211 88 0 167-50 213-129l-17 121zm-389-207c0-132 101-240 221-240 103 0 169 84 169 186 0 125-103 238-225 238-101 0-165-80-165-184zm844-218c-45-37-87-53-131-53-85 0-148 55-148 130 0 138 210 107 210 225 0 63-54 100-115 100-46 0-85-18-131-58l-21 23c46 41 91 66 152 66 84 0 150-54 150-134 0-141-209-111-209-226 0-57 47-96 110-96 36 0 74 15 113 46zm0 0"/></svg>