<svg width="2179" height="1064.002" xmlns="http://www.w3.org/2000/svg"><path d="M63 780.002l38-270c16-116 105-177 175-177 81 0 139 49 121 171l-39 276h36l40-280c19-134-48-198-148-198-62 0-133 40-172 114l15-106H93l-66 470zm453-203c0 127 76 211 197 211 77 0 141-32 201-102l-25-21c-50 58-107 91-175 91-96 0-161-70-161-183 0-6 0-13 1-19h389c3-19 5-37 5-55 0-114-67-197-190-197-130 0-242 116-242 275zm41-54c20-115 109-189 200-189 107 0 163 78 153 189zm443-213l136 470h22l269-470h-38l-234 411-118-411zm414 267c0 127 76 211 197 211 77 0 141-32 201-102l-25-21c-50 58-107 91-175 91-96 0-161-70-161-183 0-6 0-13 1-19h389c3-19 5-37 5-55 0-114-67-197-190-197-130 0-242 116-242 275zm41-54c20-115 109-189 200-189 107 0 163 78 153 189zm501 257l38-270c18-127 104-173 179-173l6-35c-77 0-139 43-172 111l15-103h-36l-66 470zm0 0"/></svg>