<svg width="2233" height="1064.002" xmlns="http://www.w3.org/2000/svg"><path d="M67 780.002h54v-267c0-111 72-166 145-166 72 0 126 45 126 148v285h54v-291c0-126-73-189-166-189-64 0-127 33-159 98v-88H67zm486-234c0 138 90 244 224 244 82 0 150-39 197-108l-40-31c-31 48-86 90-157 90-97 0-162-80-168-182h381v-17c0-143-82-242-216-242-122 0-221 101-221 246zm58-33c12-97 79-164 163-164 90 0 149 66 158 164zm401-203l205 470h33l206-470h-57l-164 374-164-374zm465 236c0 138 90 244 224 244 82 0 150-39 197-108l-40-31c-31 48-86 90-157 90-97 0-162-80-168-182h381v-17c0-143-82-242-216-242-122 0-221 101-221 246zm58-33c12-97 79-164 163-164 90 0 149 66 158 164zm491 267h54v-262c0-123 73-165 148-165v-53c-63 0-117 33-148 95v-85h-54zm0 0"/></svg>