<svg width="1281" height="1064.002" xmlns="http://www.w3.org/2000/svg"><path d="M70 780.002h10v-274c0-122 88-191 182-191 96 0 148 57 148 170v295h10v-295c0-118-56-179-158-179-82 0-158 48-182 137v-133H70zm923-235c0-129-94-239-230-239-139 0-233 107-233 239 0 129 94 239 233 239 136 0 230-107 230-239zm-10 0c0 125-93 230-220 230-130 0-223-107-223-230 0-125 93-230 223-230 127 0 220 107 220 230zm121-226v371c0 61 27 94 76 94 29 0 55-11 81-32l-6-7c-26 21-50 30-74 30-44 0-67-30-67-85v-371h144v-9h-144v-127h-10v127h-62v9zm0 0"/></svg>