<svg width="3222" height="1064.002" xmlns="http://www.w3.org/2000/svg"><path d="M521 545.002c0-132-98-243-237-243-141 0-239 109-239 243 0 132 98 243 239 243 139 0 237-109 237-243zm-37 0c0 115-84 211-200 211-118 0-203-98-203-211 0-115 85-211 203-211 116 0 200 97 200 211zm150-495v730h36v-128c33 80 109 136 198 136 126 0 222-107 222-243s-96-243-222-243c-89 0-165 56-198 135v-387zm227 707c-115 0-194-104-194-213s79-211 194-211c112 0 193 94 193 213s-81 211-193 211zm595-407c-41-31-83-48-128-48-65 0-133 43-133 118 0 154 239 111 239 242 0 68-58 95-110 95-53 0-96-24-134-54l-19 24c39 31 89 61 153 61 68 0 145-38 145-126 0-160-239-115-239-242 0-55 49-88 98-88 34 0 69 12 109 42zm472 358c-44 33-87 48-135 48-111 0-200-85-200-212 0-126 89-210 200-210 51 0 91 14 135 48l19-25c-49-38-93-55-154-55-139 0-236 107-236 244s97 242 236 242c59 0 107-18 154-54zm117-127c0 140 76 207 182 207 105 0 182-67 182-207v-271h-36v276c0 117-62 170-146 170s-146-53-146-170v-276h-36zm500 199h36v-261c0-136 74-182 149-182v-35c-70 0-123 40-149 110v-102h-36zm424 8c79 0 147-39 193-112l-26-19c-36 59-96 99-167 99-107 0-178-86-182-202h389c0-3 1-9 1-14 0-141-81-238-211-238-118 0-215 99-215 244 0 139 88 242 218 242zm-181-265c9-111 83-189 178-189 101 0 168 76 173 189zm0 0"/></svg>