<svg width="3585" height="1064.002" xmlns="http://www.w3.org/2000/svg"><path d="M557 507.002c0-122-93-213-239-213-167 0-288 130-288 282 0 124 92 220 238 220 169 0 289-139 289-289zm-158 26c0 67-53 121-122 121-55 0-89-44-89-97 0-67 53-121 120-121 56 0 91 44 91 97zm222 247h156l7-45c29 37 73 61 134 61 153 0 261-129 261-283 0-123-82-219-198-219-58 0-106 21-142 53l41-297H724zm307-344c55 0 93 43 93 96 0 66-59 122-124 122-55 0-94-43-94-96 0-66 60-122 125-122zm709-80c-42-34-94-62-168-62-89 0-193 50-193 169 0 129 169 124 169 175 0 16-17 28-35 28-43 0-74-20-113-53l-85 103c43 39 100 80 200 80 112 0 190-79 190-173 0-137-168-127-168-175 0-15 12-24 35-24 26 0 51 7 84 32zm375 264c-24 21-56 34-88 34-55 0-89-43-89-97 0-67 53-121 120-121 32 0 58 11 81 32l105-98c-41-43-95-76-176-76-169 0-288 130-288 282 0 124 96 220 238 220 82 0 130-25 183-67zm359 174c128 0 220-71 240-215l38-269h-155l-39 274c-6 45-39 70-74 70s-60-25-54-70l39-274h-157l-38 269c-20 144 72 215 200 215zm478-14l29-204c16-111 82-144 171-144l19-138c-59 0-115 20-159 59l6-43h-156l-66 470zm196-200c0 128 89 216 238 216 87 0 146-28 202-73l-74-105c-45 35-83 49-120 49-46 0-78-27-89-71h325c7-25 14-55 14-86 0-121-74-216-218-216-162 0-278 130-278 286zm168-93c21-44 61-70 103-70 44 0 69 26 74 70zm0 0"/></svg>