<svg width="2100" height="1064.002" xmlns="http://www.w3.org/2000/svg"><path d="M541 545.002c0-137-105-249-249-249s-249 112-249 249 105 249 249 249 249-112 249-249zm-82 0c0 97-70 177-167 177-96 0-167-80-167-177s71-177 167-177c97 0 167 80 167 177zm190 235h80v-263c0-105 63-152 124-152 57 0 112 39 112 135v280h80v-289c0-130-83-195-170-195-54 0-109 25-146 75v-61h-80zm866-103c-36 31-76 45-118 45-83 0-165-71-165-179s82-175 165-175c42 0 82 14 118 45l45-56c-43-38-94-61-161-61-144 0-249 114-249 251s105 247 249 247c67 0 118-23 161-61zm322 117c85 0 152-40 200-105l-58-45c-24 33-72 78-142 78-86 0-141-72-150-155h369s1-14 1-22c0-145-85-249-225-249-126 0-228 106-228 251 0 135 92 247 233 247zm-147-295c16-78 74-131 142-131 76 0 125 54 139 131zm0 0"/></svg>