<svg width="1684" height="1064.002" xmlns="http://www.w3.org/2000/svg"><path d="M550 544.002c0-138-108-249-254-249s-254 113-254 251 108 249 254 249 254-113 254-251zm-115 2c0 80-58 146-139 146s-139-67-139-148c0-80 58-146 139-146s139 67 139 148zm220 234h114v-262c0-87 50-123 99-123 45 0 89 31 89 108v277h113v-302c0-123-78-183-162-183-50 0-102 22-139 65v-50H655zm763 15c85 0 149-38 198-94l-69-68c-31 33-74 64-129 64-69 0-116-50-128-117h350c0-1 2-23 2-35 0-143-87-250-232-250-133 0-237 109-237 252 0 140 94 248 245 248zm-126-302c15-63 62-103 118-103 62 0 102 41 115 103zm0 0"/></svg>