<svg width="2170" height="1064.002" xmlns="http://www.w3.org/2000/svg"><path d="M524 513.002c0-119-81-213-219-213-153 0-272 126-272 275 0 119 83 215 221 215 152 0 270-132 270-277zm-56 4c0 119-97 224-213 224-100 0-165-75-165-171 0-121 98-221 213-221 101 0 165 74 165 168zm193-157l-43 311c-11 78 32 119 94 119 33 0 61-11 93-29l-19-40c-22 13-44 21-66 21-31 0-55-21-48-71l44-311h136l6-50H723l17-123h-55l-17 123h-67l-7 50zm272 420l38-267c16-111 95-166 165-166 69 0 122 47 107 155l-39 278h54l40-284c19-132-51-196-144-196-62 0-128 33-167 98l49-348h-54l-103 730zm447-202c0 126 75 212 202 212 81 0 147-33 205-102l-38-32c-41 47-96 85-166 85-108 0-146-87-146-182h381c4-21 6-41 6-62 0-116-69-197-194-197-135 0-250 119-250 278zm63-65c23-100 102-164 186-164 93 0 143 65 138 164zm508 267l38-267c17-118 99-160 174-160l7-53c-68 0-128 34-164 93l11-83h-54l-66 470zm0 0"/></svg>