<svg width="5721" height="1064.002" xmlns="http://www.w3.org/2000/svg"><path d="M544 512.002c0-122-87-217-230-217-161 0-283 129-283 280 0 123 88 220 231 220 162 0 282-133 282-283zm-114 15c0 90-73 166-163 166-74 0-121-58-121-130 0-90 73-166 162-166 75 0 122 58 122 130zm157-217l143 470h77l275-470H965l-173 302-89-302zm469 270c0 125 80 215 221 215 86 0 151-33 206-91l-63-72c-35 34-82 67-138 67-68 0-108-50-113-120h352c6-24 10-51 10-78 0-119-72-206-207-206-151 0-268 126-268 285zm125-86c24-65 80-105 140-105 61 0 96 38 98 105zm530 286l34-238c16-108 88-143 168-143l15-104c-59 0-115 22-158 66l7-51h-112l-66 470zm329 0c2-16 64-454 66-470h-112c-2 16-64 454-66 470h112zm24-542c44 0 78-37 78-81 0-35-25-61-65-61-44 0-78 36-78 80 0 35 26 62 65 62zm100 542h112l41-288c9-66 57-100 97-100 37 0 70 29 61 88l-42 300h112l40-288h1c9-65 55-102 98-102 39 0 69 31 60 90l-42 300h112l44-313c17-117-47-172-127-172-56 0-111 25-151 72-20-48-63-72-114-72-47 0-97 23-135 68l7-53h-108zm769 0h112l41-288c9-66 57-100 97-100 37 0 70 29 61 88l-42 300h112l40-288h1c9-65 55-102 98-102 39 0 69 31 60 90l-42 300h112l44-313c17-117-47-172-127-172-56 0-111 25-151 72-20-48-63-72-114-72-47 0-97 23-135 68l7-53h-108zm778-200c0 125 80 215 221 215 86 0 151-33 206-91l-63-72c-35 34-82 67-138 67-68 0-108-50-113-120h352c6-24 10-51 10-78 0-119-72-206-207-206-151 0-268 126-268 285zm125-86c24-65 80-105 140-105 61 0 96 38 98 105zm530 286l37-262c13-88 69-125 118-125 46 0 86 32 74 110l-38 277h112l43-301c17-123-53-183-138-183-57 0-110 23-149 67l7-53h-112l-66 470zm785-424c-46-39-95-61-154-61-91 0-177 59-177 157 0 137 185 116 185 192 0 36-34 57-68 57-45 0-83-22-117-55l-63 74c35 34 90 75 181 75 105 0 179-70 179-163 0-140-184-119-184-193 0-31 27-50 61-50 29 0 61 11 94 38zm49 224c0 125 80 215 221 215 86 0 151-33 206-91l-63-72c-35 34-82 67-138 67-68 0-108-50-113-120h352c6-24 10-51 10-78 0-119-72-206-207-206-151 0-268 126-268 285zm125-86c24-65 80-105 140-105 61 0 96 38 98 105zm0 0"/></svg>