<svg width="1910" height="1064.002" xmlns="http://www.w3.org/2000/svg"><path d="M99 310.002l-99 704h112l42-292c33 44 85 73 153 73 146 0 262-125 262-283 0-124-83-217-204-217-63 0-118 24-160 63l6-48zm355 216c0 96-76 169-161 169-76 0-122-62-122-132 0-89 72-168 160-168 74 0 123 56 123 131zm662 254l66-470h-112l-9 58c-33-44-85-73-153-73-146 0-262 124-262 283 0 124 83 217 205 217 62 0 117-25 159-64l-6 49zm-355-216c0-96 76-169 161-169 76 0 122 61 122 132 0 89-72 168-160 168-74 0-123-56-123-131zm589 216l34-238c16-108 88-143 168-143l15-104c-59 0-115 22-158 66l7-51h-112l-66 470zm306-372l-32 223c-15 105 40 164 132 164 38 0 69-11 103-27l-28-90c-20 10-40 15-55 15-29 0-46-18-41-56l33-229h128l14-98h-129l17-116h-112l-17 116h-78l-13 98zm0 0"/></svg>