<svg width="2038" height="1064.002" xmlns="http://www.w3.org/2000/svg"><path d="M60 1014.002h160v-271c32 33 76 53 131 53 132 0 233-112 233-251s-101-251-233-251c-55 0-99 20-131 53v-37H60zm154-469c0-58 46-105 105-105 58 0 105 47 105 105s-47 105-105 105c-59 0-105-47-105-105zm680 251c56 0 101-20 134-55v39h160v-470h-160v38c-33-34-78-54-134-54-135 0-230 112-230 251s95 251 230 251zm-70-251c0-58 47-105 105-105 59 0 105 47 105 105s-46 105-105 105c-58 0-105-47-105-105zm484 235h160v-219c0-105 62-126 151-126v-141c-56 0-110 18-151 53v-37h-160zm426-334v167c0 130 80 183 179 183 45 0 81-12 113-27l-48-132c-17 7-32 10-44 10-27 0-40-16-40-44v-157h124v-136h-124v-110h-160v110h-90v136zm0 0"/></svg>