<svg width="2040" height="1064.002" xmlns="http://www.w3.org/2000/svg"><path d="M99 310.002l-99 704h156l40-279c29 37 73 61 134 61 153 0 261-129 261-283 0-123-82-219-198-219-58 0-106 21-143 53l5-37zm334 222c0 66-59 122-124 122-55 0-94-43-94-96 0-66 60-122 125-122 55 0 93 43 93 96zm724 248l66-470h-156l-7 45c-29-37-73-61-134-61-153 0-261 129-261 283 0 123 82 219 198 219 59 0 106-21 143-53l-5 37zm-334-222c0-66 59-122 124-122 55 0 94 43 94 96 0 66-60 122-125 122-55 0-93-43-93-96zm605 222l29-204c16-111 82-144 171-144l19-138c-59 0-115 20-159 59l6-43h-156l-66 470zm312-337l-22 149c-19 128 43 204 159 204 42 0 75-10 107-24l-30-132c-19 8-34 11-46 11-27 0-39-16-35-45l23-163h125l19-133h-125l15-110h-156l-15 110h-89l-19 133zm0 0"/></svg>