<svg width="3909" height="1064.002" xmlns="http://www.w3.org/2000/svg"><path d="M99 310.002l-99 704h156l40-279c29 37 73 61 134 61 153 0 261-129 261-283 0-123-82-219-198-219-58 0-106 21-143 53l5-37zm334 222c0 66-59 122-124 122-55 0-94-43-94-96 0-66 60-122 125-122 55 0 93 43 93 96zm724 248l66-470h-156l-7 45c-29-37-73-61-134-61-153 0-261 129-261 283 0 123 82 219 198 219 59 0 106-21 143-53l-5 37zm-334-222c0-66 59-122 124-122 55 0 94 43 94 96 0 66-60 122-125 122-55 0-93-43-93-96zm843-202c-42-34-94-62-168-62-89 0-193 50-193 169 0 129 169 124 169 175 0 16-17 28-35 28-43 0-74-20-113-53l-85 103c43 39 100 80 200 80 112 0 190-79 190-173 0-137-168-127-168-175 0-15 12-24 35-24 26 0 51 7 84 32zm424 0c-42-34-94-62-168-62-89 0-193 50-193 169 0 129 169 124 169 175 0 16-17 28-35 28-43 0-74-20-113-53l-85 103c43 39 100 80 200 80 112 0 190-79 190-173 0-137-168-127-168-175 0-15 12-24 35-24 26 0 51 7 84 32zm532 424l66-470h-156l-7 45c-29-37-73-61-134-61-153 0-261 129-261 283 0 123 82 219 198 219 59 0 106-21 143-53l-5 37zm-334-222c0-66 59-122 124-122 55 0 94 43 94 96 0 66-60 122-125 122-55 0-93-43-93-96zm1017-248h-156l-6 44c-29-37-74-60-134-60-151 0-260 120-260 275 0 121 82 211 207 211 54 0 99-22 135-56l-7 52c-10 72-56 110-119 110-50 0-83-23-111-73l-129 62c45 112 137 155 235 155 143 0 257-92 281-263zm-400 248c0-67 60-122 125-122 55 0 93 43 93 96 0 66-59 121-124 121-55 0-94-42-94-95zm464 22c0 128 89 216 238 216 87 0 146-28 202-73l-74-105c-45 35-83 49-120 49-46 0-78-27-89-71h325c7-25 14-55 14-86 0-121-74-216-218-216-162 0-278 130-278 286zm168-93c21-44 61-70 103-70 44 0 69 26 74 70zm0 0"/></svg>