<svg width="3785" height="1064.002" xmlns="http://www.w3.org/2000/svg"><path d="M63 1014.002h114v-287c38 42 91 68 153 68 130 0 233-108 233-250s-103-250-233-250c-62 0-115 26-153 67v-52H63zm108-471c0-76 55-146 135-146 82 0 142 64 142 149s-60 147-142 147c-81 0-135-74-135-150zm708 252c62 0 116-26 154-68v53h114v-470h-114v54c-38-43-92-69-154-69-131 0-232 108-232 250s101 250 232 250zm-117-251c0-85 60-147 142-147 81 0 135 74 135 150s-55 146-135 146c-82 0-142-64-142-149zm815-190c-42-34-97-59-156-59-66 0-161 42-161 142 0 158 211 128 211 212 0 32-27 51-58 51-45 0-84-24-124-57l-55 77c41 34 100 75 183 75 91 0 167-60 167-146 0-163-212-135-212-212 0-30 26-47 56-47 27 0 56 10 93 40zm408 0c-42-34-97-59-156-59-66 0-161 42-161 142 0 158 211 128 211 212 0 32-27 51-58 51-45 0-84-24-124-57l-55 77c41 34 100 75 183 75 91 0 167-60 167-146 0-163-212-135-212-212 0-30 26-47 56-47 27 0 56 10 93 40zm313 441c62 0 116-26 154-68v53h114v-470h-114v54c-38-43-92-69-154-69-131 0-232 108-232 250s101 250 232 250zm-117-251c0-85 60-147 142-147 81 0 135 74 135 150s-55 146-135 146c-82 0-142-64-142-149zm720 238c62 0 116-24 154-64v67c0 91-58 140-133 140-50 0-103-31-132-94l-96 46c45 103 138 151 229 151 142 0 246-95 246-252v-466h-114v53c-38-42-92-68-154-68-130 0-232 102-232 244s102 243 232 243zm24-385c81 0 136 74 136 150 0 77-56 141-136 141-82 0-141-62-141-147s59-144 141-144zm594 398c85 0 149-38 198-94l-69-68c-31 33-74 64-129 64-69 0-116-50-128-117h350c0-1 2-23 2-35 0-143-87-250-232-250-133 0-237 109-237 252 0 140 94 248 245 248zm-126-302c15-63 62-103 118-103 62 0 102 41 115 103zm0 0"/></svg>