<svg width="3689" height="1064.002" xmlns="http://www.w3.org/2000/svg"><path d="M65 1014.002h80v-299c43 49 103 79 170 79 128 0 233-105 233-249s-105-249-233-249c-67 0-127 30-170 78v-64H65zm74-472c0-91 60-177 158-177 99 0 169 77 169 182s-70 178-169 178c-98 0-158-93-158-183zm728 252c67 0 127-30 170-78v64h80v-470h-80v65c-43-49-103-79-170-79-128 0-233 105-233 249s105 249 233 249zm-151-251c0-105 70-178 169-178 98 0 158 93 158 183 0 91-60 177-158 177-99 0-169-77-169-182zm809-189c-38-34-89-58-139-58-63 0-153 40-153 134 0 162 226 121 226 225 0 47-39 72-81 72-46 0-91-25-127-58l-41 54c34 31 91 71 168 71 81 0 159-51 159-139 0-168-226-126-226-225 0-43 37-67 75-67 28 0 59 11 98 44zm396 0c-38-34-89-58-139-58-63 0-153 40-153 134 0 162 226 121 226 225 0 47-39 72-81 72-46 0-91-25-127-58l-41 54c34 31 91 71 168 71 81 0 159-51 159-139 0-168-226-126-226-225 0-43 37-67 75-67 28 0 59 11 98 44zm326 440c67 0 127-30 170-78v64h80v-470h-80v65c-43-49-103-79-170-79-128 0-233 105-233 249s105 249 233 249zm-151-251c0-105 70-178 169-178 98 0 158 93 158 183 0 91-60 177-158 177-99 0-169-77-169-182zm737 241c67 0 129-28 172-74v83c0 106-74 164-157 164-58 0-118-37-148-107l-69 29c40 102 132 149 219 149 140 0 235-98 235-245v-473h-80v66c-43-49-105-80-172-80-128 0-231 100-231 244s103 244 231 244zm18-419c97 0 160 93 160 183 0 92-63 167-160 167-99 0-167-72-167-177s68-173 167-173zm575 429c85 0 152-40 200-105l-58-45c-24 33-72 78-142 78-86 0-141-72-150-155h369s1-14 1-22c0-145-85-249-225-249-126 0-228 106-228 251 0 135 92 247 233 247zm-147-295c16-78 74-131 142-131 76 0 125 54 139 131zm0 0"/></svg>