<svg width="2793" height="1064.002" xmlns="http://www.w3.org/2000/svg"><path d="M99 310.002l-99 704h112l42-292c33 44 85 73 153 73 146 0 262-125 262-283 0-124-83-217-204-217-63 0-118 24-160 63l6-48zm355 216c0 96-76 169-161 169-76 0-122-62-122-132 0-89 72-168 160-168 74 0 123 56 123 131zm705-14c0-122-87-217-230-217-161 0-283 129-283 280 0 123 88 220 231 220 162 0 282-133 282-283zm-114 15c0 90-73 166-163 166-74 0-121-58-121-130 0-90 73-166 162-166 75 0 122 58 122 130zm282 253h83l140-291 57 291h80l252-470h-113l-153 289-57-289h-80l-140 292-73-292h-115zm594-200c0 125 80 215 221 215 86 0 151-33 206-91l-63-72c-35 34-82 67-138 67-68 0-108-50-113-120h352c6-24 10-51 10-78 0-119-72-206-207-206-151 0-268 126-268 285zm125-86c24-65 80-105 140-105 61 0 96 38 98 105zm530 286l34-238c16-108 88-143 168-143l15-104c-59 0-115 22-158 66l7-51h-112l-66 470zm0 0"/></svg>