<svg width="2498" height="1064.002" xmlns="http://www.w3.org/2000/svg"><path d="M99 310.002l-99 704h22l54-389c16 91 88 161 186 161 140 0 254-124 254-273 0-118-74-209-189-209-95 0-183 57-226 150l20-144zm396 205c0 137-106 252-233 252-106 0-177-87-177-194 0-136 111-250 238-250 104 0 172 84 172 192zm581-5c0-115-78-206-212-206-147 0-262 125-262 271 0 115 80 211 215 211 146 0 259-138 259-276zm-22 1c0 132-109 255-237 255-117 0-194-83-194-192 0-139 112-250 240-250 118 0 191 82 191 187zm181 269h17l194-429 75 429h15l225-470h-22l-204 430-75-430h-16l-196 433-93-433h-22zm517-204c0 129 77 210 193 210 74 0 137-30 199-101l-15-13c-58 66-116 94-184 94-100 0-172-71-172-191 0-9 0-18 1-26h397c3-16 4-33 4-49 0-113-66-196-188-196-125 0-235 114-235 272zm24-45c18-127 114-207 211-207 117 0 177 87 164 207zm497 249l38-272c19-135 108-182 184-182l3-22c-82 0-147 49-176 123l17-117h-22l-66 470zm0 0"/></svg>