<svg width="4116" height="1064.002" xmlns="http://www.w3.org/2000/svg"><path d="M60 1014.002h160v-271c32 33 76 53 131 53 132 0 233-112 233-251s-101-251-233-251c-55 0-99 20-131 53v-37H60zm154-469c0-58 46-105 105-105 58 0 105 47 105 105s-47 105-105 105c-59 0-105-47-105-105zm470 235h160v-219c0-105 62-126 151-126v-141c-56 0-110 18-151 53v-37H684zm587 16c87 0 147-34 197-78l-85-101c-41 35-76 47-112 47-45 0-79-25-96-66h323c0-4 4-35 4-53 0-139-91-251-241-251-143 0-251 114-251 253 0 148 98 249 261 249zm-98-310c15-42 48-66 88-66 43 0 69 24 80 66zm751 131c-20 20-50 33-81 33-60 0-101-49-101-107s41-103 101-103c31 0 61 13 81 33l99-106c-48-43-106-73-180-73-149 0-261 114-261 253s112 249 261 249c74 0 132-30 180-73zm324 163v-470h-160v470h160zm-79-530c53 0 94-42 94-95s-41-94-94-94-95 41-95 94 42 95 95 95zm539 103c-47-34-107-59-178-59-72 0-174 45-174 152 0 153 192 139 192 194 0 13-12 23-28 23-43 0-74-23-119-56l-73 109c49 39 112 80 202 80 106 0 178-72 178-156 0-156-192-146-192-193 0-13 10-20 30-20 26 0 51 8 86 34zm326 443c87 0 147-34 197-78l-85-101c-41 35-76 47-112 47-45 0-79-25-96-66h323c0-4 4-35 4-53 0-139-91-251-241-251-143 0-251 114-251 253 0 148 98 249 261 249zm-98-310c15-42 48-66 88-66 43 0 69 24 80 66zm589 294v-730h-160v730zm55-470l188 422-126 283h161l313-705h-160l-105 246-105-246zm0 0"/></svg>