<svg width="3603" height="1064.002" xmlns="http://www.w3.org/2000/svg"><path d="M100 310.002l-100 704h55l48-340c27 68 91 116 174 116 141 0 260-122 260-278 0-121-80-212-200-212-78 0-151 40-196 105l13-95zm380 208c0 127-96 225-207 225-98 0-157-80-157-174 0-118 93-222 207-222 96 0 157 74 157 171zm185 262l38-267c17-118 99-160 174-160l7-53c-68 0-128 34-164 93l11-83h-54l-66 470zm201-202c0 126 75 212 202 212 81 0 147-33 205-102l-38-32c-41 47-96 85-166 85-108 0-146-87-146-182h381c4-21 6-41 6-62 0-116-69-197-194-197-135 0-250 119-250 278zm63-65c23-100 102-164 186-164 93 0 143 65 138 164zm813 181c-47 33-91 47-132 47-93 0-163-70-163-172 0-127 100-220 205-220 49 0 90 14 136 47l30-39c-48-38-97-57-164-57-150 0-264 130-264 276 0 118 80 214 217 214 58 0 111-19 160-55zm165 86c3-17 64-453 66-470h-54c-3 17-64 453-66 470h54zm53-552c25 0 44-20 44-45 0-20-14-34-36-34-25 0-45 19-45 44 0 20 15 35 37 35zm414 127c-46-39-91-55-136-55-89 0-155 58-155 137 0 140 204 108 204 216 0 58-51 91-105 91-47 0-87-20-126-57l-32 36c39 36 87 67 158 67 91 0 159-57 159-143 0-141-204-111-204-217 0-51 44-85 97-85 34 0 72 15 109 45zm64 223c0 126 75 212 202 212 81 0 147-33 205-102l-38-32c-41 47-96 85-166 85-108 0-146-87-146-182h381c4-21 6-41 6-62 0-116-69-197-194-197-135 0-250 119-250 278zm63-65c23-100 102-164 186-164 93 0 143 65 138 164zm509 267l103-730h-54l-103 730zm185 235l408-705h-60l-217 379-109-379h-58l131 442-152 263zm0 0"/></svg>