<svg width="2611" height="1064.002" xmlns="http://www.w3.org/2000/svg"><path d="M99 310.002l-99 704h156l40-279c29 37 73 61 134 61 153 0 261-129 261-283 0-123-82-219-198-219-58 0-106 21-143 53l5-37zm334 222c0 66-59 122-124 122-55 0-94-43-94-96 0-66 60-122 125-122 55 0 93 43 93 96zm378 248l29-204c16-111 82-144 171-144l19-138c-59 0-115 20-159 59l6-43H721l-66 470zm723-273c0-122-93-213-239-213-167 0-288 130-288 282 0 124 92 220 238 220 169 0 289-139 289-289zm-158 26c0 67-53 121-122 121-55 0-89-44-89-97 0-67 53-121 120-121 56 0 91 44 91 97zm193-223l143 470h115l275-470h-156l-144 253-73-253zm502 270c0 128 89 216 238 216 87 0 146-28 202-73l-74-105c-45 35-83 49-120 49-46 0-78-27-89-71h325c7-25 14-55 14-86 0-121-74-216-218-216-162 0-278 130-278 286zm168-93c21-44 61-70 103-70 44 0 69 26 74 70zm0 0"/></svg>