<svg width="2394" height="1064.002" xmlns="http://www.w3.org/2000/svg"><path d="M65 1014.002h80v-299c43 49 103 79 170 79 128 0 233-105 233-249s-105-249-233-249c-67 0-127 30-170 78v-64H65zm74-472c0-91 60-177 158-177 99 0 169 77 169 182s-70 178-169 178c-98 0-158-93-158-183zm517 238h80v-263c0-105 72-142 146-142v-79c-54 0-109 25-146 75v-61h-80zm742-235c0-137-105-249-249-249s-249 112-249 249 105 249 249 249 249-112 249-249zm-82 0c0 97-70 177-167 177-96 0-167-80-167-177s71-177 167-177c97 0 167 80 167 177zm99-235l209 470h48l209-470h-84l-147 329-148-329zm716 484c85 0 152-40 200-105l-58-45c-24 33-72 78-142 78-86 0-141-72-150-155h369s1-14 1-22c0-145-85-249-225-249-126 0-228 106-228 251 0 135 92 247 233 247zm-147-295c16-78 74-131 142-131 76 0 125 54 139 131zm0 0"/></svg>