<svg width="2248" height="1064.002" xmlns="http://www.w3.org/2000/svg"><path d="M567 310.002H455l-9 58c-33-44-85-73-153-73-146 0-262 124-262 283 0 124 83 217 205 217 62 0 117-25 159-63l-39 282h112zm-421 254c0-96 76-169 161-169 76 0 122 61 122 132 0 89-72 168-160 168-74 0-123-56-123-131zm682 230c123 0 208-74 227-211l39-273H982l-39 275c-11 76-53 108-109 108-53 0-90-34-79-108l39-275H681l-38 273c-20 137 56 211 185 211zm431-14c2-16 64-454 66-470h-112c-2 16-64 454-66 470h112zm24-542c44 0 78-37 78-81 0-35-25-61-65-61-44 0-78 36-78 80 0 35 26 62 65 62zm190 170l-32 223c-15 105 40 164 132 164 38 0 69-11 103-27l-28-90c-20 10-40 15-55 15-29 0-46-18-41-56l33-229h128l14-98h-129l17-116h-112l-17 116h-78l-13 98zm254 172c0 125 80 215 221 215 86 0 151-33 206-91l-63-72c-35 34-82 67-138 67-68 0-108-50-113-120h352c6-24 10-51 10-78 0-119-72-206-207-206-151 0-268 126-268 285zm125-86c24-65 80-105 140-105 61 0 96 38 98 105zm0 0"/></svg>