<svg width="1627" height="1064.002" xmlns="http://www.w3.org/2000/svg"><path d="M134 780.002l34-238c16-108 88-143 168-143l15-104c-59 0-115 22-158 66l7-51H88l-66 470zm195-200c0 125 80 215 221 215 86 0 151-33 206-91l-63-72c-35 34-82 67-138 67-68 0-108-50-113-120h352c6-24 10-51 10-78 0-119-72-206-207-206-151 0-268 126-268 285zm125-86c24-65 80-105 140-105 61 0 96 38 98 105zm789-138c-46-39-95-61-154-61-91 0-177 59-177 157 0 137 185 116 185 192 0 36-34 57-68 57-45 0-83-22-117-55l-63 74c35 34 90 75 181 75 105 0 179-70 179-163 0-140-184-119-184-193 0-31 27-50 61-50 29 0 61 11 94 38zm130 52l-32 223c-15 105 40 164 132 164 38 0 69-11 103-27l-28-90c-20 10-40 15-55 15-29 0-46-18-41-56l33-229h128l14-98h-129l17-116h-112l-17 116h-78l-13 98zm0 0"/></svg>