<svg width="4624" height="1064.002" xmlns="http://www.w3.org/2000/svg"><path d="M67 780.002h57v-319h80l204 319h68l-208-319c106-7 191-80 191-193 0-119-94-192-207-192H67zm57-369v-285h127c89 0 151 56 151 142s-62 143-151 143zm392 135c0 138 90 244 224 244 82 0 150-39 197-108l-40-31c-31 48-86 90-157 90-97 0-162-80-168-182h381v-17c0-143-82-242-216-242-122 0-221 101-221 246zm58-33c12-97 79-164 163-164 90 0 149 66 158 164zm401-203l205 470h33l206-470h-57l-164 374-164-374zm950 235c0-134-101-245-242-245-142 0-243 110-243 245 0 134 101 245 243 245 141 0 242-110 242-245zm-55 0c0 107-79 196-187 196s-187-90-187-196c0-107 79-196 187-196s187 89 187 196zm220 235v-730h-54v730zm134-208c0 150 81 218 187 218 107 0 188-68 188-218v-262h-54v270c0 114-60 161-134 161-72 0-133-47-133-161v-270h-54zm531-212v311c0 79 43 119 106 119 34 0 62-10 90-31l-23-39c-21 15-42 22-62 22-34 0-57-23-57-71v-311h136v-50h-136v-123h-54v123h-67v50zm336 420v-470h-54v470h54zm-24-552c23 0 40-17 40-40s-17-39-40-39c-22 0-40 16-40 39s18 40 40 40zm618 317c0-134-101-245-242-245-142 0-243 110-243 245 0 134 101 245 243 245 141 0 242-110 242-245zm-55 0c0 107-79 196-187 196s-187-90-187-196c0-107 79-196 187-196s187 89 187 196zm166 235h54v-267c0-111 72-166 145-166 72 0 126 45 126 148v285h54v-291c0-126-73-189-166-189-64 0-127 33-159 98v-88h-54zm774-428c-39-33-85-52-132-52-64 0-142 41-142 124 0 158 234 115 234 235 0 59-51 85-98 85-50 0-94-24-131-55l-28 37c36 30 89 64 159 64 74 0 151-43 151-131 0-164-234-120-234-235 0-50 44-79 89-79 31 0 64 12 104 43zm0 0"/></svg>