<svg width="5329" height="1064.002" xmlns="http://www.w3.org/2000/svg"><path d="M60 780.002h174v-280h1l171 280h213l-198-282c84-34 135-105 135-201 0-137-105-221-257-221H60zm174-406v-153h64c53 0 84 34 84 77s-31 76-84 76zm631 422c87 0 147-34 197-78l-85-101c-41 35-76 47-112 47-45 0-79-25-96-66h323c0-4 4-35 4-53 0-139-91-251-241-251-143 0-251 114-251 253 0 148 98 249 261 249zm-98-310c15-42 48-66 88-66 43 0 69 24 80 66zm334-176l209 470h118l209-470h-170l-95 256-95-256zm1063 233c0-139-112-249-261-249s-261 114-261 253 112 249 261 249 261-114 261-253zm-160 4c0 58-41 103-101 103s-101-49-101-107 41-103 101-103 101 49 101 107zm420 233v-730h-160v730zm120-201c0 144 102 215 221 215 118 0 221-71 221-215v-269h-160v274c0 42-27 66-61 66s-61-24-61-66v-274h-160zm612-133v167c0 130 80 183 179 183 45 0 81-12 113-27l-48-132c-17 7-32 10-44 10-27 0-40-16-40-44v-157h124v-136h-124v-110h-160v110h-90v136zm524 334v-470h-160v470h160zm-79-530c53 0 94-42 94-95s-41-94-94-94-95 41-95 94 42 95 95 95zm701 293c0-139-112-249-261-249s-261 114-261 253 112 249 261 249 261-114 261-253zm-160 4c0 58-41 103-101 103s-101-49-101-107 41-103 101-103 101 49 101 107zm260 233h160v-261c0-63 34-84 66-84 29 0 56 22 56 72v273h160v-319c0-114-72-167-151-167-45 0-93 17-131 51v-35h-160zm902-427c-47-34-107-59-178-59-72 0-174 45-174 152 0 153 192 139 192 194 0 13-12 23-28 23-43 0-74-23-119-56l-73 109c49 39 112 80 202 80 106 0 178-72 178-156 0-156-192-146-192-193 0-13 10-20 30-20 26 0 51 8 86 34zm0 0"/></svg>