<svg width="5806" height="1064.002" xmlns="http://www.w3.org/2000/svg"><path d="M5 697.002c44 43 112 97 227 97 126 0 246-82 246-219 0-221-298-160-298-315 0-78 70-126 145-126 57 0 104 26 145 63l50-54c-46-43-99-81-195-81-97 0-231 63-231 208 0 205 299 154 299 315 0 86-80 137-160 137-66 0-125-31-178-81zm604-387l-99 704h80l43-302c36 50 93 82 166 82 141 0 263-121 263-282 0-125-83-216-209-216-65 0-125 27-172 71l8-57zm370 211c0 118-89 204-188 204-92 0-142-75-142-159 0-105 80-201 184-201 89 0 146 66 146 156zm615 259l66-470h-80l-10 68c-36-50-93-82-166-82-141 0-263 121-263 282 0 125 83 216 209 216 65 0 125-27 172-71l-8 57zm-370-211c0-118 89-204 188-204 92 0 142 75 142 159 0 105-80 201-184 201-89 0-146-66-146-156zm857 106c-45 33-86 47-126 47-75 0-142-62-142-156 0-121 91-198 182-198 40 0 83 13 131 47l43-58c-52-42-105-61-170-61-157 0-269 131-269 281 0 121 82 217 221 217 63 0 118-21 166-59zm104-95c0 123 74 214 209 214 85 0 154-37 209-104l-56-47c-28 33-81 79-151 79-90 0-128-74-128-155h369c5-24 8-48 8-72 0-118-71-199-200-199-142 0-260 123-260 284zm94-81c25-80 93-131 166-131s117 48 117 131zm517 281l103-730h-80l-103 730zm591 0l66-470h-80l-10 68c-36-50-93-82-166-82-141 0-263 121-263 282 0 125 83 216 209 216 65 0 125-27 172-71l-8 57zm-370-211c0-118 89-204 188-204 92 0 142 75 142 159 0 105-80 201-184 201-89 0-146-66-146-156zm578 211l37-263c15-105 84-152 145-152 57 0 107 39 93 135l-39 280h80l41-289c18-130-56-195-147-195-56 0-112 25-153 75l9-61h-80l-66 470zm889 0l103-730h-80l-47 328c-36-50-93-82-166-82-141 0-263 121-263 282 0 125 83 216 209 216 65 0 125-27 172-71l-8 57zm-370-211c0-118 89-204 188-204 92 0 142 75 142 159 0 105-80 201-184 201-89 0-146-66-146-156zm508 11c0 123 74 214 209 214 85 0 154-37 209-104l-56-47c-28 33-81 79-151 79-90 0-128-74-128-155h369c5-24 8-48 8-72 0-118-71-199-200-199-142 0-260 123-260 284zm94-81c25-80 93-131 166-131s117 48 117 131zm516 281l37-263c15-105 92-142 166-142l11-79c-58 0-115 24-156 71l8-57h-80l-66 470zm549-424c-48-43-96-60-143-60-93 0-165 65-165 148 0 143 196 110 196 204 0 51-46 79-92 79s-89-24-120-56l-47 52c30 31 83 71 167 71 101 0 171-64 171-155 0-143-196-114-196-207 0-42 39-69 80-69 31 0 68 14 102 43zm0 0"/></svg>