<svg width="1452" height="1064.002" xmlns="http://www.w3.org/2000/svg"><path d="M359 355.002c-46-39-91-55-136-55-89 0-155 58-155 137 0 140 204 108 204 216 0 58-51 91-105 91-47 0-87-20-126-57l-32 36c39 36 87 67 158 67 91 0 159-57 159-143 0-141-204-111-204-217 0-51 44-85 97-85 34 0 72 15 109 45zm501 425l66-470h-54l-15 106c-27-68-90-116-178-116-140 0-256 121-256 276 0 123 80 214 205 214 75 0 147-43 191-103l-13 93zm-380-210c0-127 94-223 204-223 100 0 160 78 160 174 0 118-93 222-204 222-97 0-160-72-160-173zm564 445l408-705h-60l-217 379-109-379h-58l131 442-152 263zm0 0"/></svg>