<svg width="1834" height="1064.002" xmlns="http://www.w3.org/2000/svg"><path d="M346 354.002c-38-34-89-58-139-58-63 0-153 40-153 134 0 162 226 121 226 225 0 47-39 72-81 72-46 0-91-25-127-58l-41 54c34 31 91 71 168 71 81 0 159-51 159-139 0-168-226-126-226-225 0-43 37-67 75-67 28 0 59 11 98 44zm326 440c67 0 127-30 170-78v64h80v-470h-80v65c-43-49-103-79-170-79-128 0-233 105-233 249s105 249 233 249zm-151-251c0-105 70-178 169-178 98 0 158 93 158 183 0 91-60 177-158 177-99 0-169-77-169-182zm467-233l191 430-123 275h84l314-705h-84l-147 329-148-329zm796 44c-38-34-89-58-139-58-63 0-153 40-153 134 0 162 226 121 226 225 0 47-39 72-81 72-46 0-91-25-127-58l-41 54c34 31 91 71 168 71 81 0 159-51 159-139 0-168-226-126-226-225 0-43 37-67 75-67 28 0 59 11 98 44zm0 0"/></svg>