<svg width="1478" height="1064.002" xmlns="http://www.w3.org/2000/svg"><path d="M377 356.002c-48-43-96-60-143-60-93 0-165 65-165 148 0 143 196 110 196 204 0 51-46 79-92 79s-89-24-120-56l-47 52c30 31 83 71 167 71 101 0 171-64 171-155 0-143-196-114-196-207 0-42 39-69 80-69 31 0 68 14 102 43zm57 224c0 123 74 214 209 214 85 0 154-37 209-104l-56-47c-28 33-81 79-151 79-90 0-128-74-128-155h369c5-24 8-48 8-72 0-118-71-199-200-199-142 0-260 123-260 284zm94-81c25-80 93-131 166-131s117 48 117 131zm444 81c0 123 74 214 209 214 85 0 154-37 209-104l-56-47c-28 33-81 79-151 79-90 0-128-74-128-155h369c5-24 8-48 8-72 0-118-71-199-200-199-142 0-260 123-260 284zm94-81c25-80 93-131 166-131s117 48 117 131zm0 0"/></svg>