<svg width="4740" height="1064.002" xmlns="http://www.w3.org/2000/svg"><path d="M394 356.002c-46-39-95-61-154-61-91 0-177 59-177 157 0 137 185 116 185 192 0 36-34 57-68 57-45 0-83-22-117-55l-63 74c35 34 90 75 181 75 105 0 179-70 179-163 0-140-184-119-184-193 0-31 27-50 61-50 29 0 61 11 94 38zm49 224c0 125 80 215 221 215 86 0 151-33 206-91l-63-72c-35 34-82 67-138 67-68 0-108-50-113-120h352c6-24 10-51 10-78 0-119-72-206-207-206-151 0-268 126-268 285zm125-86c24-65 80-105 140-105 61 0 96 38 98 105zm530 286l37-262c13-88 69-125 118-125 46 0 86 32 74 110l-38 277h112l43-301c17-123-53-183-138-183-57 0-110 23-149 67l7-53h-112l-66 470zm504-372l-32 223c-15 105 40 164 132 164 38 0 69-11 103-27l-28-90c-20 10-40 15-55 15-29 0-46-18-41-56l33-229h128l14-98h-129l17-116h-112l-17 116h-78l-13 98zm254 172c0 125 80 215 221 215 86 0 151-33 206-91l-63-72c-35 34-82 67-138 67-68 0-108-50-113-120h352c6-24 10-51 10-78 0-119-72-206-207-206-151 0-268 126-268 285zm125-86c24-65 80-105 140-105 61 0 96 38 98 105zm530 286l37-262c13-88 69-125 118-125 46 0 86 32 74 110l-38 277h112l43-301c17-123-53-183-138-183-57 0-110 23-149 67l7-53h-112l-66 470zm767-128c-36 28-73 41-110 41-66 0-119-54-119-131 0-98 75-165 156-165 36 0 72 12 110 40l69-75c-47-42-101-67-173-67-162 0-277 131-277 282 0 122 88 218 228 218 71 0 123-23 174-63zm240 128c2-16 64-454 66-470h-112c-2 16-64 454-66 470h112zm24-542c44 0 78-37 78-81 0-35-25-61-65-61-44 0-78 36-78 80 0 35 26 62 65 62zm212 542l37-262c13-88 69-125 118-125 46 0 86 32 74 110l-38 277h112l43-301c17-123-53-183-138-183-57 0-110 23-149 67l7-53h-112l-66 470zm948-470h-111l-8 58c-34-45-87-73-154-73-149 0-260 118-260 276 0 124 85 211 207 211 60 0 115-24 157-62l-9 66c-13 93-81 141-152 141-59 0-101-33-127-93l-96 42c40 103 121 153 219 153 145 0 247-100 268-246zm-419 251c0-97 73-166 164-166 72 0 118 61 118 132 0 90-72 162-159 162-75 0-123-53-123-128zm0 0"/></svg>