<svg width="4386" height="1064.002" xmlns="http://www.w3.org/2000/svg"><path d="M425 356.002c-42-34-94-62-168-62-89 0-193 50-193 169 0 129 169 124 169 175 0 16-17 28-35 28-43 0-74-20-113-53l-85 103c43 39 100 80 200 80 112 0 190-79 190-173 0-137-168-127-168-175 0-15 12-24 35-24 26 0 51 7 84 32zm186 424l103-730H558l-103 730zm622 0l66-470h-156l-7 45c-29-37-73-61-134-61-153 0-261 129-261 283 0 123 82 219 198 219 59 0 106-21 143-53l-5 37zm-334-222c0-66 59-122 124-122 55 0 94 43 94 96 0 66-60 122-125 122-55 0-93-43-93-96zm667 236c128 0 220-71 240-215l38-269h-155l-39 274c-6 45-39 70-74 70s-60-25-54-70l39-274h-157l-38 269c-20 144 72 215 200 215zm890-484h-156l-6 44c-29-37-74-60-134-60-151 0-260 120-260 275 0 121 82 211 207 211 54 0 99-22 135-56l-7 52c-10 72-56 110-119 110-50 0-83-23-111-73l-129 62c45 112 137 155 235 155 143 0 257-92 281-263zm-400 248c0-67 60-122 125-122 55 0 93 43 93 96 0 66-59 121-124 121-55 0-94-42-94-95zm610 222l37-261c9-65 48-87 81-87 31 0 56 22 48 75l-38 273h156l45-317c16-114-48-168-126-168-57 0-105 22-143 56l43-301h-156l-103 730zm490-337l-22 149c-19 128 43 204 159 204 42 0 75-10 107-24l-30-132c-19 8-34 11-46 11-27 0-39-16-35-45l23-163h125l19-133h-125l15-110h-156l-15 110h-89l-19 133zm295 137c0 128 89 216 238 216 87 0 146-28 202-73l-74-105c-45 35-83 49-120 49-46 0-78-27-89-71h325c7-25 14-55 14-86 0-121-74-216-218-216-162 0-278 130-278 286zm168-93c21-44 61-70 103-70 44 0 69 26 74 70zm548 293l29-204c16-111 82-144 171-144l19-138c-59 0-115 20-159 59l6-43h-156l-66 470zm0 0"/></svg>