<svg width="3581" height="1064.002" xmlns="http://www.w3.org/2000/svg"><path d="M328 354.002c-43-33-82-48-124-48-81 0-138 49-138 119 0 136 217 105 217 237 0 70-58 113-127 113-47 0-84-15-137-60l-6 7c55 46 95 62 143 62 74 0 137-47 137-122 0-139-217-108-217-237 0-65 52-110 128-110 39 0 78 16 119 46zm81 426l103-730h-10l-103 730zm556 0l66-470h-10l-24 172c-11-99-85-176-199-176-138 0-243 122-243 267 0 118 75 211 197 211 95 0 186-72 225-161l-22 157zm-400-207c0-145 105-258 233-258 113 0 192 84 192 200 0 141-117 260-238 260-112 0-187-84-187-202zm708 211c98 0 173-69 190-189l40-285h-10l-40 285c-17 115-87 180-180 180-107 0-163-61-147-180l40-285h-10l-40 285c-17 125 42 189 157 189zm786-474h-10l-25 174c-10-106-89-178-198-178-138 0-243 121-243 260 0 122 73 218 195 218 102 0 188-71 227-163l-22 159c-18 129-108 229-228 229-86 0-152-37-206-116l-8 5c56 82 124 120 212 120 132 0 222-109 240-238zm-466 256c0-139 105-251 233-251 113 0 191 84 191 201 0 141-115 259-239 259-112 0-185-87-185-209zm551 214l39-274c17-122 114-191 199-191 90 0 149 61 131 191l-39 274h10l39-274c19-136-44-200-139-200-74 0-158 47-193 138l56-394h-10l-103 730zm538-461l-52 371c-9 62 21 94 64 94 30 0 53-11 78-31l-5-7c-22 17-45 29-73 29-32 0-63-23-54-85l52-371h144l1-9h-144l18-127h-10l-18 127h-62l-1 9zm358 465c73 0 134-28 197-100l-7-6c-63 72-122 97-190 97-103 0-180-72-180-199 0-10 0-20 1-30h402c2-15 3-30 3-45 0-112-65-195-185-195-122 0-231 112-231 270 0 129 78 208 190 208zm41-469c125 0 188 95 173 222h-392c17-136 117-222 219-222zm272 465l39-274c20-140 111-190 187-190l2-10c-86 0-153 53-180 133l18-129h-10l-66 470zm0 0"/></svg>