<svg width="2393" height="1064.002" xmlns="http://www.w3.org/2000/svg"><path d="M400 353.002c-47-34-107-59-178-59-72 0-174 45-174 152 0 153 192 139 192 194 0 13-12 23-28 23-43 0-74-23-119-56l-73 109c49 39 112 80 202 80 106 0 178-72 178-156 0-156-192-146-192-193 0-13 10-20 30-20 26 0 51 8 86 34zm587 190c0-139-112-249-261-249s-261 114-261 253 112 249 261 249 261-114 261-253zm-160 4c0 58-41 103-101 103s-101-49-101-107 41-103 101-103 101 49 101 107zm260 233h160v-293c0-35 28-54 52-54 22 0 45 15 45 49v298h160v-293c0-35 28-54 52-54 22 0 45 15 45 49v298h160v-319c0-114-72-167-149-167-47 0-98 20-136 58-26-39-66-58-108-58s-86 19-121 54v-38h-160zm1035 16c87 0 147-34 197-78l-85-101c-41 35-76 47-112 47-45 0-79-25-96-66h323c0-4 4-35 4-53 0-139-91-251-241-251-143 0-251 114-251 253 0 148 98 249 261 249zm-98-310c15-42 48-66 88-66 43 0 69 24 80 66zm0 0"/></svg>