<svg width="2328" height="1064.002" xmlns="http://www.w3.org/2000/svg"><path d="M369 354.002c-42-34-97-59-156-59-66 0-161 42-161 142 0 158 211 128 211 212 0 32-27 51-58 51-45 0-84-24-124-57l-55 77c41 34 100 75 183 75 91 0 167-60 167-146 0-163-212-135-212-212 0-30 26-47 56-47 27 0 56 10 93 40zm589 190c0-138-108-249-254-249s-254 113-254 251 108 249 254 249 254-113 254-251zm-115 2c0 80-58 146-139 146s-139-67-139-148c0-80 58-146 139-146s139 67 139 148zm220-236v470h114v-288c0-65 42-98 82-98 36 0 72 27 72 86v300h114v-288c0-64 41-100 82-100 39 0 73 29 73 88v300h114v-313c0-117-72-172-149-172-54 0-107 25-144 71-26-47-72-71-120-71-46 0-94 22-128 65v-50zm999 485c85 0 149-38 198-94l-69-68c-31 33-74 64-129 64-69 0-116-50-128-117h350c0-1 2-23 2-35 0-143-87-250-232-250-133 0-237 109-237 252 0 140 94 248 245 248zm-126-302c15-63 62-103 118-103 62 0 102 41 115 103zm0 0"/></svg>