<svg width="5330" height="1064.002" xmlns="http://www.w3.org/2000/svg"><path d="M35 702.002c47 47 111 82 187 82 105 0 186-72 186-166 0-250-341-170-341-386 0-92 81-151 159-151 60 0 120 27 163 70l6-7c-48-48-104-72-169-72-85 0-169 61-169 160 0 223 341 144 341 386 0 90-75 157-176 157-71 0-130-29-180-79zm478 312h10v-398c28 97 113 168 214 168 125 0 216-107 216-239s-91-239-216-239c-101 0-186 71-214 168v-164h-10zm10-491c10-117 101-208 214-208 120 0 206 103 206 230s-86 230-206 230c-113 0-204-91-214-208-1-7-1-14-1-22s0-15 1-22zm738 261c102 0 186-71 214-168v164h10v-470h-10v164c-28-97-112-168-214-168-125 0-216 107-216 239s91 239 216 239zm-206-239c0-127 86-230 206-230 113 0 204 91 214 208 1 7 1 14 1 22s0 15-1 22c-10 117-101 208-214 208-120 0-206-103-206-230zm920 181c-47 34-92 49-145 49-126 0-219-93-219-230s93-230 219-230c56 0 96 14 145 49l5-7c-53-37-93-51-150-51-137 0-229 102-229 239s92 239 229 239c54 0 101-15 150-50zm66-181c0 142 86 239 209 239 76 0 145-38 190-115l-8-5c-43 74-110 111-182 111-118 0-199-92-199-229h400v-9c0-139-79-231-202-231-114 0-208 94-208 239zm10-8c3-131 86-222 198-222 116 0 192 88 192 222zm526 243v-730h-10v730zm332 4c102 0 186-71 214-168v164h10v-470h-10v164c-28-97-112-168-214-168-125 0-216 107-216 239s91 239 216 239zm-206-239c0-127 86-230 206-230 113 0 204 91 214 208 1 7 1 14 1 22s0 15-1 22c-10 117-101 208-214 208-120 0-206-103-206-230zm570 235h10v-274c0-122 88-191 182-191 96 0 148 57 148 170v295h10v-295c0-118-56-179-158-179-82 0-158 48-182 137v-133h-10zm676 4c102 0 186-71 214-168v164h10v-730h-10v424c-28-97-112-168-214-168-125 0-216 107-216 239s91 239 216 239zm-206-239c0-127 86-230 206-230 113 0 204 91 214 208 1 7 1 14 1 22s0 15-1 22c-10 117-101 208-214 208-120 0-206-103-206-230zm546 0c0 142 86 239 209 239 76 0 145-38 190-115l-8-5c-43 74-110 111-182 111-118 0-199-92-199-229h400v-9c0-139-79-231-202-231-114 0-208 94-208 239zm10-8c3-131 86-222 198-222 116 0 192 88 192 222zm516 243h10v-260c0-154 75-204 151-204v-10c-79 0-130 48-151 130v-126h-10zm455-432c-42-30-80-42-121-42-66 0-122 45-122 108 0 150 247 105 247 252 0 81-70 109-127 109s-98-24-138-52l-6 7c41 30 87 54 144 54 61 0 137-30 137-118 0-156-247-109-247-252 0-62 56-99 112-99 37 0 74 12 115 40zm0 0"/></svg>