<svg width="4468" height="1064.002" xmlns="http://www.w3.org/2000/svg"><path d="M31 699.002c49 44 120 91 215 91 112 0 211-72 211-183 0-252-342-180-342-366 0-78 67-126 140-126 54 0 113 25 160 67l31-39c-51-45-113-77-191-77-89 0-198 57-198 175 0 234 343 159 343 366 0 81-70 134-154 134-68 0-128-29-184-80zm526 315h54v-335c38 66 107 111 186 111 127 0 227-105 227-245s-100-245-227-245c-79 0-148 44-186 110v-100h-54zm50-471c0-102 71-196 179-196 107 0 182 86 182 199s-75 197-182 197c-108 0-179-99-179-200zm732 247c79 0 149-45 186-111v101h54v-470h-54v101c-37-66-107-111-186-111-127 0-227 105-227 245s100 245 227 245zm-171-246c0-113 76-197 182-197 108 0 179 99 179 200 0 102-71 196-179 196-106 0-182-86-182-199zm888 151c-40 32-81 46-127 46-99 0-185-79-185-197 0-119 86-195 185-195 47 0 87 13 127 46l31-38c-47-38-94-57-157-57-142 0-242 109-242 246s100 244 242 244c62 0 111-20 157-57zm81-149c0 138 90 244 224 244 82 0 150-39 197-108l-40-31c-31 48-86 90-157 90-97 0-162-80-168-182h381v-17c0-143-82-242-216-242-122 0-221 101-221 246zm58-33c12-97 79-164 163-164 90 0 149 66 158 164zm545 267v-730h-54v730zm338 10c79 0 149-45 186-111v101h54v-470h-54v101c-37-66-107-111-186-111-127 0-227 105-227 245s100 245 227 245zm-171-246c0-113 76-197 182-197 108 0 179 99 179 200 0 102-71 196-179 196-106 0-182-86-182-199zm543 236h54v-267c0-111 72-166 145-166 72 0 126 45 126 148v285h54v-291c0-126-73-189-166-189-64 0-127 33-159 98v-88h-54zm713 10c79 0 149-45 186-111v101h54v-730h-54v361c-37-66-107-111-186-111-127 0-227 105-227 245s100 245 227 245zm-171-246c0-113 76-197 182-197 108 0 179 99 179 200 0 102-71 196-179 196-106 0-182-86-182-199zm0 0"/></svg>