<svg width="3892" height="1064.002" xmlns="http://www.w3.org/2000/svg"><path d="M377 356.002c-48-43-96-60-143-60-93 0-165 65-165 148 0 143 196 110 196 204 0 51-46 79-92 79s-89-24-120-56l-47 52c30 31 83 71 167 71 101 0 171-64 171-155 0-143-196-114-196-207 0-42 39-69 80-69 31 0 68 14 102 43zm115-46l-99 704h80l43-302c36 50 93 82 166 82 141 0 263-121 263-282 0-125-83-216-209-216-65 0-125 27-172 71l8-57zm370 211c0 118-89 204-188 204-92 0-142-75-142-159 0-105 80-201 184-201 89 0 146 66 146 156zm162 59c0 123 74 214 209 214 85 0 154-37 209-104l-56-47c-28 33-81 79-151 79-90 0-128-74-128-155h369c5-24 8-48 8-72 0-118-71-199-200-199-142 0-260 123-260 284zm94-81c25-80 93-131 166-131s117 48 117 131zm897 281l66-470h-80l-10 68c-36-50-93-82-166-82-141 0-263 121-263 282 0 125 83 216 209 216 65 0 125-27 172-71l-8 57zm-370-211c0-118 89-204 188-204 92 0 142 75 142 159 0 105-80 201-184 201-89 0-146-66-146-156zm505 211h80l33-235 173 235h100l-198-263 241-207h-104l-204 182 62-442h-80zm554 0c3-21 63-449 66-470h-80c-3 21-63 449-66 470h80zm41-550c34 0 60-28 60-62 0-27-19-47-50-47-34 0-61 26-61 61 0 27 20 48 51 48zm170 550l37-263c15-105 84-152 145-152 57 0 107 39 93 135l-39 280h80l41-289c18-130-56-195-147-195-56 0-112 25-153 75l9-61h-80l-66 470zm937-470h-79l-10 69c-37-51-96-83-168-83-148 0-260 116-260 277 0 125 87 211 207 211 65 0 127-25 174-67l-11 76c-16 109-100 164-176 164-66 0-114-41-139-108l-72 27c36 98 109 152 207 152 147 0 241-106 259-234zm-434 254c0-119 83-199 193-199 85 0 137 75 137 159 0 107-82 191-186 191-89 0-144-61-144-151zm0 0"/></svg>