<svg width="1491" height="1064.002" xmlns="http://www.w3.org/2000/svg"><path d="M369 354.002c-42-34-97-59-156-59-66 0-161 42-161 142 0 158 211 128 211 212 0 32-27 51-58 51-45 0-84-24-124-57l-55 77c41 34 100 75 183 75 91 0 167-60 167-146 0-163-212-135-212-212 0-30 26-47 56-47 27 0 56 10 93 40zm138 56v230c0 107 64 155 147 155 40 0 73-11 103-30l-39-88c-19 9-36 14-51 14-28 0-46-18-46-55v-226h128v-100H621v-116H507v116h-78v100zm441 370v-470H834v470h114zm-54-542c40 0 71-31 71-71 0-41-31-71-71-71s-72 30-72 71c0 40 32 71 72 71zm294 542v-730h-114v730zm240 0v-730h-114v730zm0 0"/></svg>