<svg width="1663" height="1064.002" xmlns="http://www.w3.org/2000/svg"><path d="M425 356.002c-42-34-94-62-168-62-89 0-193 50-193 169 0 129 169 124 169 175 0 16-17 28-35 28-43 0-74-20-113-53l-85 103c43 39 100 80 200 80 112 0 190-79 190-173 0-137-168-127-168-175 0-15 12-24 35-24 26 0 51 7 84 32zm126 87l-22 149c-19 128 43 204 159 204 42 0 75-10 107-24l-30-132c-19 8-34 11-46 11-27 0-39-16-35-45l23-163h125l19-133H726l15-110H585l-15 110h-89l-19 133zm461 337c2-10 65-460 66-470H922c-1 10-64 460-66 470h156zm2-532c57 0 100-49 101-105 0-46-32-80-86-80-58 0-99 48-99 105-1 46 32 80 84 80zm270 532l103-730h-156l-103 730zm276 0l103-730h-156l-103 730zm0 0"/></svg>