<svg width="1352" height="1064.002" xmlns="http://www.w3.org/2000/svg"><path d="M346 354.002c-38-34-89-58-139-58-63 0-153 40-153 134 0 162 226 121 226 225 0 47-39 72-81 72-46 0-91-25-127-58l-41 54c34 31 91 71 168 71 81 0 159-51 159-139 0-168-226-126-226-225 0-43 37-67 75-67 28 0 59 11 98 44zm141 29v277c0 90 52 134 124 134 36 0 66-10 95-31l-33-57c-19 11-38 17-55 17-29 0-51-19-51-63v-277h131v-73H567v-120h-80v120h-70v73zm380 397v-470h-80v470h80zm-35-550c31 0 54-24 54-55s-23-54-54-54-55 23-55 54 24 55 55 55zm245 550v-730h-80v730zm210 0v-730h-80v730zm0 0"/></svg>