<svg width="1686" height="1064.002" xmlns="http://www.w3.org/2000/svg"><path d="M328 354.002c-43-33-82-48-124-48-81 0-138 49-138 119 0 136 217 105 217 237 0 70-58 113-127 113-47 0-84-15-137-60l-6 7c55 46 95 62 143 62 74 0 137-47 137-122 0-139-217-108-217-237 0-65 52-110 128-110 39 0 78 16 119 46zm150-35l-52 371c-9 62 21 94 64 94 30 0 53-11 78-31l-5-7c-22 17-45 29-73 29-32 0-63-23-54-85l52-371h144l1-9H489l18-127h-10l-18 127h-62l-1 9zm350 465c98 0 173-69 190-189l40-285h-10l-40 285c-17 115-87 180-180 180-107 0-163-61-147-180l40-285h-10l-40 285c-17 125 42 189 157 189zm327-4l65-461h222l-65 461h10l65-461h120l1-9h-120l15-109c13-90 63-146 135-146 29 0 55 9 77 24l6-7c-24-18-55-26-83-26-61 0-107 36-130 98-3-62-41-98-104-98-77 0-128 50-140 135l-18 129h-59l-1 9h59l-65 461zm84-599c11-80 58-125 129-125 73 0 105 46 93 124l-18 130h-222zm272 603c10 0 17-8 17-17 0-7-5-13-13-13-10 0-17 8-17 17 0 7 5 13 13 13zm0 0"/></svg>