<svg width="4296" height="1064.002" xmlns="http://www.w3.org/2000/svg"><path d="M322 350.002c-41-31-83-48-128-48-65 0-133 43-133 118 0 154 239 111 239 242 0 68-58 95-110 95-53 0-96-24-134-54l-19 24c39 31 89 61 153 61 68 0 145-38 145-126 0-160-239-115-239-242 0-55 49-88 98-88 34 0 69 12 109 42zm124 231c0 140 76 207 182 207 105 0 182-67 182-207v-271h-36v276c0 117-62 170-146 170s-146-53-146-170v-276h-36zm698 203c89 0 165-56 199-134v133c0 131-80 207-193 207-86 0-143-48-180-130l-31 13c42 96 113 149 212 149 138 0 228-95 228-243v-469h-36v129c-34-80-110-137-199-137-126 0-221 105-221 241 0 137 95 241 221 241zm7-451c116 0 194 103 194 213 0 111-78 207-194 207-112 0-192-92-192-211s80-209 192-209zm562 451c89 0 165-56 199-134v133c0 131-80 207-193 207-86 0-143-48-180-130l-31 13c42 96 113 149 212 149 138 0 228-95 228-243v-469h-36v129c-34-80-110-137-199-137-126 0-221 105-221 241 0 137 95 241 221 241zm7-451c116 0 194 103 194 213 0 111-78 207-194 207-112 0-192-92-192-211s80-209 192-209zm559 455c79 0 147-39 193-112l-26-19c-36 59-96 99-167 99-107 0-178-86-182-202h389c0-3 1-9 1-14 0-141-81-238-211-238-118 0-215 99-215 244 0 139 88 242 218 242zm-181-265c9-111 83-189 178-189 101 0 168 76 173 189zm756-173c-41-31-83-48-128-48-65 0-133 43-133 118 0 154 239 111 239 242 0 68-58 95-110 95-53 0-96-24-134-54l-19 24c39 31 89 61 153 61 68 0 145-38 145-126 0-160-239-115-239-242 0-55 49-88 98-88 34 0 69 12 109 42zm143-8v337c0 72 36 109 94 109 31 0 59-11 86-32l-16-25c-23 17-46 25-67 25-38 0-61-26-61-77v-337h139v-32h-139v-124h-36v124h-65v32zm304 438v-470h-36v470h36zm-16-553c16 0 28-13 28-29 0-17-12-29-28-29-17 0-29 12-29 29 0 16 12 29 29 29zm89 83l203 470h21l203-470h-37l-175 408-176-408zm669 478c79 0 147-39 193-112l-26-19c-36 59-96 99-167 99-107 0-178-86-182-202h389c0-3 1-9 1-14 0-141-81-238-211-238-118 0-215 99-215 244 0 139 88 242 218 242zm-181-265c9-111 83-189 178-189 101 0 168 76 173 189zm0 0"/></svg>