<svg width="4740" height="1064.002" xmlns="http://www.w3.org/2000/svg"><path d="M369 354.002c-42-34-97-59-156-59-66 0-161 42-161 142 0 158 211 128 211 212 0 32-27 51-58 51-45 0-84-24-124-57l-55 77c41 34 100 75 183 75 91 0 167-60 167-146 0-163-212-135-212-212 0-30 26-47 56-47 27 0 56 10 93 40zm102 213c0 156 94 227 206 227 113 0 207-71 207-227v-257H770v267c0 81-45 115-93 115-47 0-92-34-92-115v-267H471zm750 215c62 0 116-24 154-64v67c0 91-58 140-133 140-50 0-103-31-132-94l-96 46c45 103 138 151 229 151 142 0 246-95 246-252v-466h-114v53c-38-42-92-68-154-68-130 0-232 102-232 244s102 243 232 243zm24-385c81 0 136 74 136 150 0 77-56 141-136 141-82 0-141-62-141-147s59-144 141-144zm581 385c62 0 116-24 154-64v67c0 91-58 140-133 140-50 0-103-31-132-94l-96 46c45 103 138 151 229 151 142 0 246-95 246-252v-466h-114v53c-38-42-92-68-154-68-130 0-232 102-232 244s102 243 232 243zm24-385c81 0 136 74 136 150 0 77-56 141-136 141-82 0-141-62-141-147s59-144 141-144zm594 398c85 0 149-38 198-94l-69-68c-31 33-74 64-129 64-69 0-116-50-128-117h350c0-1 2-23 2-35 0-143-87-250-232-250-133 0-237 109-237 252 0 140 94 248 245 248zm-126-302c15-63 62-103 118-103 62 0 102 41 115 103zm761-139c-42-34-97-59-156-59-66 0-161 42-161 142 0 158 211 128 211 212 0 32-27 51-58 51-45 0-84-24-124-57l-55 77c41 34 100 75 183 75 91 0 167-60 167-146 0-163-212-135-212-212 0-30 26-47 56-47 27 0 56 10 93 40zm138 56v230c0 107 64 155 147 155 40 0 73-11 103-30l-39-88c-19 9-36 14-51 14-28 0-46-18-46-55v-226h128v-100h-128v-116h-114v116h-78v100zm441 370v-470h-114v470h114zm-54-542c40 0 71-31 71-71 0-41-31-71-71-71s-72 30-72 71c0 40 32 71 72 71zm326 542h78l209-470h-121l-125 298-125-298h-125zm544 15c85 0 149-38 198-94l-69-68c-31 33-74 64-129 64-69 0-116-50-128-117h350c0-1 2-23 2-35 0-143-87-250-232-250-133 0-237 109-237 252 0 140 94 248 245 248zm-126-302c15-63 62-103 118-103 62 0 102 41 115 103zm0 0"/></svg>