<svg width="4824" height="1064.002" xmlns="http://www.w3.org/2000/svg"><path d="M377 356.002c-48-43-96-60-143-60-93 0-165 65-165 148 0 143 196 110 196 204 0 51-46 79-92 79s-89-24-120-56l-47 52c30 31 83 71 167 71 101 0 171-64 171-155 0-143-196-114-196-207 0-42 39-69 80-69 31 0 68 14 102 43zm239 438c119 0 199-77 217-209l39-275h-80l-39 275c-14 100-63 137-135 137-65 0-111-41-97-137l39-275h-80l-39 275c-18 133 45 209 175 209zm381-484l-99 704h80l43-302c36 50 93 82 166 82 141 0 263-121 263-282 0-125-83-216-209-216-65 0-125 27-172 71l8-57zm370 211c0 118-89 204-188 204-92 0-142-75-142-159 0-105 80-201 184-201 89 0 146 66 146 156zm220-211l-99 704h80l43-302c36 50 93 82 166 82 141 0 263-121 263-282 0-125-83-216-209-216-65 0-125 27-172 71l8-57zm370 211c0 118-89 204-188 204-92 0-142-75-142-159 0-105 80-201 184-201 89 0 146 66 146 156zm234 259l37-263c15-105 92-142 166-142l11-79c-58 0-115 24-156 71l8-57h-80l-66 470zm194-200c0 123 74 214 209 214 85 0 154-37 209-104l-56-47c-28 33-81 79-151 79-90 0-128-74-128-155h369c5-24 8-48 8-72 0-118-71-199-200-199-142 0-260 123-260 284zm94-81c25-80 93-131 166-131s117 48 117 131zm789-143c-48-43-96-60-143-60-93 0-165 65-165 148 0 143 196 110 196 204 0 51-46 79-92 79s-89-24-120-56l-47 52c30 31 83 71 167 71 101 0 171-64 171-155 0-143-196-114-196-207 0-42 39-69 80-69 31 0 68 14 102 43zm402 0c-48-43-96-60-143-60-93 0-165 65-165 148 0 143 196 110 196 204 0 51-46 79-92 79s-89-24-120-56l-47 52c30 31 83 71 167 71 101 0 171-64 171-155 0-143-196-114-196-207 0-42 39-69 80-69 31 0 68 14 102 43zm57 224c0 123 74 214 209 214 85 0 154-37 209-104l-56-47c-28 33-81 79-151 79-90 0-128-74-128-155h369c5-24 8-48 8-72 0-118-71-199-200-199-142 0-260 123-260 284zm94-81c25-80 93-131 166-131s117 48 117 131zm897 281l103-730h-80l-47 328c-36-50-93-82-166-82-141 0-263 121-263 282 0 125 83 216 209 216 65 0 125-27 172-71l-8 57zm-370-211c0-118 89-204 188-204 92 0 142 75 142 159 0 105-80 201-184 201-89 0-146-66-146-156zm0 0"/></svg>