<svg width="4470" height="1064.002" xmlns="http://www.w3.org/2000/svg"><path d="M308 348.002c-42-30-80-42-121-42-66 0-122 45-122 108 0 150 247 105 247 252 0 81-70 109-127 109s-98-24-138-52l-6 7c41 30 87 54 144 54 61 0 137-30 137-118 0-156-247-109-247-252 0-62 56-99 112-99 37 0 74 12 115 40zm130 246c0 125 69 190 173 190s174-64 174-190v-284h-10v284c0 121-65 181-164 181-98 0-163-60-163-181v-284h-10zm487 420h10v-398c28 97 113 168 214 168 125 0 216-107 216-239s-91-239-216-239c-101 0-186 71-214 168v-164h-10zm10-491c10-117 101-208 214-208 120 0 206 103 206 230s-86 230-206 230c-113 0-204-91-214-208-1-7-1-14-1-22s0-15 1-22zm546 491h10v-398c28 97 113 168 214 168 125 0 216-107 216-239s-91-239-216-239c-101 0-186 71-214 168v-164h-10zm10-491c10-117 101-208 214-208 120 0 206 103 206 230s-86 230-206 230c-113 0-204-91-214-208-1-7-1-14-1-22s0-15 1-22zm546 257h10v-260c0-154 75-204 151-204v-10c-79 0-130 48-151 130v-126h-10zm183-235c0 142 86 239 209 239 76 0 145-38 190-115l-8-5c-43 74-110 111-182 111-118 0-199-92-199-229h400v-9c0-139-79-231-202-231-114 0-208 94-208 239zm10-8c3-131 86-222 198-222 116 0 192 88 192 222zm754-189c-42-30-80-42-121-42-66 0-122 45-122 108 0 150 247 105 247 252 0 81-70 109-127 109s-98-24-138-52l-6 7c41 30 87 54 144 54 61 0 137-30 137-118 0-156-247-109-247-252 0-62 56-99 112-99 37 0 74 12 115 40zm368 0c-42-30-80-42-121-42-66 0-122 45-122 108 0 150 247 105 247 252 0 81-70 109-127 109s-98-24-138-52l-6 7c41 30 87 54 144 54 61 0 137-30 137-118 0-156-247-109-247-252 0-62 56-99 112-99 37 0 74 12 115 40zm106 197c0 142 86 239 209 239 76 0 145-38 190-115l-8-5c-43 74-110 111-182 111-118 0-199-92-199-229h400v-9c0-139-79-231-202-231-114 0-208 94-208 239zm10-8c3-131 86-222 198-222 116 0 192 88 192 222zm708 247c102 0 186-71 214-168v164h10v-730h-10v424c-28-97-112-168-214-168-125 0-216 107-216 239s91 239 216 239zm-206-239c0-127 86-230 206-230 113 0 204 91 214 208 1 7 1 14 1 22s0 15-1 22c-10 117-101 208-214 208-120 0-206-103-206-230zm0 0"/></svg>