<svg width="3834" height="1064.002" xmlns="http://www.w3.org/2000/svg"><path d="M400 353.002c-47-34-107-59-178-59-72 0-174 45-174 152 0 153 192 139 192 194 0 13-12 23-28 23-43 0-74-23-119-56l-73 109c49 39 112 80 202 80 106 0 178-72 178-156 0-156-192-146-192-193 0-13 10-20 30-20 26 0 51 8 86 34zm85 226c0 144 102 215 221 215 118 0 221-71 221-215v-269H767v274c0 42-27 66-61 66s-61-24-61-66v-274H485zm562 435h160v-271c32 33 76 53 131 53 132 0 233-112 233-251s-101-251-233-251c-55 0-99 20-131 53v-37h-160zm154-469c0-58 46-105 105-105 58 0 105 47 105 105s-47 105-105 105c-59 0-105-47-105-105zm470 469h160v-271c32 33 76 53 131 53 132 0 233-112 233-251s-101-251-233-251c-55 0-99 20-131 53v-37h-160zm154-469c0-58 46-105 105-105 58 0 105 47 105 105s-47 105-105 105c-59 0-105-47-105-105zm972-2c0-139-112-249-261-249s-261 114-261 253 112 249 261 249 261-114 261-253zm-160 4c0 58-41 103-101 103s-101-49-101-107 41-103 101-103 101 49 101 107zm600-194c-47-34-107-59-178-59-72 0-174 45-174 152 0 153 192 139 192 194 0 13-12 23-28 23-43 0-74-23-119-56l-73 109c49 39 112 80 202 80 106 0 178-72 178-156 0-156-192-146-192-193 0-13 10-20 30-20 26 0 51 8 86 34zm326 443c87 0 147-34 197-78l-85-101c-41 35-76 47-112 47-45 0-79-25-96-66h323c0-4 4-35 4-53 0-139-91-251-241-251-143 0-251 114-251 253 0 148 98 249 261 249zm-98-310c15-42 48-66 88-66 43 0 69 24 80 66zm0 0"/></svg>