<svg width="4980" height="1064.002" xmlns="http://www.w3.org/2000/svg"><path d="M369 354.002c-42-34-97-59-156-59-66 0-161 42-161 142 0 158 211 128 211 212 0 32-27 51-58 51-45 0-84-24-124-57l-55 77c41 34 100 75 183 75 91 0 167-60 167-146 0-163-212-135-212-212 0-30 26-47 56-47 27 0 56 10 93 40zm102 213c0 156 94 227 206 227 113 0 207-71 207-227v-257H770v267c0 81-45 115-93 115-47 0-92-34-92-115v-267H471zm539 447h114v-287c38 42 91 68 153 68 130 0 233-108 233-250s-103-250-233-250c-62 0-115 26-153 67v-52h-114zm108-471c0-76 55-146 135-146 82 0 142 64 142 149s-60 147-142 147c-81 0-135-74-135-150zm497 471h114v-287c38 42 91 68 153 68 130 0 233-108 233-250s-103-250-233-250c-62 0-115 26-153 67v-52h-114zm108-471c0-76 55-146 135-146 82 0 142 64 142 149s-60 147-142 147c-81 0-135-74-135-150zm497 237h114v-244c0-105 67-136 148-136v-105c-55 0-110 22-148 66v-51h-114zm524 15c85 0 149-38 198-94l-69-68c-31 33-74 64-129 64-69 0-116-50-128-117h350c0-1 2-23 2-35 0-143-87-250-232-250-133 0-237 109-237 252 0 140 94 248 245 248zm-126-302c15-63 62-103 118-103 62 0 102 41 115 103zm761-139c-42-34-97-59-156-59-66 0-161 42-161 142 0 158 211 128 211 212 0 32-27 51-58 51-45 0-84-24-124-57l-55 77c41 34 100 75 183 75 91 0 167-60 167-146 0-163-212-135-212-212 0-30 26-47 56-47 27 0 56 10 93 40zm408 0c-42-34-97-59-156-59-66 0-161 42-161 142 0 158 211 128 211 212 0 32-27 51-58 51-45 0-84-24-124-57l-55 77c41 34 100 75 183 75 91 0 167-60 167-146 0-163-212-135-212-212 0-30 26-47 56-47 27 0 56 10 93 40zm326 441c85 0 149-38 198-94l-69-68c-31 33-74 64-129 64-69 0-116-50-128-117h350c0-1 2-23 2-35 0-143-87-250-232-250-133 0-237 109-237 252 0 140 94 248 245 248zm-126-302c15-63 62-103 118-103 62 0 102 41 115 103zm667 302c62 0 115-26 153-68v53h114v-730h-114v313c-38-42-91-68-153-68-130 0-233 108-233 250s103 250 233 250zm-118-251c0-85 60-147 142-147 81 0 135 74 135 150s-55 146-135 146c-82 0-142-64-142-149zm0 0"/></svg>