<svg width="4299" height="1064.002" xmlns="http://www.w3.org/2000/svg"><path d="M328 354.002c-43-33-82-48-124-48-81 0-138 49-138 119 0 136 217 105 217 237 0 70-58 113-127 113-47 0-84-15-137-60l-6 7c55 46 95 62 143 62 74 0 137-47 137-122 0-139-217-108-217-237 0-65 52-110 128-110 39 0 78 16 119 46zm238 430c98 0 173-69 190-189l40-285h-10l-40 285c-17 115-87 180-180 180-107 0-163-61-147-180l40-285h-10l-40 285c-17 125 42 189 157 189zm369-474l-99 704h10l57-406c12 99 86 176 189 176 140 0 253-124 253-271 0-116-73-207-185-207-101 0-195 63-238 165l23-161zm400 204c0 141-109 261-241 261-109 0-184-89-184-201 0-141 117-259 248-259 108 0 177 88 177 199zm100 266l39-274c20-140 111-190 187-190l2-10c-86 0-153 53-180 133l18-129h-10l-66 470zm403 4c73 0 134-28 197-100l-7-6c-63 72-122 97-190 97-103 0-180-72-180-199 0-10 0-20 1-30h402c2-15 3-30 3-45 0-112-65-195-185-195-122 0-231 112-231 270 0 129 78 208 190 208zm41-469c125 0 188 95 173 222h-392c17-136 117-222 219-222zm272 465l39-274c17-122 100-191 179-191 85 0 129 55 113 171l-41 294h10l38-274h1c24-132 108-191 179-191 85 0 129 55 113 171l-41 294h10l41-294c18-126-36-180-121-180-67 0-143 49-176 143 4-100-48-143-124-143-64 0-137 45-172 133l18-129h-10l-66 470zm1135 0l66-470h-10l-24 172c-11-99-85-176-199-176-138 0-243 122-243 267 0 118 75 211 197 211 95 0 186-72 225-161l-22 157zm-400-207c0-145 105-258 233-258 113 0 192 84 192 200 0 141-117 260-238 260-112 0-187-84-187-202zm900 155c-52 32-100 47-144 47-123 0-200-86-200-200 0-139 116-260 246-260 64 0 102 17 146 49l6-7c-40-32-83-51-152-51-140 0-256 129-256 269 0 113 75 209 210 209 49 0 98-17 148-49zm115 286l398-704h-11l-256 453-128-453h-10l131 464-134 240zm0 0"/></svg>