<svg width="4501" height="1064.002" xmlns="http://www.w3.org/2000/svg"><path d="M332 352.002c-39-33-85-52-132-52-64 0-142 41-142 124 0 158 234 115 234 235 0 59-51 85-98 85-50 0-94-24-131-55l-28 37c36 30 89 64 159 64 74 0 151-43 151-131 0-164-234-120-234-235 0-50 44-79 89-79 31 0 64 12 104 43zm121 220c0 150 81 218 187 218 107 0 188-68 188-218v-262h-54v270c0 114-60 161-134 161-72 0-133-47-133-161v-270h-54zm509 442h54v-335c38 66 107 111 186 111 127 0 227-105 227-245s-100-245-227-245c-79 0-148 44-186 110v-100h-54zm50-471c0-102 71-196 179-196 107 0 182 86 182 199s-75 197-182 197c-108 0-179-99-179-200zm528 237h54v-262c0-123 73-165 148-165v-53c-63 0-117 33-148 95v-85h-54zm221-234c0 138 90 244 224 244 82 0 150-39 197-108l-40-31c-31 48-86 90-157 90-97 0-162-80-168-182h381v-17c0-143-82-242-216-242-122 0-221 101-221 246zm58-33c12-97 79-164 163-164 90 0 149 66 158 164zm491-203v470h54v-281c0-99 61-152 122-152s109 43 109 134v299h55v-281c0-99 58-154 122-154 63 0 109 45 109 136v299h54v-304c0-121-68-176-148-176-62 0-119 33-150 96-23-65-77-96-136-96-54 0-109 30-141 91v-81zm959 480c79 0 149-45 186-111v101h54v-470h-54v101c-37-66-107-111-186-111-127 0-227 105-227 245s100 245 227 245zm-171-246c0-113 76-197 182-197 108 0 179 99 179 200 0 102-71 196-179 196-106 0-182-86-182-199zm888 151c-40 32-81 46-127 46-99 0-185-79-185-197 0-119 86-195 185-195 47 0 87 13 127 46l31-38c-47-38-94-57-157-57-142 0-242 109-242 246s100 244 242 244c62 0 111-20 157-57zm64-385l194 443-116 262h58l308-705h-58l-163 374-164-374zm0 0"/></svg>