<svg width="1338" height="1064.002" xmlns="http://www.w3.org/2000/svg"><path d="M6 85.002h185v695h10v-695h230v695h10v-274c0-122 93-191 190-191 92 0 140 57 140 181v284h10v-284c0-129-52-190-150-190-85 0-166 48-190 137v-367H6zm900 695v-470h-10v470h10zm-5-555c8 0 14-6 14-14s-6-14-14-14-14 6-14 14 6 14 14 14zm377 123c-42-30-80-42-121-42-66 0-122 45-122 108 0 150 247 105 247 252 0 81-70 109-127 109s-98-24-138-52l-6 7c41 30 87 54 144 54 61 0 137-30 137-118 0-156-247-109-247-252 0-62 56-99 112-99 37 0 74 12 115 40zm0 0"/></svg>