<svg width="2124" height="1064.002" xmlns="http://www.w3.org/2000/svg"><path d="M109 319.002l-52 371c-9 62 21 94 64 94 30 0 53-11 78-31l-5-7c-22 17-45 29-73 29-32 0-63-23-54-85l52-371h144l1-9H120l18-127h-10l-18 127H48l-1 9zm578 461l66-470h-10l-24 172c-11-99-85-176-199-176-138 0-243 122-243 267 0 118 75 211 197 211 95 0 186-72 225-161l-22 157zm-400-207c0-145 105-258 233-258 113 0 192 84 192 200 0 141-117 260-238 260-112 0-187-84-187-202zm552 207h10l36-259 234 259h13l-242-267 271-203h-16l-257 194 64-454h-10zm543 4c73 0 134-28 197-100l-7-6c-63 72-122 97-190 97-103 0-180-72-180-199 0-10 0-20 1-30h402c2-15 3-30 3-45 0-112-65-195-185-195-122 0-231 112-231 270 0 129 78 208 190 208zm41-469c125 0 188 95 173 222h-392c17-136 117-222 219-222zm272 465l39-274c17-122 117-191 192-191 95 0 158 54 138 191l-39 274h10l39-274c20-137-43-200-148-200-65 0-146 47-183 135l18-131h-10l-66 470zm0 0"/></svg>