<svg width="2302" height="1064.002" xmlns="http://www.w3.org/2000/svg"><path d="M89 360.002v311c0 79 43 119 106 119 34 0 62-10 90-31l-23-39c-21 15-42 22-62 22-34 0-57-23-57-71v-311h136v-50H143v-123H89v123H22v50zm465 430c79 0 149-45 186-111v101h54v-470h-54v101c-37-66-107-111-186-111-127 0-227 105-227 245s100 245 227 245zm-171-246c0-113 76-197 182-197 108 0 179 99 179 200 0 102-71 196-179 196-106 0-182-86-182-199zm551-494v730h54v-244l233 244h70l-254-266 221-204h-69l-201 187v-447zm377 496c0 138 90 244 224 244 82 0 150-39 197-108l-40-31c-31 48-86 90-157 90-97 0-162-80-168-182h381v-17c0-143-82-242-216-242-122 0-221 101-221 246zm58-33c12-97 79-164 163-164 90 0 149 66 158 164zm491 267h54v-267c0-111 72-166 145-166 72 0 126 45 126 148v285h54v-291c0-126-73-189-166-189-64 0-127 33-159 98v-88h-54zm0 0"/></svg>