<svg width="2376" height="1064.002" xmlns="http://www.w3.org/2000/svg"><path d="M108 383.002l-39 277c-12 87 38 134 112 134 35 0 66-11 101-28l-27-60c-21 11-43 17-61 17-31 0-51-19-45-63l39-277h131l10-73H198l17-120h-80l-17 120H48l-10 73zm678 397l66-470h-80l-10 68c-36-50-93-82-166-82-141 0-263 121-263 282 0 125 83 216 209 216 65 0 125-27 172-71l-8 57zm-370-211c0-118 89-204 188-204 92 0 142 75 142 159 0 105-80 201-184 201-89 0-146-66-146-156zm505 211h80l33-235 173 235h100l-198-263 241-207h-104l-204 182 62-442h-80zm441-200c0 123 74 214 209 214 85 0 154-37 209-104l-56-47c-28 33-81 79-151 79-90 0-128-74-128-155h369c5-24 8-48 8-72 0-118-71-199-200-199-142 0-260 123-260 284zm94-81c25-80 93-131 166-131s117 48 117 131zm516 281l37-263c15-105 84-152 145-152 57 0 107 39 93 135l-39 280h80l41-289c18-130-56-195-147-195-56 0-112 25-153 75l9-61h-80l-66 470zm0 0"/></svg>