<svg width="1624" height="1064.002" xmlns="http://www.w3.org/2000/svg"><path d="M44 342.002h65l-48 337c-10 71 28 109 82 109 32 0 58-11 86-30l-13-27c-21 15-44 25-68 25-32 0-59-22-51-77l47-337h139l5-32H149l17-124h-35l-18 124H48zm304 438l38-270c16-116 103-177 179-177 78 0 134 53 117 171l-39 276h36l40-280c18-133-49-198-142-198-68 0-141 39-178 116l52-368h-36l-103 730zm880 0l66-470h-36l-18 134c-21-81-89-142-188-142-139 0-250 122-250 273 0 120 78 213 201 213 84 0 164-56 206-128l-17 120zm-389-209c0-135 99-238 216-238 106 0 174 81 174 185 0 128-104 239-218 239-104 0-172-78-172-186zm541-229h65l-48 337c-10 71 28 109 82 109 32 0 58-11 86-30l-13-27c-21 15-44 25-68 25-32 0-59-22-51-77l47-337h139l5-32h-139l17-124h-35l-18 124h-65zm0 0"/></svg>