<svg width="1434" height="1064.002" xmlns="http://www.w3.org/2000/svg"><path d="M112 408.002l-32 223c-15 105 40 164 132 164 38 0 69-11 103-27l-28-90c-20 10-40 15-55 15-29 0-46-18-41-56l33-229h128l14-98H237l17-116H142l-17 116H47l-13 98zm378 372l37-262c12-88 69-125 118-125 46 0 85 32 74 110l-39 277h113l42-301c17-123-52-183-138-183-57 0-109 23-148 67l44-313H481l-103 730zm423-200c0 125 80 215 221 215 86 0 151-33 206-91l-63-72c-35 34-82 67-138 67-68 0-108-50-113-120h352c6-24 10-51 10-78 0-119-72-206-207-206-151 0-268 126-268 285zm125-86c24-65 80-105 140-105 61 0 96 38 98 105zm0 0"/></svg>