<svg width="1899" height="1064.002" xmlns="http://www.w3.org/2000/svg"><path d="M108 383.002l-39 277c-12 87 38 134 112 134 35 0 66-11 101-28l-27-60c-21 11-43 17-61 17-31 0-51-19-45-63l39-277h131l10-73H198l17-120h-80l-17 120H48l-10 73zm318 397l37-263c15-105 84-152 145-152 57 0 107 39 93 135l-39 280h80l41-289c18-130-56-195-147-195-56 0-112 25-152 75l45-321h-80l-103 730zm437-200c0 123 74 214 209 214 85 0 154-37 209-104l-56-47c-28 33-81 79-151 79-90 0-128-74-128-155h369c5-24 8-48 8-72 0-118-71-199-200-199-142 0-260 123-260 284zm94-81c25-80 93-131 166-131s117 48 117 131zm517 281c3-21 63-449 66-470h-80c-3 21-63 449-66 470h80zm41-550c34 0 60-28 60-62 0-27-19-47-50-47-34 0-61 26-61 61 0 27 20 48 51 48zm170 550l37-263c15-105 92-142 166-142l11-79c-58 0-115 24-156 71l8-57h-80l-66 470zm0 0"/></svg>