<svg width="1894" height="1064.002" xmlns="http://www.w3.org/2000/svg"><path d="M91 383.002v277c0 90 52 134 124 134 36 0 66-10 95-31l-33-57c-19 11-38 17-55 17-29 0-51-19-51-63v-277h131v-73H171v-120H91v120H21v73zm300 397h80v-263c0-105 63-152 124-152 57 0 112 39 112 135v280h80v-289c0-130-83-195-170-195-54 0-109 25-146 75v-321h-80zm734 14c85 0 152-40 200-105l-58-45c-24 33-72 78-142 78-86 0-141-72-150-155h369s1-14 1-22c0-145-85-249-225-249-126 0-228 106-228 251 0 135 92 247 233 247zm-147-295c16-78 74-131 142-131 76 0 125 54 139 131zm555 281v-470h-80v470h80zm-35-550c31 0 54-24 54-55s-23-54-54-54-55 23-55 54 24 55 55 55zm165 550h80v-263c0-105 72-142 146-142v-79c-54 0-109 25-146 75v-61h-80zm0 0"/></svg>