<svg width="1632" height="1064.002" xmlns="http://www.w3.org/2000/svg"><path d="M85 319.002v371c0 61 27 94 76 94 29 0 55-11 81-32l-6-7c-26 21-50 30-74 30-44 0-67-30-67-85v-371h144v-9H95v-127H85v127H23v9zm247 461h10v-274c0-122 93-191 190-191 92 0 140 57 140 181v284h10v-284c0-129-52-190-150-190-85 0-166 48-190 137v-393h-10zm460-235c0 142 86 239 209 239 76 0 145-38 190-115l-8-5c-43 74-110 111-182 111-118 0-199-92-199-229h400v-9c0-139-79-231-202-231-114 0-208 94-208 239zm10-8c3-131 86-222 198-222 116 0 192 88 192 222zm529 243v-470h-10v470h10zm-5-555c8 0 14-6 14-14s-6-14-14-14-14 6-14 14 6 14 14 14zm139 555h10v-260c0-154 75-204 151-204v-10c-79 0-130 48-151 130v-126h-10zm0 0"/></svg>