<svg width="2018" height="1064.002" xmlns="http://www.w3.org/2000/svg"><path d="M86 329.002v356c0 66 31 101 84 101 30 0 57-11 83-33l-10-15c-25 20-48 29-72 29-41 0-64-29-64-82v-356h142v-19H107v-126H86v126H23v19zm256 451h22v-272c0-120 88-185 179-185 86 0 135 54 135 174v283h22v-285c0-129-58-191-154-191-80 0-156 45-182 128v-382h-22zm467-234c0 140 87 240 212 240 78 0 147-39 192-114l-16-11c-40 67-104 105-176 105-113 0-189-89-191-217h395v-10c0-141-79-235-205-235-116 0-211 97-211 242zm21-15c6-122 85-207 190-207 109 0 181 82 183 207zm510-221v470h22v-276c0-116 70-181 145-181 78 0 130 52 130 162v295h21v-276c0-116 70-181 145-181 79 0 130 52 130 162v295h21v-296c0-125-63-180-147-180-65 0-129 42-154 125-16-86-73-125-143-125-61 0-124 41-150 122v-116zm0 0"/></svg>