<svg width="2230" height="1064.002" xmlns="http://www.w3.org/2000/svg"><path d="M99 410.002v230c0 107 64 155 147 155 40 0 73-11 103-30l-39-88c-19 9-36 14-51 14-28 0-46-18-46-55v-226h128v-100H213v-116H99v116H21v100zm327 370h114v-262c0-87 50-123 99-123 45 0 89 31 89 108v277h113v-302c0-123-78-183-162-183-50 0-102 22-139 65v-310H426zm763 15c85 0 149-38 198-94l-69-68c-31 33-74 64-129 64-69 0-116-50-128-117h350c0-1 2-23 2-35 0-143-87-250-232-250-133 0-237 109-237 252 0 140 94 248 245 248zm-126-302c15-63 62-103 118-103 62 0 102 41 115 103zm455-183v470h114v-288c0-65 42-98 82-98 36 0 72 27 72 86v300h114v-288c0-64 41-100 82-100 39 0 73 29 73 88v300h114v-313c0-117-72-172-149-172-54 0-107 25-144 71-26-47-72-71-120-71-46 0-94 22-128 65v-50zm0 0"/></svg>