<svg width="2313" height="1064.002" xmlns="http://www.w3.org/2000/svg"><path d="M116 443.002l-22 149c-19 128 43 204 159 204 42 0 75-10 107-24l-30-132c-19 8-34 11-46 11-27 0-39-16-35-45l23-163h125l19-133H291l15-110H150l-15 110H46l-19 133zm461 337l37-261c9-65 48-87 81-87 31 0 56 22 48 75l-38 273h156l45-317c16-114-48-168-126-168-57 0-105 22-143 56l43-301H524l-103 730zm404-200c0 128 89 216 238 216 87 0 146-28 202-73l-74-105c-45 35-83 49-120 49-46 0-78-27-89-71h325c7-25 14-55 14-86 0-121-74-216-218-216-162 0-278 130-278 286zm168-93c21-44 61-70 103-70 44 0 69 26 74 70zm392 293h156l41-293c5-37 37-57 63-57 23 0 45 16 40 52l-42 298h156l43-301c8-32 37-50 61-50 23 0 45 17 40 53l-42 298h156l45-318c16-115-49-168-126-168-49 0-101 21-143 62-20-42-59-62-102-62-44 0-92 21-130 61l6-45h-156zm0 0"/></svg>