<svg width="4656" height="1064.002" xmlns="http://www.w3.org/2000/svg"><path d="M108 383.002l-39 277c-12 87 38 134 112 134 35 0 66-11 101-28l-27-60c-21 11-43 17-61 17-31 0-51-19-45-63l39-277h131l10-73H198l17-120h-80l-17 120H48l-10 73zm318 397l37-263c15-105 84-152 145-152 57 0 107 39 93 135l-39 280h80l41-289c18-130-56-195-147-195-56 0-112 25-152 75l45-321h-80l-103 730zm437-200c0 123 74 214 209 214 85 0 154-37 209-104l-56-47c-28 33-81 79-151 79-90 0-128-74-128-155h369c5-24 8-48 8-72 0-118-71-199-200-199-142 0-260 123-260 284zm94-81c25-80 93-131 166-131s117 48 117 131zm516 281l40-285c12-86 71-130 122-130 47 0 88 37 77 113l-42 302h80l40-285c12-85 69-133 123-133 51 0 87 40 76 116l-42 302h80l43-309c17-119-46-175-128-175-63 0-118 28-156 80-20-53-66-80-123-80-50 0-101 24-139 72l8-58h-73l-66 470zm1026-424c-48-43-96-60-143-60-93 0-165 65-165 148 0 143 196 110 196 204 0 51-46 79-92 79s-89-24-120-56l-47 52c30 31 83 71 167 71 101 0 171-64 171-155 0-143-196-114-196-207 0-42 39-69 80-69 31 0 68 14 102 43zm57 224c0 123 74 214 209 214 85 0 154-37 209-104l-56-47c-28 33-81 79-151 79-90 0-128-74-128-155h369c5-24 8-48 8-72 0-118-71-199-200-199-142 0-260 123-260 284zm94-81c25-80 93-131 166-131s117 48 117 131zm517 281l103-730h-80l-103 730zm136-470l143 470h48l275-470h-87l-195 338-101-338zm445 270c0 123 74 214 209 214 85 0 154-37 209-104l-56-47c-28 33-81 79-151 79-90 0-128-74-128-155h369c5-24 8-48 8-72 0-118-71-199-200-199-142 0-260 123-260 284zm94-81c25-80 93-131 166-131s117 48 117 131zm789-143c-48-43-96-60-143-60-93 0-165 65-165 148 0 143 196 110 196 204 0 51-46 79-92 79s-89-24-120-56l-47 52c30 31 83 71 167 71 101 0 171-64 171-155 0-143-196-114-196-207 0-42 39-69 80-69 31 0 68 14 102 43zm0 0"/></svg>