<svg width="2093" height="1064.002" xmlns="http://www.w3.org/2000/svg"><path d="M89 360.002v311c0 79 43 119 106 119 34 0 62-10 90-31l-23-39c-21 15-42 22-62 22-34 0-57-23-57-71v-311h136v-50H143v-123H89v123H22v50zm281 420h54v-267c0-111 74-166 148-166 70 0 123 45 123 151v282h54v-287c0-130-72-193-163-193-65 0-130 33-162 98v-348h-54zm486-234c0 138 90 244 224 244 82 0 150-39 197-108l-40-31c-31 48-86 90-157 90-97 0-162-80-168-182h381v-17c0-143-82-242-216-242-122 0-221 101-221 246zm58-33c12-97 79-164 163-164 90 0 149 66 158 164zm491-203v470h54v-281c0-99 61-152 122-152s109 43 109 134v299h55v-281c0-99 58-154 122-154 63 0 109 45 109 136v299h54v-304c0-121-68-176-148-176-62 0-119 33-150 96-23-65-77-96-136-96-54 0-109 30-141 91v-81zm0 0"/></svg>