<svg width="2565" height="1064.002" xmlns="http://www.w3.org/2000/svg"><path d="M112 408.002l-32 223c-15 105 40 164 132 164 38 0 69-11 103-27l-28-90c-20 10-40 15-55 15-29 0-46-18-41-56l33-229h128l14-98H237l17-116H142l-17 116H47l-13 98zm378 372l37-262c12-88 69-125 118-125 46 0 85 32 74 110l-39 277h113l42-301c17-123-52-183-138-183-57 0-109 23-148 67l44-313H481l-103 730zm527 0c2-16 64-454 66-470H971c-2 16-64 454-66 470h112zm24-542c44 0 78-37 78-81 0-35-25-61-65-61-44 0-78 36-78 80 0 35 26 62 65 62zm212 542l37-262c13-88 69-125 118-125 46 0 86 32 74 110l-38 277h112l43-301c17-123-53-183-138-183-57 0-110 23-149 67l7-53h-112l-66 470zm418 0h112l33-231 152 231h131l-178-262 221-208h-136l-181 179 61-439h-112zm876-424c-46-39-95-61-154-61-91 0-177 59-177 157 0 137 185 116 185 192 0 36-34 57-68 57-45 0-83-22-117-55l-63 74c35 34 90 75 181 75 105 0 179-70 179-163 0-140-184-119-184-193 0-31 27-50 61-50 29 0 61 11 94 38zm0 0"/></svg>