<svg width="2169" height="1064.002" xmlns="http://www.w3.org/2000/svg"><path d="M46 329.002h63l-50 356c-9 66 24 101 72 101 31 0 55-11 82-31l-9-16c-22 16-45 28-71 28-32 0-61-23-53-82l50-356h142l3-19H133l18-126h-22l-18 126H48zm277 451l38-272c17-120 109-185 191-185 84 0 142 57 124 182l-39 275h22l39-276c19-136-46-200-140-200-71 0-151 44-186 129l54-383h-22l-103 730zm476 0c1-12 64-458 66-470h-22c-1 12-64 458-66 470h22zm67-554c13 0 24-11 24-24 0-10-8-17-19-17-13 0-23 10-23 23 0 10 8 18 18 18zm92 554l38-272c17-120 112-185 185-185 88 0 149 52 130 182l-39 275h22l39-276c20-136-45-200-148-200-63 0-140 44-178 126l17-120h-22l-66 470zm463 0h22l35-255 224 255h28l-235-266 266-204h-30l-249 192 64-452h-22zm709-426c-44-34-84-50-127-50-83 0-142 52-142 124 0 137 213 106 213 232 0 67-56 107-121 107-47 0-85-16-135-59l-12 14c51 44 93 64 147 64 78 0 143-50 143-127 0-140-214-110-214-233 0-61 50-103 120-103 38 0 77 15 116 46zm0 0"/></svg>