<svg width="1905" height="1064.002" xmlns="http://www.w3.org/2000/svg"><path d="M109 319.002l-52 371c-9 62 21 94 64 94 30 0 53-11 78-31l-5-7c-22 17-45 29-73 29-32 0-63-23-54-85l52-371h144l1-9H120l18-127h-10l-18 127H48l-1 9zm193 461l39-274c17-122 114-191 199-191 90 0 149 61 131 191l-39 274h10l39-274c19-136-44-200-139-200-74 0-158 47-193 138l56-394h-10l-103 730zm469 0c2-10 65-460 66-470h-10c-1 10-64 460-66 470h10zm73-555c9 0 16-7 16-16 0-7-5-12-12-12-9 0-16 7-16 16 0 7 5 12 12 12zm76 555l39-274c17-122 117-191 192-191 95 0 158 54 138 191l-39 274h10l39-274c20-137-43-200-148-200-65 0-146 47-183 135l18-131h-10l-66 470zm940-470h-10l-25 174c-10-106-89-178-198-178-138 0-243 121-243 260 0 122 73 218 195 218 102 0 188-71 227-163l-22 159c-18 129-108 229-228 229-86 0-152-37-206-116l-8 5c56 82 124 120 212 120 132 0 222-109 240-238zm-466 256c0-139 105-251 233-251 113 0 191 84 191 201 0 141-115 259-239 259-112 0-185-87-185-209zm0 0"/></svg>