<svg width="2124" height="1064.002" xmlns="http://www.w3.org/2000/svg"><path d="M108 383.002l-39 277c-12 87 38 134 112 134 35 0 66-11 101-28l-27-60c-21 11-43 17-61 17-31 0-51-19-45-63l39-277h131l10-73H198l17-120h-80l-17 120H48l-10 73zm318 397l37-263c15-105 84-152 145-152 57 0 107 39 93 135l-39 280h80l41-289c18-130-56-195-147-195-56 0-112 25-152 75l45-321h-80l-103 730zm510 0c3-21 63-449 66-470h-80c-3 21-63 449-66 470h80zm41-550c34 0 60-28 60-62 0-27-19-47-50-47-34 0-61 26-61 61 0 27 20 48 51 48zm170 550l37-263c15-105 84-152 145-152 57 0 107 39 93 135l-39 280h80l41-289c18-130-56-195-147-195-56 0-112 25-153 75l9-61h-80l-66 470zm937-470h-79l-10 69c-37-51-96-83-168-83-148 0-260 116-260 277 0 125 87 211 207 211 65 0 127-25 174-67l-11 76c-16 109-100 164-176 164-66 0-114-41-139-108l-72 27c36 98 109 152 207 152 147 0 241-106 259-234zm-434 254c0-119 83-199 193-199 85 0 137 75 137 159 0 107-82 191-186 191-89 0-144-61-144-151zm0 0"/></svg>