<svg width="1933" height="1064.002" xmlns="http://www.w3.org/2000/svg"><path d="M85 319.002v371c0 61 27 94 76 94 29 0 55-11 81-32l-6-7c-26 21-50 30-74 30-44 0-67-30-67-85v-371h144v-9H95v-127H85v127H23v9zm247 461h10v-274c0-122 93-191 190-191 92 0 140 57 140 181v284h10v-284c0-129-52-190-150-190-85 0-166 48-190 137v-393h-10zm497 0v-470h-10v470h10zm-5-555c8 0 14-6 14-14s-6-14-14-14-14 6-14 14 6 14 14 14zm139 555h10v-274c0-122 88-191 182-191 96 0 148 57 148 170v295h10v-295c0-118-56-179-158-179-82 0-158 48-182 137v-133h-10zm676 4c102 0 186-72 214-169v162c0 146-83 232-214 232-102 0-157-54-199-143l-8 4c42 92 101 148 207 148 138 0 224-93 224-241v-467h-10v165c-28-97-112-169-214-169-125 0-216 107-216 239s91 239 216 239zm0-469c120 0 214 103 214 230s-94 230-214 230-206-103-206-230 86-230 206-230zm0 0"/></svg>