<svg width="2433" height="1064.002" xmlns="http://www.w3.org/2000/svg"><path d="M108 383.002l-39 277c-12 87 38 134 112 134 35 0 66-11 101-28l-27-60c-21 11-43 17-61 17-31 0-51-19-45-63l39-277h131l10-73H198l17-120h-80l-17 120H48l-10 73zm318 397l37-263c15-105 84-152 145-152 57 0 107 39 93 135l-39 280h80l41-289c18-130-56-195-147-195-56 0-112 25-152 75l45-321h-80l-103 730zm510 0c3-21 63-449 66-470h-80c-3 21-63 449-66 470h80zm41-550c34 0 60-28 60-62 0-27-19-47-50-47-34 0-61 26-61 61 0 27 20 48 51 48zm170 550l37-263c15-105 84-152 145-152 57 0 107 39 93 135l-39 280h80l41-289c18-130-56-195-147-195-56 0-112 25-153 75l9-61h-80l-66 470zm435 0h80l33-235 173 235h100l-198-263 241-207h-104l-204 182 62-442h-80zm826-424c-48-43-96-60-143-60-93 0-165 65-165 148 0 143 196 110 196 204 0 51-46 79-92 79s-89-24-120-56l-47 52c30 31 83 71 167 71 101 0 171-64 171-155 0-143-196-114-196-207 0-42 39-69 80-69 31 0 68 14 102 43zm0 0"/></svg>