<svg width="1376" height="1064.002" xmlns="http://www.w3.org/2000/svg"><path d="M62 96.002h181l-96 684h22l96-684h226l-96 684h21l39-272c17-120 109-185 190-185 85 0 142 57 125 182l-39 275h21l40-276c19-136-46-200-140-200-71 0-150 43-187 129l50-357H64zm830 684c1-12 64-458 66-470h-22c-1 12-64 458-66 470h22zm67-554c13 0 24-11 24-24 0-10-8-17-19-17-13 0-23 10-23 23 0 10 8 18 18 18zm378 128c-44-34-84-50-127-50-83 0-142 52-142 124 0 137 213 106 213 232 0 67-56 107-121 107-47 0-85-16-135-59l-12 14c51 44 93 64 147 64 78 0 143-50 143-127 0-140-214-110-214-233 0-61 50-103 120-103 38 0 77 15 116 46zm0 0"/></svg>