<svg width="2227" height="1064.002" xmlns="http://www.w3.org/2000/svg"><path d="M44 342.002h65l-48 337c-10 71 28 109 82 109 32 0 58-11 86-30l-13-27c-21 15-44 25-68 25-32 0-59-22-51-77l47-337h139l5-32H149l17-124h-35l-18 124H48zm304 438l38-270c16-116 103-177 179-177 78 0 134 53 117 171l-39 276h36l40-280c18-133-49-198-142-198-68 0-141 39-178 116l52-368h-36l-103 730zm935-269c0-116-79-209-215-209-149 0-266 126-266 273 0 117 81 213 217 213 150 0 264-135 264-277zm-36 3c0 126-104 242-227 242-110 0-181-80-181-184 0-131 105-238 228-238 110 0 180 79 180 180zm432-159c-45-37-87-53-131-53-85 0-148 55-148 130 0 138 210 107 210 225 0 63-54 100-115 100-46 0-85-18-131-58l-21 23c46 41 91 66 152 66 84 0 150-54 150-134 0-141-209-111-209-226 0-57 47-96 110-96 36 0 74 15 113 46zm69 222c0 127 76 211 197 211 77 0 141-32 201-102l-25-21c-50 58-107 91-175 91-96 0-161-70-161-183 0-6 0-13 1-19h389c3-19 5-37 5-55 0-114-67-197-190-197-130 0-242 116-242 275zm41-54c20-115 109-189 200-189 107 0 163 78 153 189zm0 0"/></svg>