<svg width="1677" height="1064.002" xmlns="http://www.w3.org/2000/svg"><path d="M108 360.002l-43 311c-11 78 32 119 94 119 33 0 61-11 93-29l-19-40c-22 13-44 21-66 21-31 0-55-21-48-71l44-311h136l6-50H170l17-123h-55l-17 123H48l-7 50zm272 420l38-267c16-111 95-166 165-166 69 0 122 47 107 155l-39 278h54l40-284c19-132-51-196-144-196-62 0-128 33-167 98l49-348h-54l-103 730zm622 10c111 0 189-73 207-201l39-279h-54l-39 279c-15 105-73 152-152 152-80 0-130-48-115-152l39-279h-54l-39 279c-19 129 43 201 168 201zm644-435c-46-39-91-55-136-55-89 0-155 58-155 137 0 140 204 108 204 216 0 58-51 91-105 91-47 0-87-20-126-57l-32 36c39 36 87 67 158 67 91 0 159-57 159-143 0-141-204-111-204-217 0-51 44-85 97-85 34 0 72 15 109 45zm0 0"/></svg>