<svg width="4183" height="1064.002" xmlns="http://www.w3.org/2000/svg"><path d="M89 360.002v311c0 79 43 119 106 119 34 0 62-10 90-31l-23-39c-21 15-42 22-62 22-34 0-57-23-57-71v-311h136v-50H143v-123H89v123H22v50zm723 185c0-134-101-245-242-245-142 0-243 110-243 245 0 134 101 245 243 245 141 0 242-110 242-245zm-55 0c0 107-79 196-187 196s-187-90-187-196c0-107 79-196 187-196s187 89 187 196zm166 27c0 150 81 218 187 218 107 0 188-68 188-218v-262h-54v270c0 114-60 161-134 161-72 0-133-47-133-161v-270h-54zm563 208v-730h-54v730zm156-420v311c0 79 43 119 106 119 34 0 62-10 90-31l-23-39c-21 15-42 22-62 22-34 0-57-23-57-71v-311h136v-50h-136v-123h-54v123h-67v50zm336 420v-470h-54v470h54zm-24-552c23 0 40-17 40-40s-17-39-40-39c-22 0-40 16-40 39s18 40 40 40zm156 82v470h54v-281c0-99 61-152 122-152s109 43 109 134v299h55v-281c0-99 58-154 122-154 63 0 109 45 109 136v299h54v-304c0-121-68-176-148-176-62 0-119 33-150 96-23-65-77-96-136-96-54 0-109 30-141 91v-81zm959 480c79 0 149-45 186-111v101h54v-470h-54v101c-37-66-107-111-186-111-127 0-227 105-227 245s100 245 227 245zm-171-246c0-113 76-197 182-197 108 0 179 99 179 200 0 102-71 196-179 196-106 0-182-86-182-199zm565-184v311c0 79 43 119 106 119 34 0 62-10 90-31l-23-39c-21 15-42 22-62 22-34 0-57-23-57-71v-311h136v-50h-136v-123h-54v123h-67v50zm238 186c0 138 90 244 224 244 82 0 150-39 197-108l-40-31c-31 48-86 90-157 90-97 0-162-80-168-182h381v-17c0-143-82-242-216-242-122 0-221 101-221 246zm58-33c12-97 79-164 163-164 90 0 149 66 158 164zm0 0"/></svg>