<svg width="3152" height="1064.002" xmlns="http://www.w3.org/2000/svg"><path d="M69 588.002c0 132 73 198 177 198 105 0 178-66 178-198v-278h-22v280c0 119-63 176-156 176-92 0-155-57-155-176v-280H69zm515 192v-730h-22v730zm155-451v356c0 66 31 101 84 101 30 0 57-11 83-33l-10-15c-25 20-48 29-72 29-41 0-64-29-64-82v-356h142v-19H760v-126h-21v126h-63v19zm280 451v-470h-21v470h21zm-10-554c12 0 21-9 21-21s-9-20-21-20c-11 0-20 8-20 20s9 21 20 21zm143 84v470h22v-276c0-116 70-181 145-181 78 0 130 52 130 162v295h21v-276c0-116 70-181 145-181 79 0 130 52 130 162v295h21v-296c0-125-63-180-147-180-65 0-129 42-154 125-16-86-73-125-143-125-61 0-124 41-150 122v-116zm942 476c96 0 177-64 207-154v148h22v-470h-22v148c-30-90-111-154-207-154-125 0-218 107-218 241s93 241 218 241zm-197-241c0-124 84-222 200-222 121 0 206 106 206 222s-85 222-206 222c-116 0-200-99-200-222zm580-216v356c0 66 31 101 84 101 30 0 57-11 83-33l-10-15c-25 20-48 29-72 29-41 0-64-29-64-82v-356h142v-19h-142v-126h-21v126h-63v19zm213 217c0 140 87 240 212 240 78 0 147-39 192-114l-16-11c-40 67-104 105-176 105-113 0-189-89-191-217h395v-10c0-141-79-235-205-235-116 0-211 97-211 242zm21-15c6-122 85-207 190-207 109 0 181 82 183 207zm0 0"/></svg>