<svg width="2222" height="1064.002" xmlns="http://www.w3.org/2000/svg"><path d="M199 786.002c102 0 178-70 195-193l40-283h-22l-39 283c-16 113-83 173-173 173-100 0-155-58-139-173l40-283H79l-39 283c-18 126 42 193 159 193zm614-432c-44-34-84-50-127-50-83 0-142 52-142 124 0 137 213 106 213 232 0 67-56 107-121 107-47 0-85-16-135-59l-12 14c51 44 93 64 147 64 78 0 143-50 143-127 0-140-214-110-214-233 0-61 50-103 120-103 38 0 77 15 116 46zm74 222c0 129 77 210 193 210 74 0 137-30 199-101l-15-13c-58 66-116 94-184 94-100 0-172-71-172-191 0-9 0-18 1-26h397c3-16 4-33 4-49 0-113-66-196-188-196-125 0-235 114-235 272zm24-45c18-127 114-207 211-207 117 0 177 87 164 207zm502 249l64-451h117l2-19h-117l15-105c12-90 63-141 130-141 28 0 53 8 75 23l12-16c-25-18-56-27-86-27-79 0-139 60-153 161l-14 105h-61l-3 19h61l-63 451zm370 6c102 0 178-70 195-193l40-283h-22l-39 283c-16 113-83 173-173 173-100 0-155-58-139-173l40-283h-22l-39 283c-18 126 42 193 159 193zm329-6l103-730h-22l-103 730zm0 0"/></svg>