<svg width="2270" height="1064.002" xmlns="http://www.w3.org/2000/svg"><path d="M143 780.002h24l184-403 73 403h23l232-470h-36l-197 405-72-405h-25l-186 407-91-407H35zm585 0l38-270c16-116 103-177 179-177 78 0 134 53 117 171l-39 276h36l40-280c18-133-49-198-142-198-68 0-141 39-178 116l52-368h-36l-103 730zm484 0c2-14 64-456 66-470h-36c-2 14-64 456-66 470h36zm61-553c18 0 32-15 32-33 0-14-10-25-26-25-18 0-32 14-32 33 0 14 10 25 26 25zm435 482c-50 32-95 47-138 47-105 0-178-78-178-184 0-133 106-238 222-238 56 0 95 16 141 49l19-26c-44-36-91-55-158-55-147 0-261 130-261 274 0 116 78 212 214 212 54 0 105-19 155-53zm142 71l38-270c16-116 103-177 179-177 78 0 134 53 117 171l-39 276h36l40-280c18-133-49-198-142-198-68 0-141 39-178 116l52-368h-36l-103 730zm0 0"/></svg>