<svg width="2308" height="1064.002" xmlns="http://www.w3.org/2000/svg"><path d="M11 76.002l251 704h25l187-631 188 631h26l253-704h-35l-229 637-189-637h-24l-189 634-226-634zm1009 704h36v-270c0-116 82-177 166-177 79 0 129 51 129 164v283h36v-286c0-129-63-192-157-192-74 0-145 40-174 115v-367h-36zm536 0v-470h-36v470h36zm-16-553c16 0 28-13 28-29 0-17-12-29-28-29-17 0-29 12-29 29 0 16 12 29 29 29zm184 553v-730h-36v730zm331 8c79 0 147-39 193-112l-26-19c-36 59-96 99-167 99-107 0-178-86-182-202h389c0-3 1-9 1-14 0-141-81-238-211-238-118 0-215 99-215 244 0 139 88 242 218 242zm-181-265c9-111 83-189 178-189 101 0 168 76 173 189zm0 0"/></svg>