<svg width="2461" height="1064.002" xmlns="http://www.w3.org/2000/svg"><path d="M145 780.002h127l122-249 51 249h123l246-470H655l-124 238-49-238H367l-119 245-59-245H31zm824 0l37-261c9-65 48-87 81-87 31 0 56 22 48 75l-38 273h156l45-317c16-114-48-168-126-168-57 0-105 22-143 56l43-301H916l-103 730zm550 0c2-10 65-460 66-470h-156c-1 10-64 460-66 470h156zm2-532c57 0 100-49 101-105 0-46-32-80-86-80-58 0-99 48-99 105-1 46 32 80 84 80zm270 532l103-730h-156l-103 730zm130-200c0 128 89 216 238 216 87 0 146-28 202-73l-74-105c-45 35-83 49-120 49-46 0-78-27-89-71h325c7-25 14-55 14-86 0-121-74-216-218-216-162 0-278 130-278 286zm168-93c21-44 61-70 103-70 44 0 69 26 74 70zm0 0"/></svg>