<svg width="2814" height="1064.002" xmlns="http://www.w3.org/2000/svg"><path d="M185 780.002h131l85-246 85 246h127l180-470H630l-89 233-81-233H342l-81 233-89-233H5zm673 0h160v-261c0-63 34-84 66-84 29 0 56 22 56 72v273h160v-319c0-114-72-167-151-167-45 0-93 17-131 51v-295H858zm1064-237c0-139-112-249-261-249s-261 114-261 253 112 249 261 249 261-114 261-253zm-160 4c0 58-41 103-101 103s-101-49-101-107 41-103 101-103 101 49 101 107zm420 233v-730h-160v730zm361 16c87 0 147-34 197-78l-85-101c-41 35-76 47-112 47-45 0-79-25-96-66h323c0-4 4-35 4-53 0-139-91-251-241-251-143 0-251 114-251 253 0 148 98 249 261 249zm-98-310c15-42 48-66 88-66 43 0 69 24 80 66zm0 0"/></svg>