<svg width="3090" height="1064.002" xmlns="http://www.w3.org/2000/svg"><path d="M143 780.002h24l184-403 73 403h23l232-470h-36l-197 405-72-405h-25l-186 407-91-407H35zm585 0c2-14 64-456 66-470h-36c-2 14-64 456-66 470h36zm61-553c18 0 32-15 32-33 0-14-10-25-26-25-18 0-32 14-32 33 0 14 10 25 26 25zm394 128c-45-37-87-53-131-53-85 0-148 55-148 130 0 138 210 107 210 225 0 63-54 100-115 100-46 0-85-18-131-58l-21 23c46 41 91 66 152 66 84 0 150-54 150-134 0-141-209-111-209-226 0-57 47-96 110-96 36 0 74 15 113 46zm495 425l103-730h-36l-56 393c-22-80-86-141-180-141-142 0-257 123-257 275 0 120 77 211 194 211 88 0 167-50 213-129l-17 121zm-389-207c0-132 101-240 221-240 103 0 169 84 169 186 0 125-103 238-225 238-101 0-165-80-165-184zm1013-62c0-116-79-209-215-209-149 0-266 126-266 273 0 117 81 213 217 213 150 0 264-135 264-277zm-36 3c0 126-104 242-227 242-110 0-181-80-181-184 0-131 105-238 228-238 110 0 180 79 180 180zm149 266l39-278c15-109 90-169 158-169 71 0 114 49 100 150l-41 297h35l39-278h1c19-115 94-170 158-170 73 0 114 50 100 151l-42 297h36l42-300c17-123-40-178-124-178-64 0-129 38-167 110-9-75-58-110-125-110-58 0-121 35-159 105l13-97h-33l-66 470zm0 0"/></svg>