<svg width="3518" height="1064.002" xmlns="http://www.w3.org/2000/svg"><path d="M185 780.002h131l85-246 85 246h127l180-470H630l-89 233-81-233H342l-81 233-89-233H5zm833 0v-470H858v470h160zm-79-530c53 0 94-42 94-95s-41-94-94-94-95 41-95 94 42 95 95 95zm539 103c-47-34-107-59-178-59-72 0-174 45-174 152 0 153 192 139 192 194 0 13-12 23-28 23-43 0-74-23-119-56l-73 109c49 39 112 80 202 80 106 0 178-72 178-156 0-156-192-146-192-193 0-13 10-20 30-20 26 0 51 8 86 34zm298 443c55 0 99-20 131-53v37h160v-730h-160v297c-32-33-76-53-131-53-132 0-233 112-233 251s101 251 233 251zm-73-251c0-58 47-105 105-105 59 0 105 47 105 105s-46 105-105 105c-58 0-105-47-105-105zm981-2c0-139-112-249-261-249s-261 114-261 253 112 249 261 249 261-114 261-253zm-160 4c0 58-41 103-101 103s-101-49-101-107 41-103 101-103 101 49 101 107zm260 233h160v-293c0-35 28-54 52-54 22 0 45 15 45 49v298h160v-293c0-35 28-54 52-54 22 0 45 15 45 49v298h160v-319c0-114-72-167-149-167-47 0-98 20-136 58-26-39-66-58-108-58s-86 19-121 54v-38h-160zm0 0"/></svg>