<svg width="3010" height="1064.002" xmlns="http://www.w3.org/2000/svg"><path d="M157 780.002h9l160-452 160 452h8l134-470h-10l-128 452-160-452h-7l-161 454-140-454H12zm566 0v-470h-10v470h10zm-5-555c8 0 14-6 14-14s-6-14-14-14-14 6-14 14 6 14 14 14zm377 123c-42-30-80-42-121-42-66 0-122 45-122 108 0 150 247 105 247 252 0 81-70 109-127 109s-98-24-138-52l-6 7c41 30 87 54 144 54 61 0 137-30 137-118 0-156-247-109-247-252 0-62 56-99 112-99 37 0 74 12 115 40zm322 436c102 0 186-71 214-168v164h10v-730h-10v424c-28-97-112-168-214-168-125 0-216 107-216 239s91 239 216 239zm-206-239c0-127 86-230 206-230 113 0 204 91 214 208 1 7 1 14 1 22s0 15-1 22c-10 117-101 208-214 208-120 0-206-103-206-230zm1009 0c0-129-94-239-230-239-139 0-233 107-233 239 0 129 94 239 233 239 136 0 230-107 230-239zm-10 0c0 125-93 230-220 230-130 0-223-107-223-230 0-125 93-230 223-230 127 0 220 107 220 230zm126 235h10v-274c0-122 74-191 153-191 85 0 137 55 137 171v294h10v-274c0-122 74-191 153-191 85 0 137 55 137 171v294h10v-294c0-126-62-180-147-180-66 0-135 48-155 142-12-99-69-142-145-142-64 0-131 45-153 133v-129h-10zm0 0"/></svg>