<svg width="1666" height="1064.002" xmlns="http://www.w3.org/2000/svg"><path d="M148 780.002h36l171-368 68 368h34l242-470h-55l-187 371-68-371h-38l-173 373-87-373H34zm616 0c3-17 64-453 66-470h-54c-3 17-64 453-66 470h54zm53-552c25 0 44-20 44-45 0-20-14-34-36-34-25 0-45 19-45 44 0 20 15 35 37 35zm163 132l-43 311c-11 78 32 119 94 119 33 0 61-11 93-29l-19-40c-22 13-44 21-66 21-31 0-55-21-48-71l44-311h136l6-50h-135l17-123h-55l-17 123h-67l-7 50zm272 420l38-267c16-111 95-166 165-166 69 0 122 47 107 155l-39 278h54l40-284c19-132-51-196-144-196-62 0-128 33-167 98l49-348h-54l-103 730zm0 0"/></svg>