<svg width="3930" height="1064.002" xmlns="http://www.w3.org/2000/svg"><path d="M218 780.002h56l249-538 95 538h57l348-704h-82l-269 550-98-550h-52l-254 552-117-552H67zm1210-265c0-122-83-219-224-219-157 0-279 128-279 279 0 122 84 219 225 219 157 0 278-128 278-279zm-82 7c0 108-88 200-194 200-87 0-144-69-144-155 0-107 88-199 193-199 88 0 145 69 145 154zm234 258l37-263c15-105 92-142 166-142l11-79c-58 0-115 24-156 71l8-57h-80l-66 470zm647 0l103-730h-80l-47 328c-36-50-93-82-166-82-141 0-263 121-263 282 0 125 83 216 209 216 65 0 125-27 172-71l-8 57zm-370-211c0-118 89-204 188-204 92 0 142 75 142 159 0 105-80 201-184 201-89 0-146-66-146-156zm584 211l83-585 396 585h58l99-704h-84l-78 555-375-555h-84l-99 704zm674-200c0 123 74 214 209 214 85 0 154-37 209-104l-56-47c-28 33-81 79-151 79-90 0-128-74-128-155h369c5-24 8-48 8-72 0-118-71-199-200-199-142 0-260 123-260 284zm94-81c25-80 93-131 166-131s117 48 117 131zm500-116l-39 277c-12 87 38 134 112 134 35 0 66-11 101-28l-27-60c-21 11-43 17-61 17-31 0-51-19-45-63l39-277h131l10-73h-131l17-120h-80l-17 120h-70l-10 73zm0 0"/></svg>