<svg width="3011" height="1064.002" xmlns="http://www.w3.org/2000/svg"><path d="M182 780.002h35l127-369 127 369h34l169-470h-54l-128 372-128-372h-37l-128 373-132-373H10zm1001-235c0-134-101-245-242-245-142 0-243 110-243 245 0 134 101 245 243 245 141 0 242-110 242-245zm-55 0c0 107-79 196-187 196s-187-90-187-196c0-107 79-196 187-196s187 89 187 196zm166 235h54v-262c0-123 73-165 148-165v-53c-63 0-117 33-148 95v-85h-54zm282-730v730h54v-244l233 244h70l-254-266 221-204h-69l-201 187v-447zm377 496c0 138 90 244 224 244 82 0 150-39 197-108l-40-31c-31 48-86 90-157 90-97 0-162-80-168-182h381v-17c0-143-82-242-216-242-122 0-221 101-221 246zm58-33c12-97 79-164 163-164 90 0 149 66 158 164zm695 277c79 0 149-45 186-111v101h54v-730h-54v361c-37-66-107-111-186-111-127 0-227 105-227 245s100 245 227 245zm-171-246c0-113 76-197 182-197 108 0 179 99 179 200 0 102-71 196-179 196-106 0-182-86-182-199zm0 0"/></svg>