<svg width="2578" height="1064.002" xmlns="http://www.w3.org/2000/svg"><path d="M172 780.002h24l140-404 141 404h23l155-470h-36l-128 406-141-406h-25l-142 407-135-407H11zm984-235c0-132-98-243-237-243-141 0-239 109-239 243 0 132 98 243 239 243 139 0 237-109 237-243zm-37 0c0 115-84 211-200 211-118 0-203-98-203-211 0-115 85-211 203-211 116 0 200 97 200 211zm150 235h36v-261c0-136 74-182 149-182v-35c-70 0-123 40-149 110v-102h-36zm295 0v-730h-36v730zm335 8c89 0 165-56 198-136v128h36v-730h-36v388c-33-80-109-136-198-136-126 0-222 107-222 243s96 243 222 243zm-186-244c0-119 80-211 193-211 115 0 194 104 194 213s-79 211-194 211c-113 0-193-94-193-213zm809-194c-41-31-83-48-128-48-65 0-133 43-133 118 0 154 239 111 239 242 0 68-58 95-110 95-53 0-96-24-134-54l-19 24c39 31 89 61 153 61 68 0 145-38 145-126 0-160-239-115-239-242 0-55 49-88 98-88 34 0 69 12 109 42zm0 0"/></svg>