<svg width="2887" height="1064.002" xmlns="http://www.w3.org/2000/svg"><path d="M151 780.002h83l140-291 57 291h80l252-470H650l-153 289-57-289h-80l-140 292-73-292H32zm1107-268c0-122-87-217-230-217-161 0-283 129-283 280 0 123 88 220 231 220 162 0 282-133 282-283zm-114 15c0 90-73 166-163 166-74 0-121-58-121-130 0-90 73-166 162-166 75 0 122 58 122 130zm295 253l34-238c16-108 88-143 168-143l15-104c-59 0-115 22-158 66l7-51h-112l-66 470zm329 0l103-730h-112l-103 730zm605 0l102-730h-112l-45 318c-33-44-85-73-153-73-146 0-262 124-262 283 0 124 83 217 205 217 62 0 117-25 159-64l-6 49zm-355-216c0-96 76-169 161-169 76 0 122 61 122 132 0 89-72 168-160 168-74 0-123-56-123-131zm851-208c-46-39-95-61-154-61-91 0-177 59-177 157 0 137 185 116 185 192 0 36-34 57-68 57-45 0-83-22-117-55l-63 74c35 34 90 75 181 75 105 0 179-70 179-163 0-140-184-119-184-193 0-31 27-50 61-50 29 0 61 11 94 38zm0 0"/></svg>