<svg width="2587" height="1064.002" xmlns="http://www.w3.org/2000/svg"><path d="M143 780.002h24l184-403 73 403h23l232-470h-36l-197 405-72-405h-25l-186 407-91-407H35zm1006-269c0-116-79-209-215-209-149 0-266 126-266 273 0 117 81 213 217 213 150 0 264-135 264-277zm-36 3c0 126-104 242-227 242-110 0-181-80-181-184 0-131 105-238 228-238 110 0 180 79 180 180zm149 266l38-270c18-127 104-173 179-173l6-35c-77 0-139 43-172 111l15-103h-36l-66 470zm266 0l103-730h-36l-103 730zm569 0l103-730h-36l-56 393c-22-80-86-141-180-141-142 0-257 123-257 275 0 120 77 211 194 211 88 0 167-50 213-129l-17 121zm-389-207c0-132 101-240 221-240 103 0 169 84 169 186 0 125-103 238-225 238-101 0-165-80-165-184zm844-218c-45-37-87-53-131-53-85 0-148 55-148 130 0 138 210 107 210 225 0 63-54 100-115 100-46 0-85-18-131-58l-21 23c46 41 91 66 152 66 84 0 150-54 150-134 0-141-209-111-209-226 0-57 47-96 110-96 36 0 74 15 113 46zm0 0"/></svg>