<svg width="1142" height="1064.002" xmlns="http://www.w3.org/2000/svg"><path d="M45 1014.002l398-704h-11l-256 453-128-453H38l131 464-134 240zm579-230c73 0 134-28 197-100l-7-6c-63 72-122 97-190 97-103 0-180-72-180-199 0-10 0-20 1-30h402c2-15 3-30 3-45 0-112-65-195-185-195-122 0-231 112-231 270 0 129 78 208 190 208zm41-469c125 0 188 95 173 222H446c17-136 117-222 219-222zm322 4l-52 371c-9 62 21 94 64 94 30 0 53-11 78-31l-5-7c-22 17-45 29-73 29-32 0-63-23-54-85l52-371h144l1-9H998l18-127h-10l-18 127h-62l-1 9zm0 0"/></svg>