<svg width="4000" height="100" xmlns="http://www.w3.org/2000/svg"><path d="M3928.67 65.81c-2.48 1.14-7.33 2.57-11.14 2.57-5.71 0-7.24-3.81-7.24-8 0-.86.1-2.19.29-3.14l18.1-4.29zm16.85 3.33v-1.33c-2.76-.67-4.67-1.71-5.9-2.95-2.29-2.29-2.38-5.81-2.38-12.86V36.19c0-7.14-6.19-11.24-12.86-11.24-8.19 0-16.95 4.1-23.05 7.43l4.29 13.14h1.52l5.24-14.1c8.21 0 12 .29 14.57 2.86 1.33 1.33 1.71 3.14 1.71 5.62v7.14l-6.86 1.81c-7.52 2-14.29 4.38-17.14 7.24-2.29 2.29-3.14 4.95-3.14 7.81 0 6.48 5.33 11.33 12.67 11.33 5.52 0 10.29-2.48 14.48-5.05l.19 5.14zM3918.38 20l14-15.05L3922.09 0l-1.24.76-3.52 18.67zm-47.33 45.9l3.14-.1-12.57-27.81-3.05-11.71h-12.48v2.38c2.76 3.52 4.48 5.9 7.62 12.57l16 34h2.48l17.43-37.62 5.9-9.71-.48-1.62h-11.33c-.19 8.76-2.29 17.43-7.71 29.05zm-74.1-13.23c0-15.43 11.81-27.71 25.52-27.71 12.76 0 19.9 10.76 19.9 22.57 0 15.43-11.81 27.71-25.52 27.71-12.76 0-19.9-10.76-19.9-22.57zm36.67-.67c0-6.92-1.36-12.79-4.57-16-3.06-3.06-6.57-4.19-10.19-4.19-4.19 0-6.86 1.05-8.95 3.14-2.76 2.76-4.19 7.24-4.19 13.24 0 6.92 1.36 12.79 4.57 16 3.06 3.06 6.57 4.19 10.19 4.19 4.19 0 6.86-1.05 8.95-3.14 2.76-2.76 4.19-7.24 4.19-13.24zm-55.24 11.05c0 2.19-.57 3.62-1.81 4.86-1.43 1.43-3.33 2.29-6.67 2.29-2.57 0-5.62-.48-8.29-1.62l-3.9-10.48h-1.52l-5.05 15.33c5.14 1.24 9.81 1.81 14.67 1.81 11.52 0 21.43-5.43 21.43-15.05 0-4.1-1.71-6.76-3.52-8.57-5.14-5.14-17.05-7.24-20-10.19-1.33-1.33-2.29-2.76-2.29-5.05 0-1.81.57-3.05 1.71-4.19 1.24-1.24 2.67-2.19 5.33-2.19 2.38 0 5.24.57 7.81 1.62l3.9 10.1h1.52l5.05-14.95c-4.95-1.24-9.52-1.81-14.19-1.81-10.67 0-19.81 4.95-19.81 14.48 0 3.9 1.33 6.29 2.95 7.9 4.95 4.95 16.86 6.86 20.19 10.19 1.62 1.62 2.48 3.14 2.48 5.52zm-8.86-42.48l-15.81-16.38.95-1.24 16.57 7.52 14.67-7.52.95 1.24-15.81 16.38zm-68.09 58.38l-4.67 20c2.76.67 5.14 1.05 7.52 1.05 10.86 0 17.62-9.81 20.29-20.76l2.95-12.1-3.24 9.81 18.19-39.33 5.9-9.71-.48-1.62h-11.33c-.19 8.76-2.29 17.43-7.71 29.05l-4.95 10.57 3.14-.1L3714.47 38l-3.05-11.71h-12.48v2.38c2.76 3.52 4.48 5.9 7.62 12.57l16.19 34.29-.57-7.52-2.57 10.48c-1.62 6.67-5.05 12.67-13.43 12.67l-3.43-12.19zm-22.48-70.47h-1.52l-10.1 19.71v1.43c4.48 1.43 5.24 4.29 5.24 11.05v25.24c0 6.38 3.71 9.33 8 9.33 5.14 0 11.43-2.76 16.29-4.95v-1.62l-15.71-2.76V32.48h15.33v-6.19h-15.33zm-46.85 60.38l-7.71 2.95v2.1h24v-2.38c-2.57-.48-4.29-1.33-5.52-2.57-1.62-1.62-2.19-4.29-2.19-16.67V50c0-6.67 1.24-10.57 3.71-13.05 1.71-1.71 3.99-2.76 6.86-2.76l4.48 11.43h1.52l4.95-18.95c-2.19-1.24-3.9-1.71-6.48-1.71-4.07 0-7.9 2.1-10.86 5.05-1.71 1.71-3.24 4.48-4.19 8.29V24.97l-16 6.19v1.43c2.38.48 4 .95 5.24 2.19 1.9 1.9 2.19 5.62 2.19 10.76zm-29.05-3.05c-2.48 1.14-7.33 2.57-11.14 2.57-5.71 0-7.24-3.81-7.24-8 0-.86.1-2.19.29-3.14l18.1-4.29zm16.85 3.33v-1.33c-2.76-.67-4.67-1.71-5.9-2.95-2.29-2.29-2.38-5.81-2.38-12.86V36.19c0-7.14-6.19-11.24-12.86-11.24-8.19 0-16.95 4.1-23.05 7.43l4.29 13.14h1.52l5.24-14.1c8.21 0 12 .29 14.57 2.86 1.33 1.33 1.71 3.14 1.71 5.62v7.14l-6.86 1.81c-7.52 2-14.29 4.38-17.14 7.24-2.29 2.29-3.14 4.95-3.14 7.81 0 6.48 5.33 11.33 12.67 11.33 5.52 0 10.29-2.48 14.48-5.05l.19 5.14zM3541.43 12c10.29 0 16.48 5.24 16.48 16.19 0 5.62-1.24 9.81-3.9 12.48-2.48 2.48-6.29 3.62-11.52 4l-9.43.67V12.01zm-.67 61.9v-2.38c-2.57-.48-4.29-1.33-5.52-2.57-1.62-1.62-2.19-4.29-2.19-16.67v-3.14l7.05.57c9.05.76 16-1.9 20.76-6.67 4.38-4.38 6.38-10.29 6.38-16.48 0-12.19-7.62-20.29-21.52-20.29h-29.33v2.38c2.57.48 4.29 1.33 5.52 2.57 1.62 1.62 2.19 4.29 2.19 16.67v40.95l-7.71 2.95v2.1zm-65.71-5.04l-7.71 2.95v2.1h24v-2.38c-2.57-.48-4.29-1.33-5.52-2.57-1.62-1.62-2.19-4.29-2.19-16.67V41.34l.95-16.38-16.95 6.19v1.43c2.38.67 4 1.71 5.05 2.95 2.19 2.48 2.38 5.81 2.38 10.95zm3.52-52.1c4 0 7.14-3.24 7.14-7.14 0-3.9-3.14-7.14-7.14-7.14-3.9 0-7.24 3.24-7.24 7.14 0 3.9 3.33 7.14 7.24 7.14zm-58.95 50.76c8.86 0 13.81-5.24 17.14-9.33l1.62.67c-2.48 8.76-10.19 16.38-21.05 16.38-8.38 0-19.71-6.57-19.71-22 0-18.57 14.1-28.29 24.38-28.29 9.9 0 16.1 7.52 16.1 18.76 0 1.9-.29 5.05-.76 8l-33.9-2.29v-3.05l26.1-2.1c0-5.81-2.48-12.19-11.43-12.19-2.86 0-5.52.57-7.71 2.76-2.76 2.76-4.19 7.71-4.19 14.67 0 11.81 5.43 18 13.43 18zM3417.05 20l14-15.05L3420.76 0l-1.24.76-3.52 18.67zm-45.72 45.9l3.14-.1-12.57-27.81-3.05-11.71h-12.48v2.38c2.76 3.52 4.48 5.9 7.62 12.57l16 34h2.48l17.43-37.62 5.9-9.71-.48-1.62h-11.33c-.19 8.76-2.29 17.43-7.71 29.05zM3334 63.05c0 2.19-.57 3.62-1.81 4.86-1.43 1.43-3.33 2.29-6.67 2.29-2.57 0-5.62-.48-8.29-1.62l-3.9-10.48h-1.52l-5.05 15.33c5.14 1.24 9.81 1.81 14.67 1.81 11.52 0 21.43-5.43 21.43-15.05 0-4.1-1.71-6.76-3.52-8.57-5.14-5.14-17.05-7.24-20-10.19-1.33-1.33-2.29-2.76-2.29-5.05 0-1.81.57-3.05 1.71-4.19 1.24-1.24 2.67-2.19 5.33-2.19 2.38 0 5.24.57 7.81 1.62l3.9 10.1h1.52l5.05-14.95c-4.95-1.24-9.52-1.81-14.19-1.81-10.67 0-19.81 4.95-19.81 14.48 0 3.9 1.33 6.29 2.95 7.9 4.95 4.95 16.86 6.86 20.19 10.19 1.62 1.62 2.48 3.14 2.48 5.52zm-69.9 2.76c-2.48 1.14-7.33 2.57-11.14 2.57-5.71 0-7.24-3.81-7.24-8 0-.86.1-2.19.29-3.14l18.1-4.29zm16.85 3.33v-1.33c-2.76-.67-4.67-1.71-5.9-2.95-2.29-2.29-2.38-5.81-2.38-12.86V36.19c0-7.14-6.19-11.24-12.86-11.24-8.19 0-16.95 4.1-23.05 7.43l4.29 13.14h1.52l5.24-14.1c8.21 0 12 .29 14.57 2.86 1.33 1.33 1.71 3.14 1.71 5.62v7.14l-6.86 1.81c-7.52 2-14.29 4.38-17.14 7.24-2.29 2.29-3.14 4.95-3.14 7.81 0 6.48 5.33 11.33 12.67 11.33 5.52 0 10.29-2.48 14.48-5.05l.19 5.14zm-68.28-.28l-7.71 2.95v2.1h24v-2.38c-2.57-.48-4.29-1.33-5.52-2.57-1.62-1.62-2.19-4.29-2.19-16.67V22.96l.86-20.29-.95-.95-15.9 6.38v1.43c2.38.67 3.9 1.62 5.05 2.76 2 2 2.38 5.05 2.38 10.19zm-54.38 0l-7.71 2.95v2.1h24v-2.38c-2.57-.48-4.29-1.33-5.52-2.57-1.62-1.62-2.19-4.29-2.19-16.67v-2.48l8.48 2.1 9.71 17.62c2.48 4.57 4.95 5.71 8.19 5.71 3.05 0 6.1-1.33 9.81-4.86v-1.33l-10-2.67-11.33-20.19 19.33-18.57v-1.33h-14.48c-.95 6.86-3.9 12.1-6.86 15.05-2.95 2.95-7.24 4.48-12.86 5.52v-23.9l.86-20.29-.95-.95-15.9 6.38v1.43c2.38.67 3.9 1.62 5.05 2.76 2 2 2.38 5.05 2.38 10.19zm-33.62-1.34c8.86 0 13.81-5.24 17.14-9.33l1.62.67c-2.48 8.76-10.19 16.38-21.05 16.38-8.38 0-19.71-6.57-19.71-22 0-18.57 14.1-28.29 24.38-28.29 9.9 0 16.1 7.52 16.1 18.76 0 1.9-.29 5.05-.76 8l-33.9-2.29v-3.05l26.1-2.1c0-5.81-2.48-12.19-11.43-12.19-2.86 0-5.52.57-7.71 2.76-2.76 2.76-4.19 7.71-4.19 14.67 0 11.81 5.43 18 13.43 18zm-56.19 1.34l-7.71 2.95v2.1h24v-2.38c-2.57-.48-4.29-1.33-5.52-2.57-1.62-1.62-2.19-4.29-2.19-16.67V50c0-6.67 1.24-10.57 3.71-13.05 1.71-1.71 3.99-2.76 6.86-2.76l4.48 11.43h1.52l4.95-18.95c-2.19-1.24-3.9-1.71-6.48-1.71-4.07 0-7.9 2.1-10.86 5.05-1.71 1.71-3.24 4.48-4.19 8.29V24.97l-16 6.19v1.43c2.38.48 4 .95 5.24 2.19 1.9 1.9 2.19 5.62 2.19 10.76zm13.71-48.29l-15.81-16.38.95-1.24 16.57 7.52 14.67-7.52.95 1.24-15.81 16.38zm-63.52 45.24c-2.48 1.14-7.33 2.57-11.14 2.57-5.71 0-7.24-3.81-7.24-8 0-.86.1-2.19.29-3.14l18.1-4.29zm16.85 3.33v-1.33c-2.76-.67-4.67-1.71-5.9-2.95-2.29-2.29-2.38-5.81-2.38-12.86V36.19c0-7.14-6.19-11.24-12.86-11.24-8.19 0-16.95 4.1-23.05 7.43l4.29 13.14h1.52l5.24-14.1c8.21 0 12 .29 14.57 2.86 1.33 1.33 1.71 3.14 1.71 5.62v7.14l-6.86 1.81c-7.52 2-14.29 4.38-17.14 7.24-2.29 2.29-3.14 4.95-3.14 7.81 0 6.48 5.33 11.33 12.67 11.33 5.52 0 10.29-2.48 14.48-5.05l.19 5.14zm-80.95-.28l-7.71 2.95v2.1h24v-2.38c-2.57-.48-4.29-1.33-5.52-2.57-1.62-1.62-2.19-4.29-2.19-16.67V50c0-6.67 1.24-10.57 3.71-13.05 1.71-1.71 3.99-2.76 6.86-2.76l4.48 11.43h1.52l4.95-18.95c-2.19-1.24-3.9-1.71-6.48-1.71-4.07 0-7.9 2.1-10.86 5.05-1.71 1.71-3.24 4.48-4.19 8.29V24.97l-16 6.19v1.43c2.38.48 4 .95 5.24 2.19 1.9 1.9 2.19 5.62 2.19 10.76zm-34.67-1.34c8.86 0 13.81-5.24 17.14-9.33l1.62.67c-2.48 8.76-10.19 16.38-21.05 16.38-8.38 0-19.71-6.57-19.71-22 0-18.57 14.1-28.29 24.38-28.29 9.9 0 16.1 7.52 16.1 18.76 0 1.9-.29 5.05-.76 8l-33.9-2.29v-3.05l26.1-2.1c0-5.81-2.48-12.19-11.43-12.19-2.86 0-5.52.57-7.71 2.76-2.76 2.76-4.19 7.71-4.19 14.67 0 11.81 5.43 18 13.43 18zm-75.8-22v23.33l-7.71 2.95v2.1h24v-2.38c-2.57-.48-4.29-1.33-5.52-2.57-1.62-1.62-2.19-4.29-2.19-16.67V35.8c3.43-1.81 7.43-3.33 13.05-3.33 5.62 0 9.14 2.38 9.14 8.76v27.62l-7.71 2.95v2.1h24v-2.38c-2.57-.48-4.29-1.33-5.52-2.57-1.62-1.62-2.19-4.29-2.19-16.67V40.57c0-10.67-4.95-15.62-13.24-15.62-7.05 0-12.76 3.14-17.52 6.1v-6.1l-16 6.19v1.43c2.38.48 4 .95 5.24 2.19 1.9 1.9 2.19 5.62 2.19 10.76zm-30.77-37.04h-1.52l-10.1 19.71v1.43c4.48 1.43 5.24 4.29 5.24 11.05v25.24c0 6.38 3.71 9.33 8 9.33 5.14 0 11.43-2.76 16.29-4.95v-1.62l-15.71-2.76V32.48h15.33v-6.19h-15.33zm-46.85 60.38l-7.71 2.95v2.1h24v-2.38c-2.57-.48-4.29-1.33-5.52-2.57-1.62-1.62-2.19-4.29-2.19-16.67V50c0-6.67 1.24-10.57 3.71-13.05 1.71-1.71 3.99-2.76 6.86-2.76l4.48 11.43h1.52l4.95-18.95c-2.19-1.24-3.9-1.71-6.48-1.71-4.07 0-7.9 2.1-10.86 5.05-1.71 1.71-3.24 4.48-4.19 8.29V24.97l-16 6.19v1.43c2.38.48 4 .95 5.24 2.19 1.9 1.9 2.19 5.62 2.19 10.76zm-29.05-3.05c-2.48 1.14-7.33 2.57-11.14 2.57-5.71 0-7.24-3.81-7.24-8 0-.86.1-2.19.29-3.14l18.1-4.29zm16.86 3.33v-1.33c-2.76-.67-4.67-1.71-5.9-2.95-2.29-2.29-2.38-5.81-2.38-12.86V36.19c0-7.14-6.19-11.24-12.86-11.24-8.19 0-16.95 4.1-23.05 7.43l4.29 13.14h1.52l5.24-14.1c8.21 0 12 .29 14.57 2.86 1.33 1.33 1.71 3.14 1.71 5.62v7.14l-6.86 1.81c-7.52 2-14.29 4.38-17.14 7.24-2.29 2.29-3.14 4.95-3.14 7.81 0 6.48 5.33 11.33 12.67 11.33 5.52 0 10.29-2.48 14.48-5.05l.19 5.14zm-87.81-2.57c3.24.76 6.86 1.33 10.29 1.33 3.52 0 6.76-1.14 9.24-3.62 2.86-2.86 4.76-7.9 4.76-15.62 0-6.19-1.52-10.76-4.38-13.62-2.1-2.1-4.86-2.95-8.1-2.95-4.38 0-8.57 1.14-11.81 2.76zm0 4.48v6c0 12.38.57 15.05 2.19 16.67 1.24 1.24 2.95 2.1 5.52 2.57v2.38h-24v-2.1l7.71-2.95V48.19c0-7.05-.29-10.38-2.76-12.86-1.24-1.24-3.14-2.29-5.9-2.95v-1.43l17.05-6.95v6.19c3.71-2.67 8.57-5.24 15.14-5.24 10.67 0 18.1 8.1 18.1 20.1 0 9.62-3.43 16.57-8.19 21.33-6.29 6.29-14.95 8.86-22.38 8.86-2.95 0-5.81-.38-8.48-.95zm-39.24-1.53c2.67 4.29 5.33 5.71 8.57 5.71 3.05 0 6.76-2.1 9.52-4V69.9l-10.1-3.62-17.9-29.05-6.76-12.38-13.9 5.81v1.33c6.57 1.62 9.9 4 12.76 8.67zm-1.72-17.23l18.67-24.67v-1.33h-13.14c-.95 10.76-3.05 15.81-7.81 22.76zm-9.52-5.53l-18.67 25.81v1.33h13.14c.57-10 3.24-16.76 8.1-24.1zm-42 20.76c8.86 0 13.81-5.24 17.14-9.33l1.62.67c-2.48 8.76-10.19 16.38-21.05 16.38-8.38 0-19.71-6.57-19.71-22 0-18.57 14.1-28.29 24.38-28.29 9.9 0 16.1 7.52 16.1 18.76 0 1.9-.29 5.05-.76 8l-33.9-2.29v-3.05l26.1-2.1c0-5.81-2.48-12.19-11.43-12.19-2.86 0-5.52.57-7.71 2.76-2.76 2.76-4.19 7.71-4.19 14.67 0 11.81 5.43 18 13.43 18zm-94.76 11.43l-4.67 20c2.76.67 5.14 1.05 7.52 1.05 10.86 0 17.62-9.81 20.29-20.76l2.95-12.1-3.24 9.81 18.19-39.33 5.9-9.71-.48-1.62h-11.33c-.19 8.76-2.29 17.43-7.71 29.05l-4.95 10.57 3.14-.1L2492.28 38l-3.05-11.71h-12.48v2.38c2.76 3.52 4.48 5.9 7.62 12.57l16.19 34.29-.57-7.52-2.57 10.48c-1.62 6.67-5.05 12.67-13.43 12.67l-3.43-12.19zm-48.67-33.43v23.33l-7.71 2.95v2.1h24v-2.38c-2.57-.48-4.29-1.33-5.52-2.57-1.62-1.62-2.19-4.29-2.19-16.67V35.8c3.43-1.81 7.43-3.33 13.05-3.33 5.62 0 9.14 2.38 9.14 8.76v27.62l-7.71 2.95v2.1h24v-2.38c-2.57-.48-4.29-1.33-5.52-2.57-1.62-1.62-2.19-4.29-2.19-16.67V40.57c0-10.67-4.95-15.62-13.24-15.62-7.05 0-12.76 3.14-17.52 6.1v-6.1l-16 6.19v1.43c2.38.48 4 .95 5.24 2.19 1.9 1.9 2.19 5.62 2.19 10.76zm-29.05 20.29c-2.48 1.14-7.33 2.57-11.14 2.57-5.71 0-7.24-3.81-7.24-8 0-.86.1-2.19.29-3.14l18.1-4.29zm16.86 3.33v-1.33c-2.76-.67-4.67-1.71-5.9-2.95-2.29-2.29-2.38-5.81-2.38-12.86V36.19c0-7.14-6.19-11.24-12.86-11.24-8.19 0-16.95 4.1-23.05 7.43l4.29 13.14h1.52l5.24-14.1c8.21 0 12 .29 14.57 2.86 1.33 1.33 1.71 3.14 1.71 5.62v7.14l-6.86 1.81c-7.52 2-14.29 4.38-17.14 7.24-2.29 2.29-3.14 4.95-3.14 7.81 0 6.48 5.33 11.33 12.67 11.33 5.52 0 10.29-2.48 14.48-5.05l.19 5.14zm-80.95-.28l-7.71 2.95v2.1h24v-2.38c-2.57-.48-4.29-1.33-5.52-2.57-1.62-1.62-2.19-4.29-2.19-16.67V50c0-6.67 1.24-10.57 3.71-13.05 1.71-1.71 3.99-2.76 6.86-2.76l4.48 11.43h1.52l4.95-18.95c-2.19-1.24-3.9-1.71-6.48-1.71-4.07 0-7.9 2.1-10.86 5.05-1.71 1.71-3.24 4.48-4.19 8.29V24.97l-16 6.19v1.43c2.38.48 4 .95 5.24 2.19 1.9 1.9 2.19 5.62 2.19 10.76zm-30.76-60.38h-1.52l-10.1 19.71v1.43c4.48 1.43 5.24 4.29 5.24 11.05v25.24c0 6.38 3.71 9.33 8 9.33 5.14 0 11.43-2.76 16.29-4.95v-1.62l-15.71-2.76V32.48h15.33v-6.19h-15.33zm-29.34 54.57c0 2.19-.57 3.62-1.81 4.86-1.43 1.43-3.33 2.29-6.67 2.29-2.57 0-5.62-.48-8.29-1.62l-3.9-10.48h-1.52l-5.05 15.33c5.14 1.24 9.81 1.81 14.67 1.81 11.52 0 21.43-5.43 21.43-15.05 0-4.1-1.71-6.76-3.52-8.57-5.14-5.14-17.05-7.24-20-10.19-1.33-1.33-2.29-2.76-2.29-5.05 0-1.81.57-3.05 1.71-4.19 1.24-1.24 2.67-2.19 5.33-2.19 2.38 0 5.24.57 7.81 1.62l3.9 10.1h1.52l5.05-14.95c-4.95-1.24-9.52-1.81-14.19-1.81-10.67 0-19.81 4.95-19.81 14.48 0 3.9 1.33 6.29 2.95 7.9 4.95 4.95 16.86 6.86 20.19 10.19 1.62 1.62 2.48 3.14 2.48 5.52zm-75.52 4.47c8.86 0 13.81-5.24 17.14-9.33l1.62.67c-2.48 8.76-10.19 16.38-21.05 16.38-8.38 0-19.71-6.57-19.71-22 0-18.57 14.1-28.29 24.38-28.29 9.9 0 16.1 7.52 16.1 18.76 0 1.9-.29 5.05-.76 8l-33.9-2.29v-3.05l26.1-2.1c0-5.81-2.48-12.19-11.43-12.19-2.86 0-5.52.57-7.71 2.76-2.76 2.76-4.19 7.71-4.19 14.67 0 11.81 5.43 18 13.43 18zm-31.14-40l-27.14 41.05 17.9-1.71 5.62-9.62h1.33l3.81 16.67h-40.67l-.95-1.24 27.14-41.33-16.67 2-5.62 9.62h-1.33l-3.81-16.67h39.43zm-88.67 40c8.86 0 13.81-5.24 17.14-9.33l1.62.67c-2.48 8.76-10.19 16.38-21.05 16.38-8.38 0-19.71-6.57-19.71-22 0-18.57 14.1-28.29 24.38-28.29 9.9 0 16.1 7.52 16.1 18.76 0 1.9-.29 5.05-.76 8l-33.9-2.29v-3.05l26.1-2.1c0-5.81-2.48-12.19-11.43-12.19-2.86 0-5.52.57-7.71 2.76-2.76 2.76-4.19 7.71-4.19 14.67 0 11.81 5.43 18 13.43 18zm-.95-46.95l-15.81-16.38.95-1.24 16.57 7.52 14.67-7.52.95 1.24-15.81 16.38zm-64 46c3.24.76 6.86 1.33 10.29 1.33 3.52 0 6.76-1.14 9.24-3.62 2.86-2.86 4.76-7.9 4.76-15.62 0-6.19-1.52-10.76-4.38-13.62-2.1-2.1-4.86-2.95-8.1-2.95-4.38 0-8.57 1.14-11.81 2.76zm0 4.48v6c0 12.38.57 15.05 2.19 16.67 1.24 1.24 2.95 2.1 5.52 2.57v2.38h-24v-2.1l7.71-2.95V48.19c0-7.05-.29-10.38-2.76-12.86-1.24-1.24-3.14-2.29-5.9-2.95v-1.43l17.05-6.95v6.19c3.71-2.67 8.57-5.24 15.14-5.24 10.67 0 18.1 8.1 18.1 20.1 0 9.62-3.43 16.57-8.19 21.33-6.29 6.29-14.95 8.86-22.38 8.86-2.95 0-5.81-.38-8.48-.95zm-29.72-29.72V52c0 7.05.1 10.57 2.38 12.86 1.24 1.24 3.14 2.29 5.9 2.95v1.33l-16.86 6.19v-6.19c-4.38 3.14-10.95 6.1-17.81 6.1-7.52 0-12.19-4.86-12.19-13.62V48.38c0-7.05.1-10.57-2.19-12.86-1.14-1.14-2.57-2.38-4.95-2.95v-1.43l16.67-6.19-.95 16.38v16.29c0 6.76 2.67 10.1 8.86 10.1 5.71 0 9.71-1.43 12.57-3.05V47.15c0-7.05-.29-9.14-2.76-11.62-1.24-1.24-3.14-2.29-5.9-2.95v-1.43l18.19-6.19zm-67.9-32.85h-1.52l-10.1 19.71v1.43c4.48 1.43 5.24 4.29 5.24 11.05v25.24c0 6.38 3.71 9.33 8 9.33 5.14 0 11.43-2.76 16.29-4.95v-1.62l-15.71-2.76V32.48h15.33v-6.19h-15.33zm-66.1 44.19c0-15.43 11.81-27.71 25.52-27.71 12.76 0 19.9 10.76 19.9 22.57 0 15.43-11.81 27.71-25.52 27.71-12.76 0-19.9-10.76-19.9-22.57zM1890 52c0-6.92-1.36-12.79-4.57-16-3.06-3.06-6.57-4.19-10.19-4.19-4.19 0-6.86 1.05-8.95 3.14-2.76 2.76-4.19 7.24-4.19 13.24 0 6.92 1.36 12.79 4.57 16 3.06 3.06 6.57 4.19 10.19 4.19 4.19 0 6.86-1.05 8.95-3.14C1888.57 62.48 1890 58 1890 52zm-79.62 14.57c3.24.76 6.86 1.33 10.29 1.33 3.52 0 6.76-1.14 9.24-3.62 2.86-2.86 4.76-7.9 4.76-15.62 0-6.19-1.52-10.76-4.38-13.62-2.1-2.1-4.86-2.95-8.1-2.95-4.38 0-8.57 1.14-11.81 2.76zm0 4.48v6c0 12.38.57 15.05 2.19 16.67 1.24 1.24 2.95 2.1 5.52 2.57v2.38h-24v-2.1l7.71-2.95V48.19c0-7.05-.29-10.38-2.76-12.86-1.24-1.24-3.14-2.29-5.9-2.95v-1.43l17.05-6.95v6.19c3.71-2.67 8.57-5.24 15.14-5.24 10.67 0 18.1 8.1 18.1 20.1 0 9.62-3.43 16.57-8.19 21.33-6.29 6.29-14.95 8.86-22.38 8.86-2.95 0-5.81-.38-8.48-.95zm-90.67-18.38c0-15.43 11.81-27.71 25.52-27.71 12.76 0 19.9 10.76 19.9 22.57 0 15.43-11.81 27.71-25.52 27.71-12.76 0-19.9-10.76-19.9-22.57zm36.67-.67c0-6.92-1.36-12.79-4.57-16-3.06-3.06-6.57-4.19-10.19-4.19-4.19 0-6.86 1.05-8.95 3.14-2.76 2.76-4.19 7.24-4.19 13.24 0 6.92 1.36 12.79 4.57 16 3.06 3.06 6.57 4.19 10.19 4.19 4.19 0 6.86-1.05 8.95-3.14 2.76-2.76 4.19-7.24 4.19-13.24zm-65.52-40c10.29 0 16.48 5.24 16.48 16.19 0 5.62-1.24 9.81-3.9 12.48-2.48 2.48-6.29 3.62-11.52 4l-9.43.67V12.01zm-.67 61.9v-2.38c-2.57-.48-4.29-1.33-5.52-2.57-1.62-1.62-2.19-4.29-2.19-16.67v-3.14l7.05.57c9.05.76 16-1.9 20.76-6.67 4.38-4.38 6.38-10.29 6.38-16.48 0-12.19-7.62-20.29-21.52-20.29h-29.33v2.38c2.57.48 4.29 1.33 5.52 2.57 1.62 1.62 2.19 4.29 2.19 16.67v40.95l-7.71 2.95v2.1zm-68.09-22.38l4.29-17.14c10.19-6.95 15.9-13.43 15.9-19.33 0-5.62-4.48-10.1-15.52-10.1-6.95 0-14.86 2.29-21.14 3.62l4.48 17.14h1.52l5.43-14.76c10.29.38 12.67 1.24 14.76 3.33 1.05 1.05 1.52 2.29 1.52 4 0 5.62-5.9 10.29-17.14 16.57l4.38 16.67zm-.58 23.72c3.81 0 6.67-3.05 6.67-6.67s-2.86-6.67-6.67-6.67c-3.71 0-6.67 3.05-6.67 6.67s2.95 6.67 6.67 6.67zm-33.42-6.38l-7.71 2.95v2.1h24v-2.38c-2.57-.48-4.29-1.33-5.52-2.57-1.62-1.62-2.19-4.29-2.19-16.67V40.58c0-10.67-4.38-15.62-12.86-15.62-7.14 0-13.14 3.14-17.9 6.1v-8.1l.86-20.29-.95-.95-15.9 6.38v1.43c2.38.67 3.9 1.62 5.05 2.76 2 2 2.38 5.05 2.38 10.19v46.38l-7.71 2.95v2.1h24v-2.38c-2.57-.48-4.29-1.33-5.52-2.57-1.62-1.62-2.19-4.29-2.19-16.67V35.81c3.43-1.81 7.43-3.24 13.05-3.24 5.62 0 9.14 3.71 9.14 12zm-58.77-3.05c-2.48 1.14-7.33 2.57-11.14 2.57-5.71 0-7.24-3.81-7.24-8 0-.86.1-2.19.29-3.14l18.1-4.29zm16.86 3.33v-1.33c-2.76-.67-4.67-1.71-5.9-2.95-2.29-2.29-2.38-5.81-2.38-12.86V36.19c0-7.14-6.19-11.24-12.86-11.24-8.19 0-16.95 4.1-23.05 7.43l4.29 13.14h1.52l5.24-14.1c8.21 0 12 .29 14.57 2.86 1.33 1.33 1.71 3.14 1.71 5.62v7.14l-6.86 1.81c-7.52 2-14.29 4.38-17.14 7.24-2.29 2.29-3.14 4.95-3.14 7.81 0 6.48 5.33 11.33 12.67 11.33 5.52 0 10.29-2.48 14.48-5.05l.19 5.14zm-69.62-60.66h-1.52l-10.1 19.71v1.43c4.48 1.43 5.24 4.29 5.24 11.05v25.24c0 6.38 3.71 9.33 8 9.33 5.14 0 11.43-2.76 16.29-4.95v-1.62l-15.71-2.76V32.48h15.33v-6.19h-15.33zm-19.9 19.04l-27.14 41.05 17.9-1.71 5.62-9.62h1.33l3.81 16.67h-40.67l-.95-1.24 27.14-41.33-16.67 2-5.62 9.62h-1.33l-3.81-16.67h39.43zm-68.86 38.38l3.14-.1-12.57-27.81-3.05-11.71h-12.48v2.38c2.76 3.52 4.48 5.9 7.62 12.57l16 34h2.48l17.43-37.62 5.9-9.71-.48-1.62h-11.33c-.19 8.76-2.29 17.43-7.71 29.05zm-64 2.96l-7.71 2.95v2.1h24v-2.38c-2.57-.48-4.29-1.33-5.52-2.57-1.62-1.62-2.19-4.29-2.19-16.67V41.34l.95-16.38-16.95 6.19v1.43c2.38.67 4 1.71 5.05 2.95 2.19 2.48 2.38 5.81 2.38 10.95zm1.14-48.86l14-15.05L1328.66 0l-1.24.76-3.52 18.67zM1264 45.52v23.33l-7.71 2.95v2.1h24v-2.38c-2.57-.48-4.29-1.33-5.52-2.57-1.62-1.62-2.19-4.29-2.19-16.67V35.8c3.43-1.81 7.43-3.33 13.05-3.33 5.62 0 9.14 2.38 9.14 8.76v27.62l-7.71 2.95v2.1h24v-2.38c-2.57-.48-4.29-1.33-5.52-2.57-1.62-1.62-2.19-4.29-2.19-16.67V40.57c0-10.67-4.95-15.62-13.24-15.62-7.05 0-12.76 3.14-17.52 6.1v-6.1l-16 6.19v1.43c2.38.48 4 .95 5.24 2.19 1.9 1.9 2.19 5.62 2.19 10.76zm-15.14-18l-27.14 41.05 17.9-1.71 5.62-9.62h1.33l3.81 16.67h-40.67l-.95-1.24 27.14-41.33-16.67 2-5.62 9.62h-1.33l-3.81-16.67h39.43zm-94.57 25.15c0-15.43 11.81-27.71 25.52-27.71 12.76 0 19.9 10.76 19.9 22.57 0 15.43-11.81 27.71-25.52 27.71-12.76 0-19.9-10.76-19.9-22.57zm36.66-.67c0-6.92-1.36-12.79-4.57-16-3.06-3.06-6.57-4.19-10.19-4.19-4.19 0-6.86 1.05-8.95 3.14-2.76 2.76-4.19 7.24-4.19 13.24 0 6.92 1.36 12.79 4.57 16 3.06 3.06 6.57 4.19 10.19 4.19 4.19 0 6.86-1.05 8.95-3.14 2.76-2.76 4.19-7.24 4.19-13.24zm-16.66-32l14-15.05L1178 0l-1.24.76-3.52 18.67zm-43.05 48.86l-7.71 2.95v2.1h24v-2.38c-2.57-.48-4.29-1.33-5.52-2.57-1.62-1.62-2.19-4.29-2.19-16.67V41.34l.95-16.38-16.95 6.19v1.43c2.38.67 4 1.71 5.05 2.95 2.19 2.48 2.38 5.81 2.38 10.95zm3.52-52.1c4 0 7.14-3.24 7.14-7.14 0-3.9-3.14-7.14-7.14-7.14-3.9 0-7.24 3.24-7.24 7.14 0 3.9 3.33 7.14 7.24 7.14zm-45.62 52.1l-7.71 2.95v2.1h24v-2.38c-2.57-.48-4.29-1.33-5.52-2.57-1.62-1.62-2.19-4.29-2.19-16.67V50c0-6.67 1.24-10.57 3.71-13.05 1.71-1.71 3.99-2.76 6.86-2.76l4.48 11.43h1.52l4.95-18.95c-2.19-1.24-3.9-1.71-6.48-1.71-4.07 0-7.9 2.1-10.86 5.05-1.71 1.71-3.24 4.48-4.19 8.29V24.97l-16 6.19v1.43c2.38.48 4 .95 5.24 2.19 1.9 1.9 2.19 5.62 2.19 10.76zm-34.66-1.34c8.86 0 13.81-5.24 17.14-9.33l1.62.67c-2.48 8.76-10.19 16.38-21.05 16.38-8.38 0-19.71-6.57-19.71-22 0-18.57 14.1-28.29 24.38-28.29 9.9 0 16.1 7.52 16.1 18.76 0 1.9-.29 5.05-.76 8l-33.9-2.29v-3.05l26.1-2.1c0-5.81-2.48-12.19-11.43-12.19-2.86 0-5.52.57-7.71 2.76-2.76 2.76-4.19 7.71-4.19 14.67 0 11.81 5.43 18 13.43 18zm-40.58-4.47c0 2.19-.57 3.62-1.81 4.86-1.43 1.43-3.33 2.29-6.67 2.29-2.57 0-5.62-.48-8.29-1.62l-3.9-10.48h-1.52l-5.05 15.33c5.14 1.24 9.81 1.81 14.67 1.81 11.52 0 21.43-5.43 21.43-15.05 0-4.1-1.71-6.76-3.52-8.57-5.14-5.14-17.05-7.24-20-10.19-1.33-1.33-2.29-2.76-2.29-5.05 0-1.81.57-3.05 1.71-4.19 1.24-1.24 2.67-2.19 5.33-2.19 2.38 0 5.24.57 7.81 1.62l3.9 10.1h1.52l5.05-14.95c-4.95-1.24-9.52-1.81-14.19-1.81-10.67 0-19.81 4.95-19.81 14.48 0 3.9 1.33 6.29 2.95 7.9 4.95 4.95 16.86 6.86 20.19 10.19 1.62 1.62 2.48 3.14 2.48 5.52zM911.71 52.67c0-15.43 11.81-27.71 25.52-27.71 12.76 0 19.9 10.76 19.9 22.57 0 15.43-11.81 27.71-25.52 27.71-12.76 0-19.9-10.76-19.9-22.57zm36.67-.67c0-6.92-1.36-12.79-4.57-16-3.06-3.06-6.57-4.19-10.19-4.19-4.19 0-6.86 1.05-8.95 3.14-2.76 2.76-4.19 7.24-4.19 13.24 0 6.92 1.36 12.79 4.57 16 3.06 3.06 6.57 4.19 10.19 4.19 4.19 0 6.86-1.05 8.95-3.14 2.76-2.76 4.19-7.24 4.19-13.24zM872.1 75.24c7.43 0 15.24-2.57 21.52-8.86 4.76-4.76 8.19-11.71 8.19-21.33 0-12-7.43-20.1-18.1-20.1-6.57 0-11.43 2.57-15.14 5.24v-7.24l.86-20.29-.95-.95-15.71 6.38v1.43c2.38.67 3.9 1.62 5.05 2.76 2 2 2.38 5.05 2.38 10.19V65.8l-7.52 3.52v1.33c6 2.86 12.67 4.57 19.43 4.57zm-3.34-8.1V34.85c3.24-1.62 7.43-2.76 11.81-2.76 3.24 0 6 .86 8.1 2.95 2.86 2.86 4.38 7.43 4.38 13.62 0 7.71-1.81 12.76-4.76 15.71-2.48 2.48-5.62 4.29-10.1 4.29-2.48 0-6.48-.48-9.43-1.52zm-42.38.38c8.86 0 13.81-5.24 17.14-9.33l1.62.67c-2.48 8.76-10.19 16.38-21.05 16.38-8.38 0-19.71-6.57-19.71-22 0-18.57 14.1-28.29 24.38-28.29 9.9 0 16.1 7.52 16.1 18.76 0 1.9-.29 5.05-.76 8l-33.9-2.29v-3.05l26.1-2.1c0-5.81-2.48-12.19-11.43-12.19-2.86 0-5.52.57-7.71 2.76-2.76 2.76-4.19 7.71-4.19 14.67 0 11.81 5.43 18 13.43 18zm-75.81-22v23.33l-7.71 2.95v2.1h24v-2.38c-2.57-.48-4.29-1.33-5.52-2.57-1.62-1.62-2.19-4.29-2.19-16.67V35.8c3.43-1.81 7.43-3.33 13.05-3.33 5.62 0 9.14 2.38 9.14 8.76v27.62l-7.71 2.95v2.1h24v-2.38c-2.57-.48-4.29-1.33-5.52-2.57-1.62-1.62-2.19-4.29-2.19-16.67V40.57c0-10.67-4.95-15.62-13.24-15.62-7.05 0-12.76 3.14-17.52 6.1v-6.1l-16 6.19v1.43c2.38.48 4 .95 5.24 2.19 1.9 1.9 2.19 5.62 2.19 10.76zm-52.28 43.15l1.52.29 14.38-26.38-14-2.86zm-51.15-19.81l-7.71 2.95v2.1h24v-2.38c-2.57-.48-4.29-1.33-5.52-2.57-1.62-1.62-2.19-4.29-2.19-16.67v-2.48l8.48 2.1 9.71 17.62c2.48 4.57 4.95 5.71 8.19 5.71 3.05 0 6.1-1.33 9.81-4.86v-1.33l-10-2.67-11.33-20.19 19.33-18.57v-1.33h-14.48c-.95 6.86-3.9 12.1-6.86 15.05-2.95 2.95-7.24 4.48-12.86 5.52v-23.9l.86-20.29-.95-.95-15.9 6.38v1.43c2.38.67 3.9 1.62 5.05 2.76 2 2 2.38 5.05 2.38 10.19zm-33.62-1.34c8.86 0 13.81-5.24 17.14-9.33l1.62.67c-2.48 8.76-10.19 16.38-21.05 16.38-8.38 0-19.71-6.57-19.71-22 0-18.57 14.1-28.29 24.38-28.29 9.9 0 16.1 7.52 16.1 18.76 0 1.9-.29 5.05-.76 8l-33.9-2.29v-3.05l26.1-2.1c0-5.81-2.48-12.19-11.43-12.19-2.86 0-5.52.57-7.71 2.76-2.76 2.76-4.19 7.71-4.19 14.67 0 11.81 5.43 18 13.43 18zm-75.81-22v23.33L530 71.8v2.1h24v-2.38c-2.57-.48-4.29-1.33-5.52-2.57-1.62-1.62-2.19-4.29-2.19-16.67V35.8c3.43-1.81 7.43-3.33 13.05-3.33 5.62 0 9.14 2.38 9.14 8.76v27.62l-7.71 2.95v2.1h24v-2.38c-2.57-.48-4.29-1.33-5.52-2.57-1.62-1.62-2.19-4.29-2.19-16.67V40.57c0-10.67-4.95-15.62-13.24-15.62-7.05 0-12.76 3.14-17.52 6.1v-6.1l-16 6.19v1.43c2.38.48 4 .95 5.24 2.19 1.9 1.9 2.19 5.62 2.19 10.76zm-29.04 20.29c-2.48 1.14-7.33 2.57-11.14 2.57-5.71 0-7.24-3.81-7.24-8 0-.86.1-2.19.29-3.14l18.1-4.29zm16.85 3.33v-1.33c-2.76-.67-4.67-1.71-5.9-2.95-2.29-2.29-2.38-5.81-2.38-12.86V36.19c0-7.14-6.19-11.24-12.86-11.24-8.19 0-16.95 4.1-23.05 7.43l4.29 13.14h1.52l5.24-14.1c8.21 0 12 .29 14.57 2.86 1.33 1.33 1.71 3.14 1.71 5.62v7.14l-6.86 1.81c-7.52 2-14.29 4.38-17.14 7.24-2.29 2.29-3.14 4.95-3.14 7.81 0 6.48 5.33 11.33 12.67 11.33 5.52 0 10.29-2.48 14.48-5.05l.19 5.14zM498.38 20l14-15.05L502.09 0l-1.24.76-3.52 18.67zm-40.76 48.86l-7.71 2.95v2.1h24v-2.38c-2.57-.48-4.29-1.33-5.52-2.57-1.62-1.62-2.19-4.29-2.19-16.67V40.58c0-10.67-4.19-15.62-12.38-15.62-6.76 0-12.67 2.86-18.95 6.67-2-4.48-5.43-6.67-10.86-6.67-6.95 0-13.05 3.05-17.43 6.1v-6.1l-16 6.19v1.43c2.38.67 4 1.71 5.05 2.95 2.19 2.48 2.38 5.81 2.38 10.95v22.38l-7.71 2.95v2.1h24v-2.38c-2.57-.48-4.29-1.33-5.52-2.57-1.62-1.62-2.19-4.29-2.19-16.67V35.81c3.33-1.71 7.14-3.24 12.57-3.24 5.33 0 8.67 3.71 8.67 12v24.29l-7.71 2.95v2.1h24v-2.38c-2.57-.48-4.29-1.33-5.52-2.57-1.62-1.62-2.19-4.29-2.19-16.67V35.91c4.29-2.1 7.71-3.33 12.57-3.33 5.33 0 8.67 3.71 8.67 12zM336.67 52.67c0-15.43 11.81-27.71 25.52-27.71 12.76 0 19.9 10.76 19.9 22.57 0 15.43-11.81 27.71-25.52 27.71-12.76 0-19.9-10.76-19.9-22.57zm36.66-.67c0-6.92-1.36-12.79-4.57-16-3.06-3.06-6.57-4.19-10.19-4.19-4.19 0-6.86 1.05-8.95 3.14-2.76 2.76-4.19 7.24-4.19 13.24 0 6.92 1.36 12.79 4.57 16 3.06 3.06 6.57 4.19 10.19 4.19 4.19 0 6.86-1.05 8.95-3.14 2.76-2.76 4.19-7.24 4.19-13.24zm-70.85 16.86l-7.71 2.95v2.1h24v-2.38c-2.57-.48-4.29-1.33-5.52-2.57-1.62-1.62-2.19-4.29-2.19-16.67V50c0-6.67 1.24-10.57 3.71-13.05 1.71-1.71 3.99-2.76 6.86-2.76l4.48 11.43h1.52l4.95-18.95c-2.19-1.24-3.9-1.71-6.48-1.71-4.07 0-7.9 2.1-10.86 5.05-1.71 1.71-3.24 4.48-4.19 8.29V24.97l-16 6.19v1.43c2.38.48 4 .95 5.24 2.19 1.9 1.9 2.19 5.62 2.19 10.76zm-78.86 10.09l-4.67 20c2.76.67 5.14 1.05 7.52 1.05 10.86 0 17.62-9.81 20.29-20.76l2.95-12.1-3.24 9.81 18.19-39.33 5.9-9.71-.48-1.62h-11.33c-.19 8.76-2.29 17.43-7.71 29.05l-4.95 10.57 3.14-.1L236.66 38l-3.05-11.71h-12.48v2.38c2.76 3.52 4.48 5.9 7.62 12.57l16.19 34.29-.57-7.52-2.57 10.48c-1.62 6.67-5.05 12.67-13.43 12.67l-3.43-12.19zM245.14 20l14-15.05L248.85 0l-1.24.76-3.52 18.67zm-39.43 48.86L198 71.81v2.1h24v-2.38c-2.57-.48-4.29-1.33-5.52-2.57-1.62-1.62-2.19-4.29-2.19-16.67V40.58c0-10.67-4.38-15.62-12.86-15.62-7.14 0-13.14 3.14-17.9 6.1v-8.1l.86-20.29-.95-.95-15.9 6.38v1.43c2.38.67 3.9 1.62 5.05 2.76 2 2 2.38 5.05 2.38 10.19v46.38l-7.71 2.95v2.1h24v-2.38c-2.57-.48-4.29-1.33-5.52-2.57-1.62-1.62-2.19-4.29-2.19-16.67V35.81c3.43-1.81 7.43-3.24 13.05-3.24 5.62 0 9.14 3.71 9.14 12zm-50.85-27.53V52c0 7.05.1 10.57 2.38 12.86 1.24 1.24 3.14 2.29 5.9 2.95v1.33l-16.86 6.19v-6.19c-4.38 3.14-10.95 6.1-17.81 6.1-7.52 0-12.19-4.86-12.19-13.62V48.38c0-7.05.1-10.57-2.19-12.86-1.14-1.14-2.57-2.38-4.95-2.95v-1.43l16.67-6.19-.95 16.38v16.29c0 6.76 2.67 10.1 8.86 10.1 5.71 0 9.71-1.43 12.57-3.05V47.15c0-7.05-.29-9.14-2.76-11.62-1.24-1.24-3.14-2.29-5.9-2.95v-1.43l18.19-6.19zM56.38 52.67c0-15.43 11.81-27.71 25.52-27.71 12.76 0 19.9 10.76 19.9 22.57 0 15.43-11.81 27.71-25.52 27.71-12.76 0-19.9-10.76-19.9-22.57zM93.05 52c0-6.92-1.36-12.79-4.57-16-3.06-3.06-6.57-4.19-10.19-4.19-4.19 0-6.86 1.05-8.95 3.14-2.76 2.76-4.19 7.24-4.19 13.24 0 6.92 1.36 12.79 4.57 16 3.06 3.06 6.57 4.19 10.19 4.19 4.19 0 6.86-1.05 8.95-3.14C91.62 62.48 93.05 58 93.05 52zM27.52 12C37.81 12 44 17.24 44 28.19c0 5.62-1.24 9.81-3.9 12.48-2.48 2.48-6.29 3.62-11.52 4l-9.43.67V12.01zm-.66 61.9v-2.38c-2.57-.48-4.29-1.33-5.52-2.57-1.62-1.62-2.19-4.29-2.19-16.67v-3.14l7.05.57c9.05.76 16-1.9 20.76-6.67 4.38-4.38 6.38-10.29 6.38-16.48 0-12.19-7.62-20.29-21.52-20.29H2.49v2.38c2.57.48 4.29 1.33 5.52 2.57 1.62 1.62 2.19 4.29 2.19 16.67v40.95l-7.71 2.95v2.1zm0 0"/></svg>