<?xml version="1.0" encoding="UTF-8" standalone="no"?>
<!DOCTYPE svg PUBLIC "-//W3C//DTD SVG 1.1//EN" "http://www.w3.org/Graphics/SVG/1.1/DTD/svg11.dtd">
<svg width="100%" height="100%" viewBox="0 0 3394 1000" version="1.1" xmlns="http://www.w3.org/2000/svg" xmlns:xlink="http://www.w3.org/1999/xlink" xml:space="preserve" xmlns:serif="http://www.serif.com/" style="fill-rule:evenodd;clip-rule:evenodd;stroke-linejoin:round;stroke-miterlimit:2;">
    <g id="Artboard1" transform="matrix(2.82761,0,0,1,0,0)">
        <rect x="0" y="0" width="1200" height="1000" style="fill:none;"/>
        <clipPath id="_clip1">
            <rect x="0" y="0" width="1200" height="1000"/>
        </clipPath>
        <g clip-path="url(#_clip1)">
            <g transform="matrix(0.369006,0,0,1.22149,2.66472,29.5886)">
                <rect x="-173.587" y="-133.586" width="3566.72" height="1133.59" style="fill:rgb(0,255,0);"/>
            </g>
            <g transform="matrix(0.362336,0,0,1.02454,-91.2183,-22.0352)">
                <g transform="matrix(1072.43,0,0,1072.43,66.2352,867.827)">
                    <path d="M0.45,-0.532C0.45,-0.645 0.385,-0.708 0.276,-0.708C0.163,-0.708 0.089,-0.632 0.089,-0.545C0.089,-0.346 0.396,-0.396 0.396,-0.181C0.396,-0.051 0.289,-0.005 0.199,-0.005C0.144,-0.005 0.081,-0.027 0.016,-0.08L0.015,-0.069C0.081,-0.018 0.14,0.004 0.199,0.004C0.298,0.004 0.406,-0.048 0.406,-0.181C0.406,-0.402 0.099,-0.353 0.099,-0.545C0.099,-0.627 0.169,-0.699 0.276,-0.699C0.379,-0.699 0.44,-0.64 0.44,-0.532L0.45,-0.532Z" style="fill-rule:nonzero;"/>
                </g>
                <g transform="matrix(1072.43,0,0,1072.43,570.276,867.827)">
                    <path d="M0.588,-0.061C0.511,-0.023 0.436,-0.005 0.357,-0.005C0.152,-0.005 0.063,-0.146 0.063,-0.305C0.063,-0.52 0.222,-0.699 0.413,-0.699C0.544,-0.699 0.632,-0.624 0.632,-0.486L0.642,-0.486C0.642,-0.627 0.548,-0.708 0.413,-0.708C0.217,-0.708 0.053,-0.523 0.053,-0.306C0.053,-0.133 0.151,0.004 0.357,0.004C0.435,0.004 0.512,-0.014 0.587,-0.051L0.588,-0.061Z" style="fill-rule:nonzero;"/>
                </g>
                <g transform="matrix(1072.43,0,0,1072.43,1272.71,867.827)">
                    <path d="M0.49,-0L0.589,-0.704L0.579,-0.704L0.534,-0.385L0.096,-0.385L0.141,-0.704L0.131,-0.704L0.032,-0L0.042,-0L0.095,-0.376L0.533,-0.376L0.48,-0L0.49,-0Z" style="fill-rule:nonzero;"/>
                </g>
                <g transform="matrix(1072.43,0,0,1072.43,1917.24,867.827)">
                    <path d="M0.179,-0.335L0.313,-0.055C0.332,-0.015 0.349,0.004 0.383,0.004C0.4,0.004 0.415,-0.002 0.43,-0.012L0.432,-0.024C0.417,-0.014 0.401,-0.005 0.383,-0.005C0.359,-0.005 0.342,-0.018 0.324,-0.055L0.188,-0.336C0.348,-0.359 0.442,-0.445 0.442,-0.548C0.442,-0.654 0.371,-0.708 0.23,-0.708C0.169,-0.708 0.099,-0.697 0.03,-0.684L0.029,-0.675C0.067,-0.682 0.105,-0.689 0.142,-0.693L0.045,-0L0.055,-0L0.101,-0.33C0.128,-0.33 0.154,-0.332 0.179,-0.335ZM0.23,-0.699C0.365,-0.699 0.432,-0.65 0.432,-0.548C0.432,-0.433 0.309,-0.339 0.102,-0.339L0.152,-0.694C0.179,-0.697 0.205,-0.699 0.23,-0.699Z" style="fill-rule:nonzero;"/>
                </g>
                <g transform="matrix(1072.43,0,0,1072.43,2427.72,867.827)">
                    <path d="M0.039,-0L0.14,-0.704L0.13,-0.704L0.029,-0L0.039,-0Z" style="fill-rule:nonzero;"/>
                </g>
                <g transform="matrix(1072.43,0,0,1072.43,2588.58,867.827)">
                    <path d="M0.064,-0.561L0.074,-0.561C0.074,-0.664 0.125,-0.695 0.215,-0.695L0.374,-0.695L0.332,-0.396L0.152,-0.396L0.151,-0.387L0.331,-0.387L0.299,-0.161C0.283,-0.046 0.215,-0.005 0.145,-0.005C0.108,-0.005 0.081,-0.017 0.059,-0.029L0.057,-0.018C0.077,-0.007 0.102,0.004 0.145,0.004C0.215,0.004 0.291,-0.036 0.309,-0.161L0.341,-0.387L0.537,-0.387L0.538,-0.396L0.342,-0.396L0.384,-0.695L0.612,-0.695L0.613,-0.704L0.215,-0.704C0.114,-0.704 0.064,-0.665 0.064,-0.561Z" style="fill-rule:nonzero;"/>
                </g>
                <g transform="matrix(1072.43,0,0,1072.43,3195.57,867.827)">
                    <path d="M0.604,-0.695L0.605,-0.704L0.207,-0.704C0.106,-0.704 0.056,-0.665 0.056,-0.561L0.066,-0.561C0.066,-0.664 0.117,-0.695 0.207,-0.695L0.367,-0.695L0.291,-0.161C0.275,-0.046 0.207,-0.005 0.137,-0.005C0.1,-0.005 0.073,-0.017 0.051,-0.029L0.049,-0.018C0.069,-0.007 0.094,0.004 0.137,0.004C0.207,0.004 0.283,-0.036 0.301,-0.161L0.377,-0.695L0.604,-0.695Z" style="fill-rule:nonzero;"/>
                </g>
            </g>
        </g>
    </g>
</svg>
