<?xml version="1.0" encoding="UTF-8" standalone="no"?>
<!DOCTYPE svg PUBLIC "-//W3C//DTD SVG 1.1//EN" "http://www.w3.org/Graphics/SVG/1.1/DTD/svg11.dtd">
<svg width="100%" height="100%" viewBox="0 0 4338 1000" version="1.1" xmlns="http://www.w3.org/2000/svg" xmlns:xlink="http://www.w3.org/1999/xlink" xml:space="preserve" xmlns:serif="http://www.serif.com/" style="fill-rule:evenodd;clip-rule:evenodd;stroke-linejoin:round;stroke-miterlimit:2;">
    <g transform="matrix(1,0,0,1,-3443.13,0)">
        <g id="Artboard2" transform="matrix(3.61483,0,0,1,-1075.41,0)">
            <rect x="1250" y="0" width="1200" height="1000" style="fill:none;"/>
            <clipPath id="_clip1">
                <rect x="1250" y="0" width="1200" height="1000"/>
            </clipPath>
            <g clip-path="url(#_clip1)">
                <g transform="matrix(0.276638,0,0,1,610.584,1008.29)">
                    <g transform="matrix(1100,0,0,1100,2200.43,-126.787)">
                        <path d="M0.597,-0.135C0.535,-0.083 0.473,-0.062 0.405,-0.062C0.26,-0.062 0.129,-0.183 0.129,-0.353C0.129,-0.523 0.26,-0.642 0.405,-0.642C0.473,-0.642 0.535,-0.621 0.597,-0.569L0.644,-0.629C0.578,-0.685 0.501,-0.718 0.411,-0.718C0.198,-0.718 0.043,-0.551 0.043,-0.349C0.043,-0.147 0.198,0.014 0.411,0.014C0.501,0.014 0.578,-0.019 0.644,-0.075L0.597,-0.135Z" style="fill-rule:nonzero;"/>
                    </g>
                    <g transform="matrix(1100,0,0,1100,2924.23,-126.787)">
                        <path d="M0.541,-0.235C0.541,-0.372 0.436,-0.484 0.292,-0.484C0.148,-0.484 0.043,-0.372 0.043,-0.235C0.043,-0.098 0.148,0.014 0.292,0.014C0.436,0.014 0.541,-0.098 0.541,-0.235ZM0.459,-0.235C0.459,-0.138 0.389,-0.058 0.292,-0.058C0.196,-0.058 0.125,-0.138 0.125,-0.235C0.125,-0.332 0.196,-0.412 0.292,-0.412C0.389,-0.412 0.459,-0.332 0.459,-0.235Z" style="fill-rule:nonzero;"/>
                    </g>
                    <g transform="matrix(1100,0,0,1100,3544.63,-126.787)">
                        <path d="M0.065,-0L0.145,-0L0.145,-0.263C0.145,-0.368 0.208,-0.415 0.269,-0.415C0.326,-0.415 0.381,-0.376 0.381,-0.28L0.381,-0L0.461,-0L0.461,-0.289C0.461,-0.419 0.378,-0.484 0.291,-0.484C0.237,-0.484 0.182,-0.459 0.145,-0.409L0.145,-0.47L0.065,-0.47L0.065,-0Z" style="fill-rule:nonzero;"/>
                    </g>
                    <g transform="matrix(1100,0,0,1100,4130.93,-126.787)">
                        <path d="M0.346,-0.426C0.308,-0.46 0.257,-0.484 0.207,-0.484C0.144,-0.484 0.054,-0.444 0.054,-0.35C0.054,-0.188 0.28,-0.229 0.28,-0.125C0.28,-0.078 0.241,-0.053 0.199,-0.053C0.153,-0.053 0.108,-0.078 0.072,-0.111L0.031,-0.057C0.065,-0.026 0.122,0.014 0.199,0.014C0.28,0.014 0.358,-0.037 0.358,-0.125C0.358,-0.293 0.132,-0.251 0.132,-0.35C0.132,-0.393 0.169,-0.417 0.207,-0.417C0.235,-0.417 0.266,-0.406 0.305,-0.373L0.346,-0.426Z" style="fill-rule:nonzero;"/>
                    </g>
                    <g transform="matrix(1100,0,0,1100,4577.53,-126.787)">
                        <path d="M0.277,-0.074C0.258,-0.063 0.239,-0.057 0.222,-0.057C0.193,-0.057 0.171,-0.076 0.171,-0.12L0.171,-0.397L0.302,-0.397L0.302,-0.47L0.171,-0.47L0.171,-0.59L0.091,-0.59L0.091,-0.47L0.021,-0.47L0.021,-0.397L0.091,-0.397L0.091,-0.12C0.091,-0.03 0.143,0.014 0.215,0.014C0.251,0.014 0.281,0.004 0.31,-0.017L0.277,-0.074Z" style="fill-rule:nonzero;"/>
                    </g>
                    <g transform="matrix(1100,0,0,1100,4936.13,-126.787)">
                        <path d="M0.145,-0L0.145,-0.263C0.145,-0.368 0.217,-0.405 0.291,-0.405L0.291,-0.484C0.237,-0.484 0.182,-0.459 0.145,-0.409L0.145,-0.47L0.065,-0.47L0.065,-0L0.145,-0Z" style="fill-rule:nonzero;"/>
                    </g>
                    <g transform="matrix(1100,0,0,1100,5261.73,-126.787)">
                        <path d="M0.377,-0.208C0.377,-0.098 0.319,-0.058 0.261,-0.058C0.203,-0.058 0.145,-0.098 0.145,-0.208L0.145,-0.47L0.065,-0.47L0.065,-0.221C0.065,-0.057 0.153,0.014 0.261,0.014C0.369,0.014 0.457,-0.057 0.457,-0.221L0.457,-0.47L0.377,-0.47L0.377,-0.208Z" style="fill-rule:nonzero;"/>
                    </g>
                    <g transform="matrix(1100,0,0,1100,5835.93,-126.787)">
                        <path d="M0.408,-0.103C0.372,-0.072 0.332,-0.058 0.29,-0.058C0.207,-0.058 0.125,-0.129 0.125,-0.237C0.125,-0.345 0.207,-0.412 0.29,-0.412C0.332,-0.412 0.372,-0.398 0.408,-0.367L0.453,-0.423C0.41,-0.461 0.359,-0.484 0.292,-0.484C0.148,-0.484 0.043,-0.37 0.043,-0.233C0.043,-0.096 0.148,0.014 0.292,0.014C0.359,0.014 0.41,-0.009 0.453,-0.047L0.408,-0.103Z" style="fill-rule:nonzero;"/>
                    </g>
                    <g transform="matrix(1100,0,0,1100,6357.33,-126.787)">
                        <path d="M0.277,-0.074C0.258,-0.063 0.239,-0.057 0.222,-0.057C0.193,-0.057 0.171,-0.076 0.171,-0.12L0.171,-0.397L0.302,-0.397L0.302,-0.47L0.171,-0.47L0.171,-0.59L0.091,-0.59L0.091,-0.47L0.021,-0.47L0.021,-0.397L0.091,-0.397L0.091,-0.12C0.091,-0.03 0.143,0.014 0.215,0.014C0.251,0.014 0.281,0.004 0.31,-0.017L0.277,-0.074Z" style="fill-rule:nonzero;"/>
                    </g>
                </g>
            </g>
        </g>
    </g>
</svg>
