<?xml version="1.0" encoding="UTF-8" standalone="no"?>
<!DOCTYPE svg PUBLIC "-//W3C//DTD SVG 1.1//EN" "http://www.w3.org/Graphics/SVG/1.1/DTD/svg11.dtd">
<svg width="100%" height="100%" viewBox="0 0 3322 1000" version="1.1" xmlns="http://www.w3.org/2000/svg" xmlns:xlink="http://www.w3.org/1999/xlink" xml:space="preserve" xmlns:serif="http://www.serif.com/" style="fill-rule:evenodd;clip-rule:evenodd;stroke-linejoin:round;stroke-miterlimit:2;">
    <g transform="matrix(1,0,0,1,-7874.99,0)">
        <g id="Artboard3" transform="matrix(2.76772,0,0,1,955.698,0)">
            <rect x="2500" y="0" width="1200" height="1000" style="fill:none;"/>
            <clipPath id="_clip1">
                <rect x="2500" y="0" width="1200" height="1000"/>
            </clipPath>
            <g clip-path="url(#_clip1)">
                <g transform="matrix(0.361309,0,0,1,-369.679,0)">
                    <rect x="7874.99" y="-348.246" width="3944.66" height="1874.04" style="fill:rgb(0,255,0);"/>
                </g>
                <g transform="matrix(0.361309,0,0,1,1652.94,1008.29)">
                    <g transform="matrix(1100,0,0,1100,2200.43,-126.787)">
                        <path d="M0.474,-0.72C0.227,-0.72 0.046,-0.531 0.046,-0.307C0.046,-0.126 0.181,0.016 0.39,0.016C0.446,0.016 0.499,0.006 0.547,-0.012L0.62,0.091L0.759,-0.014L0.695,-0.105C0.773,-0.18 0.819,-0.284 0.819,-0.396C0.819,-0.578 0.673,-0.72 0.474,-0.72ZM0.6,-0.241L0.529,-0.342L0.388,-0.237L0.456,-0.141C0.438,-0.136 0.42,-0.134 0.401,-0.134C0.288,-0.134 0.219,-0.214 0.219,-0.319C0.219,-0.459 0.334,-0.57 0.463,-0.57C0.576,-0.57 0.645,-0.49 0.645,-0.385C0.645,-0.331 0.628,-0.282 0.6,-0.241Z" style="fill:white;fill-rule:nonzero;"/>
                    </g>
                    <g transform="matrix(1100,0,0,1100,3133.23,-126.787)">
                        <path d="M0.329,0.016C0.51,0.016 0.635,-0.094 0.66,-0.275L0.72,-0.704L0.55,-0.704L0.49,-0.275C0.476,-0.18 0.407,-0.134 0.34,-0.134C0.273,-0.134 0.215,-0.18 0.229,-0.275L0.29,-0.704L0.12,-0.704L0.059,-0.275C0.034,-0.094 0.148,0.016 0.329,0.016Z" style="fill:white;fill-rule:nonzero;"/>
                    </g>
                    <g transform="matrix(1100,0,0,1100,3926.33,-126.787)">
                        <path d="M0.19,-0L0.289,-0.704L0.119,-0.704L0.02,-0L0.19,-0Z" style="fill:white;fill-rule:nonzero;"/>
                    </g>
                    <g transform="matrix(1100,0,0,1100,4245.33,-126.787)">
                        <path d="M0.574,-0.202C0.522,-0.158 0.46,-0.134 0.4,-0.134C0.288,-0.134 0.218,-0.218 0.218,-0.326C0.218,-0.47 0.336,-0.57 0.456,-0.57C0.522,-0.57 0.576,-0.542 0.627,-0.491L0.73,-0.607C0.669,-0.673 0.589,-0.72 0.473,-0.72C0.224,-0.72 0.045,-0.531 0.045,-0.307C0.045,-0.126 0.184,0.016 0.389,0.016C0.509,0.016 0.588,-0.022 0.668,-0.087L0.574,-0.202Z" style="fill:white;fill-rule:nonzero;"/>
                    </g>
                    <g transform="matrix(1100,0,0,1100,5026.33,-126.787)">
                        <path d="M0.603,-0L0.383,-0.362L0.682,-0.704L0.496,-0.704L0.248,-0.411L0.289,-0.704L0.119,-0.704L0.02,-0L0.19,-0L0.235,-0.319L0.402,-0L0.603,-0Z" style="fill:white;fill-rule:nonzero;"/>
                    </g>
                </g>
            </g>
        </g>
    </g>
</svg>
