<svg width="2638.93" height="1100.002" xmlns="http://www.w3.org/2000/svg"><path d="M436.47 509.242c43.21-317.57 6.69-400.08-53.55-400.08-116.59 0-243.16 252.81-243.16 553.11 0 174.75 57.91 231.47 114 231.47 51.22 0 145.3-53.43 217.76-343.35h3.83c-57.69 328.97-165.39 425.89-270.3 425.89-99.12 0-167.82-86.24-167.82-286.87 0-201.31 62.17-384.94 180.98-503.75 60.87-60.87 135.75-95.71 218.43-95.71 37.72 0 80.29 10.48 121.23 33.46l-117.58 385.83zm81.25 465.27l161.49-31.93-61.21-28.08 112.63-643.78-161.49 32.7 61.21 27.31zm182.02-768.18c45.61 0 78.65-28.03 78.65-65.79-.23-31.3-25.99-56.24-64.23-56.24-46.52 0-78.28 30.62-78.51 66.79-.23 29.84 25.62 55.24 64.09 55.24zm37.35 770.09l113.08-645.69-55.03-27.31 155.32-32.7-57.83 315.92c69.83-280.69 148.82-315.92 199.55-315.92 14.67 0 35.56 7 50.99 17.8l-85.75 314.39h-3.82c20.95-194.34-4.08-240.19-30.94-240.19-32.66 0-100.32 59.28-177.15 496.68v94.18zm385.63-237.27c.23 157.25 70.87 236.13 144.42 236.13 84.18 0 184.46-97.83 228.32-321.19h-3.83c-58.61 202.55-133.62 236.99-170.27 236.99-52.61 0-108.93-70.05-108.93-233.74 0-222.19 93.34-365.12 163.02-365.12 53.85 0 86.37 118.6 58.58 365.82h3.83l114.96-351.77c-22.83-14.03-67.2-35.55-116.37-35.55-179.86 0-313.73 217.33-313.73 468.43zm666.77-688.43l-111.02 25.53-8.49 144.27-133.26 753.62 153.77-32.71-53.49-27.3zm376.25 556.36c-27.01 260.43-136.81 368.2-236.2 368.2-82.18 0-152.59-89.75-152.59-241.65 0-151.06 56.94-310.25 142.22-395.53 42.59-42.59 91.23-67.38 144.38-67.38 73.56 0 132.47 43.51 132.47 130.6 0 57.56-24.16 121.45-68.31 165.6-65.54 65.54-160.89 94.87-275.3 113.87l5.71-62.24c26.86 11.31 51.26 19.93 75.95 19.93 47.04 0 87.08-9.95 115.23-38.1 35.72-35.72 50.41-109.13 50.41-182.98 0-78.08-24.72-131.43-64.24-131.43-69.15 0-162.72 190.61-162.72 382.94 0 143.14 45.76 225.82 106.99 225.82 55.13 0 134.39-56.88 182.17-287.65zm257.91 76.45c55.58 50.75 78.69 88.48 78.69 144.73 0 79.97-57.54 122.89-112.55 122.89-67.96 0-120.58-58.1-139.32-220.28h-3.83l-56.8 225.78c34.37 10.09 66.02 18.63 128.25 18.63 167.03 0 248.59-98.62 248.59-204.55 0-60.52-27.19-111.43-85.9-164.43l-62.82-52.55c-43.61-38.77-78.32-76.44-78.32-140.41 0-79.97 48.27-118.49 103.28-118.49 67.95 0 116.52 60.68 133.1 220.51h3.83l59.08-226.01c-34.36-10.09-61.39-18.63-123.61-18.63-167.04 0-239.34 95.85-239.34 198.38 0 73.97 33.05 113.97 88.44 164.11zm0 0"/></svg>