<svg width="2733.39" height="1100.002" xmlns="http://www.w3.org/2000/svg"><path d="M629.57 103.002l-90 447.32c-31.39 151.31-53.88 283.63-71.63 410.38l-71.76 14.58-25.28-101.11-215.65-674.4c-37.86 217.73-56.81 612.9-44.54 753.7L0 969.512l133.37-719.15c15.02-77.63 6.28-116.88-4.8-147.36h121.11l-4.46 49.97 225.16 703.42c40.65-243.3 48.18-624.92 41.86-753.39zm436.66 260.77l42.62-75.06c-40.87-12.71-78.09-17.99-114.99-17.99-95.33 0-169.87 40.79-234.06 106.35-105.86 107.45-167.75 287.6-167.75 434.65 0 110.54 33.11 163.33 89.19 163.33 25.56 0 53.36-11.82 80.92-39.39 52.58-52.57 118.7-179.28 188.25-433.99l-88.47 472.84 157.83-32.39-53.49-28.08zm-328.52 540.01c-30.18 0-45.58-44.68-45.58-130.69 0-156.27 62.61-357.61 119.96-414.96 28.83-28.84 53.27-45.96 96.45-45.96 29.55 0 57.86 6.11 75.55 14.05-105.31 428.62-198.18 577.56-246.38 577.56zm567.19-620.78h121.77v3.83l-127.33 42.1-70.1 401.96c-20.46 116.74-7.71 169.49 20.49 169.49 27.17 0 59.43-35.84 97.83-179.8h3.83c-33.23 184.63-92.78 254.7-153.02 254.7-53.87 0-93.21-56.16-64.84-218.75l52.12-296.68c18-102.77 15.77-132.25 2.03-172.62l131.11-181.8zm305.81-11.28l-155.32 32.7 53.49 27.31-75.44 428.66c-25.96 144.84 4.83 214.89 67.94 214.89 28.93 0 59.01-14.11 87.49-42.58 56.49-56.49 131.13-175.66 182.6-361.07l-71.7 403.65 156.09-32.7-53.49-27.31 113.09-644.55-109.89 22.85v82.71c-79.55 385.8-193.55 527.96-247.3 527.96-36.68 0-45.86-74.36-27.49-179.52zm306.77 704.7l113.08-645.69-55.03-27.31 155.32-32.7-57.83 315.92c69.83-280.69 148.82-315.92 199.55-315.92 14.67 0 35.56 7 50.99 17.8l-85.75 314.39h-3.82c20.95-194.34-4.08-240.19-30.94-240.19-32.66 0-100.32 59.28-177.15 496.68v94.18zm773.65-369.34c-27.01 260.43-136.81 368.2-236.2 368.2-82.18 0-152.59-89.75-152.59-241.65 0-151.06 56.94-310.25 142.22-395.53 42.59-42.59 91.23-67.38 144.38-67.38 73.56 0 132.47 43.51 132.47 130.6 0 57.56-24.16 121.45-68.31 165.6-65.54 65.54-160.89 94.87-275.3 113.87l5.71-62.24c26.86 11.31 51.26 19.93 75.95 19.93 47.04 0 87.08-9.95 115.23-38.1 35.72-35.72 50.41-109.13 50.41-182.98 0-78.08-24.72-131.43-64.24-131.43-69.15 0-162.72 190.61-162.72 382.94 0 143.14 45.76 225.82 106.99 225.82 55.13 0 134.39-56.88 182.17-287.65zm0 0"/></svg>