<svg width="2488" height="1100.002" xmlns="http://www.w3.org/2000/svg"><path d="M323.24 646.152l-.59 163.52c-18.17 30.24-53.52 81.96-93.52 81.96-37.61 0-77.63-33.41-77.63-126.89 0-48.81 11.52-90.24 35.91-114.63 15.98-15.98 44.7-29.54 75.42-29.54 15.41 0 35.58 9.02 60.41 25.58zm123-212.61c0-119.69-51.24-162.67-112.41-162.67-80.63 0-149.31 100.26-198.96 264.28l49.43-250.15H46.65l62.18 380.43h5.3c32.67-215.3 95.22-281.34 137.11-281.34 40.76 0 71.41 35.58 71.41 102.34v93.37c-125.97 37.59-186.04 69.59-226.22 109.77-40.86 40.86-59.69 91.15-59.69 147.65 0 88.5 51.3 141.91 115.04 141.91 76.76 0 138-84.41 170.87-155.28l-6.37 155.28 183.76-28.24c-46.91-19.37-53.8-35.26-53.8-79.59zm255.69 413.48v-409.52c18.57-40.63 46.11-69.63 72.66-69.63 74.95 0 136.52 149.39 136.52 328.93 0 189.22-59.52 241.09-105.24 241.09-34.28 0-70.11-36.82-103.94-90.87zm5.14-796.15l-182.94 30.3c46.91 18.96 53.8 36.92 53.8 81.66v782.78c45.24 22.52 95.98 33.52 144.85 33.52 168.62 0 302.26-174.11 302.26-431.63 0-188.8-82.11-276.63-163.56-276.63-78.63 0-139.31 75.61-160.13 148.17zm380.67 600.59c0 206.71 99.96 327.67 221.52 327.67 132.39 0 251.89-148.48 251.89-384.72 0-204.89-104.91-323.54-222.76-323.54-131.98 0-250.65 146-250.65 380.59zm120.65-127.18c0-162.26 38.72-220.43 85.02-220.43 80.59 0 146.68 201.37 146.68 421.87 0 151.93-38.31 220.43-85.44 220.43-80.17 0-146.26-201.37-146.26-421.87zm571.41-86.85v254.61c0 115.03 28.13 169.94 82.22 169.94 28.68 0 58.24-20.02 99.55-92.76v-384.33c0-46.8-7.31-64.76-53.81-81.65l183.11-32.37-5.3 166.56v433.87c0 44.33 6.89 60.22 53.8 79.59l-184.35 28.24 6.55-194.74c-45.9 109.76-114.27 192.68-191 192.68-66.22 0-114.77-52.37-114.77-186.16v-406.02c0-46.8-7.3-64.76-53.8-81.65l183.11-32.37zm564-107.56v348.46c0 131.04 23.59 183.93 68.18 183.93 20.69 0 38.69-31.76 56.76-124.28-22.72 160.22-79.85 241.15-140.15 241.15-65.29 0-108.79-55.13-108.79-234.7v-351.1c0-68.29-13.76-84.83-53.8-108.33h53.63l110.35-202.17 13.82 202.17h132.29v5.3zm0 0"/></svg>