<svg width="3156" height="1100.002" xmlns="http://www.w3.org/2000/svg"><path d="M352 694.002v133c-17 5-23 8-36 8-47 0-70-34-70-104 0-40 8-65 23-80 6-6 13-9 22-9 16 0 35 19 61 52zm231-222c0-142-53-202-140-202-100 0-181 112-260 286l87-266H22l115 391h10c45-139 87-198 133-198 39 0 72 35 72 100v20c-175 63-233 96-272 135-35 35-55 76-55 123 0 75 56 129 135 129 75 0 138-58 192-150l-14 150 290-30c-34-27-45-47-45-106zm352 309v-325c8-6 15-8 21-8 82 0 133 167 133 326 0 127-29 173-53 173-29 0-66-65-101-166zm11-731l-288 35c34 26 45 51 45 111v764c47 19 113 30 183 30 249.08 0 422-197 422-451 0-180-86.54-269-180-269-98 0-171 85-193 174zm402 600c0 212 134 340 299 340 177 0 337-152 337-390 0-209-146-330-302-330-176 0-334 146-334 380zm231-180c0-120 17-177 41-177 53 0 132 263 132 497 0 95-16 177-42 177-52 0-131-263-131-497zm712 10v129c0 98 7 167 74 167 14 0 33-3 52-10v-345c0-65-12-90-45-111l287-40-10 210v374c0 59 11 79 45 106l-290 30 13-210c-50 108-126 205-218 205-85 0-140-60-140-202v-362c0-65-12-90-45-111l287-40zm710-124v261c0 97 23 154 94 154 16 0 34-3 55-11-55 125-145 230-237 230-87 0-144-61-144-203v-347c0-90-12-113-45-150h46l216-201 15 201h154v10zm0 0"/></svg>