<svg width="2859.07" height="1100.002" xmlns="http://www.w3.org/2000/svg"><path d="M589.23 367.342l55.08-63.9c-63.2-23.44-115.87-33.02-169.52-33.02-118.51 0-231.7 49.81-316.92 138.98C54.16 517.722 0 684.992 0 811.422c0 109.69 40.83 171.5 110.22 171.5 34.15 0 70.96-15.26 107.11-51.41 46.14-46.14 104.96-144.08 158.63-330.52l-74.3 382.24 240.26-44.41-48.77-41.39zm-357.71 485.49c-26.74 0-39.14-45.98-39.14-116.96 0-136.09 50.59-345.59 101.07-396.07 17.24-17.24 33.09-27.06 57.81-27.06 28.69 0 55.71 13.84 74.69 32.93-79.55 362.07-155.24 507.16-194.43 507.16zm716.12-787.34l-205.99 38.36-5.13 160.07-111.66 622.74-55.41 63.9c63.19 23.44 115.87 33.02 169.51 33.02 118.51 0 231.7-49.81 316.92-138.98 103.71-108.32 157.88-275.59 157.88-402.02 0-109.69-40.84-171.5-110.23-171.5-34.15 0-70.96 15.26-107.11 51.41-46.14 46.14-104.96 144.08-158.63 330.52zm33.57 335.68c25.37 0 39.82 56.93 39.82 127.57 0 133.7-50.25 334.98-100.72 385.46-17.25 17.24-33.44 27.75-58.16 27.75-28.69 0-55.71-13.84-74.69-32.94 79.55-362.07 154.56-507.84 193.75-507.84zm253.68 326.32c0 162.7 82.44 256.09 211.75 256.09 179.66 0 338.65-190.62 338.65-453.78 0-175.2-84.42-259.38-209.78-259.38-179.66 0-340.62 192.59-340.62 457.07zm173.37 74.78c0-216.65 80.53-519.22 153.17-519.22 30.15 0 50.49 42.86 50.49 170.66 0 216.64-81.85 517.24-154.49 517.24-29.49 0-49.17-48.12-49.17-168.68zm694.26-530.85l-233.03 43.44 48.77 41.05-66.85 381c-31.55 172.75 8.26 246.67 79.1 246.67 40.09 0 83.48-21.84 122.26-60.62 51.77-51.77 108.81-143.03 146.11-270.91l-57.96 331.53 233.37-43.44-48.77-41.05 111.37-628.67-196.18 35.73v117.93c-63.67 315.81-138.17 430.06-182.04 430.06-37.97 0-43.71-91.96-22.77-208.72zm635.2 15.58h121.35v7.26l-135.5 49.84-53.35 304.06c-21.32 121.89-18.44 204.27 15.76 204.27 23.74 0 50.85-24.25 86.25-134.29h7.26c-33.66 182.05-116.83 265.44-201.97 265.44-76.19 0-123.69-67.76-92.74-248.38l44.82-258.47c18-102.34 15.34-142.13-3.55-185.07l217.84-190.81zm0 0"/></svg>