<svg width="931" height="1100.002" xmlns="http://www.w3.org/2000/svg"><path d="M314.18 630.662l-.77 173.13c-18.54 38.19-63.13 105.24-111.63 105.24-34.65 0-80.03-33.23-80.03-134.1 0-51.57 12.63-98.18 39.98-125.53 19.12-19.12 54.67-36.01 92.23-36.01 15.22 0 35.77 5.88 60.22 17.27zm89-209.65c0-112.67-50.68-150.29-103.72-150.29-74.54 0-139.33 96.56-179.74 257.44l37.61-245.16H54.41l45.55 377.11h3.82c28.8-239.33 97.81-307.59 138.4-307.59 41.32 0 71.23 35.77 71.23 103.09v116.47c-110.54 29.58-171.26 61.27-211.8 101.81-42.72 42.72-61.18 95.93-61.18 155.41 0 92.75 49.83 145.98 108.77 145.98 77.31 0 138-92.73 164.21-156.94l-3.96 156.94 150.31-27.68c-50.98-16.97-56.58-31.57-56.58-71.27zm136.62 510.91l-56.57 31.08h203.15c-42.49-16.97-56.58-30.79-56.58-85.16v-673.32l4.29-153.8-150.86 27.68c50.75 16.97 56.57 32.71 56.57 73.1zm231 0l-56.57 31.08h203.15c-42.49-16.97-56.58-30.79-56.58-85.16v-673.32l4.29-153.8-150.86 27.68c50.75 16.97 56.57 32.71 56.57 73.1zm0 0"/></svg>