<svg width="910.98" height="1100.002" xmlns="http://www.w3.org/2000/svg"><path d="M447.01 361.912l38.67-78.6c-33.8-9.31-66.13-13.23-97.73-13.23-87.99 0-150.3 37.94-207.83 96.02C73.58 473.282 9.24 657.512 9.24 811.082c0 110.81 30.67 160.75 82.53 160.75 22.85 0 47.79-10.74 72.64-35.59 54.61-54.61 123.04-190.42 197.62-466.73l-92.95 501.51 131.74-28.59-54.98-23.86zm-319.29 557.26c-31.26 0-47.61-44.27-47.61-135.04 0-162.66 66.41-361.41 125.93-420.93 32.51-32.51 59.66-51.94 108.69-51.94 29.81 0 58.54 3.66 75.81 8.07-113.45 449.68-211.76 599.84-262.82 599.84zm578.26-869.09l-83.03 21.04-9.98 138.16-134.89 762.18 128.9-29.31-54.98-22.95zm205 0l-83.03 21.04-9.98 138.16-134.89 762.18 128.9-29.31-54.98-22.95zm0 0"/></svg>