<svg width="1097.46" height="1100.002" xmlns="http://www.w3.org/2000/svg"><path d="M526.85 365.592l47.98-70.26c-50.48-17.33-94.35-24.46-138.46-24.46-105.3 0-196.48 44.67-269.72 120.39-104.93 107.83-163.5 282.44-163.5 420.61 0 110.17 36.44 166.85 98.24 166.85 29.26 0 60.94-13.31 92.2-44.57 49.8-49.8 112.78-164.13 175.5-389.45l-82.37 433.84 193.3-37.56-51.45-33.81zm-341.09 516.54c-28.69 0-42.8-45.24-42.8-124.78 0-147.59 57.43-352.44 111.82-406.83 23.85-23.85 44.59-37.82 79.83-37.82 29.17 0 56.93 9.43 75.17 22.17-94.21 399.98-179.69 547.26-224.02 547.26zm653.7-831.26l-149.09 31.63-6.46 152.59-131.04 741.98 187.59-37.33-51.46-33.22zm258 0l-149.09 31.63-6.46 152.59-131.04 741.98 187.59-37.33-51.46-33.22zm0 0"/></svg>