<svg width="2733.4" height="1100.002" xmlns="http://www.w3.org/2000/svg"><path d="M447.01 361.912l38.67-78.6c-33.8-9.31-66.13-13.23-97.73-13.23-87.99 0-150.3 37.94-207.83 96.02C73.58 473.282 9.24 657.512 9.24 811.082c0 110.81 30.67 160.75 82.53 160.75 22.85 0 47.79-10.74 72.64-35.59 54.61-54.61 123.04-190.42 197.62-466.73l-92.95 501.51 131.74-28.59-54.98-23.86zm-319.29 557.26c-31.26 0-47.61-44.27-47.61-135.04 0-162.66 66.41-361.41 125.93-420.93 32.51-32.51 59.66-51.94 108.69-51.94 29.81 0 58.54 3.66 75.81 8.07-113.45 449.68-211.76 599.84-262.82 599.84zm578.26-869.09l-83.03 21.04-9.98 138.16-134.89 762.18 128.9-29.31-54.98-22.95zm576.32 236.4l75.43-12.77c-23.75 305.33-64.06 549.88-160.1 645.93-16.72 16.71-56.6 52.28-98.77 52.28-66.77 0-110.04-75.78-110.04-195.52 0-60.6 10.35-112.58 21.08-173.2l22.87-.91c-22.98 137-46.38 262.32-101.69 317.63-27.7 27.69-60.23 52-102.32 52-75.46 0-118.64-70.92-118.64-171 0-163.45 82.69-307.13 161.72-411.91l-105.52-73.53 184-45.4c-100.29 183.54-172.18 335.29-172.18 510.57 0 80.98 28.69 147.29 79.82 147.29 42.34 0 99.83-74.39 134.8-269.84l66.94-371.53 68.46-12.77-64.91 369.52c-6.28 38.29-12.09 77.13-12.09 116.31 0 94.57 22.64 167.39 78.63 167.39 45.38 0 79.7-52.65 112.37-117.09zm533.71 75.43l38.67-78.6c-33.8-9.31-66.13-13.23-97.73-13.23-87.99 0-150.3 37.94-207.83 96.02-106.54 107.18-170.88 291.41-170.88 444.98 0 110.81 30.67 160.75 82.53 160.75 22.85 0 47.79-10.74 72.64-35.59 54.61-54.61 123.04-190.42 197.62-466.73l-92.95 501.51 131.74-28.59-54.98-23.86zm-319.29 557.26c-31.26 0-47.61-44.27-47.61-135.04 0-162.66 66.41-361.41 125.93-420.93 32.51-32.51 59.66-51.94 108.69-51.94 29.81 0 58.54 3.66 75.81 8.07-113.45 449.68-211.76 599.84-262.82 599.84zm826.41-649.09l-79.21 18.77v71.39c-50.98 299.64-113.79 451.05-170.66 507.93-19.99 19.98-39.49 28.7-57.42 28.7-60.3 0-83.73-82.91-83.73-169.86 0-149.09 81.73-274.12 179.62-456.93l-181.22 45.59 101.79 70.62c-72.79 105.82-166.15 263.36-166.15 415.09 0 106.6 44.02 152.41 99.13 152.41 31.75 0 65.06-15.83 97.36-48.12 57.24-57.25 102.04-154.81 135.21-285.16l-41.63 244.95c-26.29 151.88-124.26 191.94-194.73 191.94-61.69 0-104.05-36.14-114.09-180.25h-2.74l-38.73 179.31c47.79 12 95.33 15.46 124.82 15.46 90.25 0 153.35-31.1 204.46-82.22 56.88-56.88 86.36-123.2 101.8-213.55zm208.85 394.47c52.85 50.9 78.28 88.19 78.28 150.84 0 90.7-65.55 137.84-125.32 137.84-70.96 0-111.9-52.69-119.49-218.93h-2.74l-46.2 218.18c33.55 10.63 63.03 19.44 125.12 19.44 144.99 0 222.65-94.68 222.65-197.08 0-59.02-25.3-109.38-80.61-162.38l-49.24-45.09c-39.67-37.71-78.72-74.39-78.72-146.11 0-90.71 54.66-132.49 114.43-132.49 70.95 0 106.68 53.73 113.39 219.02h2.74l47.13-218.27c-33.55-10.63-57.58-19.44-119.68-19.44-144.99 0-211.75 91.77-211.75 189.82 0 75.18 31.83 112.2 83.42 161.66zm0 0"/></svg>