<svg width="3760" height="1100.002" xmlns="http://www.w3.org/2000/svg"><path d="M323.24 646.152l-.59 163.52c-18.17 30.24-53.52 81.96-93.52 81.96-37.61 0-77.63-33.41-77.63-126.89 0-48.81 11.52-90.24 35.91-114.63 15.98-15.98 44.7-29.54 75.42-29.54 15.41 0 35.58 9.02 60.41 25.58zm123-212.61c0-119.69-51.24-162.67-112.41-162.67-80.63 0-149.31 100.26-198.96 264.28l49.43-250.15H46.65l62.18 380.43h5.3c32.67-215.3 95.22-281.34 137.11-281.34 40.76 0 71.41 35.58 71.41 102.34v93.37c-125.97 37.59-186.04 69.59-226.22 109.77-40.86 40.86-59.69 91.15-59.69 147.65 0 88.5 51.3 141.91 115.04 141.91 76.76 0 138-84.41 170.87-155.28l-6.37 155.28 183.76-28.24c-46.91-19.37-53.8-35.26-53.8-79.59zm132.8 494.66l-49.67 36.8h227.48c-40.46-20.61-53.81-35.91-53.81-90.15v-433.74c27.33-36.35 62.11-63 98.18-63 54.71 0 83.11 54.09 83.11 168.93v381.16l-49.68 36.8h227.48c-40.46-20.61-53.8-35.91-53.8-90.15v-433.74c29.5-38.7 62.52-63 97-63 51.19 0 84.69 54.09 84.69 169.52v380.57l-49.67 36.8h227.48c-40.46-20.61-53.81-35.91-53.81-90.15v-415.76c0-136.26-52.43-188.22-126.17-188.22-77.98 0-140 64.78-180.7 155.06-4.69-122.1-61.89-155.06-119.39-155.06-76.15 0-144.24 71.67-184.72 153.89l5.31-153.89-183.11 32.37c46.5 16.89 53.8 34.85 53.8 81.65zm988.76-490.77v254.61c0 115.03 28.13 169.94 82.22 169.94 28.68 0 58.24-20.02 99.55-92.76v-384.33c0-46.8-7.31-64.76-53.81-81.65l183.11-32.37-5.3 166.56v433.87c0 44.33 6.89 60.22 53.8 79.59l-184.35 28.24 6.55-194.74c-45.9 109.76-114.27 192.68-191 192.68-66.22 0-114.77-52.37-114.77-186.16v-406.02c0-46.8-7.3-64.76-53.8-81.65l183.11-32.37zm451 245.53l-48.06 254.21c31.61 17.13 96.35 41.96 180.63 41.96 138.63 0 215.2-84.83 215.78-194.02 0-68.2-29.69-115.65-67.32-153.28-54-54-154.68-96.59-203.2-145.53-27.2-27.19-53.89-59-53.89-99.95 0-51.7 40.37-81.89 80.69-81.89 63.83 0 138.09 66.02 186.92 262.17h5.3l51.52-254.39c-28.08-15.37-90.82-41.37-168.28-41.37-130.43 0-215.56 81.74-215.56 193.2 0 62.54 27.76 108.02 65.1 145.36 44.5 44.5 160.14 102.59 203.77 146.22 31.32 31.33 53.89 64.94 53.89 108.42 0 53.34-37.79 82.3-80.74 82.3-64.37 0-154.98-59.83-201.24-263.41zm452.42 245.24v-546.2c0-45.57-7.31-63.52-53.81-82.89l183.11-28.24-5.3 165.87v438.11c0 55.48 13.35 70.78 53.8 90.15h-231.61zm54.82-710.48c-53.67 0-87.89-31.09-87.89-69.55 0-39.63 33.39-72.37 85.83-72.37 52.85 0 89.54 32.74 89.54 72.37 0 38.46-35.87 69.55-87.48 69.55zm203 710.48l-53.8 36.8h231.61c-40.46-23.5-53.81-38.8-53.81-90.15v-402.33c40.48-73.56 69.63-94.41 98.31-94.41 51.19 0 83.45 54.5 83.45 169.52v380.57l-49.67 36.8h227.48c-40.46-23.5-53.81-38.8-53.81-90.15v-417.83c0-133.78-48.54-186.15-114.76-186.15-76.74 0-145.11 80.85-191 183.54l5.31-183.54-183.11 32.37c46.5 16.89 53.8 34.85 53.8 81.65zm538.98-340.33c0 150.93 84.48 259.17 198.28 259.17 144.87 0 245.13-174.07 245.13-329.78 0-54.2-22.22-112.85-43.76-149.69l78.22-41.94c-70.87-34.98-150.43-54.76-221.91-54.76-148.26 0-255.96 143.33-255.96 317zm112.28-75.5c0-131.89 37.99-210.59 94.44-210.59 67.65 0 126.48 145.65 126.48 286.5 0 137.35-37.36 227.85-97.96 227.85-72.13 0-122.96-154.93-122.96-303.76zm317.31 552.63l8.26-114.02h-355.41l-10.05-179.98-83.67 294zm0 0"/></svg>