<svg width="3523.28" height="1100.002" xmlns="http://www.w3.org/2000/svg"><path d="M480.84 363.772l42.62-75.06c-40.87-12.71-78.09-17.99-114.99-17.99-95.33 0-169.87 40.79-234.06 106.35C68.55 484.522 6.66 664.672 6.66 811.722c0 110.54 33.11 163.33 89.19 163.33 25.56 0 53.36-11.82 80.92-39.39 52.58-52.57 118.7-179.28 188.25-433.99l-88.47 472.84 157.83-32.39-53.49-28.08zm-328.52 540.01c-30.18 0-45.58-44.68-45.58-130.69 0-156.27 62.61-357.61 119.96-414.96 28.83-28.84 53.27-45.96 96.45-45.96 29.55 0 57.86 6.11 75.55 14.05-105.31 428.62-198.18 577.56-246.38 577.56zm354.54 70.36l109.34-22.85v-84.17c78.69-384.79 182.89-525.36 232.01-525.36 36.68 0 43.8 74.59 25.66 179.52l-79.24 452.86 109.34-22.85v-85.37c78.46-383.74 182.43-524.62 231.55-524.62 36.69 0 45.35 74.36 27.21 179.53l-79.93 454.82 153.55-32.7-50.98-41.23 73.61-416.57c25.74-144.83-3.46-214.89-66.57-214.89-30.53 0-61.06 14.11-89.54 42.59-54.17 54.17-113.55 176.42-165.02 361.06l36.69-203.82c23.46-133.2-6.33-199.37-69.44-199.37-29.62 0-60.38 14.33-89.55 43.5-54.17 54.17-114.69 175.96-165.93 360.15l73.43-403.65-156.82 33.16 51.2 35.75zm1008.46-702.42l-155.32 32.7 53.49 27.31-75.44 428.66c-25.96 144.84 4.83 214.89 67.94 214.89 28.93 0 59.01-14.11 87.49-42.58 56.49-56.49 131.13-175.66 182.6-361.07l-71.7 403.65 156.09-32.7-53.49-27.31 113.09-644.55-109.89 22.85v82.71c-79.55 385.8-193.55 527.96-247.3 527.96-36.68 0-45.86-74.36-27.49-179.52zm522.33 411.81c55.58 50.75 78.69 88.48 78.69 144.73 0 79.97-57.54 122.89-112.55 122.89-67.96 0-120.58-58.1-139.32-220.28h-3.83l-56.8 225.78c34.37 10.09 66.02 18.63 128.25 18.63 167.03 0 248.59-98.62 248.59-204.55 0-60.52-27.19-111.43-85.9-164.43l-62.82-52.55c-43.61-38.77-78.32-76.44-78.32-140.41 0-79.97 48.27-118.49 103.28-118.49 67.95 0 116.52 60.68 133.1 220.51h3.83l59.08-226.01c-34.36-10.09-61.39-18.63-123.61-18.63-167.04 0-239.34 95.85-239.34 198.38 0 73.97 33.05 113.97 88.44 164.11zm215.07 290.98l161.49-31.93-61.21-28.08 112.63-643.78-161.49 32.7 61.21 27.31zm182.02-768.18c45.61 0 78.65-28.03 78.65-65.79-.23-31.3-25.99-56.24-64.23-56.24-46.52 0-78.28 30.62-78.51 66.79-.23 29.84 25.62 55.24 64.09 55.24zm40.35 767.81l112.4-643.41-53.49-27.31 155.32-32.7-70.93 403.42c51.43-185.17 125.65-304.12 182.14-360.61 28.94-28.93 59.16-42.81 88.4-42.81 63.11 0 92.99 70.05 67.71 214.89l-74.98 427.75 53.49 27.3-155.31 32.71 79.69-452.09c18.37-105.16 9.2-179.52-27.49-179.52-52.75 0-171.63 150.64-247.07 521.13l.23 88.4zm1005.57-610.37l42.62-75.06c-41.1-13.85-80.82-17.99-112.25-17.99-99.2 0-170.55 38.28-234.74 102.46-106.31 106.32-165.46 278.03-165.46 422.1 0 108.72 34.51 151.06 88.04 151.06 27.2 0 55.41-11.83 84.58-40.99 50.06-50.07 115.5-165.18 183.45-414.86l-63.38 350.67c-31.61 174.42-123.24 208.37-179.1 208.37-62.15 0-106.78-57.71-129.41-173.55h-3.83l-40.64 186.36c32.72 7.86 70.84 12.94 103.56 12.94 87.42 0 175.07-33.15 245.12-103.19 40.26-40.26 95.03-118.64 116.49-241.93zm-325.09 516.09c-29.27 0-45.21-37.65-45.21-132.29 0-149.66 59.96-332.55 116.62-389.21 28.84-28.84 53.27-45.96 96.45-45.96 29.09 0 56.72 7.02 74.64 15.19-103.25 422.91-194.53 552.27-242.5 552.27zm0 0"/></svg>