<svg width="1883.21" height="1100.002" xmlns="http://www.w3.org/2000/svg"><path d="M589.23 367.342l55.08-63.9c-63.2-23.44-115.87-33.02-169.52-33.02-118.51 0-231.7 49.81-316.92 138.98C54.16 517.722 0 684.992 0 811.422c0 109.69 40.83 171.5 110.22 171.5 34.15 0 70.96-15.26 107.11-51.41 46.14-46.14 104.96-144.08 158.63-330.52l-74.3 382.24 240.26-44.41-48.77-41.39zm-357.71 485.49c-26.74 0-39.14-45.98-39.14-116.96 0-136.09 50.59-345.59 101.07-396.07 17.24-17.24 33.09-27.06 57.81-27.06 28.69 0 55.71 13.84 74.69 32.93-79.55 362.07-155.24 507.16-194.43 507.16zm378.34 127.46l109.4-625.38-48.77-41.05 233.03-43.44-57.62 330.87c37.18-127.17 93.02-217.82 144.79-269.59 40.1-40.1 83.91-61.28 124.9-61.28 70.83 0 108.01 73.92 78.44 246.67l-65.53 378.37 48.76 41.05-233.03 43.44 65.96-371.37c20.95-116.76 15.21-208.72-22.77-208.72-42.87 0-129.55 133.04-181.38 419.8l.66 124.9zm859.97-127.46c-26.74 0-38.79-45.98-38.79-116.96 0-132.15 48.9-335.59 98.06-384.75 17.25-17.25 33.1-27.07 57.82-27.07 28.68 0 55.05 19.1 73.34 38.2-68.34 323.27-151.89 490.58-190.43 490.58zm332.42-555.91c-31.81-6.95-62.31-9.92-92.46-9.92-117.85 0-233.67 41.26-314.29 125.83-103.71 108.31-157.19 272.16-157.19 398.59 0 109.69 40.84 171.5 110.22 171.5 34.16 0 70.97-15.26 107.12-51.41 46.13-46.14 104.95-143.74 158.62-330.18l-72.93 381.9 239.92-44.75-48.76-41.05 150.71-847.01L1691 87.472c0 16.43-1.03 112.62-4.45 130.08l-20.66 114.21zm0 0"/></svg>