<svg width="1487" height="1100.002" xmlns="http://www.w3.org/2000/svg"><path d="M314.18 630.662l-.77 173.13c-18.54 38.19-63.13 105.24-111.63 105.24-34.65 0-80.03-33.23-80.03-134.1 0-51.57 12.63-98.18 39.98-125.53 19.12-19.12 54.67-36.01 92.23-36.01 15.22 0 35.77 5.88 60.22 17.27zm89-209.65c0-112.67-50.68-150.29-103.72-150.29-74.54 0-139.33 96.56-179.74 257.44l37.61-245.16H54.41l45.55 377.11h3.82c28.8-239.33 97.81-307.59 138.4-307.59 41.32 0 71.23 35.77 71.23 103.09v116.47c-110.54 29.58-171.26 61.27-211.8 101.81-42.72 42.72-61.18 95.93-61.18 155.41 0 92.75 49.83 145.98 108.77 145.98 77.31 0 138-92.73 164.21-156.94l-3.96 156.94 150.31-27.68c-50.98-16.97-56.58-31.57-56.58-71.27zm137.08 510.91l-56.58 31.08h203.16c-42.49-19.25-56.58-33.08-56.58-85.16v-406.21c47.87-93.89 80.53-119.73 113.83-119.73 48.42 0 85.49 50.25 85.49 170.63v409.39l-54.3 31.08h200.87c-42.49-19.25-56.57-33.08-56.57-85.16v-425.96c0-131.2-46.51-181.16-106.82-181.16-71.93 0-137.9 77.33-182.5 181.51l3.83-181.51-150.41 29.96c50.75 15.6 56.58 31.34 56.58 72.42zm683.17-618.01c34.41 0 71.41 29.5 104.86 73.39v427.45c-21.89 51.53-55.9 89.03-88.91 89.03-72.74 0-137.63-142.62-137.63-327.35 0-208.8 69.13-262.52 121.68-262.52zm194.86-98.89l4.06-164.3-150.63 28.82c50.98 16.74 57.35 32.48 57.35 72.42v185.15l52.58-20.19c-41.61-31.98-70.48-41.64-100.02-41.64-55.35 0-103.78 20.65-143.68 60.56-67.74 67.74-117.06 194.35-117.06 360.41 0 191.58 80.83 279.03 158.39 279.03 72.54 0 128.56-71.11 149.01-142.36l-3.28 142.36 149.86-28.82c-50.98-16.74-56.58-32.48-56.58-72.42zm0 0"/></svg>