<svg width="5133.09" height="1100.002" xmlns="http://www.w3.org/2000/svg"><path d="M526.85 365.592l47.98-70.26c-50.48-17.33-94.35-24.46-138.46-24.46-105.3 0-196.48 44.67-269.72 120.39-104.93 107.83-163.5 282.44-163.5 420.61 0 110.17 36.44 166.85 98.24 166.85 29.26 0 60.94-13.31 92.2-44.57 49.8-49.8 112.78-164.13 175.5-389.45l-82.37 433.84 193.3-37.56-51.45-33.81zm-341.09 516.54c-28.69 0-42.8-45.24-42.8-124.78 0-147.59 57.43-352.44 111.82-406.83 23.85-23.85 44.59-37.82 79.83-37.82 29.17 0 56.93 9.43 75.17 22.17-94.21 399.98-179.69 547.26-224.02 547.26zm363.59 94.94l111.11-635.66-51.46-33.21 188.76-37.33-65.19 372.2c45.29-160.21 111.6-266.98 166.06-321.44 33.74-33.74 69.81-50.76 104.11-50.76 66.43 0 99.46 71.72 72.33 228.56l-70.92 406.5 51.46 33.22-188.76 37.33 73.78-417.35c19.48-110.15 11.78-192.09-25.46-192.09-48.5 0-153.52 143.07-218.8 477.53l.41 104.1zm589.76-238.37c0 154.63 72.05 240.43 178 240.43 166.57 0 311.26-198.2 311.26-465.76 0-162.48-73.29-242.5-176.76-242.5-166.57 0-312.5 199.43-312.5 467.83zm129.35 41.76c0-224.96 85.91-497.94 166.87-497.94 40.26 0 63.69 57.05 63.69 188.26 0 224.96-86.74 496.7-167.69 496.7-39.85 0-62.87-60.35-62.87-187.02zm637.08-495.46h121.59v5.3l-130.85 45.44-62.89 359.83c-20.82 118.95-12.32 184.45 18.46 184.45 25.69 0 55.74-30.85 92.85-160.22h5.3c-33.41 183.53-103.13 259.33-174.09 259.33-63.48 0-106.32-61.15-76.84-231.5l48.97-280.24c18-102.59 15.59-136.5-.37-177.98l168.44-185.67zm82.63 694.13l147.44-28.39v-101.48c64.69-340.91 169.72-482.22 218.8-482.22 37.24 0 44.94 81.94 25.46 192.09l-74.2 419.41 188.76-37.32-51.45-33.22 72.15-408.57c27.96-156.84-6.72-228.56-73.15-228.56-34.3 0-70.37 17.02-104.11 50.76-54.46 54.46-120.77 161.23-166.07 321.44l111.63-592.2-156.76 30.46-7.04 153.76zm1013.79-381.33c-20.55 256.74-134.22 381.33-255.79 381.33-91.24 0-170.89-85.5-170.89-244.61 0-146.26 55.29-297.5 142.42-384.63 50.34-50.35 108.41-79.02 173.02-79.02 83.71 0 143.37 45.54 143.37 131.89 0 61.26-29.16 121.83-67.76 160.44-71.63 71.63-174.57 104.47-287.68 123.47l10.33-72.95c25.93 17.21 49.04 31.19 74.28 31.19 38.17 0 69.35-8.28 91.96-30.89 33.87-33.87 49.11-116.52 49.11-195.91 0-77.35-22.87-127.74-57.96-127.74-63.61 0-143.87 185.43-143.87 364.28 0 144.07 52.04 216.76 113.46 216.76 62.52 0 139.56-60.02 180.69-273.61zm39.39 383.4l112.35-639.79-52.63-33.21 188.76-37.33-59.31 310.2c71.31-274.79 156.76-310.2 209.72-310.2 11.15 0 28.72 7 40.46 15.22l-98.5 353.56h-5.31c12.83-191.39-9.8-242.78-35.74-242.78-29.15 0-86.82 58.69-154.61 446.24v109.69zm918.5-615.61l47.98-70.26c-50.48-17.33-94.35-24.46-138.46-24.46-105.3 0-196.48 44.67-269.72 120.39-104.93 107.83-163.5 282.44-163.5 420.61 0 110.17 36.44 166.85 98.24 166.85 29.26 0 60.94-13.31 92.2-44.57 49.8-49.8 112.78-164.13 175.5-389.45l-82.37 433.84 193.3-37.56-51.45-33.81zm-341.09 516.54c-28.69 0-42.8-45.24-42.8-124.78 0-147.59 57.43-352.44 111.82-406.83 23.85-23.85 44.59-37.82 79.83-37.82 29.17 0 56.93 9.43 75.17 22.17-94.21 399.98-179.69 547.26-224.02 547.26zm363.59 94.94l111.11-635.66-51.46-33.21 188.76-37.33-65.19 372.2c45.29-160.21 111.6-266.98 166.06-321.44 33.74-33.74 69.81-50.76 104.11-50.76 66.43 0 99.46 71.72 72.33 228.56l-70.92 406.5 51.46 33.22-188.76 37.33 73.78-417.35c19.48-110.15 11.78-192.09-25.46-192.09-48.5 0-153.52 143.07-218.8 477.53l.41 104.1zm754.24-94.94c-28.7 0-42.22-45.24-42.22-124.78 0-145.11 55.26-342.44 108.83-396 23.84-23.85 44.58-37.83 79.82-37.83 29.18 0 56.52 12.74 73.59 25.48-86.44 375.61-176.11 533.13-220.02 533.13zm325.56-589.41c-26.67-5.48-52.52-7.72-77.78-7.72-104.89 0-197.72 39.3-268.07 112.13-104.93 107.83-162.32 276.57-162.32 414.74 0 110.17 36.43 166.85 98.24 166.85 29.26 0 60.93-13.31 92.19-44.57 49.81-49.8 112.79-163.54 175.5-388.87l-80.02 433.26 192.72-38.15-51.46-33.22 151.94-856.3-143.79 29.22c0 28.17-1.76 102.34-7.63 132.28l-20.41 110.78zm0 0"/></svg>