<svg width="3465" height="1100.002" xmlns="http://www.w3.org/2000/svg"><path d="M352 694.002v133c-17 5-23 8-36 8-47 0-70-34-70-104 0-40 8-65 23-80 6-6 13-9 22-9 16 0 35 19 61 52zm231-222c0-142-53-202-140-202-100 0-181 112-260 286l87-266H22l115 391h10c45-139 87-198 133-198 39 0 72 35 72 100v20c-175 63-233 96-272 135-35 35-55 76-55 123 0 75 56 129 135 129 75 0 138-58 192-150l-14 150 290-30c-34-27-45-47-45-106zm153 223l-78 246c41 23 121 49 227 49 185 0 278-113 278-231 0-77-25-118-55-148-81-81-248-123-320-196-9-9-31-32-31-53 0-20 21-32 49-32 65 0 178 76 282 234h10l75-245c-41-23-119-49-217-49-168 0-286 97-286 229 0 69 26 118 61 153 58 58 247 129 310 192 19 19 31 35 31 55 0 24-19 33-42 33-45 0-172-61-284-237zm460-405l161 553 26 127h182c12-59 26-128 47-205l47-169 66 247 16 127h197c9-59 19-110 38-177l144-503h-196c39 137 84 350 29 520l-127-451 25-69h-276c46 224 51 354 6 520l-111-452 20-68zm952 369c0 194 125 331 287 331s262-126 296-287l-8-2c-51 63-103 97-171 97-120 0-194-112-194-346 0-114 19-156 47-156 35 0 88 143 88 293l33-37-159 57v8l358 74c8-48 11-78 11-116 0-180-105-307-261-307-177 0-327 170-327 391zm673 256l-45 55h322c-34-27-45-47-45-106v-600l12-214-289 30c33 27 45 52 45 114zm352 0l-45 55h322c-34-27-45-47-45-106v-600l12-214-289 30c33 27 45 52 45 114zm0 0"/></svg>