<svg width="1340" height="1100.002" xmlns="http://www.w3.org/2000/svg"><path d="M459 50.002l-282 50v170l-112 620-65 55c81 32 146 45 213 45 137 0 281-57 383-165 102-109 150-266 150-376 0-109-47-178-127-178-41 0-85 18-128 61-41 41-94 116-135 248zm-13 398c24 0 34 47 34 106 0 120-41 336-86 381-8 8-17 12-27 12-28 0-54-20-74-48 59-309 121-451 153-451zm856 119c0 245-126 423-318 423-120 0-229-72-229-254 0-131 50-257 143-350 75-75 163-116 264-116 116 0 178 52 178 136 0 73-45 123-66 144-91 91-218 135-327 154l25-107c23 36 42 67 69 67 10 0 13-3 18-8 28-28 45-140 45-237 0-75-17-116-38-116-46 0-84 169-84 305 0 147 72 188 134 188 86 0 156-70 176-229zm0 0"/></svg>