<svg width="1044" height="1100.002" xmlns="http://www.w3.org/2000/svg"><path d="M191.93 847.022v-409.52c18.57-40.63 46.11-69.63 72.66-69.63 74.95 0 136.52 149.39 136.52 328.93 0 189.22-59.52 241.09-105.24 241.09-34.28 0-70.11-36.82-103.94-90.87zm5.14-796.15l-182.94 30.3c46.91 18.96 53.8 36.92 53.8 81.66v782.78c45.24 22.52 95.98 33.52 144.85 33.52 168.62 0 302.26-174.11 302.26-431.63 0-188.8-82.11-276.63-163.56-276.63-78.63 0-139.31 75.61-160.13 148.17zm382.73 603.13c0 203.98 91.55 325.13 208.94 325.13 112.69 0 196.26-106.63 210.3-317.52l-4.47-.83c-32.81 175.11-91.85 211.46-143.42 211.46-91.82 0-161.13-118.46-161.13-362.44 0-153.32 43.07-204.71 83.39-204.71 60.83 0 109.72 127.15 109.72 283.61l26.54-24.09-232.95 33.52v9.17l328.06 38.2c4.48-29.22 6.31-49.24 6.31-74.33 0-192.91-78.59-301.13-187.63-301.13-129.46 0-243.66 155.33-243.66 383.96zm0 0"/></svg>