<svg width="1328" height="1100.002" xmlns="http://www.w3.org/2000/svg"><path d="M297 781.002v-325c8-6 15-8 21-8 82 0 133 167 133 326 0 127-29 173-53 173-29 0-66-65-101-166zm11-731l-288 35c34 26 45 51 45 111v764c47 19 113 30 183 30 249.08 0 422-197 422-451 0-180-86.54-269-180-269-98 0-171 85-193 174zm407 609c0 194 125 331 287 331s262-126 296-287l-8-2c-51 63-103 97-171 97-120 0-194-112-194-346 0-114 19-156 47-156 35 0 88 143 88 293l33-37-159 57v8l358 74c8-48 11-78 11-116 0-180-105-307-261-307-177 0-327 170-327 391zm0 0"/></svg>