<svg width="1162" height="1100.002" xmlns="http://www.w3.org/2000/svg"><path d="M235.71 819.432v-374.31c14.17-26.2 33.15-43.95 51.13-43.95 77.89 0 135.06 156.73 135.06 327.72 0 163.29-46.81 212.71-83.48 212.71-32.08 0-68.39-48.56-102.71-122.17zm7.58-769.01L16.58 82.682c41.53 21.9 50.13 42.79 50.13 93.89v774.95c45.97 21.06 103.07 32.06 160.75 32.06 202.14 0 352.15-183.65 352.15-439.71 0-185.13-83.96-273.45-170.41-273.45-86.71 0-152.52 79.53-173.83 158.94zm392.85 605.58c0 199.82 105.48 327.58 241.46 327.58 133.24 0 223.65-114.71 246.01-304.81l-5.95-1.31c-40.38 128.39-96.49 163.76-154.9 163.76-103.57 0-174.83-115.76-174.83-355.58 0-136.94 33.04-184.42 68.23-184.42 50.06 0 100.67 133.75 100.67 287.52l29.23-29.47-202.14 43.31v8.68l340.54 53.11c5.94-37.04 8.26-61.22 8.26-91.69 0-187.53-89.59-303.57-218.2-303.57-149.27 0-278.38 161.44-278.38 386.89zm0 0"/></svg>