<svg width="1909.23" height="1100.002" xmlns="http://www.w3.org/2000/svg"><path d="M276.87 84.672l-110.68 23.76-11.57 147.62-111.23 626.18L0 957.292c40.87 12.71 78.08 17.99 114.98 17.99 95.33 0 169.87-40.79 234.06-106.35 105.86-107.45 167.75-287.6 167.75-434.65 0-110.54-33.11-163.33-89.19-163.33-25.56 0-53.35 11.82-80.92 39.39-52.58 52.57-118.7 179.28-188.25 433.99zm91.95 257.55c27.09 0 47.12 69.38 47.12 154.62 0 150.87-61.84 333.68-119.18 391.03-28.84 28.84-54.05 47.5-97.23 47.5-29.55 0-57.86-6.11-75.55-14.04 105.31-428.62 196.64-579.11 244.84-579.11zm564.22 264.86c-27.01 260.43-136.81 368.2-236.2 368.2-82.18 0-152.59-89.75-152.59-241.65 0-151.06 56.94-310.25 142.22-395.53 42.59-42.59 91.23-67.38 144.38-67.38 73.56 0 132.47 43.51 132.47 130.6 0 57.56-24.16 121.45-68.31 165.6-65.54 65.54-160.89 94.87-275.3 113.87l5.71-62.24c26.86 11.31 51.26 19.93 75.95 19.93 47.04 0 87.08-9.95 115.23-38.1 35.72-35.72 50.41-109.13 50.41-182.98 0-78.08-24.72-131.43-64.24-131.43-69.15 0-162.72 190.61-162.72 382.94 0 143.14 45.76 225.82 106.99 225.82 55.13 0 134.39-56.88 182.17-287.65zm526.92-243.31l42.62-75.06c-41.1-13.85-80.82-17.99-112.25-17.99-99.2 0-170.55 38.28-234.74 102.46-106.31 106.32-165.46 278.03-165.46 422.1 0 108.72 34.51 151.06 88.04 151.06 27.2 0 55.41-11.83 84.58-40.99 50.06-50.07 115.5-165.18 183.45-414.86l-63.38 350.67c-31.61 174.42-123.24 208.37-179.1 208.37-62.15 0-106.78-57.71-129.41-173.55h-3.83l-40.64 186.36c32.72 7.86 70.84 12.94 103.56 12.94 87.42 0 175.07-33.15 245.12-103.19 40.26-40.26 95.03-118.64 116.49-241.93zm-325.09 516.09c-29.27 0-45.21-37.65-45.21-132.29 0-149.66 59.96-332.55 116.62-389.21 28.84-28.84 53.27-45.96 96.45-45.96 29.09 0 56.72 7.02 74.64 15.19-103.25 422.91-194.53 552.27-242.5 552.27zm559.08-196.33c55.58 50.75 78.69 88.48 78.69 144.73 0 79.97-57.54 122.89-112.55 122.89-67.96 0-120.58-58.1-139.32-220.28h-3.83l-56.8 225.78c34.37 10.09 66.02 18.63 128.25 18.63 167.03 0 248.59-98.62 248.59-204.55 0-60.52-27.19-111.43-85.9-164.43l-62.82-52.55c-43.61-38.77-78.32-76.44-78.32-140.41 0-79.97 48.27-118.49 103.28-118.49 67.95 0 116.52 60.68 133.1 220.51h3.83l59.08-226.01c-34.36-10.09-61.39-18.63-123.61-18.63-167.04 0-239.34 95.85-239.34 198.38 0 73.97 33.05 113.97 88.44 164.11zm0 0"/></svg>