<svg width="1784.36" height="1100.002" xmlns="http://www.w3.org/2000/svg"><path d="M244.81 90.012l-80.51 19.14-13.62 143.68-111.09 627.26L0 958.692c33.81 9.31 66.13 13.23 97.74 13.23 87.99 0 150.3-37.94 207.83-96.02 106.54-107.18 170.87-291.41 170.87-444.98 0-110.81-30.66-160.75-82.52-160.75-22.85 0-47.79 10.74-72.64 35.59-54.61 54.61-123.04 190.42-197.62 466.73zm110.43 232.82c27.63 0 49.43 73.32 49.43 163.18 0 156.3-65.5 333.27-125.03 392.79-32.5 32.51-60.56 53.75-109.59 53.75-29.81 0-58.54-3.66-75.81-8.06 113.45-449.68 209.94-601.66 261-601.66zm513.83 290.53c-31.77 263.16-138.71 358.56-221.79 358.56-75.53 0-139.15-92.87-139.15-239.47 0-154.6 58.17-319.63 142.09-403.55 36.88-36.88 78.59-58.82 123.32-58.82 66.08 0 124.45 42.01 124.45 129.64 0 54.85-20.49 121.19-68.72 169.42-61.05 61.04-150.84 87.8-266.19 106.8l2.31-54.36c27.54 6.96 52.89 11.64 77.17 11.64 53.56 0 100.13-11.17 132.36-43.4 37.07-37.08 51.35-103.7 51.35-173.47 0-78.63-26.08-134.15-68.86-134.15-73.23 0-176.57 194.41-176.57 396.67 0 142.46 41.14 232.47 102.23 232.47 49.69 0 130.59-54.57 183.26-297.98zm493.63-251.45l38.68-78.6c-33.89-9.77-67.24-13.23-96.62-13.23-89.56 0-150.58 36.92-208.11 94.45-106.72 106.72-169.95 287.53-169.95 439.89 0 110.08 33.02 149.84 82.06 149.84 25.3 0 48.62-10.74 74.12-36.24 53.6-53.6 121.75-178.76 195.68-453.04l-67.32 370.51c-33.31 183.13-136.66 220.06-196.89 220.06-65.18 0-99.18-59.08-110.12-178.58h-2.74l-33.71 180.79c34.07 8.53 74.5 14.16 108.58 14.16 72.88 0 145.86-24.72 209.93-88.79 29.39-29.39 84.3-99.21 105.48-221.14zm-317.89 541.63c-30.89 0-48.06-35.48-48.06-135.69 0-159.98 65.93-345.32 125.18-404.56 32.5-32.51 59.66-51.94 108.68-51.94 29.63 0 58.08 4.04 75.45 8.53-112.63 447.37-210.28 583.66-261.25 583.66zm538.13-238.99c52.85 50.9 78.28 88.19 78.28 150.84 0 90.7-65.55 137.84-125.32 137.84-70.96 0-111.9-52.69-119.49-218.93h-2.74l-46.2 218.18c33.55 10.63 63.03 19.44 125.12 19.44 144.99 0 222.65-94.68 222.65-197.08 0-59.02-25.3-109.38-80.61-162.38l-49.24-45.09c-39.67-37.71-78.72-74.39-78.72-146.11 0-90.71 54.66-132.49 114.43-132.49 70.95 0 106.68 53.73 113.39 219.02h2.74l47.13-218.27c-33.55-10.63-57.58-19.44-119.68-19.44-144.99 0-211.75 91.77-211.75 189.82 0 75.18 31.83 112.2 83.42 161.66zm0 0"/></svg>