<svg width="4460" height="1100.002" xmlns="http://www.w3.org/2000/svg"><path d="M459 50.002l-282 50v170l-112 620-65 55c81 32 146 45 213 45 137 0 281-57 383-165 102-109 150-266 150-376 0-109-47-178-127-178-41 0-85 18-128 61-41 41-94 116-135 248zm-13 398c24 0 34 47 34 106 0 120-41 336-86 381-8 8-17 12-27 12-28 0-54-20-74-48 59-309 121-451 153-451zm856 119c0 245-126 423-318 423-120 0-229-72-229-254 0-131 50-257 143-350 75-75 163-116 264-116 116 0 178 52 178 136 0 73-45 123-66 144-91 91-218 135-327 154l25-107c23 36 42 67 69 67 10 0 13-3 18-8 28-28 45-140 45-237 0-75-17-116-38-116-46 0-84 169-84 305 0 147 72 188 134 188 86 0 156-70 176-229zm427-517l-270 51v179l-124 705 295-52-45-52zm-39 940l295-52-45-52 108-616-295 52 45 52zm269-735c95 0 162-45 162-109-1-56-53-101-136-101-99 0-157 53-158 110-1 53 48 100 132 100zm649 312c0 245-126 423-318 423-120 0-229-72-229-254 0-131 50-257 143-350 75-75 163-116 264-116 116 0 178 52 178 136 0 73-45 123-66 144-91 91-218 135-327 154l25-107c23 36 42 67 69 67 10 0 13-3 18-8 28-28 45-140 45-237 0-75-17-116-38-116-46 0-84 169-84 305 0 147 72 188 134 188 86 0 156-70 176-229zm431-252l-62 629c-8 1-16 2-25 2-45 0-70-73-70-210 0-123 30-290 102-466l-289 130 99 116c-93 82-148 188-148 288 0 117 73 186 190 186 85 0 180-43 251-114 116-116 219-370 210-600zm795 252c0 245-126 423-318 423-120 0-229-72-229-254 0-131 50-257 143-350 75-75 163-116 264-116 116 0 178 52 178 136 0 73-45 123-66 144-91 91-218 135-327 154l25-107c23 36 42 67 69 67 10 0 13-3 18-8 28-28 45-140 45-237 0-75-17-116-38-116-46 0-84 169-84 305 0 147 72 188 134 188 86 0 156-70 176-229zm332 220c71.04 49.89 81 90.1 81 110 0 19-12 38-40 38-50.96 0-169.88-88.88-252-228h-10l-117 269c39 7 83 14 146 14 292.24 0 396-120 396-247 0-69.04-38-123-116-176l-140-95c-65.96-44.76-76-88.08-76-108 0-19 12-39 40-39 50.85 0 172.37 100.2 245 229h10l127-270c-39-7-83-14-146-14-292.24 0-396 119-396 247 0 67.11 40 124 117 178zm0 0"/></svg>