<svg width="2445.47" height="1100.002" xmlns="http://www.w3.org/2000/svg"><path d="M276.87 84.672l-110.68 23.76-11.57 147.62-111.23 626.18L0 957.292c40.87 12.71 78.08 17.99 114.98 17.99 95.33 0 169.87-40.79 234.06-106.35 105.86-107.45 167.75-287.6 167.75-434.65 0-110.54-33.11-163.33-89.19-163.33-25.56 0-53.35 11.82-80.92 39.39-52.58 52.57-118.7 179.28-188.25 433.99zm91.95 257.55c27.09 0 47.12 69.38 47.12 154.62 0 150.87-61.84 333.68-119.18 391.03-28.84 28.84-54.05 47.5-97.23 47.5-29.55 0-57.86-6.11-75.55-14.04 105.31-428.62 196.64-579.11 244.84-579.11zm564.22 264.86c-27.01 260.43-136.81 368.2-236.2 368.2-82.18 0-152.59-89.75-152.59-241.65 0-151.06 56.94-310.25 142.22-395.53 42.59-42.59 91.23-67.38 144.38-67.38 73.56 0 132.47 43.51 132.47 130.6 0 57.56-24.16 121.45-68.31 165.6-65.54 65.54-160.89 94.87-275.3 113.87l5.71-62.24c26.86 11.31 51.26 19.93 75.95 19.93 47.04 0 87.08-9.95 115.23-38.1 35.72-35.72 50.41-109.13 50.41-182.98 0-78.08-24.72-131.43-64.24-131.43-69.15 0-162.72 190.61-162.72 382.94 0 143.14 45.76 225.82 106.99 225.82 55.13 0 134.39-56.88 182.17-287.65zm259.77-324.08h121.77v3.83l-127.33 42.1-70.1 401.96c-20.46 116.74-7.71 169.49 20.49 169.49 27.17 0 59.43-35.84 97.83-179.8h3.83c-33.23 184.63-92.78 254.7-153.02 254.7-53.87 0-93.21-56.16-64.84-218.75l52.12-296.68c18-102.77 15.77-132.25 2.03-172.62l131.11-181.8zm306 0h121.77v3.83l-127.33 42.1-70.1 401.96c-20.46 116.74-7.71 169.49 20.49 169.49 27.17 0 59.43-35.84 97.83-179.8h3.83c-33.23 184.63-92.78 254.7-153.02 254.7-53.87 0-93.21-56.16-64.84-218.75l52.12-296.68c18-102.77 15.77-132.25 2.03-172.62l131.11-181.8zm498.23 324.08c-27.01 260.43-136.81 368.2-236.2 368.2-82.18 0-152.59-89.75-152.59-241.65 0-151.06 56.94-310.25 142.22-395.53 42.59-42.59 91.23-67.38 144.38-67.38 73.56 0 132.47 43.51 132.47 130.6 0 57.56-24.16 121.45-68.31 165.6-65.54 65.54-160.89 94.87-275.3 113.87l5.71-62.24c26.86 11.31 51.26 19.93 75.95 19.93 47.04 0 87.08-9.95 115.23-38.1 35.72-35.72 50.41-109.13 50.41-182.98 0-78.08-24.72-131.43-64.24-131.43-69.15 0-162.72 190.61-162.72 382.94 0 143.14 45.76 225.82 106.99 225.82 55.13 0 134.39-56.88 182.17-287.65zm42.35 369.34l113.08-645.69-55.03-27.31 155.32-32.7-57.83 315.92c69.83-280.69 148.82-315.92 199.55-315.92 14.67 0 35.56 7 50.99 17.8l-85.75 314.39h-3.82c20.95-194.34-4.08-240.19-30.94-240.19-32.66 0-100.32 59.28-177.15 496.68v94.18zm0 0"/></svg>