<svg width="4107" height="1100.002" xmlns="http://www.w3.org/2000/svg"><path d="M235.71 819.432v-374.31c14.17-26.2 33.15-43.95 51.13-43.95 77.89 0 135.06 156.73 135.06 327.72 0 163.29-46.81 212.71-83.48 212.71-32.08 0-68.39-48.56-102.71-122.17zm7.58-769.01L16.58 82.682c41.53 21.9 50.13 42.79 50.13 93.89v774.95c45.97 21.06 103.07 32.06 160.75 32.06 202.14 0 352.15-183.65 352.15-439.71 0-185.13-83.96-273.45-170.41-273.45-86.71 0-152.52 79.53-173.83 158.94zm392.85 605.58c0 199.82 105.48 327.58 241.46 327.58 133.24 0 223.65-114.71 246.01-304.81l-5.95-1.31c-40.38 128.39-96.49 163.76-154.9 163.76-103.57 0-174.83-115.76-174.83-355.58 0-136.94 33.04-184.42 68.23-184.42 50.06 0 100.67 133.75 100.67 287.52l29.23-29.47-202.14 43.31v8.68l340.54 53.11c5.94-37.04 8.26-61.22 8.26-91.69 0-187.53-89.59-303.57-218.2-303.57-149.27 0-278.38 161.44-278.38 386.89zm760-315.33v312.02c0 116.86 23.34 171.46 78.93 171.46 18.74 0 36.74-19.78 56.03-77.08-36.17 145.54-107 236.51-180.51 236.51-74.33 0-123.45-57.58-123.45-221.49v-349.4c0-77.33-13.03-96.57-50.14-125.69h50.45l154.37-201.68 14.32 201.68h141.33v7.26zm155.63-53.67l153.12 563.96 24.63 116.04h122.43c12-51.47 25.65-113.28 43.57-180.01l64.12-245.01 76.27 307.26 18.4 117.76h134.34c9-53.18 19.34-102.47 35.26-161.59l138.18-518.41h-151.14c19.82 156.52 40.17 366.43-7.64 541.23l-122.55-460.93 9.25-80.3h-186.98c22.38 204.48 9.92 366.33-34.74 542.26l-110.32-457.83 8.7-84.43zm846.37 369c0 199.82 105.48 327.58 241.46 327.58 133.24 0 223.65-114.71 246.01-304.81l-5.95-1.31c-40.38 128.39-96.49 163.76-154.9 163.76-103.57 0-174.83-115.76-174.83-355.58 0-136.94 33.04-184.42 68.23-184.42 50.06 0 100.67 133.75 100.67 287.52l29.23-29.47-202.14 43.31v8.68l340.54 53.11c5.94-37.04 8.26-61.22 8.26-91.69 0-187.53-89.59-303.57-218.2-303.57-149.27 0-278.38 161.44-278.38 386.89zm556 0c0 199.82 105.48 327.58 241.46 327.58 133.24 0 223.65-114.71 246.01-304.81l-5.95-1.31c-40.38 128.39-96.49 163.76-154.9 163.76-103.57 0-174.83-115.76-174.83-355.58 0-136.94 33.04-184.42 68.23-184.42 50.06 0 100.67 133.75 100.67 287.52l29.23-29.47-202.14 43.31v8.68l340.54 53.11c5.94-37.04 8.26-61.22 8.26-91.69 0-187.53-89.59-303.57-218.2-303.57-149.27 0-278.38 161.44-278.38 386.89zm591.97 266.61l-50.14 44.39h269.27c-37.76-29.13-50.13-46.39-50.13-96.76v-397.19c30.69-46.66 55.2-60.9 77.76-60.9 54.86 0 80.77 60.12 80.77 168.05v342.41l-43.56 44.39h262.69c-37.76-29.13-50.13-46.39-50.13-96.76v-407.06c0-137.21-51.24-192.76-125.28-192.76-83.1 0-154.65 85.5-202.25 186.24l7.26-186.24-226.4 35.55c40.88 18.61 50.14 39.5 50.14 93.88zm0 0"/></svg>