<svg width="3046.82" height="1100.002" xmlns="http://www.w3.org/2000/svg"><path d="M276.87 84.672l-110.68 23.76-11.57 147.62-111.23 626.18L0 957.292c40.87 12.71 78.08 17.99 114.98 17.99 95.33 0 169.87-40.79 234.06-106.35 105.86-107.45 167.75-287.6 167.75-434.65 0-110.54-33.11-163.33-89.19-163.33-25.56 0-53.35 11.82-80.92 39.39-52.58 52.57-118.7 179.28-188.25 433.99zm91.95 257.55c27.09 0 47.12 69.38 47.12 154.62 0 150.87-61.84 333.68-119.18 391.03-28.84 28.84-54.05 47.5-97.23 47.5-29.55 0-57.86-6.11-75.55-14.04 105.31-428.62 196.64-579.11 244.84-579.11zm564.22 264.86c-27.01 260.43-136.81 368.2-236.2 368.2-82.18 0-152.59-89.75-152.59-241.65 0-151.06 56.94-310.25 142.22-395.53 42.59-42.59 91.23-67.38 144.38-67.38 73.56 0 132.47 43.51 132.47 130.6 0 57.56-24.16 121.45-68.31 165.6-65.54 65.54-160.89 94.87-275.3 113.87l5.71-62.24c26.86 11.31 51.26 19.93 75.95 19.93 47.04 0 87.08-9.95 115.23-38.1 35.72-35.72 50.41-109.13 50.41-182.98 0-78.08-24.72-131.43-64.24-131.43-69.15 0-162.72 190.61-162.72 382.94 0 143.14 45.76 225.82 106.99 225.82 55.13 0 134.39-56.88 182.17-287.65zm555.51-336.36l-105.97 22.85v82.26c-45.3 271.55-103.19 414.37-156.94 468.12-18.49 18.48-36.72 26.8-53.61 26.8-54.87 0-75.99-75.45-75.99-157.91 0-140.39 73.99-268.42 161.41-442.12l-193.31 58.23 100.03 77.41c-71.03 98.22-163.44 246.24-163.44 390.23 0 103.06 45.52 148.61 102.25 148.61 34.34 0 71.05-17.06 105.24-51.25 54.67-54.67 97.7-145.71 129.65-266.28l-41.09 240.47c-25.95 149.35-114.34 185.96-178.15 185.96-58.3 0-108.54-40.76-130.4-177.67h-3.82l-47.15 182.71c46.31 12.15 91.38 16.14 124.54 16.14 96.5 0 168.57-32.74 230.14-94.31 62.59-62.59 97.53-130.81 116.2-239.37zm29.15 475.95c0 148.54 64.2 228.61 152.5 228.61 156.68 0 290.57-203.92 290.57-474.81 0-152.87-64.89-229.75-151.82-229.75-156.67 0-291.25 204.61-291.25 475.95zm96.09 16.82c0-231.24 89.98-481.86 177.22-481.86 47.9 0 73.67 67.76 73.67 201.57 0 231.23-90.43 481.17-177.67 481.17-47.67 0-73.22-69.59-73.22-200.88zm374.6 210.65l112.4-643.41-53.49-27.31 155.32-32.7-70.93 403.42c51.43-185.17 125.65-304.12 182.14-360.61 28.94-28.93 59.16-42.81 88.4-42.81 63.11 0 92.99 70.05 67.71 214.89l-74.98 427.75 53.49 27.3-155.31 32.71 79.69-452.09c18.37-105.16 9.2-179.52-27.49-179.52-52.75 0-171.63 150.64-247.07 521.13l.23 88.4zm674.68-70.36c-30.17 0-44.8-44.68-44.8-130.69 0-154.91 60.06-347.61 116.95-404.5 28.84-28.84 53.28-45.96 96.46-45.96 29.54 0 57.63 7.94 73.77 15.87-100.11 415.15-194.4 565.28-242.38 565.28zm320.39-614.73c-22.79-4.37-45.13-6.05-66.69-6.05-95.1 0-170.56 37.83-233.14 101.78-105.86 107.46-166.21 279.89-166.21 426.94 0 110.54 33.11 163.33 89.18 163.33 25.57 0 53.36-11.82 80.93-39.39 52.57-52.57 118.69-178.51 188.25-433.21l-85.38 472.06 157.05-33.16-53.49-27.31 152.86-863.32-107.19 23.3c0 37.05-2.32 94.59-10.04 133.95l-20.22 108.19zm0 0"/></svg>