<svg width="3303.31" height="1100.002" xmlns="http://www.w3.org/2000/svg"><path d="M320.48 76.702l-151.69 30.04-8.81 152.98-111.41 624.69L0 954.672c50.48 17.33 94.35 24.46 138.46 24.46 105.3 0 196.48-44.67 269.72-120.39 104.93-107.83 163.5-282.44 163.5-420.61 0-110.17-36.44-166.85-98.24-166.85-29.26 0-60.94 13.31-92.2 44.57-49.8 49.8-112.78 164.13-175.5 389.45zm66.83 291.17c26.34 0 43.98 64.02 43.98 142.98 0 143.48-56.85 334.24-111.24 388.63-23.85 23.85-45.18 39-80.42 39-29.17 0-56.93-9.44-75.17-22.18 94.22-399.97 178.52-548.43 222.85-548.43zm633.87 229.93c-20.55 256.74-134.22 381.33-255.79 381.33-91.24 0-170.89-85.5-170.89-244.61 0-146.26 55.29-297.5 142.42-384.63 50.34-50.35 108.41-79.02 173.02-79.02 83.71 0 143.37 45.54 143.37 131.89 0 61.26-29.16 121.83-67.76 160.44-71.63 71.63-174.57 104.47-287.68 123.47l10.33-72.95c25.93 17.21 49.04 31.19 74.28 31.19 38.17 0 69.35-8.28 91.96-30.89 33.87-33.87 49.11-116.52 49.11-195.91 0-77.35-22.87-127.74-57.96-127.74-63.61 0-143.87 185.43-143.87 364.28 0 144.07 52.04 216.76 113.46 216.76 62.52 0 139.56-60.02 180.69-273.61zm591.54-326.93l-142.37 28.39v97.04c-37.57 233.35-88.78 364.48-138.28 413.98-16.46 16.46-32.96 24.22-48.44 24.22-47.48 0-65.45-65.28-65.45-141.65 0-128.57 63.45-260.65 136.65-421.98l-209.76 75.41 97.63 86.65c-68.63 87.87-159.74 222.96-159.74 356.42 0 98.26 47.54 143.43 106.5 143.43 37.85 0 79.17-18.71 115.96-55.5 51.15-51.15 91.78-133.32 122.06-240.58l-40.35 234.37c-25.48 145.91-100.84 177.82-155.61 177.82-53.67 0-114.63-47.04-152.56-174.15h-5.31l-58.6 187.33c44.32 12.35 86.02 17.06 124.17 17.06 105 0 189.26-34.96 265.07-110.76 70.34-70.35 112.72-141.15 135.78-274.48zm24.61 467.83c0 154.63 72.05 240.43 178 240.43 166.57 0 311.26-198.2 311.26-465.76 0-162.48-73.29-242.5-176.76-242.5-166.57 0-312.5 199.43-312.5 467.83zm129.35 41.76c0-224.96 85.91-497.94 166.87-497.94 40.26 0 63.69 57.05 63.69 188.26 0 224.96-86.74 496.7-167.69 496.7-39.85 0-62.87-60.35-62.87-187.02zm385.89 196.61l111.11-635.66-51.46-33.21 188.76-37.33-65.19 372.2c45.29-160.21 111.6-266.98 166.06-321.44 33.74-33.74 69.81-50.76 104.11-50.76 66.43 0 99.46 71.72 72.33 228.56l-70.92 406.5 51.46 33.22-188.76 37.33 73.78-417.35c19.48-110.15 11.78-192.09-25.46-192.09-48.5 0-153.52 143.07-218.8 477.53l.41 104.1zm754.24-94.94c-28.7 0-42.22-45.24-42.22-124.78 0-145.11 55.26-342.44 108.83-396 23.84-23.85 44.58-37.83 79.82-37.83 29.18 0 56.52 12.74 73.59 25.48-86.44 375.61-176.11 533.13-220.02 533.13zm325.56-589.41c-26.67-5.48-52.52-7.72-77.78-7.72-104.89 0-197.72 39.3-268.07 112.13-104.93 107.83-162.32 276.57-162.32 414.74 0 110.17 36.43 166.85 98.24 166.85 29.26 0 60.93-13.31 92.19-44.57 49.81-49.8 112.79-163.54 175.5-388.87l-80.02 433.26 192.72-38.15-51.46-33.22 151.94-856.3-143.79 29.22c0 28.17-1.76 102.34-7.63 132.28l-20.41 110.78zm0 0"/></svg>