<svg width="1943" height="1100.002" xmlns="http://www.w3.org/2000/svg"><path d="M459 50.002l-282 50v170l-112 620-65 55c81 32 146 45 213 45 137 0 281-57 383-165 102-109 150-266 150-376 0-109-47-178-127-178-41 0-85 18-128 61-41 41-94 116-135 248zm-13 398c24 0 34 47 34 106 0 120-41 336-86 381-8 8-17 12-27 12-28 0-54-20-74-48 59-309 121-451 153-451zm652-177l-295 52 45 52-60 343c-36 195 11 272 88 272 49 0 103-28 150-75 48-48 91-117 117-199l-47 274 295-52-45-52 110-616-265 46v146c-51 260-94 352-130 352-39 0-42-106-19-232zm724 19h121v10l-142 56-40 226c-22 126-27 232 12 232 21 0 44-15 77-98h10c-34 180-136 274-241 274-94 0-148-77-115-272l39-228c18-102 15-150-8-195l287-198zm0 0"/></svg>