<svg width="1225" height="1100.002" xmlns="http://www.w3.org/2000/svg"><path d="M134.54 881.822v-455.7c24.34-59.54 63.1-103.29 100.87-103.29 71.11 0 138.44 139.77 138.44 330.53 0 223.21-76.19 278.29-133.77 278.29-37.17 0-72.36-21.44-105.54-49.83zm1.92-831.74L10.92 77.822c53.97 15.1 58.62 29.21 58.62 65.61v793.05c44.28 24.44 86.68 35.44 124 35.44 124.67 0 236.85-161.6 236.85-421.05 0-193.61-79.7-280.79-154.59-280.79-68.04 0-121.98 70.47-142.17 134.06zm465.15 362.83v323.23c0 124.32 39.68 171.54 86.71 171.54 36.69 0 72.03-29.32 125.52-137.97v-405.81c0-36.87-4.74-50.98-58.62-65.62l126.36-28.2-2.74 142.83v466.58c0 36.31 4.64 49.96 58.61 65.16l-126.63 27.27 3.02-186.4c-43.65 110.72-107.85 185.94-176.25 185.94-55.96 0-100.98-48.2-100.98-177.49v-430.07c0-36.87-4.73-50.98-58.61-65.62l126.35-28.2zm484-98.58v396.23c0 149.64 23.91 200.29 54.07 200.29 23.26 0 41.26-47.48 57.72-186.17-5.08 179.46-44.25 247.24-87.24 247.24-53.42 0-89.55-51.92-89.55-252.01v-353.35c0-56.42-14.72-69.44-58.61-85.56h57.8l52.63-202.82 13.18 202.82h120.42v2.74zm0 0"/></svg>