<svg width="1609" height="1100.002" xmlns="http://www.w3.org/2000/svg"><path d="M235.71 819.432v-374.31c14.17-26.2 33.15-43.95 51.13-43.95 77.89 0 135.06 156.73 135.06 327.72 0 163.29-46.81 212.71-83.48 212.71-32.08 0-68.39-48.56-102.71-122.17zm7.58-769.01L16.58 82.682c41.53 21.9 50.13 42.79 50.13 93.89v774.95c45.97 21.06 103.07 32.06 160.75 32.06 202.14 0 352.15-183.65 352.15-439.71 0-185.13-83.96-273.45-170.41-273.45-86.71 0-152.52 79.53-173.83 158.94zm591.85 404.67v202.27c0 107.93 19.32 168.71 78.79 168.71 22.56 0 47.72-12.93 79.73-58.28v-367.94c0-54.38-9.26-75.27-50.13-93.88l226.39-35.55-7.26 184.67v408.92c0 50.44 8.61 68.04 50.14 90.59l-228.37 28.98 9.23-201.1c-47.6 109.03-119.15 197.81-202.25 197.81-74.04 0-125.27-55.55-125.27-192.76v-387.68c0-54.38-9.26-75.27-50.14-93.88l226.4-35.55zm625-114.42v312.02c0 116.86 23.34 171.46 78.93 171.46 18.74 0 36.74-19.78 56.03-77.08-36.17 145.54-107 236.51-180.51 236.51-74.33 0-123.45-57.58-123.45-221.49v-349.4c0-77.33-13.03-96.57-50.14-125.69h50.45l154.37-201.68 14.32 201.68h141.33v7.26zm0 0"/></svg>