<svg width="1128.22" height="1100.002" xmlns="http://www.w3.org/2000/svg"><path d="M320.48 76.702l-151.69 30.04-8.81 152.98-111.41 624.69L0 954.672c50.48 17.33 94.35 24.46 138.46 24.46 105.3 0 196.48-44.67 269.72-120.39 104.93-107.83 163.5-282.44 163.5-420.61 0-110.17-36.44-166.85-98.24-166.85-29.26 0-60.94 13.31-92.2 44.57-49.8 49.8-112.78 164.13-175.5 389.45zm66.83 291.17c26.34 0 43.98 64.02 43.98 142.98 0 143.48-56.85 334.24-111.24 388.63-23.85 23.85-45.18 39-80.42 39-29.17 0-56.93-9.44-75.17-22.18 94.22-399.97 178.52-548.43 222.85-548.43zm739.41-97l-142.37 28.39v97.04c-37.57 233.35-88.78 364.48-138.28 413.98-16.46 16.46-32.96 24.22-48.44 24.22-47.48 0-65.45-65.28-65.45-141.65 0-128.57 63.45-260.65 136.65-421.98l-209.76 75.41 97.63 86.65c-68.63 87.87-159.74 222.96-159.74 356.42 0 98.26 47.54 143.43 106.5 143.43 37.85 0 79.17-18.71 115.96-55.5 51.15-51.15 91.78-133.32 122.06-240.58l-40.35 234.37c-25.48 145.91-100.84 177.82-155.61 177.82-53.67 0-114.63-47.04-152.56-174.15h-5.31l-58.6 187.33c44.32 12.35 86.02 17.06 124.17 17.06 105 0 189.26-34.96 265.07-110.76 70.34-70.35 112.72-141.15 135.78-274.48zm0 0"/></svg>