<svg width="1549" height="1100.002" xmlns="http://www.w3.org/2000/svg"><path d="M31.74 649.042c0-227.32 110.96-376.11 270.83-376.11 56.63 0 106.3 18.35 140.63 34.59l-76 371.05h-5.31c-30.06-259.31-83.78-371.5-141.28-371.5-41.37 0-81.54 73.26-81.54 214.23-1.18 224.18 77.19 345.16 168.43 345.16 36.22 0 100-24.37 135.28-183.79-16.52 197.76-87.24 296.05-202 296.05-116.95 0-209.04-120.26-209.04-329.68zm765.5-2.89l-.59 163.52c-18.17 30.24-53.52 81.96-93.52 81.96-37.61 0-77.63-33.41-77.63-126.89 0-48.81 11.52-90.24 35.91-114.63 15.98-15.98 44.7-29.54 75.42-29.54 15.41 0 35.58 9.02 60.41 25.58zm123-212.61c0-119.69-51.24-162.67-112.41-162.67-80.63 0-149.31 100.26-198.96 264.28l49.43-250.15H520.65l62.18 380.43h5.3c32.67-215.3 95.22-281.34 137.11-281.34 40.76 0 71.41 35.58 71.41 102.34v93.37c-125.97 37.59-186.04 69.59-226.22 109.77-40.86 40.86-59.69 91.15-59.69 147.65 0 88.5 51.3 141.91 115.04 141.91 76.76 0 138-84.41 170.87-155.28l-6.37 155.28 183.76-28.24c-46.91-19.37-53.8-35.26-53.8-79.59zm132.8 494.66l-53.8 36.8h231.61c-40.46-23.5-53.81-38.8-53.81-90.15v-402.33c40.48-73.56 69.63-94.41 98.31-94.41 51.19 0 83.45 54.5 83.45 169.52v380.57l-49.67 36.8h227.48c-40.46-23.5-53.81-38.8-53.81-90.15v-417.83c0-133.78-48.54-186.15-114.76-186.15-76.74 0-145.11 80.85-191 183.54l5.31-183.54-183.11 32.37c46.5 16.89 53.8 34.85 53.8 81.65zm0 0"/></svg>