<svg width="2550" height="1100.002" xmlns="http://www.w3.org/2000/svg"><path d="M38.15 648.892c0-234.06 92.36-378.35 211.19-378.35 46.05 0 88.99 19.63 115.3 34.91l-46.5 330.64h-2.74c1.03-227.24-49.8-334.63-114.67-334.63-51.95 0-107.52 81.6-107.52 257.53-1.81 239.56 72.39 351.24 133.17 351.24 40.7 0 114.75-34.95 138.16-267.79-3.69 242.97-71.52 329.39-157.75 329.39-98.36 0-168.64-113.85-168.64-322.94zm673.38-30.15l-.91 180.2c-18.82 44.03-70.2 122.36-124.95 122.36-32.47 0-81.79-33.09-81.79-139.4 0-53.61 13.44-104.03 42.96-133.55 21.43-21.43 62.01-40.76 104.59-40.76 15.1 0 35.91 3.57 60.1 11.15zm64-207.47c0-107.51-50.28-141.19-97.35-141.19-70.04 0-131.98 93.84-165.6 252.41l28.91-241.49h-77.37l33.31 374.66h2.74c25.94-256.99 99.71-326.88 139.36-326.88 41.72 0 71.09 35.91 71.09 103.63v133.45c-99.19 23.71-160.39 55.16-201.21 95.98-44.07 44.07-62.26 99.43-62.26 161.12 0 95.87 48.74 148.96 104.14 148.96 77.73 0 138-98.84 159.33-158.16l-2.2 158.16 125.72-27.27c-53.97-15.2-58.61-28.85-58.61-65.16zm141.36 522.87l-58.61 26.86h182.23c-43.99-16.13-58.62-28.86-58.62-81.49v-409.06c53.31-108.84 88.55-138.35 125.24-138.35 46.39 0 86.98 47.13 86.98 171.45v430.59l-57.69 26.86h181.31c-43.99-16.13-58.62-28.86-58.62-81.49v-431.94c0-129.29-45.01-177.49-100.97-177.49-68.4 0-132.6 74.75-176.25 180.01l2.74-180.01-126.35 28.2c53.87 14.64 58.61 28.75 58.61 65.62zm484 0l-58.61 26.86h182.23c-43.99-16.13-58.62-28.86-58.62-81.49v-409.06c53.31-108.84 88.55-138.35 125.24-138.35 46.39 0 86.98 47.13 86.98 171.45v430.59l-57.69 26.86h181.31c-43.99-16.13-58.62-28.86-58.62-81.49v-431.94c0-129.29-45.01-177.49-100.97-177.49-68.4 0-132.6 74.75-176.25 180.01l2.74-180.01-126.35 28.2c53.87 14.64 58.61 28.75 58.61 65.62zm449.26-283.16c0 203.84 81.36 320.94 179.2 320.94 108.02 0 205.39-146.55 205.39-381.83 0-202.64-82.46-320.01-179.47-320.01-107.93 0-205.12 146-205.12 380.9zm60.37-98.31c0-185.35 50.58-244.16 109.07-244.16 95.66 0 154.69 167.7 154.69 380.82 0 183.04-50.49 244.16-109.16 244.16-95.57 0-154.6-167.7-154.6-380.82zm500.09-238.34v396.23c0 149.64 23.91 200.29 54.07 200.29 23.26 0 41.26-47.48 57.72-186.17-5.08 179.46-44.25 247.24-87.24 247.24-53.42 0-89.55-51.92-89.55-252.01v-353.35c0-56.42-14.72-69.44-58.61-85.56h57.8l52.63-202.82 13.18 202.82h120.42v2.74zm0 0"/></svg>