<svg width="2735" height="1100.002" xmlns="http://www.w3.org/2000/svg"><path d="M35.43 649.262c0-231.21 100.24-377.4 236.46-377.4 50.53 0 96.33 19.09 126.03 34.77l-59 347.76h-3.82c-12.14-240.82-64.2-350.25-125.95-350.25-47.47 0-96.51 78.07-96.51 239.19-1.54 233.04 74.43 348.66 148.11 348.66 38.8 0 108.5-30.47 136.95-232.2-9.13 223.82-78.19 315.26-176.5 315.26-106.24 0-185.77-116.56-185.77-325.79zm712.75-18.6l-.77 173.13c-18.54 38.19-63.13 105.24-111.63 105.24-34.65 0-80.03-33.23-80.03-134.1 0-51.57 12.63-98.18 39.98-125.53 19.12-19.12 54.67-36.01 92.23-36.01 15.22 0 35.77 5.88 60.22 17.27zm89-209.65c0-112.67-50.68-150.29-103.72-150.29-74.54 0-139.33 96.56-179.74 257.44l37.61-245.16H488.41l45.55 377.11h3.82c28.8-239.33 97.81-307.59 138.4-307.59 41.32 0 71.23 35.77 71.23 103.09v116.47c-110.54 29.58-171.26 61.27-211.8 101.81-42.72 42.72-61.18 95.93-61.18 155.41 0 92.75 49.83 145.98 108.77 145.98 77.31 0 138-92.73 164.21-156.94l-3.96 156.94 150.31-27.68c-50.98-16.97-56.58-31.57-56.58-71.27zm137.08 510.91l-56.58 31.08h203.16c-42.49-19.25-56.58-33.08-56.58-85.16v-406.21c47.87-93.89 80.53-119.73 113.83-119.73 48.42 0 85.49 50.25 85.49 170.63v409.39l-54.3 31.08h200.87c-42.49-19.25-56.57-33.08-56.57-85.16v-425.96c0-131.2-46.51-181.16-106.82-181.16-71.93 0-137.9 77.33-182.5 181.51l3.83-181.51-150.41 29.96c50.75 15.6 56.58 31.34 56.58 72.42zm518 0l-56.58 31.08h203.16c-42.49-19.25-56.58-33.08-56.58-85.16v-406.21c47.87-93.89 80.53-119.73 113.83-119.73 48.42 0 85.49 50.25 85.49 170.63v409.39l-54.3 31.08h200.87c-42.49-19.25-56.57-33.08-56.57-85.16v-425.96c0-131.2-46.51-181.16-106.82-181.16-71.93 0-137.9 77.33-182.5 181.51l3.83-181.51-150.41 29.96c50.75 15.6 56.58 31.34 56.58 72.42zm482.17-280.43c0 205.05 89.24 323.79 197.14 323.79 118.34 0 225.09-147.37 225.09-383.05 0-203.6-91.98-321.51-197.81-321.51-118.12 0-224.42 146-224.42 380.77zm85.92-110.54c0-175.57 45.55-234.11 98.88-234.11 89.27 0 151.29 181.96 151.29 398.21 0 169.86-45.32 234.11-99.11 234.11-89.04 0-151.06-181.96-151.06-398.21zm533.23-219.73v375.99c0 141.76 23.77 193.36 60.04 193.36 22.17 0 40.17-40.82 57.31-159.95-12.55 171.3-59.33 244.66-109.66 244.66-58.44 0-97.69-53.28-97.69-244.67v-352.4c0-61.45-14.32-75.96-56.58-95.21h56.03l77.09-202.54 13.46 202.54h125.44v3.83zm0 0"/></svg>