<svg width="2626.92" height="1100.002" xmlns="http://www.w3.org/2000/svg"><path d="M23.08 741.232c.09 154.12 63.8 230.69 129.88 230.69 72.76 0 171.69-89 216.22-331.79h-2.73c-62.42 232.58-142.18 269.73-176.66 269.73-43.91 0-100.64-64.06-100.64-232.1 0-240.53 103.26-392.43 180.27-392.43 54.54 0 85.55 105.14 52.88 352.24h2.74l95.93-326.91c-21.74-15.8-65.29-40.58-115.55-40.58-155.54 0-282.34 214.75-282.34 471.15zm826.93-379.32l38.67-78.6c-33.8-9.31-66.13-13.23-97.73-13.23-87.99 0-150.3 37.94-207.83 96.02-106.54 107.18-170.88 291.41-170.88 444.98 0 110.81 30.67 160.75 82.53 160.75 22.85 0 47.79-10.74 72.64-35.59 54.61-54.61 123.04-190.42 197.62-466.73l-92.95 501.51 131.74-28.59-54.98-23.86zm-319.29 557.26c-31.26 0-47.61-44.27-47.61-135.04 0-162.66 66.41-361.41 125.93-420.93 32.51-32.51 59.66-51.94 108.69-51.94 29.81 0 58.54 3.66 75.81 8.07-113.45 449.68-211.76 599.84-262.82 599.84zm344.91 52.29l113.35-649.12-54.98-22.95 130.72-29.31-75.13 426.38c55.93-203.52 135.98-331.43 193.96-389.41 25.4-25.4 51.32-36.97 76.85-36.97 60.67 0 88.24 68.83 64.31 204.83l-77.97 443.38 54.99 22.95-130.72 29.31 84.04-477.63c17.55-101.49 7.29-170.28-28.98-170.28-55.88 0-184.95 156.21-267.87 553.2l.09 76.85zm491 0l113.35-649.12-54.98-22.95 130.72-29.31-75.13 426.38c55.93-203.52 135.98-331.43 193.96-389.41 25.4-25.4 51.32-36.97 76.85-36.97 60.67 0 88.24 68.83 64.31 204.83l-77.97 443.38 54.99 22.95-130.72 29.31 84.04-477.63c17.55-101.49 7.29-170.28-28.98-170.28-55.88 0-184.95 156.21-267.87 553.2l.09 76.85zm512.72-219.45c0 144.05 58.43 219.91 133.75 219.91 149.4 0 275.35-208.13 275.35-481.47 0-145.8-58.7-220.37-133.47-220.37-149.4 0-275.63 208.41-275.63 481.93zm71.63-1.53c0-235.86 92.97-470.03 184.83-470.03 53.51 0 81.01 75.64 81.01 211.34 0 235.86-93.15 469.76-185.01 469.76-53.42 0-80.83-76.38-80.83-211.07zm554.04-469.48h121.9v2.74l-124.75 39.66-75.4 432.94c-20.18 115.11-4.31 158.48 21.99 158.48 28.26 0 62.15-39.5 101.5-194.21h2.74c-33.09 185.45-85.17 251.31-137.53 251.31-46.81 0-83.56-52.49-56.01-209.37l54.43-308.78c18-102.91 15.91-129.12 3.8-168.68l103.66-178.94zm0 0"/></svg>