<svg width="4872.28" height="1100.002" xmlns="http://www.w3.org/2000/svg"><path d="M31.16 566.052c0-257.2 158.98-475.97 376.03-475.97 44.6 0 137.19 9.74 202.17 39.14l-130.08 399.44h-7.26c-44.06-309.44-116.87-402-168.33-402-52.62 0-88.14 87.35-88.14 252.6 0 254.26 82.71 439.37 197.99 439.37 86.4 0 173.09-105.39 179.25-304.91h7.26c0 329.94-126.51 470.2-281.74 470.2-158.03 0-287.15-152.5-287.15-417.87zm666.63 356.56v-527.36c0-52.41-9.26-73.3-50.13-95.85l226.39-28.98-7.26 185.93v413.89c0 56.95 12.37 74.21 50.14 96.76H647.66zm77.82-689.44c-70.06 0-112.1-36.47-112.1-83.49 0-47.7 40.72-86.79 108.81-86.79 68.75 0 114.73 39.09 114.73 86.79 0 47.02-44.67 83.49-111.44 83.49zm214.84 689.44v-522.76c0-54.38-9.26-75.27-50.13-93.88l226.39-35.55-5.31 271.88c22.2-168.35 88.99-267.27 164.4-267.27 16 0 34.42 4.37 52.48 17.19l-65.09 412.51h-7.26c-20.15-174.43-50.15-249.5-80.47-249.5-32.05 0-66.01 73.82-66.01 228.87v186.14c0 50.37 12.37 67.63 50.14 96.76H940.32zm411.4-274.5c0-222.19 125.14-374.4 316.31-374.4 64.7 0 119.51 17.37 159.95 34.34l-98.5 401.86h-7.26c-53.78-283.76-109.7-399.62-161.58-399.62-33.3 0-61.73 66.9-61.73 181.22-.69 212.44 80.86 340.51 195.34 340.51 32.79 0 88.75-16.3 133.08-119.71-26.31 163.28-99.23 270.61-235.75 270.61-131.14 0-239.86-125.15-239.86-334.81zm729.29-193.02v202.27c0 107.93 19.32 168.71 78.79 168.71 22.56 0 47.72-12.93 79.73-58.28v-367.94c0-54.38-9.26-75.27-50.13-93.88l226.39-35.55-7.26 184.67v408.92c0 50.44 8.61 68.04 50.14 90.59l-228.37 28.98 9.23-201.1c-47.6 109.03-119.15 197.81-202.25 197.81-74.04 0-125.27-55.55-125.27-192.76v-387.68c0-54.38-9.26-75.27-50.14-93.88l226.4-35.55zm455.65 467.52l-50.13 44.39h269.27c-37.77-22.55-50.14-39.81-50.14-96.76v-632.52l8.58-187.3-227.71 28.98c40.87 22.55 50.13 43.44 50.13 95.85zm568.43-256.6l-.34 150.8c-17.68 19.72-40.8 51.14-69.55 51.14-41.53 0-74.45-33.66-74.45-117.35 0-45.14 10.05-79.73 30.53-100.2 11.82-11.82 31.49-20.99 53.16-20.99 15.65 0 35.34 13.18 60.65 36.6zm168-216.53c0-128.99-51.97-179.06-123.9-179.06-88.71 0-162.52 105.16-224.4 273.34l65.09-256.76h-183.63l84.19 384.84h7.26c37.81-183.51 91.79-246.62 135.39-246.62 40.03 0 71.66 35.34 71.66 101.37v62.8c-146.4 48.17-205.61 80.59-245.29 120.27-38.43 38.43-57.74 84.84-57.74 137.38 0 82.88 53.26 136.54 123.36 136.54 76.02 0 138-73.41 179.67-153.09l-9.55 153.09 228.03-28.98c-41.53-22.55-50.14-40.15-50.14-90.59zm121.23 473.13v-522.76c0-54.38-9.26-75.27-50.13-93.88l226.39-35.55-5.31 271.88c22.2-168.35 88.99-267.27 164.4-267.27 16 0 34.42 4.37 52.48 17.19l-65.09 412.51h-7.26c-20.15-174.43-50.15-249.5-80.47-249.5-32.05 0-66.01 73.82-66.01 228.87v186.14c0 50.37 12.37 67.63 50.14 96.76h-269.27zm411.4-271.84c0 208.91 114.14 332.81 253.8 332.81 150.98 0 287.36-149.95 287.36-386.92 0-206.61-122.04-326.24-255.78-326.24-150.32 0-285.38 146-285.38 380.35zm166.63-149.19c0-144.65 29.67-202.34 66.68-202.34 69.09 0 140.56 227.05 140.56 453.18 0 128.21-29.01 202.34-67.34 202.34-68.43 0-139.9-227.05-139.9-453.18zm461.97 421.03v-522.76c0-54.38-9.26-75.27-50.13-93.88l226.39-35.55-5.31 271.88c22.2-168.35 88.99-267.27 164.4-267.27 16 0 34.42 4.37 52.48 17.19l-65.09 412.51h-7.26c-20.15-174.43-50.15-249.5-80.47-249.5-32.05 0-66.01 73.82-66.01 228.87v186.14c0 50.37 12.37 67.63 50.14 96.76h-269.27zm0 0"/></svg>