<svg width="3589.92" height="1100.002" xmlns="http://www.w3.org/2000/svg"><path d="M23.08 741.232c.09 154.12 63.8 230.69 129.88 230.69 72.76 0 171.69-89 216.22-331.79h-2.73c-62.42 232.58-142.18 269.73-176.66 269.73-43.91 0-100.64-64.06-100.64-232.1 0-240.53 103.26-392.43 180.27-392.43 54.54 0 85.55 105.14 52.88 352.24h2.74l95.93-326.91c-21.74-15.8-65.29-40.58-115.55-40.58-155.54 0-282.34 214.75-282.34 471.15zm405.27 10.78c0 144.05 58.43 219.91 133.75 219.91 149.4 0 275.35-208.13 275.35-481.47 0-145.8-58.7-220.37-133.47-220.37-149.4 0-275.63 208.41-275.63 481.93zm71.63-1.53c0-235.86 92.97-470.03 184.83-470.03 53.51 0 81.01 75.64 81.01 211.34 0 235.86-93.15 469.76-185.01 469.76-53.42 0-80.83-76.38-80.83-211.07zm368.56 220.98l81.75-18.77v-72.76c83.05-406.94 197.84-557.29 249.27-557.29 36.28 0 45.71 68.88 28.24 170.28l-83.85 478.54 81.75-18.77v-72.05c82.95-407.11 197.65-558.18 249.08-558.18 36.28 0 47.52 68.78 30.06 170.28l-84.13 478.74 128.81-29.31-53.97-28.59 77.42-438.85c24.11-136.01-3.19-204.84-63.85-204.84-26.05 0-52.1 11.66-77.32 36.88-55.26 55.26-118.58 186.89-174.53 389.6l41.05-227.74c23.18-131.29-3.76-198.55-64.42-198.55-25.68 0-51.82 11.75-77.32 37.25-55.26 55.26-119.04 186.7-174.9 389.22l76.15-426.47-130.74 29.49 54.06 26.38zm748 0l81.75-18.77v-72.76c83.05-406.94 197.84-557.29 249.27-557.29 36.28 0 45.71 68.88 28.24 170.28l-83.85 478.54 81.75-18.77v-72.05c82.95-407.11 197.65-558.18 249.08-558.18 36.28 0 47.52 68.78 30.06 170.28l-84.13 478.74 128.81-29.31-53.97-28.59 77.42-438.85c24.11-136.01-3.19-204.84-63.85-204.84-26.05 0-52.1 11.66-77.32 36.88-55.26 55.26-118.58 186.89-174.53 389.6l41.05-227.74c23.18-131.29-3.76-198.55-64.42-198.55-25.68 0-51.82 11.75-77.32 37.25-55.26 55.26-119.04 186.7-174.9 389.22l76.15-426.47-130.74 29.49 54.06 26.38zm1125.57-358.1c-31.77 263.16-138.71 358.56-221.79 358.56-75.53 0-139.15-92.87-139.15-239.47 0-154.6 58.17-319.63 142.09-403.55 36.88-36.88 78.59-58.82 123.32-58.82 66.08 0 124.45 42.01 124.45 129.64 0 54.85-20.49 121.19-68.72 169.42-61.05 61.04-150.84 87.8-266.19 106.8l2.31-54.36c27.54 6.96 52.89 11.64 77.17 11.64 53.56 0 100.13-11.17 132.36-43.4 37.07-37.08 51.35-103.7 51.35-173.47 0-78.63-26.08-134.15-68.86-134.15-73.23 0-176.57 194.41-176.57 396.67 0 142.46 41.14 232.47 102.23 232.47 49.69 0 130.59-54.57 183.26-297.98zm47.52 358.1l113.35-649.12-54.98-22.95 130.72-29.31-75.13 426.38c55.93-203.52 135.98-331.43 193.96-389.41 25.4-25.4 51.32-36.97 76.85-36.97 60.67 0 88.24 68.83 64.31 204.83l-77.97 443.38 54.99 22.95-130.72 29.31 84.04-477.63c17.55-101.49 7.29-170.28-28.98-170.28-55.88 0-184.95 156.21-267.87 553.2l.09 76.85zm678.39-690.46h121.9v2.74l-124.75 39.66-75.4 432.94c-20.18 115.11-4.31 158.48 21.99 158.48 28.26 0 62.15-39.5 101.5-194.21h2.74c-33.09 185.45-85.17 251.31-137.53 251.31-46.81 0-83.56-52.49-56.01-209.37l54.43-308.78c18-102.91 15.91-129.12 3.8-168.68l103.66-178.94zm0 0"/></svg>