<svg width="4151.13" height="1100.002" xmlns="http://www.w3.org/2000/svg"><path d="M19.87 735.612c.41 161.5 80.48 243.52 164.2 243.52 99.69 0 201.82-109.85 244.76-306.78h-5.31c-53.43 161.72-121.98 192.45-161.59 192.45-64.43 0-120.19-78.17-120.19-235.95 0-197.24 79.85-327.98 139.54-327.98 52.94 0 87.48 136.89 66.35 384.3h5.3l140.83-385.58c-24.3-11.63-69.78-28.72-117.48-28.72-212.93 0-356.41 220.85-356.41 464.74zm464.24 3.09c0 154.63 72.05 240.43 178 240.43 166.57 0 311.26-198.2 311.26-465.76 0-162.48-73.29-242.5-176.76-242.5-166.57 0-312.5 199.43-312.5 467.83zm129.35 41.76c0-224.96 85.91-497.94 166.87-497.94 40.26 0 63.69 57.05 63.69 188.26 0 224.96-86.74 496.7-167.69 496.7-39.85 0-62.87-60.35-62.87-187.02zm387.47 196.61l146.85-28.4v-99.69c72.79-354.68 162.57-481.94 208.55-481.94 37.24 0 41.21 82.35 22.15 192.09l-72.96 417.94 146.85-28.4v-103.47c72.37-351.96 161.74-478.98 207.72-478.98 37.24 0 42.39 81.93 23.32 192.08l-74.19 422.31 187.17-37.33-46.91-58.41 68.43-386.26c27.96-156.85-3.82-228.57-70.26-228.57-36.63 0-73.26 17.44-106.17 50.35-52.7 52.7-106.72 162.2-152.09 322.26l30.78-171.3c23.83-135.78-9.84-200.48-76.28-200.48-34.98 0-72.02 17.85-106.17 52-52.7 52.7-108.79 161.37-153.74 320.61l69.74-372.61-192.31 38.15 47.33 48.5zm862 0l146.85-28.4v-99.69c72.79-354.68 162.57-481.94 208.55-481.94 37.24 0 41.21 82.35 22.15 192.09l-72.96 417.94 146.85-28.4v-103.47c72.37-351.96 161.74-478.98 207.72-478.98 37.24 0 42.39 81.93 23.32 192.08l-74.19 422.31 187.17-37.33-46.91-58.41 68.43-386.26c27.96-156.85-3.82-228.57-70.26-228.57-36.63 0-73.26 17.44-106.17 50.35-52.7 52.7-106.72 162.2-152.09 322.26l30.78-171.3c23.83-135.78-9.84-200.48-76.28-200.48-34.98 0-72.02 17.85-106.17 52-52.7 52.7-108.79 161.37-153.74 320.61l69.74-372.61-192.31 38.15 47.33 48.5zm1304.03-379.27c-20.55 256.74-134.22 381.33-255.79 381.33-91.24 0-170.89-85.5-170.89-244.61 0-146.26 55.29-297.5 142.42-384.63 50.34-50.35 108.41-79.02 173.02-79.02 83.71 0 143.37 45.54 143.37 131.89 0 61.26-29.16 121.83-67.76 160.44-71.63 71.63-174.57 104.47-287.68 123.47l10.33-72.95c25.93 17.21 49.04 31.19 74.28 31.19 38.17 0 69.35-8.28 91.96-30.89 33.87-33.87 49.11-116.52 49.11-195.91 0-77.35-22.87-127.74-57.96-127.74-63.61 0-143.87 185.43-143.87 364.28 0 144.07 52.04 216.76 113.46 216.76 62.52 0 139.56-60.02 180.69-273.61zm42.39 379.27l111.11-635.66-51.46-33.21 188.76-37.33-65.19 372.2c45.29-160.21 111.6-266.98 166.06-321.44 33.74-33.74 69.81-50.76 104.11-50.76 66.43 0 99.46 71.72 72.33 228.56l-70.92 406.5 51.46 33.22-188.76 37.33 73.78-417.35c19.48-110.15 11.78-192.09-25.46-192.09-48.5 0-153.52 143.07-218.8 477.53l.41 104.1zm820.19-692.07h121.59v5.3l-130.85 45.44-62.89 359.83c-20.82 118.95-12.32 184.45 18.46 184.45 25.69 0 55.74-30.85 92.85-160.22h5.3c-33.41 183.53-103.13 259.33-174.09 259.33-63.48 0-106.32-61.15-76.84-231.5l48.97-280.24c18-102.59 15.59-136.5-.37-177.98l168.44-185.67zm0 0"/></svg>