<svg width="6426" height="1100.002" xmlns="http://www.w3.org/2000/svg"><path d="M20 647.002c0-215 145-372 380-372 76 0 138 16 187 34l-130 445h-10c-87-318-146-439-190-439-22 0-34 58-34 135 0 196 86 334 233 334 28 0 73-5 130-30-40 115-116 235-283 235-151 0-283-132-283-342zm601 3c0 212 134 340 299 340 177 0 337-152 337-390 0-209-146-330-302-330-176 0-334 146-334 380zm231-180c0-120 17-177 41-177 53 0 132 263 132 497 0 95-16 177-42 177-52 0-131-263-131-497zm487 445l-45 55h322c-34-37-45-57-45-106v-390c17-9 35-14 49-14 60 0 77 68 77 166v289l-35 55h312c-34-37-45-57-45-106v-392c0-142-55-202-140-202-92 0-168 92-218 190l10-190-287 40c33 21 45 46 45 111zm944-591c29 0 66 65 101 166v314c-8 6-15 8-21 8-82 0-133-161.62-133-315 0-127 29-173 53-173zm333-14l11-260-288 35c34 26 45 51 45 111v162l156-58c-43.7-8.27-89-10-117-10-124 0-218 33-288 103-77 77-124 194.32-124 328 0 180 87 269 180 269 98 0 171-85 193-174l-11 174 288-35c-34-26-45-51-45-111zm90 349c0 194 125 331 287 331s262-126 296-287l-8-2c-51 63-103 97-171 97-120 0-194-112-194-346 0-114 19-156 47-156 35 0 88 143 88 293l33-37-159 57v8l358 74c8-48 11-78 11-116 0-180-105-307-261-307-177 0-327 170-327 391zm675 256l-35 55h312c-34-30-45-50-45-106v-395c15-7 31-9 43-9 60 0 79 67 79 166v289l-35 55h312c-34-30-45-50-45-106v-395c16-7 32-9 43-9 60 0 80 67 80 166v289l-35 55h312c-34-30-45-50-45-106v-387c0-148-63-207-152-207-95 0-167 73-203 185 0-145-66-185-137-185-92 0-173 84-217 185l10-185-287 40c33 21 45 46 45 111zm1065 0l-45 55h322c-34-37-45-57-45-106v-390c17-9 35-14 49-14 60 0 77 68 77 166v289l-35 55h312c-34-37-45-57-45-106v-392c0-142-55-202-140-202-92 0-168 92-218 190l10-190-287 40c33 21 45 46 45 111zm677-256c0 194 125 331 287 331s262-126 296-287l-8-2c-51 63-103 97-171 97-120 0-194-112-194-346 0-114 19-156 47-156 35 0 88 143 88 293l33-37-159 57v8l358 74c8-48 11-78 11-116 0-180-105-307-261-307-177 0-327 170-327 391zm905-335c29 0 66 65 101 166v314c-8 6-15 8-21 8-82 0-133-161.62-133-315 0-127 29-173 53-173zm333-14l11-260-288 35c34 26 45 51 45 111v162l156-58c-43.7-8.27-89-10-117-10-124 0-218 33-288 103-77 77-124 194.32-124 328 0 180 87 269 180 269 98 0 171-85 193-174l-11 174 288-35c-34-26-45-51-45-111zm0 0"/></svg>