<svg width="6348" height="1100.002" xmlns="http://www.w3.org/2000/svg"><path d="M14 723.002c1 175 111 267 227 267 149 0 257-148 297-261h-10c-37 32-85 51-134 51-102 0-156-104-156-243 0-118 37-210 65-210 50 0 91 195 91 443h10l223-493c-29-4-78-7-121-7-318 0-492 232-492 453zm572-11c0 174 97 278 259 278 198 0 377-180 377-437 0-193-100-283-256-283-198 0-380 183-380 442zm235 121c0-205 73-549 134-549 16 0 32 23 32 146 0 205-75 546-136 546-15 0-30-31-30-143zm421 152l107-611-45-52 295-52-47 273c25.82-80.92 67-149 115-197 49-49 103.64-76 154-76 77 0 120 77 87 272l-58 339 45 52-295 52 55-307c23-126 20-232-19-232-35 0-96 119-129 339l1 154zm1008-173c-24 0-34-47-34-106 0-114 40-326 83-369 8-8 17-12 27-12 28 0 53 28 73 56-43 250-118 431-149 431zm342-509c-39-9-76-13-113-13-136 0-284 44-379 145-102 109-150 266-150 376 0 109 47 178 127 178 41 0 85-18 128-61 41-41 94-116 135-248l-63 310 306-54-45-52 149-834-260 48v127l-21 119zm614 264c0 245-126 423-318 423-120 0-229-72-229-254 0-131 50-257 143-350 75-75 163-116 264-116 116 0 178 52 178 136 0 73-45 123-66 144-91 91-218 135-327 154l25-107c23 36 42 67 69 67 10 0 13-3 18-8 28-28 45-140 45-237 0-75-17-116-38-116-46 0-84 169-84 305 0 147 72 188 134 188 86 0 156-70 176-229zm34 418l266-46v-149c54-259 98-344 134-344 39 0 33 107 11 232l-53 307 266-46v-161c53-251 96-334 132-334 39 0 33 106 11 232l-56 319 294-52-34-113 52-290c35-195-5-272-82-272-56 0-112 28-159 75-48 48-85 117-111 199l12-68c25-144-21-204-98-204-52 0-109 29-159 79-48 48-90 115-115 195l58-274-305 54 35 89zm1069 0l107-611-45-52 295-52-47 273c25.82-80.92 67-149 115-197 49-49 103.64-76 154-76 77 0 120 77 87 272l-58 339 45 52-295 52 55-307c23-126 20-232-19-232-35 0-96 119-129 339l1 154zm1274-418c0 245-126 423-318 423-120 0-229-72-229-254 0-131 50-257 143-350 75-75 163-116 264-116 116 0 178 52 178 136 0 73-45 123-66 144-91 91-218 135-327 154l25-107c23 36 42 67 69 67 10 0 13-3 18-8 28-28 45-140 45-237 0-75-17-116-38-116-46 0-84 169-84 305 0 147 72 188 134 188 86 0 156-70 176-229zm328 245c-24 0-34-47-34-106 0-114 40-326 83-369 8-8 17-12 27-12 28 0 53 28 73 56-43 250-118 431-149 431zm342-509c-39-9-76-13-113-13-136 0-284 44-379 145-102 109-150 266-150 376 0 109 47 178 127 178 41 0 85-18 128-61 41-41 94-116 135-248l-63 310 306-54-45-52 149-834-260 48v127l-21 119zm0 0"/></svg>