<svg width="4569" height="1100.002" xmlns="http://www.w3.org/2000/svg"><path d="M31.74 649.042c0-227.32 110.96-376.11 270.83-376.11 56.63 0 106.3 18.35 140.63 34.59l-76 371.05h-5.31c-30.06-259.31-83.78-371.5-141.28-371.5-41.37 0-81.54 73.26-81.54 214.23-1.18 224.18 77.19 345.16 168.43 345.16 36.22 0 100-24.37 135.28-183.79-16.52 197.76-87.24 296.05-202 296.05-116.95 0-209.04-120.26-209.04-329.68zm474 2.42c0 206.71 99.96 327.67 221.52 327.67 132.39 0 251.89-148.48 251.89-384.72 0-204.89-104.91-323.54-222.76-323.54-131.98 0-250.65 146-250.65 380.59zm120.65-127.18c0-162.26 38.72-220.43 85.02-220.43 80.59 0 146.68 201.37 146.68 421.87 0 151.93-38.31 220.43-85.44 220.43-80.17 0-146.26-201.37-146.26-421.87zm452.65 403.92l-53.8 36.8h231.61c-40.46-23.5-53.81-38.8-53.81-90.15v-402.33c40.48-73.56 69.63-94.41 98.31-94.41 51.19 0 83.45 54.5 83.45 169.52v380.57l-49.67 36.8h227.48c-40.46-23.5-53.81-38.8-53.81-90.15v-417.83c0-133.78-48.54-186.15-114.76-186.15-76.74 0-145.11 80.85-191 183.54l5.31-183.54-183.11 32.37c46.5 16.89 53.8 34.85 53.8 81.65zm575.76-245.24l-48.06 254.21c31.61 17.13 96.35 41.96 180.63 41.96 138.63 0 215.2-84.83 215.78-194.02 0-68.2-29.69-115.65-67.32-153.28-54-54-154.68-96.59-203.2-145.53-27.2-27.19-53.89-59-53.89-99.95 0-51.7 40.37-81.89 80.69-81.89 63.83 0 138.09 66.02 186.92 262.17h5.3l51.52-254.39c-28.08-15.37-90.82-41.37-168.28-41.37-130.43 0-215.56 81.74-215.56 193.2 0 62.54 27.76 108.02 65.1 145.36 44.5 44.5 160.14 102.59 203.77 146.22 31.32 31.33 53.89 64.94 53.89 108.42 0 53.34-37.79 82.3-80.74 82.3-64.37 0-154.98-59.83-201.24-263.41zm577-353.09v348.46c0 131.04 23.59 183.93 68.18 183.93 20.69 0 38.69-31.76 56.76-124.28-22.72 160.22-79.85 241.15-140.15 241.15-65.29 0-108.79-55.13-108.79-234.7v-351.1c0-68.29-13.76-84.83-53.8-108.33h53.63l110.35-202.17 13.82 202.17h132.29v5.3zm208.83 598.33v-543.31c0-46.8-7.3-64.76-53.8-81.65l183.1-32.37-4.82 259.65c18.78-160.04 79.69-256.76 148.26-256.76 16 0 36.87 5.35 56.39 22.33l-49.43 354.3h-5.31c-15.26-176.87-45.26-244.85-75.09-244.85-33.52 0-75.3 77.98-75.3 270.2v199.11c0 51.35 13.35 66.65 53.8 90.15h-231.6zm655.61-282.05l-.59 163.52c-18.17 30.24-53.52 81.96-93.52 81.96-37.61 0-77.63-33.41-77.63-126.89 0-48.81 11.52-90.24 35.91-114.63 15.98-15.98 44.7-29.54 75.42-29.54 15.41 0 35.58 9.02 60.41 25.58zm123-212.61c0-119.69-51.24-162.67-112.41-162.67-80.63 0-149.31 100.26-198.96 264.28l49.43-250.15h-137.65l62.18 380.43h5.3c32.67-215.3 95.22-281.34 137.11-281.34 40.76 0 71.41 35.58 71.41 102.34v93.37c-125.97 37.59-186.04 69.59-226.22 109.77-40.86 40.86-59.69 91.15-59.69 147.65 0 88.5 51.3 141.91 115.04 141.91 76.76 0 138-84.41 170.87-155.28l-6.37 155.28 183.76-28.24c-46.91-19.37-53.8-35.26-53.8-79.59zm131.98 494.66v-546.2c0-45.57-7.31-63.52-53.81-82.89l183.11-28.24-5.3 165.87v438.11c0 55.48 13.35 70.78 53.8 90.15h-231.61zm54.82-710.48c-53.67 0-87.89-31.09-87.89-69.55 0-39.63 33.39-72.37 85.83-72.37 52.85 0 89.54 32.74 89.54 72.37 0 38.46-35.87 69.55-87.48 69.55zm203 710.48l-53.8 36.8h231.61c-40.46-23.5-53.81-38.8-53.81-90.15v-402.33c40.48-73.56 69.63-94.41 98.31-94.41 51.19 0 83.45 54.5 83.45 169.52v380.57l-49.67 36.8h227.48c-40.46-23.5-53.81-38.8-53.81-90.15v-417.83c0-133.78-48.54-186.15-114.76-186.15-76.74 0-145.11 80.85-191 183.54l5.31-183.54-183.11 32.37c46.5 16.89 53.8 34.85 53.8 81.65zm575.76-245.24l-48.06 254.21c31.61 17.13 96.35 41.96 180.63 41.96 138.63 0 215.2-84.83 215.78-194.02 0-68.2-29.69-115.65-67.32-153.28-54-54-154.68-96.59-203.2-145.53-27.2-27.19-53.89-59-53.89-99.95 0-51.7 40.37-81.89 80.69-81.89 63.83 0 138.09 66.02 186.92 262.17h5.3l51.52-254.39c-28.08-15.37-90.82-41.37-168.28-41.37-130.43 0-215.56 81.74-215.56 193.2 0 62.54 27.76 108.02 65.1 145.36 44.5 44.5 160.14 102.59 203.77 146.22 31.32 31.33 53.89 64.94 53.89 108.42 0 53.34-37.79 82.3-80.74 82.3-64.37 0-154.98-59.83-201.24-263.41zm0 0"/></svg>