<svg width="5080.1" height="1100.002" xmlns="http://www.w3.org/2000/svg"><path d="M17.42 730.272c.66 167.13 93.2 253.31 190.37 253.31 120.24 0 224.81-125.75 266.53-287.71h-7.27c-46.58 107.67-106.57 133.52-150.09 133.52-80.08 0-135.11-88.94-135.11-238.9 0-164.22 61.99-278.82 108.48-278.82 51.71 0 88.95 161.11 76.62 408.76h7.26l175.07-430.34c-26.26-8.45-73.21-19.67-118.95-19.67-256.71 0-412.91 225.5-412.91 459.85zm508.98-2.78c0 162.7 82.44 256.09 211.75 256.09 179.66 0 338.65-190.62 338.65-453.78 0-175.2-84.42-259.38-209.78-259.38-179.66 0-340.62 192.59-340.62 457.07zm173.37 74.78c0-216.65 80.53-519.22 153.17-519.22 30.15 0 50.49 42.86 50.49 170.66 0 216.64-81.85 517.24-154.49 517.24-29.49 0-49.17-48.12-49.17-168.68zm400.6 178.02l109.4-625.38-48.77-41.05 233.03-43.44-57.62 330.87c37.18-127.17 93.02-217.82 144.79-269.59 40.1-40.1 83.91-61.28 124.9-61.28 70.83 0 108.01 73.92 78.44 246.67l-65.53 378.37 48.76 41.05-233.03 43.44 65.96-371.37c20.95-116.76 15.21-208.72-22.77-208.72-42.87 0-129.55 133.04-181.38 419.8l.66 124.9zm889.65-239.09c64.18 50.27 79.97 89.38 79.97 125.41 0 46.05-32.2 75.66-72.18 75.66-58.5 0-148.01-75.23-202.01-224.57h-7.26l-90.3 249.82c36.95 8.37 75.47 16.06 138.13 16.06 236.69 0 330.6-111.07 330.6-228.17 0-65.26-33.2-117.87-102.64-170.87l-105.76-76.17c-56.05-42.1-77.03-82.91-77.03-122.38 0-46.04 28.09-74.26 68.07-74.26 58.44 0 147.59 82.67 195.36 225.23h7.26l96.87-250.48c-36.95-8.37-73.42-16.06-136.07-16.06-236.69 0-326.5 108.73-326.5 225.43 0 70.16 36.92 119.55 104.33 171.84zm532.21-454.2h121.35v7.26l-135.5 49.84-53.35 304.06c-21.32 121.89-18.44 204.27 15.76 204.27 23.74 0 50.85-24.25 86.25-134.29h7.26c-33.66 182.05-116.83 265.44-201.97 265.44-76.19 0-123.69-67.76-92.74-248.38l44.82-258.47c18-102.34 15.34-142.13-3.55-185.07l217.84-190.81zm74.14 699.86l111.37-631.95-49.45-41.05 233.03-43.44-61.27 302.62c73.27-266.96 167.28-302.62 223.17-302.62 6.51 0 19.67 7 26.52 11.8l-115.38 405.41h-7.26c2.07-187.48-17.38-246.21-42.09-246.21-24.51 0-68.96 57.92-124.78 379.48v130.24zm1016.37-619.52l55.08-63.9c-63.2-23.44-115.87-33.02-169.52-33.02-118.51 0-231.7 49.81-316.92 138.98-103.71 108.32-157.87 275.59-157.87 402.02 0 109.69 40.83 171.5 110.22 171.5 34.15 0 70.96-15.26 107.11-51.41 46.14-46.14 104.96-144.08 158.63-330.52l-74.3 382.24 240.26-44.41-48.77-41.39zm-357.71 485.49c-26.74 0-39.14-45.98-39.14-116.96 0-136.09 50.59-345.59 101.07-396.07 17.24-17.24 33.09-27.06 57.81-27.06 28.69 0 55.71 13.84 74.69 32.93-79.55 362.07-155.24 507.16-194.43 507.16zm379.39 130.4l235.77-43.09-52.19-41.39 110.05-628.33-235.76 43.44 52.19 41.05zm230.97-749.72c73.09 0 125.02-37.47 125.02-89.83-.65-45.04-41.01-81.14-104.15-81.14-75.72 0-122.08 43.07-122.74 90.83-.66 42.73 38.07 80.14 101.87 80.14zm65.98 746.78l109.4-625.38-48.77-41.05 233.03-43.44-57.62 330.87c37.18-127.17 93.02-217.82 144.79-269.59 40.1-40.1 83.91-61.28 124.9-61.28 70.83 0 108.01 73.92 78.44 246.67l-65.53 378.37 48.76 41.05-233.03 43.44 65.96-371.37c20.95-116.76 15.21-208.72-22.77-208.72-42.87 0-129.55 133.04-181.38 419.8l.66 124.9zm889.65-239.09c64.18 50.27 79.97 89.38 79.97 125.41 0 46.05-32.2 75.66-72.18 75.66-58.5 0-148.01-75.23-202.01-224.57h-7.26l-90.3 249.82c36.95 8.37 75.47 16.06 138.13 16.06 236.69 0 330.6-111.07 330.6-228.17 0-65.26-33.2-117.87-102.64-170.87l-105.76-76.17c-56.05-42.1-77.03-82.91-77.03-122.38 0-46.04 28.09-74.26 68.07-74.26 58.44 0 147.59 82.67 195.36 225.23h7.26l96.87-250.48c-36.95-8.37-73.42-16.06-136.07-16.06-236.69 0-326.5 108.73-326.5 225.43 0 70.16 36.92 119.55 104.33 171.84zm0 0"/></svg>