<svg width="3948.4" height="1100.002" xmlns="http://www.w3.org/2000/svg"><path d="M23.08 741.232c.09 154.12 63.8 230.69 129.88 230.69 72.76 0 171.69-89 216.22-331.79h-2.73c-62.42 232.58-142.18 269.73-176.66 269.73-43.91 0-100.64-64.06-100.64-232.1 0-240.53 103.26-392.43 180.27-392.43 54.54 0 85.55 105.14 52.88 352.24h2.74l95.93-326.91c-21.74-15.8-65.29-40.58-115.55-40.58-155.54 0-282.34 214.75-282.34 471.15zm405.27 10.78c0 144.05 58.43 219.91 133.75 219.91 149.4 0 275.35-208.13 275.35-481.47 0-145.8-58.7-220.37-133.47-220.37-149.4 0-275.63 208.41-275.63 481.93zm71.63-1.53c0-235.86 92.97-470.03 184.83-470.03 53.51 0 81.01 75.64 81.01 211.34 0 235.86-93.15 469.76-185.01 469.76-53.42 0-80.83-76.38-80.83-211.07zm366.65 220.98l113.35-649.12-54.98-22.95 130.72-29.31-75.13 426.38c55.93-203.52 135.98-331.43 193.96-389.41 25.4-25.4 51.32-36.97 76.85-36.97 60.67 0 88.24 68.83 64.31 204.83l-77.97 443.38 54.99 22.95-130.72 29.31 84.04-477.63c17.55-101.49 7.29-170.28-28.98-170.28-55.88 0-184.95 156.21-267.87 553.2l.09 76.85zm688.35-306.91c52.85 50.9 78.28 88.19 78.28 150.84 0 90.7-65.55 137.84-125.32 137.84-70.96 0-111.9-52.69-119.49-218.93h-2.74l-46.2 218.18c33.55 10.63 63.03 19.44 125.12 19.44 144.99 0 222.65-94.68 222.65-197.08 0-59.02-25.3-109.38-80.61-162.38l-49.24-45.09c-39.67-37.71-78.72-74.39-78.72-146.11 0-90.71 54.66-132.49 114.43-132.49 70.95 0 106.68 53.73 113.39 219.02h2.74l47.13-218.27c-33.55-10.63-57.58-19.44-119.68-19.44-144.99 0-211.75 91.77-211.75 189.82 0 75.18 31.83 112.2 83.42 161.66zm392.04-383.55h121.9v2.74l-124.75 39.66-75.4 432.94c-20.18 115.11-4.31 158.48 21.99 158.48 28.26 0 62.15-39.5 101.5-194.21h2.74c-33.09 185.45-85.17 251.31-137.53 251.31-46.81 0-83.56-52.49-56.01-209.37l54.43-308.78c18-102.91 15.91-129.12 3.8-168.68l103.66-178.94zm92.61 691.39l113.63-650.05-56.8-22.95 130.72-29.31-56.73 320.13c68.73-285.04 142.97-320.13 192.08-320.13 17.24 0 40.58 7 58.73 19.7l-76.37 285.59h-2.74c26.93-196.52.13-238.29-27.41-238.29-35.24 0-110.25 59.7-193.72 533.77v82.76zm790.38-610.48l38.67-78.6c-33.8-9.31-66.13-13.23-97.73-13.23-87.99 0-150.3 37.94-207.83 96.02-106.54 107.18-170.88 291.41-170.88 444.98 0 110.81 30.67 160.75 82.53 160.75 22.85 0 47.79-10.74 72.64-35.59 54.61-54.61 123.04-190.42 197.62-466.73l-92.95 501.51 131.74-28.59-54.98-23.86zm-319.29 557.26c-31.26 0-47.61-44.27-47.61-135.04 0-162.66 66.41-361.41 125.93-420.93 32.51-32.51 59.66-51.94 108.69-51.94 29.81 0 58.54 3.66 75.81 8.07-113.45 449.68-211.76 599.84-262.82 599.84zm349.36 51.85l137.98-28.41-64.06-23.86 113.45-648.67-137.99 29.31 64.06 22.95zm166.53-774.03c36.91 0 63.98-25.03 63.98-58.17-.1-26.96-21.24-48.36-51.6-48.36-37.28 0-64.42 26.68-64.51 59.17-.09 25.77 21.68 47.36 52.13 47.36zm32.02 774.47l113.35-649.12-54.98-22.95 130.72-29.31-75.13 426.38c55.93-203.52 135.98-331.43 193.96-389.41 25.4-25.4 51.32-36.97 76.85-36.97 60.67 0 88.24 68.83 64.31 204.83l-77.97 443.38 54.99 22.95-130.72 29.31 84.04-477.63c17.55-101.49 7.29-170.28-28.98-170.28-55.88 0-184.95 156.21-267.87 553.2l.09 76.85zm688.35-306.91c52.85 50.9 78.28 88.19 78.28 150.84 0 90.7-65.55 137.84-125.32 137.84-70.96 0-111.9-52.69-119.49-218.93h-2.74l-46.2 218.18c33.55 10.63 63.03 19.44 125.12 19.44 144.99 0 222.65-94.68 222.65-197.08 0-59.02-25.3-109.38-80.61-162.38l-49.24-45.09c-39.67-37.71-78.72-74.39-78.72-146.11 0-90.71 54.66-132.49 114.43-132.49 70.95 0 106.68 53.73 113.39 219.02h2.74l47.13-218.27c-33.55-10.63-57.58-19.44-119.68-19.44-144.99 0-211.75 91.77-211.75 189.82 0 75.18 31.83 112.2 83.42 161.66zm0 0"/></svg>