<svg width="4951.09" height="1100.002" xmlns="http://www.w3.org/2000/svg"><path d="M19.87 735.612c.41 161.5 80.48 243.52 164.2 243.52 99.69 0 201.82-109.85 244.76-306.78h-5.31c-53.43 161.72-121.98 192.45-161.59 192.45-64.43 0-120.19-78.17-120.19-235.95 0-197.24 79.85-327.98 139.54-327.98 52.94 0 87.48 136.89 66.35 384.3h5.3l140.83-385.58c-24.3-11.63-69.78-28.72-117.48-28.72-212.93 0-356.41 220.85-356.41 464.74zm464.24 3.09c0 154.63 72.05 240.43 178 240.43 166.57 0 311.26-198.2 311.26-465.76 0-162.48-73.29-242.5-176.76-242.5-166.57 0-312.5 199.43-312.5 467.83zm129.35 41.76c0-224.96 85.91-497.94 166.87-497.94 40.26 0 63.69 57.05 63.69 188.26 0 224.96-86.74 496.7-167.69 496.7-39.85 0-62.87-60.35-62.87-187.02zm382.89 200.74l112.35-639.79-52.63-33.21 188.76-37.33-59.31 310.2c71.31-274.79 156.76-310.2 209.72-310.2 11.15 0 28.72 7 40.46 15.22l-98.5 353.56h-5.31c12.83-191.39-9.8-242.78-35.74-242.78-29.15 0-86.82 58.69-154.61 446.24v109.69zm391 0l112.35-639.79-52.63-33.21 188.76-37.33-59.31 310.2c71.31-274.79 156.76-310.2 209.72-310.2 11.15 0 28.72 7 40.46 15.22l-98.5 353.56h-5.31c12.83-191.39-9.8-242.78-35.74-242.78-29.15 0-86.82 58.69-154.61 446.24v109.69zm837.61-383.4c-20.55 256.74-134.22 381.33-255.79 381.33-91.24 0-170.89-85.5-170.89-244.61 0-146.26 55.29-297.5 142.42-384.63 50.34-50.35 108.41-79.02 173.02-79.02 83.71 0 143.37 45.54 143.37 131.89 0 61.26-29.16 121.83-67.76 160.44-71.63 71.63-174.57 104.47-287.68 123.47l10.33-72.95c25.93 17.21 49.04 31.19 74.28 31.19 38.17 0 69.35-8.28 91.96-30.89 33.87-33.87 49.11-116.52 49.11-195.91 0-77.35-22.87-127.74-57.96-127.74-63.61 0-143.87 185.43-143.87 364.28 0 144.07 52.04 216.76 113.46 216.76 62.52 0 139.56-60.02 180.69-273.61zm275.65 110.83c59.27 50.54 79.24 88.87 79.24 136.41 0 65.37-46.63 102.57-95.18 102.57-63.89 0-132.38-65.48-166.3-222.13h-5.3l-71.22 236.13c35.48 9.35 70.08 17.52 132.5 17.52 197.01 0 283.89-103.98 283.89-214.72 0-62.56-29.78-114.19-93.11-167.19l-81.3-62.72c-48.96-40.2-77.76-79.23-77.76-132.65 0-65.37 39.58-99.46 88.13-99.46 63.85 0 129.89 70.15 159.89 222.54h5.3l75.35-236.54c-35.48-9.35-66.57-17.52-128.98-17.52-197.01 0-276.85 101.39-276.85 210.02 0 72.33 34.72 116.37 95.29 167.44zm201.32 369.33l130.53-736.55-51.46-33.21 188.76-37.33-76.06 434.43c62.71-225.32 125.69-339.65 175.5-389.45 31.26-31.26 62.93-44.57 92.19-44.57 61.81 0 98.24 56.68 98.24 166.85 0 138.17-58.56 312.78-163.5 420.61-70.3 72.6-163.09 112.13-267.65 112.13-19.72 0-39.44-1.41-59.74-4.24l76.96-34.56-4.42 129.41zm375.09-710.09c-43.91 0-133.52 157.61-223.61 543.54 19.07 10.68 47.66 20.11 76.83 20.11 35.24 0 56.8-13.98 80.65-37.82 53.57-53.57 109.18-255.94 109.18-401.05 0-79.54-14.35-124.78-43.05-124.78zm208.09 370.83c0 154.63 72.05 240.43 178 240.43 166.57 0 311.26-198.2 311.26-465.76 0-162.48-73.29-242.5-176.76-242.5-166.57 0-312.5 199.43-312.5 467.83zm129.35 41.76c0-224.96 85.91-497.94 166.87-497.94 40.26 0 63.69 57.05 63.69 188.26 0 224.96-86.74 496.7-167.69 496.7-39.85 0-62.87-60.35-62.87-187.02zm385.89 196.61l111.11-635.66-51.46-33.21 188.76-37.33-65.19 372.2c45.29-160.21 111.6-266.98 166.06-321.44 33.74-33.74 69.81-50.76 104.11-50.76 66.43 0 99.46 71.72 72.33 228.56l-70.92 406.5 51.46 33.22-188.76 37.33 73.78-417.35c19.48-110.15 11.78-192.09-25.46-192.09-48.5 0-153.52 143.07-218.8 477.53l.41 104.1zm754.24-94.94c-28.7 0-42.22-45.24-42.22-124.78 0-145.11 55.26-342.44 108.83-396 23.84-23.85 44.58-37.83 79.82-37.83 29.18 0 56.52 12.74 73.59 25.48-86.44 375.61-176.11 533.13-220.02 533.13zm325.56-589.41c-26.67-5.48-52.52-7.72-77.78-7.72-104.89 0-197.72 39.3-268.07 112.13-104.93 107.83-162.32 276.57-162.32 414.74 0 110.17 36.43 166.85 98.24 166.85 29.26 0 60.93-13.31 92.19-44.57 49.81-49.8 112.79-163.54 175.5-388.87l-80.02 433.26 192.72-38.15-51.46-33.22 151.94-856.3-143.79 29.22c0 28.17-1.76 102.34-7.63 132.28l-20.41 110.78zm0 0"/></svg>