<svg width="4574.52" height="1100.002" xmlns="http://www.w3.org/2000/svg"><path d="M21.72 739.152c.23 157.25 70.87 236.13 144.42 236.13 84.18 0 184.46-97.83 228.32-321.19h-3.83c-58.61 202.55-133.62 236.99-170.27 236.99-52.61 0-108.93-70.05-108.93-233.74 0-222.19 93.34-365.12 163.02-365.12 53.85 0 86.37 118.6 58.58 365.82h3.83l114.96-351.77c-22.83-14.03-67.2-35.55-116.37-35.55-179.86 0-313.73 217.33-313.73 468.43zm430.68 7.52c0 148.54 64.2 228.61 152.5 228.61 156.68 0 290.57-203.92 290.57-474.81 0-152.87-64.89-229.75-151.82-229.75-156.67 0-291.25 204.61-291.25 475.95zm96.09 16.82c0-231.24 89.98-481.86 177.22-481.86 47.9 0 73.67 67.76 73.67 201.57 0 231.23-90.43 481.17-177.67 481.17-47.67 0-73.22-69.59-73.22-200.88zm371.6 212.93l113.08-645.69-55.03-27.31 155.32-32.7-57.83 315.92c69.83-280.69 148.82-315.92 199.55-315.92 14.67 0 35.56 7 50.99 17.8l-85.75 314.39h-3.82c20.95-194.34-4.08-240.19-30.94-240.19-32.66 0-100.32 59.28-177.15 496.68v94.18zm364 0l113.08-645.69-55.03-27.31 155.32-32.7-57.83 315.92c69.83-280.69 148.82-315.92 199.55-315.92 14.67 0 35.56 7 50.99 17.8l-85.75 314.39h-3.82c20.95-194.34-4.08-240.19-30.94-240.19-32.66 0-100.32 59.28-177.15 496.68v94.18zm773.65-369.34c-27.01 260.43-136.81 368.2-236.2 368.2-82.18 0-152.59-89.75-152.59-241.65 0-151.06 56.94-310.25 142.22-395.53 42.59-42.59 91.23-67.38 144.38-67.38 73.56 0 132.47 43.51 132.47 130.6 0 57.56-24.16 121.45-68.31 165.6-65.54 65.54-160.89 94.87-275.3 113.87l5.71-62.24c26.86 11.31 51.26 19.93 75.95 19.93 47.04 0 87.08-9.95 115.23-38.1 35.72-35.72 50.41-109.13 50.41-182.98 0-78.08-24.72-131.43-64.24-131.43-69.15 0-162.72 190.61-162.72 382.94 0 143.14 45.76 225.82 106.99 225.82 55.13 0 134.39-56.88 182.17-287.65zm257.91 76.45c55.58 50.75 78.69 88.48 78.69 144.73 0 79.97-57.54 122.89-112.55 122.89-67.96 0-120.58-58.1-139.32-220.28h-3.83l-56.8 225.78c34.37 10.09 66.02 18.63 128.25 18.63 167.03 0 248.59-98.62 248.59-204.55 0-60.52-27.19-111.43-85.9-164.43l-62.82-52.55c-43.61-38.77-78.32-76.44-78.32-140.41 0-79.97 48.27-118.49 103.28-118.49 67.95 0 116.52 60.68 133.1 220.51h3.83l59.08-226.01c-34.36-10.09-61.39-18.63-123.61-18.63-167.04 0-239.34 95.85-239.34 198.38 0 73.97 33.05 113.97 88.44 164.11zm192.21 390.21l131.63-743.01-53.49-27.31 155.32-32.7-83.65 473.61c69.56-254.71 135.68-381.42 188.25-433.99 27.57-27.57 55.36-39.39 80.93-39.39 56.07 0 89.18 52.79 89.18 163.33 0 147.05-61.89 327.2-167.75 434.65-62.56 63.84-137.99 101.79-232.91 101.79-18.05 0-36.11-1.23-54.94-3.69l57.74-20.89-4.22 112.23zm362.52-731.52c-47.98 0-143.13 154.65-246.15 575.51 18.14 6.79 46.91 12.9 76.45 12.9 43.19 0 68.08-17.12 96.92-45.96 56.89-56.89 118.04-256.85 118.04-411.76 0-86.01-15.09-130.69-45.26-130.69zm175.02 404.45c0 148.54 64.2 228.61 152.5 228.61 156.68 0 290.57-203.92 290.57-474.81 0-152.87-64.89-229.75-151.82-229.75-156.67 0-291.25 204.61-291.25 475.95zm96.09 16.82c0-231.24 89.98-481.86 177.22-481.86 47.9 0 73.67 67.76 73.67 201.57 0 231.23-90.43 481.17-177.67 481.17-47.67 0-73.22-69.59-73.22-200.88zm374.6 210.65l112.4-643.41-53.49-27.31 155.32-32.7-70.93 403.42c51.43-185.17 125.65-304.12 182.14-360.61 28.94-28.93 59.16-42.81 88.4-42.81 63.11 0 92.99 70.05 67.71 214.89l-74.98 427.75 53.49 27.3-155.31 32.71 79.69-452.09c18.37-105.16 9.2-179.52-27.49-179.52-52.75 0-171.63 150.64-247.07 521.13l.23 88.4zm674.68-70.36c-30.17 0-44.8-44.68-44.8-130.69 0-154.91 60.06-347.61 116.95-404.5 28.84-28.84 53.28-45.96 96.46-45.96 29.54 0 57.63 7.94 73.77 15.87-100.11 415.15-194.4 565.28-242.38 565.28zm320.39-614.73c-22.79-4.37-45.13-6.05-66.69-6.05-95.1 0-170.56 37.83-233.14 101.78-105.86 107.46-166.21 279.89-166.21 426.94 0 110.54 33.11 163.33 89.18 163.33 25.57 0 53.36-11.82 80.93-39.39 52.57-52.57 118.69-178.51 188.25-433.21l-85.38 472.06 157.05-33.16-53.49-27.31 152.86-863.32-107.19 23.3c0 37.05-2.32 94.59-10.04 133.95l-20.22 108.19zm0 0"/></svg>