<svg width="5937" height="1100.002" xmlns="http://www.w3.org/2000/svg"><path d="M26.85 648.112c0-222.19 125.14-374.4 316.31-374.4 64.7 0 119.51 17.37 159.95 34.34l-98.5 401.86h-7.26c-53.78-283.76-109.7-399.62-161.58-399.62-33.3 0-61.73 66.9-61.73 181.22-.69 212.44 80.86 340.51 195.34 340.51 32.79 0 88.75-16.3 133.08-119.71-26.31 163.28-99.23 270.61-235.75 270.61-131.14 0-239.86-125.15-239.86-334.81zm527 2.66c0 208.91 114.14 332.81 253.8 332.81 150.98 0 287.36-149.95 287.36-386.92 0-206.61-122.04-326.24-255.78-326.24-150.32 0-285.38 146-285.38 380.35zm166.63-149.19c0-144.65 29.67-202.34 66.68-202.34 69.09 0 140.56 227.05 140.56 453.18 0 128.21-29.01 202.34-67.34 202.34-68.43 0-139.9-227.05-139.9-453.18zm629.66-46.49v202.27c0 107.93 19.32 168.71 78.79 168.71 22.56 0 47.72-12.93 79.73-58.28v-367.94c0-54.38-9.26-75.27-50.13-93.88l226.39-35.55-7.26 184.67v408.92c0 50.44 8.61 68.04 50.14 90.59l-228.37 28.98 9.23-201.1c-47.6 109.03-119.15 197.81-202.25 197.81-74.04 0-125.27-55.55-125.27-192.76v-387.68c0-54.38-9.26-75.27-50.14-93.88l226.4-35.55zm456.97 467.52l-50.14 44.39h269.27c-37.76-29.13-50.13-46.39-50.13-96.76v-397.19c30.69-46.66 55.2-60.9 77.76-60.9 54.86 0 80.77 60.12 80.77 168.05v342.41l-43.56 44.39h262.69c-37.76-29.13-50.13-46.39-50.13-96.76v-407.06c0-137.21-51.24-192.76-125.28-192.76-83.1 0-154.65 85.5-202.25 186.24l7.26-186.24-226.4 35.55c40.88 18.61 50.14 39.5 50.14 93.88zm795.03-581.94v312.02c0 116.86 23.34 171.46 78.93 171.46 18.74 0 36.74-19.78 56.03-77.08-36.17 145.54-107 236.51-180.51 236.51-74.33 0-123.45-57.58-123.45-221.49v-349.4c0-77.33-13.03-96.57-50.14-125.69h50.45l154.37-201.68 14.32 201.68h141.33v7.26zm210.31 581.94v-522.76c0-54.38-9.26-75.27-50.13-93.88l226.39-35.55-5.31 271.88c22.2-168.35 88.99-267.27 164.4-267.27 16 0 34.42 4.37 52.48 17.19l-65.09 412.51h-7.26c-20.15-174.43-50.15-249.5-80.47-249.5-32.05 0-66.01 73.82-66.01 228.87v186.14c0 50.37 12.37 67.63 50.14 96.76h-269.27zm385.37-635.61h211.31l14.08 89.59 170.62 435.02c59.18-179.7 33.22-382.05-19.1-524.61h235.06l-203.92 541.4c-87.82 211.6-221.76 255.18-313.19 255.18-27.91 0-53.52-5.03-77.46-13.43l55.22-377.86h7.26c26.31 256.12 80.56 321.04 143.31 321.04 19.37 0 45.25-7.4 65.62-32.2zm671.29 635.61l-43.56 44.39h262.69c-37.76-24.52-50.13-41.78-50.13-96.76v-417.59c22.19-24.12 49.15-40.5 75.18-40.5 56.92 0 81.4 59.46 81.4 167.71v342.75l-43.56 44.39h262.7c-37.77-24.52-50.14-41.78-50.14-96.76v-417.59c23.88-25.49 49.8-40.5 74.5-40.5 54.86 0 82.74 59.46 82.74 168.05v342.41l-43.56 44.39h262.7c-37.77-24.52-50.14-41.78-50.14-96.76v-403.77c0-141.15-56.84-196.05-136.94-196.05-85.07 0-151.25 68.21-189.98 167.54-2.74-131.64-63.61-167.54-126.73-167.54-82.76 0-156.23 76.81-198.17 166.86l7.26-166.86-226.4 35.55c40.88 18.61 50.14 39.5 50.14 93.88zm915.03-266.61c0 199.82 105.48 327.58 241.46 327.58 133.24 0 223.65-114.71 246.01-304.81l-5.95-1.31c-40.38 128.39-96.49 163.76-154.9 163.76-103.57 0-174.83-115.76-174.83-355.58 0-136.94 33.04-184.42 68.23-184.42 50.06 0 100.67 133.75 100.67 287.52l29.23-29.47-202.14 43.31v8.68l340.54 53.11c5.94-37.04 8.26-61.22 8.26-91.69 0-187.53-89.59-303.57-218.2-303.57-149.27 0-278.38 161.44-278.38 386.89zm591.97 266.61l-50.14 44.39h269.27c-37.76-29.13-50.13-46.39-50.13-96.76v-397.19c30.69-46.66 55.2-60.9 77.76-60.9 54.86 0 80.77 60.12 80.77 168.05v342.41l-43.56 44.39h262.69c-37.76-29.13-50.13-46.39-50.13-96.76v-407.06c0-137.21-51.24-192.76-125.28-192.76-83.1 0-154.65 85.5-202.25 186.24l7.26-186.24-226.4 35.55c40.88 18.61 50.14 39.5 50.14 93.88zm0 0"/></svg>