<svg width="4571" height="1100.002" xmlns="http://www.w3.org/2000/svg"><path d="M20 647.002c0-215 145-372 380-372 76 0 138 16 187 34l-130 445h-10c-87-318-146-439-190-439-22 0-34 58-34 135 0 196 86 334 233 334 28 0 73-5 130-30-40 115-116 235-283 235-151 0-283-132-283-342zm638 268v-494c0-65-12-90-45-111l287-40-6 289c27-180 102-282 187-282 16 0 31 3 47 10l-87 494h-10c-27-171-57-256-88-256-30 0-53 68-53 171v168c0 49 11 69 45 106H613zm484-256c0 194 125 331 287 331s262-126 296-287l-8-2c-51 63-103 97-171 97-120 0-194-112-194-346 0-114 19-156 47-156 35 0 88 143 88 293l33-37-159 57v8l358 74c8-48 11-78 11-116 0-180-105-307-261-307-177 0-327 170-327 391zm905-335c29 0 66 65 101 166v314c-8 6-15 8-21 8-82 0-133-161.62-133-315 0-127 29-173 53-173zm333-14l11-260-288 35c34 26 45 51 45 111v162l156-58c-43.7-8.27-89-10-117-10-124 0-218 33-288 103-77 77-124 194.32-124 328 0 180 87 269 180 269 98 0 171-85 193-174l-11 174 288-35c-34-26-45-51-45-111zm125 605v-501c0-62-12-87-45-114l287-30-10 214v380c0 59 11 79 45 106h-322zm110-660c-93 0-146-44-146-103s51-107 141-107c91 0 150 48 150 107s-57 103-145 103zm473 101v261c0 97 23 154 94 154 16 0 34-3 55-11-55 125-145 230-237 230-87 0-144-61-144-203v-347c0-90-12-113-45-150h46l216-201 15 201h154v10zm180 303c0 194 125 331 287 331s262-126 296-287l-8-2c-51 63-103 97-171 97-120 0-194-112-194-346 0-114 19-156 47-156 35 0 88 143 88 293l33-37-159 57v8l358 74c8-48 11-78 11-116 0-180-105-307-261-307-177 0-327 170-327 391zm905-335c29 0 66 65 101 166v314c-8 6-15 8-21 8-82 0-133-161.62-133-315 0-127 29-173 53-173zm333-14l11-260-288 35c34 26 45 51 45 111v162l156-58c-43.7-8.27-89-10-117-10-124 0-218 33-288 103-77 77-124 194.32-124 328 0 180 87 269 180 269 98 0 171-85 193-174l-11 174 288-35c-34-26-45-51-45-111zm0 0"/></svg>