<svg width="3919.72" height="1100.002" xmlns="http://www.w3.org/2000/svg"><path d="M17.42 730.272c.66 167.13 93.2 253.31 190.37 253.31 120.24 0 224.81-125.75 266.53-287.71h-7.27c-46.58 107.67-106.57 133.52-150.09 133.52-80.08 0-135.11-88.94-135.11-238.9 0-164.22 61.99-278.82 108.48-278.82 51.71 0 88.95 161.11 76.62 408.76h7.26l175.07-430.34c-26.26-8.45-73.21-19.67-118.95-19.67-256.71 0-412.91 225.5-412.91 459.85zm485.95 256.59l111.37-631.95-49.45-41.05 233.03-43.44-61.27 302.62c73.27-266.96 167.28-302.62 223.17-302.62 6.51 0 19.67 7 26.52 11.8l-115.38 405.41h-7.26c2.07-187.48-17.38-246.21-42.09-246.21-24.51 0-68.96 57.92-124.78 379.48v130.24zm922.52-401.97c-11.98 251.84-130.79 398.69-281.71 398.69-103.22 0-195.1-79.88-195.1-248.53 0-139.9 53.08-280.62 142.66-370.2 60.62-60.62 131.16-94.43 210.93-94.43 97.17 0 157.8 48.24 157.8 133.61 0 66.15-35.76 122.31-67.03 153.58-79.7 79.71-192.66 117.2-304.06 136.2l16.44-87.14c24.71 25.04 46.11 46.11 72.08 46.11 26.44 0 45.87-6.08 61.14-21.35 31.43-31.42 47.4-126.31 47.4-213.03 0-76.37-20.42-122.85-49.64-122.85-56.27 0-118.92 178.59-118.92 339.58 0 145.29 60.35 204.78 122.01 204.78 72.31 0 146.41-64.18 178.74-255.02zm269.45 267.94c-26.74 0-38.79-45.98-38.79-116.96 0-132.15 48.9-335.59 98.06-384.75 17.25-17.25 33.1-27.07 57.82-27.07 28.68 0 55.05 19.1 73.34 38.2-68.34 323.27-151.89 490.58-190.43 490.58zm332.42-555.91c-31.81-6.95-62.31-9.92-92.46-9.92-117.85 0-233.67 41.26-314.29 125.83-103.71 108.31-157.19 272.16-157.19 398.59 0 109.69 40.84 171.5 110.22 171.5 34.16 0 70.97-15.26 107.12-51.41 46.13-46.14 104.95-143.74 158.62-330.18l-72.93 381.9 239.92-44.75-48.76-41.05 150.71-847.01-192.21 37.05c0 16.43-1.03 112.62-4.45 130.08l-20.66 114.21zm42.66 686.31l235.77-43.09-52.19-41.39 110.05-628.33-235.76 43.44 52.19 41.05zm230.97-749.72c73.09 0 125.02-37.47 125.02-89.83-.65-45.04-41.01-81.14-104.15-81.14-75.72 0-122.08 43.07-122.74 90.83-.66 42.73 38.07 80.14 101.87 80.14zm365.84 53.49h121.35v7.26l-135.5 49.84-53.35 304.06c-21.32 121.89-18.44 204.27 15.76 204.27 23.74 0 50.85-24.25 86.25-134.29h7.26c-33.66 182.05-116.83 265.44-201.97 265.44-76.19 0-123.69-67.76-92.74-248.38l44.82-258.47c18-102.34 15.34-142.13-3.55-185.07l217.84-190.81zm569.66 297.89c-11.98 251.84-130.79 398.69-281.71 398.69-103.22 0-195.1-79.88-195.1-248.53 0-139.9 53.08-280.62 142.66-370.2 60.62-60.62 131.16-94.43 210.93-94.43 97.17 0 157.8 48.24 157.8 133.61 0 66.15-35.76 122.31-67.03 153.58-79.7 79.71-192.66 117.2-304.06 136.2l16.44-87.14c24.71 25.04 46.11 46.11 72.08 46.11 26.44 0 45.87-6.08 61.14-21.35 31.43-31.42 47.4-126.31 47.4-213.03 0-76.37-20.42-122.85-49.64-122.85-56.27 0-118.92 178.59-118.92 339.58 0 145.29 60.35 204.78 122.01 204.78 72.31 0 146.41-64.18 178.74-255.02zm269.45 267.94c-26.74 0-38.79-45.98-38.79-116.96 0-132.15 48.9-335.59 98.06-384.75 17.25-17.25 33.1-27.07 57.82-27.07 28.68 0 55.05 19.1 73.34 38.2-68.34 323.27-151.89 490.58-190.43 490.58zm332.42-555.91c-31.81-6.95-62.31-9.92-92.46-9.92-117.85 0-233.67 41.26-314.29 125.83-103.71 108.31-157.19 272.16-157.19 398.59 0 109.69 40.84 171.5 110.22 171.5 34.16 0 70.97-15.26 107.12-51.41 46.13-46.14 104.95-143.74 158.62-330.18l-72.93 381.9 239.92-44.75-48.76-41.05 150.71-847.01-192.21 37.05c0 16.43-1.03 112.62-4.45 130.08l-20.66 114.21zm0 0"/></svg>