<svg width="2422" height="1100.002" xmlns="http://www.w3.org/2000/svg"><path d="M35.43 649.262c0-231.21 100.24-377.4 236.46-377.4 50.53 0 96.33 19.09 126.03 34.77l-59 347.76h-3.82c-12.14-240.82-64.2-350.25-125.95-350.25-47.47 0-96.51 78.07-96.51 239.19-1.54 233.04 74.43 348.66 148.11 348.66 38.8 0 108.5-30.47 136.95-232.2-9.13 223.82-78.19 315.26-176.5 315.26-106.24 0-185.77-116.56-185.77-325.79zm465.6 282.66v-558.82c0-41.08-5.82-56.82-56.57-72.42l150.4-29.96-4.46 250.41c16.2-153.76 72.68-248.81 136.07-248.81 16 0 38.71 6.08 59.35 26.2l-37.61 310.33h-3.83c-11.56-178.72-41.56-241.34-71.02-241.34-34.63 0-82.33 81.12-82.33 301.42v208.91c0 52.08 14.09 65.91 56.58 85.16H444.46zm363.77 0v-560.42c0-40.39-5.82-56.13-56.57-73.1l150.4-27.68-3.83 150.71v456.41c0 54.37 14.09 68.19 56.58 85.16H808.23zm37.46-726.37c-41.29 0-69.6-27.02-69.6-59.01 0-33.53 27.85-61.46 68.46-61.46 40.84 0 70.51 27.93 70.51 61.46 0 31.99-29.22 59.01-69.37 59.01zm281.32 115.67v375.99c0 141.76 23.77 193.36 60.04 193.36 22.17 0 40.17-40.82 57.31-159.95-12.55 171.3-59.33 244.66-109.66 244.66-58.44 0-97.69-53.28-97.69-244.67v-352.4c0-61.45-14.32-75.96-56.58-95.21h56.03l77.09-202.54 13.46 202.54h125.44v3.83zm212.22 610.7v-560.42c0-40.39-5.82-56.13-56.57-73.1l150.4-27.68-3.83 150.71v456.41c0 54.37 14.09 68.19 56.58 85.16h-203.15zm37.46-726.37c-41.29 0-69.6-27.02-69.6-59.01 0-33.53 27.85-61.46 68.46-61.46 40.84 0 70.51 27.93 70.51 61.46 0 31.99-29.22 59.01-69.37 59.01zm155.17 443.71c0-231.21 100.24-377.4 236.46-377.4 50.53 0 96.33 19.09 126.03 34.77l-59 347.76h-3.82c-12.14-240.82-64.2-350.25-125.95-350.25-47.47 0-96.51 78.07-96.51 239.19-1.54 233.04 74.43 348.66 148.11 348.66 38.8 0 108.5-30.47 136.95-232.2-9.13 223.82-78.19 315.26-176.5 315.26-106.24 0-185.77-116.56-185.77-325.79zm472.65 29.48l-38.65 256.8c28.66 15.29 88.59 39.74 166.04 39.74 124.03 0 195.42-75.95 196.19-182.38 0-65.42-31.17-114.91-71.2-154.94-45.5-45.5-125.3-88.28-166.43-129.63-32.92-32.93-61.1-67.5-61.1-114.74 0-61.68 46.47-97.6 90.68-97.6 63.46 0 125.52 62.88 156.98 271.04h3.82l44.13-257.35c-24.02-12.96-81.95-38.96-152.94-38.96-118.61 0-193.39 76.93-193.39 181.92 0 60.51 28.31 104.88 66.4 142.97 40.25 40.25 132.78 94.27 170.31 131.8 35.21 35.21 61.1 74.36 61.1 125.23 0 62.59-43.69 97.83-92.93 97.83-70.47 0-149.62-59.46-175.19-271.73zm0 0"/></svg>