<svg width="1775.96" height="1100.002" xmlns="http://www.w3.org/2000/svg"><path d="M226.65 311.372c35.36 0 72.36 23.25 105.54 57.09v447.41c-24.34 59.55-63.1 103.3-100.87 103.3-71.11 0-138.44-139.27-138.44-329.52 0-223.2 76.19-278.28 133.77-278.28zm170.54-113.84l2.83-147.45-126.44 27.74c53.96 15.1 59.52 29.21 59.52 65.61v189.23l34.38-13.52c-41.25-36.16-67.22-47.22-97.03-47.22-43.26 0-83.68 18.48-118.28 53.09-66.11 66.1-115.83 194.35-115.83 366.11 0 193.62 79.74 280.8 154.58 280.8 68.05 0 121.09-68.66 141.27-136.78l-1.92 136.78 125.53-27.74c-53.96-15.1-58.61-29.21-58.61-65.61zm376.34 421.21l-.91 180.2c-18.82 44.03-70.2 122.36-124.95 122.36-32.47 0-81.79-33.09-81.79-139.4 0-53.61 13.44-104.03 42.96-133.55 21.43-21.43 62.01-40.76 104.59-40.76 15.1 0 35.91 3.57 60.1 11.15zm64-207.47c0-107.51-50.28-141.19-97.35-141.19-70.04 0-131.98 93.84-165.6 252.41l28.91-241.49h-77.37l33.31 374.66h2.74c25.94-256.99 99.71-326.88 139.36-326.88 41.72 0 71.09 35.91 71.09 103.63v133.45c-99.19 23.71-160.39 55.16-201.21 95.98-44.07 44.07-62.26 99.43-62.26 161.12 0 95.87 48.74 148.96 104.14 148.96 77.73 0 138-98.84 159.33-158.16l-2.2 158.16 125.72-27.27c-53.97-15.2-58.61-28.85-58.61-65.16zm141.18 522.87v-570.89c0-36.59-4.74-50.7-58.62-65.9l126.36-27.27-2.74 139.57v469.86c0 53.55 14.63 66.29 58.61 81.49H920.09zm24.68-738.06c-32.19 0-56.15-24.03-56.15-51.26 0-29.05 23.78-53.46 55.69-53.46 32 0 56.52 24.41 56.52 53.46 0 27.23-24.33 51.26-56.06 51.26zm181.32 738.06l-58.62 26.86h182.23c-43.98-15.2-58.61-27.94-58.61-81.49v-686.23l2.92-143.2-126.54 27.27c53.88 15.2 58.62 29.31 58.62 65.9zm147.72-653.14h84.7l19.16 105.41 146.88 477.98c68.48-233.25 92.34-445.61 99.6-583.39h93.19l-198.83 649.35c-34.68 103.65-102.49 141.57-158.31 141.57-22.84 0-44.48-6.72-65.04-19.07l27.53-306.64h2.74c3.69 221.63 31.94 281.46 79.44 281.46 21.63 0 60.5-11.35 83.14-65.54zm0 0"/></svg>