<svg width="3686" height="1100.002" xmlns="http://www.w3.org/2000/svg"><path d="M153.77 903.782c-30.17 0-44.8-44.68-44.8-130.69 0-154.91 60.06-347.61 116.95-404.5 28.84-28.84 53.28-45.96 96.46-45.96 29.54 0 57.63 7.94 73.77 15.87-100.11 415.15-194.4 565.28-242.38 565.28zm320.39-614.73c-22.79-4.37-45.13-6.05-66.69-6.05-95.1 0-170.56 37.83-233.14 101.78C68.47 492.242 8.12 664.672 8.12 811.722c0 110.54 33.11 163.33 89.18 163.33 25.57 0 53.36-11.82 80.93-39.39 52.57-52.57 118.69-178.51 188.25-433.21l-85.38 472.06 157.05-33.16-53.49-27.31 152.86-863.32-107.19 23.3c0 37.05-2.32 94.59-10.04 133.95l-20.22 108.19zm506.68 74.72l42.62-75.06c-40.87-12.71-78.09-17.99-114.99-17.99-95.33 0-169.87 40.79-234.06 106.35-105.86 107.45-167.75 287.6-167.75 434.65 0 110.54 33.11 163.33 89.19 163.33 25.56 0 53.36-11.82 80.92-39.39 52.58-52.57 118.7-179.28 188.25-433.99l-88.47 472.84 157.83-32.39-53.49-28.08zm-328.52 540.01c-30.18 0-45.58-44.68-45.58-130.69 0-156.27 62.61-357.61 119.96-414.96 28.83-28.84 53.27-45.96 96.45-45.96 29.55 0 57.86 6.11 75.55 14.05-105.31 428.62-198.18 577.56-246.38 577.56zm567.19-620.78h121.77v3.83l-127.33 42.1-70.1 401.96c-20.46 116.74-7.71 169.49 20.49 169.49 27.17 0 59.43-35.84 97.83-179.8h3.83c-33.23 184.63-92.78 254.7-153.02 254.7-53.87 0-93.21-56.16-64.84-218.75l52.12-296.68c18-102.77 15.77-132.25 2.03-172.62l131.11-181.8zm569.33 80.77l42.62-75.06c-40.87-12.71-78.09-17.99-114.99-17.99-95.33 0-169.87 40.79-234.06 106.35-105.86 107.45-167.75 287.6-167.75 434.65 0 110.54 33.11 163.33 89.19 163.33 25.56 0 53.36-11.82 80.92-39.39 52.58-52.57 118.7-179.28 188.25-433.99l-88.47 472.84 157.83-32.39-53.49-28.08zm-328.52 540.01c-30.18 0-45.58-44.68-45.58-130.69 0-156.27 62.61-357.61 119.96-414.96 28.83-28.84 53.27-45.96 96.45-45.96 29.55 0 57.86 6.11 75.55 14.05-105.31 428.62-198.18 577.56-246.38 577.56zm601.25-819.11l-110.68 23.76-11.57 147.62-111.23 626.18-43.39 75.06c40.87 12.71 78.08 17.99 114.98 17.99 95.33 0 169.87-40.79 234.06-106.35 105.86-107.45 167.75-287.6 167.75-434.65 0-110.54-33.11-163.33-89.19-163.33-25.56 0-53.35 11.82-80.92 39.39-52.58 52.57-118.7 179.28-188.25 433.99zm91.95 257.55c27.09 0 47.12 69.38 47.12 154.62 0 150.87-61.84 333.68-119.18 391.03-28.84 28.84-54.05 47.5-97.23 47.5-29.55 0-57.86-6.11-75.55-14.04 105.31-428.62 196.64-579.11 244.84-579.11zm635.32 21.55l42.62-75.06c-40.87-12.71-78.09-17.99-114.99-17.99-95.33 0-169.87 40.79-234.06 106.35-105.86 107.45-167.75 287.6-167.75 434.65 0 110.54 33.11 163.33 89.19 163.33 25.56 0 53.36-11.82 80.92-39.39 52.58-52.57 118.7-179.28 188.25-433.99l-88.47 472.84 157.83-32.39-53.49-28.08zm-328.52 540.01c-30.18 0-45.58-44.68-45.58-130.69 0-156.27 62.61-357.61 119.96-414.96 28.83-28.84 53.27-45.96 96.45-45.96 29.55 0 57.86 6.11 75.55 14.05-105.31 428.62-198.18 577.56-246.38 577.56zm565.33-220.25c55.58 50.75 78.69 88.48 78.69 144.73 0 79.97-57.54 122.89-112.55 122.89-67.96 0-120.58-58.1-139.32-220.28h-3.83l-56.8 225.78c34.37 10.09 66.02 18.63 128.25 18.63 167.03 0 248.59-98.62 248.59-204.55 0-60.52-27.19-111.43-85.9-164.43l-62.82-52.55c-43.61-38.77-78.32-76.44-78.32-140.41 0-79.97 48.27-118.49 103.28-118.49 67.95 0 116.52 60.68 133.1 220.51h3.83l59.08-226.01c-34.36-10.09-61.39-18.63-123.61-18.63-167.04 0-239.34 95.85-239.34 198.38 0 73.97 33.05 113.97 88.44 164.11zm618.09-76.45c-27.01 260.43-136.81 368.2-236.2 368.2-82.18 0-152.59-89.75-152.59-241.65 0-151.06 56.94-310.25 142.22-395.53 42.59-42.59 91.23-67.38 144.38-67.38 73.56 0 132.47 43.51 132.47 130.6 0 57.56-24.16 121.45-68.31 165.6-65.54 65.54-160.89 94.87-275.3 113.87l5.71-62.24c26.86 11.31 51.26 19.93 75.95 19.93 47.04 0 87.08-9.95 115.23-38.1 35.72-35.72 50.41-109.13 50.41-182.98 0-78.08-24.72-131.43-64.24-131.43-69.15 0-162.72 190.61-162.72 382.94 0 143.14 45.76 225.82 106.99 225.82 55.13 0 134.39-56.88 182.17-287.65zm0 0"/></svg>