<svg width="3880" height="1100.002" xmlns="http://www.w3.org/2000/svg"><path d="M300 812.002c-24 0-34-47-34-106 0-114 40-326 83-369 8-8 17-12 27-12 28 0 53 28 73 56-43 250-118 431-149 431zm342-509c-39-9-76-13-113-13-136 0-284 44-379 145-102 109-150 266-150 376 0 109 47 178 127 178 41 0 85-18 128-61 41-41 94-116 135-248l-63 310 306-54-45-52 149-834-260 48v127l-21 119zm614 264c0 245-126 423-318 423-120 0-229-72-229-254 0-131 50-257 143-350 75-75 163-116 264-116 116 0 178 52 178 136 0 73-45 123-66 144-91 91-218 135-327 154l25-107c23 36 42 67 69 67 10 0 13-3 18-8 28-28 45-140 45-237 0-75-17-116-38-116-46 0-84 169-84 305 0 147 72 188 134 188 86 0 156-70 176-229zm47 156c1 175 111 267 227 267 149 0 257-148 297-261h-10c-37 32-85 51-134 51-102 0-156-104-156-243 0-118 37-210 65-210 50 0 91 195 91 443h10l223-493c-29-4-78-7-121-7-318 0-492 232-492 453zm947-673l-270 51v179l-124 705 295-52-45-52zm-39 940l295-52-45-52 108-616-295 52 45 52zm269-735c95 0 162-45 162-109-1-56-53-101-136-101-99 0-157 53-158 110-1 53 48 100 132 100zm88 730l107-611-45-52 295-52-47 273c25.82-80.92 67-149 115-197 49-49 103.64-76 154-76 77 0 120 77 87 272l-58 339 45 52-295 52 55-307c23-126 20-232-19-232-35 0-96 119-129 339l1 154zm1274-418c0 245-126 423-318 423-120 0-229-72-229-254 0-131 50-257 143-350 75-75 163-116 264-116 116 0 178 52 178 136 0 73-45 123-66 144-91 91-218 135-327 154l25-107c23 36 42 67 69 67 10 0 13-3 18-8 28-28 45-140 45-237 0-75-17-116-38-116-46 0-84 169-84 305 0 147 72 188 134 188 86 0 156-70 176-229zm0 0"/></svg>