<svg width="2614" height="1100.002" xmlns="http://www.w3.org/2000/svg"><path d="M226.65 311.372c35.36 0 72.36 23.25 105.54 57.09v447.41c-24.34 59.55-63.1 103.3-100.87 103.3-71.11 0-138.44-139.27-138.44-329.52 0-223.2 76.19-278.28 133.77-278.28zm170.54-113.84l2.83-147.45-126.44 27.74c53.96 15.1 59.52 29.21 59.52 65.61v189.23l34.38-13.52c-41.25-36.16-67.22-47.22-97.03-47.22-43.26 0-83.68 18.48-118.28 53.09-66.11 66.1-115.83 194.35-115.83 366.11 0 193.62 79.74 280.8 154.58 280.8 68.05 0 121.09-68.66 141.27-136.78l-1.92 136.78 125.53-27.74c-53.96-15.1-58.61-29.21-58.61-65.61zm107.42 452.47c0 209.43 73.27 321.92 166.29 321.92 85.76 0 160.35-96.05 163.49-334.19l-2.55-.19c-22.87 236.36-85.76 273.99-128.35 273.99-76.43 0-143.17-121.99-143.17-371.42 0-174.81 56.21-231.33 103.27-231.33 74.94 0 121.58 118.5 121.58 278.48l23.02-17.03-273.36 20.69v9.82l311.71 18.63c2.56-18.95 3.74-33.52 3.74-51.55 0-199.97-64.15-297.93-147.55-297.93-103.48 0-198.12 147.31-198.12 380.11zm421.54-1.11c0-234.06 92.36-378.35 211.19-378.35 46.05 0 88.99 19.63 115.3 34.91l-46.5 330.64h-2.74c1.03-227.24-49.8-334.63-114.67-334.63-51.95 0-107.52 81.6-107.52 257.53-1.81 239.56 72.39 351.24 133.17 351.24 40.7 0 114.75-34.95 138.16-267.79-3.69 242.97-71.52 329.39-157.75 329.39-98.36 0-168.64-113.85-168.64-322.94zm438.56 285.25l-58.62 26.86h182.23c-43.98-15.2-58.61-27.94-58.61-81.49v-686.23l2.92-143.2-126.54 27.27c53.88 15.2 58.62 29.31 58.62 65.9zm210 0v-570.89c0-36.59-4.74-50.7-58.62-65.9l126.36-27.27-2.74 139.57v469.86c0 53.55 14.63 66.29 58.61 81.49h-182.23zm24.68-738.06c-32.19 0-56.15-24.03-56.15-51.26 0-29.05 23.78-53.46 55.69-53.46 32 0 56.52 24.41 56.52 53.46 0 27.23-24.33 51.26-56.06 51.26zm181.5 738.06l-58.61 26.86h182.23c-43.99-16.13-58.62-28.86-58.62-81.49v-409.06c53.31-108.84 88.55-138.35 125.24-138.35 46.39 0 86.98 47.13 86.98 171.45v430.59l-57.69 26.86h181.31c-43.99-16.13-58.62-28.86-58.62-81.49v-431.94c0-129.29-45.01-177.49-100.97-177.49-68.4 0-132.6 74.75-176.25 180.01l2.74-180.01-126.35 28.2c53.87 14.64 58.61 28.75 58.61 65.62zm449.72-284.14c0 209.43 73.27 321.92 166.29 321.92 85.76 0 160.35-96.05 163.49-334.19l-2.55-.19c-22.87 236.36-85.76 273.99-128.35 273.99-76.43 0-143.17-121.99-143.17-371.42 0-174.81 56.21-231.33 103.27-231.33 74.94 0 121.58 118.5 121.58 278.48l23.02-17.03-273.36 20.69v9.82l311.71 18.63c2.56-18.95 3.74-33.52 3.74-51.55 0-199.97-64.15-297.93-147.55-297.93-103.48 0-198.12 147.31-198.12 380.11zm0 0"/></svg>