<svg width="2622" height="1100.002" xmlns="http://www.w3.org/2000/svg"><path d="M128.91 919.172c-31.26 0-46.71-44.27-46.71-135.04 0-162.1 63.6-351.41 122.94-410.75 32.5-32.51 59.65-51.93 108.68-51.93 29.82 0 58.45 4.4 73.91 8.8-110.16 444.23-207.85 588.92-258.82 588.92zm316.58-633.34c-19.94-3.55-39.69-4.83-58.54-4.83-87.9 0-150.58 36.74-207.46 94.17-106.54 107.19-169.06 282.34-169.06 435.91 0 110.81 30.66 160.75 82.53 160.75 22.84 0 47.78-10.74 72.63-35.59 54.62-54.61 123.05-189.51 197.63-465.82l-89.32 500.6 130.83-29.5-54.99-22.95 153.54-868.49-80.29 18.95c0 43.57-2.72 88.88-11.8 135.17l-20.09 106.29zm403.62 327.53c-31.77 263.16-138.71 358.56-221.79 358.56-75.53 0-139.15-92.87-139.15-239.47 0-154.6 58.17-319.63 142.09-403.55 36.88-36.88 78.59-58.82 123.32-58.82 66.08 0 124.45 42.01 124.45 129.64 0 54.85-20.49 121.19-68.72 169.42-61.05 61.04-150.84 87.8-266.19 106.8l2.31-54.36c27.54 6.96 52.89 11.64 77.17 11.64 53.56 0 100.13-11.17 132.36-43.4 37.07-37.08 51.35-103.7 51.35-173.47 0-78.63-26.08-134.15-68.86-134.15-73.23 0-176.57 194.41-176.57 396.67 0 142.46 41.14 232.47 102.23 232.47 49.69 0 130.59-54.57 183.26-297.98zm66.97 127.87c.09 154.12 63.8 230.69 129.88 230.69 72.76 0 171.69-89 216.22-331.79h-2.73c-62.42 232.58-142.18 269.73-176.66 269.73-43.91 0-100.64-64.06-100.64-232.1 0-240.53 103.26-392.43 180.27-392.43 54.54 0 85.55 105.14 52.88 352.24h2.74l95.93-326.91c-21.74-15.8-65.29-40.58-115.55-40.58-155.54 0-282.34 214.75-282.34 471.15zm616.9-691.15l-83.03 21.04-9.98 138.16-134.89 762.18 128.9-29.31-54.98-22.95zm-23.9 920.94l137.98-28.41-64.06-23.86 113.45-648.67-137.99 29.31 64.06 22.95zm166.53-774.03c36.91 0 63.98-25.03 63.98-58.17-.1-26.96-21.24-48.36-51.6-48.36-37.28 0-64.42 26.68-64.51 59.17-.09 25.77 21.68 47.36 52.13 47.36zm32.02 774.47l113.35-649.12-54.98-22.95 130.72-29.31-75.13 426.38c55.93-203.52 135.98-331.43 193.96-389.41 25.4-25.4 51.32-36.97 76.85-36.97 60.67 0 88.24 68.83 64.31 204.83l-77.97 443.38 54.99 22.95-130.72 29.31 84.04-477.63c17.55-101.49 7.29-170.28-28.98-170.28-55.88 0-184.95 156.21-267.87 553.2l.09 76.85zm870.48-358.1c-31.77 263.16-138.71 358.56-221.79 358.56-75.53 0-139.15-92.87-139.15-239.47 0-154.6 58.17-319.63 142.09-403.55 36.88-36.88 78.59-58.82 123.32-58.82 66.08 0 124.45 42.01 124.45 129.64 0 54.85-20.49 121.19-68.72 169.42-61.05 61.04-150.84 87.8-266.19 106.8l2.31-54.36c27.54 6.96 52.89 11.64 77.17 11.64 53.56 0 100.13-11.17 132.36-43.4 37.07-37.08 51.35-103.7 51.35-173.47 0-78.63-26.08-134.15-68.86-134.15-73.23 0-176.57 194.41-176.57 396.67 0 142.46 41.14 232.47 102.23 232.47 49.69 0 130.59-54.57 183.26-297.98zm0 0"/></svg>