<svg width="2696" height="1100.002" xmlns="http://www.w3.org/2000/svg"><path d="M226.65 311.372c35.36 0 72.36 23.25 105.54 57.09v447.41c-24.34 59.55-63.1 103.3-100.87 103.3-71.11 0-138.44-139.27-138.44-329.52 0-223.2 76.19-278.28 133.77-278.28zm170.54-113.84l2.83-147.45-126.44 27.74c53.96 15.1 59.52 29.21 59.52 65.61v189.23l34.38-13.52c-41.25-36.16-67.22-47.22-97.03-47.22-43.26 0-83.68 18.48-118.28 53.09-66.11 66.1-115.83 194.35-115.83 366.11 0 193.62 79.74 280.8 154.58 280.8 68.05 0 121.09-68.66 141.27-136.78l-1.92 136.78 125.53-27.74c-53.96-15.1-58.61-29.21-58.61-65.61zm107.42 452.47c0 209.43 73.27 321.92 166.29 321.92 85.76 0 160.35-96.05 163.49-334.19l-2.55-.19c-22.87 236.36-85.76 273.99-128.35 273.99-76.43 0-143.17-121.99-143.17-371.42 0-174.81 56.21-231.33 103.27-231.33 74.94 0 121.58 118.5 121.58 278.48l23.02-17.03-273.36 20.69v9.82l311.71 18.63c2.56-18.95 3.74-33.52 3.74-51.55 0-199.97-64.15-297.93-147.55-297.93-103.48 0-198.12 147.31-198.12 380.11zm421.54-1.11c0-234.06 92.36-378.35 211.19-378.35 46.05 0 88.99 19.63 115.3 34.91l-46.5 330.64h-2.74c1.03-227.24-49.8-334.63-114.67-334.63-51.95 0-107.52 81.6-107.52 257.53-1.81 239.56 72.39 351.24 133.17 351.24 40.7 0 114.75-34.95 138.16-267.79-3.69 242.97-71.52 329.39-157.75 329.39-98.36 0-168.64-113.85-168.64-322.94zm438.56 285.25l-58.62 26.86h182.23c-43.98-15.2-58.61-27.94-58.61-81.49v-686.23l2.92-143.2-126.54 27.27c53.88 15.2 58.62 29.31 58.62 65.9zm444.82-315.4l-.91 180.2c-18.82 44.03-70.2 122.36-124.95 122.36-32.47 0-81.79-33.09-81.79-139.4 0-53.61 13.44-104.03 42.96-133.55 21.43-21.43 62.01-40.76 104.59-40.76 15.1 0 35.91 3.57 60.1 11.15zm64-207.47c0-107.51-50.28-141.19-97.35-141.19-70.04 0-131.98 93.84-165.6 252.41l28.91-241.49h-77.37l33.31 374.66h2.74c25.94-256.99 99.71-326.88 139.36-326.88 41.72 0 71.09 35.91 71.09 103.63v133.45c-99.19 23.71-160.39 55.16-201.21 95.98-44.07 44.07-62.26 99.43-62.26 161.12 0 95.87 48.74 148.96 104.14 148.96 77.73 0 138-98.84 159.33-158.16l-2.2 158.16 125.72-27.27c-53.97-15.2-58.61-28.85-58.61-65.16zm137.27 522.87v-570.24c0-36.87-4.74-50.98-58.62-65.62l126.36-28.2-4.19 243.62c14.3-149.15 67.51-242.98 127.1-242.98 16 0 40.08 6.63 61.52 29.06l-28.91 277.99h-2.74c-8.85-180.07-38.85-238.75-68.03-238.75-35.45 0-87.49 83.43-87.49 324.38v216.11c0 52.63 14.63 65.36 58.61 81.49h-182.23zm301.81-284.14c0 209.43 73.27 321.92 166.29 321.92 85.76 0 160.35-96.05 163.49-334.19l-2.55-.19c-22.87 236.36-85.76 273.99-128.35 273.99-76.43 0-143.17-121.99-143.17-371.42 0-174.81 56.21-231.33 103.27-231.33 74.94 0 121.58 118.5 121.58 278.48l23.02-17.03-273.36 20.69v9.82l311.71 18.63c2.56-18.95 3.74-33.52 3.74-51.55 0-199.97-64.15-297.93-147.55-297.93-103.48 0-198.12 147.31-198.12 380.11zm0 0"/></svg>