<svg width="3406.1" height="1100.002" xmlns="http://www.w3.org/2000/svg"><path d="M232.34 852.832c-26.74 0-38.79-45.98-38.79-116.96 0-132.15 48.9-335.59 98.06-384.75 17.25-17.25 33.1-27.07 57.82-27.07 28.68 0 55.05 19.1 73.34 38.2-68.34 323.27-151.89 490.58-190.43 490.58zm332.42-555.91c-31.81-6.95-62.31-9.92-92.46-9.92-117.85 0-233.67 41.26-314.29 125.83C54.3 521.142.82 684.992.82 811.422c0 109.69 40.84 171.5 110.22 171.5 34.16 0 70.97-15.26 107.12-51.41 46.13-46.14 104.95-143.74 158.62-330.18l-72.93 381.9 239.92-44.75-48.76-41.05 150.71-847.01-192.21 37.05c0 16.43-1.03 112.62-4.45 130.08l-20.66 114.21zm534.13 287.97c-11.98 251.84-130.79 398.69-281.71 398.69-103.22 0-195.1-79.88-195.1-248.53 0-139.9 53.08-280.62 142.66-370.2 60.62-60.62 131.16-94.43 210.93-94.43 97.17 0 157.8 48.24 157.8 133.61 0 66.15-35.76 122.31-67.03 153.58-79.7 79.71-192.66 117.2-304.06 136.2l16.44-87.14c24.71 25.04 46.11 46.11 72.08 46.11 26.44 0 45.87-6.08 61.14-21.35 31.43-31.42 47.4-126.31 47.4-213.03 0-76.37-20.42-122.85-49.64-122.85-56.27 0-118.92 178.59-118.92 339.58 0 145.29 60.35 204.78 122.01 204.78 72.31 0 146.41-64.18 178.74-255.02zm299.13 156.31c64.18 50.27 79.97 89.38 79.97 125.41 0 46.05-32.2 75.66-72.18 75.66-58.5 0-148.01-75.23-202.01-224.57h-7.26l-90.3 249.82c36.95 8.37 75.47 16.06 138.13 16.06 236.69 0 330.6-111.07 330.6-228.17 0-65.26-33.2-117.87-102.64-170.87l-105.76-76.17c-56.05-42.1-77.03-82.91-77.03-122.38 0-46.04 28.09-74.26 68.07-74.26 58.44 0 147.59 82.67 195.36 225.23h7.26l96.87-250.48c-36.95-8.37-73.42-16.06-136.07-16.06-236.69 0-326.5 108.73-326.5 225.43 0 70.16 36.92 119.55 104.33 171.84zm233.4 242.03l235.77-43.09-52.19-41.39 110.05-628.33-235.76 43.44 52.19 41.05zm230.97-749.72c73.09 0 125.02-37.47 125.02-89.83-.65-45.04-41.01-81.14-104.15-81.14-75.72 0-122.08 43.07-122.74 90.83-.66 42.73 38.07 80.14 101.87 80.14zm62.98 753.35l111.37-631.95-49.45-41.05 233.03-43.44-61.27 302.62c73.27-266.96 167.28-302.62 223.17-302.62 6.51 0 19.67 7 26.52 11.8l-115.38 405.41h-7.26c2.07-187.48-17.38-246.21-42.09-246.21-24.51 0-68.96 57.92-124.78 379.48v130.24zm922.52-401.97c-11.98 251.84-130.79 398.69-281.71 398.69-103.22 0-195.1-79.88-195.1-248.53 0-139.9 53.08-280.62 142.66-370.2 60.62-60.62 131.16-94.43 210.93-94.43 97.17 0 157.8 48.24 157.8 133.61 0 66.15-35.76 122.31-67.03 153.58-79.7 79.71-192.66 117.2-304.06 136.2l16.44-87.14c24.71 25.04 46.11 46.11 72.08 46.11 26.44 0 45.87-6.08 61.14-21.35 31.43-31.42 47.4-126.31 47.4-213.03 0-76.37-20.42-122.85-49.64-122.85-56.27 0-118.92 178.59-118.92 339.58 0 145.29 60.35 204.78 122.01 204.78 72.31 0 146.41-64.18 178.74-255.02zm299.13 156.31c64.18 50.27 79.97 89.38 79.97 125.41 0 46.05-32.2 75.66-72.18 75.66-58.5 0-148.01-75.23-202.01-224.57h-7.26l-90.3 249.82c36.95 8.37 75.47 16.06 138.13 16.06 236.69 0 330.6-111.07 330.6-228.17 0-65.26-33.2-117.87-102.64-170.87l-105.76-76.17c-56.05-42.1-77.03-82.91-77.03-122.38 0-46.04 28.09-74.26 68.07-74.26 58.44 0 147.59 82.67 195.36 225.23h7.26l96.87-250.48c-36.95-8.37-73.42-16.06-136.07-16.06-236.69 0-326.5 108.73-326.5 225.43 0 70.16 36.92 119.55 104.33 171.84zm0 0"/></svg>