<svg width="2463.46" height="1100.002" xmlns="http://www.w3.org/2000/svg"><path d="M187.59 882.132c-28.7 0-42.22-45.24-42.22-124.78 0-145.11 55.26-342.44 108.83-396 23.84-23.85 44.58-37.83 79.82-37.83 29.18 0 56.52 12.74 73.59 25.48-86.44 375.61-176.11 533.13-220.02 533.13zm325.56-589.41c-26.67-5.48-52.52-7.72-77.78-7.72-104.89 0-197.72 39.3-268.07 112.13C62.37 504.962 4.98 673.702 4.98 811.872c0 110.17 36.43 166.85 98.24 166.85 29.26 0 60.93-13.31 92.19-44.57 49.81-49.8 112.79-163.54 175.5-388.87l-80.02 433.26 192.72-38.15-51.46-33.22 151.94-856.3-143.79 29.22c0 28.17-1.76 102.34-7.63 132.28l-20.41 110.78zm477.81 305.08c-20.55 256.74-134.22 381.33-255.79 381.33-91.24 0-170.89-85.5-170.89-244.61 0-146.26 55.29-297.5 142.42-384.63 50.34-50.35 108.41-79.02 173.02-79.02 83.71 0 143.37 45.54 143.37 131.89 0 61.26-29.16 121.83-67.76 160.44-71.63 71.63-174.57 104.47-287.68 123.47l10.33-72.95c25.93 17.21 49.04 31.19 74.28 31.19 38.17 0 69.35-8.28 91.96-30.89 33.87-33.87 49.11-116.52 49.11-195.91 0-77.35-22.87-127.74-57.96-127.74-63.61 0-143.87 185.43-143.87 364.28 0 144.07 52.04 216.76 113.46 216.76 62.52 0 139.56-60.02 180.69-273.61zm293.58-312.8h121.59v5.3l-130.85 45.44-62.89 359.83c-20.82 118.95-12.32 184.45 18.46 184.45 25.69 0 55.74-30.85 92.85-160.22h5.3c-33.41 183.53-103.13 259.33-174.09 259.33-63.48 0-106.32-61.15-76.84-231.5l48.97-280.24c18-102.59 15.59-136.5-.37-177.98l168.44-185.67zm609.31 80.59l47.98-70.26c-50.48-17.33-94.35-24.46-138.46-24.46-105.3 0-196.48 44.67-269.72 120.39-104.93 107.83-163.5 282.44-163.5 420.61 0 110.17 36.44 166.85 98.24 166.85 29.26 0 60.94-13.31 92.2-44.57 49.8-49.8 112.78-164.13 175.5-389.45l-82.37 433.84 193.3-37.56-51.45-33.81zm-341.09 516.54c-28.69 0-42.8-45.24-42.8-124.78 0-147.59 57.43-352.44 111.82-406.83 23.85-23.85 44.59-37.82 79.83-37.82 29.17 0 56.93 9.43 75.17 22.17-94.21 399.98-179.69 547.26-224.02 547.26zm366.11 96.41l193.46-36.74-57.33-33.8 111.52-637.13-193.45 37.33 57.32 33.21zm203.09-760.24c57.43 0 98.61-32.08 98.61-76.13-.42-37.21-32.46-66.95-81.42-66.95-59.08 0-97.13 35.98-97.54 77.13-.41 35.39 30.98 65.95 80.35 65.95zm341.5-167.43l-149.09 31.63-6.46 152.59-131.04 741.98 187.59-37.33-51.46-33.22zm0 0"/></svg>