<svg width="2407" height="1100.002" xmlns="http://www.w3.org/2000/svg"><path d="M249.74 316.652c33.11 0 70.11 38 103.93 95.57v400.28c-18.56 40.63-46.1 69.63-72.65 69.63-74.95 0-136.52-147.17-136.52-324.39 0-189.22 59.52-241.09 105.24-241.09zm227.93-78.56l5.72-187.22-183.52 30.3c46.91 18.96 54.39 36.92 54.39 81.66v179.6l77.35-29.23c-42.11-26.31-74.91-34.07-104.09-34.07-71.78 0-131.13 23.61-178.24 70.72-69.95 69.95-118.71 194.34-118.71 352.65 0 188.8 82.3 276.63 163.56 276.63 78.63 0 138.72-74.43 159.54-149.93l-5.13 149.93 182.94-30.3c-46.91-18.96-53.81-36.92-53.81-81.66zm101.13 415.91c0 203.98 91.55 325.13 208.94 325.13 112.69 0 196.26-106.63 210.3-317.52l-4.47-.83c-32.81 175.11-91.85 211.46-143.42 211.46-91.82 0-161.13-118.46-161.13-362.44 0-153.32 43.07-204.71 83.39-204.71 60.83 0 109.72 127.15 109.72 283.61l26.54-24.09-232.95 33.52v9.17l328.06 38.2c4.48-29.22 6.31-49.24 6.31-74.33 0-192.91-78.59-301.13-187.63-301.13-129.46 0-243.66 155.33-243.66 383.96zm657-324.13v348.46c0 131.04 23.59 183.93 68.18 183.93 20.69 0 38.69-31.76 56.76-124.28-22.72 160.22-79.85 241.15-140.15 241.15-65.29 0-108.79-55.13-108.79-234.7v-351.1c0-68.29-13.76-84.83-53.8-108.33h53.63l110.35-202.17 13.82 202.17h132.29v5.3zm467.44 316.28l-.59 163.52c-18.17 30.24-53.52 81.96-93.52 81.96-37.61 0-77.63-33.41-77.63-126.89 0-48.81 11.52-90.24 35.91-114.63 15.98-15.98 44.7-29.54 75.42-29.54 15.41 0 35.58 9.02 60.41 25.58zm123-212.61c0-119.69-51.24-162.67-112.41-162.67-80.63 0-149.31 100.26-198.96 264.28l49.43-250.15h-137.65l62.18 380.43h5.3c32.67-215.3 95.22-281.34 137.11-281.34 40.76 0 71.41 35.58 71.41 102.34v93.37c-125.97 37.59-186.04 69.59-226.22 109.77-40.86 40.86-59.69 91.15-59.69 147.65 0 88.5 51.3 141.91 115.04 141.91 76.76 0 138-84.41 170.87-155.28l-6.37 155.28 183.76-28.24c-46.91-19.37-53.8-35.26-53.8-79.59zm131.98 494.66v-546.2c0-45.57-7.31-63.52-53.81-82.89l183.11-28.24-5.3 165.87v438.11c0 55.48 13.35 70.78 53.8 90.15h-231.61zm54.82-710.48c-53.67 0-87.89-31.09-87.89-69.55 0-39.63 33.39-72.37 85.83-72.37 52.85 0 89.54 32.74 89.54 72.37 0 38.46-35.87 69.55-87.48 69.55zm202.18 710.48l-53.81 36.8h231.61c-40.45-19.37-53.8-34.67-53.8-90.15v-655.76l6.13-168.22-183.94 28.24c46.5 19.37 53.81 37.32 53.81 82.89zm0 0"/></svg>