<svg width="3311" height="1100.002" xmlns="http://www.w3.org/2000/svg"><path d="M236.43 313.912c34.41 0 71.41 29.5 104.86 73.39v427.45c-21.89 51.53-55.9 89.03-88.91 89.03-72.74 0-137.63-142.62-137.63-327.35 0-208.8 69.13-262.52 121.68-262.52zm194.86-98.89l4.06-164.3-150.63 28.82c50.98 16.74 57.35 32.48 57.35 72.42v185.15l52.58-20.19c-41.61-31.98-70.48-41.64-100.02-41.64-55.35 0-103.78 20.65-143.68 60.56-67.74 67.74-117.06 194.35-117.06 360.41 0 191.58 80.83 279.03 158.39 279.03 72.54 0 128.56-71.11 149.01-142.36l-3.28 142.36 149.86-28.82c-50.98-16.74-56.58-32.48-56.58-72.42zm139.51 716.9v-560.42c0-40.39-5.82-56.13-56.57-73.1l150.4-27.68-3.83 150.71v456.41c0 54.37 14.09 68.19 56.58 85.16H514.23zm37.46-726.37c-41.29 0-69.6-27.02-69.6-59.01 0-33.53 27.85-61.46 68.46-61.46 40.84 0 70.51 27.93 70.51 61.46 0 31.99-29.22 59.01-69.37 59.01zm285.17 113.35v558.94c0 53.68 14.09 67.51 56.58 85.16H746.86l56.57-31.08v-562.21c0-54.37-15-68.43-58.85-82.88v-3.83h58.85c4.57-106.34 83.3-201.41 184.31-232.28l1.54 2.28c-65.44 57.72-95.85 121.14-95.85 230h87.11v3.83zm246 0v558.94c0 53.68 14.09 67.51 56.58 85.16H992.86l56.57-31.08v-562.21c0-54.37-15-68.43-58.85-82.88v-3.83h58.85c4.57-106.34 83.3-201.41 184.31-232.28l1.54 2.28c-65.44 57.72-95.85 121.14-95.85 230h87.11v3.83zm117.15 333.1c0 207.12 81.01 323.28 184.35 323.28 97.18 0 175.57-100.53 183.33-327.13l-3.37-.45c-27.07 210.4-88.34 247.48-134.73 247.48-82.95 0-150.78-120.48-150.78-367.6 0-165.71 50.64-220.06 94.85-220.06 68.95 0 116.55 122.16 116.55 280.65l24.51-20.02-256.24 26.13v9.55l318.65 26.92c3.37-23.3 4.82-40.18 4.82-61.21 0-196.97-70.27-299.28-164.53-299.28-114.49 0-217.41 150.71-217.41 381.74zm485.45 279.92v-558.82c0-41.08-5.82-56.82-56.57-72.42l150.4-29.96-4.46 250.41c16.2-153.76 72.68-248.81 136.07-248.81 16 0 38.71 6.08 59.35 26.2l-37.61 310.33h-3.83c-11.56-178.72-41.56-241.34-71.02-241.34-34.63 0-82.33 81.12-82.33 301.42v208.91c0 52.08 14.09 65.91 56.58 85.16h-203.15zm329.55-279.92c0 207.12 81.01 323.28 184.35 323.28 97.18 0 175.57-100.53 183.33-327.13l-3.37-.45c-27.07 210.4-88.34 247.48-134.73 247.48-82.95 0-150.78-120.48-150.78-367.6 0-165.71 50.64-220.06 94.85-220.06 68.95 0 116.55 122.16 116.55 280.65l24.51-20.02-256.24 26.13v9.55l318.65 26.92c3.37-23.3 4.82-40.18 4.82-61.21 0-196.97-70.27-299.28-164.53-299.28-114.49 0-217.41 150.71-217.41 381.74zm489.68 279.92l-56.58 31.08h203.16c-42.49-19.25-56.58-33.08-56.58-85.16v-406.21c47.87-93.89 80.53-119.73 113.83-119.73 48.42 0 85.49 50.25 85.49 170.63v409.39l-54.3 31.08h200.87c-42.49-19.25-56.57-33.08-56.57-85.16v-425.96c0-131.2-46.51-181.16-106.82-181.16-71.93 0-137.9 77.33-182.5 181.51l3.83-181.51-150.41 29.96c50.75 15.6 56.58 31.34 56.58 72.42zm608.32-610.7v375.99c0 141.76 23.77 193.36 60.04 193.36 22.17 0 40.17-40.82 57.31-159.95-12.55 171.3-59.33 244.66-109.66 244.66-58.44 0-97.69-53.28-97.69-244.67v-352.4c0-61.45-14.32-75.96-56.58-95.21h56.03l77.09-202.54 13.46 202.54h125.44v3.83zm0 0"/></svg>