<svg width="3645" height="1100.002" xmlns="http://www.w3.org/2000/svg"><path d="M249.74 316.652c33.11 0 70.11 38 103.93 95.57v400.28c-18.56 40.63-46.1 69.63-72.65 69.63-74.95 0-136.52-147.17-136.52-324.39 0-189.22 59.52-241.09 105.24-241.09zm227.93-78.56l5.72-187.22-183.52 30.3c46.91 18.96 54.39 36.92 54.39 81.66v179.6l77.35-29.23c-42.11-26.31-74.91-34.07-104.09-34.07-71.78 0-131.13 23.61-178.24 70.72-69.95 69.95-118.71 194.34-118.71 352.65 0 188.8 82.3 276.63 163.56 276.63 78.63 0 138.72-74.43 159.54-149.93l-5.13 149.93 182.94-30.3c-46.91-18.96-53.81-36.92-53.81-81.66zm135.55 690.11v-546.2c0-45.57-7.31-63.52-53.81-82.89l183.11-28.24-5.3 165.87v438.11c0 55.48 13.35 70.78 53.8 90.15H559.41zm54.82-710.48c-53.67 0-87.89-31.09-87.89-69.55 0-39.63 33.39-72.37 85.83-72.37 52.85 0 89.54 32.74 89.54 72.37 0 38.46-35.87 69.55-87.48 69.55zm329.7 110.39v546.74c0 54.24 13.35 69.54 53.8 90.15H819.93l53.81-36.8v-551.87c0-55.48-15-71.2-57.94-86.03v-5.3h57.94c8.26-109.85 95.67-210.65 224.22-234.13l1.17 4.13c-72.28 55.87-101.39 122.07-101.39 230h90.43v5.3zm274 0v546.74c0 54.24 13.35 69.54 53.8 90.15h-231.61l53.81-36.8v-551.87c0-55.48-15-71.2-57.94-86.03v-5.3h57.94c8.26-109.85 95.67-210.65 224.22-234.13l1.17 4.13c-72.28 55.87-101.39 122.07-101.39 230h90.43v5.3zm112.06 325.89c0 203.98 91.55 325.13 208.94 325.13 112.69 0 196.26-106.63 210.3-317.52l-4.47-.83c-32.81 175.11-91.85 211.46-143.42 211.46-91.82 0-161.13-118.46-161.13-362.44 0-153.32 43.07-204.71 83.39-204.71 60.83 0 109.72 127.15 109.72 283.61l26.54-24.09-232.95 33.52v9.17l328.06 38.2c4.48-29.22 6.31-49.24 6.31-74.33 0-192.91-78.59-301.13-187.63-301.13-129.46 0-243.66 155.33-243.66 383.96zm528.83 274.2v-543.31c0-46.8-7.3-64.76-53.8-81.65l183.1-32.37-4.82 259.65c18.78-160.04 79.69-256.76 148.26-256.76 16 0 36.87 5.35 56.39 22.33l-49.43 354.3h-5.31c-15.26-176.87-45.26-244.85-75.09-244.85-33.52 0-75.3 77.98-75.3 270.2v199.11c0 51.35 13.35 66.65 53.8 90.15h-231.6zm366.17-274.2c0 203.98 91.55 325.13 208.94 325.13 112.69 0 196.26-106.63 210.3-317.52l-4.47-.83c-32.81 175.11-91.85 211.46-143.42 211.46-91.82 0-161.13-118.46-161.13-362.44 0-153.32 43.07-204.71 83.39-204.71 60.83 0 109.72 127.15 109.72 283.61l26.54-24.09-232.95 33.52v9.17l328.06 38.2c4.48-29.22 6.31-49.24 6.31-74.33 0-192.91-78.59-301.13-187.63-301.13-129.46 0-243.66 155.33-243.66 383.96zm533.24 274.2l-53.8 36.8h231.61c-40.46-23.5-53.81-38.8-53.81-90.15v-402.33c40.48-73.56 69.63-94.41 98.31-94.41 51.19 0 83.45 54.5 83.45 169.52v380.57l-49.67 36.8h227.48c-40.46-23.5-53.81-38.8-53.81-90.15v-417.83c0-133.78-48.54-186.15-114.76-186.15-76.74 0-145.11 80.85-191 183.54l5.31-183.54-183.11 32.37c46.5 16.89 53.8 34.85 53.8 81.65zm688.76-598.33v348.46c0 131.04 23.59 183.93 68.18 183.93 20.69 0 38.69-31.76 56.76-124.28-22.72 160.22-79.85 241.15-140.15 241.15-65.29 0-108.79-55.13-108.79-234.7v-351.1c0-68.29-13.76-84.83-53.8-108.33h53.63l110.35-202.17 13.82 202.17h132.29v5.3zm0 0"/></svg>