<svg width="3162" height="1100.002" xmlns="http://www.w3.org/2000/svg"><path d="M128.91 919.172c-31.26 0-46.71-44.27-46.71-135.04 0-162.1 63.6-351.41 122.94-410.75 32.5-32.51 59.65-51.93 108.68-51.93 29.82 0 58.45 4.4 73.91 8.8-110.16 444.23-207.85 588.92-258.82 588.92zm316.58-633.34c-19.94-3.55-39.69-4.83-58.54-4.83-87.9 0-150.58 36.74-207.46 94.17-106.54 107.19-169.06 282.34-169.06 435.91 0 110.81 30.66 160.75 82.53 160.75 22.84 0 47.78-10.74 72.63-35.59 54.62-54.61 123.05-189.51 197.63-465.82l-89.32 500.6 130.83-29.5-54.99-22.95 153.54-868.49-80.29 18.95c0 43.57-2.72 88.88-11.8 135.17l-20.09 106.29zm28.59 685.19l137.98-28.41-64.06-23.86 113.45-648.67-137.99 29.31 64.06 22.95zm166.53-774.03c36.91 0 63.98-25.03 63.98-58.17-.1-26.96-21.24-48.36-51.6-48.36-37.28 0-64.42 26.68-64.51 59.17-.09 25.77 21.68 47.36 52.13 47.36zm229.37 467.56c52.85 50.9 78.28 88.19 78.28 150.84 0 90.7-65.55 137.84-125.32 137.84-70.96 0-111.9-52.69-119.49-218.93h-2.74l-46.2 218.18c33.55 10.63 63.03 19.44 125.12 19.44 144.99 0 222.65-94.68 222.65-197.08 0-59.02-25.3-109.38-80.61-162.38l-49.24-45.09c-39.67-37.71-78.72-74.39-78.72-146.11 0-90.71 54.66-132.49 114.43-132.49 70.95 0 106.68 53.73 113.39 219.02h2.74l47.13-218.27c-33.55-10.63-57.58-19.44-119.68-19.44-144.99 0-211.75 91.77-211.75 189.82 0 75.18 31.83 112.2 83.42 161.66zm648.03-302.64l38.67-78.6c-33.8-9.31-66.13-13.23-97.73-13.23-87.99 0-150.3 37.94-207.83 96.02-106.54 107.18-170.88 291.41-170.88 444.98 0 110.81 30.67 160.75 82.53 160.75 22.85 0 47.79-10.74 72.64-35.59 54.61-54.61 123.04-190.42 197.62-466.73l-92.95 501.51 131.74-28.59-54.98-23.86zm-319.29 557.26c-31.26 0-47.61-44.27-47.61-135.04 0-162.66 66.41-361.41 125.93-420.93 32.51-32.51 59.66-51.94 108.69-51.94 29.81 0 58.54 3.66 75.81 8.07-113.45 449.68-211.76 599.84-262.82 599.84zm729.3-635.86l-39.31 499.21c-50.66 99.02-93.15 144.5-143.9 144.5-62.24 0-107.21-78.45-107.21-190.04 0-149.32 74.47-284.55 173.7-466.9l-183.72 45.59 104.45 71.53c-74.85 103.78-158.89 251.53-158.89 403.26 0 113.37 49.4 181.46 132.82 181.46 45.97 0 85.61-23.94 113.95-52.28 113.27-113.28 162.73-331.88 186.4-639.93zm104.33 468.7c0 144.05 58.43 219.91 133.75 219.91 149.4 0 275.35-208.13 275.35-481.47 0-145.8-58.7-220.37-133.47-220.37-149.4 0-275.63 208.41-275.63 481.93zm71.63-1.53c0-235.86 92.97-470.03 184.83-470.03 53.51 0 81.01 75.64 81.01 211.34 0 235.86-93.15 469.76-185.01 469.76-53.42 0-80.83-76.38-80.83-211.07zm971.32-464l75.43-12.77c-23.75 305.33-64.06 549.88-160.1 645.93-16.72 16.71-56.6 52.28-98.77 52.28-66.77 0-110.04-75.78-110.04-195.52 0-60.6 10.35-112.58 21.08-173.2l22.87-.91c-22.98 137-46.38 262.32-101.69 317.63-27.7 27.69-60.23 52-102.32 52-75.46 0-118.64-70.92-118.64-171 0-163.45 82.69-307.13 161.72-411.91l-105.52-73.53 184-45.4c-100.29 183.54-172.18 335.29-172.18 510.57 0 80.98 28.69 147.29 79.82 147.29 42.34 0 99.83-74.39 134.8-269.84l66.94-371.53 68.46-12.77-64.91 369.52c-6.28 38.29-12.09 77.13-12.09 116.31 0 94.57 22.64 167.39 78.63 167.39 45.38 0 79.7-52.65 112.37-117.09zm0 0"/></svg>