<svg width="4542" height="1100.002" xmlns="http://www.w3.org/2000/svg"><path d="M292 324.002c29 0 66 65 101 166v314c-8 6-15 8-21 8-82 0-133-161.62-133-315 0-127 29-173 53-173zm333-14l11-260-288 35c34 26 45 51 45 111v162l156-58c-43.7-8.27-89-10-117-10-124 0-218 33-288 103-77 77-124 194.32-124 328 0 180 87 269 180 269 98 0 171-85 193-174l-11 174 288-35c-34-26-45-51-45-111zm125 605v-501c0-62-12-87-45-114l287-30-10 214v380c0 59 11 79 45 106H705zm110-660c-93 0-146-44-146-103s51-107 141-107c91 0 150 48 150 107s-57 103-145 103zm279 440l-78 246c41 23 121 49 227 49 185 0 278-113 278-231 0-77-25-118-55-148-81-81-248-123-320-196-9-9-31-32-31-53 0-20 21-32 49-32 65 0 178 76 282 234h10l75-245c-41-23-119-49-217-49-168 0-286 97-286 229 0 69 26 118 61 153 58 58 247 129 310 192 19 19 31 35 31 55 0 24-19 33-42 33-45 0-172-61-284-237zm809-1v133c-17 5-23 8-36 8-47 0-70-34-70-104 0-40 8-65 23-80 6-6 13-9 22-9 16 0 35 19 61 52zm231-222c0-142-53-202-140-202-100 0-181 112-260 286l87-266h-248l115 391h10c45-139 87-198 133-198 39 0 72 35 72 100v20c-175 63-233 96-272 135-35 35-55 76-55 123 0 75 56 129 135 129 75 0 138-58 192-150l-14 150 290-30c-34-27-45-47-45-106zm292 418l20 80h203c7-60 14-99 41-167l206-513h-328c87.92 153.15 146.67 313.16 89 554l-191-474-4-80h-278zm485-240c0 212 134 340 299 340 177 0 337-152 337-390 0-209-146-330-302-330-176 0-334 146-334 380zm231-180c0-120 17-177 41-177 53 0 132 263 132 497 0 95-16 177-42 177-52 0-131-263-131-497zm428-180l161 553 26 127h182c12-59 26-128 47-205l47-169 66 247 16 127h197c9-59 19-110 38-177l144-503h-196c39 137 84 350 29 520l-127-451 25-69h-276c46 224 51 354 6 520l-111-452 20-68zm0 0"/></svg>