<svg width="3187" height="1100.002" xmlns="http://www.w3.org/2000/svg"><path d="M300 812.002c-24 0-34-47-34-106 0-114 40-326 83-369 8-8 17-12 27-12 28 0 53 28 73 56-43 250-118 431-149 431zm342-509c-39-9-76-13-113-13-136 0-284 44-379 145-102 109-150 266-150 376 0 109 47 178 127 178 41 0 85-18 128-61 41-41 94-116 135-248l-63 310 306-54-45-52 149-834-260 48v127l-21 119zm72 409c0 174 97 278 259 278 198 0 377-180 377-437 0-193-100-283-256-283-198 0-380 183-380 442zm235 121c0-205 73-549 134-549 16 0 32 23 32 146 0 205-75 546-136 546-15 0-30-31-30-143zm420 157l295-52-45-52 108-616-295 52 45 52zm269-735c95 0 162-45 162-109-1-56-53-101-136-101-99 0-157 53-158 110-1 53 48 100 132 100zm88 730l107-611-45-52 295-52-47 273c25.82-80.92 67-149 115-197 49-49 103.64-76 154-76 77 0 120 77 87 272l-58 339 45 52-295 52 55-307c23-126 20-232-19-232-35 0-96 119-129 339l1 154zm1396-615l65-55c-82-37-158-45-201-45-154 0-284 46-386 148-104 104-140 224-140 321 0 101 43 158 122 158 38 0 94-18 144-68 30-30 80-88 114-198l-41 238c-22 125-47 142-78 142-45 0-150-50-239-145h-10l-80 218c25 4 50 6 75 6 170 0 341-81 445-185 102-102 156-229 179-360zm-366 371c-20 0-29-50-29-113 0-91 26-260 68-302 8-8 17-12 27-12 26 0 49 24 70 53-50 284-105 374-136 374zm0 0"/></svg>