<svg width="2444.07" height="1100.002" xmlns="http://www.w3.org/2000/svg"><path d="M33.8 654.002c0 203.98 91.55 325.13 208.94 325.13 112.69 0 196.26-106.63 210.3-317.52l-4.47-.83c-32.81 175.11-91.85 211.46-143.42 211.46-91.82 0-161.13-118.46-161.13-362.44 0-153.32 43.07-204.71 83.39-204.71 60.83 0 109.72 127.15 109.72 283.61l26.54-24.09-232.95 33.52v9.17l328.06 38.2c4.48-29.22 6.31-49.24 6.31-74.33 0-192.91-78.59-301.13-187.63-301.13-129.46 0-243.66 155.33-243.66 383.96zm657.18 227.48l22.93 89.39h87.37c7-44.74 15.76-83.15 31.61-129.44l178.41-556.43H834.74c26.33 143.08 37.69 332.43-21.94 572.78l-155.78-495.71-8.69-77.07H497.7zm347.82-227.48c0 203.98 91.55 325.13 208.94 325.13 112.69 0 196.26-106.63 210.3-317.52l-4.47-.83c-32.81 175.11-91.85 211.46-143.42 211.46-91.82 0-161.13-118.46-161.13-362.44 0-153.32 43.07-204.71 83.39-204.71 60.83 0 109.72 127.15 109.72 283.61l26.54-24.09-232.95 33.52v9.17l328.06 38.2c4.48-29.22 6.31-49.24 6.31-74.33 0-192.91-78.59-301.13-187.63-301.13-129.46 0-243.66 155.33-243.66 383.96zm528.83 274.2v-543.31c0-46.8-7.3-64.76-53.8-81.65l183.1-32.37-4.82 259.65c18.78-160.04 79.69-256.76 148.26-256.76 16 0 36.87 5.35 56.39 22.33l-49.43 354.3h-5.31c-15.26-176.87-45.26-244.85-75.09-244.85-33.52 0-75.3 77.98-75.3 270.2v199.11c0 51.35 13.35 66.65 53.8 90.15h-231.6zm337.35-643.2h156.52l16.28 96.43 160.35 453.61c63.21-202.87 58.8-409.55 32.26-550.04h173.68l-201.72 588.11c-64.83 164.89-170.15 206.02-246.18 206.02-25.71 0-49.6-5.76-72.08-15.87l43.24-347.04h5.3c16.52 241.19 59.52 303.91 115.67 303.91 20.35 0 51.85-9.11 73.2-46.63zm0 0"/></svg>