<svg width="4717" height="1100.002" xmlns="http://www.w3.org/2000/svg"><path d="M445.96 597.802c-20.55 256.74-134.22 381.33-255.79 381.33-91.24 0-170.89-85.5-170.89-244.61 0-146.26 55.29-297.5 142.42-384.63 50.34-50.35 108.41-79.02 173.02-79.02 83.71 0 143.37 45.54 143.37 131.89 0 61.26-29.16 121.83-67.76 160.44-71.63 71.63-174.57 104.47-287.68 123.47l10.33-72.95c25.93 17.21 49.04 31.19 74.28 31.19 38.17 0 69.35-8.28 91.96-30.89 33.87-33.87 49.11-116.52 49.11-195.91 0-77.35-22.87-127.74-57.96-127.74-63.61 0-143.87 185.43-143.87 364.28 0 144.07 52.04 216.76 113.46 216.76 62.52 0 139.56-60.02 180.69-273.61zm311.21-298.19c49.66 49.65 65.79 172.74 65.79 322 0 114.89 17.76 225.67 46.15 254.06 5.82 5.83 12.06 8.66 18.72 8.66 29.71 0 58.76-53.72 58.76-162.16 0-49.13-4.94-115.26-18.7-197.21h5.72c23.37 84.13 36.3 157.56 36.3 239.24 0 154.06-69.04 214.93-131.43 214.93-26.5 0-50.89-8.48-72.39-29.98-43.79-43.78-68.72-166-68.72-308.13 0-129.59-17.35-241.06-42.98-266.69-5.82-5.83-12.48-8.66-19.13-8.66-31.37 0-60.52 59.92-60.52 161.33 0 49.13 4.93 122.28 17.46 197.63h-4.9c-23.37-81.24-35.89-157.15-35.89-235.52 0-146.63 68.33-218.24 136.09-218.24 31.46 0 53.54 12.61 69.67 28.74zm47.85 327.87c58.61-108.65 109.55-218.37 128.24-327.46l139.39-27.91-266.8 365.72zm-93.59-11.05c-74.34 132-109.26 236.79-124.43 333.96l-143.63 28.74 265.17-372.22zm309.5 461.53l130.53-736.55-51.46-33.21 188.76-37.33-76.06 434.43c62.71-225.32 125.69-339.65 175.5-389.45 31.26-31.26 62.93-44.57 92.19-44.57 61.81 0 98.24 56.68 98.24 166.85 0 138.17-58.56 312.78-163.5 420.61-70.3 72.6-163.09 112.13-267.65 112.13-19.72 0-39.44-1.41-59.74-4.24l76.96-34.56-4.42 129.41zm375.09-710.09c-43.91 0-133.52 157.61-223.61 543.54 19.07 10.68 47.66 20.11 76.83 20.11 35.24 0 56.8-13.98 80.65-37.82 53.57-53.57 109.18-255.94 109.18-401.05 0-79.54-14.35-124.78-43.05-124.78zm630.94 229.93c-20.55 256.74-134.22 381.33-255.79 381.33-91.24 0-170.89-85.5-170.89-244.61 0-146.26 55.29-297.5 142.42-384.63 50.34-50.35 108.41-79.02 173.02-79.02 83.71 0 143.37 45.54 143.37 131.89 0 61.26-29.16 121.83-67.76 160.44-71.63 71.63-174.57 104.47-287.68 123.47l10.33-72.95c25.93 17.21 49.04 31.19 74.28 31.19 38.17 0 69.35-8.28 91.96-30.89 33.87-33.87 49.11-116.52 49.11-195.91 0-77.35-22.87-127.74-57.96-127.74-63.61 0-143.87 185.43-143.87 364.28 0 144.07 52.04 216.76 113.46 216.76 62.52 0 139.56-60.02 180.69-273.61zm39.39 383.4l112.35-639.79-52.63-33.21 188.76-37.33-59.31 310.2c71.31-274.79 156.76-310.2 209.72-310.2 11.15 0 28.72 7 40.46 15.22l-98.5 353.56h-5.31c12.83-191.39-9.8-242.78-35.74-242.78-29.15 0-86.82 58.69-154.61 446.24v109.69zm396.52-2.66l193.46-36.74-57.33-33.8 111.52-637.13-193.45 37.33 57.32 33.21zm203.09-760.24c57.43 0 98.61-32.08 98.61-76.13-.42-37.21-32.46-66.95-81.42-66.95-59.08 0-97.13 35.98-97.54 77.13-.41 35.39 30.98 65.95 80.35 65.95zm495 379.5c-20.55 256.74-134.22 381.33-255.79 381.33-91.24 0-170.89-85.5-170.89-244.61 0-146.26 55.29-297.5 142.42-384.63 50.34-50.35 108.41-79.02 173.02-79.02 83.71 0 143.37 45.54 143.37 131.89 0 61.26-29.16 121.83-67.76 160.44-71.63 71.63-174.57 104.47-287.68 123.47l10.33-72.95c25.93 17.21 49.04 31.19 74.28 31.19 38.17 0 69.35-8.28 91.96-30.89 33.87-33.87 49.11-116.52 49.11-195.91 0-77.35-22.87-127.74-57.96-127.74-63.61 0-143.87 185.43-143.87 364.28 0 144.07 52.04 216.76 113.46 216.76 62.52 0 139.56-60.02 180.69-273.61zm42.39 379.27l111.11-635.66-51.46-33.21 188.76-37.33-65.19 372.2c45.29-160.21 111.6-266.98 166.06-321.44 33.74-33.74 69.81-50.76 104.11-50.76 66.43 0 99.46 71.72 72.33 228.56l-70.92 406.5 51.46 33.22-188.76 37.33 73.78-417.35c19.48-110.15 11.78-192.09-25.46-192.09-48.5 0-153.52 143.07-218.8 477.53l.41 104.1zm586.52-241.46c.41 161.5 80.48 243.52 164.2 243.52 99.69 0 201.82-109.85 244.76-306.78h-5.31c-53.43 161.72-121.98 192.45-161.59 192.45-64.43 0-120.19-78.17-120.19-235.95 0-197.24 79.85-327.98 139.54-327.98 52.94 0 87.48 136.89 66.35 384.3h5.3l140.83-385.58c-24.3-11.63-69.78-28.72-117.48-28.72-212.93 0-356.41 220.85-356.41 464.74zm887.09-137.81c-20.55 256.74-134.22 381.33-255.79 381.33-91.24 0-170.89-85.5-170.89-244.61 0-146.26 55.29-297.5 142.42-384.63 50.34-50.35 108.41-79.02 173.02-79.02 83.71 0 143.37 45.54 143.37 131.89 0 61.26-29.16 121.83-67.76 160.44-71.63 71.63-174.57 104.47-287.68 123.47l10.33-72.95c25.93 17.21 49.04 31.19 74.28 31.19 38.17 0 69.35-8.28 91.96-30.89 33.87-33.87 49.11-116.52 49.11-195.91 0-77.35-22.87-127.74-57.96-127.74-63.61 0-143.87 185.43-143.87 364.28 0 144.07 52.04 216.76 113.46 216.76 62.52 0 139.56-60.02 180.69-273.61zm0 0"/></svg>