<svg width="1847" height="1100.002" xmlns="http://www.w3.org/2000/svg"><path d="M60 910.002l-50 60h352c-34-27-50-49-50-108v-302l124 205h10v-420h-10l-124 205v-423h10c97 0 167 181 230 476h10l82-493H11c34 24 50 46 50 111zm604-260c0 212 134 340 299 340 177 0 337-152 337-390 0-209-146-330-302-330-176 0-334 146-334 380zm231-180c0-120 17-177 41-177 53 0 132 263 132 497 0 95-16 177-42 177-52 0-131-263-131-497zm482 445v-494c0-65-12-90-45-111l287-40-6 289c27-180 102-282 187-282 16 0 31 3 47 10l-87 494h-10c-27-171-57-256-88-256-30 0-53 68-53 171v168c0 49 11 69 45 106h-322zm0 0"/></svg>