<svg width="2059" height="1100.002" xmlns="http://www.w3.org/2000/svg"><path d="M195.74 328.112v546.74c0 54.24 13.35 69.54 53.8 90.15H17.93l53.81-36.8v-551.87c0-55.48-15-71.2-57.94-86.03v-5.3h57.94c8.26-109.85 95.67-210.65 224.22-234.13l1.17 4.13c-72.28 55.87-101.39 122.07-101.39 230h90.43v5.3zm401.5 318.04l-.59 163.52c-18.17 30.24-53.52 81.96-93.52 81.96-37.61 0-77.63-33.41-77.63-126.89 0-48.81 11.52-90.24 35.91-114.63 15.98-15.98 44.7-29.54 75.42-29.54 15.41 0 35.58 9.02 60.41 25.58zm123-212.61c0-119.69-51.24-162.67-112.41-162.67-80.63 0-149.31 100.26-198.96 264.28l49.43-250.15H320.65l62.18 380.43h5.3c32.67-215.3 95.22-281.34 137.11-281.34 40.76 0 71.41 35.58 71.41 102.34v93.37c-125.97 37.59-186.04 69.59-226.22 109.77-40.86 40.86-59.69 91.15-59.69 147.65 0 88.5 51.3 141.91 115.04 141.91 76.76 0 138-84.41 170.87-155.28l-6.37 155.28 183.76-28.24c-46.91-19.37-53.8-35.26-53.8-79.59zm95.5 215.5c0-227.32 110.96-376.11 270.83-376.11 56.63 0 106.3 18.35 140.63 34.59l-76 371.05h-5.31c-30.06-259.31-83.78-371.5-141.28-371.5-41.37 0-81.54 73.26-81.54 214.23-1.18 224.18 77.19 345.16 168.43 345.16 36.22 0 100-24.37 135.28-183.79-16.52 197.76-87.24 296.05-202 296.05-116.95 0-209.04-120.26-209.04-329.68zm635.06-319.17v348.46c0 131.04 23.59 183.93 68.18 183.93 20.69 0 38.69-31.76 56.76-124.28-22.72 160.22-79.85 241.15-140.15 241.15-65.29 0-108.79-55.13-108.79-234.7v-351.1c0-68.29-13.76-84.83-53.8-108.33h53.63l110.35-202.17 13.82 202.17h132.29v5.3zm224 353.09l-48.06 254.21c31.61 17.13 96.35 41.96 180.63 41.96 138.63 0 215.2-84.83 215.78-194.02 0-68.2-29.69-115.65-67.32-153.28-54-54-154.68-96.59-203.2-145.53-27.2-27.19-53.89-59-53.89-99.95 0-51.7 40.37-81.89 80.69-81.89 63.83 0 138.09 66.02 186.92 262.17h5.3l51.52-254.39c-28.08-15.37-90.82-41.37-168.28-41.37-130.43 0-215.56 81.74-215.56 193.2 0 62.54 27.76 108.02 65.1 145.36 44.5 44.5 160.14 102.59 203.77 146.22 31.32 31.33 53.89 64.94 53.89 108.42 0 53.34-37.79 82.3-80.74 82.3-64.37 0-154.98-59.83-201.24-263.41zm0 0"/></svg>