<svg width="2315" height="1100.002" xmlns="http://www.w3.org/2000/svg"><path d="M143.15 311.602v567.91c0 53.27 14.63 66.01 58.62 81.49H19.54l58.61-26.86v-569.83c0-53.55-15-66.39-59.54-80.57v-2.74h59.54c1.85-103.76 74.19-194.62 154.96-230.92l1.81.92c-60.41 59.08-91.77 120.46-91.77 230h84.67v2.74zm390.38 307.14l-.91 180.2c-18.82 44.03-70.2 122.36-124.95 122.36-32.47 0-81.79-33.09-81.79-139.4 0-53.61 13.44-104.03 42.96-133.55 21.43-21.43 62.01-40.76 104.59-40.76 15.1 0 35.91 3.57 60.1 11.15zm64-207.47c0-107.51-50.28-141.19-97.35-141.19-70.04 0-131.98 93.84-165.6 252.41l28.91-241.49h-77.37l33.31 374.66h2.74c25.94-256.99 99.71-326.88 139.36-326.88 41.72 0 71.09 35.91 71.09 103.63v133.45c-99.19 23.71-160.39 55.16-201.21 95.98-44.07 44.07-62.26 99.43-62.26 161.12 0 95.87 48.74 148.96 104.14 148.96 77.73 0 138-98.84 159.33-158.16l-2.2 158.16 125.72-27.27c-53.97-15.2-58.61-28.85-58.61-65.16zm141.18 522.87v-570.89c0-36.59-4.74-50.7-58.62-65.9l126.36-27.27-2.74 139.57v469.86c0 53.55 14.63 66.29 58.61 81.49H680.09zm24.68-738.06c-32.19 0-56.15-24.03-56.15-51.26 0-29.05 23.78-53.46 55.69-53.46 32 0 56.52 24.41 56.52 53.46 0 27.23-24.33 51.26-56.06 51.26zm181.32 738.06l-58.62 26.86h182.23c-43.98-15.2-58.61-27.94-58.61-81.49v-686.23l2.92-143.2-126.54 27.27c53.88 15.2 58.62 29.31 58.62 65.9zm270.9-521.23v323.23c0 124.32 39.68 171.54 86.71 171.54 36.69 0 72.03-29.32 125.52-137.97v-405.81c0-36.87-4.74-50.98-58.62-65.62l126.36-28.2-2.74 142.83v466.58c0 36.31 4.64 49.96 58.61 65.16l-126.63 27.27 3.02-186.4c-43.65 110.72-107.85 185.94-176.25 185.94-55.96 0-100.98-48.2-100.98-177.49v-430.07c0-36.87-4.73-50.98-58.61-65.62l126.35-28.2zm414.19 521.23v-570.24c0-36.87-4.74-50.98-58.62-65.62l126.36-28.2-4.19 243.62c14.3-149.15 67.51-242.98 127.1-242.98 16 0 40.08 6.63 61.52 29.06l-28.91 277.99h-2.74c-8.85-180.07-38.85-238.75-68.03-238.75-35.45 0-87.49 83.43-87.49 324.38v216.11c0 52.63 14.63 65.36 58.61 81.49h-182.23zm301.81-284.14c0 209.43 73.27 321.92 166.29 321.92 85.76 0 160.35-96.05 163.49-334.19l-2.55-.19c-22.87 236.36-85.76 273.99-128.35 273.99-76.43 0-143.17-121.99-143.17-371.42 0-174.81 56.21-231.33 103.27-231.33 74.94 0 121.58 118.5 121.58 278.48l23.02-17.03-273.36 20.69v9.82l311.71 18.63c2.56-18.95 3.74-33.52 3.74-51.55 0-199.97-64.15-297.93-147.55-297.93-103.48 0-198.12 147.31-198.12 380.11zm0 0"/></svg>