<svg width="3114.29" height="1100.002" xmlns="http://www.w3.org/2000/svg"><path d="M302.34 338.782l90.4-44.52v-7.26h-80.77c16-102.52 61-179.49 138.11-230l-2.74-6.58c-180.07 21.57-265.5 104.81-305.05 236.58H97.93v7.26c20.87 10.32 34.76 35.55 24.44 94.1L0 1083.582l177.26-31.36zm608.69 28.56l55.08-63.9c-63.2-23.44-115.87-33.02-169.52-33.02-118.51 0-231.7 49.81-316.92 138.98-103.71 108.32-157.87 275.59-157.87 402.02 0 109.69 40.83 171.5 110.22 171.5 34.15 0 70.96-15.26 107.11-51.41 46.14-46.14 104.96-144.08 158.63-330.52l-74.3 382.24 240.26-44.41-48.77-41.39zm-357.71 485.49c-26.74 0-39.14-45.98-39.14-116.96 0-136.09 50.59-345.59 101.07-396.07 17.24-17.24 33.09-27.06 57.81-27.06 28.69 0 55.71 13.84 74.69 32.93-79.55 362.07-155.24 507.16-194.43 507.16zm379.39 130.4l235.77-43.09-52.19-41.39 110.05-628.33-235.76 43.44 52.19 41.05zm230.97-749.72c73.09 0 125.02-37.47 125.02-89.83-.65-45.04-41.01-81.14-104.15-81.14-75.72 0-122.08 43.07-122.74 90.83-.66 42.73 38.07 80.14 101.87 80.14zm399.38-183.09l-199.47 39.7-3.77 163.6-128.11 726.57 232.35-43.44-48.77-41.05zm259.26 221l-233.03 43.44 48.77 41.05-66.85 381c-31.55 172.75 8.26 246.67 79.1 246.67 40.09 0 83.48-21.84 122.26-60.62 51.77-51.77 108.81-143.03 146.11-270.91l-57.96 331.53 233.37-43.44-48.77-41.05 111.37-628.67-196.18 35.73v117.93c-63.67 315.81-138.17 430.06-182.04 430.06-37.97 0-43.71-91.96-22.77-208.72zm332.34 715.44l111.37-631.95-49.45-41.05 233.03-43.44-61.27 302.62c73.27-266.96 167.28-302.62 223.17-302.62 6.51 0 19.67 7 26.52 11.8l-115.38 405.41h-7.26c2.07-187.48-17.38-246.21-42.09-246.21-24.51 0-68.96 57.92-124.78 379.48v130.24zm922.52-401.97c-11.98 251.84-130.79 398.69-281.71 398.69-103.22 0-195.1-79.88-195.1-248.53 0-139.9 53.08-280.62 142.66-370.2 60.62-60.62 131.16-94.43 210.93-94.43 97.17 0 157.8 48.24 157.8 133.61 0 66.15-35.76 122.31-67.03 153.58-79.7 79.71-192.66 117.2-304.06 136.2l16.44-87.14c24.71 25.04 46.11 46.11 72.08 46.11 26.44 0 45.87-6.08 61.14-21.35 31.43-31.42 47.4-126.31 47.4-213.03 0-76.37-20.42-122.85-49.64-122.85-56.27 0-118.92 178.59-118.92 339.58 0 145.29 60.35 204.78 122.01 204.78 72.31 0 146.41-64.18 178.74-255.02zm0 0"/></svg>