<svg width="1153.31" height="1100.002" xmlns="http://www.w3.org/2000/svg"><path d="M223.77 324.482l93.4-37.65v-3.83h-85.49c16-95.65 61-171.34 143.26-230l-6.17-2.28c-136.28 48.62-194.66 127.13-228.63 232.28h-29.76v3.83c14.42 9.45 23.16 29.96 13.71 82.93L0 1075.282l94.82-16.76zm502.21 39.29l42.62-75.06c-40.87-12.71-78.09-17.99-114.99-17.99-95.33 0-169.87 40.79-234.06 106.35-105.86 107.45-167.75 287.6-167.75 434.65 0 110.54 33.11 163.33 89.19 163.33 25.56 0 53.36-11.82 80.92-39.39 52.58-52.57 118.7-179.28 188.25-433.99l-88.47 472.84 157.83-32.39-53.49-28.08zm-328.52 540.01c-30.18 0-45.58-44.68-45.58-130.69 0-156.27 62.61-357.61 119.96-414.96 28.83-28.84 53.27-45.96 96.45-45.96 29.55 0 57.86 6.11 75.55 14.05-105.31 428.62-198.18 577.56-246.38 577.56zm349.77 72.64l113.08-645.69-55.03-27.31 155.32-32.7-57.83 315.92c69.83-280.69 148.82-315.92 199.55-315.92 14.67 0 35.56 7 50.99 17.8l-85.75 314.39h-3.82c20.95-194.34-4.08-240.19-30.94-240.19-32.66 0-100.32 59.28-177.15 496.68v94.18zm0 0"/></svg>