<svg width="1520" height="1100.002" xmlns="http://www.w3.org/2000/svg"><path d="M195.74 328.112v546.74c0 54.24 13.35 69.54 53.8 90.15H17.93l53.81-36.8v-551.87c0-55.48-15-71.2-57.94-86.03v-5.3h57.94c8.26-109.85 95.67-210.65 224.22-234.13l1.17 4.13c-72.28 55.87-101.39 122.07-101.39 230h90.43v5.3zm112.06 325.89c0 203.98 91.55 325.13 208.94 325.13 112.69 0 196.26-106.63 210.3-317.52l-4.47-.83c-32.81 175.11-91.85 211.46-143.42 211.46-91.82 0-161.13-118.46-161.13-362.44 0-153.32 43.07-204.71 83.39-204.71 60.83 0 109.72 127.15 109.72 283.61l26.54-24.09-232.95 33.52v9.17l328.06 38.2c4.48-29.22 6.31-49.24 6.31-74.33 0-192.91-78.59-301.13-187.63-301.13-129.46 0-243.66 155.33-243.66 383.96zm473.66-369l147.5 571.78 23.65 108.22h79.87c12-46.09 25.41-102.76 41.13-162.15l76.35-299.31 83.61 350.31 20.1 111.15h89.59c9-49.02 19.59-97.09 33.31-150.59l134.02-529.41h-119.11c6.13 170.46 8.87 378.17-33.81 556.39l-119.37-468.02-2-88.37h-123.39c5.5 190.54-19.43 375.13-63.84 558.15l-109.83-461.98.63-96.17zm0 0"/></svg>