<svg width="3349" height="1100.002" xmlns="http://www.w3.org/2000/svg"><path d="M64.79 918.642l-48.28 48.36h282.83c-35.71-22.89-51.71-41.81-51.71-100.13v-298.91l144.54 141.65 7.26-.68v-291.95l-7.26-.68-144.54 141.66v-436.36l53.48 1.72c95.63 1.02 147.83 135.8 194.74 435.59h7.26l59.06-451.91H13.74c35.37 20.92 51.71 39.84 51.71 102.1zm565 3.97v-527.36c0-52.41-9.26-73.3-50.13-95.85l226.39-28.98-7.26 185.93v413.89c0 56.95 12.37 74.21 50.14 96.76H579.66zm77.82-689.44c-70.06 0-112.1-36.47-112.1-83.49 0-47.7 40.72-86.79 108.81-86.79 68.75 0 114.73 39.09 114.73 86.79 0 47.02-44.67 83.49-111.44 83.49zm214.84 689.44v-522.76c0-54.38-9.26-75.27-50.13-93.88l226.39-35.55-5.31 271.88c22.2-168.35 88.99-267.27 164.4-267.27 16 0 34.42 4.37 52.48 17.19l-65.09 412.51h-7.26c-20.15-174.43-50.15-249.5-80.47-249.5-32.05 0-66.01 73.82-66.01 228.87v186.14c0 50.37 12.37 67.63 50.14 96.76H872.32zm414.69-266.61c0 199.82 105.48 327.58 241.46 327.58 133.24 0 223.65-114.71 246.01-304.81l-5.95-1.31c-40.38 128.39-96.49 163.76-154.9 163.76-103.57 0-174.83-115.76-174.83-355.58 0-136.94 33.04-184.42 68.23-184.42 50.06 0 100.67 133.75 100.67 287.52l29.23-29.47-202.14 43.31v8.68l340.54 53.11c5.94-37.04 8.26-61.22 8.26-91.69 0-187.53-89.59-303.57-218.2-303.57-149.27 0-278.38 161.44-278.38 386.89zm761.71-316.35v530.59c0 54.98 12.37 72.24 50.13 96.76h-269.27l50.14-44.39v-538.17c0-56.95-15-74.86-56.71-90.18v-7.26h56.71c13.15-114.49 112.06-222.88 277.04-236.58l.69 6.58c-81.34 53.42-108.73 123.29-108.73 230h94.83v7.26zm102 311.12c0 208.91 114.14 332.81 253.8 332.81 150.98 0 287.36-149.95 287.36-386.92 0-206.61-122.04-326.24-255.78-326.24-150.32 0-285.38 146-285.38 380.35zm166.63-149.19c0-144.65 29.67-202.34 66.68-202.34 69.09 0 140.56 227.05 140.56 453.18 0 128.21-29.01 202.34-67.34 202.34-68.43 0-139.9-227.05-139.9-453.18zm725.46 369.33l27.48 96.09h222.96l-178.75-329.38 183.25-350.62h-203.99c34.81 105.95 41.09 213.28 12.45 335.67l-133.98-239.58-22.88-96.09h-221.93l177.73 332.3-182.28 347.7h204.65c-34.48-101.03-38.12-210.99-12.77-329.78zm0 0"/></svg>