<svg width="2964" height="1100.002" xmlns="http://www.w3.org/2000/svg"><path d="M72.71 931.862l-45.47 29.14h168.67c-38.54-16.11-54.54-29.94-54.54-87.13v-293.83l178.46 37.1 2.74-1.82v-80.55l-2.74-1.82-178.46 37.09v-458.39l125.27 4.53c93.37 2.73 116.17 61.2 136.51 368.91h2.74l21.19-384.09H18.26c37.63 15.83 54.54 29.66 54.54 87.4zm436 2.28l-58.62 26.86h182.23c-43.98-15.2-58.61-27.94-58.61-81.49v-686.23l2.92-143.2-126.54 27.27c53.88 15.2 58.62 29.31 58.62 65.9zm444.82-315.4l-.91 180.2c-18.82 44.03-70.2 122.36-124.95 122.36-32.47 0-81.79-33.09-81.79-139.4 0-53.61 13.44-104.03 42.96-133.55 21.43-21.43 62.01-40.76 104.59-40.76 15.1 0 35.91 3.57 60.1 11.15zm64-207.47c0-107.51-50.28-141.19-97.35-141.19-70.04 0-131.98 93.84-165.6 252.41l28.91-241.49h-77.37l33.31 374.66h2.74c25.94-256.99 99.71-326.88 139.36-326.88 41.72 0 71.09 35.91 71.09 103.63v133.45c-99.19 23.71-160.39 55.16-201.21 95.98-44.07 44.07-62.26 99.43-62.26 161.12 0 95.87 48.74 148.96 104.14 148.96 77.73 0 138-98.84 159.33-158.16l-2.2 158.16 125.72-27.27c-53.97-15.2-58.61-28.85-58.61-65.16zm207.08-96.94v396.23c0 149.64 23.91 200.29 54.07 200.29 23.26 0 41.26-47.48 57.72-186.17-5.08 179.46-44.25 247.24-87.24 247.24-53.42 0-89.55-51.92-89.55-252.01v-353.35c0-56.42-14.72-69.44-58.61-85.56h57.8l52.63-202.82 13.18 202.82h120.42v2.74zm212.1 619.81l-58.62 26.86h182.23c-43.98-15.2-58.61-27.94-58.61-81.49v-686.23l2.92-143.2-126.54 27.27c53.88 15.2 58.62 29.31 58.62 65.9zm444.82-315.4l-.91 180.2c-18.82 44.03-70.2 122.36-124.95 122.36-32.47 0-81.79-33.09-81.79-139.4 0-53.61 13.44-104.03 42.96-133.55 21.43-21.43 62.01-40.76 104.59-40.76 15.1 0 35.91 3.57 60.1 11.15zm64-207.47c0-107.51-50.28-141.19-97.35-141.19-70.04 0-131.98 93.84-165.6 252.41l28.91-241.49h-77.37l33.31 374.66h2.74c25.94-256.99 99.71-326.88 139.36-326.88 41.72 0 71.09 35.91 71.09 103.63v133.45c-99.19 23.71-160.39 55.16-201.21 95.98-44.07 44.07-62.26 99.43-62.26 161.12 0 95.87 48.74 148.96 104.14 148.96 77.73 0 138-98.84 159.33-158.16l-2.2 158.16 125.72-27.27c-53.97-15.2-58.61-28.85-58.61-65.16zm141.36 522.87l-58.61 26.86h182.23c-43.99-16.13-58.62-28.86-58.62-81.49v-409.06c53.31-108.84 88.55-138.35 125.24-138.35 46.39 0 86.98 47.13 86.98 171.45v430.59l-57.69 26.86h181.31c-43.99-16.13-58.62-28.86-58.62-81.49v-431.94c0-129.29-45.01-177.49-100.97-177.49-68.4 0-132.6 74.75-176.25 180.01l2.74-180.01-126.35 28.2c53.87 14.64 58.61 28.75 58.61 65.62zm637.76-622.77c35.36 0 72.36 23.25 105.54 57.09v447.41c-24.34 59.55-63.1 103.3-100.87 103.3-71.11 0-138.44-139.27-138.44-329.52 0-223.2 76.19-278.28 133.77-278.28zm170.54-113.84l2.83-147.45-126.44 27.74c53.96 15.1 59.52 29.21 59.52 65.61v189.23l34.38-13.52c-41.25-36.16-67.22-47.22-97.03-47.22-43.26 0-83.68 18.48-118.28 53.09-66.11 66.1-115.83 194.35-115.83 366.11 0 193.62 79.74 280.8 154.58 280.8 68.05 0 121.09-68.66 141.27-136.78l-1.92 136.78 125.53-27.74c-53.96-15.1-58.61-29.21-58.61-65.61zm0 0"/></svg>