<svg width="1228" height="1100.002" xmlns="http://www.w3.org/2000/svg"><path d="M72.71 931.862l-45.47 29.14h168.67c-38.54-16.11-54.54-29.94-54.54-87.13v-293.83l178.46 37.1 2.74-1.82v-80.55l-2.74-1.82-178.46 37.09v-458.39l125.27 4.53c93.37 2.73 116.17 61.2 136.51 368.91h2.74l21.19-384.09H18.26c37.63 15.83 54.54 29.66 54.54 87.4zm401.44-280.88c0 203.84 81.36 320.94 179.2 320.94 108.02 0 205.39-146.55 205.39-381.83 0-202.64-82.46-320.01-179.47-320.01-107.93 0-205.12 146-205.12 380.9zm60.37-98.31c0-185.35 50.58-244.16 109.07-244.16 95.66 0 154.69 167.7 154.69 380.82 0 183.04-50.49 244.16-109.16 244.16-95.57 0-154.6-167.7-154.6-380.82zm430.28 381.47v-570.24c0-36.87-4.74-50.98-58.62-65.62l126.36-28.2-4.19 243.62c14.3-149.15 67.51-242.98 127.1-242.98 16 0 40.08 6.63 61.52 29.06l-28.91 277.99h-2.74c-8.85-180.07-38.85-238.75-68.03-238.75-35.45 0-87.49 83.43-87.49 324.38v216.11c0 52.63 14.63 65.36 58.61 81.49H906.18zm0 0"/></svg>