<svg width="1442" height="1100.002" xmlns="http://www.w3.org/2000/svg"><path d="M68.22 924.962l-47.07 40.04h233.44c-36.94-19.96-52.94-36.67-52.94-94.5v-296.72l159.22 96.42 5.3-1.18v-200.48l-5.3-1.17-159.22 96.41v-445.89l84.55 2.94c94.65 1.76 134.13 103.52 169.54 406.74h5.3l42.68-422.57H15.7c36.34 18.72 52.93 35.43 52.93 95.74zm472.52-273.5c0 206.71 99.96 327.67 221.52 327.67 132.39 0 251.89-148.48 251.89-384.72 0-204.89-104.91-323.54-222.76-323.54-131.98 0-250.65 146-250.65 380.59zm120.65-127.18c0-162.26 38.72-220.43 85.02-220.43 80.59 0 146.68 201.37 146.68 421.87 0 151.93-38.31 220.43-85.44 220.43-80.17 0-146.26-201.37-146.26-421.87zm448.24 403.92v-543.31c0-46.8-7.3-64.76-53.8-81.65l183.1-32.37-4.82 259.65c18.78-160.04 79.69-256.76 148.26-256.76 16 0 36.87 5.35 56.39 22.33l-49.43 354.3h-5.31c-15.26-176.87-45.26-244.85-75.09-244.85-33.52 0-75.3 77.98-75.3 270.2v199.11c0 51.35 13.35 66.65 53.8 90.15h-231.6zm0 0"/></svg>