<svg width="1354.28" height="1100.002" xmlns="http://www.w3.org/2000/svg"><path d="M235.85 339.652v530.59c0 54.98 12.37 72.24 50.13 96.76H16.71l50.14-44.39v-538.17c0-56.95-15-74.86-56.71-90.18v-7.26h56.71C80 172.512 178.91 64.122 343.89 50.422l.69 6.58c-81.34 53.42-108.73 123.29-108.73 230h94.83v7.26zm102 311.12c0 208.91 114.14 332.81 253.8 332.81 150.98 0 287.36-149.95 287.36-386.92 0-206.61-122.04-326.24-255.78-326.24-150.32 0-285.38 146-285.38 380.35zm166.63-149.19c0-144.65 29.67-202.34 66.68-202.34 69.09 0 140.56 227.05 140.56 453.18 0 128.21-29.01 202.34-67.34 202.34-68.43 0-139.9-227.05-139.9-453.18zm461.97 421.03v-522.76c0-54.38-9.26-75.27-50.13-93.88l226.39-35.55-5.31 271.88c22.2-168.35 88.99-267.27 164.4-267.27 16 0 34.42 4.37 52.48 17.19l-65.09 412.51h-7.26c-20.15-174.43-50.15-249.5-80.47-249.5-32.05 0-66.01 73.82-66.01 228.87v186.14c0 50.37 12.37 67.63 50.14 96.76H916.32zm0 0"/></svg>