<svg width="3780" height="1100.002" xmlns="http://www.w3.org/2000/svg"><path d="M165.43 318.902v558.94c0 53.68 14.09 67.51 56.58 85.16H18.86l56.57-31.08v-562.21c0-54.37-15-68.43-58.85-82.88v-3.83h58.85c4.57-106.34 83.3-201.41 184.31-232.28l1.54 2.28c-65.44 57.72-95.85 121.14-95.85 230h87.11v3.83zm237.15 104.71v294.15c0 120.38 34.78 170.86 84.8 170.86 33.29 0 66.19-25.38 114.51-118.82v-396.7c0-41.08-5.82-56.82-56.57-72.42l150.4-29.96-3.83 152.89v452.72c0 39.7 5.6 54.3 56.58 71.27l-151.09 27.68 4.51-189.93c-44.6 110.31-110.56 188.79-182.5 188.79-60.3 0-106.81-49.97-106.81-181.16v-419.88c0-41.08-5.83-56.82-56.58-72.42l150.4-29.96zm427.22 508.31l-56.57 31.08h203.15c-42.49-16.97-56.58-30.79-56.58-85.16v-673.32l4.29-153.8-150.86 27.68c50.75 16.97 56.57 32.71 56.57 73.1zm325.63-613.02v558.94c0 53.68 14.09 67.51 56.58 85.16h-203.15l56.57-31.08v-562.21c0-54.37-15-68.43-58.85-82.88v-3.83h58.85c4.57-106.34 83.3-201.41 184.31-232.28l1.54 2.28c-65.44 57.72-95.85 121.14-95.85 230h87.11v3.83zm151.37 613.02v-560.42c0-40.39-5.82-56.13-56.57-73.1l150.4-27.68-3.83 150.71v456.41c0 54.37 14.09 68.19 56.58 85.16h-203.15zm37.46-726.37c-41.29 0-69.6-27.02-69.6-59.01 0-33.53 27.85-61.46 68.46-61.46 40.84 0 70.51 27.93 70.51 61.46 0 31.99-29.22 59.01-69.37 59.01zm190.54 726.37l-56.57 31.08h203.15c-42.49-16.97-56.58-30.79-56.58-85.16v-673.32l4.29-153.8-150.86 27.68c50.75 16.97 56.57 32.71 56.57 73.1zm231.46 0l-54.29 31.08h200.87c-42.49-17.65-56.58-31.48-56.58-85.16v-445.94c31.21-45.58 71.9-80 115.54-80 53.06 0 84.41 50.02 84.41 169.86v410.16l-54.3 31.08h200.87c-42.49-17.65-56.57-31.48-56.57-85.16v-445.94c33.75-48.67 72.13-80 114-80 48.42 0 86.17 50.02 86.17 170.63v409.39l-54.29 31.08h200.87c-42.49-17.65-56.58-31.48-56.58-85.16v-424.82c0-132.56-49.11-182.3-118.04-182.3-72.62 0-131.5 62.19-173.68 145.64-6.17-114.9-60.59-145.64-113.84-145.64-71.17 0-135.19 67.79-174.56 144.1l3.83-144.1-150.41 29.96c50.75 15.6 56.58 31.34 56.58 72.42zm774.32-279.92c0 207.12 81.01 323.28 184.35 323.28 97.18 0 175.57-100.53 183.33-327.13l-3.37-.45c-27.07 210.4-88.34 247.48-134.73 247.48-82.95 0-150.78-120.48-150.78-367.6 0-165.71 50.64-220.06 94.85-220.06 68.95 0 116.55 122.16 116.55 280.65l24.51-20.02-256.24 26.13v9.55l318.65 26.92c3.37-23.3 4.82-40.18 4.82-61.21 0-196.97-70.27-299.28-164.53-299.28-114.49 0-217.41 150.71-217.41 381.74zm489.68 279.92l-56.58 31.08h203.16c-42.49-19.25-56.58-33.08-56.58-85.16v-406.21c47.87-93.89 80.53-119.73 113.83-119.73 48.42 0 85.49 50.25 85.49 170.63v409.39l-54.3 31.08h200.87c-42.49-19.25-56.57-33.08-56.57-85.16v-425.96c0-131.2-46.51-181.16-106.82-181.16-71.93 0-137.9 77.33-182.5 181.51l3.83-181.51-150.41 29.96c50.75 15.6 56.58 31.34 56.58 72.42zm608.32-610.7v375.99c0 141.76 23.77 193.36 60.04 193.36 22.17 0 40.17-40.82 57.31-159.95-12.55 171.3-59.33 244.66-109.66 244.66-58.44 0-97.69-53.28-97.69-244.67v-352.4c0-61.45-14.32-75.96-56.58-95.21h56.03l77.09-202.54 13.46 202.54h125.44v3.83zm0 0"/></svg>