<svg width="5733" height="1100.002" xmlns="http://www.w3.org/2000/svg"><path d="M35.93 576.172c0 149.72 97.2 258.69 229.83 258.69 164.92 0 270.08-167.61 270.08-321.96 0-44.26-15.25-89.07-31.78-125.24l74.79-51.96c-79.67-42.07-177.33-65.28-261.53-65.28-164.4 0-281.39 138.19-281.39 305.75zm155.08-81.12c0-122.35 30.88-199.09 76.34-199.09 59.74 0 116.69 157.88 116.69 303.37 0 125.12-30.46 210-78.39 210-63.32 0-114.64-164.97-114.64-314.28zm330.51 571.95l13.15-151.93h-389.4l-29.61-153.32-88.81 305.25zm92.62-411c0 199.82 105.48 327.58 241.46 327.58 133.24 0 223.65-114.71 246.01-304.81l-5.95-1.31c-40.38 128.39-96.49 163.76-154.9 163.76-103.57 0-174.83-115.76-174.83-355.58 0-136.94 33.04-184.42 68.23-184.42 50.06 0 100.67 133.75 100.67 287.52l29.23-29.47-202.14 43.31v8.68l340.54 53.11c5.94-37.04 8.26-61.22 8.26-91.69 0-187.53-89.59-303.57-218.2-303.57-149.27 0-278.38 161.44-278.38 386.89zm591.97 266.61l-50.14 44.39h269.27c-37.76-29.13-50.13-46.39-50.13-96.76v-397.19c30.69-46.66 55.2-60.9 77.76-60.9 54.86 0 80.77 60.12 80.77 168.05v342.41l-43.56 44.39h262.69c-37.76-29.13-50.13-46.39-50.13-96.76v-407.06c0-137.21-51.24-192.76-125.28-192.76-83.1 0-154.65 85.5-202.25 186.24l7.26-186.24-226.4 35.55c40.88 18.61 50.14 39.5 50.14 93.88zm591.03-266.61c0 199.82 105.48 327.58 241.46 327.58 133.24 0 223.65-114.71 246.01-304.81l-5.95-1.31c-40.38 128.39-96.49 163.76-154.9 163.76-103.57 0-174.83-115.76-174.83-355.58 0-136.94 33.04-184.42 68.23-184.42 50.06 0 100.67 133.75 100.67 287.52l29.23-29.47-202.14 43.31v8.68l340.54 53.11c5.94-37.04 8.26-61.22 8.26-91.69 0-187.53-89.59-303.57-218.2-303.57-149.27 0-278.38 161.44-278.38 386.89zm587.31 266.61v-522.76c0-54.38-9.26-75.27-50.13-93.88l226.39-35.55-5.31 271.88c22.2-168.35 88.99-267.27 164.4-267.27 16 0 34.42 4.37 52.48 17.19l-65.09 412.51h-7.26c-20.15-174.43-50.15-249.5-80.47-249.5-32.05 0-66.01 73.82-66.01 228.87v186.14c0 50.37 12.37 67.63 50.14 96.76h-269.27zm719.77-256.6l-.34 150.8c-17.68 19.72-40.8 51.14-69.55 51.14-41.53 0-74.45-33.66-74.45-117.35 0-45.14 10.05-79.73 30.53-100.2 11.82-11.82 31.49-20.99 53.16-20.99 15.65 0 35.34 13.18 60.65 36.6zm168-216.53c0-128.99-51.97-179.06-123.9-179.06-88.71 0-162.52 105.16-224.4 273.34l65.09-256.76h-183.63l84.19 384.84h7.26c37.81-183.51 91.79-246.62 135.39-246.62 40.03 0 71.66 35.34 71.66 101.37v62.8c-146.4 48.17-205.61 80.59-245.29 120.27-38.43 38.43-57.74 84.84-57.74 137.38 0 82.88 53.26 136.54 123.36 136.54 76.02 0 138-73.41 179.67-153.09l-9.55 153.09 228.03-28.98c-41.53-22.55-50.14-40.15-50.14-90.59zm293.92-108.81v312.02c0 116.86 23.34 171.46 78.93 171.46 18.74 0 36.74-19.78 56.03-77.08-36.17 145.54-107 236.51-180.51 236.51-74.33 0-123.45-57.58-123.45-221.49v-349.4c0-77.33-13.03-96.57-50.14-125.69h50.45l154.37-201.68 14.32 201.68h141.33v7.26zm213.65 581.94v-527.36c0-52.41-9.26-73.3-50.13-95.85l226.39-28.98-7.26 185.93v413.89c0 56.95 12.37 74.21 50.14 96.76h-269.27zm77.82-689.44c-70.06 0-112.1-36.47-112.1-83.49 0-47.7 40.72-86.79 108.81-86.79 68.75 0 114.73 39.09 114.73 86.79 0 47.02-44.67 83.49-111.44 83.49zm180.24 417.6c0 208.91 114.14 332.81 253.8 332.81 150.98 0 287.36-149.95 287.36-386.92 0-206.61-122.04-326.24-255.78-326.24-150.32 0-285.38 146-285.38 380.35zm166.63-149.19c0-144.65 29.67-202.34 66.68-202.34 69.09 0 140.56 227.05 140.56 453.18 0 128.21-29.01 202.34-67.34 202.34-68.43 0-139.9-227.05-139.9-453.18zm466.63 421.03l-50.14 44.39h269.27c-37.76-29.13-50.13-46.39-50.13-96.76v-397.19c30.69-46.66 55.2-60.9 77.76-60.9 54.86 0 80.77 60.12 80.77 168.05v342.41l-43.56 44.39h262.69c-37.76-29.13-50.13-46.39-50.13-96.76v-407.06c0-137.21-51.24-192.76-125.28-192.76-83.1 0-154.65 85.5-202.25 186.24l7.26-186.24-226.4 35.55c40.88 18.61 50.14 39.5 50.14 93.88zm648.28-234.72l-60.54 250.79c35.52 19.58 106.62 44.9 199.95 44.9 157.95 0 241.36-96.57 241.71-209.43 0-71.87-27.74-116.63-62.19-151.08-65.25-65.25-193.56-107.6-251.87-166.56-19.61-19.61-44.35-47.75-44.35-80.39 0-38.49 32.3-61.1 67.49-61.1 64.31 0 154.71 70.18 226.53 250.43h7.26l61.3-250.48c-33.46-18.55-102.56-44.55-188.58-44.55-146.08 0-244.91 88.1-244.91 208.12 0 65.23 27.03 112.18 63.4 148.55 50.12 50.12 196.32 113.59 248.02 165.29 26.19 26.19 44.36 52.46 44.36 86.16 0 41.12-29.96 61.76-64.6 61.76-56.3 0-162.07-60.32-235.72-252.41zm0 0"/></svg>