<svg width="4821.39" height="1100.002" xmlns="http://www.w3.org/2000/svg"><path d="M530.12 363.772l42.62-75.06c-41.1-13.85-80.82-17.99-112.25-17.99-99.2 0-170.55 38.28-234.74 102.46-106.31 106.32-165.46 278.03-165.46 422.1 0 108.72 34.51 151.06 88.04 151.06 27.2 0 55.41-11.83 84.58-40.99 50.06-50.07 115.5-165.18 183.45-414.86l-63.38 350.67c-31.61 174.42-123.24 208.37-179.1 208.37-62.15 0-106.78-57.71-129.41-173.55h-3.83L0 1062.342c32.72 7.86 70.84 12.94 103.56 12.94 87.42 0 175.07-33.15 245.12-103.19 40.26-40.26 95.03-118.64 116.49-241.93zm-325.09 516.09c-29.27 0-45.21-37.65-45.21-132.29 0-149.66 59.96-332.55 116.62-389.21 28.84-28.84 53.27-45.96 96.45-45.96 29.09 0 56.72 7.02 74.64 15.19-103.25 422.91-194.53 552.27-242.5 552.27zm753.17-272.78c-27.01 260.43-136.81 368.2-236.2 368.2-82.18 0-152.59-89.75-152.59-241.65 0-151.06 56.94-310.25 142.22-395.53 42.59-42.59 91.23-67.38 144.38-67.38 73.56 0 132.47 43.51 132.47 130.6 0 57.56-24.16 121.45-68.31 165.6-65.54 65.54-160.89 94.87-275.3 113.87l5.71-62.24c26.86 11.31 51.26 19.93 75.95 19.93 47.04 0 87.08-9.95 115.23-38.1 35.72-35.72 50.41-109.13 50.41-182.98 0-78.08-24.72-131.43-64.24-131.43-69.15 0-162.72 190.61-162.72 382.94 0 143.14 45.76 225.82 106.99 225.82 55.13 0 134.39-56.88 182.17-287.65zm45.35 367.06l112.4-643.41-53.49-27.31 155.32-32.7-70.93 403.42c51.43-185.17 125.65-304.12 182.14-360.61 28.94-28.93 59.16-42.81 88.4-42.81 63.11 0 92.99 70.05 67.71 214.89l-74.98 427.75 53.49 27.3-155.31 32.71 79.69-452.09c18.37-105.16 9.2-179.52-27.49-179.52-52.75 0-171.63 150.64-247.07 521.13l.23 88.4zm930.65-367.06c-27.01 260.43-136.81 368.2-236.2 368.2-82.18 0-152.59-89.75-152.59-241.65 0-151.06 56.94-310.25 142.22-395.53 42.59-42.59 91.23-67.38 144.38-67.38 73.56 0 132.47 43.51 132.47 130.6 0 57.56-24.16 121.45-68.31 165.6-65.54 65.54-160.89 94.87-275.3 113.87l5.71-62.24c26.86 11.31 51.26 19.93 75.95 19.93 47.04 0 87.08-9.95 115.23-38.1 35.72-35.72 50.41-109.13 50.41-182.98 0-78.08-24.72-131.43-64.24-131.43-69.15 0-162.72 190.61-162.72 382.94 0 143.14 45.76 225.82 106.99 225.82 55.13 0 134.39-56.88 182.17-287.65zm42.35 369.34l113.08-645.69-55.03-27.31 155.32-32.7-57.83 315.92c69.83-280.69 148.82-315.92 199.55-315.92 14.67 0 35.56 7 50.99 17.8l-85.75 314.39h-3.82c20.95-194.34-4.08-240.19-30.94-240.19-32.66 0-100.32 59.28-177.15 496.68v94.18zm844.75-612.65l42.62-75.06c-40.87-12.71-78.09-17.99-114.99-17.99-95.33 0-169.87 40.79-234.06 106.35-105.86 107.45-167.75 287.6-167.75 434.65 0 110.54 33.11 163.33 89.19 163.33 25.56 0 53.36-11.82 80.92-39.39 52.58-52.57 118.7-179.28 188.25-433.99l-88.47 472.84 157.83-32.39-53.49-28.08zm-328.52 540.01c-30.18 0-45.58-44.68-45.58-130.69 0-156.27 62.61-357.61 119.96-414.96 28.83-28.84 53.27-45.96 96.45-45.96 29.55 0 57.86 6.11 75.55 14.05-105.31 428.62-198.18 577.56-246.38 577.56zm567.19-620.78h121.77v3.83l-127.33 42.1-70.1 401.96c-20.46 116.74-7.71 169.49 20.49 169.49 27.17 0 59.43-35.84 97.83-179.8h3.83c-33.23 184.63-92.78 254.7-153.02 254.7-53.87 0-93.21-56.16-64.84-218.75l52.12-296.68c18-102.77 15.77-132.25 2.03-172.62l131.11-181.8zm95.21 691.51l161.49-31.93-61.21-28.08 112.63-643.78-161.49 32.7 61.21 27.31zm182.02-768.18c45.61 0 78.65-28.03 78.65-65.79-.23-31.3-25.99-56.24-64.23-56.24-46.52 0-78.28 30.62-78.51 66.79-.23 29.84 25.62 55.24 64.09 55.24zm61.66 540.34c0 148.54 64.2 228.61 152.5 228.61 156.68 0 290.57-203.92 290.57-474.81 0-152.87-64.89-229.75-151.82-229.75-156.67 0-291.25 204.61-291.25 475.95zm96.09 16.82c0-231.24 89.98-481.86 177.22-481.86 47.9 0 73.67 67.76 73.67 201.57 0 231.23-90.43 481.17-177.67 481.17-47.67 0-73.22-69.59-73.22-200.88zm374.6 210.65l112.4-643.41-53.49-27.31 155.32-32.7-70.93 403.42c51.43-185.17 125.65-304.12 182.14-360.61 28.94-28.93 59.16-42.81 88.4-42.81 63.11 0 92.99 70.05 67.71 214.89l-74.98 427.75 53.49 27.3-155.31 32.71 79.69-452.09c18.37-105.16 9.2-179.52-27.49-179.52-52.75 0-171.63 150.64-247.07 521.13l.23 88.4zm736.56-290.61c55.58 50.75 78.69 88.48 78.69 144.73 0 79.97-57.54 122.89-112.55 122.89-67.96 0-120.58-58.1-139.32-220.28h-3.83l-56.8 225.78c34.37 10.09 66.02 18.63 128.25 18.63 167.03 0 248.59-98.62 248.59-204.55 0-60.52-27.19-111.43-85.9-164.43l-62.82-52.55c-43.61-38.77-78.32-76.44-78.32-140.41 0-79.97 48.27-118.49 103.28-118.49 67.95 0 116.52 60.68 133.1 220.51h3.83l59.08-226.01c-34.36-10.09-61.39-18.63-123.61-18.63-167.04 0-239.34 95.85-239.34 198.38 0 73.97 33.05 113.97 88.44 164.11zm0 0"/></svg>