<svg width="2851" height="1100.002" xmlns="http://www.w3.org/2000/svg"><path d="M0 990.002l266-46v-159c33-220 94-339 129-339 39 0 42 106 19 232l-56 312 295-52-45-52 61-344c35-195-12-272-89-272-50.36 0-105 27-154 76-48 48-89.18 116.08-115 197l104-493-290 51v179zm1388-620l65-55c-81-32-146-45-213-45-137 0-281 57-383 165-102 109-150 266-150 376 0 109 47 178 127 178 41 0 85-18 128-61 41-41 94-116 135-248l-63 310 306-54-45-52zm-381 442c-24 0-34-47-34-106 0-120 41-336 86-381 8-8 17-12 27-12 28 0 54 20 74 48-59 309-121 451-153 451zm399 173l107-611-45-52 295-52-47 273c25.82-80.92 67-149 115-197 49-49 103.64-76 154-76 77 0 120 77 87 272l-58 339 45 52-295 52 55-307c23-126 20-232-19-232-35 0-96 119-129 339l1 154zm1008-173c-24 0-34-47-34-106 0-114 40-326 83-369 8-8 17-12 27-12 28 0 53 28 73 56-43 250-118 431-149 431zm342-509c-39-9-76-13-113-13-136 0-284 44-379 145-102 109-150 266-150 376 0 109 47 178 127 178 41 0 85-18 128-61 41-41 94-116 135-248l-63 310 306-54-45-52 149-834-260 48v127l-21 119zm0 0"/></svg>