<svg width="1584.74" height="1100.002" xmlns="http://www.w3.org/2000/svg"><path d="M.17 979.132l147.44-28.39v-101.48c64.69-340.91 169.72-482.22 218.8-482.22 37.24 0 44.94 81.94 25.46 192.09l-74.2 419.41 188.76-37.32-51.45-33.22 72.15-408.57c27.96-156.84-6.72-228.56-73.15-228.56-34.3 0-70.37 17.02-104.11 50.76-54.46 54.46-120.77 161.23-166.07 321.44l111.63-592.2-156.76 30.46-7.04 153.76zm1094.68-613.54l47.98-70.26c-50.48-17.33-94.35-24.46-138.46-24.46-105.3 0-196.48 44.67-269.72 120.39-104.93 107.83-163.5 282.44-163.5 420.61 0 110.17 36.44 166.85 98.24 166.85 29.26 0 60.94-13.31 92.2-44.57 49.8-49.8 112.78-164.13 175.5-389.45l-82.37 433.84 193.3-37.56-51.45-33.81zm-341.09 516.54c-28.69 0-42.8-45.24-42.8-124.78 0-147.59 57.43-352.44 111.82-406.83 23.85-23.85 44.59-37.82 79.83-37.82 29.17 0 56.93 9.43 75.17 22.17-94.21 399.98-179.69 547.26-224.02 547.26zm596.85-173.5c59.27 50.54 79.24 88.87 79.24 136.41 0 65.37-46.63 102.57-95.18 102.57-63.89 0-132.38-65.48-166.3-222.13h-5.3l-71.22 236.13c35.48 9.35 70.08 17.52 132.5 17.52 197.01 0 283.89-103.98 283.89-214.72 0-62.56-29.78-114.19-93.11-167.19l-81.3-62.72c-48.96-40.2-77.76-79.23-77.76-132.65 0-65.37 39.58-99.46 88.13-99.46 63.85 0 129.89 70.15 159.89 222.54h5.3l75.35-236.54c-35.48-9.35-66.57-17.52-128.98-17.52-197.01 0-276.85 101.39-276.85 210.02 0 72.33 34.72 116.37 95.29 167.44zm0 0"/></svg>