<svg width="2327" height="1100.002" xmlns="http://www.w3.org/2000/svg"><path d="M63.42 922.612v-747.36c0-52.41-9.26-73.3-50.13-95.85l224.08-28.98-5.29 419.73c47.6-107.66 119.15-196.44 202.25-196.44 74.39 0 125.62 56.24 125.62 196.87v399.66c0 54.98 12.37 72.24 50.14 96.76H348.08l42.87-44.39v-335.56c0-99.02-17.61-159.12-76.4-159.12-22.21 0-50.12 12.93-82.13 58.28v384.03c0 54.98 12.37 72.24 50.14 96.76H13.97zm891.8-256.6l-.34 150.8c-17.68 19.72-40.8 51.14-69.55 51.14-41.53 0-74.45-33.66-74.45-117.35 0-45.14 10.05-79.73 30.53-100.2 11.82-11.82 31.49-20.99 53.16-20.99 15.65 0 35.34 13.18 60.65 36.6zm168-216.53c0-128.99-51.97-179.06-123.9-179.06-88.71 0-162.52 105.16-224.4 273.34l65.09-256.76H656.38l84.19 384.84h7.26c37.81-183.51 91.79-246.62 135.39-246.62 40.03 0 71.66 35.34 71.66 101.37v62.8c-146.4 48.17-205.61 80.59-245.29 120.27-38.43 38.43-57.74 84.84-57.74 137.38 0 82.88 53.26 136.54 123.36 136.54 76.02 0 138-73.41 179.67-153.09l-9.55 153.09 228.03-28.98c-41.53-22.55-50.14-40.15-50.14-90.59zm271.1 435.47l21.71 85.47h135.55c7-51.09 15.03-89.75 35.52-145.08l189.91-538.34h-239.66c51.99 147.28 83.09 324.4 24.29 564.96l-170.46-486.67-6.74-78.29h-203.7zm406.82-228.95c0 199.82 105.48 327.58 241.46 327.58 133.24 0 223.65-114.71 246.01-304.81l-5.95-1.31c-40.38 128.39-96.49 163.76-154.9 163.76-103.57 0-174.83-115.76-174.83-355.58 0-136.94 33.04-184.42 68.23-184.42 50.06 0 100.67 133.75 100.67 287.52l29.23-29.47-202.14 43.31v8.68l340.54 53.11c5.94-37.04 8.26-61.22 8.26-91.69 0-187.53-89.59-303.57-218.2-303.57-149.27 0-278.38 161.44-278.38 386.89zm0 0"/></svg>