<svg width="915" height="1100.002" xmlns="http://www.w3.org/2000/svg"><path d="M.82 971.922l82.66-18.77v-70.05c82.01-406.97 211.08-560.46 267.86-560.46 36.28 0 46.54 68.79 28.99 170.28l-84.14 478.1 130.72-29.31-54.98-22.96 78.24-443.84c24.11-136-3.83-204.83-64.49-204.83-25.53 0-51.45 11.57-76.85 36.97-57.99 57.98-138.03 185.89-193.97 389.41l115.8-646.38-83.97 19.23-10.89 139.97zm870.29-358.56c-31.77 263.16-138.71 358.56-221.79 358.56-75.53 0-139.15-92.87-139.15-239.47 0-154.6 58.17-319.63 142.09-403.55 36.88-36.88 78.59-58.82 123.32-58.82 66.08 0 124.45 42.01 124.45 129.64 0 54.85-20.49 121.19-68.72 169.42-61.05 61.04-150.84 87.8-266.19 106.8l2.31-54.36c27.54 6.96 52.89 11.64 77.17 11.64 53.56 0 100.13-11.17 132.36-43.4 37.07-37.08 51.35-103.7 51.35-173.47 0-78.63-26.08-134.15-68.86-134.15-73.23 0-176.57 194.41-176.57 396.67 0 142.46 41.14 232.47 102.23 232.47 49.69 0 130.59-54.57 183.26-297.98zm0 0"/></svg>