<svg width="1057" height="1100.002" xmlns="http://www.w3.org/2000/svg"><path d="M65.87 928.202v-766.2c0-45.57-7.3-63.52-53.8-82.89l181.28-28.24-4.07 412.39c45.89-107.41 114.26-190.33 191-190.33 66.81 0 115.35 53.55 115.35 193.2v408.72c0 54.24 13.35 69.54 53.8 90.15h-226.3l48.5-36.8v-386.68c0-99.76-25.2-153.5-78.11-153.5-28.09 0-62.35 20.02-103.65 92.76v394.07c0 54.24 13.35 69.54 53.8 90.15H13.24zm526.93-274.2c0 203.98 91.55 325.13 208.94 325.13 112.69 0 196.26-106.63 210.3-317.52l-4.47-.83c-32.81 175.11-91.85 211.46-143.42 211.46-91.82 0-161.13-118.46-161.13-362.44 0-153.32 43.07-204.71 83.39-204.71 60.83 0 109.72 127.15 109.72 283.61l26.54-24.09-232.95 33.52v9.17l328.06 38.2c4.48-29.22 6.31-49.24 6.31-74.33 0-192.91-78.59-301.13-187.63-301.13-129.46 0-243.66 155.33-243.66 383.96zm0 0"/></svg>