<svg width="3205" height="1100.002" xmlns="http://www.w3.org/2000/svg"><path d="M65.87 928.202v-766.2c0-45.57-7.3-63.52-53.8-82.89l181.28-28.24-4.07 412.39c45.89-107.41 114.26-190.33 191-190.33 66.81 0 115.35 53.55 115.35 193.2v408.72c0 54.24 13.35 69.54 53.8 90.15h-226.3l48.5-36.8v-386.68c0-99.76-25.2-153.5-78.11-153.5-28.09 0-62.35 20.02-103.65 92.76v394.07c0 54.24 13.35 69.54 53.8 90.15H13.24zm526.93-274.2c0 203.98 91.55 325.13 208.94 325.13 112.69 0 196.26-106.63 210.3-317.52l-4.47-.83c-32.81 175.11-91.85 211.46-143.42 211.46-91.82 0-161.13-118.46-161.13-362.44 0-153.32 43.07-204.71 83.39-204.71 60.83 0 109.72 127.15 109.72 283.61l26.54-24.09-232.95 33.52v9.17l328.06 38.2c4.48-29.22 6.31-49.24 6.31-74.33 0-192.91-78.59-301.13-187.63-301.13-129.46 0-243.66 155.33-243.66 383.96zm532.42 274.2l-53.81 36.8h231.61c-40.45-19.37-53.8-34.67-53.8-90.15v-655.76l6.13-168.22-183.94 28.24c46.5 19.37 53.81 37.32 53.81 82.89zm487.65-11.05c-32.52 0-75.61-33.42-103.94-90.48v-386.82c18.57-40.63 46.11-71.98 72.66-71.98 74.95 0 136.52 144.36 136.52 316.41 0 184.42-59.52 232.87-105.24 232.87zm-227.94 111.05l-53.8 36.8h231.61c-40.51-23.56-54.39-38.8-54.39-90.15v-94.05l-80.87 32.77c33.43 26.19 70.8 41.1 108.78 41.1 72.19 0 132.31-23.6 179.41-70.71 68.15-68.15 116.37-183.69 116.37-334.11 0-188.81-82.3-278.98-163.56-278.98-78.63 0-138.72 76.78-159.55 152.28l4.07-152.28-181.87 32.37c46.5 16.89 53.8 34.85 53.8 81.65zm672.81-700.09v546.74c0 54.24 13.35 69.54 53.8 90.15h-231.61l53.81-36.8v-551.87c0-55.48-15-71.2-57.94-86.03v-5.3h57.94c8.26-109.85 95.67-210.65 224.22-234.13l1.17 4.13c-72.28 55.87-101.39 122.07-101.39 230h90.43v5.3zm266.06 109.32v254.61c0 115.03 28.13 169.94 82.22 169.94 28.68 0 58.24-20.02 99.55-92.76v-384.33c0-46.8-7.31-64.76-53.81-81.65l183.11-32.37-5.3 166.56v433.87c0 44.33 6.89 60.22 53.8 79.59l-184.35 28.24 6.55-194.74c-45.9 109.76-114.27 192.68-191 192.68-66.22 0-114.77-52.37-114.77-186.16v-406.02c0-46.8-7.3-64.76-53.8-81.65l183.11-32.37zm439.42 490.77l-53.81 36.8h231.61c-40.45-19.37-53.8-34.67-53.8-90.15v-655.76l6.13-168.22-183.94 28.24c46.5 19.37 53.81 37.32 53.81 82.89zm315.5 50.52c-48.79 0-85.13-37.76-85.13-84.96 0-49.19 36.34-86.54 85.13-86.54 48.78 0 85.13 37.35 85.13 86.54 0 47.2-36.35 84.96-85.13 84.96zm0 0"/></svg>