<svg width="2988.28" height="1100.002" xmlns="http://www.w3.org/2000/svg"><path d="M.54 975.282l110.11-22.85v-83.36c74.68-378.98 193.56-527.31 247.08-527.31 36.68 0 45.86 74.36 27.49 179.52l-79.93 453.23 155.32-32.71-53.49-27.3 75.66-428.89c25.74-144.84-5.05-214.89-68.16-214.89-29.24 0-59.47 13.88-88.4 42.81-56.49 56.49-130.72 175.44-182.14 360.61l114.03-623.42-114.82 23.99-9.26 145.81zm528.18-.77l161.49-31.93-61.21-28.08 112.63-643.78-161.49 32.7 61.21 27.31zm182.02-768.18c45.61 0 78.65-28.03 78.65-65.79-.23-31.3-25.99-56.24-64.23-56.24-46.52 0-78.28 30.62-78.51 66.79-.23 29.84 25.62 55.24 64.09 55.24zm521.92 157.44l42.62-75.06c-41.1-13.85-80.82-17.99-112.25-17.99-99.2 0-170.55 38.28-234.74 102.46-106.31 106.32-165.46 278.03-165.46 422.1 0 108.72 34.51 151.06 88.04 151.06 27.2 0 55.41-11.83 84.58-40.99 50.06-50.07 115.5-165.18 183.45-414.86l-63.38 350.67c-31.61 174.42-123.24 208.37-179.1 208.37-62.15 0-106.78-57.71-129.41-173.55h-3.83l-40.64 186.36c32.72 7.86 70.84 12.94 103.56 12.94 87.42 0 175.07-33.15 245.12-103.19 40.26-40.26 95.03-118.64 116.49-241.93zm-325.09 516.09c-29.27 0-45.21-37.65-45.21-132.29 0-149.66 59.96-332.55 116.62-389.21 28.84-28.84 53.27-45.96 96.45-45.96 29.09 0 56.72 7.02 74.64 15.19-103.25 422.91-194.53 552.27-242.5 552.27zm343.97 95.42l110.11-22.85v-83.36c74.68-378.98 193.56-527.31 247.08-527.31 36.68 0 45.86 74.36 27.49 179.52l-79.93 453.23 155.32-32.71-53.49-27.3 75.66-428.89c25.74-144.84-5.05-214.89-68.16-214.89-29.24 0-59.47 13.88-88.4 42.81-56.49 56.49-130.72 175.44-182.14 360.61l114.03-623.42-114.82 23.99-9.26 145.81zm931.2-368.2c-27.01 260.43-136.81 368.2-236.2 368.2-82.18 0-152.59-89.75-152.59-241.65 0-151.06 56.94-310.25 142.22-395.53 42.59-42.59 91.23-67.38 144.38-67.38 73.56 0 132.47 43.51 132.47 130.6 0 57.56-24.16 121.45-68.31 165.6-65.54 65.54-160.89 94.87-275.3 113.87l5.71-62.24c26.86 11.31 51.26 19.93 75.95 19.93 47.04 0 87.08-9.95 115.23-38.1 35.72-35.72 50.41-109.13 50.41-182.98 0-78.08-24.72-131.43-64.24-131.43-69.15 0-162.72 190.61-162.72 382.94 0 143.14 45.76 225.82 106.99 225.82 55.13 0 134.39-56.88 182.17-287.65zm257.91 76.45c55.58 50.75 78.69 88.48 78.69 144.73 0 79.97-57.54 122.89-112.55 122.89-67.96 0-120.58-58.1-139.32-220.28h-3.83l-56.8 225.78c34.37 10.09 66.02 18.63 128.25 18.63 167.03 0 248.59-98.62 248.59-204.55 0-60.52-27.19-111.43-85.9-164.43l-62.82-52.55c-43.61-38.77-78.32-76.44-78.32-140.41 0-79.97 48.27-118.49 103.28-118.49 67.95 0 116.52 60.68 133.1 220.51h3.83l59.08-226.01c-34.36-10.09-61.39-18.63-123.61-18.63-167.04 0-239.34 95.85-239.34 198.38 0 73.97 33.05 113.97 88.44 164.11zm425.86-400.53h121.77v3.83l-127.33 42.1-70.1 401.96c-20.46 116.74-7.71 169.49 20.49 169.49 27.17 0 59.43-35.84 97.83-179.8h3.83c-33.23 184.63-92.78 254.7-153.02 254.7-53.87 0-93.21-56.16-64.84-218.75l52.12-296.68c18-102.77 15.77-132.25 2.03-172.62l131.11-181.8zm0 0"/></svg>