<svg width="3560" height="1100.002" xmlns="http://www.w3.org/2000/svg"><path d="M63.42 922.612v-747.36c0-52.41-9.26-73.3-50.13-95.85l224.08-28.98-5.29 419.73c47.6-107.66 119.15-196.44 202.25-196.44 74.39 0 125.62 56.24 125.62 196.87v399.66c0 54.98 12.37 72.24 50.14 96.76H348.08l42.87-44.39v-335.56c0-99.02-17.61-159.12-76.4-159.12-22.21 0-50.12 12.93-82.13 58.28v384.03c0 54.98 12.37 72.24 50.14 96.76H13.97zm621.37 0v-527.36c0-52.41-9.26-73.3-50.13-95.85l226.39-28.98-7.26 185.93v413.89c0 56.95 12.37 74.21 50.14 96.76H634.66zm77.82-689.44c-70.06 0-112.1-36.47-112.1-83.49 0-47.7 40.72-86.79 108.81-86.79 68.75 0 114.73 39.09 114.73 86.79 0 47.02-44.67 83.49-111.44 83.49zm189.32 343c0 149.72 97.2 258.69 229.83 258.69 164.92 0 270.08-167.61 270.08-321.96 0-44.26-15.25-89.07-31.78-125.24l74.79-51.96c-79.67-42.07-177.33-65.28-261.53-65.28-164.4 0-281.39 138.19-281.39 305.75zm155.08-81.12c0-122.35 30.88-199.09 76.34-199.09 59.74 0 116.69 157.88 116.69 303.37 0 125.12-30.46 210-78.39 210-63.32 0-114.64-164.97-114.64-314.28zm330.51 571.95l13.15-151.93h-389.4l-29.61-153.32-88.81 305.25zm125.9-144.39v-747.36c0-52.41-9.26-73.3-50.13-95.85l224.08-28.98-5.29 419.73c47.6-107.66 119.15-196.44 202.25-196.44 74.39 0 125.62 56.24 125.62 196.87v399.66c0 54.98 12.37 72.24 50.14 96.76h-262.01l42.87-44.39v-335.56c0-99.02-17.61-159.12-76.4-159.12-22.21 0-50.12 12.93-82.13 58.28v384.03c0 54.98 12.37 72.24 50.14 96.76h-268.59zm586.72-266.61c0 199.82 105.48 327.58 241.46 327.58 133.24 0 223.65-114.71 246.01-304.81l-5.95-1.31c-40.38 128.39-96.49 163.76-154.9 163.76-103.57 0-174.83-115.76-174.83-355.58 0-136.94 33.04-184.42 68.23-184.42 50.06 0 100.67 133.75 100.67 287.52l29.23-29.47-202.14 43.31v8.68l340.54 53.11c5.94-37.04 8.26-61.22 8.26-91.69 0-187.53-89.59-303.57-218.2-303.57-149.27 0-278.38 161.44-278.38 386.89zm613.25 31.89l-60.54 250.79c35.52 19.58 106.62 44.9 199.95 44.9 157.95 0 241.36-96.57 241.71-209.43 0-71.87-27.74-116.63-62.19-151.08-65.25-65.25-193.56-107.6-251.87-166.56-19.61-19.61-44.35-47.75-44.35-80.39 0-38.49 32.3-61.1 67.49-61.1 64.31 0 154.71 70.18 226.53 250.43h7.26l61.3-250.48c-33.46-18.55-102.56-44.55-188.58-44.55-146.08 0-244.91 88.1-244.91 208.12 0 65.23 27.03 112.18 63.4 148.55 50.12 50.12 196.32 113.59 248.02 165.29 26.19 26.19 44.36 52.46 44.36 86.16 0 41.12-29.96 61.76-64.6 61.76-56.3 0-162.07-60.32-235.72-252.41zm647.75-347.22v312.02c0 116.86 23.34 171.46 78.93 171.46 18.74 0 36.74-19.78 56.03-77.08-36.17 145.54-107 236.51-180.51 236.51-74.33 0-123.45-57.58-123.45-221.49v-349.4c0-77.33-13.03-96.57-50.14-125.69h50.45l154.37-201.68 14.32 201.68h141.33v7.26zm0 0"/></svg>