<svg width="2121" height="1100.002" xmlns="http://www.w3.org/2000/svg"><path d="M60 915.002v-721c0-62-12-87-45-114l284-30-7 430c50-108 126-205 218-205 85 0 140 60 140 202v387c0 56 11 76 45 106H383l35-55v-264c0-98-7-167-74-167-14 0-33 3-52 10v370c0 56 11 76 45 106H15zm705 0v-501c0-62-12-87-45-114l287-30-10 214v380c0 59 11 79 45 106H720zm110-660c-93 0-146-44-146-103s51-107 141-107c91 0 150 48 150 107s-57 103-145 103zm243 660l-35 55h312c-34-30-45-50-45-106v-395c15-7 31-9 43-9 60 0 79 67 79 166v289l-35 55h312c-34-30-45-50-45-106v-395c16-7 32-9 43-9 60 0 80 67 80 166v289l-35 55h312c-34-30-45-50-45-106v-387c0-148-63-207-152-207-95 0-167 73-203 185 0-145-66-185-137-185-92 0-173 84-217 185l10-185-287 40c33 21 45 46 45 111zm0 0"/></svg>