<svg width="1867" height="1100.002" xmlns="http://www.w3.org/2000/svg"><path d="M63.42 922.612v-747.36c0-52.41-9.26-73.3-50.13-95.85l224.08-28.98-5.29 419.73c47.6-107.66 119.15-196.44 202.25-196.44 74.39 0 125.62 56.24 125.62 196.87v399.66c0 54.98 12.37 72.24 50.14 96.76H348.08l42.87-44.39v-335.56c0-99.02-17.61-159.12-76.4-159.12-22.21 0-50.12 12.93-82.13 58.28v384.03c0 54.98 12.37 72.24 50.14 96.76H13.97zm621.37 0v-527.36c0-52.41-9.26-73.3-50.13-95.85l226.39-28.98-7.26 185.93v413.89c0 56.95 12.37 74.21 50.14 96.76H634.66zm77.82-689.44c-70.06 0-112.1-36.47-112.1-83.49 0-47.7 40.72-86.79 108.81-86.79 68.75 0 114.73 39.09 114.73 86.79 0 47.02-44.67 83.49-111.44 83.49zm219.5 689.44l-43.56 44.39h262.69c-37.76-24.52-50.13-41.78-50.13-96.76v-417.59c22.19-24.12 49.15-40.5 75.18-40.5 56.92 0 81.4 59.46 81.4 167.71v342.75l-43.56 44.39h262.7c-37.77-24.52-50.14-41.78-50.14-96.76v-417.59c23.88-25.49 49.8-40.5 74.5-40.5 54.86 0 82.74 59.46 82.74 168.05v342.41l-43.56 44.39h262.7c-37.77-24.52-50.14-41.78-50.14-96.76v-403.77c0-141.15-56.84-196.05-136.94-196.05-85.07 0-151.25 68.21-189.98 167.54-2.74-131.64-63.61-167.54-126.73-167.54-82.76 0-156.23 76.81-198.17 166.86l7.26-166.86-226.4 35.55c40.88 18.61 50.14 39.5 50.14 93.88zm0 0"/></svg>