<svg width="1449" height="1100.002" xmlns="http://www.w3.org/2000/svg"><path d="M69.08 934.142v-790.89c0-36.59-4.74-50.7-58.62-65.9l125.17-27.27-2.46 402.77c43.65-107.09 107.85-182.31 176.25-182.31 56.86 0 101.88 50.01 101.88 188.38v420.59c0 53.27 14.63 66.01 58.61 81.49H290.42l55.88-26.86v-453.69c0-100.73-35.14-146.13-80.35-146.13-35.79 0-78.38 29.32-131.87 137.97v407.22c0 53.27 14.63 66.01 58.61 81.49H12.28zm482.63 0v-570.89c0-36.59-4.74-50.7-58.62-65.9l126.36-27.27-2.74 139.57v469.86c0 53.55 14.63 66.29 58.61 81.49H493.09zm24.68-738.06c-32.19 0-56.15-24.03-56.15-51.26 0-29.05 23.78-53.46 55.69-53.46 32 0 56.52 24.41 56.52 53.46 0 27.23-24.33 51.26-56.06 51.26zm181.5 738.06l-57.69 26.86h181.31c-43.99-15.48-58.62-28.22-58.62-81.49v-454.91c34.06-52.38 79.1-92.5 128.32-92.5 51.83 0 85.35 47.04 85.35 170.54v431.5l-57.69 26.86h181.3c-43.98-15.48-58.61-28.22-58.61-81.49v-454.91c36.87-56.01 79.2-92.5 126.5-92.5 46.39 0 87.26 47.04 87.26 171.45v430.59l-57.69 26.86h181.3c-43.98-15.48-58.61-28.22-58.61-81.49v-431.48c0-129.85-46.66-177.95-112.06-177.95-68.68 0-125.25 60.29-168.52 138.71-7.26-109.61-59.64-138.71-109.77-138.71-67.49 0-128.52 64.94-167.08 136.89l2.74-136.89-126.35 28.2c53.87 14.64 58.61 28.75 58.61 65.62zm0 0"/></svg>