<svg width="1448.42" height="1100.002" xmlns="http://www.w3.org/2000/svg"><path d="M0 983.582l196.84-35.73v-125.45c51.49-290.53 138.17-422.54 181.39-422.54 37.97 0 43.71 91.96 22.76 208.72l-66.61 374.65 233.03-43.44-48.77-41.04 67.51-381.66c30.89-172.75-8.92-246.67-79.76-246.67-40.99 0-84.8 21.18-124.9 61.28-51.76 51.77-107.61 142.42-144.78 269.59l108.45-550.87-212.28 39.02-4.11 164.28zm631.74-.35l235.77-43.09-52.19-41.39 110.05-628.33-235.76 43.44 52.19 41.05zm230.97-749.72c73.09 0 125.02-37.47 125.02-89.83-.65-45.04-41.01-81.14-104.15-81.14-75.72 0-122.08 43.07-122.74 90.83-.66 42.73 38.07 80.14 101.87 80.14zm326.63 507.69c64.18 50.27 79.97 89.38 79.97 125.41 0 46.05-32.2 75.66-72.18 75.66-58.5 0-148.01-75.23-202.01-224.57h-7.26l-90.3 249.82c36.95 8.37 75.47 16.06 138.13 16.06 236.69 0 330.6-111.07 330.6-228.17 0-65.26-33.2-117.87-102.64-170.87l-105.76-76.17c-56.05-42.1-77.03-82.91-77.03-122.38 0-46.04 28.09-74.26 68.07-74.26 58.44 0 147.59 82.67 195.36 225.23h7.26l96.87-250.48c-36.95-8.37-73.42-16.06-136.07-16.06-236.69 0-326.5 108.73-326.5 225.43 0 70.16 36.92 119.55 104.33 171.84zm0 0"/></svg>