<svg width="2602" height="1100.002" xmlns="http://www.w3.org/2000/svg"><path d="M65.87 928.202v-766.2c0-45.57-7.3-63.52-53.8-82.89l181.28-28.24-4.07 412.39c45.89-107.41 114.26-190.33 191-190.33 66.81 0 115.35 53.55 115.35 193.2v408.72c0 54.24 13.35 69.54 53.8 90.15h-226.3l48.5-36.8v-386.68c0-99.76-25.2-153.5-78.11-153.5-28.09 0-62.35 20.02-103.65 92.76v394.07c0 54.24 13.35 69.54 53.8 90.15H13.24zm524.87-276.74c0 206.71 99.96 327.67 221.52 327.67 132.39 0 251.89-148.48 251.89-384.72 0-204.89-104.91-323.54-222.76-323.54-131.98 0-250.65 146-250.65 380.59zm120.65-127.18c0-162.26 38.72-220.43 85.02-220.43 80.59 0 146.68 201.37 146.68 421.87 0 151.93-38.31 220.43-85.44 220.43-80.17 0-146.26-201.37-146.26-421.87zm679.48 392.87c-32.52 0-75.61-33.42-103.94-90.48v-386.82c18.57-40.63 46.11-71.98 72.66-71.98 74.95 0 136.52 144.36 136.52 316.41 0 184.42-59.52 232.87-105.24 232.87zm-227.94 111.05l-53.8 36.8h231.61c-40.51-23.56-54.39-38.8-54.39-90.15v-94.05l-80.87 32.77c33.43 26.19 70.8 41.1 108.78 41.1 72.19 0 132.31-23.6 179.41-70.71 68.15-68.15 116.37-183.69 116.37-334.11 0-188.81-82.3-278.98-163.56-278.98-78.63 0-138.72 76.78-159.55 152.28l4.07-152.28-181.87 32.37c46.5 16.89 53.8 34.85 53.8 81.65zm510.87-374.2c0 203.98 91.55 325.13 208.94 325.13 112.69 0 196.26-106.63 210.3-317.52l-4.47-.83c-32.81 175.11-91.85 211.46-143.42 211.46-91.82 0-161.13-118.46-161.13-362.44 0-153.32 43.07-204.71 83.39-204.71 60.83 0 109.72 127.15 109.72 283.61l26.54-24.09-232.95 33.52v9.17l328.06 38.2c4.48-29.22 6.31-49.24 6.31-74.33 0-192.91-78.59-301.13-187.63-301.13-129.46 0-243.66 155.33-243.66 383.96zm544 28.96l-48.06 254.21c31.61 17.13 96.35 41.96 180.63 41.96 138.63 0 215.2-84.83 215.78-194.02 0-68.2-29.69-115.65-67.32-153.28-54-54-154.68-96.59-203.2-145.53-27.2-27.19-53.89-59-53.89-99.95 0-51.7 40.37-81.89 80.69-81.89 63.83 0 138.09 66.02 186.92 262.17h5.3l51.52-254.39c-28.08-15.37-90.82-41.37-168.28-41.37-130.43 0-215.56 81.74-215.56 193.2 0 62.54 27.76 108.02 65.1 145.36 44.5 44.5 160.14 102.59 203.77 146.22 31.32 31.33 53.89 64.94 53.89 108.42 0 53.34-37.79 82.3-80.74 82.3-64.37 0-154.98-59.83-201.24-263.41zm0 0"/></svg>