<svg width="2393.93" height="1100.002" xmlns="http://www.w3.org/2000/svg"><path d="M.54 975.282l110.11-22.85v-83.36c74.68-378.98 193.56-527.31 247.08-527.31 36.68 0 45.86 74.36 27.49 179.52l-79.93 453.23 155.32-32.71-53.49-27.3 75.66-428.89c25.74-144.84-5.05-214.89-68.16-214.89-29.24 0-59.47 13.88-88.4 42.81-56.49 56.49-130.72 175.44-182.14 360.61l114.03-623.42-114.82 23.99-9.26 145.81zm545.86-228.61c0 148.54 64.2 228.61 152.5 228.61 156.68 0 290.57-203.92 290.57-474.81 0-152.87-64.89-229.75-151.82-229.75-156.67 0-291.25 204.61-291.25 475.95zm96.09 16.82c0-231.24 89.98-481.86 177.22-481.86 47.9 0 73.67 67.76 73.67 201.57 0 231.23-90.43 481.17-177.67 481.17-47.67 0-73.22-69.59-73.22-200.88zm355.37 310.25l131.63-743.01-53.49-27.31 155.32-32.7-83.65 473.61c69.56-254.71 135.68-381.42 188.25-433.99 27.57-27.57 55.36-39.39 80.93-39.39 56.07 0 89.18 52.79 89.18 163.33 0 147.05-61.89 327.2-167.75 434.65-62.56 63.84-137.99 101.79-232.91 101.79-18.05 0-36.11-1.23-54.94-3.69l57.74-20.89-4.22 112.23zm362.52-731.52c-47.98 0-143.13 154.65-246.15 575.51 18.14 6.79 46.91 12.9 76.45 12.9 43.19 0 68.08-17.12 96.92-45.96 56.89-56.89 118.04-256.85 118.04-411.76 0-86.01-15.09-130.69-45.26-130.69zm560.36 264.86c-27.01 260.43-136.81 368.2-236.2 368.2-82.18 0-152.59-89.75-152.59-241.65 0-151.06 56.94-310.25 142.22-395.53 42.59-42.59 91.23-67.38 144.38-67.38 73.56 0 132.47 43.51 132.47 130.6 0 57.56-24.16 121.45-68.31 165.6-65.54 65.54-160.89 94.87-275.3 113.87l5.71-62.24c26.86 11.31 51.26 19.93 75.95 19.93 47.04 0 87.08-9.95 115.23-38.1 35.72-35.72 50.41-109.13 50.41-182.98 0-78.08-24.72-131.43-64.24-131.43-69.15 0-162.72 190.61-162.72 382.94 0 143.14 45.76 225.82 106.99 225.82 55.13 0 134.39-56.88 182.17-287.65zm257.91 76.45c55.58 50.75 78.69 88.48 78.69 144.73 0 79.97-57.54 122.89-112.55 122.89-67.96 0-120.58-58.1-139.32-220.28h-3.83l-56.8 225.78c34.37 10.09 66.02 18.63 128.25 18.63 167.03 0 248.59-98.62 248.59-204.55 0-60.52-27.19-111.43-85.9-164.43l-62.82-52.55c-43.61-38.77-78.32-76.44-78.32-140.41 0-79.97 48.27-118.49 103.28-118.49 67.95 0 116.52 60.68 133.1 220.51h3.83l59.08-226.01c-34.36-10.09-61.39-18.63-123.61-18.63-167.04 0-239.34 95.85-239.34 198.38 0 73.97 33.05 113.97 88.44 164.11zm0 0"/></svg>