<svg width="5548" height="1100.002" xmlns="http://www.w3.org/2000/svg"><path d="M64.79 922.612v-527.36c0-52.41-9.26-73.3-50.13-95.85l226.39-28.98-7.26 185.93v413.89c0 56.95 12.37 74.21 50.14 96.76H14.66zm77.82-689.44c-70.06 0-112.1-36.47-112.1-83.49 0-47.7 40.72-86.79 108.81-86.79 68.75 0 114.73 39.09 114.73 86.79 0 47.02-44.67 83.49-111.44 83.49zm219.5 689.44l-43.56 44.39h262.69c-37.76-24.52-50.13-41.78-50.13-96.76v-417.59c22.19-24.12 49.15-40.5 75.18-40.5 56.92 0 81.4 59.46 81.4 167.71v342.75l-43.56 44.39h262.7c-37.77-24.52-50.14-41.78-50.14-96.76v-417.59c23.88-25.49 49.8-40.5 74.5-40.5 54.86 0 82.74 59.46 82.74 168.05v342.41l-43.56 44.39h262.7c-37.77-24.52-50.14-41.78-50.14-96.76v-403.77c0-141.15-56.84-196.05-136.94-196.05-85.07 0-151.25 68.21-189.98 167.54-2.74-131.64-63.61-167.54-126.73-167.54-82.76 0-156.23 76.81-198.17 166.86l7.26-166.86-226.4 35.55c40.88 18.61 50.14 39.5 50.14 93.88zm1223.31-8.1c-31.05 0-73.01-43.15-102.71-114.45v-353.57c14.17-26.2 33.15-45.32 51.13-45.32 77.89 0 135.06 146.36 135.06 305.41 0 160.5-46.81 207.93-83.48 207.93zm-271.71 108.1l-50.13 44.39h269.27c-37.86-29.22-50.48-46.39-50.48-96.76v-91.1l-112.17 43.27c37.83 18.62 78.38 28.15 112.2 28.15 93.78 0 168.01-27.52 224.66-84.17 70.61-70.61 119.55-181.82 119.55-321.15 0-185.13-84.26-274.82-170.41-274.82-86.71 0-152.17 80.21-173.49 161.34l5.29-161.34-224.42 35.55c40.87 18.61 50.13 39.5 50.13 93.88zm565.14-371.84c0 208.91 114.14 332.81 253.8 332.81 150.98 0 287.36-149.95 287.36-386.92 0-206.61-122.04-326.24-255.78-326.24-150.32 0-285.38 146-285.38 380.35zm166.63-149.19c0-144.65 29.67-202.34 66.68-202.34 69.09 0 140.56 227.05 140.56 453.18 0 128.21-29.01 202.34-67.34 202.34-68.43 0-139.9-227.05-139.9-453.18zm461.97 421.03v-522.76c0-54.38-9.26-75.27-50.13-93.88l226.39-35.55-5.31 271.88c22.2-168.35 88.99-267.27 164.4-267.27 16 0 34.42 4.37 52.48 17.19l-65.09 412.51h-7.26c-20.15-174.43-50.15-249.5-80.47-249.5-32.05 0-66.01 73.82-66.01 228.87v186.14c0 50.37 12.37 67.63 50.14 96.76h-269.27zm618.69-581.94v312.02c0 116.86 23.34 171.46 78.93 171.46 18.74 0 36.74-19.78 56.03-77.08-36.17 145.54-107 236.51-180.51 236.51-74.33 0-123.45-57.58-123.45-221.49v-349.4c0-77.33-13.03-96.57-50.14-125.69h50.45l154.37-201.68 14.32 201.68h141.33v7.26zm484.08 325.34l-.34 150.8c-17.68 19.72-40.8 51.14-69.55 51.14-41.53 0-74.45-33.66-74.45-117.35 0-45.14 10.05-79.73 30.53-100.2 11.82-11.82 31.49-20.99 53.16-20.99 15.65 0 35.34 13.18 60.65 36.6zm168-216.53c0-128.99-51.97-179.06-123.9-179.06-88.71 0-162.52 105.16-224.4 273.34l65.09-256.76h-183.63l84.19 384.84h7.26c37.81-183.51 91.79-246.62 135.39-246.62 40.03 0 71.66 35.34 71.66 101.37v62.8c-146.4 48.17-205.61 80.59-245.29 120.27-38.43 38.43-57.74 84.84-57.74 137.38 0 82.88 53.26 136.54 123.36 136.54 76.02 0 138-73.41 179.67-153.09l-9.55 153.09 228.03-28.98c-41.53-22.55-50.14-40.15-50.14-90.59zm125.89 473.13l-50.14 44.39h269.27c-37.76-29.13-50.13-46.39-50.13-96.76v-397.19c30.69-46.66 55.2-60.9 77.76-60.9 54.86 0 80.77 60.12 80.77 168.05v342.41l-43.56 44.39h262.69c-37.76-29.13-50.13-46.39-50.13-96.76v-407.06c0-137.21-51.24-192.76-125.28-192.76-83.1 0-154.65 85.5-202.25 186.24l7.26-186.24-226.4 35.55c40.88 18.61 50.14 39.5 50.14 93.88zm587.74-274.5c0-222.19 125.14-374.4 316.31-374.4 64.7 0 119.51 17.37 159.95 34.34l-98.5 401.86h-7.26c-53.78-283.76-109.7-399.62-161.58-399.62-33.3 0-61.73 66.9-61.73 181.22-.69 212.44 80.86 340.51 195.34 340.51 32.79 0 88.75-16.3 133.08-119.71-26.31 163.28-99.23 270.61-235.75 270.61-131.14 0-239.86-125.15-239.86-334.81zm530.29 7.89c0 199.82 105.48 327.58 241.46 327.58 133.24 0 223.65-114.71 246.01-304.81l-5.95-1.31c-40.38 128.39-96.49 163.76-154.9 163.76-103.57 0-174.83-115.76-174.83-355.58 0-136.94 33.04-184.42 68.23-184.42 50.06 0 100.67 133.75 100.67 287.52l29.23-29.47-202.14 43.31v8.68l340.54 53.11c5.94-37.04 8.26-61.22 8.26-91.69 0-187.53-89.59-303.57-218.2-303.57-149.27 0-278.38 161.44-278.38 386.89zm0 0"/></svg>