<svg width="6274" height="1100.002" xmlns="http://www.w3.org/2000/svg"><path d="M0 990.002l295-52-45-52 108-616-295 52 45 52zm269-735c95 0 162-45 162-109-1-56-53-101-136-101-99 0-157 53-158 110-1 53 48 100 132 100zm89 730l266-46v-149c54-259 98-344 134-344 39 0 33 107 11 232l-53 307 266-46v-161c53-251 96-334 132-334 39 0 33 106 11 232l-56 319 294-52-34-113 52-290c35-195-5-272-82-272-56 0-112 28-159 75-48 48-85 117-111 199l12-68c25-144-21-204-98-204-52 0-109 29-159 79-48 48-90 115-115 195l58-274-305 54 35 89zm1049 105l127-716-45-52 295-52-52 310c41-132 94-207 135-248 43-43 87-61 128-61 80 0 127 69 127 178 0 110-48 267-150 376-94.88 100.46-242.79 145-378 145-25 0-50-2-75-6l138-78-5 184zm415-642c-31 0-103 167-152 442 22 23 50 43 78 43 10 0 21-4 29-12 43-43 81-253 81-367 0-59-12-106-36-106zm314 264c0 174 97 278 259 278 198 0 377-180 377-437 0-193-100-283-256-283-198 0-380 183-380 442zm235 121c0-205 73-549 134-549 16 0 32 23 32 146 0 205-75 546-136 546-15 0-30-31-30-143zm418 162l110-621-45-52 295-52-64 292c76-256 182-292 242-292l7 7-139 478h-10c-13-182-28-251-51-251-18 0-43.94 56.84-83 286v159zm848-705h121v10l-142 56-40 226c-22 126-27 232 12 232 21 0 44-15 77-98h10c-34 180-136 274-241 274-94 0-148-77-115-272l39-228c18-102 15-150-8-195l287-198zm740 80l65-55c-81-32-146-45-213-45-137 0-281 57-383 165-102 109-150 266-150 376 0 109 47 178 127 178 41 0 85-18 128-61 41-41 94-116 135-248l-63 310 306-54-45-52zm-381 442c-24 0-34-47-34-106 0-120 41-336 86-381 8-8 17-12 27-12 28 0 54 20 74 48-59 309-121 451-153 451zm399 173l107-611-45-52 295-52-47 273c25.82-80.92 67-149 115-197 49-49 103.64-76 154-76 77 0 120 77 87 272l-58 339 45 52-295 52 55-307c23-126 20-232-19-232-35 0-96 119-129 339l1 154zm727-262c1 175 111 267 227 267 149 0 257-148 297-261h-10c-37 32-85 51-134 51-102 0-156-104-156-243 0-118 37-210 65-210 50 0 91 195 91 443h10l223-493c-29-4-78-7-121-7-318 0-492 232-492 453zm1114-156c0 245-126 423-318 423-120 0-229-72-229-254 0-131 50-257 143-350 75-75 163-116 264-116 116 0 178 52 178 136 0 73-45 123-66 144-91 91-218 135-327 154l25-107c23 36 42 67 69 67 10 0 13-3 18-8 28-28 45-140 45-237 0-75-17-116-38-116-46 0-84 169-84 305 0 147 72 188 134 188 86 0 156-70 176-229zm0 0"/></svg>