<svg width="5520" height="1100.002" xmlns="http://www.w3.org/2000/svg"><path d="M2.42 983.232l235.77-43.09-52.19-41.39 110.05-628.33-235.76 43.44 52.19 41.05zm230.97-749.72c73.09 0 125.02-37.47 125.02-89.83-.65-45.04-41.01-81.14-104.15-81.14-75.72 0-122.08 43.07-122.74 90.83-.66 42.73 38.07 80.14 101.87 80.14zm67.32 746.78l196.5-35.73v-120.24c64.95-314.81 135.66-424.46 177.48-424.46 37.97 0 37.79 92.62 17.51 208.72l-64.65 371.71 196.5-35.73v-127.45c64.3-309.89 134.35-418.57 176.17-418.57 37.97 0 38.48 91.97 18.19 208.72l-66.62 379.26 231.69-43.44-41.53-81.16 61.58-346.15c30.89-172.74-4.31-246.66-75.15-246.66-44.7 0-89.4 21.84-128.18 60.62-50.74 50.74-97.67 143.36-134.97 270.9l22.95-128.26c24.32-139.21-14.49-201.95-85.33-201.95-42.07 0-87.43 22.5-128.18 63.25-50.74 50.74-100.96 142.05-137.6 268.28l64.85-331.53-239.26 44.76 42.19 65.37zm927 102.6l129.06-727.98-48.77-41.05 233.03-43.44-66.04 382.59c53.67-186.44 112.49-284.38 158.62-330.52 36.16-36.15 72.97-51.41 107.12-51.41 69.38 0 110.22 61.81 110.22 171.5 0 126.43-54.16 293.7-157.87 402.02-80.54 84.21-196.3 125.82-313.63 125.82-21.92 0-43.84-1.65-66.1-4.97l102.39-52.66-4.66 152.16zm391.72-681.72c-38.53 0-120.8 161.53-193.77 501.24 20.29 15.81 48.63 29.64 77.31 29.64 24.73 0 41.89-9.82 59.13-27.06 49.17-49.16 97.44-254.71 97.44-386.86 0-70.98-13.37-116.96-40.11-116.96zm251.97 326.32c0 162.7 82.44 256.09 211.75 256.09 179.66 0 338.65-190.62 338.65-453.78 0-175.2-84.42-259.38-209.78-259.38-179.66 0-340.62 192.59-340.62 457.07zm173.37 74.78c0-216.65 80.53-519.22 153.17-519.22 30.15 0 50.49 42.86 50.49 170.66 0 216.64-81.85 517.24-154.49 517.24-29.49 0-49.17-48.12-49.17-168.68zm397.6 184.59l111.37-631.95-49.45-41.05 233.03-43.44-61.27 302.62c73.27-266.96 167.28-302.62 223.17-302.62 6.51 0 19.67 7 26.52 11.8l-115.38 405.41h-7.26c2.07-187.48-17.38-246.21-42.09-246.21-24.51 0-68.96 57.92-124.78 379.48v130.24zm729.86-699.86h121.35v7.26l-135.5 49.84-53.35 304.06c-21.32 121.89-18.44 204.27 15.76 204.27 23.74 0 50.85-24.25 86.25-134.29h7.26c-33.66 182.05-116.83 265.44-201.97 265.44-76.19 0-123.69-67.76-92.74-248.38l44.82-258.47c18-102.34 15.34-142.13-3.55-185.07l217.84-190.81zm663.51 80.34l55.08-63.9c-63.2-23.44-115.87-33.02-169.52-33.02-118.51 0-231.7 49.81-316.92 138.98-103.71 108.32-157.87 275.59-157.87 402.02 0 109.69 40.83 171.5 110.22 171.5 34.15 0 70.96-15.26 107.11-51.41 46.14-46.14 104.96-144.08 158.63-330.52l-74.3 382.24 240.26-44.41-48.77-41.39zm-357.71 485.49c-26.74 0-39.14-45.98-39.14-116.96 0-136.09 50.59-345.59 101.07-396.07 17.24-17.24 33.09-27.06 57.81-27.06 28.69 0 55.71 13.84 74.69 32.93-79.55 362.07-155.24 507.16-194.43 507.16zm378.34 127.46l109.4-625.38-48.77-41.05 233.03-43.44-57.62 330.87c37.18-127.17 93.02-217.82 144.79-269.59 40.1-40.1 83.91-61.28 124.9-61.28 70.83 0 108.01 73.92 78.44 246.67l-65.53 378.37 48.76 41.05-233.03 43.44 65.96-371.37c20.95-116.76 15.21-208.72-22.77-208.72-42.87 0-129.55 133.04-181.38 419.8l.66 124.9zm645.05-250.02c.66 167.13 93.2 253.31 190.37 253.31 120.24 0 224.81-125.75 266.53-287.71h-7.27c-46.58 107.67-106.57 133.52-150.09 133.52-80.08 0-135.11-88.94-135.11-238.9 0-164.22 61.99-278.82 108.48-278.82 51.71 0 88.95 161.11 76.62 408.76h7.26l175.07-430.34c-26.26-8.45-73.21-19.67-118.95-19.67-256.71 0-412.91 225.5-412.91 459.85zm981.47-145.38c-11.98 251.84-130.79 398.69-281.71 398.69-103.22 0-195.1-79.88-195.1-248.53 0-139.9 53.08-280.62 142.66-370.2 60.62-60.62 131.16-94.43 210.93-94.43 97.17 0 157.8 48.24 157.8 133.61 0 66.15-35.76 122.31-67.03 153.58-79.7 79.71-192.66 117.2-304.06 136.2l16.44-87.14c24.71 25.04 46.11 46.11 72.08 46.11 26.44 0 45.87-6.08 61.14-21.35 31.43-31.42 47.4-126.31 47.4-213.03 0-76.37-20.42-122.85-49.64-122.85-56.27 0-118.92 178.59-118.92 339.58 0 145.29 60.35 204.78 122.01 204.78 72.31 0 146.41-64.18 178.74-255.02zm0 0"/></svg>