<svg width="5409.13" height="1100.002" xmlns="http://www.w3.org/2000/svg"><path d="M2.42 983.232l235.77-43.09-52.19-41.39 110.05-628.33-235.76 43.44 52.19 41.05zm230.97-749.72c73.09 0 125.02-37.47 125.02-89.83-.65-45.04-41.01-81.14-104.15-81.14-75.72 0-122.08 43.07-122.74 90.83-.66 42.73 38.07 80.14 101.87 80.14zm65.98 746.78l109.4-625.38-48.77-41.05 233.03-43.44-57.62 330.87c37.18-127.17 93.02-217.82 144.79-269.59 40.1-40.1 83.91-61.28 124.9-61.28 70.83 0 108.01 73.92 78.44 246.67l-65.53 378.37 48.76 41.05-233.03 43.44 65.96-371.37c20.95-116.76 15.21-208.72-22.77-208.72-42.87 0-129.55 133.04-181.38 419.8l.66 124.9zm912.68-641.51l90.4-44.52v-7.26h-80.77c16-102.52 61-179.49 138.11-230l-2.74-6.58c-180.07 21.57-265.5 104.81-305.05 236.58h-44.36v7.26c20.87 10.32 34.76 35.55 24.44 94.1l-122.37 695.22 177.26-31.36zm514.84 246.11c-11.98 251.84-130.79 398.69-281.71 398.69-103.22 0-195.1-79.88-195.1-248.53 0-139.9 53.08-280.62 142.66-370.2 60.62-60.62 131.16-94.43 210.93-94.43 97.17 0 157.8 48.24 157.8 133.61 0 66.15-35.76 122.31-67.03 153.58-79.7 79.71-192.66 117.2-304.06 136.2l16.44-87.14c24.71 25.04 46.11 46.11 72.08 46.11 26.44 0 45.87-6.08 61.14-21.35 31.43-31.42 47.4-126.31 47.4-213.03 0-76.37-20.42-122.85-49.64-122.85-56.27 0-118.92 178.59-118.92 339.58 0 145.29 60.35 204.78 122.01 204.78 72.31 0 146.41-64.18 178.74-255.02zm54.53 145.38c.66 167.13 93.2 253.31 190.37 253.31 120.24 0 224.81-125.75 266.53-287.71h-7.27c-46.58 107.67-106.57 133.52-150.09 133.52-80.08 0-135.11-88.94-135.11-238.9 0-164.22 61.99-278.82 108.48-278.82 51.71 0 88.95 161.11 76.62 408.76h7.26l175.07-430.34c-26.26-8.45-73.21-19.67-118.95-19.67-256.71 0-412.91 225.5-412.91 459.85zm782.61-458.85L2331 314.862l48.77 41.05-66.85 381c-31.55 172.75 8.26 246.67 79.1 246.67 40.09 0 83.48-21.84 122.26-60.62 51.77-51.77 108.81-143.03 146.11-270.91l-57.96 331.53 233.37-43.44-48.77-41.05 111.37-628.67-196.18 35.73v117.93c-63.67 315.81-138.17 430.06-182.04 430.06-37.97 0-43.71-91.96-22.77-208.72zm335.34 708.87l109.4-625.38-48.77-41.05 233.03-43.44-57.62 330.87c37.18-127.17 93.02-217.82 144.79-269.59 40.1-40.1 83.91-61.28 124.9-61.28 70.83 0 108.01 73.92 78.44 246.67l-65.53 378.37 48.76 41.05-233.03 43.44 65.96-371.37c20.95-116.76 15.21-208.72-22.77-208.72-42.87 0-129.55 133.04-181.38 419.8l.66 124.9zm859.97-127.46c-26.74 0-38.79-45.98-38.79-116.96 0-132.15 48.9-335.59 98.06-384.75 17.25-17.25 33.1-27.07 57.82-27.07 28.68 0 55.05 19.1 73.34 38.2-68.34 323.27-151.89 490.58-190.43 490.58zm332.42-555.91c-31.81-6.95-62.31-9.92-92.46-9.92-117.85 0-233.67 41.26-314.29 125.83-103.71 108.31-157.19 272.16-157.19 398.59 0 109.69 40.84 171.5 110.22 171.5 34.16 0 70.97-15.26 107.12-51.41 46.13-46.14 104.95-143.74 158.62-330.18l-72.93 381.9 239.92-44.75-48.76-41.05 150.71-847.01-192.21 37.05c0 16.43-1.03 112.62-4.45 130.08l-20.66 114.21zm42.66 686.31l235.77-43.09-52.19-41.39 110.05-628.33-235.76 43.44 52.19 41.05zm230.97-749.72c73.09 0 125.02-37.47 125.02-89.83-.65-45.04-41.01-81.14-104.15-81.14-75.72 0-122.08 43.07-122.74 90.83-.66 42.73 38.07 80.14 101.87 80.14zm365.84 53.49h121.35v7.26l-135.5 49.84-53.35 304.06c-21.32 121.89-18.44 204.27 15.76 204.27 23.74 0 50.85-24.25 86.25-134.29h7.26c-33.66 182.05-116.83 265.44-201.97 265.44-76.19 0-123.69-67.76-92.74-248.38l44.82-258.47c18-102.34 15.34-142.13-3.55-185.07l217.84-190.81zm677.9-16.58l-190.55 35.73v116.61c-27.33 182.79-69.71 298.45-113.59 342.32-13.76 13.77-27.97 20.79-41.58 20.79-37.7 0-51.52-51.83-51.52-120.13 0-112.91 49.52-250.38 103.88-395.32l-231.53 98.16 94.46 98.88c-65.46 74.18-154.85 192.14-154.85 311.66 0 91.9 50.23 136.59 112.12 136.59 42.5 0 89.94-20.92 130.14-61.13 46.51-46.5 83.96-116.94 112.04-206.59l-39.37 226.3c-24.86 141.37-82.99 167.06-125.77 167.06-47.56 0-122.7-55.36-181.91-169.5h-7.26l-73.77 193.44c41.68 12.62 78.92 18.29 123.68 18.29 116.25 0 216.65-37.9 311.29-132.53 80.62-80.62 132.84-154.84 161.7-320.95zm0 0"/></svg>