<svg width="6235" height="1100.002" xmlns="http://www.w3.org/2000/svg"><path d="M60 915.002v-501c0-62-12-87-45-114l287-30-10 214v380c0 59 11 79 45 106H15zm110-660c-93 0-146-44-146-103s51-107 141-107c91 0 150 48 150 107s-57 103-145 103zm243 660l-45 55h322c-34-37-45-57-45-106v-390c17-9 35-14 49-14 60 0 77 68 77 166v289l-35 55h312c-34-37-45-57-45-106v-392c0-142-55-202-140-202-92 0-168 92-218 190l10-190-287 40c33 21 45 46 45 111zm944-559v261c0 97 23 154 94 154 16 0 34-3 55-11-55 125-145 230-237 230-87 0-144-61-144-203v-347c0-90-12-113-45-150h46l216-201 15 201h154v10zm180 303c0 194 125 331 287 331s262-126 296-287l-8-2c-51 63-103 97-171 97-120 0-194-112-194-346 0-114 19-156 47-156 35 0 88 143 88 293l33-37-159 57v8l358 74c8-48 11-78 11-116 0-180-105-307-261-307-177 0-327 170-327 391zm673 256l-45 55h322c-34-27-45-47-45-106v-600l12-214-289 30c33 27 45 52 45 114zm352 0l-45 55h322c-34-27-45-47-45-106v-600l12-214-289 30c33 27 45 52 45 114zm317-256c0 194 125 331 287 331s262-126 296-287l-8-2c-51 63-103 97-171 97-120 0-194-112-194-346 0-114 19-156 47-156 35 0 88 143 88 293l33-37-159 57v8l358 74c8-48 11-78 11-116 0-180-105-307-261-307-177 0-327 170-327 391zm633-12c0-215 145-372 380-372 76 0 138 16 187 34l-130 445h-10c-87-318-146-439-190-439-22 0-34 58-34 135 0 196 86 334 233 334 28 0 73-5 130-30-40 115-116 235-283 235-151 0-283-132-283-342zm873-291v261c0 97 23 154 94 154 16 0 34-3 55-11-55 125-145 230-237 230-87 0-144-61-144-203v-347c0-90-12-113-45-150h46l216-201 15 201h154v10zm442 124v129c0 98 7 167 74 167 14 0 33-3 52-10v-345c0-65-12-90-45-111l287-40-10 210v374c0 59 11 79 45 106l-290 30 13-210c-50 108-126 205-218 205-85 0-140-60-140-202v-362c0-65-12-90-45-111l287-40zm770 214v133c-17 5-23 8-36 8-47 0-70-34-70-104 0-40 8-65 23-80 6-6 13-9 22-9 16 0 35 19 61 52zm231-222c0-142-53-202-140-202-100 0-181 112-260 286l87-266h-248l115 391h10c45-139 87-198 133-198 39 0 72 35 72 100v20c-175 63-233 96-272 135-35 35-55 76-55 123 0 75 56 129 135 129 75 0 138-58 192-150l-14 150 290-30c-34-27-45-47-45-106zm115 443l-45 55h322c-34-27-45-47-45-106v-600l12-214-289 30c33 27 45 52 45 114zm0 0"/></svg>