<svg width="4434.49" height="1100.002" xmlns="http://www.w3.org/2000/svg"><path d="M6.72 974.512l161.49-31.93-61.21-28.08 112.63-643.78-161.49 32.7 61.21 27.31zm182.02-768.18c45.61 0 78.65-28.03 78.65-65.79-.23-31.3-25.99-56.24-64.23-56.24-46.52 0-78.28 30.62-78.51 66.79-.23 29.84 25.62 55.24 64.09 55.24zm40.35 767.81l112.4-643.41-53.49-27.31 155.32-32.7-70.93 403.42c51.43-185.17 125.65-304.12 182.14-360.61 28.94-28.93 59.16-42.81 88.4-42.81 63.11 0 92.99 70.05 67.71 214.89l-74.98 427.75 53.49 27.3-155.31 32.71 79.69-452.09c18.37-105.16 9.2-179.52-27.49-179.52-52.75 0-171.63 150.64-247.07 521.13l.23 88.4zm738.42-691.14h121.77v3.83l-127.33 42.1-70.1 401.96c-20.46 116.74-7.71 169.49 20.49 169.49 27.17 0 59.43-35.84 97.83-179.8h3.83c-33.23 184.63-92.78 254.7-153.02 254.7-53.87 0-93.21-56.16-64.84-218.75l52.12-296.68c18-102.77 15.77-132.25 2.03-172.62l131.11-181.8zm498.23 324.08c-27.01 260.43-136.81 368.2-236.2 368.2-82.18 0-152.59-89.75-152.59-241.65 0-151.06 56.94-310.25 142.22-395.53 42.59-42.59 91.23-67.38 144.38-67.38 73.56 0 132.47 43.51 132.47 130.6 0 57.56-24.16 121.45-68.31 165.6-65.54 65.54-160.89 94.87-275.3 113.87l5.71-62.24c26.86 11.31 51.26 19.93 75.95 19.93 47.04 0 87.08-9.95 115.23-38.1 35.72-35.72 50.41-109.13 50.41-182.98 0-78.08-24.72-131.43-64.24-131.43-69.15 0-162.72 190.61-162.72 382.94 0 143.14 45.76 225.82 106.99 225.82 55.13 0 134.39-56.88 182.17-287.65zm302.75-556.36l-111.02 25.53-8.49 144.27-133.26 753.62 153.77-32.71-53.49-27.3zm227 0l-111.02 25.53-8.49 144.27-133.26 753.62 153.77-32.71-53.49-27.3zm376.25 556.36c-27.01 260.43-136.81 368.2-236.2 368.2-82.18 0-152.59-89.75-152.59-241.65 0-151.06 56.94-310.25 142.22-395.53 42.59-42.59 91.23-67.38 144.38-67.38 73.56 0 132.47 43.51 132.47 130.6 0 57.56-24.16 121.45-68.31 165.6-65.54 65.54-160.89 94.87-275.3 113.87l5.71-62.24c26.86 11.31 51.26 19.93 75.95 19.93 47.04 0 87.08-9.95 115.23-38.1 35.72-35.72 50.41-109.13 50.41-182.98 0-78.08-24.72-131.43-64.24-131.43-69.15 0-162.72 190.61-162.72 382.94 0 143.14 45.76 225.82 106.99 225.82 55.13 0 134.39-56.88 182.17-287.65zm63.98 132.07c.23 157.25 70.87 236.13 144.42 236.13 84.18 0 184.46-97.83 228.32-321.19h-3.83c-58.61 202.55-133.62 236.99-170.27 236.99-52.61 0-108.93-70.05-108.93-233.74 0-222.19 93.34-365.12 163.02-365.12 53.85 0 86.37 118.6 58.58 365.82h3.83l114.96-351.77c-22.83-14.03-67.2-35.55-116.37-35.55-179.86 0-313.73 217.33-313.73 468.43zm623.79-456.15h121.77v3.83l-127.33 42.1-70.1 401.96c-20.46 116.74-7.71 169.49 20.49 169.49 27.17 0 59.43-35.84 97.83-179.8h3.83c-33.23 184.63-92.78 254.7-153.02 254.7-53.87 0-93.21-56.16-64.84-218.75l52.12-296.68c18-102.77 15.77-132.25 2.03-172.62l131.11-181.8zm305.81-11.28l-155.32 32.7 53.49 27.31-75.44 428.66c-25.96 144.84 4.83 214.89 67.94 214.89 28.93 0 59.01-14.11 87.49-42.58 56.49-56.49 131.13-175.66 182.6-361.07l-71.7 403.65 156.09-32.7-53.49-27.31 113.09-644.55-109.89 22.85v82.71c-79.55 385.8-193.55 527.96-247.3 527.96-36.68 0-45.86-74.36-27.49-179.52zm787.52 92.05l42.62-75.06c-40.87-12.71-78.09-17.99-114.99-17.99-95.33 0-169.87 40.79-234.06 106.35-105.86 107.45-167.75 287.6-167.75 434.65 0 110.54 33.11 163.33 89.19 163.33 25.56 0 53.36-11.82 80.92-39.39 52.58-52.57 118.7-179.28 188.25-433.99l-88.47 472.84 157.83-32.39-53.49-28.08zm-328.52 540.01c-30.18 0-45.58-44.68-45.58-130.69 0-156.27 62.61-357.61 119.96-414.96 28.83-28.84 53.27-45.96 96.45-45.96 29.55 0 57.86 6.11 75.55 14.05-105.31 428.62-198.18 577.56-246.38 577.56zm610.17-853.06l-111.02 25.53-8.49 144.27-133.26 753.62 153.77-32.71-53.49-27.3zm0 0"/></svg>