<svg width="484" height="1100.002" xmlns="http://www.w3.org/2000/svg"><path d="M72.71 934.142v-570.89c0-36.59-4.74-50.7-58.62-65.9l126.36-27.27-2.74 139.57v469.86c0 53.55 14.63 66.29 58.61 81.49H14.09zm24.68-738.06c-32.19 0-56.15-24.03-56.15-51.26 0-29.05 23.78-53.46 55.69-53.46 32 0 56.52 24.41 56.52 53.46 0 27.23-24.33 51.26-56.06 51.26zm247.22 118.25v396.23c0 149.64 23.91 200.29 54.07 200.29 23.26 0 41.26-47.48 57.72-186.17-5.08 179.46-44.25 247.24-87.24 247.24-53.42 0-89.55-51.92-89.55-252.01v-353.35c0-56.42-14.72-69.44-58.61-85.56h57.8l52.63-202.82 13.18 202.82h120.42v2.74zm0 0"/></svg>