<svg width="2872.09" height="1100.002" xmlns="http://www.w3.org/2000/svg"><path d="M312.11 270.872l-194.63 37.33 57.33 33.21-94.22 535.52c-11.41 66.83-42.93 141.35-80.59 205.14h10c100.24-67.5 181.92-132.11 206-267.09zm-53.5-52.57c57.44 0 98.61-32.08 98.61-76.13-.41-37.21-32.46-66.95-81.41-66.95-59.09 0-97.13 35.98-97.55 77.13-.41 35.39 30.98 65.95 80.35 65.95zm301.24 53.57l-188.76 37.33 51.46 33.21-71.74 408.16c-28.37 156.84 6.3 228.56 72.74 228.56 33.74 0 69.54-17.43 102.45-50.35 54.46-54.45 121.52-161.61 166.89-322.26l-65.78 372.61 189.35-37.33-51.46-33.21 112.35-637.72-147.02 28.39v97.87c-72.72 355.67-169.72 485.83-219.22 485.83-37.24 0-44.93-81.94-25.45-192.09zm553.85 436.76c59.27 50.54 79.24 88.87 79.24 136.41 0 65.37-46.63 102.57-95.18 102.57-63.89 0-132.38-65.48-166.3-222.13h-5.3l-71.22 236.13c35.48 9.35 70.08 17.52 132.5 17.52 197.01 0 283.89-103.98 283.89-214.72 0-62.56-29.78-114.19-93.11-167.19l-81.3-62.72c-48.96-40.2-77.76-79.23-77.76-132.65 0-65.37 39.58-99.46 88.13-99.46 63.85 0 129.89 70.15 159.89 222.54h5.3l75.35-236.54c-35.48-9.35-66.57-17.52-128.98-17.52-197.01 0-276.85 101.39-276.85 210.02 0 72.33 34.72 116.37 95.29 167.44zm471.93-423.63h121.59v5.3l-130.85 45.44-62.89 359.83c-20.82 118.95-12.32 184.45 18.46 184.45 25.69 0 55.74-30.85 92.85-160.22h5.3c-33.41 183.53-103.13 259.33-174.09 259.33-63.48 0-106.32-61.15-76.84-231.5l48.97-280.24c18-102.59 15.59-136.5-.37-177.98l168.44-185.67zm87.33 693.54l193.46-36.74-57.33-33.8 111.52-637.13-193.45 37.33 57.32 33.21zm203.09-760.24c57.43 0 98.61-32.08 98.61-76.13-.42-37.21-32.46-66.95-81.42-66.95-59.08 0-97.13 35.98-97.54 77.13-.41 35.39 30.98 65.95 80.35 65.95zm68.91 517.31c.41 161.5 80.48 243.52 164.2 243.52 99.69 0 201.82-109.85 244.76-306.78h-5.31c-53.43 161.72-121.98 192.45-161.59 192.45-64.43 0-120.19-78.17-120.19-235.95 0-197.24 79.85-327.98 139.54-327.98 52.94 0 87.48 136.89 66.35 384.3h5.3l140.83-385.58c-24.3-11.63-69.78-28.72-117.48-28.72-212.93 0-356.41 220.85-356.41 464.74zm887.09-137.81c-20.55 256.74-134.22 381.33-255.79 381.33-91.24 0-170.89-85.5-170.89-244.61 0-146.26 55.29-297.5 142.42-384.63 50.34-50.35 108.41-79.02 173.02-79.02 83.71 0 143.37 45.54 143.37 131.89 0 61.26-29.16 121.83-67.76 160.44-71.63 71.63-174.57 104.47-287.68 123.47l10.33-72.95c25.93 17.21 49.04 31.19 74.28 31.19 38.17 0 69.35-8.28 91.96-30.89 33.87-33.87 49.11-116.52 49.11-195.91 0-77.35-22.87-127.74-57.96-127.74-63.61 0-143.87 185.43-143.87 364.28 0 144.07 52.04 216.76 113.46 216.76 62.52 0 139.56-60.02 180.69-273.61zm0 0"/></svg>