<svg width="2469.03" height="1100.002" xmlns="http://www.w3.org/2000/svg"><path d="M255.35 270.082l-139.8 29.31 64.06 22.95-98.7 566.95c-11.1 66.18-44.54 127.88-80.91 187.17h10c69.77-74.87 129.96-149.1 147-245.28zm-31.37-73.09c36.91 0 63.97-25.03 63.97-58.17-.09-26.96-21.23-48.36-51.59-48.36-37.28 0-64.42 26.68-64.51 59.17-.1 25.77 21.67 47.36 52.13 47.36zm228.77 74.09l-130.72 29.31 54.98 22.95-78.15 443.75c-24.2 136 3.74 204.83 64.4 204.83 25.41 0 51.27-11.66 76.49-36.88 57.98-57.98 138.19-185.97 194.14-389.59l-76.04 426.47 131.63-29.31-54.98-22.95 113.63-649.58-82.57 18.77v71.57c-84.58 407.94-211.08 558.94-267.96 558.94-36.28 0-46.54-68.79-28.98-170.28zm499.26 393.47c52.85 50.9 78.28 88.19 78.28 150.84 0 90.7-65.55 137.84-125.32 137.84-70.96 0-111.9-52.69-119.49-218.93h-2.74l-46.2 218.18c33.55 10.63 63.03 19.44 125.12 19.44 144.99 0 222.65-94.68 222.65-197.08 0-59.02-25.3-109.38-80.61-162.38l-49.24-45.09c-39.67-37.71-78.72-74.39-78.72-146.11 0-90.71 54.66-132.49 114.43-132.49 70.95 0 106.68 53.73 113.39 219.02h2.74l47.13-218.27c-33.55-10.63-57.58-19.44-119.68-19.44-144.99 0-211.75 91.77-211.75 189.82 0 75.18 31.83 112.2 83.42 161.66zm392.04-383.55h121.9v2.74l-124.75 39.66-75.4 432.94c-20.18 115.11-4.31 158.48 21.99 158.48 28.26 0 62.15-39.5 101.5-194.21h2.74c-33.09 185.45-85.17 251.31-137.53 251.31-46.81 0-83.56-52.49-56.01-209.37l54.43-308.78c18-102.91 15.91-129.12 3.8-168.68l103.66-178.94zm100.06 690.02l137.98-28.41-64.06-23.86 113.45-648.67-137.99 29.31 64.06 22.95zm166.53-774.03c36.91 0 63.98-25.03 63.98-58.17-.1-26.96-21.24-48.36-51.6-48.36-37.28 0-64.42 26.68-64.51 59.17-.09 25.77 21.68 47.36 52.13 47.36zm51.47 544.24c.09 154.12 63.8 230.69 129.88 230.69 72.76 0 171.69-89 216.22-331.79h-2.73c-62.42 232.58-142.18 269.73-176.66 269.73-43.91 0-100.64-64.06-100.64-232.1 0-240.53 103.26-392.43 180.27-392.43 54.54 0 85.55 105.14 52.88 352.24h2.74l95.93-326.91c-21.74-15.8-65.29-40.58-115.55-40.58-155.54 0-282.34 214.75-282.34 471.15zm763.03-127.87c-31.77 263.16-138.71 358.56-221.79 358.56-75.53 0-139.15-92.87-139.15-239.47 0-154.6 58.17-319.63 142.09-403.55 36.88-36.88 78.59-58.82 123.32-58.82 66.08 0 124.45 42.01 124.45 129.64 0 54.85-20.49 121.19-68.72 169.42-61.05 61.04-150.84 87.8-266.19 106.8l2.31-54.36c27.54 6.96 52.89 11.64 77.17 11.64 53.56 0 100.13-11.17 132.36-43.4 37.07-37.08 51.35-103.7 51.35-173.47 0-78.63-26.08-134.15-68.86-134.15-73.23 0-176.57 194.41-176.57 396.67 0 142.46 41.14 232.47 102.23 232.47 49.69 0 130.59-54.57 183.26-297.98zm0 0"/></svg>