<svg width="2846" height="1100.002" xmlns="http://www.w3.org/2000/svg"><path d="M192.22 436.742v356.91c0 91.85-47.18 188.96-171.29 285.48h-5.3c37.11-90.56 52.59-179.28 52.59-261.28v-435.85c0-45.57-7.31-63.52-53.81-82.89l183.94-28.24zm-66.59-219.02c-53.67 0-87.89-31.09-87.89-69.55 0-39.63 33.39-72.37 85.83-72.37 52.84 0 89.54 32.74 89.54 72.37 0 38.46-35.87 69.55-87.48 69.55zm319.17 219.71v254.61c0 115.03 28.13 169.94 82.22 169.94 28.68 0 58.24-20.02 99.55-92.76v-384.33c0-46.8-7.31-64.76-53.81-81.65l183.11-32.37-5.3 166.56v433.87c0 44.33 6.89 60.22 53.8 79.59l-184.35 28.24 6.55-194.74c-45.9 109.76-114.27 192.68-191 192.68-66.22 0-114.77-52.37-114.77-186.16v-406.02c0-46.8-7.3-64.76-53.8-81.65l183.11-32.37zm451 245.53l-48.06 254.21c31.61 17.13 96.35 41.96 180.63 41.96 138.63 0 215.2-84.83 215.78-194.02 0-68.2-29.69-115.65-67.32-153.28-54-54-154.68-96.59-203.2-145.53-27.2-27.19-53.89-59-53.89-99.95 0-51.7 40.37-81.89 80.69-81.89 63.83 0 138.09 66.02 186.92 262.17h5.3l51.52-254.39c-28.08-15.37-90.82-41.37-168.28-41.37-130.43 0-215.56 81.74-215.56 193.2 0 62.54 27.76 108.02 65.1 145.36 44.5 44.5 160.14 102.59 203.77 146.22 31.32 31.33 53.89 64.94 53.89 108.42 0 53.34-37.79 82.3-80.74 82.3-64.37 0-154.98-59.83-201.24-263.41zm577-353.09v348.46c0 131.04 23.59 183.93 68.18 183.93 20.69 0 38.69-31.76 56.76-124.28-22.72 160.22-79.85 241.15-140.15 241.15-65.29 0-108.79-55.13-108.79-234.7v-351.1c0-68.29-13.76-84.83-53.8-108.33h53.63l110.35-202.17 13.82 202.17h132.29v5.3zm212.42 598.33v-546.2c0-45.57-7.31-63.52-53.81-82.89l183.11-28.24-5.3 165.87v438.11c0 55.48 13.35 70.78 53.8 90.15h-231.61zm54.82-710.48c-53.67 0-87.89-31.09-87.89-69.55 0-39.63 33.39-72.37 85.83-72.37 52.85 0 89.54 32.74 89.54 72.37 0 38.46-35.87 69.55-87.48 69.55zm165.7 431.32c0-227.32 110.96-376.11 270.83-376.11 56.63 0 106.3 18.35 140.63 34.59l-76 371.05h-5.31c-30.06-259.31-83.78-371.5-141.28-371.5-41.37 0-81.54 73.26-81.54 214.23-1.18 224.18 77.19 345.16 168.43 345.16 36.22 0 100-24.37 135.28-183.79-16.52 197.76-87.24 296.05-202 296.05-116.95 0-209.04-120.26-209.04-329.68zm476.06 4.96c0 203.98 91.55 325.13 208.94 325.13 112.69 0 196.26-106.63 210.3-317.52l-4.47-.83c-32.81 175.11-91.85 211.46-143.42 211.46-91.82 0-161.13-118.46-161.13-362.44 0-153.32 43.07-204.71 83.39-204.71 60.83 0 109.72 127.15 109.72 283.61l26.54-24.09-232.95 33.52v9.17l328.06 38.2c4.48-29.22 6.31-49.24 6.31-74.33 0-192.91-78.59-301.13-187.63-301.13-129.46 0-243.66 155.33-243.66 383.96zm0 0"/></svg>