<svg width="3939.06" height="1100.002" xmlns="http://www.w3.org/2000/svg"><path d="M334.34 50.422l-105.53 558.02c39.27-129.2 103.13-222.68 153.42-272.97 43.23-43.24 92.1-65.05 137.8-65.05 68.39 0 101.56 38.9 101.56 94.81 0 53.63-22.39 102.66-61.1 141.37-42.63 42.63-106.72 72.71-187.28 83.64l33.74 113.09c30.47 84.92 55.15 114.22 77.18 114.22 22.31 0 43.13-23.69 43.13-131.38 0-43.93-3.65-72.06-8.94-119.98h7.26c24.44 79.36 33.75 141.85 33.75 209.76 0 147.23-56.3 207.63-119.08 207.63-55.5 0-104.65-48.09-140.46-171.81l-36.08-136.56c45.85-35.56 83.24-76.76 95.98-91.02 31.84-35.81 79.67-87.87 79.67-137.32 0-33-12.34-55.56-37.74-55.56-76.57 0-173.84 211.66-206.47 435.75l.66 117.5L0 980.292l129.4-726.57 2.74-162.91zm281.32 929.87l109.4-625.38-48.77-41.05 233.03-43.44-57.62 330.87c37.18-127.17 93.02-217.82 144.79-269.59 40.1-40.1 83.91-61.28 124.9-61.28 70.83 0 108.01 73.92 78.44 246.67l-65.53 378.37 48.76 41.05-233.03 43.44 65.96-371.37c20.95-116.76 15.21-208.72-22.77-208.72-42.87 0-129.55 133.04-181.38 419.8l.66 124.9zm649.03-252.8c0 162.7 82.44 256.09 211.75 256.09 179.66 0 338.65-190.62 338.65-453.78 0-175.2-84.42-259.38-209.78-259.38-179.66 0-340.62 192.59-340.62 457.07zm173.37 74.78c0-216.65 80.53-519.22 153.17-519.22 30.15 0 50.49 42.86 50.49 170.66 0 216.64-81.85 517.24-154.49 517.24-29.49 0-49.17-48.12-49.17-168.68zm1088.93-500.75l169.82-29.73c2.25 258.42-52.19 506.37-166.89 621.07-45.54 45.54-109.16 90.72-182.99 90.72-83.73 0-159.21-62.22-159.21-223.23 0-45.9 6.4-91.67 15.42-143.8l113.88-.34c-16.77 100.25-54.87 209.18-124.31 278.62-50.3 50.31-110.52 88.75-189.93 88.75-108.79 0-153.11-76.58-153.11-171 0-129.55 68.56-252.87 160.03-344.09l-96.48-101.22 251.25-96.85c-71.46 150.2-136.57 343.21-136.57 520.18 0 74.77 14.56 155.21 48.18 155.21 32.16 0 68.17-82.86 90.7-207.66l78.81-435.97 175.29-29.73-64.34 360.48c-7.97 46.21-12.66 90.12-12.66 130.44 0 104.18 26.61 175.86 76.37 175.86 17.12 0 35.05-19.86 47.38-44.16zm759.04 65.82l55.08-63.9c-63.2-23.44-115.87-33.02-169.52-33.02-118.51 0-231.7 49.81-316.92 138.98-103.71 108.32-157.87 275.59-157.87 402.02 0 109.69 40.83 171.5 110.22 171.5 34.15 0 70.96-15.26 107.11-51.41 46.14-46.14 104.96-144.08 158.63-330.52l-74.3 382.24 240.26-44.41-48.77-41.39zm-357.71 485.49c-26.74 0-39.14-45.98-39.14-116.96 0-136.09 50.59-345.59 101.07-396.07 17.24-17.24 33.09-27.06 57.81-27.06 28.69 0 55.71 13.84 74.69 32.93-79.55 362.07-155.24 507.16-194.43 507.16zm711.74-802.41l-199.47 39.7-3.77 163.6-128.11 726.57 232.35-43.44-48.77-41.05zm299 0l-199.47 39.7-3.77 163.6-128.11 726.57 232.35-43.44-48.77-41.05zm0 0"/></svg>