<svg width="2196" height="1100.002" xmlns="http://www.w3.org/2000/svg"><path d="M330 170.002l50-60H20c34 24 50 46 50 111v689l-47 60h600l-117-483h-10c-78 349-121 468-158 468h-8zm650 524v133c-17 5-23 8-36 8-47 0-70-34-70-104 0-40 8-65 23-80 6-6 13-9 22-9 16 0 35 19 61 52zm231-222c0-142-53-202-140-202-100 0-181 112-260 286l87-266H650l115 391h10c45-139 87-198 133-198 39 0 72 35 72 100v20c-175 63-233 96-272 135-35 35-55 76-55 123 0 75 56 129 135 129 75 0 138-58 192-150l-14 150 290-30c-34-27-45-47-45-106zm58-182l161 553 26 127h182c12-59 26-128 47-205l47-169 66 247 16 127h197c9-59 19-110 38-177l144-503h-196c39 137 84 350 29 520l-127-451 25-69h-276c46 224 51 354 6 520l-111-452 20-68zm0 0"/></svg>