<svg width="2289.025" height="1100.002" xmlns="http://www.w3.org/2000/svg"><path d="M410 170.002l-141 801c22.85-9 50.89-31.89 82-63 50.15-50.15 84-151 84-277 0-68-7-157-26-240h10c161 136 184 293 184 374 0 82-22 115-57 151-44 43-122.75 69-288 69-103 0-178-5-248-15l132-749c10-55 0-87-30-111h359zm892 200l65-55c-81-32-146-45-213-45-137 0-281 57-383 165-102 109-150 266-150 376 0 109 47 178 127 178 41 0 85-18 128-61 41-41 94-116 135-248l-63 310 306-54-45-52zm-381 442c-24 0-34-47-34-106 0-120 41-336 86-381 8-8 17-12 27-12 28 0 54 20 74 48-59 309-121 451-153 451zm1138-502l227-40c18 230-45 480-171 606-63 63-141 114-234 114-94 0-189-54-189-240 0-37 4-79 12-126h169c-13 78-60 177-138 255-64 64-141 111-243 111-129 0-174-80-174-171 0-109 60-220 159-303l-91-118 292-128c-54 130-115 348-115 526 0 71 6 160 29 160 26 0 49-88 64-170l86-475 240-40-64 355c-9 51-13 98-13 139 0 110 29 181 75 181h8zm0 0"/></svg>