<svg width="5245" height="1100.002" xmlns="http://www.w3.org/2000/svg"><path d="M64.79 922.612l-50.13 44.39h269.27c-37.77-22.55-50.14-39.81-50.14-96.76v-632.52l8.58-187.3-227.71 28.98c40.87 22.55 50.13 43.44 50.13 95.85zm298 0v-527.36c0-52.41-9.26-73.3-50.13-95.85l226.39-28.98-7.26 185.93v413.89c0 56.95 12.37 74.21 50.14 96.76H312.66zm77.82-689.44c-70.06 0-112.1-36.47-112.1-83.49 0-47.7 40.72-86.79 108.81-86.79 68.75 0 114.73 39.09 114.73 86.79 0 47.02-44.67 83.49-111.44 83.49zm183.53 422.83c0 199.82 105.48 327.58 241.46 327.58 133.24 0 223.65-114.71 246.01-304.81l-5.95-1.31c-40.38 128.39-96.49 163.76-154.9 163.76-103.57 0-174.83-115.76-174.83-355.58 0-136.94 33.04-184.42 68.23-184.42 50.06 0 100.67 133.75 100.67 287.52l29.23-29.47-202.14 43.31v8.68l340.54 53.11c5.94-37.04 8.26-61.22 8.26-91.69 0-187.53-89.59-303.57-218.2-303.57-149.27 0-278.38 161.44-278.38 386.89zm613.25 31.89l-60.54 250.79c35.52 19.58 106.62 44.9 199.95 44.9 157.95 0 241.36-96.57 241.71-209.43 0-71.87-27.74-116.63-62.19-151.08-65.25-65.25-193.56-107.6-251.87-166.56-19.61-19.61-44.35-47.75-44.35-80.39 0-38.49 32.3-61.1 67.49-61.1 64.31 0 154.71 70.18 226.53 250.43h7.26l61.3-250.48c-33.46-18.55-102.56-44.55-188.58-44.55-146.08 0-244.91 88.1-244.91 208.12 0 65.23 27.03 112.18 63.4 148.55 50.12 50.12 196.32 113.59 248.02 165.29 26.19 26.19 44.36 52.46 44.36 86.16 0 41.12-29.96 61.76-64.6 61.76-56.3 0-162.07-60.32-235.72-252.41zm649.32 131.54v-374.31c14.17-26.2 33.15-43.95 51.13-43.95 77.89 0 135.06 156.73 135.06 327.72 0 163.29-46.81 212.71-83.48 212.71-32.08 0-68.39-48.56-102.71-122.17zm7.58-769.01l-226.71 32.26c41.53 21.9 50.13 42.79 50.13 93.89v774.95c45.97 21.06 103.07 32.06 160.75 32.06 202.14 0 352.15-183.65 352.15-439.71 0-185.13-83.96-273.45-170.41-273.45-86.71 0-152.52 79.53-173.83 158.94zm392.85 605.58c0 199.82 105.48 327.58 241.46 327.58 133.24 0 223.65-114.71 246.01-304.81l-5.95-1.31c-40.38 128.39-96.49 163.76-154.9 163.76-103.57 0-174.83-115.76-174.83-355.58 0-136.94 33.04-184.42 68.23-184.42 50.06 0 100.67 133.75 100.67 287.52l29.23-29.47-202.14 43.31v8.68l340.54 53.11c5.94-37.04 8.26-61.22 8.26-91.69 0-187.53-89.59-303.57-218.2-303.57-149.27 0-278.38 161.44-278.38 386.89zm526.68-369h211.31l14.08 89.59 170.62 435.02c59.18-179.7 33.22-382.05-19.1-524.61h235.06l-203.92 541.4c-87.82 211.6-221.76 255.18-313.19 255.18-27.91 0-53.52-5.03-77.46-13.43l55.22-377.86h7.26c26.31 256.12 80.56 321.04 143.31 321.04 19.37 0 45.25-7.4 65.62-32.2zm632.03 363.77c0 208.91 114.14 332.81 253.8 332.81 150.98 0 287.36-149.95 287.36-386.92 0-206.61-122.04-326.24-255.78-326.24-150.32 0-285.38 146-285.38 380.35zm166.63-149.19c0-144.65 29.67-202.34 66.68-202.34 69.09 0 140.56 227.05 140.56 453.18 0 128.21-29.01 202.34-67.34 202.34-68.43 0-139.9-227.05-139.9-453.18zm466.63 421.03l-50.14 44.39h269.27c-37.76-29.13-50.13-46.39-50.13-96.76v-397.19c30.69-46.66 55.2-60.9 77.76-60.9 54.86 0 80.77 60.12 80.77 168.05v342.41l-43.56 44.39h262.69c-37.76-29.13-50.13-46.39-50.13-96.76v-407.06c0-137.21-51.24-192.76-125.28-192.76-83.1 0-154.65 85.5-202.25 186.24l7.26-186.24-226.4 35.55c40.88 18.61 50.14 39.5 50.14 93.88zm828.24-602.98c31.39 0 68.39 49.25 102.71 124.91v364.33c-14.16 26.21-33.15 43.96-51.13 43.96-77.89 0-135.05-153.19-135.05-320.48 0-163.3 46.8-212.72 83.47-212.72zm271.71-51.66l7.92-217.55-227.06 32.26c41.54 21.9 50.48 42.79 50.48 93.89v172.27l110.12-41.23c-42.77-18.79-80.78-24.03-109.47-24.03-93.54 0-167.32 27.52-223.97 84.16-72.89 72.9-120.92 194.34-120.92 342.38 0 185.14 84.26 273.46 170.42 273.46 86.7 0 152.16-78.84 173.48-159.97l-7.58 159.97 226.72-32.26c-41.54-21.9-50.14-42.79-50.14-93.89zm0 0"/></svg>