<svg width="1896" height="1100.002" xmlns="http://www.w3.org/2000/svg"><path d="M60 915.002l-45 55h322c-34-27-45-47-45-106v-600l12-214-289 30c33 27 45 52 45 114zm352 0v-501c0-62-12-87-45-114l287-30-10 214v380c0 59 11 79 45 106H367zm110-660c-93 0-146-44-146-103s51-107 141-107c91 0 150 48 150 107s-57 103-145 103zm206 404c0 194 125 331 287 331s262-126 296-287l-8-2c-51 63-103 97-171 97-120 0-194-112-194-346 0-114 19-156 47-156 35 0 88 143 88 293l33-37-159 57v8l358 74c8-48 11-78 11-116 0-180-105-307-261-307-177 0-327 170-327 391zm711 36l-78 246c41 23 121 49 227 49 185 0 278-113 278-231 0-77-25-118-55-148-81-81-248-123-320-196-9-9-31-32-31-53 0-20 21-32 49-32 65 0 178 76 282 234h10l75-245c-41-23-119-49-217-49-168 0-286 97-286 229 0 69 26 118 61 153 58 58 247 129 310 192 19 19 31 35 31 55 0 24-19 33-42 33-45 0-172-61-284-237zm0 0"/></svg>