<svg width="1252" height="1100.002" xmlns="http://www.w3.org/2000/svg"><path d="M72.71 934.142l-58.62 26.86h182.23c-43.98-15.2-58.61-27.94-58.61-81.49v-686.23l2.92-143.2-126.54 27.27c53.88 15.2 58.62 29.31 58.62 65.9zm210 0v-570.89c0-36.59-4.74-50.7-58.62-65.9l126.36-27.27-2.74 139.57v469.86c0 53.55 14.63 66.29 58.61 81.49H224.09zm24.68-738.06c-32.19 0-56.15-24.03-56.15-51.26 0-29.05 23.78-53.46 55.69-53.46 32 0 56.52 24.41 56.52 53.46 0 27.23-24.33 51.26-56.06 51.26zm147.22 453.92c0 209.43 73.27 321.92 166.29 321.92 85.76 0 160.35-96.05 163.49-334.19l-2.55-.19c-22.87 236.36-85.76 273.99-128.35 273.99-76.43 0-143.17-121.99-143.17-371.42 0-174.81 56.21-231.33 103.27-231.33 74.94 0 121.58 118.5 121.58 278.48l23.02-17.03-273.36 20.69v9.82l311.71 18.63c2.56-18.95 3.74-33.52 3.74-51.55 0-199.97-64.15-297.93-147.55-297.93-103.48 0-198.12 147.31-198.12 380.11zm453.25 25.11l-31.71 258.71c26.48 13.92 82.88 38.1 155.3 38.1 113.3 0 180.89-69.43 181.79-173.82 0-63.38-32.26-114.37-74.06-156.17-39.25-39.25-103.69-82.15-139.38-117.94-37.14-37.14-66.4-73.75-66.4-125.61 0-69.01 50.95-109.15 98.01-109.15 63.19 0 116.29 60.57 134.97 277.57h2.74l38.7-259.52c-21.04-11.2-75.44-37.2-141.67-37.2-109.92 0-177.09 73.4-177.09 173.63 0 59.02 28.72 102.57 67.35 141.2 37.13 37.13 112.68 88.16 145.73 121.21 38.06 38.06 66.39 81.29 66.39 137.59 0 69.38-48.04 109.24-101.9 109.24-74.95 0-145.68-59.18-156.03-277.84zm0 0"/></svg>