<svg width="1678" height="1100.002" xmlns="http://www.w3.org/2000/svg"><path d="M394 50.002l-270 51v179l-124 705 295-52-45-52zm-39 940l295-52-45-52 108-616-295 52 45 52zm269-735c95 0 162-45 162-109-1-56-53-101-136-101-99 0-157 53-158 110-1 53 48 100 132 100zm434 95l88-50v-10h-77c16-108 61-186 134-230v-10c-215 0-322 87-366 240h-56v10c26 11 44 40 33 103l-121 687 243-43zm582 217c0 245-126 423-318 423-120 0-229-72-229-254 0-131 50-257 143-350 75-75 163-116 264-116 116 0 178 52 178 136 0 73-45 123-66 144-91 91-218 135-327 154l25-107c23 36 42 67 69 67 10 0 13-3 18-8 28-28 45-140 45-237 0-75-17-116-38-116-46 0-84 169-84 305 0 147 72 188 134 188 86 0 156-70 176-229zm0 0"/></svg>