<svg width="1423" height="1100.002" xmlns="http://www.w3.org/2000/svg"><path d="M260.49 50.722l-111.02 25.53-8.49 144.27L7.72 974.142l153.77-32.71-53.49-27.3zm-26.77 923.79l161.49-31.93-61.21-28.08 112.63-643.78-161.49 32.7 61.21 27.31zm182.02-768.18c45.61 0 78.65-28.03 78.65-65.79-.23-31.3-25.99-56.24-64.23-56.24-46.52 0-78.28 30.62-78.51 66.79-.23 29.84 25.62 55.24 64.09 55.24zm294.89-155.61l-114.98 621.99c52.15-185.87 140.92-302.55 189.06-350.69 38.51-38.51 80.93-51.3 112.46-51.3 55.08 0 80.96 33.74 80.96 85.79 0 53.17-25.4 102.23-66.26 143.09-40.91 40.91-98.85 73.6-168.82 98.24l37.18 164.61c21.02 81.05 46.56 124.52 69.88 124.52 21.46 0 49.57-24.55 49.57-180.75 0-56.38-3.22-90.96-6.36-135.01h3.82c13.71 64.76 22.16 119.09 22.16 198.16 0 142.51-39.13 205.91-91.6 205.91-47.34 0-87.91-51.94-114.7-162.79l-39.95-178.63c23.1-14.96 47.18-33.83 63.35-44.65 40.44-26.8 143.22-97.75 143.22-184.12 0-33-12.77-66.3-41.17-66.3-72.29 0-213.78 179.89-276.03 534.5l.23 78-107.79 22.85 132.4-753.62 6.17-142.73zm670.11 556.36c-27.01 260.43-136.81 368.2-236.2 368.2-82.18 0-152.59-89.75-152.59-241.65 0-151.06 56.94-310.25 142.22-395.53 42.59-42.59 91.23-67.38 144.38-67.38 73.56 0 132.47 43.51 132.47 130.6 0 57.56-24.16 121.45-68.31 165.6-65.54 65.54-160.89 94.87-275.3 113.87l5.71-62.24c26.86 11.31 51.26 19.93 75.95 19.93 47.04 0 87.08-9.95 115.23-38.1 35.72-35.72 50.41-109.13 50.41-182.98 0-78.08-24.72-131.43-64.24-131.43-69.15 0-162.72 190.61-162.72 382.94 0 143.14 45.76 225.82 106.99 225.82 55.13 0 134.39-56.88 182.17-287.65zm0 0"/></svg>