<svg width="2078.66" height="1100.002" xmlns="http://www.w3.org/2000/svg"><path d="M592.7 980.292l238.39-43.44-51.5-40.7 15.06-740.79 37.94-48.36H587.51c12.79 131.07-14.8 268.54-62.15 384.04l-50.66 123.55-114.32-459.23 31.96-48.36H162.79c23.67 80.66 42.43 177.33.73 316.37L0 977.552l178.4-31.96c-11.95-183.6 1.47-412.15 21.33-641.77l180.5 628.7h7.26l222.67-626.99zm837.7-612.95l55.08-63.9c-63.2-23.44-115.87-33.02-169.52-33.02-118.51 0-231.7 49.81-316.92 138.98-103.71 108.32-157.87 275.59-157.87 402.02 0 109.69 40.83 171.5 110.22 171.5 34.15 0 70.96-15.26 107.11-51.41 46.14-46.14 104.96-144.08 158.63-330.52l-74.3 382.24 240.26-44.41-48.77-41.39zm-357.71 485.49c-26.74 0-39.14-45.98-39.14-116.96 0-136.09 50.59-345.59 101.07-396.07 17.24-17.24 33.09-27.06 57.81-27.06 28.69 0 55.71 13.84 74.69 32.93-79.55 362.07-155.24 507.16-194.43 507.16zm378.34 127.46l109.4-625.38-48.77-41.05 233.03-43.44-57.62 330.87c37.18-127.17 93.02-217.82 144.79-269.59 40.1-40.1 83.91-61.28 124.9-61.28 70.83 0 108.01 73.92 78.44 246.67l-65.53 378.37 48.76 41.05-233.03 43.44 65.96-371.37c20.95-116.76 15.21-208.72-22.77-208.72-42.87 0-129.55 133.04-181.38 419.8l.66 124.9zm0 0"/></svg>