<svg width="2141.96" height="1100.002" xmlns="http://www.w3.org/2000/svg"><path d="M72.89 934.142l-57.69 26.86h181.31c-43.99-15.48-58.62-28.22-58.62-81.49v-454.91c34.06-52.38 79.1-92.5 128.32-92.5 51.83 0 85.35 47.04 85.35 170.54v431.5l-57.69 26.86h181.3c-43.98-15.48-58.61-28.22-58.61-81.49v-454.91c36.87-56.01 79.2-92.5 126.5-92.5 46.39 0 87.26 47.04 87.26 171.45v430.59l-57.69 26.86h181.3c-43.98-15.48-58.61-28.22-58.61-81.49v-431.48c0-129.85-46.66-177.95-112.06-177.95-68.68 0-125.25 60.29-168.52 138.71-7.26-109.61-59.64-138.71-109.77-138.71-67.49 0-128.52 64.94-167.08 136.89l2.74-136.89-126.35 28.2c53.87 14.64 58.61 28.75 58.61 65.62zm998.64-315.4l-.91 180.2c-18.82 44.03-70.2 122.36-124.95 122.36-32.47 0-81.79-33.09-81.79-139.4 0-53.61 13.44-104.03 42.96-133.55 21.43-21.43 62.01-40.76 104.59-40.76 15.1 0 35.91 3.57 60.1 11.15zm64-207.47c0-107.51-50.28-141.19-97.35-141.19-70.04 0-131.98 93.84-165.6 252.41l28.91-241.49h-77.37l33.31 374.66h2.74c25.94-256.99 99.71-326.88 139.36-326.88 41.72 0 71.09 35.91 71.09 103.63v133.45c-99.19 23.71-160.39 55.16-201.21 95.98-44.07 44.07-62.26 99.43-62.26 161.12 0 95.87 48.74 148.96 104.14 148.96 77.73 0 138-98.84 159.33-158.16l-2.2 158.16 125.72-27.27c-53.97-15.2-58.61-28.85-58.61-65.16zm141.36 522.87l-58.61 26.86h182.23c-43.99-16.13-58.62-28.86-58.62-81.49v-409.06c53.31-108.84 88.55-138.35 125.24-138.35 46.39 0 86.98 47.13 86.98 171.45v430.59l-57.69 26.86h181.31c-43.99-16.13-58.62-28.86-58.62-81.49v-431.94c0-129.29-45.01-177.49-100.97-177.49-68.4 0-132.6 74.75-176.25 180.01l2.74-180.01-126.35 28.2c53.87 14.64 58.61 28.75 58.61 65.62zm421.54-653.14h84.7l19.16 105.41 146.88 477.98c68.48-233.25 92.34-445.61 99.6-583.39h93.19l-198.83 649.35c-34.68 103.65-102.49 141.57-158.31 141.57-22.84 0-44.48-6.72-65.04-19.07l27.53-306.64h2.74c3.69 221.63 31.94 281.46 79.44 281.46 21.63 0 60.5-11.35 83.14-65.54zm0 0"/></svg>