<svg width="1770.14" height="1100.002" xmlns="http://www.w3.org/2000/svg"><path d="M71.26 931.922l-54.29 31.08h200.87c-42.49-17.65-56.58-31.48-56.58-85.16v-445.94c31.21-45.58 71.9-80 115.54-80 53.06 0 84.41 50.02 84.41 169.86v410.16l-54.3 31.08h200.87c-42.49-17.65-56.57-31.48-56.57-85.16v-445.94c33.75-48.67 72.13-80 114-80 48.42 0 86.17 50.02 86.17 170.63v409.39l-54.29 31.08h200.87c-42.49-17.65-56.58-31.48-56.58-85.16v-424.82c0-132.56-49.11-182.3-118.04-182.3-72.62 0-131.5 62.19-173.68 145.64-6.17-114.9-60.59-145.64-113.84-145.64-71.17 0-135.19 67.79-174.56 144.1l3.83-144.1-150.41 29.96c50.75 15.6 56.58 31.34 56.58 72.42zm1051.92-301.26l-.77 173.13c-18.54 38.19-63.13 105.24-111.63 105.24-34.65 0-80.03-33.23-80.03-134.1 0-51.57 12.63-98.18 39.98-125.53 19.12-19.12 54.67-36.01 92.23-36.01 15.22 0 35.77 5.88 60.22 17.27zm89-209.65c0-112.67-50.68-150.29-103.72-150.29-74.54 0-139.33 96.56-179.74 257.44l37.61-245.16H863.41l45.55 377.11h3.82c28.8-239.33 97.81-307.59 138.4-307.59 41.32 0 71.23 35.77 71.23 103.09v116.47c-110.54 29.58-171.26 61.27-211.8 101.81-42.72 42.72-61.18 95.93-61.18 155.41 0 92.75 49.83 145.98 108.77 145.98 77.31 0 138-92.73 164.21-156.94l-3.96 156.94 150.31-27.68c-50.98-16.97-56.58-31.57-56.58-71.27zm73.94-138.01h115.13l17.95 101.61 152.58 467.65c66.25-220.37 78.13-430.33 71.07-569.26h127.29l-200.05 623.4c-47.46 129.6-131.17 168.88-195.55 168.88-24.05 0-46.65-6.31-68.02-17.71l34.19-323.77h3.82c9.13 229.93 43.63 290.98 94.8 290.98 21.08 0 56.83-10.4 78.92-57.53zm0 0"/></svg>