<svg width="2157.13" height="1100.002" xmlns="http://www.w3.org/2000/svg"><path d="M2.71 980.292l196.5-35.73v-120.24c64.95-314.81 135.66-424.46 177.48-424.46 37.97 0 37.79 92.62 17.51 208.72l-64.65 371.71 196.5-35.73v-127.45c64.3-309.89 134.35-418.57 176.17-418.57 37.97 0 38.48 91.97 18.19 208.72l-66.62 379.26 231.69-43.44-41.53-81.16 61.58-346.15c30.89-172.74-4.31-246.66-75.15-246.66-44.7 0-89.4 21.84-128.18 60.62-50.74 50.74-97.67 143.36-134.97 270.9l22.95-128.26c24.32-139.21-14.49-201.95-85.33-201.95-42.07 0-87.43 22.5-128.18 63.25-50.74 50.74-100.96 142.05-137.6 268.28l64.85-331.53-239.26 44.76 42.19 65.37zm1533.03-612.95l55.08-63.9c-63.2-23.44-115.87-33.02-169.52-33.02-118.51 0-231.7 49.81-316.92 138.98-103.71 108.32-157.87 275.59-157.87 402.02 0 109.69 40.83 171.5 110.22 171.5 34.15 0 70.96-15.26 107.11-51.41 46.14-46.14 104.96-144.08 158.63-330.52l-74.3 382.24 240.26-44.41-48.77-41.39zm-357.71 485.49c-26.74 0-39.14-45.98-39.14-116.96 0-136.09 50.59-345.59 101.07-396.07 17.24-17.24 33.09-27.06 57.81-27.06 28.69 0 55.71 13.84 74.69 32.93-79.55 362.07-155.24 507.16-194.43 507.16zm979.1-582.41l-190.55 35.73v116.61c-27.33 182.79-69.71 298.45-113.59 342.32-13.76 13.77-27.97 20.79-41.58 20.79-37.7 0-51.52-51.83-51.52-120.13 0-112.91 49.52-250.38 103.88-395.32l-231.53 98.16 94.46 98.88c-65.46 74.18-154.85 192.14-154.85 311.66 0 91.9 50.23 136.59 112.12 136.59 42.5 0 89.94-20.92 130.14-61.13 46.51-46.5 83.96-116.94 112.04-206.59l-39.37 226.3c-24.86 141.37-82.99 167.06-125.77 167.06-47.56 0-122.7-55.36-181.91-169.5h-7.26l-73.77 193.44c41.68 12.62 78.92 18.29 123.68 18.29 116.25 0 216.65-37.9 311.29-132.53 80.62-80.62 132.84-154.84 161.7-320.95zm0 0"/></svg>