<svg width="2352" height="1100.002" xmlns="http://www.w3.org/2000/svg"><path d="M71.26 931.922l-54.29 31.08h200.87c-42.49-17.65-56.58-31.48-56.58-85.16v-445.94c31.21-45.58 71.9-80 115.54-80 53.06 0 84.41 50.02 84.41 169.86v410.16l-54.3 31.08h200.87c-42.49-17.65-56.57-31.48-56.57-85.16v-445.94c33.75-48.67 72.13-80 114-80 48.42 0 86.17 50.02 86.17 170.63v409.39l-54.29 31.08h200.87c-42.49-17.65-56.58-31.48-56.58-85.16v-424.82c0-132.56-49.11-182.3-118.04-182.3-72.62 0-131.5 62.19-173.68 145.64-6.17-114.9-60.59-145.64-113.84-145.64-71.17 0-135.19 67.79-174.56 144.1l3.83-144.1-150.41 29.96c50.75 15.6 56.58 31.34 56.58 72.42zm808.54 0v-560.42c0-40.39-5.82-56.13-56.57-73.1l150.4-27.68-3.83 150.71v456.41c0 54.37 14.09 68.19 56.58 85.16H823.23zm37.46-726.37c-41.29 0-69.6-27.02-69.6-59.01 0-33.53 27.85-61.46 68.46-61.46 40.84 0 70.51 27.93 70.51 61.46 0 31.99-29.22 59.01-69.37 59.01zm168.12 390.67c0 151.86 74.87 259.54 174.45 259.54 129.71 0 226.28-178.96 226.28-335.69 0-61.72-27.49-130.82-52.82-168.18l80.81-34.36c-64.22-29.62-130.11-46.81-191.98-46.81-136.07 0-236.74 147.2-236.74 325.5zm79.95-71.25c0-139.1 43.36-219.27 108.1-219.27 73.63 0 133.87 136.41 133.87 273.75 0 146.58-42.56 241.33-112.73 241.33-78.79 0-129.24-147.36-129.24-295.81zm307.32 538.03l4.57-85.38h-329.73l4.74-200.12-79.8 285.5zm131.07-131.08v-780.42c0-40.39-5.83-56.13-56.58-73.1l148.95-27.68-3.14 406.85c44.59-107.23 110.56-185.71 182.5-185.71 61.07 0 107.58 51.51 107.58 190.42v415.56c0 53.68 14.09 67.51 56.58 85.16h-199.33l52.75-31.08v-425.29c0-100.31-30.92-149.25-79.4-149.25-32.52 0-71.59 25.38-119.91 118.82v401.64c0 53.68 14.08 67.51 56.57 85.16h-201.61zm606.86-610.7v375.99c0 141.76 23.77 193.36 60.04 193.36 22.17 0 40.17-40.82 57.31-159.95-12.55 171.3-59.33 244.66-109.66 244.66-58.44 0-97.69-53.28-97.69-244.67v-352.4c0-61.45-14.32-75.96-56.58-95.21h56.03l77.09-202.54 13.46 202.54h125.44v3.83zm0 0"/></svg>