<svg width="2490" height="1100.002" xmlns="http://www.w3.org/2000/svg"><path d="M71.26 931.922l-54.29 31.08h200.87c-42.49-17.65-56.58-31.48-56.58-85.16v-445.94c31.21-45.58 71.9-80 115.54-80 53.06 0 84.41 50.02 84.41 169.86v410.16l-54.3 31.08h200.87c-42.49-17.65-56.57-31.48-56.57-85.16v-445.94c33.75-48.67 72.13-80 114-80 48.42 0 86.17 50.02 86.17 170.63v409.39l-54.29 31.08h200.87c-42.49-17.65-56.58-31.48-56.58-85.16v-424.82c0-132.56-49.11-182.3-118.04-182.3-72.62 0-131.5 62.19-173.68 145.64-6.17-114.9-60.59-145.64-113.84-145.64-71.17 0-135.19 67.79-174.56 144.1l3.83-144.1-150.41 29.96c50.75 15.6 56.58 31.34 56.58 72.42zm808.54 0v-560.42c0-40.39-5.82-56.13-56.57-73.1l150.4-27.68-3.83 150.71v456.41c0 54.37 14.09 68.19 56.58 85.16H823.23zm37.46-726.37c-41.29 0-69.6-27.02-69.6-59.01 0-33.53 27.85-61.46 68.46-61.46 40.84 0 70.51 27.93 70.51 61.46 0 31.99-29.22 59.01-69.37 59.01zm191 726.37l-56.58 31.08h203.16c-42.49-19.25-56.58-33.08-56.58-85.16v-406.21c47.87-93.89 80.53-119.73 113.83-119.73 48.42 0 85.49 50.25 85.49 170.63v409.39l-54.3 31.08h200.87c-42.49-19.25-56.57-33.08-56.57-85.16v-425.96c0-131.2-46.51-181.16-106.82-181.16-71.93 0-137.9 77.33-182.5 181.51l3.83-181.51-150.41 29.96c50.75 15.6 56.58 31.34 56.58 72.42zm683.17-618.01c34.41 0 71.41 29.5 104.86 73.39v427.45c-21.89 51.53-55.9 89.03-88.91 89.03-72.74 0-137.63-142.62-137.63-327.35 0-208.8 69.13-262.52 121.68-262.52zm194.86-98.89l4.06-164.3-150.63 28.82c50.98 16.74 57.35 32.48 57.35 72.42v185.15l52.58-20.19c-41.61-31.98-70.48-41.64-100.02-41.64-55.35 0-103.78 20.65-143.68 60.56-67.74 67.74-117.06 194.35-117.06 360.41 0 191.58 80.83 279.03 158.39 279.03 72.54 0 128.56-71.11 149.01-142.36l-3.28 142.36 149.86-28.82c-50.98-16.74-56.58-32.48-56.58-72.42zm142.79 463.72l-38.65 256.8c28.66 15.29 88.59 39.74 166.04 39.74 124.03 0 195.42-75.95 196.19-182.38 0-65.42-31.17-114.91-71.2-154.94-45.5-45.5-125.3-88.28-166.43-129.63-32.92-32.93-61.1-67.5-61.1-114.74 0-61.68 46.47-97.6 90.68-97.6 63.46 0 125.52 62.88 156.98 271.04h3.82l44.13-257.35c-24.02-12.96-81.95-38.96-152.94-38.96-118.61 0-193.39 76.93-193.39 181.92 0 60.51 28.31 104.88 66.4 142.97 40.25 40.25 132.78 94.27 170.31 131.8 35.21 35.21 61.1 74.36 61.1 125.23 0 62.59-43.69 97.83-92.93 97.83-70.47 0-149.62-59.46-175.19-271.73zm0 0"/></svg>