<svg width="3920" height="1100.002" xmlns="http://www.w3.org/2000/svg"><path d="M62 915.002l-35 55h312c-34-30-45-50-45-106v-395c15-7 31-9 43-9 60 0 79 67 79 166v289l-35 55h312c-34-30-45-50-45-106v-395c16-7 32-9 43-9 60 0 80 67 80 166v289l-35 55h312c-34-30-45-50-45-106v-387c0-148-63-207-152-207-95 0-167 73-203 185 0-145-66-185-137-185-92 0-173 84-217 185l10-185-287 40c33 21 45 46 45 111zm1063 0v-501c0-62-12-87-45-114l287-30-10 214v380c0 59 11 79 45 106h-322zm110-660c-93 0-146-44-146-103s51-107 141-107c91 0 150 48 150 107s-57 103-145 103zm243 660l-45 55h322c-34-37-45-57-45-106v-390c17-9 35-14 49-14 60 0 77 68 77 166v289l-35 55h312c-34-37-45-57-45-106v-392c0-142-55-202-140-202-92 0-168 92-218 190l10-190-287 40c33 21 45 46 45 111zm939-435v129c0 98 7 167 74 167 14 0 33-3 52-10v-345c0-65-12-90-45-111l287-40-10 210v374c0 59 11 79 45 106l-290 30 13-210c-50 108-126 205-218 205-85 0-140-60-140-202v-362c0-65-12-90-45-111l287-40zm710-124v261c0 97 23 154 94 154 16 0 34-3 55-11-55 125-145 230-237 230-87 0-144-61-144-203v-347c0-90-12-113-45-150h46l216-201 15 201h154v10zm180 303c0 194 125 331 287 331s262-126 296-287l-8-2c-51 63-103 97-171 97-120 0-194-112-194-346 0-114 19-156 47-156 35 0 88 143 88 293l33-37-159 57v8l358 74c8-48 11-78 11-116 0-180-105-307-261-307-177 0-327 170-327 391zm0 0"/></svg>