<svg width="2633" height="1100.002" xmlns="http://www.w3.org/2000/svg"><path d="M72.89 934.142l-57.69 26.86h181.31c-43.99-15.48-58.62-28.22-58.62-81.49v-454.91c34.06-52.38 79.1-92.5 128.32-92.5 51.83 0 85.35 47.04 85.35 170.54v431.5l-57.69 26.86h181.3c-43.98-15.48-58.61-28.22-58.61-81.49v-454.91c36.87-56.01 79.2-92.5 126.5-92.5 46.39 0 87.26 47.04 87.26 171.45v430.59l-57.69 26.86h181.3c-43.98-15.48-58.61-28.22-58.61-81.49v-431.48c0-129.85-46.66-177.95-112.06-177.95-68.68 0-125.25 60.29-168.52 138.71-7.26-109.61-59.64-138.71-109.77-138.71-67.49 0-128.52 64.94-167.08 136.89l2.74-136.89-126.35 28.2c53.87 14.64 58.61 28.75 58.61 65.62zm763.82 0v-570.89c0-36.59-4.74-50.7-58.62-65.9l126.36-27.27-2.74 139.57v469.86c0 53.55 14.63 66.29 58.61 81.49H778.09zm24.68-738.06c-32.19 0-56.15-24.03-56.15-51.26 0-29.05 23.78-53.46 55.69-53.46 32 0 56.52 24.41 56.52 53.46 0 27.23-24.33 51.26-56.06 51.26zm181.5 738.06l-58.61 26.86h182.23c-43.99-16.13-58.62-28.86-58.62-81.49v-409.06c53.31-108.84 88.55-138.35 125.24-138.35 46.39 0 86.98 47.13 86.98 171.45v430.59l-57.69 26.86h181.31c-43.99-16.13-58.62-28.86-58.62-81.49v-431.94c0-129.29-45.01-177.49-100.97-177.49-68.4 0-132.6 74.75-176.25 180.01l2.74-180.01-126.35 28.2c53.87 14.64 58.61 28.75 58.61 65.62zm544.72-521.23v323.23c0 124.32 39.68 171.54 86.71 171.54 36.69 0 72.03-29.32 125.52-137.97v-405.81c0-36.87-4.74-50.98-58.62-65.62l126.36-28.2-2.74 142.83v466.58c0 36.31 4.64 49.96 58.61 65.16l-126.63 27.27 3.02-186.4c-43.65 110.72-107.85 185.94-176.25 185.94-55.96 0-100.98-48.2-100.98-177.49v-430.07c0-36.87-4.73-50.98-58.61-65.62l126.35-28.2zm484-98.58v396.23c0 149.64 23.91 200.29 54.07 200.29 23.26 0 41.26-47.48 57.72-186.17-5.08 179.46-44.25 247.24-87.24 247.24-53.42 0-89.55-51.92-89.55-252.01v-353.35c0-56.42-14.72-69.44-58.61-85.56h57.8l52.63-202.82 13.18 202.82h120.42v2.74zm178 335.67c0 209.43 73.27 321.92 166.29 321.92 85.76 0 160.35-96.05 163.49-334.19l-2.55-.19c-22.87 236.36-85.76 273.99-128.35 273.99-76.43 0-143.17-121.99-143.17-371.42 0-174.81 56.21-231.33 103.27-231.33 74.94 0 121.58 118.5 121.58 278.48l23.02-17.03-273.36 20.69v9.82l311.71 18.63c2.56-18.95 3.74-33.52 3.74-51.55 0-199.97-64.15-297.93-147.55-297.93-103.48 0-198.12 147.31-198.12 380.11zm0 0"/></svg>