<svg width="3250" height="1100.002" xmlns="http://www.w3.org/2000/svg"><path d="M69.04 928.202l-49.67 36.8h227.48c-40.46-20.61-53.81-35.91-53.81-90.15v-433.74c27.33-36.35 62.11-63 98.18-63 54.71 0 83.11 54.09 83.11 168.93v381.16l-49.68 36.8h227.48c-40.46-20.61-53.8-35.91-53.8-90.15v-433.74c29.5-38.7 62.52-63 97-63 51.19 0 84.69 54.09 84.69 169.52v380.57l-49.67 36.8h227.48c-40.46-20.61-53.81-35.91-53.81-90.15v-415.76c0-136.26-52.43-188.22-126.17-188.22-77.98 0-140 64.78-180.7 155.06-4.69-122.1-61.89-155.06-119.39-155.06-76.15 0-144.24 71.67-184.72 153.89l5.31-153.89-183.11 32.37c46.5 16.89 53.8 34.85 53.8 81.65zm832.7-276.74c0 206.71 99.96 327.67 221.52 327.67 132.39 0 251.89-148.48 251.89-384.72 0-204.89-104.91-323.54-222.76-323.54-131.98 0-250.65 146-250.65 380.59zm120.65-127.18c0-162.26 38.72-220.43 85.02-220.43 80.59 0 146.68 201.37 146.68 421.87 0 151.93-38.31 220.43-85.44 220.43-80.17 0-146.26-201.37-146.26-421.87zm633.35-207.63c33.11 0 70.11 38 103.93 95.57v400.28c-18.56 40.63-46.1 69.63-72.65 69.63-74.95 0-136.52-147.17-136.52-324.39 0-189.22 59.52-241.09 105.24-241.09zm227.93-78.56l5.72-187.22-183.52 30.3c46.91 18.96 54.39 36.92 54.39 81.66v179.6l77.35-29.23c-42.11-26.31-74.91-34.07-104.09-34.07-71.78 0-131.13 23.61-178.24 70.72-69.95 69.95-118.71 194.34-118.71 352.65 0 188.8 82.3 276.63 163.56 276.63 78.63 0 138.72-74.43 159.54-149.93l-5.13 149.93 182.94-30.3c-46.91-18.96-53.81-36.92-53.81-81.66zm101.13 415.91c0 203.98 91.55 325.13 208.94 325.13 112.69 0 196.26-106.63 210.3-317.52l-4.47-.83c-32.81 175.11-91.85 211.46-143.42 211.46-91.82 0-161.13-118.46-161.13-362.44 0-153.32 43.07-204.71 83.39-204.71 60.83 0 109.72 127.15 109.72 283.61l26.54-24.09-232.95 33.52v9.17l328.06 38.2c4.48-29.22 6.31-49.24 6.31-74.33 0-192.91-78.59-301.13-187.63-301.13-129.46 0-243.66 155.33-243.66 383.96zm544 28.96l-48.06 254.21c31.61 17.13 96.35 41.96 180.63 41.96 138.63 0 215.2-84.83 215.78-194.02 0-68.2-29.69-115.65-67.32-153.28-54-54-154.68-96.59-203.2-145.53-27.2-27.19-53.89-59-53.89-99.95 0-51.7 40.37-81.89 80.69-81.89 63.83 0 138.09 66.02 186.92 262.17h5.3l51.52-254.39c-28.08-15.37-90.82-41.37-168.28-41.37-130.43 0-215.56 81.74-215.56 193.2 0 62.54 27.76 108.02 65.1 145.36 44.5 44.5 160.14 102.59 203.77 146.22 31.32 31.33 53.89 64.94 53.89 108.42 0 53.34-37.79 82.3-80.74 82.3-64.37 0-154.98-59.83-201.24-263.41zm577-353.09v348.46c0 131.04 23.59 183.93 68.18 183.93 20.69 0 38.69-31.76 56.76-124.28-22.72 160.22-79.85 241.15-140.15 241.15-65.29 0-108.79-55.13-108.79-234.7v-351.1c0-68.29-13.76-84.83-53.8-108.33h53.63l110.35-202.17 13.82 202.17h132.29v5.3zm0 0"/></svg>