<svg width="5231" height="1100.002" xmlns="http://www.w3.org/2000/svg"><path d="M1 985.002l266-46v-149c54-259 98-344 134-344 39 0 33 107 11 232l-53 307 266-46v-161c53-251 96-334 132-334 39 0 33 106 11 232l-56 319 294-52-34-113 52-290c35-195-5-272-82-272-56 0-112 28-159 75-48 48-85 117-111 199l12-68c25-144-21-204-98-204-52 0-109 29-159 79-48 48-90 115-115 195l58-274-305 54 35 89zm1088-273c0 174 97 278 259 278 198 0 377-180 377-437 0-193-100-283-256-283-198 0-380 183-380 442zm235 121c0-205 73-549 134-549 16 0 32 23 32 146 0 205-75 546-136 546-15 0-30-31-30-143zm716-21c-24 0-34-47-34-106 0-114 40-326 83-369 8-8 17-12 27-12 28 0 53 28 73 56-43 250-118 431-149 431zm342-509c-39-9-76-13-113-13-136 0-284 44-379 145-102 109-150 266-150 376 0 109 47 178 127 178 41 0 85-18 128-61 41-41 94-116 135-248l-63 310 306-54-45-52 149-834-260 48v127l-21 119zm614 264c0 245-126 423-318 423-120 0-229-72-229-254 0-131 50-257 143-350 75-75 163-116 264-116 116 0 178 52 178 136 0 73-45 123-66 144-91 91-218 135-327 154l25-107c23 36 42 67 69 67 10 0 13-3 18-8 28-28 45-140 45-237 0-75-17-116-38-116-46 0-84 169-84 305 0 147 72 188 134 188 86 0 156-70 176-229zm30 428l110-621-45-52 295-52-64 292c76-256 182-292 242-292l7 7-139 478h-10c-13-182-28-251-51-251-18 0-43.94 56.84-83 286v159zm1153-625l65-55c-81-32-146-45-213-45-137 0-281 57-383 165-102 109-150 266-150 376 0 109 47 178 127 178 41 0 85-18 128-61 41-41 94-116 135-248l-63 310 306-54-45-52zm-381 442c-24 0-34-47-34-106 0-120 41-336 86-381 8-8 17-12 27-12 28 0 54 20 74 48-59 309-121 451-153 451zm767-522h121v10l-142 56-40 226c-22 126-27 232 12 232 21 0 44-15 77-98h10c-34 180-136 274-241 274-94 0-148-77-115-272l39-228c18-102 15-150-8-195l287-198zm628 277c0 245-126 423-318 423-120 0-229-72-229-254 0-131 50-257 143-350 75-75 163-116 264-116 116 0 178 52 178 136 0 73-45 123-66 144-91 91-218 135-327 154l25-107c23 36 42 67 69 67 10 0 13-3 18-8 28-28 45-140 45-237 0-75-17-116-38-116-46 0-84 169-84 305 0 147 72 188 134 188 86 0 156-70 176-229zm0 0"/></svg>