<svg width="3864" height="1100.002" xmlns="http://www.w3.org/2000/svg"><path d="M4.86 974.142l109.34-22.85v-84.17c78.69-384.79 182.89-525.36 232.01-525.36 36.68 0 43.8 74.59 25.66 179.52l-79.24 452.86 109.34-22.85v-85.37c78.46-383.74 182.43-524.62 231.55-524.62 36.69 0 45.35 74.36 27.21 179.53l-79.93 454.82 153.55-32.7-50.98-41.23 73.61-416.57c25.74-144.83-3.46-214.89-66.57-214.89-30.53 0-61.06 14.11-89.54 42.59-54.17 54.17-113.55 176.42-165.02 361.06l36.69-203.82c23.46-133.2-6.33-199.37-69.44-199.37-29.62 0-60.38 14.33-89.55 43.5-54.17 54.17-114.69 175.96-165.93 360.15l73.43-403.65-156.82 33.16 51.2 35.75zm815.54-227.47c0 148.54 64.2 228.61 152.5 228.61 156.68 0 290.57-203.92 290.57-474.81 0-152.87-64.89-229.75-151.82-229.75-156.67 0-291.25 204.61-291.25 475.95zm96.09 16.82c0-231.24 89.98-481.86 177.22-481.86 47.9 0 73.67 67.76 73.67 201.57 0 231.23-90.43 481.17-177.67 481.17-47.67 0-73.22-69.59-73.22-200.88zm525.28 140.29c-30.17 0-44.8-44.68-44.8-130.69 0-154.91 60.06-347.61 116.95-404.5 28.84-28.84 53.28-45.96 96.46-45.96 29.54 0 57.63 7.94 73.77 15.87-100.11 415.15-194.4 565.28-242.38 565.28zm320.39-614.73c-22.79-4.37-45.13-6.05-66.69-6.05-95.1 0-170.56 37.83-233.14 101.78-105.86 107.46-166.21 279.89-166.21 426.94 0 110.54 33.11 163.33 89.18 163.33 25.57 0 53.36-11.82 80.93-39.39 52.57-52.57 118.69-178.51 188.25-433.21l-85.38 472.06 157.05-33.16-53.49-27.31 152.86-863.32-107.19 23.3c0 37.05-2.32 94.59-10.04 133.95l-20.22 108.19zm435.58 318.03c-27.01 260.43-136.81 368.2-236.2 368.2-82.18 0-152.59-89.75-152.59-241.65 0-151.06 56.94-310.25 142.22-395.53 42.59-42.59 91.23-67.38 144.38-67.38 73.56 0 132.47 43.51 132.47 130.6 0 57.56-24.16 121.45-68.31 165.6-65.54 65.54-160.89 94.87-275.3 113.87l5.71-62.24c26.86 11.31 51.26 19.93 75.95 19.93 47.04 0 87.08-9.95 115.23-38.1 35.72-35.72 50.41-109.13 50.41-182.98 0-78.08-24.72-131.43-64.24-131.43-69.15 0-162.72 190.61-162.72 382.94 0 143.14 45.76 225.82 106.99 225.82 55.13 0 134.39-56.88 182.17-287.65zm42.35 369.34l113.08-645.69-55.03-27.31 155.32-32.7-57.83 315.92c69.83-280.69 148.82-315.92 199.55-315.92 14.67 0 35.56 7 50.99 17.8l-85.75 314.39h-3.82c20.95-194.34-4.08-240.19-30.94-240.19-32.66 0-100.32 59.28-177.15 496.68v94.18zm844.75-612.65l42.62-75.06c-40.87-12.71-78.09-17.99-114.99-17.99-95.33 0-169.87 40.79-234.06 106.35-105.86 107.45-167.75 287.6-167.75 434.65 0 110.54 33.11 163.33 89.19 163.33 25.56 0 53.36-11.82 80.92-39.39 52.58-52.57 118.7-179.28 188.25-433.99l-88.47 472.84 157.83-32.39-53.49-28.08zm-328.52 540.01c-30.18 0-45.58-44.68-45.58-130.69 0-156.27 62.61-357.61 119.96-414.96 28.83-28.84 53.27-45.96 96.45-45.96 29.55 0 57.86 6.11 75.55 14.05-105.31 428.62-198.18 577.56-246.38 577.56zm567.19-620.78h121.77v3.83l-127.33 42.1-70.1 401.96c-20.46 116.74-7.71 169.49 20.49 169.49 27.17 0 59.43-35.84 97.83-179.8h3.83c-33.23 184.63-92.78 254.7-153.02 254.7-53.87 0-93.21-56.16-64.84-218.75l52.12-296.68c18-102.77 15.77-132.25 2.03-172.62l131.11-181.8zm498.23 324.08c-27.01 260.43-136.81 368.2-236.2 368.2-82.18 0-152.59-89.75-152.59-241.65 0-151.06 56.94-310.25 142.22-395.53 42.59-42.59 91.23-67.38 144.38-67.38 73.56 0 132.47 43.51 132.47 130.6 0 57.56-24.16 121.45-68.31 165.6-65.54 65.54-160.89 94.87-275.3 113.87l5.71-62.24c26.86 11.31 51.26 19.93 75.95 19.93 47.04 0 87.08-9.95 115.23-38.1 35.72-35.72 50.41-109.13 50.41-182.98 0-78.08-24.72-131.43-64.24-131.43-69.15 0-162.72 190.61-162.72 382.94 0 143.14 45.76 225.82 106.99 225.82 55.13 0 134.39-56.88 182.17-287.65zm0 0"/></svg>