<svg width="3624" height="1100.002" xmlns="http://www.w3.org/2000/svg"><path d="M5.54 971.462l81.75-18.77v-72.76c83.05-406.94 197.84-557.29 249.27-557.29 36.28 0 45.71 68.88 28.24 170.28l-83.85 478.54 81.75-18.77v-72.05c82.95-407.11 197.65-558.18 249.08-558.18 36.28 0 47.52 68.78 30.06 170.28l-84.13 478.74 128.81-29.31-53.97-28.59 77.42-438.85c24.11-136.01-3.19-204.84-63.85-204.84-26.05 0-52.1 11.66-77.32 36.88-55.26 55.26-118.58 186.89-174.53 389.6l41.05-227.74c23.18-131.29-3.76-198.55-64.42-198.55-25.68 0-51.82 11.75-77.32 37.25-55.26 55.26-119.04 186.7-174.9 389.22l76.15-426.47-130.74 29.49 54.06 26.38zm767.81-219.45c0 144.05 58.43 219.91 133.75 219.91 149.4 0 275.35-208.13 275.35-481.47 0-145.8-58.7-220.37-133.47-220.37-149.4 0-275.63 208.41-275.63 481.93zm71.63-1.53c0-235.86 92.97-470.03 184.83-470.03 53.51 0 81.01 75.64 81.01 211.34 0 235.86-93.15 469.76-185.01 469.76-53.42 0-80.83-76.38-80.83-211.07zm491.93 168.69c-31.26 0-46.71-44.27-46.71-135.04 0-162.1 63.6-351.41 122.94-410.75 32.5-32.51 59.65-51.93 108.68-51.93 29.82 0 58.45 4.4 73.91 8.8-110.16 444.23-207.85 588.92-258.82 588.92zm316.58-633.34c-19.94-3.55-39.69-4.83-58.54-4.83-87.9 0-150.58 36.74-207.46 94.17-106.54 107.19-169.06 282.34-169.06 435.91 0 110.81 30.66 160.75 82.53 160.75 22.84 0 47.78-10.74 72.63-35.59 54.62-54.61 123.05-189.51 197.63-465.82l-89.32 500.6 130.83-29.5-54.99-22.95 153.54-868.49-80.29 18.95c0 43.57-2.72 88.88-11.8 135.17l-20.09 106.29zm403.62 327.53c-31.77 263.16-138.71 358.56-221.79 358.56-75.53 0-139.15-92.87-139.15-239.47 0-154.6 58.17-319.63 142.09-403.55 36.88-36.88 78.59-58.82 123.32-58.82 66.08 0 124.45 42.01 124.45 129.64 0 54.85-20.49 121.19-68.72 169.42-61.05 61.04-150.84 87.8-266.19 106.8l2.31-54.36c27.54 6.96 52.89 11.64 77.17 11.64 53.56 0 100.13-11.17 132.36-43.4 37.07-37.08 51.35-103.7 51.35-173.47 0-78.63-26.08-134.15-68.86-134.15-73.23 0-176.57 194.41-176.57 396.67 0 142.46 41.14 232.47 102.23 232.47 49.69 0 130.59-54.57 183.26-297.98zm44.52 359.03l113.63-650.05-56.8-22.95 130.72-29.31-56.73 320.13c68.73-285.04 142.97-320.13 192.08-320.13 17.24 0 40.58 7 58.73 19.7l-76.37 285.59h-2.74c26.93-196.52.13-238.29-27.41-238.29-35.24 0-110.25 59.7-193.72 533.77v82.76zm790.38-610.48l38.67-78.6c-33.8-9.31-66.13-13.23-97.73-13.23-87.99 0-150.3 37.94-207.83 96.02-106.54 107.18-170.88 291.41-170.88 444.98 0 110.81 30.67 160.75 82.53 160.75 22.85 0 47.79-10.74 72.64-35.59 54.61-54.61 123.04-190.42 197.62-466.73l-92.95 501.51 131.74-28.59-54.98-23.86zm-319.29 557.26c-31.26 0-47.61-44.27-47.61-135.04 0-162.66 66.41-361.41 125.93-420.93 32.51-32.51 59.66-51.94 108.69-51.94 29.81 0 58.54 3.66 75.81 8.07-113.45 449.68-211.76 599.84-262.82 599.84zm532.3-638.17h121.9v2.74l-124.75 39.66-75.4 432.94c-20.18 115.11-4.31 158.48 21.99 158.48 28.26 0 62.15-39.5 101.5-194.21h2.74c-33.09 185.45-85.17 251.31-137.53 251.31-46.81 0-83.56-52.49-56.01-209.37l54.43-308.78c18-102.91 15.91-129.12 3.8-168.68l103.66-178.94zm475.09 332.36c-31.77 263.16-138.71 358.56-221.79 358.56-75.53 0-139.15-92.87-139.15-239.47 0-154.6 58.17-319.63 142.09-403.55 36.88-36.88 78.59-58.82 123.32-58.82 66.08 0 124.45 42.01 124.45 129.64 0 54.85-20.49 121.19-68.72 169.42-61.05 61.04-150.84 87.8-266.19 106.8l2.31-54.36c27.54 6.96 52.89 11.64 77.17 11.64 53.56 0 100.13-11.17 132.36-43.4 37.07-37.08 51.35-103.7 51.35-173.47 0-78.63-26.08-134.15-68.86-134.15-73.23 0-176.57 194.41-176.57 396.67 0 142.46 41.14 232.47 102.23 232.47 49.69 0 130.59-54.57 183.26-297.98zm0 0"/></svg>