<svg width="2995" height="1100.002" xmlns="http://www.w3.org/2000/svg"><path d="M71.26 931.922l-54.29 31.08h200.87c-42.49-17.65-56.58-31.48-56.58-85.16v-445.94c31.21-45.58 71.9-80 115.54-80 53.06 0 84.41 50.02 84.41 169.86v410.16l-54.3 31.08h200.87c-42.49-17.65-56.57-31.48-56.57-85.16v-445.94c33.75-48.67 72.13-80 114-80 48.42 0 86.17 50.02 86.17 170.63v409.39l-54.29 31.08h200.87c-42.49-17.65-56.58-31.48-56.58-85.16v-424.82c0-132.56-49.11-182.3-118.04-182.3-72.62 0-131.5 62.19-173.68 145.64-6.17-114.9-60.59-145.64-113.84-145.64-71.17 0-135.19 67.79-174.56 144.1l3.83-144.1-150.41 29.96c50.75 15.6 56.58 31.34 56.58 72.42zm773.17-280.43c0 205.05 89.24 323.79 197.14 323.79 118.34 0 225.09-147.37 225.09-383.05 0-203.6-91.98-321.51-197.81-321.51-118.12 0-224.42 146-224.42 380.77zm85.92-110.54c0-175.57 45.55-234.11 98.88-234.11 89.27 0 151.29 181.96 151.29 398.21 0 169.86-45.32 234.11-99.11 234.11-89.04 0-151.06-181.96-151.06-398.21zm608.08-227.04c34.41 0 71.41 29.5 104.86 73.39v427.45c-21.89 51.53-55.9 89.03-88.91 89.03-72.74 0-137.63-142.62-137.63-327.35 0-208.8 69.13-262.52 121.68-262.52zm194.86-98.89l4.06-164.3-150.63 28.82c50.98 16.74 57.35 32.48 57.35 72.42v185.15l52.58-20.19c-41.61-31.98-70.48-41.64-100.02-41.64-55.35 0-103.78 20.65-143.68 60.56-67.74 67.74-117.06 194.35-117.06 360.41 0 191.58 80.83 279.03 158.39 279.03 72.54 0 128.56-71.11 149.01-142.36l-3.28 142.36 149.86-28.82c-50.98-16.74-56.58-32.48-56.58-72.42zm105.29 436.98c0 207.12 81.01 323.28 184.35 323.28 97.18 0 175.57-100.53 183.33-327.13l-3.37-.45c-27.07 210.4-88.34 247.48-134.73 247.48-82.95 0-150.78-120.48-150.78-367.6 0-165.71 50.64-220.06 94.85-220.06 68.95 0 116.55 122.16 116.55 280.65l24.51-20.02-256.24 26.13v9.55l318.65 26.92c3.37-23.3 4.82-40.18 4.82-61.21 0-196.97-70.27-299.28-164.53-299.28-114.49 0-217.41 150.71-217.41 381.74zm492.5 26.74l-38.65 256.8c28.66 15.29 88.59 39.74 166.04 39.74 124.03 0 195.42-75.95 196.19-182.38 0-65.42-31.17-114.91-71.2-154.94-45.5-45.5-125.3-88.28-166.43-129.63-32.92-32.93-61.1-67.5-61.1-114.74 0-61.68 46.47-97.6 90.68-97.6 63.46 0 125.52 62.88 156.98 271.04h3.82l44.13-257.35c-24.02-12.96-81.95-38.96-152.94-38.96-118.61 0-193.39 76.93-193.39 181.92 0 60.51 28.31 104.88 66.4 142.97 40.25 40.25 132.78 94.27 170.31 131.8 35.21 35.21 61.1 74.36 61.1 125.23 0 62.59-43.69 97.83-92.93 97.83-70.47 0-149.62-59.46-175.19-271.73zm522.5-357.52v375.99c0 141.76 23.77 193.36 60.04 193.36 22.17 0 40.17-40.82 57.31-159.95-12.55 171.3-59.33 244.66-109.66 244.66-58.44 0-97.69-53.28-97.69-244.67v-352.4c0-61.45-14.32-75.96-56.58-95.21h56.03l77.09-202.54 13.46 202.54h125.44v3.83zm0 0"/></svg>