<svg width="2500" height="1100.002" xmlns="http://www.w3.org/2000/svg"><path d="M2.71 980.292l196.5-35.73v-120.24c64.95-314.81 135.66-424.46 177.48-424.46 37.97 0 37.79 92.62 17.51 208.72l-64.65 371.71 196.5-35.73v-127.45c64.3-309.89 134.35-418.57 176.17-418.57 37.97 0 38.48 91.97 18.19 208.72l-66.62 379.26 231.69-43.44-41.53-81.16 61.58-346.15c30.89-172.74-4.31-246.66-75.15-246.66-44.7 0-89.4 21.84-128.18 60.62-50.74 50.74-97.67 143.36-134.97 270.9l22.95-128.26c24.32-139.21-14.49-201.95-85.33-201.95-42.07 0-87.43 22.5-128.18 63.25-50.74 50.74-100.96 142.05-137.6 268.28l64.85-331.53-239.26 44.76 42.19 65.37zm966.69-252.8c0 162.7 82.44 256.09 211.75 256.09 179.66 0 338.65-190.62 338.65-453.78 0-175.2-84.42-259.38-209.78-259.38-179.66 0-340.62 192.59-340.62 457.07zm173.37 74.78c0-216.65 80.53-519.22 153.17-519.22 30.15 0 50.49 42.86 50.49 170.66 0 216.64-81.85 517.24-154.49 517.24-29.49 0-49.17-48.12-49.17-168.68zm397.6 184.59l111.37-631.95-49.45-41.05 233.03-43.44-61.27 302.62c73.27-266.96 167.28-302.62 223.17-302.62 6.51 0 19.67 7 26.52 11.8l-115.38 405.41h-7.26c2.07-187.48-17.38-246.21-42.09-246.21-24.51 0-68.96 57.92-124.78 379.48v130.24zm922.52-401.97c-11.98 251.84-130.79 398.69-281.71 398.69-103.22 0-195.1-79.88-195.1-248.53 0-139.9 53.08-280.62 142.66-370.2 60.62-60.62 131.16-94.43 210.93-94.43 97.17 0 157.8 48.24 157.8 133.61 0 66.15-35.76 122.31-67.03 153.58-79.7 79.71-192.66 117.2-304.06 136.2l16.44-87.14c24.71 25.04 46.11 46.11 72.08 46.11 26.44 0 45.87-6.08 61.14-21.35 31.43-31.42 47.4-126.31 47.4-213.03 0-76.37-20.42-122.85-49.64-122.85-56.27 0-118.92 178.59-118.92 339.58 0 145.29 60.35 204.78 122.01 204.78 72.31 0 146.41-64.18 178.74-255.02zm0 0"/></svg>