<svg width="2130" height="1100.002" xmlns="http://www.w3.org/2000/svg"><path d="M5.54 971.462l81.75-18.77v-72.76c83.05-406.94 197.84-557.29 249.27-557.29 36.28 0 45.71 68.88 28.24 170.28l-83.85 478.54 81.75-18.77v-72.05c82.95-407.11 197.65-558.18 249.08-558.18 36.28 0 47.52 68.78 30.06 170.28l-84.13 478.74 128.81-29.31-53.97-28.59 77.42-438.85c24.11-136.01-3.19-204.84-63.85-204.84-26.05 0-52.1 11.66-77.32 36.88-55.26 55.26-118.58 186.89-174.53 389.6l41.05-227.74c23.18-131.29-3.76-198.55-64.42-198.55-25.68 0-51.82 11.75-77.32 37.25-55.26 55.26-119.04 186.7-174.9 389.22l76.15-426.47-130.74 29.49 54.06 26.38zm935.18-700.38L810 300.392l54.98 22.95-78.15 443.75c-24.2 136 3.74 204.83 64.4 204.83 25.41 0 51.27-11.66 76.49-36.88 57.98-57.98 138.19-185.97 194.14-389.59l-76.04 426.47 131.63-29.31-54.98-22.95 113.63-649.58-82.57 18.77v71.57c-84.58 407.94-211.08 558.94-267.96 558.94-36.28 0-46.54-68.79-28.98-170.28zm321.36 470.15c.09 154.12 63.8 230.69 129.88 230.69 72.76 0 171.69-89 216.22-331.79h-2.73c-62.42 232.58-142.18 269.73-176.66 269.73-43.91 0-100.64-64.06-100.64-232.1 0-240.53 103.26-392.43 180.27-392.43 54.54 0 85.55 105.14 52.88 352.24h2.74l95.93-326.91c-21.74-15.8-65.29-40.58-115.55-40.58-155.54 0-282.34 214.75-282.34 471.15zm380.74 230.69l82.66-18.77v-70.05c82.01-406.97 211.08-560.46 267.86-560.46 36.28 0 46.54 68.79 28.99 170.28l-84.14 478.1 130.72-29.31-54.98-22.96 78.24-443.84c24.11-136-3.83-204.83-64.49-204.83-25.53 0-51.45 11.57-76.85 36.97-57.99 57.98-138.03 185.89-193.97 389.41l115.8-646.38-83.97 19.23-10.89 139.97zm0 0"/></svg>