<svg width="5213" height="1100.002" xmlns="http://www.w3.org/2000/svg"><path d="M66.11 922.612l-43.56 44.39h262.69c-37.76-24.52-50.13-41.78-50.13-96.76v-417.59c22.19-24.12 49.15-40.5 75.18-40.5 56.92 0 81.4 59.46 81.4 167.71v342.75l-43.56 44.39h262.7c-37.77-24.52-50.14-41.78-50.14-96.76v-417.59c23.88-25.49 49.8-40.5 74.5-40.5 54.86 0 82.74 59.46 82.74 168.05v342.41l-43.56 44.39h262.7c-37.77-24.52-50.14-41.78-50.14-96.76v-403.77c0-141.15-56.84-196.05-136.94-196.05-85.07 0-151.25 68.21-189.98 167.54-2.74-131.64-63.61-167.54-126.73-167.54-82.76 0-156.23 76.81-198.17 166.86l7.26-166.86-226.4 35.55c40.88 18.61 50.14 39.5 50.14 93.88zm1114.03-467.52v202.27c0 107.93 19.32 168.71 78.79 168.71 22.56 0 47.72-12.93 79.73-58.28v-367.94c0-54.38-9.26-75.27-50.13-93.88l226.39-35.55-7.26 184.67v408.92c0 50.44 8.61 68.04 50.14 90.59l-228.37 28.98 9.23-201.1c-47.6 109.03-119.15 197.81-202.25 197.81-74.04 0-125.27-55.55-125.27-192.76v-387.68c0-54.38-9.26-75.27-50.14-93.88l226.4-35.55zm455.65 467.52l-50.13 44.39h269.27c-37.77-22.55-50.14-39.81-50.14-96.76v-632.52l8.58-187.3-227.71 28.98c40.87 22.55 50.13 43.44 50.13 95.85zm467.35-581.94v312.02c0 116.86 23.34 171.46 78.93 171.46 18.74 0 36.74-19.78 56.03-77.08-36.17 145.54-107 236.51-180.51 236.51-74.33 0-123.45-57.58-123.45-221.49v-349.4c0-77.33-13.03-96.57-50.14-125.69h50.45l154.37-201.68 14.32 201.68h141.33v7.26zm213.65 581.94v-527.36c0-52.41-9.26-73.3-50.13-95.85l226.39-28.98-7.26 185.93v413.89c0 56.95 12.37 74.21 50.14 96.76h-269.27zm77.82-689.44c-70.06 0-112.1-36.47-112.1-83.49 0-47.7 40.72-86.79 108.81-86.79 68.75 0 114.73 39.09 114.73 86.79 0 47.02-44.67 83.49-111.44 83.49zm387.53 107.5v312.02c0 116.86 23.34 171.46 78.93 171.46 18.74 0 36.74-19.78 56.03-77.08-36.17 145.54-107 236.51-180.51 236.51-74.33 0-123.45-57.58-123.45-221.49v-349.4c0-77.33-13.03-96.57-50.14-125.69h50.45l154.37-201.68 14.32 201.68h141.33v7.26zm378 114.42v202.27c0 107.93 19.32 168.71 78.79 168.71 22.56 0 47.72-12.93 79.73-58.28v-367.94c0-54.38-9.26-75.27-50.13-93.88l226.39-35.55-7.26 184.67v408.92c0 50.44 8.61 68.04 50.14 90.59l-228.37 28.98 9.23-201.1c-47.6 109.03-119.15 197.81-202.25 197.81-74.04 0-125.27-55.55-125.27-192.76v-387.68c0-54.38-9.26-75.27-50.14-93.88l226.4-35.55zm658.21-135.46c31.39 0 68.39 49.25 102.71 124.91v364.33c-14.16 26.21-33.15 43.96-51.13 43.96-77.89 0-135.05-153.19-135.05-320.48 0-163.3 46.8-212.72 83.47-212.72zm271.71-51.66l7.92-217.55-227.06 32.26c41.54 21.9 50.48 42.79 50.48 93.89v172.27l110.12-41.23c-42.77-18.79-80.78-24.03-109.47-24.03-93.54 0-167.32 27.52-223.97 84.16-72.89 72.9-120.92 194.34-120.92 342.38 0 185.14 84.26 273.46 170.42 273.46 86.7 0 152.16-78.84 173.48-159.97l-7.58 159.97 226.72-32.26c-41.54-21.9-50.14-42.79-50.14-93.89zm96.08 388.03c0 199.82 105.48 327.58 241.46 327.58 133.24 0 223.65-114.71 246.01-304.81l-5.95-1.31c-40.38 128.39-96.49 163.76-154.9 163.76-103.57 0-174.83-115.76-174.83-355.58 0-136.94 33.04-184.42 68.23-184.42 50.06 0 100.67 133.75 100.67 287.52l29.23-29.47-202.14 43.31v8.68l340.54 53.11c5.94-37.04 8.26-61.22 8.26-91.69 0-187.53-89.59-303.57-218.2-303.57-149.27 0-278.38 161.44-278.38 386.89zm613.25 31.89l-60.54 250.79c35.52 19.58 106.62 44.9 199.95 44.9 157.95 0 241.36-96.57 241.71-209.43 0-71.87-27.74-116.63-62.19-151.08-65.25-65.25-193.56-107.6-251.87-166.56-19.61-19.61-44.35-47.75-44.35-80.39 0-38.49 32.3-61.1 67.49-61.1 64.31 0 154.71 70.18 226.53 250.43h7.26l61.3-250.48c-33.46-18.55-102.56-44.55-188.58-44.55-146.08 0-244.91 88.1-244.91 208.12 0 65.23 27.03 112.18 63.4 148.55 50.12 50.12 196.32 113.59 248.02 165.29 26.19 26.19 44.36 52.46 44.36 86.16 0 41.12-29.96 61.76-64.6 61.76-56.3 0-162.07-60.32-235.72-252.41zm0 0"/></svg>