<svg width="2820" height="1100.002" xmlns="http://www.w3.org/2000/svg"><path d="M1 985.002l266-46v-149c54-259 98-344 134-344 39 0 33 107 11 232l-53 307 266-46v-161c53-251 96-334 132-334 39 0 33 106 11 232l-56 319 294-52-34-113 52-290c35-195-5-272-82-272-56 0-112 28-159 75-48 48-85 117-111 199l12-68c25-144-21-204-98-204-52 0-109 29-159 79-48 48-90 115-115 195l58-274-305 54 35 89zm1426-714l-295 52 45 52-60 343c-36 195 11 272 88 272 49 0 103-28 150-75 48-48 91-117 117-199l-47 274 295-52-45-52 110-616-265 46v146c-51 260-94 352-130 352-39 0-42-106-19-232zm655 516c71.04 49.89 81 90.1 81 110 0 19-12 38-40 38-50.96 0-169.88-88.88-252-228h-10l-117 269c39 7 83 14 146 14 292.24 0 396-120 396-247 0-69.04-38-123-116-176l-140-95c-65.96-44.76-76-88.08-76-108 0-19 12-39 40-39 50.85 0 172.37 100.2 245 229h10l127-270c-39-7-83-14-146-14-292.24 0-396 119-396 247 0 67.11 40 124 117 178zm617-497h121v10l-142 56-40 226c-22 126-27 232 12 232 21 0 44-15 77-98h10c-34 180-136 274-241 274-94 0-148-77-115-272l39-228c18-102 15-150-8-195l287-198zm0 0"/></svg>