<svg width="2492.58" height="1100.002" xmlns="http://www.w3.org/2000/svg"><path d="M2.71 980.292l196.5-35.73v-120.24c64.95-314.81 135.66-424.46 177.48-424.46 37.97 0 37.79 92.62 17.51 208.72l-64.65 371.71 196.5-35.73v-127.45c64.3-309.89 134.35-418.57 176.17-418.57 37.97 0 38.48 91.97 18.19 208.72l-66.62 379.26 231.69-43.44-41.53-81.16 61.58-346.15c30.89-172.74-4.31-246.66-75.15-246.66-44.7 0-89.4 21.84-128.18 60.62-50.74 50.74-97.67 143.36-134.97 270.9l22.95-128.26c24.32-139.21-14.49-201.95-85.33-201.95-42.07 0-87.43 22.5-128.18 63.25-50.74 50.74-100.96 142.05-137.6 268.28l64.85-331.53-239.26 44.76 42.19 65.37zm1240.32-708.87L1010 314.862l48.77 41.05-66.85 381c-31.55 172.75 8.26 246.67 79.1 246.67 40.09 0 83.48-21.84 122.26-60.62 51.77-51.77 108.81-143.03 146.11-270.91l-57.96 331.53 233.37-43.44-48.77-41.05 111.37-628.67-196.18 35.73v117.93c-63.67 315.81-138.17 430.06-182.04 430.06-37.97 0-43.71-91.96-22.77-208.72zm595.99 469.78c64.18 50.27 79.97 89.38 79.97 125.41 0 46.05-32.2 75.66-72.18 75.66-58.5 0-148.01-75.23-202.01-224.57h-7.26l-90.3 249.82c36.95 8.37 75.47 16.06 138.13 16.06 236.69 0 330.6-111.07 330.6-228.17 0-65.26-33.2-117.87-102.64-170.87l-105.76-76.17c-56.05-42.1-77.03-82.91-77.03-122.38 0-46.04 28.09-74.26 68.07-74.26 58.44 0 147.59 82.67 195.36 225.23h7.26l96.87-250.48c-36.95-8.37-73.42-16.06-136.07-16.06-236.69 0-326.5 108.73-326.5 225.43 0 70.16 36.92 119.55 104.33 171.84zm532.21-454.2h121.35v7.26l-135.5 49.84-53.35 304.06c-21.32 121.89-18.44 204.27 15.76 204.27 23.74 0 50.85-24.25 86.25-134.29h7.26c-33.66 182.05-116.83 265.44-201.97 265.44-76.19 0-123.69-67.76-92.74-248.38l44.82-258.47c18-102.34 15.34-142.13-3.55-185.07l217.84-190.81zm0 0"/></svg>