<svg width="1953.92" height="1100.002" xmlns="http://www.w3.org/2000/svg"><path d="M5.54 971.462l81.75-18.77v-72.76c83.05-406.94 197.84-557.29 249.27-557.29 36.28 0 45.71 68.88 28.24 170.28l-83.85 478.54 81.75-18.77v-72.05c82.95-407.11 197.65-558.18 249.08-558.18 36.28 0 47.52 68.78 30.06 170.28l-84.13 478.74 128.81-29.31-53.97-28.59 77.42-438.85c24.11-136.01-3.19-204.84-63.85-204.84-26.05 0-52.1 11.66-77.32 36.88-55.26 55.26-118.58 186.89-174.53 389.6l41.05-227.74c23.18-131.29-3.76-198.55-64.42-198.55-25.68 0-51.82 11.75-77.32 37.25-55.26 55.26-119.04 186.7-174.9 389.22l76.15-426.47-130.74 29.49 54.06 26.38zm935.18-700.38L810 300.392l54.98 22.95-78.15 443.75c-24.2 136 3.74 204.83 64.4 204.83 25.41 0 51.27-11.66 76.49-36.88 57.98-57.98 138.19-185.97 194.14-389.59l-76.04 426.47 131.63-29.31-54.98-22.95 113.63-649.58-82.57 18.77v71.57c-84.58 407.94-211.08 558.94-267.96 558.94-36.28 0-46.54-68.79-28.98-170.28zm499.26 393.47c52.85 50.9 78.28 88.19 78.28 150.84 0 90.7-65.55 137.84-125.32 137.84-70.96 0-111.9-52.69-119.49-218.93h-2.74l-46.2 218.18c33.55 10.63 63.03 19.44 125.12 19.44 144.99 0 222.65-94.68 222.65-197.08 0-59.02-25.3-109.38-80.61-162.38l-49.24-45.09c-39.67-37.71-78.72-74.39-78.72-146.11 0-90.71 54.66-132.49 114.43-132.49 70.95 0 106.68 53.73 113.39 219.02h2.74l47.13-218.27c-33.55-10.63-57.58-19.44-119.68-19.44-144.99 0-211.75 91.77-211.75 189.82 0 75.18 31.83 112.2 83.42 161.66zm392.04-383.55h121.9v2.74l-124.75 39.66-75.4 432.94c-20.18 115.11-4.31 158.48 21.99 158.48 28.26 0 62.15-39.5 101.5-194.21h2.74c-33.09 185.45-85.17 251.31-137.53 251.31-46.81 0-83.56-52.49-56.01-209.37l54.43-308.78c18-102.91 15.91-129.12 3.8-168.68l103.66-178.94zm0 0"/></svg>