<svg width="5105" height="1100.002" xmlns="http://www.w3.org/2000/svg"><path d="M0 985.002l107-611-45-52 295-52-47 273c25.82-80.92 67-149 115-197 49-49 103.64-76 154-76 77 0 120 77 87 272l-58 339 45 52-295 52 55-307c23-126 20-232-19-232-35 0-96 119-129 339l1 154zm1386-615l65-55c-81-32-146-45-213-45-137 0-281 57-383 165-102 109-150 266-150 376 0 109 47 178 127 178 41 0 85-18 128-61 41-41 94-116 135-248l-63 310 306-54-45-52zm-381 442c-24 0-34-47-34-106 0-120 41-336 86-381 8-8 17-12 27-12 28 0 54 20 74 48-59 309-121 451-153 451zm767-522h121v10l-142 56-40 226c-22 126-27 232 12 232 21 0 44-15 77-98h10c-34 180-136 274-241 274-94 0-148-77-115-272l39-228c18-102 15-150-8-195l287-198zm424-19l-295 52 45 52-60 343c-36 195 11 272 88 272 49 0 103-28 150-75 48-48 91-117 117-199l-47 274 295-52-45-52 110-616-265 46v146c-51 260-94 352-130 352-39 0-42-106-19-232zm353 724l110-621-45-52 295-52-64 292c76-256 182-292 242-292l7 7-139 478h-10c-13-182-28-251-51-251-18 0-43.94 56.84-83 286v159zm1153-625l65-55c-81-32-146-45-213-45-137 0-281 57-383 165-102 109-150 266-150 376 0 109 47 178 127 178 41 0 85-18 128-61 41-41 94-116 135-248l-63 310 306-54-45-52zm-381 442c-24 0-34-47-34-106 0-120 41-336 86-381 8-8 17-12 27-12 28 0 54 20 74 48-59 309-121 451-153 451zm793-762l-270 51v179l-124 705 295-52-45-52zm356 0l-270 51v179l-124 705 295-52-45-52zm635 220l-258 46v144c-13 112-43 206-79 242-10 10-21 16-32 16-24 0-32-33-32-90 0-91 30-236 58-358l-262 130 90 116c-61 55-148 149-148 249 0 83 54 127 120 127 49 0 105-24 150-69 40-40 73-94 98-159l-38 215c-24 135-58 152-84 152-39 0-134-67-223-163h-10l-95 202c38 13 69 20 123 20 132 0 255-42 376-163 95-95 161-174 198-386zm0 0"/></svg>