<svg width="3450" height="1100.002" xmlns="http://www.w3.org/2000/svg"><path d="M3.63 971.462l113.35-649.12L62 299.392l130.72-29.31-75.13 426.38c55.93-203.52 135.98-331.43 193.96-389.41 25.4-25.4 51.32-36.97 76.85-36.97 60.67 0 88.24 68.83 64.31 204.83l-77.97 443.38 54.99 22.95-130.72 29.31 84.04-477.63c17.55-101.49 7.29-170.28-28.98-170.28-55.88 0-184.95 156.21-267.87 553.2l.09 76.85zm934.38-609.55l38.67-78.6c-33.8-9.31-66.13-13.23-97.73-13.23-87.99 0-150.3 37.94-207.83 96.02-106.54 107.18-170.88 291.41-170.88 444.98 0 110.81 30.67 160.75 82.53 160.75 22.85 0 47.79-10.74 72.64-35.59 54.61-54.61 123.04-190.42 197.62-466.73l-92.95 501.51 131.74-28.59-54.98-23.86zm-319.29 557.26c-31.26 0-47.61-44.27-47.61-135.04 0-162.66 66.41-361.41 125.93-420.93 32.51-32.51 59.66-51.94 108.69-51.94 29.81 0 58.54 3.66 75.81 8.07-113.45 449.68-211.76 599.84-262.82 599.84zm532.3-638.17h121.9v2.74l-124.75 39.66-75.4 432.94c-20.18 115.11-4.31 158.48 21.99 158.48 28.26 0 62.15-39.5 101.5-194.21h2.74c-33.09 185.45-85.17 251.31-137.53 251.31-46.81 0-83.56-52.49-56.01-209.37l54.43-308.78c18-102.91 15.91-129.12 3.8-168.68l103.66-178.94zm284.7-9.92L1305 300.392l54.98 22.95-78.15 443.75c-24.2 136 3.74 204.83 64.4 204.83 25.41 0 51.27-11.66 76.49-36.88 57.98-57.98 138.19-185.97 194.14-389.59l-76.04 426.47 131.63-29.31-54.98-22.95 113.63-649.58-82.57 18.77v71.57c-84.58 407.94-211.08 558.94-267.96 558.94-36.28 0-46.54-68.79-28.98-170.28zm298.91 701.31l113.63-650.05-56.8-22.95 130.72-29.31-56.73 320.13c68.73-285.04 142.97-320.13 192.08-320.13 17.24 0 40.58 7 58.73 19.7l-76.37 285.59h-2.74c26.93-196.52.13-238.29-27.41-238.29-35.24 0-110.25 59.7-193.72 533.77v82.76zm790.38-610.48l38.67-78.6c-33.8-9.31-66.13-13.23-97.73-13.23-87.99 0-150.3 37.94-207.83 96.02-106.54 107.18-170.88 291.41-170.88 444.98 0 110.81 30.67 160.75 82.53 160.75 22.85 0 47.79-10.74 72.64-35.59 54.61-54.61 123.04-190.42 197.62-466.73l-92.95 501.51 131.74-28.59-54.98-23.86zm-319.29 557.26c-31.26 0-47.61-44.27-47.61-135.04 0-162.66 66.41-361.41 125.93-420.93 32.51-32.51 59.66-51.94 108.69-51.94 29.81 0 58.54 3.66 75.81 8.07-113.45 449.68-211.76 599.84-262.82 599.84zm578.26-869.09l-83.03 21.04-9.98 138.16-134.89 762.18 128.9-29.31-54.98-22.95zm205 0l-83.03 21.04-9.98 138.16-134.89 762.18 128.9-29.31-54.98-22.95zm453.15 220l-79.21 18.77v71.39c-50.98 299.64-113.79 451.05-170.66 507.93-19.99 19.98-39.49 28.7-57.42 28.7-60.3 0-83.73-82.91-83.73-169.86 0-149.09 81.73-274.12 179.62-456.93l-181.22 45.59 101.79 70.62c-72.79 105.82-166.15 263.36-166.15 415.09 0 106.6 44.02 152.41 99.13 152.41 31.75 0 65.06-15.83 97.36-48.12 57.24-57.25 102.04-154.81 135.21-285.16l-41.63 244.95c-26.29 151.88-124.26 191.94-194.73 191.94-61.69 0-104.05-36.14-114.09-180.25h-2.74l-38.73 179.31c47.79 12 95.33 15.46 124.82 15.46 90.25 0 153.35-31.1 204.46-82.22 56.88-56.88 86.36-123.2 101.8-213.55zm0 0"/></svg>