<svg width="2555.74" height="1100.002" xmlns="http://www.w3.org/2000/svg"><path d="M2.35 977.072l111.11-635.66L62 308.202l188.76-37.33-65.19 372.2c45.29-160.21 111.6-266.98 166.06-321.44 33.74-33.74 69.81-50.76 104.11-50.76 66.43 0 99.46 71.72 72.33 228.56l-70.92 406.5 51.46 33.22-188.76 37.33 73.78-417.35c19.48-110.15 11.78-192.09-25.46-192.09-48.5 0-153.52 143.07-218.8 477.53l.41 104.1zm1012.61-379.27c-20.55 256.74-134.22 381.33-255.79 381.33-91.24 0-170.89-85.5-170.89-244.61 0-146.26 55.29-297.5 142.42-384.63 50.34-50.35 108.41-79.02 173.02-79.02 83.71 0 143.37 45.54 143.37 131.89 0 61.26-29.16 121.83-67.76 160.44-71.63 71.63-174.57 104.47-287.68 123.47l10.33-72.95c25.93 17.21 49.04 31.19 74.28 31.19 38.17 0 69.35-8.28 91.96-30.89 33.87-33.87 49.11-116.52 49.11-195.91 0-77.35-22.87-127.74-57.96-127.74-63.61 0-143.87 185.43-143.87 364.28 0 144.07 52.04 216.76 113.46 216.76 62.52 0 139.56-60.02 180.69-273.61zm486 0c-20.55 256.74-134.22 381.33-255.79 381.33-91.24 0-170.89-85.5-170.89-244.61 0-146.26 55.29-297.5 142.42-384.63 50.34-50.35 108.41-79.02 173.02-79.02 83.71 0 143.37 45.54 143.37 131.89 0 61.26-29.16 121.83-67.76 160.44-71.63 71.63-174.57 104.47-287.68 123.47l10.33-72.95c25.93 17.21 49.04 31.19 74.28 31.19 38.17 0 69.35-8.28 91.96-30.89 33.87-33.87 49.11-116.52 49.11-195.91 0-77.35-22.87-127.74-57.96-127.74-63.61 0-143.87 185.43-143.87 364.28 0 144.07 52.04 216.76 113.46 216.76 62.52 0 139.56-60.02 180.69-273.61zm227.63 284.33c-28.7 0-42.22-45.24-42.22-124.78 0-145.11 55.26-342.44 108.83-396 23.84-23.85 44.58-37.83 79.82-37.83 29.18 0 56.52 12.74 73.59 25.48-86.44 375.61-176.11 533.13-220.02 533.13zm325.56-589.41c-26.67-5.48-52.52-7.72-77.78-7.72-104.89 0-197.72 39.3-268.07 112.13-104.93 107.83-162.32 276.57-162.32 414.74 0 110.17 36.43 166.85 98.24 166.85 29.26 0 60.93-13.31 92.19-44.57 49.81-49.8 112.79-163.54 175.5-388.87l-80.02 433.26 192.72-38.15-51.46-33.22 151.94-856.3-143.79 29.22c0 28.17-1.76 102.34-7.63 132.28l-20.41 110.78zm267.46 415.91c59.27 50.54 79.24 88.87 79.24 136.41 0 65.37-46.63 102.57-95.18 102.57-63.89 0-132.38-65.48-166.3-222.13h-5.3l-71.22 236.13c35.48 9.35 70.08 17.52 132.5 17.52 197.01 0 283.89-103.98 283.89-214.72 0-62.56-29.78-114.19-93.11-167.19l-81.3-62.72c-48.96-40.2-77.76-79.23-77.76-132.65 0-65.37 39.58-99.46 88.13-99.46 63.85 0 129.89 70.15 159.89 222.54h5.3l75.35-236.54c-35.48-9.35-66.57-17.52-128.98-17.52-197.01 0-276.85 101.39-276.85 210.02 0 72.33 34.72 116.37 95.29 167.44zm0 0"/></svg>