<svg width="2326.17" height="1100.002" xmlns="http://www.w3.org/2000/svg"><path d="M3.09 974.142l112.4-643.41L62 303.422l155.32-32.7-70.93 403.42c51.43-185.17 125.65-304.12 182.14-360.61 28.94-28.93 59.16-42.81 88.4-42.81 63.11 0 92.99 70.05 67.71 214.89l-74.98 427.75 53.49 27.3-155.31 32.71 79.69-452.09c18.37-105.16 9.2-179.52-27.49-179.52-52.75 0-171.63 150.64-247.07 521.13l.23 88.4zm930.65-367.06c-27.01 260.43-136.81 368.2-236.2 368.2-82.18 0-152.59-89.75-152.59-241.65 0-151.06 56.94-310.25 142.22-395.53 42.59-42.59 91.23-67.38 144.38-67.38 73.56 0 132.47 43.51 132.47 130.6 0 57.56-24.16 121.45-68.31 165.6-65.54 65.54-160.89 94.87-275.3 113.87l5.71-62.24c26.86 11.31 51.26 19.93 75.95 19.93 47.04 0 87.08-9.95 115.23-38.1 35.72-35.72 50.41-109.13 50.41-182.98 0-78.08-24.72-131.43-64.24-131.43-69.15 0-162.72 190.61-162.72 382.94 0 143.14 45.76 225.82 106.99 225.82 55.13 0 134.39-56.88 182.17-287.65zm431.77-318.37l-42.71 518.64c-44.27 84.35-81.59 123.16-126.09 123.16-59.67 0-101.64-77.63-101.64-193.02 0-145.38 67.81-285.37 162.96-466.77l-199.48 58.23 103.63 78.18c-77.56 100.52-157.26 242.02-157.26 386.01 0 113.91 52.94 182.14 141.38 182.14 51.82 0 99.74-26.79 134.47-61.52 113.69-113.68 171.15-337.59 189.94-633.96zm512.23 318.37c-27.01 260.43-136.81 368.2-236.2 368.2-82.18 0-152.59-89.75-152.59-241.65 0-151.06 56.94-310.25 142.22-395.53 42.59-42.59 91.23-67.38 144.38-67.38 73.56 0 132.47 43.51 132.47 130.6 0 57.56-24.16 121.45-68.31 165.6-65.54 65.54-160.89 94.87-275.3 113.87l5.71-62.24c26.86 11.31 51.26 19.93 75.95 19.93 47.04 0 87.08-9.95 115.23-38.1 35.72-35.72 50.41-109.13 50.41-182.98 0-78.08-24.72-131.43-64.24-131.43-69.15 0-162.72 190.61-162.72 382.94 0 143.14 45.76 225.82 106.99 225.82 55.13 0 134.39-56.88 182.17-287.65zm42.35 369.34l113.08-645.69-55.03-27.31 155.32-32.7-57.83 315.92c69.83-280.69 148.82-315.92 199.55-315.92 14.67 0 35.56 7 50.99 17.8l-85.75 314.39h-3.82c20.95-194.34-4.08-240.19-30.94-240.19-32.66 0-100.32 59.28-177.15 496.68v94.18zm0 0"/></svg>