<svg width="2465" height="1100.002" xmlns="http://www.w3.org/2000/svg"><path d="M69.04 928.202l-53.8 36.8h231.61c-40.46-23.5-53.81-38.8-53.81-90.15v-402.33c40.48-73.56 69.63-94.41 98.31-94.41 51.19 0 83.45 54.5 83.45 169.52v380.57l-49.67 36.8h227.48c-40.46-23.5-53.81-38.8-53.81-90.15v-417.83c0-133.78-48.54-186.15-114.76-186.15-76.74 0-145.11 80.85-191 183.54l5.31-183.54-183.11 32.37c46.5 16.89 53.8 34.85 53.8 81.65zm529.76-274.2c0 203.98 91.55 325.13 208.94 325.13 112.69 0 196.26-106.63 210.3-317.52l-4.47-.83c-32.81 175.11-91.85 211.46-143.42 211.46-91.82 0-161.13-118.46-161.13-362.44 0-153.32 43.07-204.71 83.39-204.71 60.83 0 109.72 127.15 109.72 283.61l26.54-24.09-232.95 33.52v9.17l328.06 38.2c4.48-29.22 6.31-49.24 6.31-74.33 0-192.91-78.59-301.13-187.63-301.13-129.46 0-243.66 155.33-243.66 383.96zm657.18 227.48l22.93 89.39h87.37c7-44.74 15.76-83.15 31.61-129.44l178.41-556.43h-176.56c26.33 143.08 37.69 332.43-21.94 572.78l-155.78-495.71-8.69-77.07H1062.7zm347.82-227.48c0 203.98 91.55 325.13 208.94 325.13 112.69 0 196.26-106.63 210.3-317.52l-4.47-.83c-32.81 175.11-91.85 211.46-143.42 211.46-91.82 0-161.13-118.46-161.13-362.44 0-153.32 43.07-204.71 83.39-204.71 60.83 0 109.72 127.15 109.72 283.61l26.54-24.09-232.95 33.52v9.17l328.06 38.2c4.48-29.22 6.31-49.24 6.31-74.33 0-192.91-78.59-301.13-187.63-301.13-129.46 0-243.66 155.33-243.66 383.96zm528.83 274.2v-543.31c0-46.8-7.3-64.76-53.8-81.65l183.1-32.37-4.82 259.65c18.78-160.04 79.69-256.76 148.26-256.76 16 0 36.87 5.35 56.39 22.33l-49.43 354.3h-5.31c-15.26-176.87-45.26-244.85-75.09-244.85-33.52 0-75.3 77.98-75.3 270.2v199.11c0 51.35 13.35 66.65 53.8 90.15h-231.6zm0 0"/></svg>