<svg width="2357.025" height="1100.002" xmlns="http://www.w3.org/2000/svg"><path d="M0 985.002l107-611-45-52 295-52-47 273c25.82-80.92 67-149 115-197 49-49 103.64-76 154-76 77 0 120 77 87 272l-58 339 45 52-295 52 55-307c23-126 20-232-19-232-35 0-96 119-129 339l1 154zm732-273c0 174 97 278 259 278 198 0 377-180 377-437 0-193-100-283-256-283-198 0-380 183-380 442zm235 121c0-205 73-549 134-549 16 0 32 23 32 146 0 205-75 546-136 546-15 0-30-31-30-143zm1160-523l227-40c18 230-45 480-171 606-63 63-141 114-234 114-94 0-189-54-189-240 0-37 4-79 12-126h169c-13 78-60 177-138 255-64 64-141 111-243 111-129 0-174-80-174-171 0-109 60-220 159-303l-91-118 292-128c-54 130-115 348-115 526 0 71 6 160 29 160 26 0 49-88 64-170l86-475 240-40-64 355c-9 51-13 98-13 139 0 110 29 181 75 181h8zm0 0"/></svg>