<svg width="1646" height="1100.002" xmlns="http://www.w3.org/2000/svg"><path d="M3.63 971.462l113.35-649.12L62 299.392l130.72-29.31-75.13 426.38c55.93-203.52 135.98-331.43 193.96-389.41 25.4-25.4 51.32-36.97 76.85-36.97 60.67 0 88.24 68.83 64.31 204.83l-77.97 443.38 54.99 22.95-130.72 29.31 84.04-477.63c17.55-101.49 7.29-170.28-28.98-170.28-55.88 0-184.95 156.21-267.87 553.2l.09 76.85zm512.72-219.45c0 144.05 58.43 219.91 133.75 219.91 149.4 0 275.35-208.13 275.35-481.47 0-145.8-58.7-220.37-133.47-220.37-149.4 0-275.63 208.41-275.63 481.93zm71.63-1.53c0-235.86 92.97-470.03 184.83-470.03 53.51 0 81.01 75.64 81.01 211.34 0 235.86-93.15 469.76-185.01 469.76-53.42 0-80.83-76.38-80.83-211.07zm971.32-464l75.43-12.77c-23.75 305.33-64.06 549.88-160.1 645.93-16.72 16.71-56.6 52.28-98.77 52.28-66.77 0-110.04-75.78-110.04-195.52 0-60.6 10.35-112.58 21.08-173.2l22.87-.91c-22.98 137-46.38 262.32-101.69 317.63-27.7 27.69-60.23 52-102.32 52-75.46 0-118.64-70.92-118.64-171 0-163.45 82.69-307.13 161.72-411.91l-105.52-73.53 184-45.4c-100.29 183.54-172.18 335.29-172.18 510.57 0 80.98 28.69 147.29 79.82 147.29 42.34 0 99.83-74.39 134.8-269.84l66.94-371.53 68.46-12.77-64.91 369.52c-6.28 38.29-12.09 77.13-12.09 116.31 0 94.57 22.64 167.39 78.63 167.39 45.38 0 79.7-52.65 112.37-117.09zm0 0"/></svg>