<svg width="1592" height="1100.002" xmlns="http://www.w3.org/2000/svg"><path d="M72.89 934.142l-58.61 26.86h182.23c-43.99-16.13-58.62-28.86-58.62-81.49v-409.06c53.31-108.84 88.55-138.35 125.24-138.35 46.39 0 86.98 47.13 86.98 171.45v430.59l-57.69 26.86h181.31c-43.99-16.13-58.62-28.86-58.62-81.49v-431.94c0-129.29-45.01-177.49-100.97-177.49-68.4 0-132.6 74.75-176.25 180.01l2.74-180.01-126.35 28.2c53.87 14.64 58.61 28.75 58.61 65.62zm449.26-283.16c0 203.84 81.36 320.94 179.2 320.94 108.02 0 205.39-146.55 205.39-381.83 0-202.64-82.46-320.01-179.47-320.01-107.93 0-205.12 146-205.12 380.9zm60.37-98.31c0-185.35 50.58-244.16 109.07-244.16 95.66 0 154.69 167.7 154.69 380.82 0 183.04-50.49 244.16-109.16 244.16-95.57 0-154.6-167.7-154.6-380.82zm374.46-271.67l140.13 582.04 22.37 97.96h24.07c12-39.03 25.1-88.97 37.93-138.74l92.38-370.49 93.23 406.74 22.35 102.49h30.91c9-43.57 19.91-90.03 30.74-136.16l128.57-543.84h-77.11c-11.82 188.73-32.17 393.57-68.11 576.27l-115.2-477.32-16.75-98.95h-40.02c-16.63 172.27-57.92 386.67-102.01 578.99l-109.18-467.42-9.95-111.57zm0 0"/></svg>