<svg width="3850" height="1100.002" xmlns="http://www.w3.org/2000/svg"><path d="M26.85 650.772c0 208.91 114.14 332.81 253.8 332.81 150.98 0 287.36-149.95 287.36-386.92 0-206.61-122.04-326.24-255.78-326.24-150.32 0-285.38 146-285.38 380.35zm166.63-149.19c0-144.65 29.67-202.34 66.68-202.34 69.09 0 140.56 227.05 140.56 453.18 0 128.21-29.01 202.34-67.34 202.34-68.43 0-139.9-227.05-139.9-453.18zm636.23 317.85v-374.31c14.17-26.2 33.15-43.95 51.13-43.95 77.89 0 135.06 156.73 135.06 327.72 0 163.29-46.81 212.71-83.48 212.71-32.08 0-68.39-48.56-102.71-122.17zm7.58-769.01l-226.71 32.26c41.53 21.9 50.13 42.79 50.13 93.89v774.95c45.97 21.06 103.07 32.06 160.75 32.06 202.14 0 352.15-183.65 352.15-439.71 0-185.13-83.96-273.45-170.41-273.45-86.71 0-152.52 79.53-173.83 158.94zm450.1 637.47l-60.54 250.79c35.52 19.58 106.62 44.9 199.95 44.9 157.95 0 241.36-96.57 241.71-209.43 0-71.87-27.74-116.63-62.19-151.08-65.25-65.25-193.56-107.6-251.87-166.56-19.61-19.61-44.35-47.75-44.35-80.39 0-38.49 32.3-61.1 67.49-61.1 64.31 0 154.71 70.18 226.53 250.43h7.26l61.3-250.48c-33.46-18.55-102.56-44.55-188.58-44.55-146.08 0-244.91 88.1-244.91 208.12 0 65.23 27.03 112.18 63.4 148.55 50.12 50.12 196.32 113.59 248.02 165.29 26.19 26.19 44.36 52.46 44.36 86.16 0 41.12-29.96 61.76-64.6 61.76-56.3 0-162.07-60.32-235.72-252.41zm440.46-39.78c0-222.19 125.14-374.4 316.31-374.4 64.7 0 119.51 17.37 159.95 34.34l-98.5 401.86h-7.26c-53.78-283.76-109.7-399.62-161.58-399.62-33.3 0-61.73 66.9-61.73 181.22-.69 212.44 80.86 340.51 195.34 340.51 32.79 0 88.75-16.3 133.08-119.71-26.31 163.28-99.23 270.61-235.75 270.61-131.14 0-239.86-125.15-239.86-334.81zm729.29-193.02v202.27c0 107.93 19.32 168.71 78.79 168.71 22.56 0 47.72-12.93 79.73-58.28v-367.94c0-54.38-9.26-75.27-50.13-93.88l226.39-35.55-7.26 184.67v408.92c0 50.44 8.61 68.04 50.14 90.59l-228.37 28.98 9.23-201.1c-47.6 109.03-119.15 197.81-202.25 197.81-74.04 0-125.27-55.55-125.27-192.76v-387.68c0-54.38-9.26-75.27-50.14-93.88l226.4-35.55zm452.31 467.52v-522.76c0-54.38-9.26-75.27-50.13-93.88l226.39-35.55-5.31 271.88c22.2-168.35 88.99-267.27 164.4-267.27 16 0 34.42 4.37 52.48 17.19l-65.09 412.51h-7.26c-20.15-174.43-50.15-249.5-80.47-249.5-32.05 0-66.01 73.82-66.01 228.87v186.14c0 50.37 12.37 67.63 50.14 96.76h-269.27zm414.69-266.61c0 199.82 105.48 327.58 241.46 327.58 133.24 0 223.65-114.71 246.01-304.81l-5.95-1.31c-40.38 128.39-96.49 163.76-154.9 163.76-103.57 0-174.83-115.76-174.83-355.58 0-136.94 33.04-184.42 68.23-184.42 50.06 0 100.67 133.75 100.67 287.52l29.23-29.47-202.14 43.31v8.68l340.54 53.11c5.94-37.04 8.26-61.22 8.26-91.69 0-187.53-89.59-303.57-218.2-303.57-149.27 0-278.38 161.44-278.38 386.89zm0 0"/></svg>