<svg width="2979" height="1100.002" xmlns="http://www.w3.org/2000/svg"><path d="M38.15 650.982c0 203.84 81.36 320.94 179.2 320.94 108.02 0 205.39-146.55 205.39-381.83 0-202.64-82.46-320.01-179.47-320.01-107.93 0-205.12 146-205.12 380.9zm60.37-98.31c0-185.35 50.58-244.16 109.07-244.16 95.66 0 154.69 167.7 154.69 380.82 0 183.04-50.49 244.16-109.16 244.16-95.57 0-154.6-167.7-154.6-380.82zm496.02 329.15v-455.7c24.34-59.54 63.1-103.29 100.87-103.29 71.11 0 138.44 139.77 138.44 330.53 0 223.21-76.19 278.29-133.77 278.29-37.17 0-72.36-21.44-105.54-49.83zm1.92-831.74l-125.54 27.74c53.97 15.1 58.62 29.21 58.62 65.61v793.05c44.28 24.44 86.68 35.44 124 35.44 124.67 0 236.85-161.6 236.85-421.05 0-193.61-79.7-280.79-154.59-280.79-68.04 0-121.98 70.47-142.17 134.06zm401.4 625.03l-31.71 258.71c26.48 13.92 82.88 38.1 155.3 38.1 113.3 0 180.89-69.43 181.79-173.82 0-63.38-32.26-114.37-74.06-156.17-39.25-39.25-103.69-82.15-139.38-117.94-37.14-37.14-66.4-73.75-66.4-125.61 0-69.01 50.95-109.15 98.01-109.15 63.19 0 116.29 60.57 134.97 277.57h2.74l38.7-259.52c-21.04-11.2-75.44-37.2-141.67-37.2-109.92 0-177.09 73.4-177.09 173.63 0 59.02 28.72 102.57 67.35 141.2 37.13 37.13 112.68 88.16 145.73 121.21 38.06 38.06 66.39 81.29 66.39 137.59 0 69.38-48.04 109.24-101.9 109.24-74.95 0-145.68-59.18-156.03-277.84zm382.29-26.22c0-234.06 92.36-378.35 211.19-378.35 46.05 0 88.99 19.63 115.3 34.91l-46.5 330.64h-2.74c1.03-227.24-49.8-334.63-114.67-334.63-51.95 0-107.52 81.6-107.52 257.53-1.81 239.56 72.39 351.24 133.17 351.24 40.7 0 114.75-34.95 138.16-267.79-3.69 242.97-71.52 329.39-157.75 329.39-98.36 0-168.64-113.85-168.64-322.94zm499.46-235.98v323.23c0 124.32 39.68 171.54 86.71 171.54 36.69 0 72.03-29.32 125.52-137.97v-405.81c0-36.87-4.74-50.98-58.62-65.62l126.36-28.2-2.74 142.83v466.58c0 36.31 4.64 49.96 58.61 65.16l-126.63 27.27 3.02-186.4c-43.65 110.72-107.85 185.94-176.25 185.94-55.96 0-100.98-48.2-100.98-177.49v-430.07c0-36.87-4.73-50.98-58.61-65.62l126.35-28.2zm414.19 521.23v-570.24c0-36.87-4.74-50.98-58.62-65.62l126.36-28.2-4.19 243.62c14.3-149.15 67.51-242.98 127.1-242.98 16 0 40.08 6.63 61.52 29.06l-28.91 277.99h-2.74c-8.85-180.07-38.85-238.75-68.03-238.75-35.45 0-87.49 83.43-87.49 324.38v216.11c0 52.63 14.63 65.36 58.61 81.49h-182.23zm301.81-284.14c0 209.43 73.27 321.92 166.29 321.92 85.76 0 160.35-96.05 163.49-334.19l-2.55-.19c-22.87 236.36-85.76 273.99-128.35 273.99-76.43 0-143.17-121.99-143.17-371.42 0-174.81 56.21-231.33 103.27-231.33 74.94 0 121.58 118.5 121.58 278.48l23.02-17.03-273.36 20.69v9.82l311.71 18.63c2.56-18.95 3.74-33.52 3.74-51.55 0-199.97-64.15-297.93-147.55-297.93-103.48 0-198.12 147.31-198.12 380.11zm0 0"/></svg>