<svg width="796.71" height="1100.002" xmlns="http://www.w3.org/2000/svg"><path d="M25.35 752.012c0 144.05 58.43 219.91 133.75 219.91 149.4 0 275.35-208.13 275.35-481.47 0-145.8-58.7-220.37-133.47-220.37-149.4 0-275.63 208.41-275.63 481.93zm71.63-1.53c0-235.86 92.97-470.03 184.83-470.03 53.51 0 81.01 75.64 81.01 211.34 0 235.86-93.15 469.76-185.01 469.76-53.42 0-80.83-76.38-80.83-211.07zm547.47-431.26l94.35-35.48v-2.74h-86.98c16-93.48 61-168.76 144.89-230l-7.26-.92C667.02 107.262 617.2 184.272 585 281.002h-25.14v2.74c12.38 9.18 19.49 28.2 10.31 79.4l-124.63 708.78 68.74-12.14zm0 0"/></svg>