<svg width="1026.79" height="1100.002" xmlns="http://www.w3.org/2000/svg"><path d="M21.4 727.492c0 162.7 82.44 256.09 211.75 256.09 179.66 0 338.65-190.62 338.65-453.78 0-175.2-84.42-259.38-209.78-259.38-179.66 0-340.62 192.59-340.62 457.07zm173.37 74.78c0-216.65 80.53-519.22 153.17-519.22 30.15 0 50.49 42.86 50.49 170.66 0 216.64-81.85 517.24-154.49 517.24-29.49 0-49.17-48.12-49.17-168.68zm684.28-463.49l90.4-44.52v-7.26h-80.77c16-102.52 61-179.49 138.11-230l-2.74-6.58c-180.07 21.57-265.5 104.81-305.05 236.58h-44.36v7.26c20.87 10.32 34.76 35.55 24.44 94.1l-122.37 695.22 177.26-31.36zm0 0"/></svg>