<svg width="5515" height="1100.002" xmlns="http://www.w3.org/2000/svg"><path d="M20 650.002c0 212 134 340 299 340 177 0 337-152 337-390 0-209-146-330-302-330-176 0-334 146-334 380zm231-180c0-120 17-177 41-177 53 0 132 263 132 497 0 95-16 177-42 177-52 0-131-263-131-497zm717-114v508c0 56 11 76 45 106H691l45-55v-519c0-59-15-80-55-96v-10h55c20-121 135-240 351-240v10c-94 50-119 125-119 230h101v10zm132 554l-50 60h352c-34-27-50-49-50-108v-302l124 205h10v-420h-10l-124 205v-423h10c97 0 167 181 230 476h10l82-493h-633c34 24 50 46 50 111zm644 5l-45 55h322c-34-27-45-47-45-106v-600l12-214-289 30c33 27 45 52 45 114zm644-221v133c-17 5-23 8-36 8-47 0-70-34-70-104 0-40 8-65 23-80 6-6 13-9 22-9 16 0 35 19 61 52zm231-222c0-142-53-202-140-202-100 0-181 112-260 286l87-266h-248l115 391h10c45-139 87-198 133-198 39 0 72 35 72 100v20c-175 63-233 96-272 135-35 35-55 76-55 123 0 75 56 129 135 129 75 0 138-58 192-150l-14 150 290-30c-34-27-45-47-45-106zm347-116v261c0 97 23 154 94 154 16 0 34-3 55-11-55 125-145 230-237 230-87 0-144-61-144-203v-347c0-90-12-113-45-150h46l216-201 15 201h154v10zm215 559l-45 55h322c-34-27-45-47-45-106v-600l12-214-289 30c33 27 45 52 45 114zm644-221v133c-17 5-23 8-36 8-47 0-70-34-70-104 0-40 8-65 23-80 6-6 13-9 22-9 16 0 35 19 61 52zm231-222c0-142-53-202-140-202-100 0-181 112-260 286l87-266h-248l115 391h10c45-139 87-198 133-198 39 0 72 35 72 100v20c-175 63-233 96-272 135-35 35-55 76-55 123 0 75 56 129 135 129 75 0 138-58 192-150l-14 150 290-30c-34-27-45-47-45-106zm117 443l-45 55h322c-34-37-45-57-45-106v-390c17-9 35-14 49-14 60 0 77 68 77 166v289l-35 55h312c-34-37-45-57-45-106v-392c0-142-55-202-140-202-92 0-168 92-218 190l10-190-287 40c33 21 45 46 45 111zm944-591c29 0 66 65 101 166v314c-8 6-15 8-21 8-82 0-133-161.62-133-315 0-127 29-173 53-173zm333-14l11-260-288 35c34 26 45 51 45 111v162l156-58c-43.7-8.27-89-10-117-10-124 0-218 33-288 103-77 77-124 194.32-124 328 0 180 87 269 180 269 98 0 171-85 193-174l-11 174 288-35c-34-26-45-51-45-111zm0 0"/></svg>