<svg width="1987" height="1100.002" xmlns="http://www.w3.org/2000/svg"><path d="M19 712.002c0 174 97 278 259 278 198 0 377-180 377-437 0-193-100-283-256-283-198 0-380 183-380 442zm235 121c0-205 73-549 134-549 16 0 32 23 32 146 0 205-75 546-136 546-15 0-30-31-30-143zm421 152l107-611-45-52 295-52-47 273c25.82-80.92 67-149 115-197 49-49 103.64-76 154-76 77 0 120 77 87 272l-58 339 45 52-295 52 55-307c23-126 20-232-19-232-35 0-96 119-129 339l1 154zm1274-418c0 245-126 423-318 423-120 0-229-72-229-254 0-131 50-257 143-350 75-75 163-116 264-116 116 0 178 52 178 136 0 73-45 123-66 144-91 91-218 135-327 154l25-107c23 36 42 67 69 67 10 0 13-3 18-8 28-28 45-140 45-237 0-75-17-116-38-116-46 0-84 169-84 305 0 147 72 188 134 188 86 0 156-70 176-229zm0 0"/></svg>