<svg width="2176.74" height="1100.002" xmlns="http://www.w3.org/2000/svg"><path d="M21.4 727.492c0 162.7 82.44 256.09 211.75 256.09 179.66 0 338.65-190.62 338.65-453.78 0-175.2-84.42-259.38-209.78-259.38-179.66 0-340.62 192.59-340.62 457.07zm173.37 74.78c0-216.65 80.53-519.22 153.17-519.22 30.15 0 50.49 42.86 50.49 170.66 0 216.64-81.85 517.24-154.49 517.24-29.49 0-49.17-48.12-49.17-168.68zm793.46-498.83l-53.44 580.04c-24.09 37.98-45.1 55.75-69.85 55.75-51.51 0-84.04-75.05-84.04-202.46 0-132.93 46.78-287.95 129.05-466.35l-249.28 98.16 101.05 99.22c-86.15 90.22-152.11 211.97-152.11 331.49 0 115.63 64.1 184.29 168.43 184.29 70.28 0 144.39-35.81 199.3-90.72 114.98-114.97 197.77-355.62 201.1-615.07zm669.66 281.45c-11.98 251.84-130.79 398.69-281.71 398.69-103.22 0-195.1-79.88-195.1-248.53 0-139.9 53.08-280.62 142.66-370.2 60.62-60.62 131.16-94.43 210.93-94.43 97.17 0 157.8 48.24 157.8 133.61 0 66.15-35.76 122.31-67.03 153.58-79.7 79.71-192.66 117.2-304.06 136.2l16.44-87.14c24.71 25.04 46.11 46.11 72.08 46.11 26.44 0 45.87-6.08 61.14-21.35 31.43-31.42 47.4-126.31 47.4-213.03 0-76.37-20.42-122.85-49.64-122.85-56.27 0-118.92 178.59-118.92 339.58 0 145.29 60.35 204.78 122.01 204.78 72.31 0 146.41-64.18 178.74-255.02zm35.48 401.97l111.37-631.95-49.45-41.05 233.03-43.44-61.27 302.62c73.27-266.96 167.28-302.62 223.17-302.62 6.51 0 19.67 7 26.52 11.8l-115.38 405.41h-7.26c2.07-187.48-17.38-246.21-42.09-246.21-24.51 0-68.96 57.92-124.78 379.48v130.24zm0 0"/></svg>