<svg width="1985.7" height="1100.002" xmlns="http://www.w3.org/2000/svg"><path d="M23.11 738.702c0 154.63 72.05 240.43 178 240.43 166.57 0 311.26-198.2 311.26-465.76 0-162.48-73.29-242.5-176.76-242.5-166.57 0-312.5 199.43-312.5 467.83zm129.35 41.76c0-224.96 85.91-497.94 166.87-497.94 40.26 0 63.69 57.05 63.69 188.26 0 224.96-86.74 496.7-167.69 496.7-39.85 0-62.87-60.35-62.87-187.02zm775.08-485.13l-47.32 545.06c-35.59 64.39-65.89 94.15-101.89 94.15-56.16 0-94.07-76.52-94.07-197.08 0-140.03 58.76-286.48 148.37-466.59l-220.91 75.41 102.52 87.24c-81.26 96.09-155.04 229.09-155.04 362.55 0 114.65 57.73 183.06 153.02 183.06 59.76 0 118.95-30.67 162.37-74.09 114.24-114.24 182.61-345.34 194.74-625.82zm579.42 302.47c-20.55 256.74-134.22 381.33-255.79 381.33-91.24 0-170.89-85.5-170.89-244.61 0-146.26 55.29-297.5 142.42-384.63 50.34-50.35 108.41-79.02 173.02-79.02 83.71 0 143.37 45.54 143.37 131.89 0 61.26-29.16 121.83-67.76 160.44-71.63 71.63-174.57 104.47-287.68 123.47l10.33-72.95c25.93 17.21 49.04 31.19 74.28 31.19 38.17 0 69.35-8.28 91.96-30.89 33.87-33.87 49.11-116.52 49.11-195.91 0-77.35-22.87-127.74-57.96-127.74-63.61 0-143.87 185.43-143.87 364.28 0 144.07 52.04 216.76 113.46 216.76 62.52 0 139.56-60.02 180.69-273.61zm39.39 383.4l112.35-639.79-52.63-33.21 188.76-37.33-59.31 310.2c71.31-274.79 156.76-310.2 209.72-310.2 11.15 0 28.72 7 40.46 15.22l-98.5 353.56h-5.31c12.83-191.39-9.8-242.78-35.74-242.78-29.15 0-86.82 58.69-154.61 446.24v109.69zm0 0"/></svg>