<svg width="5090" height="1100.002" xmlns="http://www.w3.org/2000/svg"><path d="M38.15 650.982c0 203.84 81.36 320.94 179.2 320.94 108.02 0 205.39-146.55 205.39-381.83 0-202.64-82.46-320.01-179.47-320.01-107.93 0-205.12 146-205.12 380.9zm60.37-98.31c0-185.35 50.58-244.16 109.07-244.16 95.66 0 154.69 167.7 154.69 380.82 0 183.04-50.49 244.16-109.16 244.16-95.57 0-154.6-167.7-154.6-380.82zm530.41 322.88l24.54 94.53h24.2c7-36.41 16.72-74.5 26.48-108.92l163.34-580.16h-93.84c-7.3 137.58-21.84 342.97-82.54 583.04l-136.54-507.58-11.26-75.46h-81.05zm269.68-225.55c0 209.43 73.27 321.92 166.29 321.92 85.76 0 160.35-96.05 163.49-334.19l-2.55-.19c-22.87 236.36-85.76 273.99-128.35 273.99-76.43 0-143.17-121.99-143.17-371.42 0-174.81 56.21-231.33 103.27-231.33 74.94 0 121.58 118.5 121.58 278.48l23.02-17.03-273.36 20.69v9.82l311.71 18.63c2.56-18.95 3.74-33.52 3.74-51.55 0-199.97-64.15-297.93-147.55-297.93-103.48 0-198.12 147.31-198.12 380.11zm452.19 284.14v-570.24c0-36.87-4.74-50.98-58.62-65.62l126.36-28.2-4.19 243.62c14.3-149.15 67.51-242.98 127.1-242.98 16 0 40.08 6.63 61.52 29.06l-28.91 277.99h-2.74c-8.85-180.07-38.85-238.75-68.03-238.75-35.45 0-87.49 83.43-87.49 324.38v216.11c0 52.63 14.63 65.36 58.61 81.49h-182.23zm335.91 0v-570.89c0-36.59-4.74-50.7-58.62-65.9l126.36-27.27-2.74 139.57v469.86c0 53.55 14.63 66.29 58.61 81.49h-182.23zm24.68-738.06c-32.19 0-56.15-24.03-56.15-51.26 0-29.05 23.78-53.46 55.69-53.46 32 0 56.52 24.41 56.52 53.46 0 27.23-24.33 51.26-56.06 51.26zm181.5 738.06l-57.69 26.86h181.31c-43.99-15.48-58.62-28.22-58.62-81.49v-454.91c34.06-52.38 79.1-92.5 128.32-92.5 51.83 0 85.35 47.04 85.35 170.54v431.5l-57.69 26.86h181.3c-43.98-15.48-58.61-28.22-58.61-81.49v-454.91c36.87-56.01 79.2-92.5 126.5-92.5 46.39 0 87.26 47.04 87.26 171.45v430.59l-57.69 26.86h181.3c-43.98-15.48-58.61-28.22-58.61-81.49v-431.48c0-129.85-46.66-177.95-112.06-177.95-68.68 0-125.25 60.29-168.52 138.71-7.26-109.61-59.64-138.71-109.77-138.71-67.49 0-128.52 64.94-167.08 136.89l2.74-136.89-126.35 28.2c53.87 14.64 58.61 28.75 58.61 65.62zm764 0l-57.69 26.86h181.31c-43.99-15.48-58.62-28.22-58.62-81.49v-454.91c34.06-52.38 79.1-92.5 128.32-92.5 51.83 0 85.35 47.04 85.35 170.54v431.5l-57.69 26.86h181.3c-43.98-15.48-58.61-28.22-58.61-81.49v-454.91c36.87-56.01 79.2-92.5 126.5-92.5 46.39 0 87.26 47.04 87.26 171.45v430.59l-57.69 26.86h181.3c-43.98-15.48-58.61-28.22-58.61-81.49v-431.48c0-129.85-46.66-177.95-112.06-177.95-68.68 0-125.25 60.29-168.52 138.71-7.26-109.61-59.64-138.71-109.77-138.71-67.49 0-128.52 64.94-167.08 136.89l2.74-136.89-126.35 28.2c53.87 14.64 58.61 28.75 58.61 65.62zm729.72-284.14c0 209.43 73.27 321.92 166.29 321.92 85.76 0 160.35-96.05 163.49-334.19l-2.55-.19c-22.87 236.36-85.76 273.99-128.35 273.99-76.43 0-143.17-121.99-143.17-371.42 0-174.81 56.21-231.33 103.27-231.33 74.94 0 121.58 118.5 121.58 278.48l23.02-17.03-273.36 20.69v9.82l311.71 18.63c2.56-18.95 3.74-33.52 3.74-51.55 0-199.97-64.15-297.93-147.55-297.93-103.48 0-198.12 147.31-198.12 380.11zm456.28 284.14l-58.61 26.86h182.23c-43.99-16.13-58.62-28.86-58.62-81.49v-409.06c53.31-108.84 88.55-138.35 125.24-138.35 46.39 0 86.98 47.13 86.98 171.45v430.59l-57.69 26.86h181.31c-43.99-16.13-58.62-28.86-58.62-81.49v-431.94c0-129.29-45.01-177.49-100.97-177.49-68.4 0-132.6 74.75-176.25 180.01l2.74-180.01-126.35 28.2c53.87 14.64 58.61 28.75 58.61 65.62zm480.97-259.03l-31.71 258.71c26.48 13.92 82.88 38.1 155.3 38.1 113.3 0 180.89-69.43 181.79-173.82 0-63.38-32.26-114.37-74.06-156.17-39.25-39.25-103.69-82.15-139.38-117.94-37.14-37.14-66.4-73.75-66.4-125.61 0-69.01 50.95-109.15 98.01-109.15 63.19 0 116.29 60.57 134.97 277.57h2.74l38.7-259.52c-21.04-11.2-75.44-37.2-141.67-37.2-109.92 0-177.09 73.4-177.09 173.63 0 59.02 28.72 102.57 67.35 141.2 37.13 37.13 112.68 88.16 145.73 121.21 38.06 38.06 66.39 81.29 66.39 137.59 0 69.38-48.04 109.24-101.9 109.24-74.95 0-145.68-59.18-156.03-277.84zm382.75-25.11c0 209.43 73.27 321.92 166.29 321.92 85.76 0 160.35-96.05 163.49-334.19l-2.55-.19c-22.87 236.36-85.76 273.99-128.35 273.99-76.43 0-143.17-121.99-143.17-371.42 0-174.81 56.21-231.33 103.27-231.33 74.94 0 121.58 118.5 121.58 278.48l23.02-17.03-273.36 20.69v9.82l311.71 18.63c2.56-18.95 3.74-33.52 3.74-51.55 0-199.97-64.15-297.93-147.55-297.93-103.48 0-198.12 147.31-198.12 380.11zm0 0"/></svg>