<svg width="2291" height="1100.002" xmlns="http://www.w3.org/2000/svg"><path d="M398 911.002c-29 0-69.38-56.76-101-148v-307c8-6 15-8 21-8 82 0 133 149.14 133 290 0 127-29 173-53 173zm-333 104l-45 55h322c-34.14-37.15-45-57-45-106v-87l-156 58c44 8 89 10 117 10 124 0 218-33 288-103 74.05-74.05 124-179.21 124-303 0-180-87-269-180-269-98 0-171 85-193 174l7-174-284 40c33 21 45 46 45 111zm977-321v133c-17 5-23 8-36 8-47 0-70-34-70-104 0-40 8-65 23-80 6-6 13-9 22-9 16 0 35 19 61 52zm231-222c0-142-53-202-140-202-100 0-181 112-260 286l87-266H712l115 391h10c45-139 87-198 133-198 39 0 72 35 72 100v20c-175 63-233 96-272 135-35 35-55 76-55 123 0 75 56 129 135 129 75 0 138-58 192-150l-14 150 290-30c-34-27-45-47-45-106zm112 443v-494c0-65-12-90-45-111l287-40-6 289c27-180 102-282 187-282 16 0 31 3 47 10l-87 494h-10c-27-171-57-256-88-256-30 0-53 68-53 171v168c0 49 11 69 45 106h-322zm751-559v261c0 97 23 154 94 154 16 0 34-3 55-11-55 125-145 230-237 230-87 0-144-61-144-203v-347c0-90-12-113-45-150h46l216-201 15 201h154v10zm0 0"/></svg>