<svg width="2078.87" height="1100.002" xmlns="http://www.w3.org/2000/svg"><path d="M0 1082.892l129.06-727.98-48.77-41.05 233.03-43.44-66.04 382.59c53.67-186.44 112.49-284.38 158.62-330.52 36.16-36.15 72.97-51.41 107.12-51.41 69.38 0 110.22 61.81 110.22 171.5 0 126.43-54.16 293.7-157.87 402.02-80.54 84.21-196.3 125.82-313.63 125.82-21.92 0-43.84-1.65-66.1-4.97l102.39-52.66-4.66 152.16zm391.72-681.72c-38.53 0-120.8 161.53-193.77 501.24 20.29 15.81 48.63 29.64 77.31 29.64 24.73 0 41.89-9.82 59.13-27.06 49.17-49.16 97.44-254.71 97.44-386.86 0-70.98-13.37-116.96-40.11-116.96zm818.31-33.83l55.08-63.9c-63.2-23.44-115.87-33.02-169.52-33.02-118.51 0-231.7 49.81-316.92 138.98-103.71 108.32-157.87 275.59-157.87 402.02 0 109.69 40.83 171.5 110.22 171.5 34.15 0 70.96-15.26 107.11-51.41 46.14-46.14 104.96-144.08 158.63-330.52l-74.3 382.24 240.26-44.41-48.77-41.39zm-357.71 485.49c-26.74 0-39.14-45.98-39.14-116.96 0-136.09 50.59-345.59 101.07-396.07 17.24-17.24 33.09-27.06 57.81-27.06 28.69 0 55.71 13.84 74.69 32.93-79.55 362.07-155.24 507.16-194.43 507.16zm375.34 134.03l111.37-631.95-49.45-41.05 233.03-43.44-61.27 302.62c73.27-266.96 167.28-302.62 223.17-302.62 6.51 0 19.67 7 26.52 11.8l-115.38 405.41h-7.26c2.07-187.48-17.38-246.21-42.09-246.21-24.51 0-68.96 57.92-124.78 379.48v130.24zm729.86-699.86h121.35v7.26l-135.5 49.84-53.35 304.06c-21.32 121.89-18.44 204.27 15.76 204.27 23.74 0 50.85-24.25 86.25-134.29h7.26c-33.66 182.05-116.83 265.44-201.97 265.44-76.19 0-123.69-67.76-92.74-248.38l44.82-258.47c18-102.34 15.34-142.13-3.55-185.07l217.84-190.81zm0 0"/></svg>