<svg width="3262" height="1100.002" xmlns="http://www.w3.org/2000/svg"><path d="M263.72 918.662c-33.63 0-77.58-26.07-104.86-72.37v-411.95c21.89-51.54 55.9-92.12 88.91-92.12 72.74 0 137.63 142.86 137.63 324.73 0 202.49-69.13 251.71-121.68 251.71zm-194.86 113.26l-56.58 31.08h203.15c-42.52-19.28-57.34-33.08-57.34-85.16v-96.26l-57.22 24.81c30.11 31.93 65.08 50.9 106.2 50.9 55.88 0 105.32-20.65 145.22-60.55 66.3-66.29 113.97-185.09 113.97-343.9 0-191.58-80.83-282.12-158.39-282.12-72.53 0-128.55 74.19-149.01 145.44l3.14-145.44-149.72 29.96c50.75 15.6 56.58 31.34 56.58 72.42zm745.32-401.26l-.77 173.13c-18.54 38.19-63.13 105.24-111.63 105.24-34.65 0-80.03-33.23-80.03-134.1 0-51.57 12.63-98.18 39.98-125.53 19.12-19.12 54.67-36.01 92.23-36.01 15.22 0 35.77 5.88 60.22 17.27zm89-209.65c0-112.67-50.68-150.29-103.72-150.29-74.54 0-139.33 96.56-179.74 257.44l37.61-245.16H554.41l45.55 377.11h3.82c28.8-239.33 97.81-307.59 138.4-307.59 41.32 0 71.23 35.77 71.23 103.09v116.47c-110.54 29.58-171.26 61.27-211.8 101.81-42.72 42.72-61.18 95.93-61.18 155.41 0 92.75 49.83 145.98 108.77 145.98 77.31 0 138-92.73 164.21-156.94l-3.96 156.94 150.31-27.68c-50.98-16.97-56.58-31.57-56.58-71.27zm139.9 257.73l-38.65 256.8c28.66 15.29 88.59 39.74 166.04 39.74 124.03 0 195.42-75.95 196.19-182.38 0-65.42-31.17-114.91-71.2-154.94-45.5-45.5-125.3-88.28-166.43-129.63-32.92-32.93-61.1-67.5-61.1-114.74 0-61.68 46.47-97.6 90.68-97.6 63.46 0 125.52 62.88 156.98 271.04h3.82l44.13-257.35c-24.02-12.96-81.95-38.96-152.94-38.96-118.61 0-193.39 76.93-193.39 181.92 0 60.51 28.31 104.88 66.4 142.97 40.25 40.25 132.78 94.27 170.31 131.8 35.21 35.21 61.1 74.36 61.1 125.23 0 62.59-43.69 97.83-92.93 97.83-70.47 0-149.62-59.46-175.19-271.73zm435 0l-38.65 256.8c28.66 15.29 88.59 39.74 166.04 39.74 124.03 0 195.42-75.95 196.19-182.38 0-65.42-31.17-114.91-71.2-154.94-45.5-45.5-125.3-88.28-166.43-129.63-32.92-32.93-61.1-67.5-61.1-114.74 0-61.68 46.47-97.6 90.68-97.6 63.46 0 125.52 62.88 156.98 271.04h3.82l44.13-257.35c-24.02-12.96-81.95-38.96-152.94-38.96-118.61 0-193.39 76.93-193.39 181.92 0 60.51 28.31 104.88 66.4 142.97 40.25 40.25 132.78 94.27 170.31 131.8 35.21 35.21 61.1 74.36 61.1 125.23 0 62.59-43.69 97.83-92.93 97.83-70.47 0-149.62-59.46-175.19-271.73zm675.1-48.08l-.77 173.13c-18.54 38.19-63.13 105.24-111.63 105.24-34.65 0-80.03-33.23-80.03-134.1 0-51.57 12.63-98.18 39.98-125.53 19.12-19.12 54.67-36.01 92.23-36.01 15.22 0 35.77 5.88 60.22 17.27zm89-209.65c0-112.67-50.68-150.29-103.72-150.29-74.54 0-139.33 96.56-179.74 257.44l37.61-245.16h-102.92l45.55 377.11h3.82c28.8-239.33 97.81-307.59 138.4-307.59 41.32 0 71.23 35.77 71.23 103.09v116.47c-110.54 29.58-171.26 61.27-211.8 101.81-42.72 42.72-61.18 95.93-61.18 155.41 0 92.75 49.83 145.98 108.77 145.98 77.31 0 138-92.73 164.21-156.94l-3.96 156.94 150.31-27.68c-50.98-16.97-56.58-31.57-56.58-71.27zm114.2 175.21c0 151.86 74.87 259.54 174.45 259.54 129.71 0 226.28-178.96 226.28-335.69 0-61.72-27.49-130.82-52.82-168.18l80.81-34.36c-64.22-29.62-130.11-46.81-191.98-46.81-136.07 0-236.74 147.2-236.74 325.5zm79.95-71.25c0-139.1 43.36-219.27 108.1-219.27 73.63 0 133.87 136.41 133.87 273.75 0 146.58-42.56 241.33-112.73 241.33-78.79 0-129.24-147.36-129.24-295.81zm307.32 538.03l4.57-85.38h-329.73l4.74-200.12-79.8 285.5zm99.93-411c0 207.12 81.01 323.28 184.35 323.28 97.18 0 175.57-100.53 183.33-327.13l-3.37-.45c-27.07 210.4-88.34 247.48-134.73 247.48-82.95 0-150.78-120.48-150.78-367.6 0-165.71 50.64-220.06 94.85-220.06 68.95 0 116.55 122.16 116.55 280.65l24.51-20.02-256.24 26.13v9.55l318.65 26.92c3.37-23.3 4.82-40.18 4.82-61.21 0-196.97-70.27-299.28-164.53-299.28-114.49 0-217.41 150.71-217.41 381.74zm0 0"/></svg>