<svg width="3526" height="1100.002" xmlns="http://www.w3.org/2000/svg"><path d="M295.87 917.152c-32.52 0-75.61-33.42-103.94-90.48v-386.82c18.57-40.63 46.11-71.98 72.66-71.98 74.95 0 136.52 144.36 136.52 316.41 0 184.42-59.52 232.87-105.24 232.87zm-227.94 111.05l-53.8 36.8h231.61c-40.51-23.56-54.39-38.8-54.39-90.15v-94.05l-80.87 32.77c33.43 26.19 70.8 41.1 108.78 41.1 72.19 0 132.31-23.6 179.41-70.71 68.15-68.15 116.37-183.69 116.37-334.11 0-188.81-82.3-278.98-163.56-278.98-78.63 0-138.72 76.78-159.55 152.28l4.07-152.28-181.87 32.37c46.5 16.89 53.8 34.85 53.8 81.65zm800.31-382.05l-.59 163.52c-18.17 30.24-53.52 81.96-93.52 81.96-37.61 0-77.63-33.41-77.63-126.89 0-48.81 11.52-90.24 35.91-114.63 15.98-15.98 44.7-29.54 75.42-29.54 15.41 0 35.58 9.02 60.41 25.58zm123-212.61c0-119.69-51.24-162.67-112.41-162.67-80.63 0-149.31 100.26-198.96 264.28l49.43-250.15H591.65l62.18 380.43h5.3c32.67-215.3 95.22-281.34 137.11-281.34 40.76 0 71.41 35.58 71.41 102.34v93.37c-125.97 37.59-186.04 69.59-226.22 109.77-40.86 40.86-59.69 91.15-59.69 147.65 0 88.5 51.3 141.91 115.04 141.91 76.76 0 138-84.41 170.87-155.28l-6.37 155.28 183.76-28.24c-46.91-19.37-53.8-35.26-53.8-79.59zm143.56 249.42l-48.06 254.21c31.61 17.13 96.35 41.96 180.63 41.96 138.63 0 215.2-84.83 215.78-194.02 0-68.2-29.69-115.65-67.32-153.28-54-54-154.68-96.59-203.2-145.53-27.2-27.19-53.89-59-53.89-99.95 0-51.7 40.37-81.89 80.69-81.89 63.83 0 138.09 66.02 186.92 262.17h5.3l51.52-254.39c-28.08-15.37-90.82-41.37-168.28-41.37-130.43 0-215.56 81.74-215.56 193.2 0 62.54 27.76 108.02 65.1 145.36 44.5 44.5 160.14 102.59 203.77 146.22 31.32 31.33 53.89 64.94 53.89 108.42 0 53.34-37.79 82.3-80.74 82.3-64.37 0-154.98-59.83-201.24-263.41zm464 0l-48.06 254.21c31.61 17.13 96.35 41.96 180.63 41.96 138.63 0 215.2-84.83 215.78-194.02 0-68.2-29.69-115.65-67.32-153.28-54-54-154.68-96.59-203.2-145.53-27.2-27.19-53.89-59-53.89-99.95 0-51.7 40.37-81.89 80.69-81.89 63.83 0 138.09 66.02 186.92 262.17h5.3l51.52-254.39c-28.08-15.37-90.82-41.37-168.28-41.37-130.43 0-215.56 81.74-215.56 193.2 0 62.54 27.76 108.02 65.1 145.36 44.5 44.5 160.14 102.59 203.77 146.22 31.32 31.33 53.89 64.94 53.89 108.42 0 53.34-37.79 82.3-80.74 82.3-64.37 0-154.98-59.83-201.24-263.41zm707.44-36.81l-.59 163.52c-18.17 30.24-53.52 81.96-93.52 81.96-37.61 0-77.63-33.41-77.63-126.89 0-48.81 11.52-90.24 35.91-114.63 15.98-15.98 44.7-29.54 75.42-29.54 15.41 0 35.58 9.02 60.41 25.58zm123-212.61c0-119.69-51.24-162.67-112.41-162.67-80.63 0-149.31 100.26-198.96 264.28l49.43-250.15h-137.65l62.18 380.43h5.3c32.67-215.3 95.22-281.34 137.11-281.34 40.76 0 71.41 35.58 71.41 102.34v93.37c-125.97 37.59-186.04 69.59-226.22 109.77-40.86 40.86-59.69 91.15-59.69 147.65 0 88.5 51.3 141.91 115.04 141.91 76.76 0 138-84.41 170.87-155.28l-6.37 155.28 183.76-28.24c-46.91-19.37-53.8-35.26-53.8-79.59zm106.78 154.33c0 150.93 84.48 259.17 198.28 259.17 144.87 0 245.13-174.07 245.13-329.78 0-54.2-22.22-112.85-43.76-149.69l78.22-41.94c-70.87-34.98-150.43-54.76-221.91-54.76-148.26 0-255.96 143.33-255.96 317zm112.28-75.5c0-131.89 37.99-210.59 94.44-210.59 67.65 0 126.48 145.65 126.48 286.5 0 137.35-37.36 227.85-97.96 227.85-72.13 0-122.96-154.93-122.96-303.76zm317.31 552.63l8.26-114.02h-355.41l-10.05-179.98-83.67 294zm96.19-411c0 203.98 91.55 325.13 208.94 325.13 112.69 0 196.26-106.63 210.3-317.52l-4.47-.83c-32.81 175.11-91.85 211.46-143.42 211.46-91.82 0-161.13-118.46-161.13-362.44 0-153.32 43.07-204.71 83.39-204.71 60.83 0 109.72 127.15 109.72 283.61l26.54-24.09-232.95 33.52v9.17l328.06 38.2c4.48-29.22 6.31-49.24 6.31-74.33 0-192.91-78.59-301.13-187.63-301.13-129.46 0-243.66 155.33-243.66 383.96zm0 0"/></svg>