<svg width="2328" height="1100.002" xmlns="http://www.w3.org/2000/svg"><path d="M240.08 919.242c-34.45 0-79.02-20.67-105.54-59.05v-430.43c24.34-59.55 63.1-106.93 100.87-106.93 71.11 0 138.44 141.75 138.44 330.84 0 215.78-76.19 265.57-133.77 265.57zm-170.54 114.9l-58.62 26.86h182.23c-43.99-16.14-59.52-28.86-59.52-81.49v-97.9l-39.83 18.98c27.67 36.13 60.87 58.1 104.3 58.1 43.89 0 85.49-18.48 120.09-53.08 64.93-64.93 112.2-186.13 112.2-351.1 0-193.62-79.74-284.43-154.59-284.43-68.04 0-121.08 72.29-141.26 140.41l2.46-140.41-126.08 28.2c53.88 14.64 58.62 28.75 58.62 65.62zm434.61-383.16c0 203.84 81.36 320.94 179.2 320.94 108.02 0 205.39-146.55 205.39-381.83 0-202.64-82.46-320.01-179.47-320.01-107.93 0-205.12 146-205.12 380.9zm60.37-98.31c0-185.35 50.58-244.16 109.07-244.16 95.66 0 154.69 167.7 154.69 380.82 0 183.04-50.49 244.16-109.16 244.16-95.57 0-154.6-167.7-154.6-380.82zm374.46-271.67l140.13 582.04 22.37 97.96h24.07c12-39.03 25.1-88.97 37.93-138.74l92.38-370.49 93.23 406.74 22.35 102.49h30.91c9-43.57 19.91-90.03 30.74-136.16l128.57-543.84h-77.11c-11.82 188.73-32.17 393.57-68.11 576.27l-115.2-477.32-16.75-98.95h-40.02c-16.63 172.27-57.92 386.67-102.01 578.99l-109.18-467.42-9.95-111.57zm673.63 369c0 209.43 73.27 321.92 166.29 321.92 85.76 0 160.35-96.05 163.49-334.19l-2.55-.19c-22.87 236.36-85.76 273.99-128.35 273.99-76.43 0-143.17-121.99-143.17-371.42 0-174.81 56.21-231.33 103.27-231.33 74.94 0 121.58 118.5 121.58 278.48l23.02-17.03-273.36 20.69v9.82l311.71 18.63c2.56-18.95 3.74-33.52 3.74-51.55 0-199.97-64.15-297.93-147.55-297.93-103.48 0-198.12 147.31-198.12 380.11zm452.19 284.14v-570.24c0-36.87-4.74-50.98-58.62-65.62l126.36-28.2-4.19 243.62c14.3-149.15 67.51-242.98 127.1-242.98 16 0 40.08 6.63 61.52 29.06l-28.91 277.99h-2.74c-8.85-180.07-38.85-238.75-68.03-238.75-35.45 0-87.49 83.43-87.49 324.38v216.11c0 52.63 14.63 65.36 58.61 81.49h-182.23zm0 0"/></svg>