<svg width="3383.46" height="1100.002" xmlns="http://www.w3.org/2000/svg"><path d="M0 1070.112l132.44-747.77-54.98-22.95 130.72-29.31-89.21 502.41c74.58-276.31 143.01-412.12 197.63-466.73 24.84-24.85 49.78-35.59 72.63-35.59 51.87 0 82.53 49.94 82.53 160.75 0 153.57-64.34 337.8-170.88 444.98-56.87 57.39-119.54 94.18-207.37 94.18-16.83 0-33.66-1.1-51.4-3.28l43.61-10.84-4.09 99.59zm353.28-747.28c-50.97 0-150.19 152.47-262.73 599.01 17.46 3.94 46.37 7.61 76.19 7.61 49.02 0 76.36-19.43 108.87-51.94 59.33-59.34 124.56-257.54 124.56-419.64 0-90.77-15.63-135.04-46.89-135.04zm126.81 649.56l113.63-650.05-56.8-22.95 130.72-29.31-56.73 320.13c68.73-285.04 142.97-320.13 192.08-320.13 17.24 0 40.58 7 58.73 19.7l-76.37 285.59h-2.74c26.93-196.52.13-238.29-27.41-238.29-35.24 0-110.25 59.7-193.72 533.77v82.76zm726.48-359.03c-31.77 263.16-138.71 358.56-221.79 358.56-75.53 0-139.15-92.87-139.15-239.47 0-154.6 58.17-319.63 142.09-403.55 36.88-36.88 78.59-58.82 123.32-58.82 66.08 0 124.45 42.01 124.45 129.64 0 54.85-20.49 121.19-68.72 169.42-61.05 61.04-150.84 87.8-266.19 106.8l2.31-54.36c27.54 6.96 52.89 11.64 77.17 11.64 53.56 0 100.13-11.17 132.36-43.4 37.07-37.08 51.35-103.7 51.35-173.47 0-78.63-26.08-134.15-68.86-134.15-73.23 0-176.57 194.41-176.57 396.67 0 142.46 41.14 232.47 102.23 232.47 49.69 0 130.59-54.57 183.26-297.98zm66.97 127.87c.09 154.12 63.8 230.69 129.88 230.69 72.76 0 171.69-89 216.22-331.79h-2.73c-62.42 232.58-142.18 269.73-176.66 269.73-43.91 0-100.64-64.06-100.64-232.1 0-240.53 103.26-392.43 180.27-392.43 54.54 0 85.55 105.14 52.88 352.24h2.74l95.93-326.91c-21.74-15.8-65.29-40.58-115.55-40.58-155.54 0-282.34 214.75-282.34 471.15zm388 229.79l137.98-28.41-64.06-23.86 113.45-648.67-137.99 29.31 64.06 22.95zm166.53-774.03c36.91 0 63.98-25.03 63.98-58.17-.1-26.96-21.24-48.36-51.6-48.36-37.28 0-64.42 26.68-64.51 59.17-.09 25.77 21.68 47.36 52.13 47.36zm229.37 467.56c52.85 50.9 78.28 88.19 78.28 150.84 0 90.7-65.55 137.84-125.32 137.84-70.96 0-111.9-52.69-119.49-218.93h-2.74l-46.2 218.18c33.55 10.63 63.03 19.44 125.12 19.44 144.99 0 222.65-94.68 222.65-197.08 0-59.02-25.3-109.38-80.61-162.38l-49.24-45.09c-39.67-37.71-78.72-74.39-78.72-146.11 0-90.71 54.66-132.49 114.43-132.49 70.95 0 106.68 53.73 113.39 219.02h2.74l47.13-218.27c-33.55-10.63-57.58-19.44-119.68-19.44-144.99 0-211.75 91.77-211.75 189.82 0 75.18 31.83 112.2 83.42 161.66zm584.13-51.19c-31.77 263.16-138.71 358.56-221.79 358.56-75.53 0-139.15-92.87-139.15-239.47 0-154.6 58.17-319.63 142.09-403.55 36.88-36.88 78.59-58.82 123.32-58.82 66.08 0 124.45 42.01 124.45 129.64 0 54.85-20.49 121.19-68.72 169.42-61.05 61.04-150.84 87.8-266.19 106.8l2.31-54.36c27.54 6.96 52.89 11.64 77.17 11.64 53.56 0 100.13-11.17 132.36-43.4 37.07-37.08 51.35-103.7 51.35-173.47 0-78.63-26.08-134.15-68.86-134.15-73.23 0-176.57 194.41-176.57 396.67 0 142.46 41.14 232.47 102.23 232.47 49.69 0 130.59-54.57 183.26-297.98zm280.87-563.28l-83.03 21.04-9.98 138.16-134.89 762.18 128.9-29.31-54.98-22.95zm453.15 220l-79.21 18.77v71.39c-50.98 299.64-113.79 451.05-170.66 507.93-19.99 19.98-39.49 28.7-57.42 28.7-60.3 0-83.73-82.91-83.73-169.86 0-149.09 81.73-274.12 179.62-456.93l-181.22 45.59 101.79 70.62c-72.79 105.82-166.15 263.36-166.15 415.09 0 106.6 44.02 152.41 99.13 152.41 31.75 0 65.06-15.83 97.36-48.12 57.24-57.25 102.04-154.81 135.21-285.16l-41.63 244.95c-26.29 151.88-124.26 191.94-194.73 191.94-61.69 0-104.05-36.14-114.09-180.25h-2.74l-38.73 179.31c47.79 12 95.33 15.46 124.82 15.46 90.25 0 153.35-31.1 204.46-82.22 56.88-56.88 86.36-123.2 101.8-213.55zm0 0"/></svg>