<svg width="3604.14" height="1100.002" xmlns="http://www.w3.org/2000/svg"><path d="M0 1073.742l131.63-743.01-53.49-27.31 155.32-32.7-83.65 473.61c69.56-254.71 135.68-381.42 188.25-433.99 27.57-27.57 55.36-39.39 80.93-39.39 56.07 0 89.18 52.79 89.18 163.33 0 147.05-61.89 327.2-167.75 434.65-62.56 63.84-137.99 101.79-232.91 101.79-18.05 0-36.11-1.23-54.94-3.69l57.74-20.89-4.22 112.23zm362.52-731.52c-47.98 0-143.13 154.65-246.15 575.51 18.14 6.79 46.91 12.9 76.45 12.9 43.19 0 68.08-17.12 96.92-45.96 56.89-56.89 118.04-256.85 118.04-411.76 0-86.01-15.09-130.69-45.26-130.69zm150.71 634.2l113.08-645.69-55.03-27.31 155.32-32.7-57.83 315.92c69.83-280.69 148.82-315.92 199.55-315.92 14.67 0 35.56 7 50.99 17.8l-85.75 314.39h-3.82c20.95-194.34-4.08-240.19-30.94-240.19-32.66 0-100.32 59.28-177.15 496.68v94.18zm773.65-369.34c-27.01 260.43-136.81 368.2-236.2 368.2-82.18 0-152.59-89.75-152.59-241.65 0-151.06 56.94-310.25 142.22-395.53 42.59-42.59 91.23-67.38 144.38-67.38 73.56 0 132.47 43.51 132.47 130.6 0 57.56-24.16 121.45-68.31 165.6-65.54 65.54-160.89 94.87-275.3 113.87l5.71-62.24c26.86 11.31 51.26 19.93 75.95 19.93 47.04 0 87.08-9.95 115.23-38.1 35.72-35.72 50.41-109.13 50.41-182.98 0-78.08-24.72-131.43-64.24-131.43-69.15 0-162.72 190.61-162.72 382.94 0 143.14 45.76 225.82 106.99 225.82 55.13 0 134.39-56.88 182.17-287.65zm63.98 132.07c.23 157.25 70.87 236.13 144.42 236.13 84.18 0 184.46-97.83 228.32-321.19h-3.83c-58.61 202.55-133.62 236.99-170.27 236.99-52.61 0-108.93-70.05-108.93-233.74 0-222.19 93.34-365.12 163.02-365.12 53.85 0 86.37 118.6 58.58 365.82h3.83l114.96-351.77c-22.83-14.03-67.2-35.55-116.37-35.55-179.86 0-313.73 217.33-313.73 468.43zm413 235.36l161.49-31.93-61.21-28.08 112.63-643.78-161.49 32.7 61.21 27.31zm182.02-768.18c45.61 0 78.65-28.03 78.65-65.79-.23-31.3-25.99-56.24-64.23-56.24-46.52 0-78.28 30.62-78.51 66.79-.23 29.84 25.62 55.24 64.09 55.24zm252.91 477.2c55.58 50.75 78.69 88.48 78.69 144.73 0 79.97-57.54 122.89-112.55 122.89-67.96 0-120.58-58.1-139.32-220.28h-3.83l-56.8 225.78c34.37 10.09 66.02 18.63 128.25 18.63 167.03 0 248.59-98.62 248.59-204.55 0-60.52-27.19-111.43-85.9-164.43l-62.82-52.55c-43.61-38.77-78.32-76.44-78.32-140.41 0-79.97 48.27-118.49 103.28-118.49 67.95 0 116.52 60.68 133.1 220.51h3.83l59.08-226.01c-34.36-10.09-61.39-18.63-123.61-18.63-167.04 0-239.34 95.85-239.34 198.38 0 73.97 33.05 113.97 88.44 164.11zm618.09-76.45c-27.01 260.43-136.81 368.2-236.2 368.2-82.18 0-152.59-89.75-152.59-241.65 0-151.06 56.94-310.25 142.22-395.53 42.59-42.59 91.23-67.38 144.38-67.38 73.56 0 132.47 43.51 132.47 130.6 0 57.56-24.16 121.45-68.31 165.6-65.54 65.54-160.89 94.87-275.3 113.87l5.71-62.24c26.86 11.31 51.26 19.93 75.95 19.93 47.04 0 87.08-9.95 115.23-38.1 35.72-35.72 50.41-109.13 50.41-182.98 0-78.08-24.72-131.43-64.24-131.43-69.15 0-162.72 190.61-162.72 382.94 0 143.14 45.76 225.82 106.99 225.82 55.13 0 134.39-56.88 182.17-287.65zm302.75-556.36l-111.02 25.53-8.49 144.27-133.26 753.62 153.77-32.71-53.49-27.3zm479.76 220l-105.97 22.85v82.26c-45.3 271.55-103.19 414.37-156.94 468.12-18.49 18.48-36.72 26.8-53.61 26.8-54.87 0-75.99-75.45-75.99-157.91 0-140.39 73.99-268.42 161.41-442.12l-193.31 58.23 100.03 77.41c-71.03 98.22-163.44 246.24-163.44 390.23 0 103.06 45.52 148.61 102.25 148.61 34.34 0 71.05-17.06 105.24-51.25 54.67-54.67 97.7-145.71 129.65-266.28l-41.09 240.47c-25.95 149.35-114.34 185.96-178.15 185.96-58.3 0-108.54-40.76-130.4-177.67h-3.82l-47.15 182.71c46.31 12.15 91.38 16.14 124.54 16.14 96.5 0 168.57-32.74 230.14-94.31 62.59-62.59 97.53-130.81 116.2-239.37zm0 0"/></svg>