<svg width="3937.07" height="1100.002" xmlns="http://www.w3.org/2000/svg"><path d="M295.87 917.152c-32.52 0-75.61-33.42-103.94-90.48v-386.82c18.57-40.63 46.11-71.98 72.66-71.98 74.95 0 136.52 144.36 136.52 316.41 0 184.42-59.52 232.87-105.24 232.87zm-227.94 111.05l-53.8 36.8h231.61c-40.51-23.56-54.39-38.8-54.39-90.15v-94.05l-80.87 32.77c33.43 26.19 70.8 41.1 108.78 41.1 72.19 0 132.31-23.6 179.41-70.71 68.15-68.15 116.37-183.69 116.37-334.11 0-188.81-82.3-278.98-163.56-278.98-78.63 0-138.72 76.78-159.55 152.28l4.07-152.28-181.87 32.37c46.5 16.89 53.8 34.85 53.8 81.65zm541.7-100v-543.31c0-46.8-7.3-64.76-53.8-81.65l183.1-32.37-4.82 259.65c18.78-160.04 79.69-256.76 148.26-256.76 16 0 36.87 5.35 56.39 22.33l-49.43 354.3h-5.31c-15.26-176.87-45.26-244.85-75.09-244.85-33.52 0-75.3 77.98-75.3 270.2v199.11c0 51.35 13.35 66.65 53.8 90.15h-231.6zm366.17-274.2c0 203.98 91.55 325.13 208.94 325.13 112.69 0 196.26-106.63 210.3-317.52l-4.47-.83c-32.81 175.11-91.85 211.46-143.42 211.46-91.82 0-161.13-118.46-161.13-362.44 0-153.32 43.07-204.71 83.39-204.71 60.83 0 109.72 127.15 109.72 283.61l26.54-24.09-232.95 33.52v9.17l328.06 38.2c4.48-29.22 6.31-49.24 6.31-74.33 0-192.91-78.59-301.13-187.63-301.13-129.46 0-243.66 155.33-243.66 383.96zm495.94-4.96c0-227.32 110.96-376.11 270.83-376.11 56.63 0 106.3 18.35 140.63 34.59l-76 371.05h-5.31c-30.06-259.31-83.78-371.5-141.28-371.5-41.37 0-81.54 73.26-81.54 214.23-1.18 224.18 77.19 345.16 168.43 345.16 36.22 0 100-24.37 135.28-183.79-16.52 197.76-87.24 296.05-202 296.05-116.95 0-209.04-120.26-209.04-329.68zm510.48 279.16v-546.2c0-45.57-7.31-63.52-53.81-82.89l183.11-28.24-5.3 165.87v438.11c0 55.48 13.35 70.78 53.8 90.15h-231.61zm54.82-710.48c-53.67 0-87.89-31.09-87.89-69.55 0-39.63 33.39-72.37 85.83-72.37 52.85 0 89.54 32.74 89.54 72.37 0 38.46-35.87 69.55-87.48 69.55zm213.76 465.24l-48.06 254.21c31.61 17.13 96.35 41.96 180.63 41.96 138.63 0 215.2-84.83 215.78-194.02 0-68.2-29.69-115.65-67.32-153.28-54-54-154.68-96.59-203.2-145.53-27.2-27.19-53.89-59-53.89-99.95 0-51.7 40.37-81.89 80.69-81.89 63.83 0 138.09 66.02 186.92 262.17h5.3l51.52-254.39c-28.08-15.37-90.82-41.37-168.28-41.37-130.43 0-215.56 81.74-215.56 193.2 0 62.54 27.76 108.02 65.1 145.36 44.5 44.5 160.14 102.59 203.77 146.22 31.32 31.33 53.89 64.94 53.89 108.42 0 53.34-37.79 82.3-80.74 82.3-64.37 0-154.98-59.83-201.24-263.41zm418-28.96c0 203.98 91.55 325.13 208.94 325.13 112.69 0 196.26-106.63 210.3-317.52l-4.47-.83c-32.81 175.11-91.85 211.46-143.42 211.46-91.82 0-161.13-118.46-161.13-362.44 0-153.32 43.07-204.71 83.39-204.71 60.83 0 109.72 127.15 109.72 283.61l26.54-24.09-232.95 33.52v9.17l328.06 38.2c4.48-29.22 6.31-49.24 6.31-74.33 0-192.91-78.59-301.13-187.63-301.13-129.46 0-243.66 155.33-243.66 383.96zm532.42 274.2l-53.81 36.8h231.61c-40.45-19.37-53.8-34.67-53.8-90.15v-655.76l6.13-168.22-183.94 28.24c46.5 19.37 53.81 37.32 53.81 82.89zm196.76-643.2h156.52l16.28 96.43 160.35 453.61c63.21-202.87 58.8-409.55 32.26-550.04h173.68l-201.72 588.11c-64.83 164.89-170.15 206.02-246.18 206.02-25.71 0-49.6-5.76-72.08-15.87l43.24-347.04h5.3c16.52 241.19 59.52 303.91 115.67 303.91 20.35 0 51.85-9.11 73.2-46.63zm0 0"/></svg>