<svg width="2253" height="1100.002" xmlns="http://www.w3.org/2000/svg"><path d="M263.72 918.662c-33.63 0-77.58-26.07-104.86-72.37v-411.95c21.89-51.54 55.9-92.12 88.91-92.12 72.74 0 137.63 142.86 137.63 324.73 0 202.49-69.13 251.71-121.68 251.71zm-194.86 113.26l-56.58 31.08h203.15c-42.52-19.28-57.34-33.08-57.34-85.16v-96.26l-57.22 24.81c30.11 31.93 65.08 50.9 106.2 50.9 55.88 0 105.32-20.65 145.22-60.55 66.3-66.29 113.97-185.09 113.97-343.9 0-191.58-80.83-282.12-158.39-282.12-72.53 0-128.55 74.19-149.01 145.44l3.14-145.44-149.72 29.96c50.75 15.6 56.58 31.34 56.58 72.42zm498.17-100v-558.82c0-41.08-5.82-56.82-56.57-72.42l150.4-29.96-4.46 250.41c16.2-153.76 72.68-248.81 136.07-248.81 16 0 38.71 6.08 59.35 26.2l-37.61 310.33h-3.83c-11.56-178.72-41.56-241.34-71.02-241.34-34.63 0-82.33 81.12-82.33 301.42v208.91c0 52.08 14.09 65.91 56.58 85.16H510.46zm328.4-280.43c0 205.05 89.24 323.79 197.14 323.79 118.34 0 225.09-147.37 225.09-383.05 0-203.6-91.98-321.51-197.81-321.51-118.12 0-224.42 146-224.42 380.77zm85.92-110.54c0-175.57 45.55-234.11 98.88-234.11 89.27 0 151.29 181.96 151.29 398.21 0 169.86-45.32 234.11-99.11 234.11-89.04 0-151.06-181.96-151.06-398.21zm550.77 337.42l23.86 92.35h50.97c7-39.94 16.31-78.17 28.65-117.61l169.73-570.11h-128.9c6.95 139.91 3.39 338.5-56.85 578.7l-144.7-502.56-10.17-76.14h-110.54zm302.46-226.37c0 207.12 81.01 323.28 184.35 323.28 97.18 0 175.57-100.53 183.33-327.13l-3.37-.45c-27.07 210.4-88.34 247.48-134.73 247.48-82.95 0-150.78-120.48-150.78-367.6 0-165.71 50.64-220.06 94.85-220.06 68.95 0 116.55 122.16 116.55 280.65l24.51-20.02-256.24 26.13v9.55l318.65 26.92c3.37-23.3 4.82-40.18 4.82-61.21 0-196.97-70.27-299.28-164.53-299.28-114.49 0-217.41 150.71-217.41 381.74zm0 0"/></svg>