<svg width="2483" height="1100.002" xmlns="http://www.w3.org/2000/svg"><path d="M295.87 917.152c-32.52 0-75.61-33.42-103.94-90.48v-386.82c18.57-40.63 46.11-71.98 72.66-71.98 74.95 0 136.52 144.36 136.52 316.41 0 184.42-59.52 232.87-105.24 232.87zm-227.94 111.05l-53.8 36.8h231.61c-40.51-23.56-54.39-38.8-54.39-90.15v-94.05l-80.87 32.77c33.43 26.19 70.8 41.1 108.78 41.1 72.19 0 132.31-23.6 179.41-70.71 68.15-68.15 116.37-183.69 116.37-334.11 0-188.81-82.3-278.98-163.56-278.98-78.63 0-138.72 76.78-159.55 152.28l4.07-152.28-181.87 32.37c46.5 16.89 53.8 34.85 53.8 81.65zm541.7-100v-543.31c0-46.8-7.3-64.76-53.8-81.65l183.1-32.37-4.82 259.65c18.78-160.04 79.69-256.76 148.26-256.76 16 0 36.87 5.35 56.39 22.33l-49.43 354.3h-5.31c-15.26-176.87-45.26-244.85-75.09-244.85-33.52 0-75.3 77.98-75.3 270.2v199.11c0 51.35 13.35 66.65 53.8 90.15h-231.6zm364.11-276.74c0 206.71 99.96 327.67 221.52 327.67 132.39 0 251.89-148.48 251.89-384.72 0-204.89-104.91-323.54-222.76-323.54-131.98 0-250.65 146-250.65 380.59zm120.65-127.18c0-162.26 38.72-220.43 85.02-220.43 80.59 0 146.68 201.37 146.68 421.87 0 151.93-38.31 220.43-85.44 220.43-80.17 0-146.26-201.37-146.26-421.87zm576.59 357.2l22.93 89.39h87.37c7-44.74 15.76-83.15 31.61-129.44l178.41-556.43h-176.56c26.33 143.08 37.69 332.43-21.94 572.78l-155.78-495.71-8.69-77.07H1477.7zm347.82-227.48c0 203.98 91.55 325.13 208.94 325.13 112.69 0 196.26-106.63 210.3-317.52l-4.47-.83c-32.81 175.11-91.85 211.46-143.42 211.46-91.82 0-161.13-118.46-161.13-362.44 0-153.32 43.07-204.71 83.39-204.71 60.83 0 109.72 127.15 109.72 283.61l26.54-24.09-232.95 33.52v9.17l328.06 38.2c4.48-29.22 6.31-49.24 6.31-74.33 0-192.91-78.59-301.13-187.63-301.13-129.46 0-243.66 155.33-243.66 383.96zm0 0"/></svg>