<svg width="2830" height="1100.002" xmlns="http://www.w3.org/2000/svg"><path d="M239 486.002c0-127 29-173 53-173 29 0 66 65 101 166v325c-8 6-15 8-21 8-82 0-133-167-133-326zm-219 235c0 180 87 269 180 269 98 0 171-85 193-174l-1 199-45 55h322c-34-37-45-57-45-106l1-671c-45-12-113-23-183-23-249 0-422 197-422 451zm956-241v129c0 98 7 167 74 167 14 0 33-3 52-10v-345c0-65-12-90-45-111l287-40-10 210v374c0 59 11 79 45 106l-290 30 13-210c-50 108-126 205-218 205-85 0-140-60-140-202v-362c0-65-12-90-45-111l287-40zm478 435v-501c0-62-12-87-45-114l287-30-10 214v380c0 59 11 79 45 106h-322zm110-660c-93 0-146-44-146-103s51-107 141-107c91 0 150 48 150 107s-57 103-145 103zm473 101v261c0 97 23 154 94 154 16 0 34-3 55-11-55 125-145 230-237 230-87 0-144-61-144-203v-347c0-90-12-113-45-150h46l216-201 15 201h154v10zm180 303c0 194 125 331 287 331s262-126 296-287l-8-2c-51 63-103 97-171 97-120 0-194-112-194-346 0-114 19-156 47-156 35 0 88 143 88 293l33-37-159 57v8l358 74c8-48 11-78 11-116 0-180-105-307-261-307-177 0-327 170-327 391zm0 0"/></svg>