<svg width="2199" height="1100.002" xmlns="http://www.w3.org/2000/svg"><path d="M277.17 1079.132l151.09-20 5.28-134.96 99.83-558.58 50.33-70.26c-50.48-17.33-94.35-24.46-138.46-24.46-107.65 0-208.81 44.09-282.63 120.39-104.94 107.83-151.76 282.44-151.76 407.11 0 113.11 40.54 180.35 105.87 180.35 29.26 0 60.93-13.31 92.19-44.57 49.81-49.8 111.61-164.13 167.29-383.58zm-76.08-197c-32.22 0-51.02-45.24-51.02-138.28 0-139.96 46.28-338.94 100.67-393.33 26.78-26.78 70.41-35.48 121.5-35.48 16.85 0 32.87 8.26 46.41 19.83-95.98 423.46-173.24 547.26-217.56 547.26zm600.67-610.26L613 309.202l51.46 33.21-71.74 408.16c-28.37 156.84 6.3 228.56 72.74 228.56 33.74 0 69.54-17.43 102.45-50.35 54.46-54.45 121.52-161.61 166.89-322.26l-65.78 372.61 189.35-37.33-51.46-33.21 112.35-637.72-147.02 28.39v97.87c-72.72 355.67-169.72 485.83-219.22 485.83-37.24 0-44.93-81.94-25.45-192.09zm323.11 706.67l193.46-36.74-57.33-33.8 111.52-637.13-193.45 37.33 57.32 33.21zm203.09-760.24c57.43 0 98.61-32.08 98.61-76.13-.42-37.21-32.46-66.95-81.42-66.95-59.08 0-97.13 35.98-97.54 77.13-.41 35.39 30.98 65.95 80.35 65.95zm302.58 66.7h121.59v5.3l-130.85 45.44-62.89 359.83c-20.82 118.95-12.32 184.45 18.46 184.45 25.69 0 55.74-30.85 92.85-160.22h5.3c-33.41 183.53-103.13 259.33-174.09 259.33-63.48 0-106.32-61.15-76.84-231.5l48.97-280.24c18-102.59 15.59-136.5-.37-177.98l168.44-185.67zm528.42 312.8c-20.55 256.74-134.22 381.33-255.79 381.33-91.24 0-170.89-85.5-170.89-244.61 0-146.26 55.29-297.5 142.42-384.63 50.34-50.35 108.41-79.02 173.02-79.02 83.71 0 143.37 45.54 143.37 131.89 0 61.26-29.16 121.83-67.76 160.44-71.63 71.63-174.57 104.47-287.68 123.47l10.33-72.95c25.93 17.21 49.04 31.19 74.28 31.19 38.17 0 69.35-8.28 91.96-30.89 33.87-33.87 49.11-116.52 49.11-195.91 0-77.35-22.87-127.74-57.96-127.74-63.61 0-143.87 185.43-143.87 364.28 0 144.07 52.04 216.76 113.46 216.76 62.52 0 139.56-60.02 180.69-273.61zm0 0"/></svg>