<svg width="2800" height="1100.002" xmlns="http://www.w3.org/2000/svg"><path d="M308 1090.002l272-20v-142l101-558 65-55c-81-32-146-45-213-45-137 0-281 57-383 165-102 109-150 266-150 376 0 109 47 178 127 178 41 0 85-18 128-61 41-41 94-116 135-248zm-8-278c-24 0-34-47-34-106 0-120 41-336 86-381 8-8 17-12 27-12 28 0 54 20 74 48-59 309-121 451-153 451zm754-541l-295 52 45 52-60 343c-36 195 11 272 88 272 49 0 103-28 150-75 48-48 91-117 117-199l-47 274 295-52-45-52 110-616-265 46v146c-51 260-94 352-130 352-39 0-42-106-19-232zm355 719l295-52-45-52 108-616-295 52 45 52zm269-735c95 0 162-45 162-109-1-56-53-101-136-101-99 0-157 53-158 110-1 53 48 100 132 100zm456 35h121v10l-142 56-40 226c-22 126-27 232 12 232 21 0 44-15 77-98h10c-34 180-136 274-241 274-94 0-148-77-115-272l39-228c18-102 15-150-8-195l287-198zm628 277c0 245-126 423-318 423-120 0-229-72-229-254 0-131 50-257 143-350 75-75 163-116 264-116 116 0 178 52 178 136 0 73-45 123-66 144-91 91-218 135-327 154l25-107c23 36 42 67 69 67 10 0 13-3 18-8 28-28 45-140 45-237 0-75-17-116-38-116-46 0-84 169-84 305 0 147 72 188 134 188 86 0 156-70 176-229zm0 0"/></svg>