<svg width="4713.93" height="1100.002" xmlns="http://www.w3.org/2000/svg"><path d="M4.6 974.142l167.19-33.62-59.66-26.53 141.03-799.62h73.83c108.48 0 150.34 54.21 150.34 135.43 0 118.03-124.23 202.1-231.1 247.25l-38.46 18.91v3.82c80.63 336.17 123.73 455.5 199.05 455.5 64.15 0 81.03-85.54 81.03-169.9 0-133.61-34.72-239.52-45.58-285.31h-3.82c11.63 63.96 27.52 150.15 27.52 255.01 0 59.51-8.29 98.22-32.69 98.22-34.43 0-72.46-87.28-168.5-377.2 181.74-40.12 315.54-121.56 315.54-251.27 0-78.94-50.14-141.83-206.15-141.83H103.83c33.85 17.05 47.49 34.39 37.71 90.93zm953.14-367.06c-27.01 260.43-136.81 368.2-236.2 368.2-82.18 0-152.59-89.75-152.59-241.65 0-151.06 56.94-310.25 142.22-395.53 42.59-42.59 91.23-67.38 144.38-67.38 73.56 0 132.47 43.51 132.47 130.6 0 57.56-24.16 121.45-68.31 165.6-65.54 65.54-160.89 94.87-275.3 113.87l5.71-62.24c26.86 11.31 51.26 19.93 75.95 19.93 47.04 0 87.08-9.95 115.23-38.1 35.72-35.72 50.41-109.13 50.41-182.98 0-78.08-24.72-131.43-64.24-131.43-69.15 0-162.72 190.61-162.72 382.94 0 143.14 45.76 225.82 106.99 225.82 55.13 0 134.39-56.88 182.17-287.65zm431.77-318.37l-42.71 518.64c-44.27 84.35-81.59 123.16-126.09 123.16-59.67 0-101.64-77.63-101.64-193.02 0-145.38 67.81-285.37 162.96-466.77l-199.48 58.23 103.63 78.18c-77.56 100.52-157.26 242.02-157.26 386.01 0 113.91 52.94 182.14 141.38 182.14 51.82 0 99.74-26.79 134.47-61.52 113.69-113.68 171.15-337.59 189.94-633.96zm126.89 457.96c0 148.54 64.2 228.61 152.5 228.61 156.68 0 290.57-203.92 290.57-474.81 0-152.87-64.89-229.75-151.82-229.75-156.67 0-291.25 204.61-291.25 475.95zm96.09 16.82c0-231.24 89.98-481.86 177.22-481.86 47.9 0 73.67 67.76 73.67 201.57 0 231.23-90.43 481.17-177.67 481.17-47.67 0-73.22-69.59-73.22-200.88zm632-712.77l-111.02 25.53-8.49 144.27-133.26 753.62 153.77-32.71-53.49-27.3zm183.83 221l-155.32 32.7 53.49 27.31-75.44 428.66c-25.96 144.84 4.83 214.89 67.94 214.89 28.93 0 59.01-14.11 87.49-42.58 56.49-56.49 131.13-175.66 182.6-361.07l-71.7 403.65 156.09-32.7-53.49-27.31 113.09-644.55-109.89 22.85v82.71c-79.55 385.8-193.55 527.96-247.3 527.96-36.68 0-45.86-74.36-27.49-179.52zm524.19 11.28h121.77v3.83l-127.33 42.1-70.1 401.96c-20.46 116.74-7.71 169.49 20.49 169.49 27.17 0 59.43-35.84 97.83-179.8h3.83c-33.23 184.63-92.78 254.7-153.02 254.7-53.87 0-93.21-56.16-64.84-218.75l52.12-296.68c18-102.77 15.77-132.25 2.03-172.62l131.11-181.8zm95.21 691.51l161.49-31.93-61.21-28.08 112.63-643.78-161.49 32.7 61.21 27.31zm182.02-768.18c45.61 0 78.65-28.03 78.65-65.79-.23-31.3-25.99-56.24-64.23-56.24-46.52 0-78.28 30.62-78.51 66.79-.23 29.84 25.62 55.24 64.09 55.24zm61.66 540.34c0 148.54 64.2 228.61 152.5 228.61 156.68 0 290.57-203.92 290.57-474.81 0-152.87-64.89-229.75-151.82-229.75-156.67 0-291.25 204.61-291.25 475.95zm96.09 16.82c0-231.24 89.98-481.86 177.22-481.86 47.9 0 73.67 67.76 73.67 201.57 0 231.23-90.43 481.17-177.67 481.17-47.67 0-73.22-69.59-73.22-200.88zm374.6 210.65l112.4-643.41-53.49-27.31 155.32-32.7-70.93 403.42c51.43-185.17 125.65-304.12 182.14-360.61 28.94-28.93 59.16-42.81 88.4-42.81 63.11 0 92.99 70.05 67.71 214.89l-74.98 427.75 53.49 27.3-155.31 32.71 79.69-452.09c18.37-105.16 9.2-179.52-27.49-179.52-52.75 0-171.63 150.64-247.07 521.13l.23 88.4zm736.56-290.61c55.58 50.75 78.69 88.48 78.69 144.73 0 79.97-57.54 122.89-112.55 122.89-67.96 0-120.58-58.1-139.32-220.28h-3.83l-56.8 225.78c34.37 10.09 66.02 18.63 128.25 18.63 167.03 0 248.59-98.62 248.59-204.55 0-60.52-27.19-111.43-85.9-164.43l-62.82-52.55c-43.61-38.77-78.32-76.44-78.32-140.41 0-79.97 48.27-118.49 103.28-118.49 67.95 0 116.52 60.68 133.1 220.51h3.83l59.08-226.01c-34.36-10.09-61.39-18.63-123.61-18.63-167.04 0-239.34 95.85-239.34 198.38 0 73.97 33.05 113.97 88.44 164.11zm0 0"/></svg>