<svg width="5142.74" height="1100.002" xmlns="http://www.w3.org/2000/svg"><path d="M5.89 977.072l203.78-38.98-56.15-32.63 138.63-787.98h58.31c95.91 0 136.84 50.32 136.84 131.74 0 105.08-107.41 194.89-206.89 251.5l-38.82 26.11v5.3c79.52 341.15 132.41 447 207.17 447 75.61 0 95.63-102.17 95.63-194.11 0-128.43-32.87-235.09-42.8-284.76h-5.31c10.52 66.37 23.09 144.61 23.09 231.54 0 61.55-10.13 98.42-33.24 98.42-30.74 0-66.37-72.13-177-339.33 183.96-36.98 321.63-114.72 321.63-242.59 0-83.73-57.52-143.3-207.06-143.3H105.3c32.94 18.72 45.46 39.57 35.87 95.74zm1041.07-379.27c-20.55 256.74-134.22 381.33-255.79 381.33-91.24 0-170.89-85.5-170.89-244.61 0-146.26 55.29-297.5 142.42-384.63 50.34-50.35 108.41-79.02 173.02-79.02 83.71 0 143.37 45.54 143.37 131.89 0 61.26-29.16 121.83-67.76 160.44-71.63 71.63-174.57 104.47-287.68 123.47l10.33-72.95c25.93 17.21 49.04 31.19 74.28 31.19 38.17 0 69.35-8.28 91.96-30.89 33.87-33.87 49.11-116.52 49.11-195.91 0-77.35-22.87-127.74-57.96-127.74-63.61 0-143.87 185.43-143.87 364.28 0 144.07 52.04 216.76 113.46 216.76 62.52 0 139.56-60.02 180.69-273.61zm431.58-302.47l-47.32 545.06c-35.59 64.39-65.89 94.15-101.89 94.15-56.16 0-94.07-76.52-94.07-197.08 0-140.03 58.76-286.48 148.37-466.59l-220.91 75.41 102.52 87.24c-81.26 96.09-155.04 229.09-155.04 362.55 0 114.65 57.73 183.06 153.02 183.06 59.76 0 118.95-30.67 162.37-74.09 114.24-114.24 182.61-345.34 194.74-625.82zm156.57 443.37c0 154.63 72.05 240.43 178 240.43 166.57 0 311.26-198.2 311.26-465.76 0-162.48-73.29-242.5-176.76-242.5-166.57 0-312.5 199.43-312.5 467.83zm129.35 41.76c0-224.96 85.91-497.94 166.87-497.94 40.26 0 63.69 57.05 63.69 188.26 0 224.96-86.74 496.7-167.69 496.7-39.85 0-62.87-60.35-62.87-187.02zm676-729.59l-149.09 31.63-6.46 152.59-131.04 741.98 187.59-37.33-51.46-33.22zm216.3 221L2468 309.202l51.46 33.21-71.74 408.16c-28.37 156.84 6.3 228.56 72.74 228.56 33.74 0 69.54-17.43 102.45-50.35 54.46-54.45 121.52-161.61 166.89-322.26l-65.78 372.61 189.35-37.33-51.46-33.21 112.35-637.72-147.02 28.39v97.87c-72.72 355.67-169.72 485.83-219.22 485.83-37.24 0-44.93-81.94-25.45-192.09zm571.78 13.13h121.59v5.3l-130.85 45.44-62.89 359.83c-20.82 118.95-12.32 184.45 18.46 184.45 25.69 0 55.74-30.85 92.85-160.22h5.3c-33.41 183.53-103.13 259.33-174.09 259.33-63.48 0-106.32-61.15-76.84-231.5l48.97-280.24c18-102.59 15.59-136.5-.37-177.98l168.44-185.67zm87.33 693.54l193.46-36.74-57.33-33.8 111.52-637.13-193.45 37.33 57.32 33.21zm203.09-760.24c57.43 0 98.61-32.08 98.61-76.13-.42-37.21-32.46-66.95-81.42-66.95-59.08 0-97.13 35.98-97.54 77.13-.41 35.39 30.98 65.95 80.35 65.95zm72.15 520.4c0 154.63 72.05 240.43 178 240.43 166.57 0 311.26-198.2 311.26-465.76 0-162.48-73.29-242.5-176.76-242.5-166.57 0-312.5 199.43-312.5 467.83zm129.35 41.76c0-224.96 85.91-497.94 166.87-497.94 40.26 0 63.69 57.05 63.69 188.26 0 224.96-86.74 496.7-167.69 496.7-39.85 0-62.87-60.35-62.87-187.02zm385.89 196.61l111.11-635.66-51.46-33.21 188.76-37.33-65.19 372.2c45.29-160.21 111.6-266.98 166.06-321.44 33.74-33.74 69.81-50.76 104.11-50.76 66.43 0 99.46 71.72 72.33 228.56l-70.92 406.5 51.46 33.22-188.76 37.33 73.78-417.35c19.48-110.15 11.78-192.09-25.46-192.09-48.5 0-153.52 143.07-218.8 477.53l.41 104.1zm802.26-268.44c59.27 50.54 79.24 88.87 79.24 136.41 0 65.37-46.63 102.57-95.18 102.57-63.89 0-132.38-65.48-166.3-222.13h-5.3l-71.22 236.13c35.48 9.35 70.08 17.52 132.5 17.52 197.01 0 283.89-103.98 283.89-214.72 0-62.56-29.78-114.19-93.11-167.19l-81.3-62.72c-48.96-40.2-77.76-79.23-77.76-132.65 0-65.37 39.58-99.46 88.13-99.46 63.85 0 129.89 70.15 159.89 222.54h5.3l75.35-236.54c-35.48-9.35-66.57-17.52-128.98-17.52-197.01 0-276.85 101.39-276.85 210.02 0 72.33 34.72 116.37 95.29 167.44zm0 0"/></svg>