<svg width="6431" height="1100.002" xmlns="http://www.w3.org/2000/svg"><path d="M549.7 715.122c-2.31 154.44-116.11 268.46-292.93 268.46-104.75 0-188.31-30.43-229.92-53.5l64.35-337.99h7.26c70.76 280.78 206.78 340.71 282.08 340.71 43.75 0 89.05-32.54 89.05-95.74 0-43.09-15.4-75.6-55.78-115.98-66.2-66.19-221.33-117.18-296.22-192.07-38.33-38.33-77.45-94.48-77.45-181.66 0-146.33 113.82-256.93 283.58-256.93 103.7 0 190.92 28.8 230.48 50.84l-68.43 332.13h-7.26c-63.28-251.55-193.21-332.19-276.95-332.19-47.33 0-83.94 33.14-83.94 78.95 0 45.03 26.79 87.88 66.3 126.07 80.35 80.35 217.58 116.12 288.54 187.08 42.08 41.41 77.24 96.93 77.24 181.82zm372.72 199.39c-31.05 0-73.01-43.15-102.71-114.45v-353.57c14.17-26.2 33.15-45.32 51.13-45.32 77.89 0 135.06 146.36 135.06 305.41 0 160.5-46.81 207.93-83.48 207.93zm-271.71 108.1l-50.13 44.39h269.27c-37.86-29.22-50.48-46.39-50.48-96.76v-91.1l-112.17 43.27c37.83 18.62 78.38 28.15 112.2 28.15 93.78 0 168.01-27.52 224.66-84.17 70.61-70.61 119.55-181.82 119.55-321.15 0-185.13-84.26-274.82-170.41-274.82-86.71 0-152.17 80.21-173.49 161.34l5.29-161.34-224.42 35.55c40.87 18.61 50.13 39.5 50.13 93.88zm873.51-356.6l-.34 150.8c-17.68 19.72-40.8 51.14-69.55 51.14-41.53 0-74.45-33.66-74.45-117.35 0-45.14 10.05-79.73 30.53-100.2 11.82-11.82 31.49-20.99 53.16-20.99 15.65 0 35.34 13.18 60.65 36.6zm168-216.53c0-128.99-51.97-179.06-123.9-179.06-88.71 0-162.52 105.16-224.4 273.34l65.09-256.76h-183.63l84.19 384.84h7.26c37.81-183.51 91.79-246.62 135.39-246.62 40.03 0 71.66 35.34 71.66 101.37v62.8c-146.4 48.17-205.61 80.59-245.29 120.27-38.43 38.43-57.74 84.84-57.74 137.38 0 82.88 53.26 136.54 123.36 136.54 76.02 0 138-73.41 179.67-153.09l-9.55 153.09 228.03-28.98c-41.53-22.55-50.14-40.15-50.14-90.59zm86.63 198.63c0-222.19 125.14-374.4 316.31-374.4 64.7 0 119.51 17.37 159.95 34.34l-98.5 401.86h-7.26c-53.78-283.76-109.7-399.62-161.58-399.62-33.3 0-61.73 66.9-61.73 181.22-.69 212.44 80.86 340.51 195.34 340.51 32.79 0 88.75-16.3 133.08-119.71-26.31 163.28-99.23 270.61-235.75 270.61-131.14 0-239.86-125.15-239.86-334.81zm530.29 7.89c0 199.82 105.48 327.58 241.46 327.58 133.24 0 223.65-114.71 246.01-304.81l-5.95-1.31c-40.38 128.39-96.49 163.76-154.9 163.76-103.57 0-174.83-115.76-174.83-355.58 0-136.94 33.04-184.42 68.23-184.42 50.06 0 100.67 133.75 100.67 287.52l29.23-29.47-202.14 43.31v8.68l340.54 53.11c5.94-37.04 8.26-61.22 8.26-91.69 0-187.53-89.59-303.57-218.2-303.57-149.27 0-278.38 161.44-278.38 386.89zm590.65 266.61l-50.13 44.39h269.27c-37.77-22.55-50.14-39.81-50.14-96.76v-632.52l8.58-187.3-227.71 28.98c40.87 22.55 50.13 43.44 50.13 95.85zm568.43-256.6l-.34 150.8c-17.68 19.72-40.8 51.14-69.55 51.14-41.53 0-74.45-33.66-74.45-117.35 0-45.14 10.05-79.73 30.53-100.2 11.82-11.82 31.49-20.99 53.16-20.99 15.65 0 35.34 13.18 60.65 36.6zm168-216.53c0-128.99-51.97-179.06-123.9-179.06-88.71 0-162.52 105.16-224.4 273.34l65.09-256.76h-183.63l84.19 384.84h7.26c37.81-183.51 91.79-246.62 135.39-246.62 40.03 0 71.66 35.34 71.66 101.37v62.8c-146.4 48.17-205.61 80.59-245.29 120.27-38.43 38.43-57.74 84.84-57.74 137.38 0 82.88 53.26 136.54 123.36 136.54 76.02 0 138-73.41 179.67-153.09l-9.55 153.09 228.03-28.98c-41.53-22.55-50.14-40.15-50.14-90.59zm125.89 473.13l-50.14 44.39h269.27c-37.76-29.13-50.13-46.39-50.13-96.76v-397.19c30.69-46.66 55.2-60.9 77.76-60.9 54.86 0 80.77 60.12 80.77 168.05v342.41l-43.56 44.39h262.69c-37.76-29.13-50.13-46.39-50.13-96.76v-407.06c0-137.21-51.24-192.76-125.28-192.76-83.1 0-154.65 85.5-202.25 186.24l7.26-186.24-226.4 35.55c40.88 18.61 50.14 39.5 50.14 93.88zm828.24-602.98c31.39 0 68.39 49.25 102.71 124.91v364.33c-14.16 26.21-33.15 43.96-51.13 43.96-77.89 0-135.05-153.19-135.05-320.48 0-163.3 46.8-212.72 83.47-212.72zm271.71-51.66l7.92-217.55-227.06 32.26c41.54 21.9 50.48 42.79 50.48 93.89v172.27l110.12-41.23c-42.77-18.79-80.78-24.03-109.47-24.03-93.54 0-167.32 27.52-223.97 84.16-72.89 72.9-120.92 194.34-120.92 342.38 0 185.14 84.26 273.46 170.42 273.46 86.7 0 152.16-78.84 173.48-159.97l-7.58 159.97 226.72-32.26c-41.54-21.9-50.14-42.79-50.14-93.89zm96.08 388.03c0 199.82 105.48 327.58 241.46 327.58 133.24 0 223.65-114.71 246.01-304.81l-5.95-1.31c-40.38 128.39-96.49 163.76-154.9 163.76-103.57 0-174.83-115.76-174.83-355.58 0-136.94 33.04-184.42 68.23-184.42 50.06 0 100.67 133.75 100.67 287.52l29.23-29.47-202.14 43.31v8.68l340.54 53.11c5.94-37.04 8.26-61.22 8.26-91.69 0-187.53-89.59-303.57-218.2-303.57-149.27 0-278.38 161.44-278.38 386.89zm587.31 266.61v-522.76c0-54.38-9.26-75.27-50.13-93.88l226.39-35.55-5.31 271.88c22.2-168.35 88.99-267.27 164.4-267.27 16 0 34.42 4.37 52.48 17.19l-65.09 412.51h-7.26c-20.15-174.43-50.15-249.5-80.47-249.5-32.05 0-66.01 73.82-66.01 228.87v186.14c0 50.37 12.37 67.63 50.14 96.76h-269.27zm471.94-234.72l-60.54 250.79c35.52 19.58 106.62 44.9 199.95 44.9 157.95 0 241.36-96.57 241.71-209.43 0-71.87-27.74-116.63-62.19-151.08-65.25-65.25-193.56-107.6-251.87-166.56-19.61-19.61-44.35-47.75-44.35-80.39 0-38.49 32.3-61.1 67.49-61.1 64.31 0 154.71 70.18 226.53 250.43h7.26l61.3-250.48c-33.46-18.55-102.56-44.55-188.58-44.55-146.08 0-244.91 88.1-244.91 208.12 0 65.23 27.03 112.18 63.4 148.55 50.12 50.12 196.32 113.59 248.02 165.29 26.19 26.19 44.36 52.46 44.36 86.16 0 41.12-29.96 61.76-64.6 61.76-56.3 0-162.07-60.32-235.72-252.41zm0 0"/></svg>