<svg width="1462.16" height="1100.002" xmlns="http://www.w3.org/2000/svg"><path d="M233.81 683.532c55.58 50.75 78.69 88.48 78.69 144.73 0 79.97-57.54 122.89-112.55 122.89-67.96 0-120.58-58.1-139.32-220.28H56.8L0 956.652c34.37 10.09 66.02 18.63 128.25 18.63 167.03 0 248.59-98.62 248.59-204.55 0-60.52-27.19-111.43-85.9-164.43l-62.82-52.55c-43.61-38.77-78.32-76.44-78.32-140.41 0-79.97 48.27-118.49 103.28-118.49 67.95 0 116.52 60.68 133.1 220.51h3.83l59.08-226.01c-34.36-10.09-61.39-18.63-123.61-18.63-167.04 0-239.34 95.85-239.34 198.38 0 73.97 33.05 113.97 88.44 164.11zM923 363.772l42.62-75.06c-40.87-12.71-78.09-17.99-114.99-17.99-95.33 0-169.87 40.79-234.06 106.35-105.86 107.45-167.75 287.6-167.75 434.65 0 110.54 33.11 163.33 89.19 163.33 25.56 0 53.36-11.82 80.92-39.39 52.58-52.57 118.7-179.28 188.25-433.99l-88.47 472.84 157.83-32.39-53.49-28.08zm-328.52 540.01c-30.18 0-45.58-44.68-45.58-130.69 0-156.27 62.61-357.61 119.96-414.96 28.83-28.84 53.27-45.96 96.45-45.96 29.55 0 57.86 6.11 75.55 14.05-105.31 428.62-198.18 577.56-246.38 577.56zm862.93-633.06l-105.97 22.85v82.26c-45.3 271.55-103.19 414.37-156.94 468.12-18.49 18.48-36.72 26.8-53.61 26.8-54.87 0-75.99-75.45-75.99-157.91 0-140.39 73.99-268.42 161.41-442.12L1033 328.952l100.03 77.41c-71.03 98.22-163.44 246.24-163.44 390.23 0 103.06 45.52 148.61 102.25 148.61 34.34 0 71.05-17.06 105.24-51.25 54.67-54.67 97.7-145.71 129.65-266.28l-41.09 240.47c-25.95 149.35-114.34 185.96-178.15 185.96-58.3 0-108.54-40.76-130.4-177.67h-3.82l-47.15 182.71c46.31 12.15 91.38 16.14 124.54 16.14 96.5 0 168.57-32.74 230.14-94.31 62.59-62.59 97.53-130.81 116.2-239.37zm0 0"/></svg>