<svg width="1731.89" height="1100.002" xmlns="http://www.w3.org/2000/svg"><path d="M291.78 741.202c64.18 50.27 79.97 89.38 79.97 125.41 0 46.05-32.2 75.66-72.18 75.66-58.5 0-148.01-75.23-202.01-224.57H90.3L0 967.522c36.95 8.37 75.47 16.06 138.13 16.06 236.69 0 330.6-111.07 330.6-228.17 0-65.26-33.2-117.87-102.64-170.87l-105.76-76.17c-56.05-42.1-77.03-82.91-77.03-122.38 0-46.04 28.09-74.26 68.07-74.26 58.44 0 147.59 82.67 195.36 225.23h7.26l96.87-250.48c-36.95-8.37-73.42-16.06-136.07-16.06-236.69 0-326.5 108.73-326.5 225.43 0 70.16 36.92 119.55 104.33 171.84zm818.72-373.86l55.08-63.9c-63.2-23.44-115.87-33.02-169.52-33.02-118.51 0-231.7 49.81-316.92 138.98-103.71 108.32-157.87 275.59-157.87 402.02 0 109.69 40.83 171.5 110.22 171.5 34.15 0 70.96-15.26 107.11-51.41 46.14-46.14 104.96-144.08 158.63-330.52l-74.3 382.24 240.26-44.41-48.77-41.39zm-357.71 485.49c-26.74 0-39.14-45.98-39.14-116.96 0-136.09 50.59-345.59 101.07-396.07 17.24-17.24 33.09-27.06 57.81-27.06 28.69 0 55.71 13.84 74.69 32.93-79.55 362.07-155.24 507.16-194.43 507.16zm979.1-582.41l-190.55 35.73v116.61c-27.33 182.79-69.71 298.45-113.59 342.32-13.76 13.77-27.97 20.79-41.58 20.79-37.7 0-51.52-51.83-51.52-120.13 0-112.91 49.52-250.38 103.88-395.32L1207 368.582l94.46 98.88c-65.46 74.18-154.85 192.14-154.85 311.66 0 91.9 50.23 136.59 112.12 136.59 42.5 0 89.94-20.92 130.14-61.13 46.51-46.5 83.96-116.94 112.04-206.59l-39.37 226.3c-24.86 141.37-82.99 167.06-125.77 167.06-47.56 0-122.7-55.36-181.91-169.5h-7.26l-73.77 193.44c41.68 12.62 78.92 18.29 123.68 18.29 116.25 0 216.65-37.9 311.29-132.53 80.62-80.62 132.84-154.84 161.7-320.95zm0 0"/></svg>