<svg width="2452" height="1100.002" xmlns="http://www.w3.org/2000/svg"><path d="M98 695.002l-78 246c41 23 121 49 227 49 185 0 278-113 278-231 0-77-25-118-55-148-81-81-248-123-320-196-9-9-31-32-31-53 0-20 21-32 49-32 65 0 178 76 282 234h10l75-245c-41-23-119-49-217-49-168 0-286 97-286 229 0 69 26 118 61 153 58 58 247 129 310 192 19 19 31 35 31 55 0 24-19 33-42 33-45 0-172-61-284-237zm809-1v133c-17 5-23 8-36 8-47 0-70-34-70-104 0-40 8-65 23-80 6-6 13-9 22-9 16 0 35 19 61 52zm231-222c0-142-53-202-140-202-100 0-181 112-260 286l87-266H577l115 391h10c45-139 87-198 133-198 39 0 72 35 72 100v20c-175 63-233 96-272 135-35 35-55 76-55 123 0 75 56 129 135 129 75 0 138-58 192-150l-14 150 290-30c-34-27-45-47-45-106zm50-182h288l11 80 185 409c53.55-147.27-2.58-343.54-91-489h321l-207 476c-120 277-294 324-407 324-31 0-59-4-85-10l72-421h10c40 277 110 345 182 345 18 0 36-5 55-12zm807 405l-78 246c41 23 121 49 227 49 185 0 278-113 278-231 0-77-25-118-55-148-81-81-248-123-320-196-9-9-31-32-31-53 0-20 21-32 49-32 65 0 178 76 282 234h10l75-245c-41-23-119-49-217-49-168 0-286 97-286 229 0 69 26 118 61 153 58 58 247 129 310 192 19 19 31 35 31 55 0 24-19 33-42 33-45 0-172-61-284-237zm0 0"/></svg>