<svg width="4790.28" height="1100.002" xmlns="http://www.w3.org/2000/svg"><path d="M258.76 708.632c59.27 50.54 79.24 88.87 79.24 136.41 0 65.37-46.63 102.57-95.18 102.57-63.89 0-132.38-65.48-166.3-222.13h-5.3L0 961.612c35.48 9.35 70.08 17.52 132.5 17.52 197.01 0 283.89-103.98 283.89-214.72 0-62.56-29.78-114.19-93.11-167.19l-81.3-62.72c-48.96-40.2-77.76-79.23-77.76-132.65 0-65.37 39.58-99.46 88.13-99.46 63.85 0 129.89 70.15 159.89 222.54h5.3l75.35-236.54c-35.48-9.35-66.57-17.52-128.98-17.52-197.01 0-276.85 101.39-276.85 210.02 0 72.33 34.72 116.37 95.29 167.44zm664.35-110.83c-20.55 256.74-134.22 381.33-255.79 381.33-91.24 0-170.89-85.5-170.89-244.61 0-146.26 55.29-297.5 142.42-384.63 50.34-50.35 108.41-79.02 173.02-79.02 83.71 0 143.37 45.54 143.37 131.89 0 61.26-29.16 121.83-67.76 160.44-71.63 71.63-174.57 104.47-287.68 123.47l10.33-72.95c25.93 17.21 49.04 31.19 74.28 31.19 38.17 0 69.35-8.28 91.96-30.89 33.87-33.87 49.11-116.52 49.11-195.91 0-77.35-22.87-127.74-57.96-127.74-63.61 0-143.87 185.43-143.87 364.28 0 144.07 52.04 216.76 113.46 216.76 62.52 0 139.56-60.02 180.69-273.61zm42.39 379.27l111.11-635.66-51.46-33.21 188.76-37.33-65.19 372.2c45.29-160.21 111.6-266.98 166.06-321.44 33.74-33.74 69.81-50.76 104.11-50.76 66.43 0 99.46 71.72 72.33 228.56l-70.92 406.5 51.46 33.22-188.76 37.33 73.78-417.35c19.48-110.15 11.78-192.09-25.46-192.09-48.5 0-153.52 143.07-218.8 477.53l.41 104.1zm820.19-692.07h121.59v5.3l-130.85 45.44-62.89 359.83c-20.82 118.95-12.32 184.45 18.46 184.45 25.69 0 55.74-30.85 92.85-160.22h5.3c-33.41 183.53-103.13 259.33-174.09 259.33-63.48 0-106.32-61.15-76.84-231.5l48.97-280.24c18-102.59 15.59-136.5-.37-177.98l168.44-185.67zm528.42 312.8c-20.55 256.74-134.22 381.33-255.79 381.33-91.24 0-170.89-85.5-170.89-244.61 0-146.26 55.29-297.5 142.42-384.63 50.34-50.35 108.41-79.02 173.02-79.02 83.71 0 143.37 45.54 143.37 131.89 0 61.26-29.16 121.83-67.76 160.44-71.63 71.63-174.57 104.47-287.68 123.47l10.33-72.95c25.93 17.21 49.04 31.19 74.28 31.19 38.17 0 69.35-8.28 91.96-30.89 33.87-33.87 49.11-116.52 49.11-195.91 0-77.35-22.87-127.74-57.96-127.74-63.61 0-143.87 185.43-143.87 364.28 0 144.07 52.04 216.76 113.46 216.76 62.52 0 139.56-60.02 180.69-273.61zm42.39 379.27l111.11-635.66-51.46-33.21 188.76-37.33-65.19 372.2c45.29-160.21 111.6-266.98 166.06-321.44 33.74-33.74 69.81-50.76 104.11-50.76 66.43 0 99.46 71.72 72.33 228.56l-70.92 406.5 51.46 33.22-188.76 37.33 73.78-417.35c19.48-110.15 11.78-192.09-25.46-192.09-48.5 0-153.52 143.07-218.8 477.53l.41 104.1zm586.52-241.46c.41 161.5 80.48 243.52 164.2 243.52 99.69 0 201.82-109.85 244.76-306.78h-5.31c-53.43 161.72-121.98 192.45-161.59 192.45-64.43 0-120.19-78.17-120.19-235.95 0-197.24 79.85-327.98 139.54-327.98 52.94 0 87.48 136.89 66.35 384.3h5.3l140.83-385.58c-24.3-11.63-69.78-28.72-117.48-28.72-212.93 0-356.41 220.85-356.41 464.74zm446 242.93l193.46-36.74-57.33-33.8 111.52-637.13-193.45 37.33 57.32 33.21zm203.09-760.24c57.43 0 98.61-32.08 98.61-76.13-.42-37.21-32.46-66.95-81.42-66.95-59.08 0-97.13 35.98-97.54 77.13-.41 35.39 30.98 65.95 80.35 65.95zm51.39 758.77l111.11-635.66-51.46-33.21 188.76-37.33-65.19 372.2c45.29-160.21 111.6-266.98 166.06-321.44 33.74-33.74 69.81-50.76 104.11-50.76 66.43 0 99.46 71.72 72.33 228.56l-70.92 406.5 51.46 33.22-188.76 37.33 73.78-417.35c19.48-110.15 11.78-192.09-25.46-192.09-48.5 0-153.52 143.07-218.8 477.53l.41 104.1zm1098.8-611.48l47.98-70.26c-50.89-19.4-99.3-24.46-133.5-24.46-112.33 0-197.72 40.13-270.96 113.37-105.76 105.76-159.37 265.09-159.37 397.89 0 106.87 36.55 152.72 96.18 152.72 29.78 0 64.65-13.31 98.8-47.46 45.26-45.26 107-146.69 166.83-362.93l-58.02 323.69c-29.32 162.59-104.99 192.48-154.89 192.48-58.05 0-117.13-55.87-155.66-166.72h-5.3l-50.07 193.94c30.87 6.93 65.85 11.28 96.72 11.28 107.2 0 214.81-44.61 292.98-122.78 55.04-55.05 109.63-145.07 131.46-270.2zm-334.89 481.34c-27.04 0-41.33-40.6-41.33-127.67 0-135.61 51.83-315.17 104.98-368.33 23.85-23.84 44.59-37.82 79.83-37.82 28.35 0 54.87 11.09 73.52 24.24-90.5 389.65-173.09 509.58-217 509.58zm0 0"/></svg>