<svg width="5301.84" height="1100.002" xmlns="http://www.w3.org/2000/svg"><path d="M291.78 741.202c64.18 50.27 79.97 89.38 79.97 125.41 0 46.05-32.2 75.66-72.18 75.66-58.5 0-148.01-75.23-202.01-224.57H90.3L0 967.522c36.95 8.37 75.47 16.06 138.13 16.06 236.69 0 330.6-111.07 330.6-228.17 0-65.26-33.2-117.87-102.64-170.87l-105.76-76.17c-56.05-42.1-77.03-82.91-77.03-122.38 0-46.04 28.09-74.26 68.07-74.26 58.44 0 147.59 82.67 195.36 225.23h7.26l96.87-250.48c-36.95-8.37-73.42-16.06-136.07-16.06-236.69 0-326.5 108.73-326.5 225.43 0 70.16 36.92 119.55 104.33 171.84zm724.87-156.31c-11.98 251.84-130.79 398.69-281.71 398.69-103.22 0-195.1-79.88-195.1-248.53 0-139.9 53.08-280.62 142.66-370.2 60.62-60.62 131.16-94.43 210.93-94.43 97.17 0 157.8 48.24 157.8 133.61 0 66.15-35.76 122.31-67.03 153.58-79.7 79.71-192.66 117.2-304.06 136.2l16.44-87.14c24.71 25.04 46.11 46.11 72.08 46.11 26.44 0 45.87-6.08 61.14-21.35 31.43-31.42 47.4-126.31 47.4-213.03 0-76.37-20.42-122.85-49.64-122.85-56.27 0-118.92 178.59-118.92 339.58 0 145.29 60.35 204.78 122.01 204.78 72.31 0 146.41-64.18 178.74-255.02zm38.48 395.4l109.4-625.38-48.77-41.05 233.03-43.44-57.62 330.87c37.18-127.17 93.02-217.82 144.79-269.59 40.1-40.1 83.91-61.28 124.9-61.28 70.83 0 108.01 73.92 78.44 246.67l-65.53 378.37 48.76 41.05-233.03 43.44 65.96-371.37c20.95-116.76 15.21-208.72-22.77-208.72-42.87 0-129.55 133.04-181.38 419.8l.66 124.9zm928.86-693.29h121.35v7.26l-135.5 49.84-53.35 304.06c-21.32 121.89-18.44 204.27 15.76 204.27 23.74 0 50.85-24.25 86.25-134.29h7.26c-33.66 182.05-116.83 265.44-201.97 265.44-76.19 0-123.69-67.76-92.74-248.38l44.82-258.47c18-102.34 15.34-142.13-3.55-185.07l217.84-190.81zm569.66 297.89c-11.98 251.84-130.79 398.69-281.71 398.69-103.22 0-195.1-79.88-195.1-248.53 0-139.9 53.08-280.62 142.66-370.2 60.62-60.62 131.16-94.43 210.93-94.43 97.17 0 157.8 48.24 157.8 133.61 0 66.15-35.76 122.31-67.03 153.58-79.7 79.71-192.66 117.2-304.06 136.2l16.44-87.14c24.71 25.04 46.11 46.11 72.08 46.11 26.44 0 45.87-6.08 61.14-21.35 31.43-31.42 47.4-126.31 47.4-213.03 0-76.37-20.42-122.85-49.64-122.85-56.27 0-118.92 178.59-118.92 339.58 0 145.29 60.35 204.78 122.01 204.78 72.31 0 146.41-64.18 178.74-255.02zm38.48 395.4l109.4-625.38-48.77-41.05 233.03-43.44-57.62 330.87c37.18-127.17 93.02-217.82 144.79-269.59 40.1-40.1 83.91-61.28 124.9-61.28 70.83 0 108.01 73.92 78.44 246.67l-65.53 378.37 48.76 41.05-233.03 43.44 65.96-371.37c20.95-116.76 15.21-208.72-22.77-208.72-42.87 0-129.55 133.04-181.38 419.8l.66 124.9zm645.05-250.02c.66 167.13 93.2 253.31 190.37 253.31 120.24 0 224.81-125.75 266.53-287.71h-7.27c-46.58 107.67-106.57 133.52-150.09 133.52-80.08 0-135.11-88.94-135.11-238.9 0-164.22 61.99-278.82 108.48-278.82 51.71 0 88.95 161.11 76.62 408.76h7.26l175.07-430.34c-26.26-8.45-73.21-19.67-118.95-19.67-256.71 0-412.91 225.5-412.91 459.85zm490 252.96l235.77-43.09-52.19-41.39 110.05-628.33-235.76 43.44 52.19 41.05zm230.97-749.72c73.09 0 125.02-37.47 125.02-89.83-.65-45.04-41.01-81.14-104.15-81.14-75.72 0-122.08 43.07-122.74 90.83-.66 42.73 38.07 80.14 101.87 80.14zm65.98 746.78l109.4-625.38-48.77-41.05 233.03-43.44-57.62 330.87c37.18-127.17 93.02-217.82 144.79-269.59 40.1-40.1 83.91-61.28 124.9-61.28 70.83 0 108.01 73.92 78.44 246.67l-65.53 378.37 48.76 41.05-233.03 43.44 65.96-371.37c20.95-116.76 15.21-208.72-22.77-208.72-42.87 0-129.55 133.04-181.38 419.8l.66 124.9zm1222.64-612.95l55.07-63.9c-63.86-26.73-123.76-33.02-161.63-33.02-129.69 0-233.67 42.58-318.89 127.8-105.03 105.03-151.3 247.97-151.3 365.86 0 104.42 39.23 154.91 106.94 154.91 33.2 0 76.88-15.26 117.63-56.01 38.9-38.9 95.75-122.24 144.82-294.21l-50.93 287.99c-26.27 146.92-80.83 171.44-122.86 171.44-52.61 0-130.82-53.42-190.38-157.67h-7.26l-62.54 203.96c28.43 5.72 59.25 9.09 87.67 9.09 133.37 0 267.39-59.78 356.32-148.71 74.61-74.61 128.96-180.04 151.27-307.61zm-347.86 435.37c-24.11 0-36.19-44.52-36.19-121.56 0-117.02 41.07-292.18 89.57-340.69 17.25-17.24 33.1-27.06 57.82-27.06 27.37 0 52.42 16.46 72.05 36.22-73.62 345.63-144.72 453.09-183.25 453.09zm0 0"/></svg>