<svg width="2463.49" height="1100.002" xmlns="http://www.w3.org/2000/svg"><path d="M215.47 664.552c52.85 50.9 78.28 88.19 78.28 150.84 0 90.7-65.55 137.84-125.32 137.84-70.96 0-111.9-52.69-119.49-218.93H46.2L0 952.482c33.55 10.63 63.03 19.44 125.12 19.44 144.99 0 222.65-94.68 222.65-197.08 0-59.02-25.3-109.38-80.61-162.38l-49.24-45.09c-39.67-37.71-78.72-74.39-78.72-146.11 0-90.71 54.66-132.49 114.43-132.49 70.95 0 106.68 53.73 113.39 219.02h2.74l47.13-218.27c-33.55-10.63-57.58-19.44-119.68-19.44-144.99 0-211.75 91.77-211.75 189.82 0 75.18 31.83 112.2 83.42 161.66zm209.1 306.47l137.98-28.41-64.06-23.86 113.45-648.67-137.99 29.31 64.06 22.95zm166.53-774.03c36.91 0 63.98-25.03 63.98-58.17-.1-26.96-21.24-48.36-51.6-48.36-37.28 0-64.42 26.68-64.51 59.17-.09 25.77 21.68 47.36 52.13 47.36zm33.93 774.47l81.75-18.77v-72.76c83.05-406.94 197.84-557.29 249.27-557.29 36.28 0 45.71 68.88 28.24 170.28l-83.85 478.54 81.75-18.77v-72.05c82.95-407.11 197.65-558.18 249.08-558.18 36.28 0 47.52 68.78 30.06 170.28l-84.13 478.74 128.81-29.31-53.97-28.59 77.42-438.85c24.11-136.01-3.19-204.84-63.85-204.84-26.05 0-52.1 11.66-77.32 36.88-55.26 55.26-118.58 186.89-174.53 389.6l41.05-227.74c23.18-131.29-3.76-198.55-64.42-198.55-25.68 0-51.82 11.75-77.32 37.25-55.26 55.26-119.04 186.7-174.9 389.22l76.15-426.47-130.74 29.49 54.06 26.38zm727 98.65l132.44-747.77-54.98-22.95 130.72-29.31-89.21 502.41c74.58-276.31 143.01-412.12 197.63-466.73 24.84-24.85 49.78-35.59 72.63-35.59 51.87 0 82.53 49.94 82.53 160.75 0 153.57-64.34 337.8-170.88 444.98-56.87 57.39-119.54 94.18-207.37 94.18-16.83 0-33.66-1.1-51.4-3.28l43.61-10.84-4.09 99.59zm353.28-747.28c-50.97 0-150.19 152.47-262.73 599.01 17.46 3.94 46.37 7.61 76.19 7.61 49.02 0 76.36-19.43 108.87-51.94 59.33-59.34 124.56-257.54 124.56-419.64 0-90.77-15.63-135.04-46.89-135.04zm363.16-272.75l-83.03 21.04-9.98 138.16-134.89 762.18 128.9-29.31-54.98-22.95zm351.13 563.28c-31.77 263.16-138.71 358.56-221.79 358.56-75.53 0-139.15-92.87-139.15-239.47 0-154.6 58.17-319.63 142.09-403.55 36.88-36.88 78.59-58.82 123.32-58.82 66.08 0 124.45 42.01 124.45 129.64 0 54.85-20.49 121.19-68.72 169.42-61.05 61.04-150.84 87.8-266.19 106.8l2.31-54.36c27.54 6.96 52.89 11.64 77.17 11.64 53.56 0 100.13-11.17 132.36-43.4 37.07-37.08 51.35-103.7 51.35-173.47 0-78.63-26.08-134.15-68.86-134.15-73.23 0-176.57 194.41-176.57 396.67 0 142.46 41.14 232.47 102.23 232.47 49.69 0 130.59-54.57 183.26-297.98zm0 0"/></svg>