<svg width="5329" height="1100.002" xmlns="http://www.w3.org/2000/svg"><path d="M338 787.002c71.04 49.89 81 90.1 81 110 0 19-12 38-40 38-50.96 0-169.88-88.88-252-228h-10l-117 269c39 7 83 14 146 14 292.24 0 396-120 396-247 0-69.04-38-123-116-176l-140-95c-65.96-44.76-76-88.08-76-108 0-19 12-39 40-39 50.85 0 172.37 100.2 245 229h10l127-270c-39-7-83-14-146-14-292.24 0-396 119-396 247 0 67.11 40 124 117 178zm643-737l-270 51v179l-124 705 295-52-45-52zm635 320l65-55c-81-32-146-45-213-45-137 0-281 57-383 165-102 109-150 266-150 376 0 109 47 178 127 178 41 0 85-18 128-61 41-41 94-116 135-248l-63 310 306-54-45-52zm-381 442c-24 0-34-47-34-106 0-120 41-336 86-381 8-8 17-12 27-12 28 0 54 20 74 48-59 309-121 451-153 451zm756-541l-295 52 45 52-60 343c-36 195 11 272 88 272 49 0 103-28 150-75 48-48 91-117 117-199l-47 274 295-52-45-52 110-616-265 46v146c-51 260-94 352-130 352-39 0-42-106-19-232zm1039 99l65-55c-82-37-158-45-201-45-154 0-284 46-386 148-104 104-140 224-140 321 0 101 43 158 122 158 38 0 94-18 144-68 30-30 80-88 114-198l-41 238c-22 125-47 142-78 142-45 0-150-50-239-145h-10l-80 218c25 4 50 6 75 6 170 0 341-81 445-185 102-102 156-229 179-360zm-366 371c-20 0-29-50-29-113 0-91 26-260 68-302 8-8 17-12 27-12 26 0 49 24 70 53-50 284-105 374-136 374zm379 249l266-46v-159c33-220 94-339 129-339 39 0 42 106 19 232l-56 312 295-52-45-52 61-344c35-195-12-272-89-272-50.36 0-105 27-154 76-48 48-89.18 116.08-115 197l104-493-290 51v179zm1083-700h121v10l-142 56-40 226c-22 126-27 232 12 232 21 0 44-15 77-98h10c-34 180-136 274-241 274-94 0-148-77-115-272l39-228c18-102 15-150-8-195l287-198zm628 277c0 245-126 423-318 423-120 0-229-72-229-254 0-131 50-257 143-350 75-75 163-116 264-116 116 0 178 52 178 136 0 73-45 123-66 144-91 91-218 135-327 154l25-107c23 36 42 67 69 67 10 0 13-3 18-8 28-28 45-140 45-237 0-75-17-116-38-116-46 0-84 169-84 305 0 147 72 188 134 188 86 0 156-70 176-229zm30 428l110-621-45-52 295-52-64 292c76-256 182-292 242-292l7 7-139 478h-10c-13-182-28-251-51-251-18 0-43.94 56.84-83 286v159zm0 0"/></svg>