<svg width="4072" height="1100.002" xmlns="http://www.w3.org/2000/svg"><path d="M456.53 732.592c-1.45 143.7-89.92 242.69-226.38 242.69-93.16 0-161.99-27.53-194.72-45.33l33.44-321.68h3.83c24.56 286.8 117.47 342.86 206.94 342.86 63.5 0 122.97-58.3 122.97-146.84 0-63.27-18.4-103.93-76.82-162.34-43.87-43.87-146.03-98.13-196.18-148.29-46.6-46.6-83.03-101.34-83.03-181.23 0-130.44 89.78-221.71 216.6-221.71 89.54 0 161.6 27.62 189.69 43.11l-41.38 322.25h-3.83c-21.96-273.39-108.19-341.21-195.37-341.21-62.78 0-112.7 55.9-112.7 124.03 0 62.64 32.8 114.08 80.46 161.28 49.44 49.44 138.86 94.5 187.65 143.29 52.47 52.24 88.83 109.38 88.83 189.12zm303.19 186.07c-33.63 0-77.58-26.07-104.86-72.37v-411.95c21.89-51.54 55.9-92.12 88.91-92.12 72.74 0 137.63 142.86 137.63 324.73 0 202.49-69.13 251.71-121.68 251.71zm-194.86 113.26l-56.58 31.08h203.15c-42.52-19.28-57.34-33.08-57.34-85.16v-96.26l-57.22 24.81c30.11 31.93 65.08 50.9 106.2 50.9 55.88 0 105.32-20.65 145.22-60.55 66.3-66.29 113.97-185.09 113.97-343.9 0-191.58-80.83-282.12-158.39-282.12-72.53 0-128.55 74.19-149.01 145.44l3.14-145.44-149.72 29.96c50.75 15.6 56.58 31.34 56.58 72.42zm745.32-401.26l-.77 173.13c-18.54 38.19-63.13 105.24-111.63 105.24-34.65 0-80.03-33.23-80.03-134.1 0-51.57 12.63-98.18 39.98-125.53 19.12-19.12 54.67-36.01 92.23-36.01 15.22 0 35.77 5.88 60.22 17.27zm89-209.65c0-112.67-50.68-150.29-103.72-150.29-74.54 0-139.33 96.56-179.74 257.44l37.61-245.16h-102.92l45.55 377.11h3.82c28.8-239.33 97.81-307.59 138.4-307.59 41.32 0 71.23 35.77 71.23 103.09v116.47c-110.54 29.58-171.26 61.27-211.8 101.81-42.72 42.72-61.18 95.93-61.18 155.41 0 92.75 49.83 145.98 108.77 145.98 77.31 0 138-92.73 164.21-156.94l-3.96 156.94 150.31-27.68c-50.98-16.97-56.58-31.57-56.58-71.27zm101.25 228.25c0-231.21 100.24-377.4 236.46-377.4 50.53 0 96.33 19.09 126.03 34.77l-59 347.76h-3.82c-12.14-240.82-64.2-350.25-125.95-350.25-47.47 0-96.51 78.07-96.51 239.19-1.54 233.04 74.43 348.66 148.11 348.66 38.8 0 108.5-30.47 136.95-232.2-9.13 223.82-78.19 315.26-176.5 315.26-106.24 0-185.77-116.56-185.77-325.79zm435.15 2.74c0 207.12 81.01 323.28 184.35 323.28 97.18 0 175.57-100.53 183.33-327.13l-3.37-.45c-27.07 210.4-88.34 247.48-134.73 247.48-82.95 0-150.78-120.48-150.78-367.6 0-165.71 50.64-220.06 94.85-220.06 68.95 0 116.55 122.16 116.55 280.65l24.51-20.02-256.24 26.13v9.55l318.65 26.92c3.37-23.3 4.82-40.18 4.82-61.21 0-196.97-70.27-299.28-164.53-299.28-114.49 0-217.41 150.71-217.41 381.74zm489.22 279.92l-56.57 31.08h203.15c-42.49-16.97-56.58-30.79-56.58-85.16v-673.32l4.29-153.8-150.86 27.68c50.75 16.97 56.57 32.71 56.57 73.1zm474.38-301.26l-.77 173.13c-18.54 38.19-63.13 105.24-111.63 105.24-34.65 0-80.03-33.23-80.03-134.1 0-51.57 12.63-98.18 39.98-125.53 19.12-19.12 54.67-36.01 92.23-36.01 15.22 0 35.77 5.88 60.22 17.27zm89-209.65c0-112.67-50.68-150.29-103.72-150.29-74.54 0-139.33 96.56-179.74 257.44l37.61-245.16h-102.92l45.55 377.11h3.82c28.8-239.33 97.81-307.59 138.4-307.59 41.32 0 71.23 35.77 71.23 103.09v116.47c-110.54 29.58-171.26 61.27-211.8 101.81-42.72 42.72-61.18 95.93-61.18 155.41 0 92.75 49.83 145.98 108.77 145.98 77.31 0 138-92.73 164.21-156.94l-3.96 156.94 150.31-27.68c-50.98-16.97-56.58-31.57-56.58-71.27zm137.08 510.91l-56.58 31.08h203.16c-42.49-19.25-56.58-33.08-56.58-85.16v-406.21c47.87-93.89 80.53-119.73 113.83-119.73 48.42 0 85.49 50.25 85.49 170.63v409.39l-54.3 31.08h200.87c-42.49-19.25-56.57-33.08-56.57-85.16v-425.96c0-131.2-46.51-181.16-106.82-181.16-71.93 0-137.9 77.33-182.5 181.51l3.83-181.51-150.41 29.96c50.75 15.6 56.58 31.34 56.58 72.42zm683.17-618.01c34.41 0 71.41 29.5 104.86 73.39v427.45c-21.89 51.53-55.9 89.03-88.91 89.03-72.74 0-137.63-142.62-137.63-327.35 0-208.8 69.13-262.52 121.68-262.52zm194.86-98.89l4.06-164.3-150.63 28.82c50.98 16.74 57.35 32.48 57.35 72.42v185.15l52.58-20.19c-41.61-31.98-70.48-41.64-100.02-41.64-55.35 0-103.78 20.65-143.68 60.56-67.74 67.74-117.06 194.35-117.06 360.41 0 191.58 80.83 279.03 158.39 279.03 72.54 0 128.56-71.11 149.01-142.36l-3.28 142.36 149.86-28.82c-50.98-16.74-56.58-32.48-56.58-72.42zm0 0"/></svg>