<svg width="5070" height="1100.002" xmlns="http://www.w3.org/2000/svg"><path d="M338 787.002c71.04 49.89 81 90.1 81 110 0 19-12 38-40 38-50.96 0-169.88-88.88-252-228h-10l-117 269c39 7 83 14 146 14 292.24 0 396-120 396-247 0-69.04-38-123-116-176l-140-95c-65.96-44.76-76-88.08-76-108 0-19 12-39 40-39 50.85 0 172.37 100.2 245 229h10l127-270c-39-7-83-14-146-14-292.24 0-396 119-396 247 0 67.11 40 124 117 178zm229 303l127-716-45-52 295-52-52 310c41-132 94-207 135-248 43-43 87-61 128-61 80 0 127 69 127 178 0 110-48 267-150 376-94.88 100.46-242.79 145-378 145-25 0-50-2-75-6l138-78-5 184zm415-642c-31 0-103 167-152 442 22 23 50 43 78 43 10 0 21-4 29-12 43-43 81-253 81-367 0-59-12-106-36-106zm856 119c0 245-126 423-318 423-120 0-229-72-229-254 0-131 50-257 143-350 75-75 163-116 264-116 116 0 178 52 178 136 0 73-45 123-66 144-91 91-218 135-327 154l25-107c23 36 42 67 69 67 10 0 13-3 18-8 28-28 45-140 45-237 0-75-17-116-38-116-46 0-84 169-84 305 0 147 72 188 134 188 86 0 156-70 176-229zm706-197l65-55c-81-32-146-45-213-45-137 0-281 57-383 165-102 109-150 266-150 376 0 109 47 178 127 178 41 0 85-18 128-61 41-41 94-116 135-248l-63 310 306-54-45-52zm-381 442c-24 0-34-47-34-106 0-120 41-336 86-381 8-8 17-12 27-12 28 0 54 20 74 48-59 309-121 451-153 451zm794-762l-98 507c29-84 73-159 125-211 47-47 101-76 158-76 79 0 118 43 118 102 0 54-20 103-57 140-44 44-113 72-202 72l31 72c38 88 62 106 83 106 23 0 38-23 38-92 0-34-4-57-11-108h10c33 91 43 160 43 219 0 151-70 209-141 209-62 0-118-45-161-179l-33-103c64-52 112-111 122-128 25-43 29-80 29-100 0-33-12-47-35-47-80 0-142 237-151 357l1 149-266 46 127-705v-179zm295 940l295-52-45-52 108-616-295 52 45 52zm269-735c95 0 162-45 162-109-1-56-53-101-136-101-99 0-157 53-158 110-1 53 48 100 132 100zm88 730l107-611-45-52 295-52-47 273c25.82-80.92 67-149 115-197 49-49 103.64-76 154-76 77 0 120 77 87 272l-58 339 45 52-295 52 55-307c23-126 20-232-19-232-35 0-96 119-129 339l1 154zm1396-615l65-55c-82-37-158-45-201-45-154 0-284 46-386 148-104 104-140 224-140 321 0 101 43 158 122 158 38 0 94-18 144-68 30-30 80-88 114-198l-41 238c-22 125-47 142-78 142-45 0-150-50-239-145h-10l-80 218c25 4 50 6 75 6 170 0 341-81 445-185 102-102 156-229 179-360zm-366 371c-20 0-29-50-29-113 0-91 26-260 68-302 8-8 17-12 27-12 26 0 49 24 70 53-50 284-105 374-136 374zm0 0"/></svg>