<svg width="1428" height="1100.002" xmlns="http://www.w3.org/2000/svg"><path d="M74.08 678.742l-38.65 256.8c28.66 15.29 88.59 39.74 166.04 39.74 124.03 0 195.42-75.95 196.19-182.38 0-65.42-31.17-114.91-71.2-154.94-45.5-45.5-125.3-88.28-166.43-129.63-32.92-32.93-61.1-67.5-61.1-114.74 0-61.68 46.47-97.6 90.68-97.6 63.46 0 125.52 62.88 156.98 271.04h3.82l44.13-257.35c-24.02-12.96-81.95-38.96-152.94-38.96-118.61 0-193.39 76.93-193.39 181.92 0 60.51 28.31 104.88 66.4 142.97 40.25 40.25 132.78 94.27 170.31 131.8 35.21 35.21 61.1 74.36 61.1 125.23 0 62.59-43.69 97.83-92.93 97.83-70.47 0-149.62-59.46-175.19-271.73zm522.5-357.52v375.99c0 141.76 23.77 193.36 60.04 193.36 22.17 0 40.17-40.82 57.31-159.95-12.55 171.3-59.33 244.66-109.66 244.66-58.44 0-97.69-53.28-97.69-244.67v-352.4c0-61.45-14.32-75.96-56.58-95.21h56.03l77.09-202.54 13.46 202.54h125.44v3.83zm212.22 610.7v-560.42c0-40.39-5.82-56.13-56.57-73.1l150.4-27.68-3.83 150.71v456.41c0 54.37 14.09 68.19 56.58 85.16H752.23zm37.46-726.37c-41.29 0-69.6-27.02-69.6-59.01 0-33.53 27.85-61.46 68.46-61.46 40.84 0 70.51 27.93 70.51 61.46 0 31.99-29.22 59.01-69.37 59.01zm190.54 726.37l-56.57 31.08h203.15c-42.49-16.97-56.58-30.79-56.58-85.16v-673.32l4.29-153.8-150.86 27.68c50.75 16.97 56.57 32.71 56.57 73.1zm231 0l-56.57 31.08h203.15c-42.49-16.97-56.58-30.79-56.58-85.16v-673.32l4.29-153.8-150.86 27.68c50.75 16.97 56.57 32.71 56.57 73.1zm0 0"/></svg>