<svg width="5858" height="1100.002" xmlns="http://www.w3.org/2000/svg"><path d="M338 787.002c71.04 49.89 81 90.1 81 110 0 19-12 38-40 38-50.96 0-169.88-88.88-252-228h-10l-117 269c39 7 83 14 146 14 292.24 0 396-120 396-247 0-69.04-38-123-116-176l-140-95c-65.96-44.76-76-88.08-76-108 0-19 12-39 40-39 50.85 0 172.37 100.2 245 229h10l127-270c-39-7-83-14-146-14-292.24 0-396 119-396 247 0 67.11 40 124 117 178zm606-516l-295 52 45 52-60 343c-36 195 11 272 88 272 49 0 103-28 150-75 48-48 91-117 117-199l-47 274 295-52-45-52 110-616-265 46v146c-51 260-94 352-130 352-39 0-42-106-19-232zm1039 99l65-55c-82-37-158-45-201-45-154 0-284 46-386 148-104 104-140 224-140 321 0 101 43 158 122 158 38 0 94-18 144-68 30-30 80-88 114-198l-41 238c-22 125-47 142-78 142-45 0-150-50-239-145h-10l-80 218c25 4 50 6 75 6 170 0 341-81 445-185 102-102 156-229 179-360zm-366 371c-20 0-29-50-29-113 0-91 26-260 68-302 8-8 17-12 27-12 26 0 49 24 70 53-50 284-105 374-136 374zm1063-371l65-55c-82-37-158-45-201-45-154 0-284 46-386 148-104 104-140 224-140 321 0 101 43 158 122 158 38 0 94-18 144-68 30-30 80-88 114-198l-41 238c-22 125-47 142-78 142-45 0-150-50-239-145h-10l-80 218c25 4 50 6 75 6 170 0 341-81 445-185 102-102 156-229 179-360zm-366 371c-20 0-29-50-29-113 0-91 26-260 68-302 8-8 17-12 27-12 26 0 49 24 70 53-50 284-105 374-136 374zm941-174c0 245-126 423-318 423-120 0-229-72-229-254 0-131 50-257 143-350 75-75 163-116 264-116 116 0 178 52 178 136 0 73-45 123-66 144-91 91-218 135-327 154l25-107c23 36 42 67 69 67 10 0 13-3 18-8 28-28 45-140 45-237 0-75-17-116-38-116-46 0-84 169-84 305 0 147 72 188 134 188 86 0 156-70 176-229zm332 220c71.04 49.89 81 90.1 81 110 0 19-12 38-40 38-50.96 0-169.88-88.88-252-228h-10l-117 269c39 7 83 14 146 14 292.24 0 396-120 396-247 0-69.04-38-123-116-176l-140-95c-65.96-44.76-76-88.08-76-108 0-19 12-39 40-39 50.85 0 172.37 100.2 245 229h10l127-270c-39-7-83-14-146-14-292.24 0-396 119-396 247 0 67.11 40 124 117 178zm617-497h121v10l-142 56-40 226c-22 126-27 232 12 232 21 0 44-15 77-98h10c-34 180-136 274-241 274-94 0-148-77-115-272l39-228c18-102 15-150-8-195l287-198zm66 700l295-52-45-52 108-616-295 52 45 52zm269-735c95 0 162-45 162-109-1-56-53-101-136-101-99 0-157 53-158 110-1 53 48 100 132 100zm486 60l-62 629c-8 1-16 2-25 2-45 0-70-73-70-210 0-123 30-290 102-466l-289 130 99 116c-93 82-148 188-148 288 0 117 73 186 190 186 85 0 180-43 251-114 116-116 219-370 210-600zm795 252c0 245-126 423-318 423-120 0-229-72-229-254 0-131 50-257 143-350 75-75 163-116 264-116 116 0 178 52 178 136 0 73-45 123-66 144-91 91-218 135-327 154l25-107c23 36 42 67 69 67 10 0 13-3 18-8 28-28 45-140 45-237 0-75-17-116-38-116-46 0-84 169-84 305 0 147 72 188 134 188 86 0 156-70 176-229zm0 0"/></svg>