<svg width="3979" height="1100.002" xmlns="http://www.w3.org/2000/svg"><path d="M69.86 675.112l-31.71 258.71c26.48 13.92 82.88 38.1 155.3 38.1 113.3 0 180.89-69.43 181.79-173.82 0-63.38-32.26-114.37-74.06-156.17-39.25-39.25-103.69-82.15-139.38-117.94-37.14-37.14-66.4-73.75-66.4-125.61 0-69.01 50.95-109.15 98.01-109.15 63.19 0 116.29 60.57 134.97 277.57h2.74l38.7-259.52c-21.04-11.2-75.44-37.2-141.67-37.2-109.92 0-177.09 73.4-177.09 173.63 0 59.02 28.72 102.57 67.35 141.2 37.13 37.13 112.68 88.16 145.73 121.21 38.06 38.06 66.39 81.29 66.39 137.59 0 69.38-48.04 109.24-101.9 109.24-74.95 0-145.68-59.18-156.03-277.84zm477.75-262.2v323.23c0 124.32 39.68 171.54 86.71 171.54 36.69 0 72.03-29.32 125.52-137.97v-405.81c0-36.87-4.74-50.98-58.62-65.62l126.36-28.2-2.74 142.83v466.58c0 36.31 4.64 49.96 58.61 65.16l-126.63 27.27 3.02-186.4c-43.65 110.72-107.85 185.94-176.25 185.94-55.96 0-100.98-48.2-100.98-177.49v-430.07c0-36.87-4.73-50.98-58.61-65.62l126.35-28.2zm397.71 188.92c0 152.53 67.81 259.81 156.92 259.81 118.58 0 212.42-182.55 212.42-340.04 0-67.24-31.36-144.02-59.47-181.76l82.71-28.79c-59.33-25.68-115.17-40.97-169.97-40.97-127.1 0-222.61 150.06-222.61 331.75zm56.17-68.13c0-144.4 47.31-225.66 118.16-225.66 78.02 0 139.31 129.62 139.31 264.38 0 153.38-46.4 251.25-123.61 251.25-83.68 0-133.86-141.78-133.86-289.97zm299.99 527.3l1.85-64.32H992.48l15.61-214.93-76.94 279.25zm115.84-459.17c0 152.53 67.81 259.81 156.92 259.81 118.58 0 212.42-182.55 212.42-340.04 0-67.24-31.36-144.02-59.47-181.76l82.71-28.79c-59.33-25.68-115.17-40.97-169.97-40.97-127.1 0-222.61 150.06-222.61 331.75zm56.17-68.13c0-144.4 47.31-225.66 118.16-225.66 78.02 0 139.31 129.62 139.31 264.38 0 153.38-46.4 251.25-123.61 251.25-83.68 0-133.86-141.78-133.86-289.97zm299.99 527.3l1.85-64.32h-310.85l15.61-214.93-76.94 279.25zm102.13-411c0 209.43 73.27 321.92 166.29 321.92 85.76 0 160.35-96.05 163.49-334.19l-2.55-.19c-22.87 236.36-85.76 273.99-128.35 273.99-76.43 0-143.17-121.99-143.17-371.42 0-174.81 56.21-231.33 103.27-231.33 74.94 0 121.58 118.5 121.58 278.48l23.02-17.03-273.36 20.69v9.82l311.71 18.63c2.56-18.95 3.74-33.52 3.74-51.55 0-199.97-64.15-297.93-147.55-297.93-103.48 0-198.12 147.31-198.12 380.11zm453.25 25.11l-31.71 258.71c26.48 13.92 82.88 38.1 155.3 38.1 113.3 0 180.89-69.43 181.79-173.82 0-63.38-32.26-114.37-74.06-156.17-39.25-39.25-103.69-82.15-139.38-117.94-37.14-37.14-66.4-73.75-66.4-125.61 0-69.01 50.95-109.15 98.01-109.15 63.19 0 116.29 60.57 134.97 277.57h2.74l38.7-259.52c-21.04-11.2-75.44-37.2-141.67-37.2-109.92 0-177.09 73.4-177.09 173.63 0 59.02 28.72 102.57 67.35 141.2 37.13 37.13 112.68 88.16 145.73 121.21 38.06 38.06 66.39 81.29 66.39 137.59 0 69.38-48.04 109.24-101.9 109.24-74.95 0-145.68-59.18-156.03-277.84zm482.75-360.78v396.23c0 149.64 23.91 200.29 54.07 200.29 23.26 0 41.26-47.48 57.72-186.17-5.08 179.46-44.25 247.24-87.24 247.24-53.42 0-89.55-51.92-89.55-252.01v-353.35c0-56.42-14.72-69.44-58.61-85.56h57.8l52.63-202.82 13.18 202.82h120.42v2.74zm212.1 619.81v-570.89c0-36.59-4.74-50.7-58.62-65.9l126.36-27.27-2.74 139.57v469.86c0 53.55 14.63 66.29 58.61 81.49h-182.23zm24.68-738.06c-32.19 0-56.15-24.03-56.15-51.26 0-29.05 23.78-53.46 55.69-53.46 32 0 56.52 24.41 56.52 53.46 0 27.23-24.33 51.26-56.06 51.26zm277.54 679.47l24.54 94.53h24.2c7-36.41 16.72-74.5 26.48-108.92l163.34-580.16h-93.84c-7.3 137.58-21.84 342.97-82.54 583.04l-136.54-507.58-11.26-75.46h-81.05zm269.68-225.55c0 209.43 73.27 321.92 166.29 321.92 85.76 0 160.35-96.05 163.49-334.19l-2.55-.19c-22.87 236.36-85.76 273.99-128.35 273.99-76.43 0-143.17-121.99-143.17-371.42 0-174.81 56.21-231.33 103.27-231.33 74.94 0 121.58 118.5 121.58 278.48l23.02-17.03-273.36 20.69v9.82l311.71 18.63c2.56-18.95 3.74-33.52 3.74-51.55 0-199.97-64.15-297.93-147.55-297.93-103.48 0-198.12 147.31-198.12 380.11zm0 0"/></svg>