<svg width="5895" height="1100.002" xmlns="http://www.w3.org/2000/svg"><path d="M98 695.002l-78 246c41 23 121 49 227 49 185 0 278-113 278-231 0-77-25-118-55-148-81-81-248-123-320-196-9-9-31-32-31-53 0-20 21-32 49-32 65 0 178 76 282 234h10l75-245c-41-23-119-49-217-49-168 0-286 97-286 229 0 69 26 118 61 153 58 58 247 129 310 192 19 19 31 35 31 55 0 24-19 33-42 33-45 0-172-61-284-237zm744-215v129c0 98 7 167 74 167 14 0 33-3 52-10v-345c0-65-12-90-45-111l287-40-10 210v374c0 59 11 79 45 106l-290 30 13-210c-50 108-126 205-218 205-85 0-140-60-140-202v-362c0-65-12-90-45-111l287-40zm444 80c0 148 115 258 274 258 193 0 305-158.55 305-311 0-30.33-5.48-55.79-15-91l70-66c-92-52-215-80-317-80-187 0-317 131-317 290zm215-89c0-109 20.92-183 51-183 48.67 0 103 175 103 327 0 108-20.82 185-51 185-50.99 0-103-179-103-329zm349 599l20-205h-437l-57-116-96 321zm88-510c0 148 115 258 274 258 193 0 305-158.55 305-311 0-30.33-5.48-55.79-15-91l70-66c-92-52-215-80-317-80-187 0-317 131-317 290zm215-89c0-109 20.92-183 51-183 48.67 0 103 175 103 327 0 108-20.82 185-51 185-50.99 0-103-179-103-329zm349 599l20-205h-437l-57-116-96 321zm87-411c0 194 125 331 287 331s262-126 296-287l-8-2c-51 63-103 97-171 97-120 0-194-112-194-346 0-114 19-156 47-156 35 0 88 143 88 293l33-37-159 57v8l358 74c8-48 11-78 11-116 0-180-105-307-261-307-177 0-327 170-327 391zm711 36l-78 246c41 23 121 49 227 49 185 0 278-113 278-231 0-77-25-118-55-148-81-81-248-123-320-196-9-9-31-32-31-53 0-20 21-32 49-32 65 0 178 76 282 234h10l75-245c-41-23-119-49-217-49-168 0-286 97-286 229 0 69 26 118 61 153 58 58 247 129 310 192 19 19 31 35 31 55 0 24-19 33-42 33-45 0-172-61-284-237zm749-339v261c0 97 23 154 94 154 16 0 34-3 55-11-55 125-145 230-237 230-87 0-144-61-144-203v-347c0-90-12-113-45-150h46l216-201 15 201h154v10zm215 559v-501c0-62-12-87-45-114l287-30-10 214v380c0 59 11 79 45 106h-322zm110-660c-93 0-146-44-146-103s51-107 141-107c91 0 150 48 150 107s-57 103-145 103zm418 635l20 80h203c7-60 14-99 41-167l206-513h-328c87.92 153.15 146.67 313.16 89 554l-191-474-4-80h-278zm490-231c0 194 125 331 287 331s262-126 296-287l-8-2c-51 63-103 97-171 97-120 0-194-112-194-346 0-114 19-156 47-156 35 0 88 143 88 293l33-37-159 57v8l358 74c8-48 11-78 11-116 0-180-105-307-261-307-177 0-327 170-327 391zm0 0"/></svg>