<svg width="5496" height="1100.002" xmlns="http://www.w3.org/2000/svg"><path d="M87.39 687.892l-60.54 250.79c35.52 19.58 106.62 44.9 199.95 44.9 157.95 0 241.36-96.57 241.71-209.43 0-71.87-27.74-116.63-62.19-151.08-65.25-65.25-193.56-107.6-251.87-166.56-19.61-19.61-44.35-47.75-44.35-80.39 0-38.49 32.3-61.1 67.49-61.1 64.31 0 154.71 70.18 226.53 250.43h7.26l61.3-250.48c-33.46-18.55-102.56-44.55-188.58-44.55-146.08 0-244.91 88.1-244.91 208.12 0 65.23 27.03 112.18 63.4 148.55 50.12 50.12 196.32 113.59 248.02 165.29 26.19 26.19 44.36 52.46 44.36 86.16 0 41.12-29.96 61.76-64.6 61.76-56.3 0-162.07-60.32-235.72-252.41zm642.75-232.8v202.27c0 107.93 19.32 168.71 78.79 168.71 22.56 0 47.72-12.93 79.73-58.28v-367.94c0-54.38-9.26-75.27-50.13-93.88l226.39-35.55-7.26 184.67v408.92c0 50.44 8.61 68.04 50.14 90.59l-228.37 28.98 9.23-201.1c-47.6 109.03-119.15 197.81-202.25 197.81-74.04 0-125.27-55.55-125.27-192.76v-387.68c0-54.38-9.26-75.27-50.14-93.88l226.4-35.55zm729.28 459.42c-31.05 0-73.01-43.15-102.71-114.45v-353.57c14.17-26.2 33.15-45.32 51.13-45.32 77.89 0 135.06 146.36 135.06 305.41 0 160.5-46.81 207.93-83.48 207.93zm-271.71 108.1l-50.13 44.39h269.27c-37.86-29.22-50.48-46.39-50.48-96.76v-91.1l-112.17 43.27c37.83 18.62 78.38 28.15 112.2 28.15 93.78 0 168.01-27.52 224.66-84.17 70.61-70.61 119.55-181.82 119.55-321.15 0-185.13-84.26-274.82-170.41-274.82-86.71 0-152.17 80.21-173.49 161.34l5.29-161.34-224.42 35.55c40.87 18.61 50.13 39.5 50.13 93.88zm876.71-108.1c-31.05 0-73.01-43.15-102.71-114.45v-353.57c14.17-26.2 33.15-45.32 51.13-45.32 77.89 0 135.06 146.36 135.06 305.41 0 160.5-46.81 207.93-83.48 207.93zm-271.71 108.1l-50.13 44.39h269.27c-37.86-29.22-50.48-46.39-50.48-96.76v-91.1l-112.17 43.27c37.83 18.62 78.38 28.15 112.2 28.15 93.78 0 168.01-27.52 224.66-84.17 70.61-70.61 119.55-181.82 119.55-321.15 0-185.13-84.26-274.82-170.41-274.82-86.71 0-152.17 80.21-173.49 161.34l5.29-161.34-224.42 35.55c40.87 18.61 50.13 39.5 50.13 93.88zm599.74-100v-522.76c0-54.38-9.26-75.27-50.13-93.88l226.39-35.55-5.31 271.88c22.2-168.35 88.99-267.27 164.4-267.27 16 0 34.42 4.37 52.48 17.19l-65.09 412.51h-7.26c-20.15-174.43-50.15-249.5-80.47-249.5-32.05 0-66.01 73.82-66.01 228.87v186.14c0 50.37 12.37 67.63 50.14 96.76h-269.27zm414.69-266.61c0 199.82 105.48 327.58 241.46 327.58 133.24 0 223.65-114.71 246.01-304.81l-5.95-1.31c-40.38 128.39-96.49 163.76-154.9 163.76-103.57 0-174.83-115.76-174.83-355.58 0-136.94 33.04-184.42 68.23-184.42 50.06 0 100.67 133.75 100.67 287.52l29.23-29.47-202.14 43.31v8.68l340.54 53.11c5.94-37.04 8.26-61.22 8.26-91.69 0-187.53-89.59-303.57-218.2-303.57-149.27 0-278.38 161.44-278.38 386.89zm613.25 31.89l-60.54 250.79c35.52 19.58 106.62 44.9 199.95 44.9 157.95 0 241.36-96.57 241.71-209.43 0-71.87-27.74-116.63-62.19-151.08-65.25-65.25-193.56-107.6-251.87-166.56-19.61-19.61-44.35-47.75-44.35-80.39 0-38.49 32.3-61.1 67.49-61.1 64.31 0 154.71 70.18 226.53 250.43h7.26l61.3-250.48c-33.46-18.55-102.56-44.55-188.58-44.55-146.08 0-244.91 88.1-244.91 208.12 0 65.23 27.03 112.18 63.4 148.55 50.12 50.12 196.32 113.59 248.02 165.29 26.19 26.19 44.36 52.46 44.36 86.16 0 41.12-29.96 61.76-64.6 61.76-56.3 0-162.07-60.32-235.72-252.41zm501 0l-60.54 250.79c35.52 19.58 106.62 44.9 199.95 44.9 157.95 0 241.36-96.57 241.71-209.43 0-71.87-27.74-116.63-62.19-151.08-65.25-65.25-193.56-107.6-251.87-166.56-19.61-19.61-44.35-47.75-44.35-80.39 0-38.49 32.3-61.1 67.49-61.1 64.31 0 154.71 70.18 226.53 250.43h7.26l61.3-250.48c-33.46-18.55-102.56-44.55-188.58-44.55-146.08 0-244.91 88.1-244.91 208.12 0 65.23 27.03 112.18 63.4 148.55 50.12 50.12 196.32 113.59 248.02 165.29 26.19 26.19 44.36 52.46 44.36 86.16 0 41.12-29.96 61.76-64.6 61.76-56.3 0-162.07-60.32-235.72-252.41zm443.75-31.89c0 199.82 105.48 327.58 241.46 327.58 133.24 0 223.65-114.71 246.01-304.81l-5.95-1.31c-40.38 128.39-96.49 163.76-154.9 163.76-103.57 0-174.83-115.76-174.83-355.58 0-136.94 33.04-184.42 68.23-184.42 50.06 0 100.67 133.75 100.67 287.52l29.23-29.47-202.14 43.31v8.68l340.54 53.11c5.94-37.04 8.26-61.22 8.26-91.69 0-187.53-89.59-303.57-218.2-303.57-149.27 0-278.38 161.44-278.38 386.89zm793.21-336.37c31.39 0 68.39 49.25 102.71 124.91v364.33c-14.16 26.21-33.15 43.96-51.13 43.96-77.89 0-135.05-153.19-135.05-320.48 0-163.3 46.8-212.72 83.47-212.72zm271.71-51.66l7.92-217.55-227.06 32.26c41.54 21.9 50.48 42.79 50.48 93.89v172.27l110.12-41.23c-42.77-18.79-80.78-24.03-109.47-24.03-93.54 0-167.32 27.52-223.97 84.16-72.89 72.9-120.92 194.34-120.92 342.38 0 185.14 84.26 273.46 170.42 273.46 86.7 0 152.16-78.84 173.48-159.97l-7.58 159.97 226.72-32.26c-41.54-21.9-50.14-42.79-50.14-93.89zm0 0"/></svg>