<svg width="3608.15" height="1100.002" xmlns="http://www.w3.org/2000/svg"><path d="M258.76 708.632c59.27 50.54 79.24 88.87 79.24 136.41 0 65.37-46.63 102.57-95.18 102.57-63.89 0-132.38-65.48-166.3-222.13h-5.3L0 961.612c35.48 9.35 70.08 17.52 132.5 17.52 197.01 0 283.89-103.98 283.89-214.72 0-62.56-29.78-114.19-93.11-167.19l-81.3-62.72c-48.96-40.2-77.76-79.23-77.76-132.65 0-65.37 39.58-99.46 88.13-99.46 63.85 0 129.89 70.15 159.89 222.54h5.3l75.35-236.54c-35.48-9.35-66.57-17.52-128.98-17.52-197.01 0-276.85 101.39-276.85 210.02 0 72.33 34.72 116.37 95.29 167.44zm469.15-436.76l-188.76 37.33 51.46 33.21-71.74 408.16c-28.37 156.84 6.3 228.56 72.74 228.56 33.74 0 69.54-17.43 102.45-50.35 54.46-54.45 121.52-161.61 166.89-322.26l-65.78 372.61 189.35-37.33-51.46-33.21 112.35-637.72-147.02 28.39v97.87c-72.72 355.67-169.72 485.83-219.22 485.83-37.24 0-44.93-81.94-25.45-192.09zm301.17 806.09l130.53-736.55-51.46-33.21 188.76-37.33-76.06 434.43c62.71-225.32 125.69-339.65 175.5-389.45 31.26-31.26 62.93-44.57 92.19-44.57 61.81 0 98.24 56.68 98.24 166.85 0 138.17-58.56 312.78-163.5 420.61-70.3 72.6-163.09 112.13-267.65 112.13-19.72 0-39.44-1.41-59.74-4.24l76.96-34.56-4.42 129.41zm375.09-710.09c-43.91 0-133.52 157.61-223.61 543.54 19.07 10.68 47.66 20.11 76.83 20.11 35.24 0 56.8-13.98 80.65-37.82 53.57-53.57 109.18-255.94 109.18-401.05 0-79.54-14.35-124.78-43.05-124.78zm167.91 710.09l130.53-736.55-51.46-33.21 188.76-37.33-76.06 434.43c62.71-225.32 125.69-339.65 175.5-389.45 31.26-31.26 62.93-44.57 92.19-44.57 61.81 0 98.24 56.68 98.24 166.85 0 138.17-58.56 312.78-163.5 420.61-70.3 72.6-163.09 112.13-267.65 112.13-19.72 0-39.44-1.41-59.74-4.24l76.96-34.56-4.42 129.41zm375.09-710.09c-43.91 0-133.52 157.61-223.61 543.54 19.07 10.68 47.66 20.11 76.83 20.11 35.24 0 56.8-13.98 80.65-37.82 53.57-53.57 109.18-255.94 109.18-401.05 0-79.54-14.35-124.78-43.05-124.78zm208.09 370.83c0 154.63 72.05 240.43 178 240.43 166.57 0 311.26-198.2 311.26-465.76 0-162.48-73.29-242.5-176.76-242.5-166.57 0-312.5 199.43-312.5 467.83zm129.35 41.76c0-224.96 85.91-497.94 166.87-497.94 40.26 0 63.69 57.05 63.69 188.26 0 224.96-86.74 496.7-167.69 496.7-39.85 0-62.87-60.35-62.87-187.02zm619.15-71.83c59.27 50.54 79.24 88.87 79.24 136.41 0 65.37-46.63 102.57-95.18 102.57-63.89 0-132.38-65.48-166.3-222.13h-5.3L2645 961.612c35.48 9.35 70.08 17.52 132.5 17.52 197.01 0 283.89-103.98 283.89-214.72 0-62.56-29.78-114.19-93.11-167.19l-81.3-62.72c-48.96-40.2-77.76-79.23-77.76-132.65 0-65.37 39.58-99.46 88.13-99.46 63.85 0 129.89 70.15 159.89 222.54h5.3l75.35-236.54c-35.48-9.35-66.57-17.52-128.98-17.52-197.01 0-276.85 101.39-276.85 210.02 0 72.33 34.72 116.37 95.29 167.44zm664.35-110.83c-20.55 256.74-134.22 381.33-255.79 381.33-91.24 0-170.89-85.5-170.89-244.61 0-146.26 55.29-297.5 142.42-384.63 50.34-50.35 108.41-79.02 173.02-79.02 83.71 0 143.37 45.54 143.37 131.89 0 61.26-29.16 121.83-67.76 160.44-71.63 71.63-174.57 104.47-287.68 123.47l10.33-72.95c25.93 17.21 49.04 31.19 74.28 31.19 38.17 0 69.35-8.28 91.96-30.89 33.87-33.87 49.11-116.52 49.11-195.91 0-77.35-22.87-127.74-57.96-127.74-63.61 0-143.87 185.43-143.87 364.28 0 144.07 52.04 216.76 113.46 216.76 62.52 0 139.56-60.02 180.69-273.61zm0 0"/></svg>