<svg width="4340.77" height="1100.002" xmlns="http://www.w3.org/2000/svg"><path d="M215.47 664.552c52.85 50.9 78.28 88.19 78.28 150.84 0 90.7-65.55 137.84-125.32 137.84-70.96 0-111.9-52.69-119.49-218.93H46.2L0 952.482c33.55 10.63 63.03 19.44 125.12 19.44 144.99 0 222.65-94.68 222.65-197.08 0-59.02-25.3-109.38-80.61-162.38l-49.24-45.09c-39.67-37.71-78.72-74.39-78.72-146.11 0-90.71 54.66-132.49 114.43-132.49 70.95 0 106.68 53.73 113.39 219.02h2.74l47.13-218.27c-33.55-10.63-57.58-19.44-119.68-19.44-144.99 0-211.75 91.77-211.75 189.82 0 75.18 31.83 112.2 83.42 161.66zm393.74-393.47l-130.72 29.31 54.98 22.95-78.15 443.75c-24.2 136 3.74 204.83 64.4 204.83 25.41 0 51.27-11.66 76.49-36.88 57.98-57.98 138.19-185.97 194.14-389.59l-76.04 426.47 131.63-29.31-54.98-22.95 113.63-649.58-82.57 18.77v71.57c-84.58 407.94-211.08 558.94-267.96 558.94-36.28 0-46.54-68.79-28.98-170.28zm282.82 799.03l132.44-747.77-54.98-22.95 130.72-29.31-89.21 502.41c74.58-276.31 143.01-412.12 197.63-466.73 24.84-24.85 49.78-35.59 72.63-35.59 51.87 0 82.53 49.94 82.53 160.75 0 153.57-64.34 337.8-170.88 444.98-56.87 57.39-119.54 94.18-207.37 94.18-16.83 0-33.66-1.1-51.4-3.28l43.61-10.84-4.09 99.59zm353.28-747.28c-50.97 0-150.19 152.47-262.73 599.01 17.46 3.94 46.37 7.61 76.19 7.61 49.02 0 76.36-19.43 108.87-51.94 59.33-59.34 124.56-257.54 124.56-419.64 0-90.77-15.63-135.04-46.89-135.04zm110.72 747.28l132.44-747.77-54.98-22.95 130.72-29.31-89.21 502.41c74.58-276.31 143.01-412.12 197.63-466.73 24.84-24.85 49.78-35.59 72.63-35.59 51.87 0 82.53 49.94 82.53 160.75 0 153.57-64.34 337.8-170.88 444.98-56.87 57.39-119.54 94.18-207.37 94.18-16.83 0-33.66-1.1-51.4-3.28l43.61-10.84-4.09 99.59zm353.28-747.28c-50.97 0-150.19 152.47-262.73 599.01 17.46 3.94 46.37 7.61 76.19 7.61 49.02 0 76.36-19.43 108.87-51.94 59.33-59.34 124.56-257.54 124.56-419.64 0-90.77-15.63-135.04-46.89-135.04zm126.81 649.56l113.63-650.05-56.8-22.95 130.72-29.31-56.73 320.13c68.73-285.04 142.97-320.13 192.08-320.13 17.24 0 40.58 7 58.73 19.7l-76.37 285.59h-2.74c26.93-196.52.13-238.29-27.41-238.29-35.24 0-110.25 59.7-193.72 533.77v82.76zm726.48-359.03c-31.77 263.16-138.71 358.56-221.79 358.56-75.53 0-139.15-92.87-139.15-239.47 0-154.6 58.17-319.63 142.09-403.55 36.88-36.88 78.59-58.82 123.32-58.82 66.08 0 124.45 42.01 124.45 129.64 0 54.85-20.49 121.19-68.72 169.42-61.05 61.04-150.84 87.8-266.19 106.8l2.31-54.36c27.54 6.96 52.89 11.64 77.17 11.64 53.56 0 100.13-11.17 132.36-43.4 37.07-37.08 51.35-103.7 51.35-173.47 0-78.63-26.08-134.15-68.86-134.15-73.23 0-176.57 194.41-176.57 396.67 0 142.46 41.14 232.47 102.23 232.47 49.69 0 130.59-54.57 183.26-297.98zm244.87 51.19c52.85 50.9 78.28 88.19 78.28 150.84 0 90.7-65.55 137.84-125.32 137.84-70.96 0-111.9-52.69-119.49-218.93h-2.74l-46.2 218.18c33.55 10.63 63.03 19.44 125.12 19.44 144.99 0 222.65-94.68 222.65-197.08 0-59.02-25.3-109.38-80.61-162.38l-49.24-45.09c-39.67-37.71-78.72-74.39-78.72-146.11 0-90.71 54.66-132.49 114.43-132.49 70.95 0 106.68 53.73 113.39 219.02h2.74l47.13-218.27c-33.55-10.63-57.58-19.44-119.68-19.44-144.99 0-211.75 91.77-211.75 189.82 0 75.18 31.83 112.2 83.42 161.66zm402 0c52.85 50.9 78.28 88.19 78.28 150.84 0 90.7-65.55 137.84-125.32 137.84-70.96 0-111.9-52.69-119.49-218.93h-2.74l-46.2 218.18c33.55 10.63 63.03 19.44 125.12 19.44 144.99 0 222.65-94.68 222.65-197.08 0-59.02-25.3-109.38-80.61-162.38l-49.24-45.09c-39.67-37.71-78.72-74.39-78.72-146.11 0-90.71 54.66-132.49 114.43-132.49 70.95 0 106.68 53.73 113.39 219.02h2.74l47.13-218.27c-33.55-10.63-57.58-19.44-119.68-19.44-144.99 0-211.75 91.77-211.75 189.82 0 75.18 31.83 112.2 83.42 161.66zm584.13-51.19c-31.77 263.16-138.71 358.56-221.79 358.56-75.53 0-139.15-92.87-139.15-239.47 0-154.6 58.17-319.63 142.09-403.55 36.88-36.88 78.59-58.82 123.32-58.82 66.08 0 124.45 42.01 124.45 129.64 0 54.85-20.49 121.19-68.72 169.42-61.05 61.04-150.84 87.8-266.19 106.8l2.31-54.36c27.54 6.96 52.89 11.64 77.17 11.64 53.56 0 100.13-11.17 132.36-43.4 37.07-37.08 51.35-103.7 51.35-173.47 0-78.63-26.08-134.15-68.86-134.15-73.23 0-176.57 194.41-176.57 396.67 0 142.46 41.14 232.47 102.23 232.47 49.69 0 130.59-54.57 183.26-297.98zm172.8 305.81c-31.26 0-46.71-44.27-46.71-135.04 0-162.1 63.6-351.41 122.94-410.75 32.5-32.51 59.65-51.93 108.68-51.93 29.82 0 58.45 4.4 73.91 8.8-110.16 444.23-207.85 588.92-258.82 588.92zm316.58-633.34c-19.94-3.55-39.69-4.83-58.54-4.83-87.9 0-150.58 36.74-207.46 94.17-106.54 107.19-169.06 282.34-169.06 435.91 0 110.81 30.66 160.75 82.53 160.75 22.84 0 47.78-10.74 72.63-35.59 54.62-54.61 123.05-189.51 197.63-465.82l-89.32 500.6 130.83-29.5-54.99-22.95 153.54-868.49-80.29 18.95c0 43.57-2.72 88.88-11.8 135.17l-20.09 106.29zm0 0"/></svg>