<svg width="6173" height="1100.002" xmlns="http://www.w3.org/2000/svg"><path d="M338 787.002c71.04 49.89 81 90.1 81 110 0 19-12 38-40 38-50.96 0-169.88-88.88-252-228h-10l-117 269c39 7 83 14 146 14 292.24 0 396-120 396-247 0-69.04-38-123-116-176l-140-95c-65.96-44.76-76-88.08-76-108 0-19 12-39 40-39 50.85 0 172.37 100.2 245 229h10l127-270c-39-7-83-14-146-14-292.24 0-396 119-396 247 0 67.11 40 124 117 178zm606-516l-295 52 45 52-60 343c-36 195 11 272 88 272 49 0 103-28 150-75 48-48 91-117 117-199l-47 274 295-52-45-52 110-616-265 46v146c-51 260-94 352-130 352-39 0-42-106-19-232zm336 819l127-716-45-52 295-52-52 310c41-132 94-207 135-248 43-43 87-61 128-61 80 0 127 69 127 178 0 110-48 267-150 376-94.88 100.46-242.79 145-378 145-25 0-50-2-75-6l138-78-5 184zm415-642c-31 0-103 167-152 442 22 23 50 43 78 43 10 0 21-4 29-12 43-43 81-253 81-367 0-59-12-106-36-106zm275 642l127-716-45-52 295-52-52 310c41-132 94-207 135-248 43-43 87-61 128-61 80 0 127 69 127 178 0 110-48 267-150 376-94.88 100.46-242.79 145-378 145-25 0-50-2-75-6l138-78-5 184zm415-642c-31 0-103 167-152 442 22 23 50 43 78 43 10 0 21-4 29-12 43-43 81-253 81-367 0-59-12-106-36-106zm292 547l110-621-45-52 295-52-64 292c76-256 182-292 242-292l7 7-139 478h-10c-13-182-28-251-51-251-18 0-43.94 56.84-83 286v159zm1041-428c0 245-126 423-318 423-120 0-229-72-229-254 0-131 50-257 143-350 75-75 163-116 264-116 116 0 178 52 178 136 0 73-45 123-66 144-91 91-218 135-327 154l25-107c23 36 42 67 69 67 10 0 13-3 18-8 28-28 45-140 45-237 0-75-17-116-38-116-46 0-84 169-84 305 0 147 72 188 134 188 86 0 156-70 176-229zm332 220c71.04 49.89 81 90.1 81 110 0 19-12 38-40 38-50.96 0-169.88-88.88-252-228h-10l-117 269c39 7 83 14 146 14 292.24 0 396-120 396-247 0-69.04-38-123-116-176l-140-95c-65.96-44.76-76-88.08-76-108 0-19 12-39 40-39 50.85 0 172.37 100.2 245 229h10l127-270c-39-7-83-14-146-14-292.24 0-396 119-396 247 0 67.11 40 124 117 178zm548 0c71.04 49.89 81 90.1 81 110 0 19-12 38-40 38-50.96 0-169.88-88.88-252-228h-10l-117 269c39 7 83 14 146 14 292.24 0 396-120 396-247 0-69.04-38-123-116-176l-140-95c-65.96-44.76-76-88.08-76-108 0-19 12-39 40-39 50.85 0 172.37 100.2 245 229h10l127-270c-39-7-83-14-146-14-292.24 0-396 119-396 247 0 67.11 40 124 117 178zm810-220c0 245-126 423-318 423-120 0-229-72-229-254 0-131 50-257 143-350 75-75 163-116 264-116 116 0 178 52 178 136 0 73-45 123-66 144-91 91-218 135-327 154l25-107c23 36 42 67 69 67 10 0 13-3 18-8 28-28 45-140 45-237 0-75-17-116-38-116-46 0-84 169-84 305 0 147 72 188 134 188 86 0 156-70 176-229zm328 245c-24 0-34-47-34-106 0-114 40-326 83-369 8-8 17-12 27-12 28 0 53 28 73 56-43 250-118 431-149 431zm342-509c-39-9-76-13-113-13-136 0-284 44-379 145-102 109-150 266-150 376 0 109 47 178 127 178 41 0 85-18 128-61 41-41 94-116 135-248l-63 310 306-54-45-52 149-834-260 48v127l-21 119zm0 0"/></svg>