<svg width="4889.15" height="1100.002" xmlns="http://www.w3.org/2000/svg"><path d="M258.76 708.632c59.27 50.54 79.24 88.87 79.24 136.41 0 65.37-46.63 102.57-95.18 102.57-63.89 0-132.38-65.48-166.3-222.13h-5.3L0 961.612c35.48 9.35 70.08 17.52 132.5 17.52 197.01 0 283.89-103.98 283.89-214.72 0-62.56-29.78-114.19-93.11-167.19l-81.3-62.72c-48.96-40.2-77.76-79.23-77.76-132.65 0-65.37 39.58-99.46 88.13-99.46 63.85 0 129.89 70.15 159.89 222.54h5.3l75.35-236.54c-35.48-9.35-66.57-17.52-128.98-17.52-197.01 0-276.85 101.39-276.85 210.02 0 72.33 34.72 116.37 95.29 167.44zm469.15-436.76l-188.76 37.33 51.46 33.21-71.74 408.16c-28.37 156.84 6.3 228.56 72.74 228.56 33.74 0 69.54-17.43 102.45-50.35 54.46-54.45 121.52-161.61 166.89-322.26l-65.78 372.61 189.35-37.33-51.46-33.21 112.35-637.72-147.02 28.39v97.87c-72.72 355.67-169.72 485.83-219.22 485.83-37.24 0-44.93-81.94-25.45-192.09zm301.17 806.09l130.53-736.55-51.46-33.21 188.76-37.33-76.06 434.43c62.71-225.32 125.69-339.65 175.5-389.45 31.26-31.26 62.93-44.57 92.19-44.57 61.81 0 98.24 56.68 98.24 166.85 0 138.17-58.56 312.78-163.5 420.61-70.3 72.6-163.09 112.13-267.65 112.13-19.72 0-39.44-1.41-59.74-4.24l76.96-34.56-4.42 129.41zm375.09-710.09c-43.91 0-133.52 157.61-223.61 543.54 19.07 10.68 47.66 20.11 76.83 20.11 35.24 0 56.8-13.98 80.65-37.82 53.57-53.57 109.18-255.94 109.18-401.05 0-79.54-14.35-124.78-43.05-124.78zm184.33 613.33l112.35-639.79-52.63-33.21 188.76-37.33-59.31 310.2c71.31-274.79 156.76-310.2 209.72-310.2 11.15 0 28.72 7 40.46 15.22l-98.5 353.56h-5.31c12.83-191.39-9.8-242.78-35.74-242.78-29.15 0-86.82 58.69-154.61 446.24v109.69zm837.61-383.4c-20.55 256.74-134.22 381.33-255.79 381.33-91.24 0-170.89-85.5-170.89-244.61 0-146.26 55.29-297.5 142.42-384.63 50.34-50.35 108.41-79.02 173.02-79.02 83.71 0 143.37 45.54 143.37 131.89 0 61.26-29.16 121.83-67.76 160.44-71.63 71.63-174.57 104.47-287.68 123.47l10.33-72.95c25.93 17.21 49.04 31.19 74.28 31.19 38.17 0 69.35-8.28 91.96-30.89 33.87-33.87 49.11-116.52 49.11-195.91 0-77.35-22.87-127.74-57.96-127.74-63.61 0-143.87 185.43-143.87 364.28 0 144.07 52.04 216.76 113.46 216.76 62.52 0 139.56-60.02 180.69-273.61zm43.97 379.27l146.85-28.4v-99.69c72.79-354.68 162.57-481.94 208.55-481.94 37.24 0 41.21 82.35 22.15 192.09l-72.96 417.94 146.85-28.4v-103.47c72.37-351.96 161.74-478.98 207.72-478.98 37.24 0 42.39 81.93 23.32 192.08l-74.19 422.31 187.17-37.33-46.91-58.41 68.43-386.26c27.96-156.85-3.82-228.57-70.26-228.57-36.63 0-73.26 17.44-106.17 50.35-52.7 52.7-106.72 162.2-152.09 322.26l30.78-171.3c23.83-135.78-9.84-200.48-76.28-200.48-34.98 0-72.02 17.85-106.17 52-52.7 52.7-108.79 161.37-153.74 320.61l69.74-372.61-192.31 38.15 47.33 48.5zM3855 365.592l47.98-70.26c-50.48-17.33-94.35-24.46-138.46-24.46-105.3 0-196.48 44.67-269.72 120.39-104.93 107.83-163.5 282.44-163.5 420.61 0 110.17 36.44 166.85 98.24 166.85 29.26 0 60.94-13.31 92.2-44.57 49.8-49.8 112.78-164.13 175.5-389.45l-82.37 433.84 193.3-37.56-51.45-33.81zm-341.09 516.54c-28.69 0-42.8-45.24-42.8-124.78 0-147.59 57.43-352.44 111.82-406.83 23.85-23.85 44.59-37.82 79.83-37.82 29.17 0 56.93 9.43 75.17 22.17-94.21 399.98-179.69 547.26-224.02 547.26zm381.11-146.52c.41 161.5 80.48 243.52 164.2 243.52 99.69 0 201.82-109.85 244.76-306.78h-5.31c-53.43 161.72-121.98 192.45-161.59 192.45-64.43 0-120.19-78.17-120.19-235.95 0-197.24 79.85-327.98 139.54-327.98 52.94 0 87.48 136.89 66.35 384.3h5.3l140.83-385.58c-24.3-11.63-69.78-28.72-117.48-28.72-212.93 0-356.41 220.85-356.41 464.74zm992.63-464.74l-142.37 28.39v97.04c-37.57 233.35-88.78 364.48-138.28 413.98-16.46 16.46-32.96 24.22-48.44 24.22-47.48 0-65.45-65.28-65.45-141.65 0-128.57 63.45-260.65 136.65-421.98L4420 346.282l97.63 86.65c-68.63 87.87-159.74 222.96-159.74 356.42 0 98.26 47.54 143.43 106.5 143.43 37.85 0 79.17-18.71 115.96-55.5 51.15-51.15 91.78-133.32 122.06-240.58l-40.35 234.37c-25.48 145.91-100.84 177.82-155.61 177.82-53.67 0-114.63-47.04-152.56-174.15h-5.31l-58.6 187.33c44.32 12.35 86.02 17.06 124.17 17.06 105 0 189.26-34.96 265.07-110.76 70.34-70.35 112.72-141.15 135.78-274.48zm0 0"/></svg>