<svg width="2302" height="1100.002" xmlns="http://www.w3.org/2000/svg"><path d="M217.51 283.002h121.77v3.83l-127.33 42.1-70.1 401.96c-20.46 116.74-7.71 169.49 20.49 169.49 27.17 0 59.43-35.84 97.83-179.8H264c-33.23 184.63-92.78 254.7-153.02 254.7-53.87 0-93.21-56.16-64.84-218.75l52.12-296.68c18-102.77 15.77-132.25 2.03-172.62l131.11-181.8zm569.33 80.77l42.62-75.06c-40.87-12.71-78.09-17.99-114.99-17.99-95.33 0-169.87 40.79-234.06 106.35-105.86 107.45-167.75 287.6-167.75 434.65 0 110.54 33.11 163.33 89.19 163.33 25.56 0 53.36-11.82 80.92-39.39 52.58-52.57 118.7-179.28 188.25-433.99l-88.47 472.84 157.83-32.39-53.49-28.08zm-328.52 540.01c-30.18 0-45.58-44.68-45.58-130.69 0-156.27 62.61-357.61 119.96-414.96 28.83-28.84 53.27-45.96 96.45-45.96 29.55 0 57.86 6.11 75.55 14.05-105.31 428.62-198.18 577.56-246.38 577.56zm607.31-853.06l-114.98 621.99c52.15-185.87 140.92-302.55 189.06-350.69 38.51-38.51 80.93-51.3 112.46-51.3 55.08 0 80.96 33.74 80.96 85.79 0 53.17-25.4 102.23-66.26 143.09-40.91 40.91-98.85 73.6-168.82 98.24l37.18 164.61c21.02 81.05 46.56 124.52 69.88 124.52 21.46 0 49.57-24.55 49.57-180.75 0-56.38-3.22-90.96-6.36-135.01h3.82c13.71 64.76 22.16 119.09 22.16 198.16 0 142.51-39.13 205.91-91.6 205.91-47.34 0-87.91-51.94-114.7-162.79l-39.95-178.63c23.1-14.96 47.18-33.83 63.35-44.65 40.44-26.8 143.22-97.75 143.22-184.12 0-33-12.77-66.3-41.17-66.3-72.29 0-213.78 179.89-276.03 534.5l.23 78-107.79 22.85 132.4-753.62 6.17-142.73zm670.11 556.36c-27.01 260.43-136.81 368.2-236.2 368.2-82.18 0-152.59-89.75-152.59-241.65 0-151.06 56.94-310.25 142.22-395.53 42.59-42.59 91.23-67.38 144.38-67.38 73.56 0 132.47 43.51 132.47 130.6 0 57.56-24.16 121.45-68.31 165.6-65.54 65.54-160.89 94.87-275.3 113.87l5.71-62.24c26.86 11.31 51.26 19.93 75.95 19.93 47.04 0 87.08-9.95 115.23-38.1 35.72-35.72 50.41-109.13 50.41-182.98 0-78.08-24.72-131.43-64.24-131.43-69.15 0-162.72 190.61-162.72 382.94 0 143.14 45.76 225.82 106.99 225.82 55.13 0 134.39-56.88 182.17-287.65zm45.35 367.06l112.4-643.41-53.49-27.31 155.32-32.7-70.93 403.42c51.43-185.17 125.65-304.12 182.14-360.61 28.94-28.93 59.16-42.81 88.4-42.81 63.11 0 92.99 70.05 67.71 214.89l-74.98 427.75 53.49 27.3-155.31 32.71 79.69-452.09c18.37-105.16 9.2-179.52-27.49-179.52-52.75 0-171.63 150.64-247.07 521.13l.23 88.4zm0 0"/></svg>