<svg width="2758" height="1100.002" xmlns="http://www.w3.org/2000/svg"><path d="M301.23 287.002h121.35v7.26l-135.5 49.84-53.35 304.06c-21.32 121.89-18.44 204.27 15.76 204.27 23.74 0 50.85-24.25 86.25-134.29H343c-33.66 182.05-116.83 265.44-201.97 265.44-76.19 0-123.69-67.76-92.74-248.38l44.82-258.47c18-102.34 15.34-142.13-3.55-185.07l217.84-190.81zm663.51 80.34l55.08-63.9c-63.2-23.44-115.87-33.02-169.52-33.02-118.51 0-231.7 49.81-316.92 138.98-103.71 108.32-157.87 275.59-157.87 402.02 0 109.69 40.83 171.5 110.22 171.5 34.15 0 70.96-15.26 107.11-51.41 46.14-46.14 104.96-144.08 158.63-330.52l-74.3 382.24 240.26-44.41-48.77-41.39zm-357.71 485.49c-26.74 0-39.14-45.98-39.14-116.96 0-136.09 50.59-345.59 101.07-396.07 17.24-17.24 33.09-27.06 57.81-27.06 28.69 0 55.71 13.84 74.69 32.93-79.55 362.07-155.24 507.16-194.43 507.16zm711.02-802.41l-105.53 558.02c39.27-129.2 103.13-222.68 153.42-272.97 43.23-43.24 92.1-65.05 137.8-65.05 68.39 0 101.56 38.9 101.56 94.81 0 53.63-22.39 102.66-61.1 141.37-42.63 42.63-106.72 72.71-187.28 83.64l33.74 113.09c30.47 84.92 55.15 114.22 77.18 114.22 22.31 0 43.13-23.69 43.13-131.38 0-43.93-3.65-72.06-8.94-119.98h7.26c24.44 79.36 33.75 141.85 33.75 209.76 0 147.23-56.3 207.63-119.08 207.63-55.5 0-104.65-48.09-140.46-171.81l-36.08-136.56c45.85-35.56 83.24-76.76 95.98-91.02 31.84-35.81 79.67-87.87 79.67-137.32 0-33-12.34-55.56-37.74-55.56-76.57 0-173.84 211.66-206.47 435.75l.66 117.5-195.81 35.73 129.4-726.57 2.74-162.91zm773.84 534.47c-11.98 251.84-130.79 398.69-281.71 398.69-103.22 0-195.1-79.88-195.1-248.53 0-139.9 53.08-280.62 142.66-370.2 60.62-60.62 131.16-94.43 210.93-94.43 97.17 0 157.8 48.24 157.8 133.61 0 66.15-35.76 122.31-67.03 153.58-79.7 79.71-192.66 117.2-304.06 136.2l16.44-87.14c24.71 25.04 46.11 46.11 72.08 46.11 26.44 0 45.87-6.08 61.14-21.35 31.43-31.42 47.4-126.31 47.4-213.03 0-76.37-20.42-122.85-49.64-122.85-56.27 0-118.92 178.59-118.92 339.58 0 145.29 60.35 204.78 122.01 204.78 72.31 0 146.41-64.18 178.74-255.02zm38.48 395.4l109.4-625.38-48.77-41.05 233.03-43.44-57.62 330.87c37.18-127.17 93.02-217.82 144.79-269.59 40.1-40.1 83.91-61.28 124.9-61.28 70.83 0 108.01 73.92 78.44 246.67l-65.53 378.37 48.76 41.05-233.03 43.44 65.96-371.37c20.95-116.76 15.21-208.72-22.77-208.72-42.87 0-129.55 133.04-181.38 419.8l.66 124.9zm0 0"/></svg>