<svg width="2498" height="1100.002" xmlns="http://www.w3.org/2000/svg"><path d="M253.54 285.002h121.59v5.3l-130.85 45.44-62.89 359.83c-20.82 118.95-12.32 184.45 18.46 184.45 25.69 0 55.74-30.85 92.85-160.22h5.3c-33.41 183.53-103.13 259.33-174.09 259.33-63.48 0-106.32-61.15-76.84-231.5l48.97-280.24c18-102.59 15.59-136.5-.37-177.98l168.44-185.67zm609.31 80.59l47.98-70.26c-50.48-17.33-94.35-24.46-138.46-24.46-105.3 0-196.48 44.67-269.72 120.39-104.93 107.83-163.5 282.44-163.5 420.61 0 110.17 36.44 166.85 98.24 166.85 29.26 0 60.94-13.31 92.2-44.57 49.8-49.8 112.78-164.13 175.5-389.45l-82.37 433.84 193.3-37.56-51.45-33.81zm-341.09 516.54c-28.69 0-42.8-45.24-42.8-124.78 0-147.59 57.43-352.44 111.82-406.83 23.85-23.85 44.59-37.82 79.83-37.82 29.17 0 56.93 9.43 75.17 22.17-94.21 399.98-179.69 547.26-224.02 547.26zm651.76-831.26l-110.91 594.46c46.61-161.48 124.65-268.18 173.72-317.24 40.54-40.55 85.74-57.22 123.37-57.22 60.8 0 89.82 35.96 89.82 89.67 0 53.37-24.11 102.42-64.04 142.35-41.65 41.65-102.24 73.22-176.76 91.96l35.69 142.43c25.09 82.72 50.26 120.09 73.02 120.09 21.83 0 46.81-24.17 46.81-159.5 0-51.02-3.41-82.83-7.48-128.54h5.31c18.32 71.04 27.15 128.89 27.15 203.15 0 144.54-46.52 206.65-103.44 206.65-50.85 0-95.11-50.28-125.78-166.67l-38.28-160.53c32.89-23.82 62.69-52.3 77.39-64.6 36.74-30.68 115.87-93.5 115.87-163.98 0-33-12.59-61.68-39.7-61.68-74.13 0-196.58 193.57-246.08 492l.41 95-145.68 28.4 131.11-741.98 4.7-151.42zm715.44 546.93c-20.55 256.74-134.22 381.33-255.79 381.33-91.24 0-170.89-85.5-170.89-244.61 0-146.26 55.29-297.5 142.42-384.63 50.34-50.35 108.41-79.02 173.02-79.02 83.71 0 143.37 45.54 143.37 131.89 0 61.26-29.16 121.83-67.76 160.44-71.63 71.63-174.57 104.47-287.68 123.47l10.33-72.95c25.93 17.21 49.04 31.19 74.28 31.19 38.17 0 69.35-8.28 91.96-30.89 33.87-33.87 49.11-116.52 49.11-195.91 0-77.35-22.87-127.74-57.96-127.74-63.61 0-143.87 185.43-143.87 364.28 0 144.07 52.04 216.76 113.46 216.76 62.52 0 139.56-60.02 180.69-273.61zm42.39 379.27l111.11-635.66-51.46-33.21 188.76-37.33-65.19 372.2c45.29-160.21 111.6-266.98 166.06-321.44 33.74-33.74 69.81-50.76 104.11-50.76 66.43 0 99.46 71.72 72.33 228.56l-70.92 406.5 51.46 33.22-188.76 37.33 73.78-417.35c19.48-110.15 11.78-192.09-25.46-192.09-48.5 0-153.52 143.07-218.8 477.53l.41 104.1zm0 0"/></svg>