<svg width="1552.92" height="1100.002" xmlns="http://www.w3.org/2000/svg"><path d="M191.02 281.002h121.9v2.74l-124.75 39.66-75.4 432.94c-20.18 115.11-4.31 158.48 21.99 158.48 28.26 0 62.15-39.5 101.5-194.21H239c-33.09 185.45-85.17 251.31-137.53 251.31-46.81 0-83.56-52.49-56.01-209.37l54.43-308.78c18-102.91 15.91-129.12 3.8-168.68l103.66-178.94zm92.8 690.92l82.66-18.77v-70.05c82.01-406.97 211.08-560.46 267.86-560.46 36.28 0 46.54 68.79 28.99 170.28l-84.14 478.1 130.72-29.31-54.98-22.96 78.24-443.84c24.11-136-3.83-204.83-64.49-204.83-25.53 0-51.45 11.57-76.85 36.97-57.99 57.98-138.03 185.89-193.97 389.41l115.8-646.38-83.97 19.23-10.89 139.97zm934.19-610.01l38.67-78.6c-33.8-9.31-66.13-13.23-97.73-13.23-87.99 0-150.3 37.94-207.83 96.02-106.54 107.18-170.88 291.41-170.88 444.98 0 110.81 30.67 160.75 82.53 160.75 22.85 0 47.79-10.74 72.64-35.59 54.61-54.61 123.04-190.42 197.62-466.73l-92.95 501.51 131.74-28.59-54.98-23.86zm-319.29 557.26c-31.26 0-47.61-44.27-47.61-135.04 0-162.66 66.41-361.41 125.93-420.93 32.51-32.51 59.66-51.94 108.69-51.94 29.81 0 58.54 3.66 75.81 8.07-113.45 449.68-211.76 599.84-262.82 599.84zm532.3-638.17h121.9v2.74l-124.75 39.66-75.4 432.94c-20.18 115.11-4.31 158.48 21.99 158.48 28.26 0 62.15-39.5 101.5-194.21h2.74c-33.09 185.45-85.17 251.31-137.53 251.31-46.81 0-83.56-52.49-56.01-209.37l54.43-308.78c18-102.91 15.91-129.12 3.8-168.68l103.66-178.94zm0 0"/></svg>