<svg width="1826.13" height="1100.002" xmlns="http://www.w3.org/2000/svg"><path d="M253.54 285.002h121.59v5.3l-130.85 45.44-62.89 359.83c-20.82 118.95-12.32 184.45 18.46 184.45 25.69 0 55.74-30.85 92.85-160.22h5.3c-33.41 183.53-103.13 259.33-174.09 259.33-63.48 0-106.32-61.15-76.84-231.5l48.97-280.24c18-102.59 15.59-136.5-.37-177.98l168.44-185.67zm82.63 694.13l147.44-28.39v-101.48c64.69-340.91 169.72-482.22 218.8-482.22 37.24 0 44.94 81.94 25.46 192.09l-74.2 419.41 188.76-37.32-51.45-33.22 72.15-408.57c27.96-156.84-6.72-228.56-73.15-228.56-34.3 0-70.37 17.02-104.11 50.76-54.46 54.46-120.77 161.23-166.07 321.44l111.63-592.2-156.76 30.46-7.04 153.76zm1094.68-613.54l47.98-70.26c-50.48-17.33-94.35-24.46-138.46-24.46-105.3 0-196.48 44.67-269.72 120.39-104.93 107.83-163.5 282.44-163.5 420.61 0 110.17 36.44 166.85 98.24 166.85 29.26 0 60.94-13.31 92.2-44.57 49.8-49.8 112.78-164.13 175.5-389.45l-82.37 433.84 193.3-37.56-51.45-33.81zm-341.09 516.54c-28.69 0-42.8-45.24-42.8-124.78 0-147.59 57.43-352.44 111.82-406.83 23.85-23.85 44.59-37.82 79.83-37.82 29.17 0 56.93 9.43 75.17 22.17-94.21 399.98-179.69 547.26-224.02 547.26zm614.78-597.13h121.59v5.3l-130.85 45.44-62.89 359.83c-20.82 118.95-12.32 184.45 18.46 184.45 25.69 0 55.74-30.85 92.85-160.22h5.3c-33.41 183.53-103.13 259.33-174.09 259.33-63.48 0-106.32-61.15-76.84-231.5l48.97-280.24c18-102.59 15.59-136.5-.37-177.98l168.44-185.67zm0 0"/></svg>