<svg width="5961" height="1100.002" xmlns="http://www.w3.org/2000/svg"><path d="M292 356.002v261c0 97 23 154 94 154 16 0 34-3 55-11-55 125-145 230-237 230-87 0-144-61-144-203v-347c0-90-12-113-45-150h46l216-201 15 201h154v10zm215 559v-721c0-62-12-87-45-114l284-30-7 430c50-108 126-205 218-205 85 0 140 60 140 202v387c0 56 11 76 45 106H830l35-55v-264c0-98-7-167-74-167-14 0-33 3-52 10v370c0 56 11 76 45 106H462zm997-221v133c-17 5-23 8-36 8-47 0-70-34-70-104 0-40 8-65 23-80 6-6 13-9 22-9 16 0 35 19 61 52zm231-222c0-142-53-202-140-202-100 0-181 112-260 286l87-266h-248l115 391h10c45-139 87-198 133-198 39 0 72 35 72 100v20c-175 63-233 96-272 135-35 35-55 76-55 123 0 75 56 129 135 129 75 0 138-58 192-150l-14 150 290-30c-34-27-45-47-45-106zm347-116v261c0 97 23 154 94 154 16 0 34-3 55-11-55 125-145 230-237 230-87 0-144-61-144-203v-347c0-90-12-113-45-150h46l216-201 15 201h154v10zm926-246l-51 431c-7 58-10 112-10 161 0 127 23 214 64 268h-358v-70l-310-660c0 372 106 625 164 730h-241l51-421c7-60 11-115 11-165 0-128-20-207-65-274h339v70l330 660c0-351-126-625-181-730zm361 584v133c-17 5-23 8-36 8-47 0-70-34-70-104 0-40 8-65 23-80 6-6 13-9 22-9 16 0 35 19 61 52zm231-222c0-142-53-202-140-202-100 0-181 112-260 286l87-266h-248l115 391h10c45-139 87-198 133-198 39 0 72 35 72 100v20c-175 63-233 96-272 135-35 35-55 76-55 123 0 75 56 129 135 129 75 0 138-58 192-150l-14 150 290-30c-34-27-45-47-45-106zm347-116v261c0 97 23 154 94 154 16 0 34-3 55-11-55 125-145 230-237 230-87 0-144-61-144-203v-347c0-90-12-113-45-150h46l216-201 15 201h154v10zm442 124v129c0 98 7 167 74 167 14 0 33-3 52-10v-345c0-65-12-90-45-111l287-40-10 210v374c0 59 11 79 45 106l-290 30 13-210c-50 108-126 205-218 205-85 0-140-60-140-202v-362c0-65-12-90-45-111l287-40zm475 435v-494c0-65-12-90-45-111l287-40-6 289c27-180 102-282 187-282 16 0 31 3 47 10l-87 494h-10c-27-171-57-256-88-256-30 0-53 68-53 171v168c0 49 11 69 45 106h-322zm484-256c0 194 125 331 287 331s262-126 296-287l-8-2c-51 63-103 97-171 97-120 0-194-112-194-346 0-114 19-156 47-156 35 0 88 143 88 293l33-37-159 57v8l358 74c8-48 11-78 11-116 0-180-105-307-261-307-177 0-327 170-327 391zm0 0"/></svg>