<svg width="5219" height="1100.002" xmlns="http://www.w3.org/2000/svg"><path d="M234.14 340.672v312.02c0 116.86 23.34 171.46 78.93 171.46 18.74 0 36.74-19.78 56.03-77.08-36.17 145.54-107 236.51-180.51 236.51-74.33 0-123.45-57.58-123.45-221.49v-349.4c0-77.33-13.03-96.57-50.14-125.69h50.45l154.37-201.68 14.32 201.68h141.33v7.26zm212.28 581.94v-747.36c0-52.41-9.26-73.3-50.13-95.85l224.08-28.98-5.29 419.73c47.6-107.66 119.15-196.44 202.25-196.44 74.39 0 125.62 56.24 125.62 196.87v399.66c0 54.98 12.37 72.24 50.14 96.76H731.08l42.87-44.39v-335.56c0-99.02-17.61-159.12-76.4-159.12-22.21 0-50.12 12.93-82.13 58.28v384.03c0 54.98 12.37 72.24 50.14 96.76H396.97zm891.8-256.6l-.34 150.8c-17.68 19.72-40.8 51.14-69.55 51.14-41.53 0-74.45-33.66-74.45-117.35 0-45.14 10.05-79.73 30.53-100.2 11.82-11.82 31.49-20.99 53.16-20.99 15.65 0 35.34 13.18 60.65 36.6zm168-216.53c0-128.99-51.97-179.06-123.9-179.06-88.71 0-162.52 105.16-224.4 273.34l65.09-256.76h-183.63l84.19 384.84h7.26c37.81-183.51 91.79-246.62 135.39-246.62 40.03 0 71.66 35.34 71.66 101.37v62.8c-146.4 48.17-205.61 80.59-245.29 120.27-38.43 38.43-57.74 84.84-57.74 137.38 0 82.88 53.26 136.54 123.36 136.54 76.02 0 138-73.41 179.67-153.09l-9.55 153.09 228.03-28.98c-41.53-22.55-50.14-40.15-50.14-90.59zm293.92-108.81v312.02c0 116.86 23.34 171.46 78.93 171.46 18.74 0 36.74-19.78 56.03-77.08-36.17 145.54-107 236.51-180.51 236.51-74.33 0-123.45-57.58-123.45-221.49v-349.4c0-77.33-13.03-96.57-50.14-125.69h50.45l154.37-201.68 14.32 201.68h141.33v7.26zm821.25-233.67l-34.22 502.22c-4.6 50.46-6.58 101.04-6.58 143.19 0 97.56 15.47 168.46 42.77 218.01H2382.8l-15.06-75.82-320.27-664.79c.34 315.16 82.03 621.58 126.33 737.19h-180.39l34.22-495.64c4.6-51.78 7.23-103.02 7.23-145.83 0-98.21-13.49-163.86-43.43-221.95h225.33l9.25 64.18 341.29 680.88c-.34-304.43-95.18-626.03-137.51-741.64zm364.83 559.01l-.34 150.8c-17.68 19.72-40.8 51.14-69.55 51.14-41.53 0-74.45-33.66-74.45-117.35 0-45.14 10.05-79.73 30.53-100.2 11.82-11.82 31.49-20.99 53.16-20.99 15.65 0 35.34 13.18 60.65 36.6zm168-216.53c0-128.99-51.97-179.06-123.9-179.06-88.71 0-162.52 105.16-224.4 273.34l65.09-256.76h-183.63l84.19 384.84h7.26c37.81-183.51 91.79-246.62 135.39-246.62 40.03 0 71.66 35.34 71.66 101.37v62.8c-146.4 48.17-205.61 80.59-245.29 120.27-38.43 38.43-57.74 84.84-57.74 137.38 0 82.88 53.26 136.54 123.36 136.54 76.02 0 138-73.41 179.67-153.09l-9.55 153.09 228.03-28.98c-41.53-22.55-50.14-40.15-50.14-90.59zm293.92-108.81v312.02c0 116.86 23.34 171.46 78.93 171.46 18.74 0 36.74-19.78 56.03-77.08-36.17 145.54-107 236.51-180.51 236.51-74.33 0-123.45-57.58-123.45-221.49v-349.4c0-77.33-13.03-96.57-50.14-125.69h50.45l154.37-201.68 14.32 201.68h141.33v7.26zm378 114.42v202.27c0 107.93 19.32 168.71 78.79 168.71 22.56 0 47.72-12.93 79.73-58.28v-367.94c0-54.38-9.26-75.27-50.13-93.88l226.39-35.55-7.26 184.67v408.92c0 50.44 8.61 68.04 50.14 90.59l-228.37 28.98 9.23-201.1c-47.6 109.03-119.15 197.81-202.25 197.81-74.04 0-125.27-55.55-125.27-192.76v-387.68c0-54.38-9.26-75.27-50.14-93.88l226.4-35.55zm452.31 467.52v-522.76c0-54.38-9.26-75.27-50.13-93.88l226.39-35.55-5.31 271.88c22.2-168.35 88.99-267.27 164.4-267.27 16 0 34.42 4.37 52.48 17.19l-65.09 412.51h-7.26c-20.15-174.43-50.15-249.5-80.47-249.5-32.05 0-66.01 73.82-66.01 228.87v186.14c0 50.37 12.37 67.63 50.14 96.76h-269.27zm414.69-266.61c0 199.82 105.48 327.58 241.46 327.58 133.24 0 223.65-114.71 246.01-304.81l-5.95-1.31c-40.38 128.39-96.49 163.76-154.9 163.76-103.57 0-174.83-115.76-174.83-355.58 0-136.94 33.04-184.42 68.23-184.42 50.06 0 100.67 133.75 100.67 287.52l29.23-29.47-202.14 43.31v8.68l340.54 53.11c5.94-37.04 8.26-61.22 8.26-91.69 0-187.53-89.59-303.57-218.2-303.57-149.27 0-278.38 161.44-278.38 386.89zm0 0"/></svg>