<svg width="1588" height="1100.002" xmlns="http://www.w3.org/2000/svg"><path d="M161.58 321.222v375.99c0 141.76 23.77 193.36 60.04 193.36 22.17 0 40.17-40.82 57.31-159.95-12.55 171.3-59.33 244.66-109.66 244.66-58.44 0-97.69-53.28-97.69-244.67v-352.4c0-61.45-14.32-75.96-56.58-95.21h56.03l77.09-202.54 13.46 202.54h125.44v3.83zm209.14 610.7v-780.42c0-40.39-5.83-56.13-56.58-73.1l148.95-27.68-3.14 406.85c44.59-107.23 110.56-185.71 182.5-185.71 61.07 0 107.58 51.51 107.58 190.42v415.56c0 53.68 14.09 67.51 56.58 85.16H607.28l52.75-31.08v-425.29c0-100.31-30.92-149.25-79.4-149.25-32.52 0-71.59 25.38-119.91 118.82v401.64c0 53.68 14.08 67.51 56.57 85.16H315.68zm759.46-301.26l-.77 173.13c-18.54 38.19-63.13 105.24-111.63 105.24-34.65 0-80.03-33.23-80.03-134.1 0-51.57 12.63-98.18 39.98-125.53 19.12-19.12 54.67-36.01 92.23-36.01 15.22 0 35.77 5.88 60.22 17.27zm89-209.65c0-112.67-50.68-150.29-103.72-150.29-74.54 0-139.33 96.56-179.74 257.44l37.61-245.16H870.41l45.55 377.11h3.82c28.8-239.33 97.81-307.59 138.4-307.59 41.32 0 71.23 35.77 71.23 103.09v116.47c-110.54 29.58-171.26 61.27-211.8 101.81-42.72 42.72-61.18 95.93-61.18 155.41 0 92.75 49.83 145.98 108.77 145.98 77.31 0 138-92.73 164.21-156.94l-3.96 156.94 150.31-27.68c-50.98-16.97-56.58-31.57-56.58-71.27zm227.4-99.79v375.99c0 141.76 23.77 193.36 60.04 193.36 22.17 0 40.17-40.82 57.31-159.95-12.55 171.3-59.33 244.66-109.66 244.66-58.44 0-97.69-53.28-97.69-244.67v-352.4c0-61.45-14.32-75.96-56.58-95.21h56.03l77.09-202.54 13.46 202.54h125.44v3.83zm0 0"/></svg>