<svg width="2329" height="1100.002" xmlns="http://www.w3.org/2000/svg"><path d="M368 290.002h121v10l-142 56-40 226c-22 126-27 232 12 232 21 0 44-15 77-98h10c-34 180-136 274-241 274-94 0-148-77-115-272l39-228c18-102 15-150-8-195l287-198zm66 700l266-46v-159c33-220 94-339 129-339 39 0 42 106 19 232l-56 312 295-52-45-52 61-344c35-195-12-272-89-272-50.36 0-105 27-154 76-48 48-89.18 116.08-115 197l104-493-290 51v179zm1388-620l65-55c-81-32-146-45-213-45-137 0-281 57-383 165-102 109-150 266-150 376 0 109 47 178 127 178 41 0 85-18 128-61 41-41 94-116 135-248l-63 310 306-54-45-52zm-381 442c-24 0-34-47-34-106 0-120 41-336 86-381 8-8 17-12 27-12 28 0 54 20 74 48-59 309-121 451-153 451zm767-522h121v10l-142 56-40 226c-22 126-27 232 12 232 21 0 44-15 77-98h10c-34 180-136 274-241 274-94 0-148-77-115-272l39-228c18-102 15-150-8-195l287-198zm0 0"/></svg>