<svg width="1179" height="1100.002" xmlns="http://www.w3.org/2000/svg"><path d="M138.61 314.332v396.23c0 149.64 23.91 200.29 54.07 200.29 23.26 0 41.26-47.48 57.72-186.17-5.08 179.46-44.25 247.24-87.24 247.24-53.42 0-89.55-51.92-89.55-252.01v-353.35c0-56.42-14.72-69.44-58.61-85.56h57.8l52.63-202.82 13.18 202.82h120.42v2.74zm208.47 619.81v-790.89c0-36.59-4.74-50.7-58.62-65.9l125.17-27.27-2.46 402.77c43.65-107.09 107.85-182.31 176.25-182.31 56.86 0 101.88 50.01 101.88 188.38v420.59c0 53.27 14.63 66.01 58.61 81.49H568.42l55.88-26.86v-453.69c0-100.73-35.14-146.13-80.35-146.13-35.79 0-78.38 29.32-131.87 137.97v407.22c0 53.27 14.63 66.01 58.61 81.49H290.28zm448.53-284.14c0 209.43 73.27 321.92 166.29 321.92 85.76 0 160.35-96.05 163.49-334.19l-2.55-.19c-22.87 236.36-85.76 273.99-128.35 273.99-76.43 0-143.17-121.99-143.17-371.42 0-174.81 56.21-231.33 103.27-231.33 74.94 0 121.58 118.5 121.58 278.48l23.02-17.03-273.36 20.69v9.82l311.71 18.63c2.56-18.95 3.74-33.52 3.74-51.55 0-199.97-64.15-297.93-147.55-297.93-103.48 0-198.12 147.31-198.12 380.11zm0 0"/></svg>