<svg width="1537" height="1100.002" xmlns="http://www.w3.org/2000/svg"><path d="M301.23 287.002h121.35v7.26l-135.5 49.84-53.35 304.06c-21.32 121.89-18.44 204.27 15.76 204.27 23.74 0 50.85-24.25 86.25-134.29H343c-33.66 182.05-116.83 265.44-201.97 265.44-76.19 0-123.69-67.76-92.74-248.38l44.82-258.47c18-102.34 15.34-142.13-3.55-185.07l217.84-190.81zm75.45 696.58l196.84-35.73v-125.45c51.49-290.53 138.17-422.54 181.39-422.54 37.97 0 43.71 91.96 22.76 208.72l-66.61 374.65 233.03-43.44-48.77-41.04 67.51-381.66c30.89-172.75-8.92-246.67-79.76-246.67-40.99 0-84.8 21.18-124.9 61.28-51.76 51.77-107.61 142.42-144.78 269.59l108.45-550.87-212.28 39.02-4.11 164.28zm1123.21-398.69c-11.98 251.84-130.79 398.69-281.71 398.69-103.22 0-195.1-79.88-195.1-248.53 0-139.9 53.08-280.62 142.66-370.2 60.62-60.62 131.16-94.43 210.93-94.43 97.17 0 157.8 48.24 157.8 133.61 0 66.15-35.76 122.31-67.03 153.58-79.7 79.71-192.66 117.2-304.06 136.2l16.44-87.14c24.71 25.04 46.11 46.11 72.08 46.11 26.44 0 45.87-6.08 61.14-21.35 31.43-31.42 47.4-126.31 47.4-213.03 0-76.37-20.42-122.85-49.64-122.85-56.27 0-118.92 178.59-118.92 339.58 0 145.29 60.35 204.78 122.01 204.78 72.31 0 146.41-64.18 178.74-255.02zm0 0"/></svg>