<svg width="1783.26" height="1100.002" xmlns="http://www.w3.org/2000/svg"><path d="M191.02 281.002h121.9v2.74l-124.75 39.66-75.4 432.94c-20.18 115.11-4.31 158.48 21.99 158.48 28.26 0 62.15-39.5 101.5-194.21H239c-33.09 185.45-85.17 251.31-137.53 251.31-46.81 0-83.56-52.49-56.01-209.37l54.43-308.78c18-102.91 15.91-129.12 3.8-168.68l103.66-178.94zm92.8 690.92l82.66-18.77v-70.05c82.01-406.97 211.08-560.46 267.86-560.46 36.28 0 46.54 68.79 28.99 170.28l-84.14 478.1 130.72-29.31-54.98-22.96 78.24-443.84c24.11-136-3.83-204.83-64.49-204.83-25.53 0-51.45 11.57-76.85 36.97-57.99 57.98-138.03 185.89-193.97 389.41l115.8-646.38-83.97 19.23-10.89 139.97zm870.29-358.56c-31.77 263.16-138.71 358.56-221.79 358.56-75.53 0-139.15-92.87-139.15-239.47 0-154.6 58.17-319.63 142.09-403.55 36.88-36.88 78.59-58.82 123.32-58.82 66.08 0 124.45 42.01 124.45 129.64 0 54.85-20.49 121.19-68.72 169.42-61.05 61.04-150.84 87.8-266.19 106.8l2.31-54.36c27.54 6.96 52.89 11.64 77.17 11.64 53.56 0 100.13-11.17 132.36-43.4 37.07-37.08 51.35-103.7 51.35-173.47 0-78.63-26.08-134.15-68.86-134.15-73.23 0-176.57 194.41-176.57 396.67 0 142.46 41.14 232.47 102.23 232.47 49.69 0 130.59-54.57 183.26-297.98zm51.97 357.66l137.98-28.41-64.06-23.86 113.45-648.67-137.99 29.31 64.06 22.95zm166.53-774.03c36.91 0 63.98-25.03 63.98-58.17-.1-26.96-21.24-48.36-51.6-48.36-37.28 0-64.42 26.68-64.51 59.17-.09 25.77 21.68 47.36 52.13 47.36zm29.02 775.4l113.63-650.05-56.8-22.95 130.72-29.31-56.73 320.13c68.73-285.04 142.97-320.13 192.08-320.13 17.24 0 40.58 7 58.73 19.7l-76.37 285.59h-2.74c26.93-196.52.13-238.29-27.41-238.29-35.24 0-110.25 59.7-193.72 533.77v82.76zm0 0"/></svg>