<svg width="2813" height="1100.002" xmlns="http://www.w3.org/2000/svg"><path d="M368 290.002h121v10l-142 56-40 226c-22 126-27 232 12 232 21 0 44-15 77-98h10c-34 180-136 274-241 274-94 0-148-77-115-272l39-228c18-102 15-150-8-195l287-198zm66 700l266-46v-159c33-220 94-339 129-339 39 0 42 106 19 232l-56 312 295-52-45-52 61-344c35-195-12-272-89-272-50.36 0-105 27-154 76-48 48-89.18 116.08-115 197l104-493-290 51v179zm1276-423c0 245-126 423-318 423-120 0-229-72-229-254 0-131 50-257 143-350 75-75 163-116 264-116 116 0 178 52 178 136 0 73-45 123-66 144-91 91-218 135-327 154l25-107c23 36 42 67 69 67 10 0 13-3 18-8 28-28 45-140 45-237 0-75-17-116-38-116-46 0-84 169-84 305 0 147 72 188 134 188 86 0 156-70 176-229zm34 418l266-46v-149c54-259 98-344 134-344 39 0 33 107 11 232l-53 307 266-46v-161c53-251 96-334 132-334 39 0 33 106 11 232l-56 319 294-52-34-113 52-290c35-195-5-272-82-272-56 0-112 28-159 75-48 48-85 117-111 199l12-68c25-144-21-204-98-204-52 0-109 29-159 79-48 48-90 115-115 195l58-274-305 54 35 89zm0 0"/></svg>