<svg width="2510" height="1100.002" xmlns="http://www.w3.org/2000/svg"><path d="M234.14 340.672v312.02c0 116.86 23.34 171.46 78.93 171.46 18.74 0 36.74-19.78 56.03-77.08-36.17 145.54-107 236.51-180.51 236.51-74.33 0-123.45-57.58-123.45-221.49v-349.4c0-77.33-13.03-96.57-50.14-125.69h50.45l154.37-201.68 14.32 201.68h141.33v7.26zm212.28 581.94v-747.36c0-52.41-9.26-73.3-50.13-95.85l224.08-28.98-5.29 419.73c47.6-107.66 119.15-196.44 202.25-196.44 74.39 0 125.62 56.24 125.62 196.87v399.66c0 54.98 12.37 72.24 50.14 96.76H731.08l42.87-44.39v-335.56c0-99.02-17.61-159.12-76.4-159.12-22.21 0-50.12 12.93-82.13 58.28v384.03c0 54.98 12.37 72.24 50.14 96.76H396.97zm586.72-266.61c0 199.82 105.48 327.58 241.46 327.58 133.24 0 223.65-114.71 246.01-304.81l-5.95-1.31c-40.38 128.39-96.49 163.76-154.9 163.76-103.57 0-174.83-115.76-174.83-355.58 0-136.94 33.04-184.42 68.23-184.42 50.06 0 100.67 133.75 100.67 287.52l29.23-29.47-202.14 43.31v8.68l340.54 53.11c5.94-37.04 8.26-61.22 8.26-91.69 0-187.53-89.59-303.57-218.2-303.57-149.27 0-278.38 161.44-278.38 386.89zm591.97 266.61l-43.56 44.39h262.69c-37.76-24.52-50.13-41.78-50.13-96.76v-417.59c22.19-24.12 49.15-40.5 75.18-40.5 56.92 0 81.4 59.46 81.4 167.71v342.75l-43.56 44.39h262.7c-37.77-24.52-50.14-41.78-50.14-96.76v-417.59c23.88-25.49 49.8-40.5 74.5-40.5 54.86 0 82.74 59.46 82.74 168.05v342.41l-43.56 44.39h262.7c-37.77-24.52-50.14-41.78-50.14-96.76v-403.77c0-141.15-56.84-196.05-136.94-196.05-85.07 0-151.25 68.21-189.98 167.54-2.74-131.64-63.61-167.54-126.73-167.54-82.76 0-156.23 76.81-198.17 166.86l7.26-166.86-226.4 35.55c40.88 18.61 50.14 39.5 50.14 93.88zm0 0"/></svg>