<svg width="2759.74" height="1100.002" xmlns="http://www.w3.org/2000/svg"><path d="M253.54 285.002h121.59v5.3l-130.85 45.44-62.89 359.83c-20.82 118.95-12.32 184.45 18.46 184.45 25.69 0 55.74-30.85 92.85-160.22h5.3c-33.41 183.53-103.13 259.33-174.09 259.33-63.48 0-106.32-61.15-76.84-231.5l48.97-280.24c18-102.59 15.59-136.5-.37-177.98l168.44-185.67zm82.63 694.13l147.44-28.39v-101.48c64.69-340.91 169.72-482.22 218.8-482.22 37.24 0 44.94 81.94 25.46 192.09l-74.2 419.41 188.76-37.32-51.45-33.22 72.15-408.57c27.96-156.84-6.72-228.56-73.15-228.56-34.3 0-70.37 17.02-104.11 50.76-54.46 54.46-120.77 161.23-166.07 321.44l111.63-592.2-156.76 30.46-7.04 153.76zm572.7-.59l193.46-36.74-57.33-33.8 111.52-637.13-193.45 37.33 57.32 33.21zm203.09-760.24c57.43 0 98.61-32.08 98.61-76.13-.42-37.21-32.46-66.95-81.42-66.95-59.08 0-97.13 35.98-97.54 77.13-.41 35.39 30.98 65.95 80.35 65.95zm51.39 758.77l111.11-635.66-51.46-33.21 188.76-37.33-65.19 372.2c45.29-160.21 111.6-266.98 166.06-321.44 33.74-33.74 69.81-50.76 104.11-50.76 66.43 0 99.46 71.72 72.33 228.56l-70.92 406.5 51.46 33.22-188.76 37.33 73.78-417.35c19.48-110.15 11.78-192.09-25.46-192.09-48.5 0-153.52 143.07-218.8 477.53l.41 104.1zm857.17-926.2l-110.91 594.46c46.61-161.48 124.65-268.18 173.72-317.24 40.54-40.55 85.74-57.22 123.37-57.22 60.8 0 89.82 35.96 89.82 89.67 0 53.37-24.11 102.42-64.04 142.35-41.65 41.65-102.24 73.22-176.76 91.96l35.69 142.43c25.09 82.72 50.26 120.09 73.02 120.09 21.83 0 46.81-24.17 46.81-159.5 0-51.02-3.41-82.83-7.48-128.54h5.31c18.32 71.04 27.15 128.89 27.15 203.15 0 144.54-46.52 206.65-103.44 206.65-50.85 0-95.11-50.28-125.78-166.67l-38.28-160.53c32.89-23.82 62.69-52.3 77.39-64.6 36.74-30.68 115.87-93.5 115.87-163.98 0-33-12.59-61.68-39.7-61.68-74.13 0-196.58 193.57-246.08 492l.41 95-145.68 28.4 131.11-741.98 4.7-151.42zm505.09 657.76c59.27 50.54 79.24 88.87 79.24 136.41 0 65.37-46.63 102.57-95.18 102.57-63.89 0-132.38-65.48-166.3-222.13h-5.3l-71.22 236.13c35.48 9.35 70.08 17.52 132.5 17.52 197.01 0 283.89-103.98 283.89-214.72 0-62.56-29.78-114.19-93.11-167.19l-81.3-62.72c-48.96-40.2-77.76-79.23-77.76-132.65 0-65.37 39.58-99.46 88.13-99.46 63.85 0 129.89 70.15 159.89 222.54h5.3l75.35-236.54c-35.48-9.35-66.57-17.52-128.98-17.52-197.01 0-276.85 101.39-276.85 210.02 0 72.33 34.72 116.37 95.29 167.44zm0 0"/></svg>