<svg width="2061" height="1100.002" xmlns="http://www.w3.org/2000/svg"><path d="M161.58 321.222v375.99c0 141.76 23.77 193.36 60.04 193.36 22.17 0 40.17-40.82 57.31-159.95-12.55 171.3-59.33 244.66-109.66 244.66-58.44 0-97.69-53.28-97.69-244.67v-352.4c0-61.45-14.32-75.96-56.58-95.21h56.03l77.09-202.54 13.46 202.54h125.44v3.83zm209.14 610.7v-780.42c0-40.39-5.83-56.13-56.58-73.1l148.95-27.68-3.14 406.85c44.59-107.23 110.56-185.71 182.5-185.71 61.07 0 107.58 51.51 107.58 190.42v415.56c0 53.68 14.09 67.51 56.58 85.16H607.28l52.75-31.08v-425.29c0-100.31-30.92-149.25-79.4-149.25-32.52 0-71.59 25.38-119.91 118.82v401.64c0 53.68 14.08 67.51 56.57 85.16H315.68zm516.08 0v-560.42c0-40.39-5.82-56.13-56.57-73.1l150.4-27.68-3.83 150.71v456.41c0 54.37 14.09 68.19 56.58 85.16H830.23zm37.46-726.37c-41.29 0-69.6-27.02-69.6-59.01 0-33.53 27.85-61.46 68.46-61.46 40.84 0 70.51 27.93 70.51 61.46 0 31.99-29.22 59.01-69.37 59.01zm191 726.37l-56.58 31.08h203.16c-42.49-19.25-56.58-33.08-56.58-85.16v-406.21c47.87-93.89 80.53-119.73 113.83-119.73 48.42 0 85.49 50.25 85.49 170.63v409.39l-54.3 31.08h200.87c-42.49-19.25-56.57-33.08-56.57-85.16v-425.96c0-131.2-46.51-181.16-106.82-181.16-71.93 0-137.9 77.33-182.5 181.51l3.83-181.51-150.41 29.96c50.75 15.6 56.58 31.34 56.58 72.42zm495.12-335.7c0 151.86 74.87 259.54 174.45 259.54 129.71 0 226.28-178.96 226.28-335.69 0-61.72-27.49-130.82-52.82-168.18l80.81-34.36c-64.22-29.62-130.11-46.81-191.98-46.81-136.07 0-236.74 147.2-236.74 325.5zm79.95-71.25c0-139.1 43.36-219.27 108.1-219.27 73.63 0 133.87 136.41 133.87 273.75 0 146.58-42.56 241.33-112.73 241.33-78.79 0-129.24-147.36-129.24-295.81zm307.32 538.03l4.57-85.38h-329.73l4.74-200.12-79.8 285.5zm0 0"/></svg>