<svg width="3068.1" height="1100.002" xmlns="http://www.w3.org/2000/svg"><path d="M301.23 287.002h121.35v7.26l-135.5 49.84-53.35 304.06c-21.32 121.89-18.44 204.27 15.76 204.27 23.74 0 50.85-24.25 86.25-134.29H343c-33.66 182.05-116.83 265.44-201.97 265.44-76.19 0-123.69-67.76-92.74-248.38l44.82-258.47c18-102.34 15.34-142.13-3.55-185.07l217.84-190.81zm75.45 696.58l196.84-35.73v-125.45c51.49-290.53 138.17-422.54 181.39-422.54 37.97 0 43.71 91.96 22.76 208.72l-66.61 374.65 233.03-43.44-48.77-41.04 67.51-381.66c30.89-172.75-8.92-246.67-79.76-246.67-40.99 0-84.8 21.18-124.9 61.28-51.76 51.77-107.61 142.42-144.78 269.59l108.45-550.87-212.28 39.02-4.11 164.28zm631.74-.35l235.77-43.09-52.19-41.39 110.05-628.33-235.76 43.44 52.19 41.05zm230.97-749.72c73.09 0 125.02-37.47 125.02-89.83-.65-45.04-41.01-81.14-104.15-81.14-75.72 0-122.08 43.07-122.74 90.83-.66 42.73 38.07 80.14 101.87 80.14zm65.98 746.78l109.4-625.38-48.77-41.05 233.03-43.44-57.62 330.87c37.18-127.17 93.02-217.82 144.79-269.59 40.1-40.1 83.91-61.28 124.9-61.28 70.83 0 108.01 73.92 78.44 246.67l-65.53 378.37 48.76 41.05-233.03 43.44 65.96-371.37c20.95-116.76 15.21-208.72-22.77-208.72-42.87 0-129.55 133.04-181.38 419.8l.66 124.9zm961.68-929.87l-105.53 558.02c39.27-129.2 103.13-222.68 153.42-272.97 43.23-43.24 92.1-65.05 137.8-65.05 68.39 0 101.56 38.9 101.56 94.81 0 53.63-22.39 102.66-61.1 141.37-42.63 42.63-106.72 72.71-187.28 83.64l33.74 113.09c30.47 84.92 55.15 114.22 77.18 114.22 22.31 0 43.13-23.69 43.13-131.38 0-43.93-3.65-72.06-8.94-119.98h7.26c24.44 79.36 33.75 141.85 33.75 209.76 0 147.23-56.3 207.63-119.08 207.63-55.5 0-104.65-48.09-140.46-171.81l-36.08-136.56c45.85-35.56 83.24-76.76 95.98-91.02 31.84-35.81 79.67-87.87 79.67-137.32 0-33-12.34-55.56-37.74-55.56-76.57 0-173.84 211.66-206.47 435.75l.66 117.5-195.81 35.73 129.4-726.57 2.74-162.91zm541.97 690.78c64.18 50.27 79.97 89.38 79.97 125.41 0 46.05-32.2 75.66-72.18 75.66-58.5 0-148.01-75.23-202.01-224.57h-7.26l-90.3 249.82c36.95 8.37 75.47 16.06 138.13 16.06 236.69 0 330.6-111.07 330.6-228.17 0-65.26-33.2-117.87-102.64-170.87l-105.76-76.17c-56.05-42.1-77.03-82.91-77.03-122.38 0-46.04 28.09-74.26 68.07-74.26 58.44 0 147.59 82.67 195.36 225.23h7.26l96.87-250.48c-36.95-8.37-73.42-16.06-136.07-16.06-236.69 0-326.5 108.73-326.5 225.43 0 70.16 36.92 119.55 104.33 171.84zm0 0"/></svg>