<svg width="1722.93" height="1100.002" xmlns="http://www.w3.org/2000/svg"><path d="M164.59 974.142l167.19-33.62-59.66-26.53 141.35-810.08-24.99 6.86 67.76 5.4c82.91 6.78 82.5 92.15 44.62 423.11h3.83l107.6-436.28h-496.5l-38.67 434h3.83c77.87-335.99 103.41-415.42 189.23-420.83l69.4-5.4-23.36-7.09zm379.95 1.14l110.11-22.85v-83.36c74.68-378.98 193.56-527.31 247.08-527.31 36.68 0 45.86 74.36 27.49 179.52l-79.93 453.23 155.32-32.71-53.49-27.3 75.66-428.89c25.74-144.84-5.05-214.89-68.16-214.89-29.24 0-59.47 13.88-88.4 42.81-56.49 56.49-130.72 175.44-182.14 360.61l114.03-623.42-114.82 23.99-9.26 145.81zm528.18-.77l161.49-31.93-61.21-28.08 112.63-643.78-161.49 32.7 61.21 27.31zm182.02-768.18c45.61 0 78.65-28.03 78.65-65.79-.23-31.3-25.99-56.24-64.23-56.24-46.52 0-78.28 30.62-78.51 66.79-.23 29.84 25.62 55.24 64.09 55.24zm252.91 477.2c55.58 50.75 78.69 88.48 78.69 144.73 0 79.97-57.54 122.89-112.55 122.89-67.96 0-120.58-58.1-139.32-220.28h-3.83l-56.8 225.78c34.37 10.09 66.02 18.63 128.25 18.63 167.03 0 248.59-98.62 248.59-204.55 0-60.52-27.19-111.43-85.9-164.43l-62.82-52.55c-43.61-38.77-78.32-76.44-78.32-140.41 0-79.97 48.27-118.49 103.28-118.49 67.95 0 116.52 60.68 133.1 220.51h3.83l59.08-226.01c-34.36-10.09-61.39-18.63-123.61-18.63-167.04 0-239.34 95.85-239.34 198.38 0 73.97 33.05 113.97 88.44 164.11zm0 0"/></svg>