<svg width="1887.74" height="1100.002" xmlns="http://www.w3.org/2000/svg"><path d="M172.35 977.072l203.78-38.98-56.15-32.63 138.39-798.81-31.46 5.94 57.04 4.11c83.66 6.58 82.63 127.06 50.94 443.43h5.31l126.85-455.13h-556l-19.11 451h5.3c78.14-325.46 111.69-435.2 199-439.3l57.56-4.11-30.93-6.35zm420.82 2.06l147.44-28.39v-101.48c64.69-340.91 169.72-482.22 218.8-482.22 37.24 0 44.94 81.94 25.46 192.09l-74.2 419.41 188.76-37.32-51.45-33.22 72.15-408.57c27.96-156.84-6.72-228.56-73.15-228.56-34.3 0-70.37 17.02-104.11 50.76-54.46 54.46-120.77 161.23-166.07 321.44l111.63-592.2-156.76 30.46-7.04 153.76zm572.7-.59l193.46-36.74-57.33-33.8 111.52-637.13-193.45 37.33 57.32 33.21zm203.09-760.24c57.43 0 98.61-32.08 98.61-76.13-.42-37.21-32.46-66.95-81.42-66.95-59.08 0-97.13 35.98-97.54 77.13-.41 35.39 30.98 65.95 80.35 65.95zm284.65 490.33c59.27 50.54 79.24 88.87 79.24 136.41 0 65.37-46.63 102.57-95.18 102.57-63.89 0-132.38-65.48-166.3-222.13h-5.3l-71.22 236.13c35.48 9.35 70.08 17.52 132.5 17.52 197.01 0 283.89-103.98 283.89-214.72 0-62.56-29.78-114.19-93.11-167.19l-81.3-62.72c-48.96-40.2-77.76-79.23-77.76-132.65 0-65.37 39.58-99.46 88.13-99.46 63.85 0 129.89 70.15 159.89 222.54h5.3l75.35-236.54c-35.48-9.35-66.57-17.52-128.98-17.52-197.01 0-276.85 101.39-276.85 210.02 0 72.33 34.72 116.37 95.29 167.44zm0 0"/></svg>