<svg width="1604" height="1100.002" xmlns="http://www.w3.org/2000/svg"><path d="M217.39 931.862v-827.68l12.95 5.91-72.56 5.45c-79.95 5.44-90.45 60.18-110.24 407.88H44.8l-18.03-422.42h451.55l-18.95 422.42h-2.74c-19.42-347.43-30.19-402.25-110.33-407.7l-76.19-5.44 16.68-6.1v769.69c0 57.19 16 71.02 54.54 87.13H171.92zm356.69 2.28v-790.89c0-36.59-4.74-50.7-58.62-65.9l125.17-27.27-2.46 402.77c43.65-107.09 107.85-182.31 176.25-182.31 56.86 0 101.88 50.01 101.88 188.38v420.59c0 53.27 14.63 66.01 58.61 81.49H795.42l55.88-26.86v-453.69c0-100.73-35.14-146.13-80.35-146.13-35.79 0-78.38 29.32-131.87 137.97v407.22c0 53.27 14.63 66.01 58.61 81.49H517.28zm482.63 0v-570.89c0-36.59-4.74-50.7-58.62-65.9l126.36-27.27-2.74 139.57v469.86c0 53.55 14.63 66.29 58.61 81.49H998.09zm24.68-738.06c-32.19 0-56.15-24.03-56.15-51.26 0-29.05 23.78-53.46 55.69-53.46 32 0 56.52 24.41 56.52 53.46 0 27.23-24.33 51.26-56.06 51.26zm178.47 479.03l-31.71 258.71c26.48 13.92 82.88 38.1 155.3 38.1 113.3 0 180.89-69.43 181.79-173.82 0-63.38-32.26-114.37-74.06-156.17-39.25-39.25-103.69-82.15-139.38-117.94-37.14-37.14-66.4-73.75-66.4-125.61 0-69.01 50.95-109.15 98.01-109.15 63.19 0 116.29 60.57 134.97 277.57h2.74l38.7-259.52c-21.04-11.2-75.44-37.2-141.67-37.2-109.92 0-177.09 73.4-177.09 173.63 0 59.02 28.72 102.57 67.35 141.2 37.13 37.13 112.68 88.16 145.73 121.21 38.06 38.06 66.39 81.29 66.39 137.59 0 69.38-48.04 109.24-101.9 109.24-74.95 0-145.68-59.18-156.03-277.84zm0 0"/></svg>