<svg width="1764" height="1100.002" xmlns="http://www.w3.org/2000/svg"><path d="M161.58 321.222v375.99c0 141.76 23.77 193.36 60.04 193.36 22.17 0 40.17-40.82 57.31-159.95-12.55 171.3-59.33 244.66-109.66 244.66-58.44 0-97.69-53.28-97.69-244.67v-352.4c0-61.45-14.32-75.96-56.58-95.21h56.03l77.09-202.54 13.46 202.54h125.44v3.83zm209.14 610.7v-780.42c0-40.39-5.83-56.13-56.58-73.1l148.95-27.68-3.14 406.85c44.59-107.23 110.56-185.71 182.5-185.71 61.07 0 107.58 51.51 107.58 190.42v415.56c0 53.68 14.09 67.51 56.58 85.16H607.28l52.75-31.08v-425.29c0-100.31-30.92-149.25-79.4-149.25-32.52 0-71.59 25.38-119.91 118.82v401.64c0 53.68 14.08 67.51 56.57 85.16H315.68zm601.86-508.31v294.15c0 120.38 34.78 170.86 84.8 170.86 33.29 0 66.19-25.38 114.51-118.82v-396.7c0-41.08-5.82-56.82-56.57-72.42l150.4-29.96-3.83 152.89v452.72c0 39.7 5.6 54.3 56.58 71.27l-151.09 27.68 4.51-189.93c-44.6 110.31-110.56 188.79-182.5 188.79-60.3 0-106.81-49.97-106.81-181.16v-419.88c0-41.08-5.83-56.82-56.58-72.42l150.4-29.96zm430.5 255.13l-38.65 256.8c28.66 15.29 88.59 39.74 166.04 39.74 124.03 0 195.42-75.95 196.19-182.38 0-65.42-31.17-114.91-71.2-154.94-45.5-45.5-125.3-88.28-166.43-129.63-32.92-32.93-61.1-67.5-61.1-114.74 0-61.68 46.47-97.6 90.68-97.6 63.46 0 125.52 62.88 156.98 271.04h3.82l44.13-257.35c-24.02-12.96-81.95-38.96-152.94-38.96-118.61 0-193.39 76.93-193.39 181.92 0 60.51 28.31 104.88 66.4 142.97 40.25 40.25 132.78 94.27 170.31 131.8 35.21 35.21 61.1 74.36 61.1 125.23 0 62.59-43.69 97.83-92.93 97.83-70.47 0-149.62-59.46-175.19-271.73zm0 0"/></svg>