<svg width="798" height="1100.002" xmlns="http://www.w3.org/2000/svg"><path d="M217.51 283.002h121.77v3.83l-127.33 42.1-70.1 401.96c-20.46 116.74-7.71 169.49 20.49 169.49 27.17 0 59.43-35.84 97.83-179.8H264c-33.23 184.63-92.78 254.7-153.02 254.7-53.87 0-93.21-56.16-64.84-218.75l52.12-296.68c18-102.77 15.77-132.25 2.03-172.62l131.11-181.8zm112.89 463.67c0 148.54 64.2 228.61 152.5 228.61 156.68 0 290.57-203.92 290.57-474.81 0-152.87-64.89-229.75-151.82-229.75-156.67 0-291.25 204.61-291.25 475.95zm96.09 16.82c0-231.24 89.98-481.86 177.22-481.86 47.9 0 73.67 67.76 73.67 201.57 0 231.23-90.43 481.17-177.67 481.17-47.67 0-73.22-69.59-73.22-200.88zm0 0"/></svg>