<svg width="2130.13" height="1100.002" xmlns="http://www.w3.org/2000/svg"><path d="M394.23 303.442l-53.44 580.04c-24.09 37.98-45.1 55.75-69.85 55.75-51.51 0-84.04-75.05-84.04-202.46 0-132.93 46.78-287.95 129.05-466.35l-249.28 98.16 101.05 99.22c-86.15 90.22-152.11 211.97-152.11 331.49 0 115.63 64.1 184.29 168.43 184.29 70.28 0 144.39-35.81 199.3-90.72 114.98-114.97 197.77-355.62 201.1-615.07zm669.66 281.45c-11.98 251.84-130.79 398.69-281.71 398.69-103.22 0-195.1-79.88-195.1-248.53 0-139.9 53.08-280.62 142.66-370.2 60.62-60.62 131.16-94.43 210.93-94.43 97.17 0 157.8 48.24 157.8 133.61 0 66.15-35.76 122.31-67.03 153.58-79.7 79.71-192.66 117.2-304.06 136.2l16.44-87.14c24.71 25.04 46.11 46.11 72.08 46.11 26.44 0 45.87-6.08 61.14-21.35 31.43-31.42 47.4-126.31 47.4-213.03 0-76.37-20.42-122.85-49.64-122.85-56.27 0-118.92 178.59-118.92 339.58 0 145.29 60.35 204.78 122.01 204.78 72.31 0 146.41-64.18 178.74-255.02zm35.48 401.97l111.37-631.95-49.45-41.05 233.03-43.44-61.27 302.62c73.27-266.96 167.28-302.62 223.17-302.62 6.51 0 19.67 7 26.52 11.8l-115.38 405.41h-7.26c2.07-187.48-17.38-246.21-42.09-246.21-24.51 0-68.96 57.92-124.78 379.48v130.24zm1030.76-716.44l-190.55 35.73v116.61c-27.33 182.79-69.71 298.45-113.59 342.32-13.76 13.77-27.97 20.79-41.58 20.79-37.7 0-51.52-51.83-51.52-120.13 0-112.91 49.52-250.38 103.88-395.32l-231.53 98.16 94.46 98.88c-65.46 74.18-154.85 192.14-154.85 311.66 0 91.9 50.23 136.59 112.12 136.59 42.5 0 89.94-20.92 130.14-61.13 46.51-46.5 83.96-116.94 112.04-206.59l-39.37 226.3c-24.86 141.37-82.99 167.06-125.77 167.06-47.56 0-122.7-55.36-181.91-169.5h-7.26l-73.77 193.44c41.68 12.62 78.92 18.29 123.68 18.29 116.25 0 216.65-37.9 311.29-132.53 80.62-80.62 132.84-154.84 161.7-320.95zm0 0"/></svg>