<svg width="1379" height="1100.002" xmlns="http://www.w3.org/2000/svg"><path d="M6.77 287.002l153.12 563.96 24.63 116.04h122.43c12-51.47 25.65-113.28 43.57-180.01l64.12-245.01 76.27 307.26 18.4 117.76h134.34c9-53.18 19.34-102.47 35.26-161.59l138.18-518.41H665.95c19.82 156.52 40.17 366.43-7.64 541.23l-122.55-460.93 9.25-80.3H358.03c22.38 204.48 9.92 366.33-34.74 542.26l-110.32-457.83 8.7-84.43zm846.37 369c0 199.82 105.48 327.58 241.46 327.58 133.24 0 223.65-114.71 246.01-304.81l-5.95-1.31c-40.38 128.39-96.49 163.76-154.9 163.76-103.57 0-174.83-115.76-174.83-355.58 0-136.94 33.04-184.42 68.23-184.42 50.06 0 100.67 133.75 100.67 287.52l29.23-29.47-202.14 43.31v8.68l340.54 53.11c5.94-37.04 8.26-61.22 8.26-91.69 0-187.53-89.59-303.57-218.2-303.57-149.27 0-278.38 161.44-278.38 386.89zm0 0"/></svg>