<svg width="2308" height="1100.002" xmlns="http://www.w3.org/2000/svg"><path d="M741 310.002l227-40c18 230-45 480-171 606-63 63-141 114-234 114-94 0-189-54-189-240 0-37 4-79 12-126h169c-13 78-60 177-138 255-64 64-141 111-243 111-129 0-174-80-174-171 0-109 60-220 159-303l-91-118 292-128c-54 130-115 348-115 526 0 71 6 160 29 160 26 0 49-88 64-170l86-475 240-40-64 355c-9 51-13 98-13 139 0 110 29 181 75 181h8zm784 257c0 245-126 423-318 423-120 0-229-72-229-254 0-131 50-257 143-350 75-75 163-116 264-116 116 0 178 52 178 136 0 73-45 123-66 144-91 91-218 135-327 154l25-107c23 36 42 67 69 67 10 0 13-3 18-8 28-28 45-140 45-237 0-75-17-116-38-116-46 0-84 169-84 305 0 147 72 188 134 188 86 0 156-70 176-229zm427-517l-270 51v179l-124 705 295-52-45-52zm356 0l-270 51v179l-124 705 295-52-45-52zm0 0"/></svg>