<svg width="2378" height="1100.002" xmlns="http://www.w3.org/2000/svg"><path d="M11.49 283.002l143.25 577.7 22.91 102.3h47.72c12-42.02 25.23-94.82 39.28-148.66l85.59-340.33 89.15 382.83 21.4 106.16h55.78c9-45.88 19.77-93.02 31.82-142.27l130.88-537.73h-94.9c-4.22 180.99-14.78 387.04-53.58 567.85l-116.96-473.38-10.5-94.47h-75.35c-7.25 180.01-41.61 381.78-85.84 570.16l-109.46-465.12-5.46-105.04zm746.23 648.92v-780.42c0-40.39-5.83-56.13-56.58-73.1l148.95-27.68-3.14 406.85c44.59-107.23 110.56-185.71 182.5-185.71 61.07 0 107.58 51.51 107.58 190.42v415.56c0 53.68 14.09 67.51 56.58 85.16H994.28l52.75-31.08v-425.29c0-100.31-30.92-149.25-79.4-149.25-32.52 0-71.59 25.38-119.91 118.82v401.64c0 53.68 14.08 67.51 56.57 85.16H702.68zm516.08 0v-560.42c0-40.39-5.82-56.13-56.57-73.1l150.4-27.68-3.83 150.71v456.41c0 54.37 14.09 68.19 56.58 85.16h-203.15zm37.46-726.37c-41.29 0-69.6-27.02-69.6-59.01 0-33.53 27.85-61.46 68.46-61.46 40.84 0 70.51 27.93 70.51 61.46 0 31.99-29.22 59.01-69.37 59.01zm155.17 443.71c0-231.21 100.24-377.4 236.46-377.4 50.53 0 96.33 19.09 126.03 34.77l-59 347.76h-3.82c-12.14-240.82-64.2-350.25-125.95-350.25-47.47 0-96.51 78.07-96.51 239.19-1.54 233.04 74.43 348.66 148.11 348.66 38.8 0 108.5-30.47 136.95-232.2-9.13 223.82-78.19 315.26-176.5 315.26-106.24 0-185.77-116.56-185.77-325.79zm466.29 282.66v-780.42c0-40.39-5.83-56.13-56.58-73.1l148.95-27.68-3.14 406.85c44.59-107.23 110.56-185.71 182.5-185.71 61.07 0 107.58 51.51 107.58 190.42v415.56c0 53.68 14.09 67.51 56.58 85.16h-199.33l52.75-31.08v-425.29c0-100.31-30.92-149.25-79.4-149.25-32.52 0-71.59 25.38-119.91 118.82v401.64c0 53.68 14.08 67.51 56.57 85.16h-201.61zm0 0"/></svg>