<svg width="2762.68" height="1100.002" xmlns="http://www.w3.org/2000/svg"><path d="M608.3 286.482l75.43-12.77c-23.75 305.33-64.06 549.88-160.1 645.93-16.72 16.71-56.6 52.28-98.77 52.28-66.77 0-110.04-75.78-110.04-195.52 0-60.6 10.35-112.58 21.08-173.2l22.87-.91c-22.98 137-46.38 262.32-101.69 317.63-27.7 27.69-60.23 52-102.32 52-75.46 0-118.64-70.92-118.64-171 0-163.45 82.69-307.13 161.72-411.91l-105.52-73.53 184-45.4c-100.29 183.54-172.18 335.29-172.18 510.57 0 80.98 28.69 147.29 79.82 147.29 42.34 0 99.83-74.39 134.8-269.84l66.94-371.53 68.46-12.77-64.91 369.52c-6.28 38.29-12.09 77.13-12.09 116.31 0 94.57 22.64 167.39 78.63 167.39 45.38 0 79.7-52.65 112.37-117.09zm87.52 685.44l82.66-18.77v-70.05c82.01-406.97 211.08-560.46 267.86-560.46 36.28 0 46.54 68.79 28.99 170.28l-84.14 478.1 130.72-29.31-54.98-22.96 78.24-443.84c24.11-136-3.83-204.83-64.49-204.83-25.53 0-51.45 11.57-76.85 36.97-57.99 57.98-138.03 185.89-193.97 389.41l115.8-646.38-83.97 19.23-10.89 139.97zm495.26-.9l137.98-28.41-64.06-23.86 113.45-648.67-137.99 29.31 64.06 22.95zm166.53-774.03c36.91 0 63.98-25.03 63.98-58.17-.1-26.96-21.24-48.36-51.6-48.36-37.28 0-64.42 26.68-64.51 59.17-.09 25.77 21.68 47.36 52.13 47.36zm51.47 544.24c.09 154.12 63.8 230.69 129.88 230.69 72.76 0 171.69-89 216.22-331.79h-2.73c-62.42 232.58-142.18 269.73-176.66 269.73-43.91 0-100.64-64.06-100.64-232.1 0-240.53 103.26-392.43 180.27-392.43 54.54 0 85.55 105.14 52.88 352.24h2.74l95.93-326.91c-21.74-15.8-65.29-40.58-115.55-40.58-155.54 0-282.34 214.75-282.34 471.15zm380.74 230.69l82.66-18.77v-70.05c82.01-406.97 211.08-560.46 267.86-560.46 36.28 0 46.54 68.79 28.99 170.28l-84.14 478.1 130.72-29.31-54.98-22.96 78.24-443.84c24.11-136-3.83-204.83-64.49-204.83-25.53 0-51.45 11.57-76.85 36.97-57.99 57.98-138.03 185.89-193.97 389.41l115.8-646.38-83.97 19.23-10.89 139.97zm934.19-610.01l38.67-78.6c-33.8-9.31-66.13-13.23-97.73-13.23-87.99 0-150.3 37.94-207.83 96.02-106.54 107.18-170.88 291.41-170.88 444.98 0 110.81 30.67 160.75 82.53 160.75 22.85 0 47.79-10.74 72.64-35.59 54.61-54.61 123.04-190.42 197.62-466.73l-92.95 501.51 131.74-28.59-54.98-23.86zm-319.29 557.26c-31.26 0-47.61-44.27-47.61-135.04 0-162.66 66.41-361.41 125.93-420.93 32.51-32.51 59.66-51.94 108.69-51.94 29.81 0 58.54 3.66 75.81 8.07-113.45 449.68-211.76 599.84-262.82 599.84zm0 0"/></svg>