<svg width="2654" height="1100.002" xmlns="http://www.w3.org/2000/svg"><path d="M87.24 107.002l53.27 652.28 11.18 221.01 145.55-24.33c25.23-101.49 46.23-165.83 91.3-263.39l89.11-219.6 36.7 507.32 146.86-24.99c28.47-107.51 47.1-164.22 87.51-262.73l230.06-585.57H796.72c2.63 277.09-37.38 505.09-103.64 682.02l-58.98-633.66 23.7-48.36H454.66c15.41 286.17-47.8 483.7-126.08 681.39l-43.4-626.46 31.03-54.93zm809.44 876.58l196.84-35.73v-125.45c51.49-290.53 138.17-422.54 181.39-422.54 37.97 0 43.71 91.96 22.76 208.72l-66.61 374.65 233.03-43.44-48.77-41.04 67.51-381.66c30.89-172.75-8.92-246.67-79.76-246.67-40.99 0-84.8 21.18-124.9 61.28-51.76 51.77-107.61 142.42-144.78 269.59l108.45-550.87-212.28 39.02-4.11 164.28zm631.74-.35l235.77-43.09-52.19-41.39 110.05-628.33-235.76 43.44 52.19 41.05zm230.97-749.72c73.09 0 125.02-37.47 125.02-89.83-.65-45.04-41.01-81.14-104.15-81.14-75.72 0-122.08 43.07-122.74 90.83-.66 42.73 38.07 80.14 101.87 80.14zm399.38-183.09l-199.47 39.7-3.77 163.6-128.11 726.57 232.35-43.44-48.77-41.05zm458.12 534.47c-11.98 251.84-130.79 398.69-281.71 398.69-103.22 0-195.1-79.88-195.1-248.53 0-139.9 53.08-280.62 142.66-370.2 60.62-60.62 131.16-94.43 210.93-94.43 97.17 0 157.8 48.24 157.8 133.61 0 66.15-35.76 122.31-67.03 153.58-79.7 79.71-192.66 117.2-304.06 136.2l16.44-87.14c24.71 25.04 46.11 46.11 72.08 46.11 26.44 0 45.87-6.08 61.14-21.35 31.43-31.42 47.4-126.31 47.4-213.03 0-76.37-20.42-122.85-49.64-122.85-56.27 0-118.92 178.59-118.92 339.58 0 145.29 60.35 204.78 122.01 204.78 72.31 0 146.41-64.18 178.74-255.02zm0 0"/></svg>