<svg width="2018" height="1100.002" xmlns="http://www.w3.org/2000/svg"><path d="M608.3 286.482l75.43-12.77c-23.75 305.33-64.06 549.88-160.1 645.93-16.72 16.71-56.6 52.28-98.77 52.28-66.77 0-110.04-75.78-110.04-195.52 0-60.6 10.35-112.58 21.08-173.2l22.87-.91c-22.98 137-46.38 262.32-101.69 317.63-27.7 27.69-60.23 52-102.32 52-75.46 0-118.64-70.92-118.64-171 0-163.45 82.69-307.13 161.72-411.91l-105.52-73.53 184-45.4c-100.29 183.54-172.18 335.29-172.18 510.57 0 80.98 28.69 147.29 79.82 147.29 42.34 0 99.83-74.39 134.8-269.84l66.94-371.53 68.46-12.77-64.91 369.52c-6.28 38.29-12.09 77.13-12.09 116.31 0 94.57 22.64 167.39 78.63 167.39 45.38 0 79.7-52.65 112.37-117.09zm87.52 685.44l82.66-18.77v-70.05c82.01-406.97 211.08-560.46 267.86-560.46 36.28 0 46.54 68.79 28.99 170.28l-84.14 478.1 130.72-29.31-54.98-22.96 78.24-443.84c24.11-136-3.83-204.83-64.49-204.83-25.53 0-51.45 11.57-76.85 36.97-57.99 57.98-138.03 185.89-193.97 389.41l115.8-646.38-83.97 19.23-10.89 139.97zm495.26-.9l137.98-28.41-64.06-23.86 113.45-648.67-137.99 29.31 64.06 22.95zm166.53-774.03c36.91 0 63.98-25.03 63.98-58.17-.1-26.96-21.24-48.36-51.6-48.36-37.28 0-64.42 26.68-64.51 59.17-.09 25.77 21.68 47.36 52.13 47.36zm265.37-146.91l-83.03 21.04-9.98 138.16-134.89 762.18 128.9-29.31-54.98-22.95zm351.13 563.28c-31.77 263.16-138.71 358.56-221.79 358.56-75.53 0-139.15-92.87-139.15-239.47 0-154.6 58.17-319.63 142.09-403.55 36.88-36.88 78.59-58.82 123.32-58.82 66.08 0 124.45 42.01 124.45 129.64 0 54.85-20.49 121.19-68.72 169.42-61.05 61.04-150.84 87.8-266.19 106.8l2.31-54.36c27.54 6.96 52.89 11.64 77.17 11.64 53.56 0 100.13-11.17 132.36-43.4 37.07-37.08 51.35-103.7 51.35-173.47 0-78.63-26.08-134.15-68.86-134.15-73.23 0-176.57 194.41-176.57 396.67 0 142.46 41.14 232.47 102.23 232.47 49.69 0 130.59-54.57 183.26-297.98zm0 0"/></svg>