<svg width="2391" height="1100.002" xmlns="http://www.w3.org/2000/svg"><path d="M93.85 105.002l33.45 686.76 7.03 185.31 97.37-15.29c22.54-87.54 43.54-152.13 81.52-237.95l137.04-343.59 46.48 596.83 98.19-15.7c23.09-94.3 40.74-152.24 74.31-237.54l231.52-618.83H762.24c-25.5 288.59-74.81 516.59-139.11 700.61l-58.24-660.57 15.63-40.04H436.57c-.74 227.72-78.37 448.48-173.29 700.96l-27.26-656.79 31.76-44.17zm728.32 874.13l147.44-28.39v-101.48c64.69-340.91 169.72-482.22 218.8-482.22 37.24 0 44.94 81.94 25.46 192.09l-74.2 419.41 188.76-37.32-51.45-33.22 72.15-408.57c27.96-156.84-6.72-228.56-73.15-228.56-34.3 0-70.37 17.02-104.11 50.76-54.46 54.46-120.77 161.23-166.07 321.44l111.63-592.2-156.76 30.46-7.04 153.76zm572.7-.59l193.46-36.74-57.33-33.8 111.52-637.13-193.45 37.33 57.32 33.21zm203.09-760.24c57.43 0 98.61-32.08 98.61-76.13-.42-37.21-32.46-66.95-81.42-66.95-59.08 0-97.13 35.98-97.54 77.13-.41 35.39 30.98 65.95 80.35 65.95zm341.5-167.43l-149.09 31.63-6.46 152.59-131.04 741.98 187.59-37.33-51.46-33.22zm411.5 546.93c-20.55 256.74-134.22 381.33-255.79 381.33-91.24 0-170.89-85.5-170.89-244.61 0-146.26 55.29-297.5 142.42-384.63 50.34-50.35 108.41-79.02 173.02-79.02 83.71 0 143.37 45.54 143.37 131.89 0 61.26-29.16 121.83-67.76 160.44-71.63 71.63-174.57 104.47-287.68 123.47l10.33-72.95c25.93 17.21 49.04 31.19 74.28 31.19 38.17 0 69.35-8.28 91.96-30.89 33.87-33.87 49.11-116.52 49.11-195.91 0-77.35-22.87-127.74-57.96-127.74-63.61 0-143.87 185.43-143.87 364.28 0 144.07 52.04 216.76 113.46 216.76 62.52 0 139.56-60.02 180.69-273.61zm0 0"/></svg>