<svg width="1587" height="1100.002" xmlns="http://www.w3.org/2000/svg"><path d="M12.98 281.002l140.13 582.04 22.37 97.96h24.07c12-39.03 25.1-88.97 37.93-138.74l92.38-370.49 93.23 406.74 22.35 102.49h30.91c9-43.57 19.91-90.03 30.74-136.16l128.57-543.84h-77.11c-11.82 188.73-32.17 393.57-68.11 576.27l-115.2-477.32-16.75-98.95h-40.02c-16.63 172.27-57.92 386.67-102.01 578.99l-109.18-467.42-9.95-111.57zm704.1 653.14v-790.89c0-36.59-4.74-50.7-58.62-65.9l125.17-27.27-2.46 402.77c43.65-107.09 107.85-182.31 176.25-182.31 56.86 0 101.88 50.01 101.88 188.38v420.59c0 53.27 14.63 66.01 58.61 81.49H938.42l55.88-26.86v-453.69c0-100.73-35.14-146.13-80.35-146.13-35.79 0-78.38 29.32-131.87 137.97v407.22c0 53.27 14.63 66.01 58.61 81.49H660.28zm448.07-283.16c0 203.84 81.36 320.94 179.2 320.94 108.02 0 205.39-146.55 205.39-381.83 0-202.64-82.46-320.01-179.47-320.01-107.93 0-205.12 146-205.12 380.9zm60.37-98.31c0-185.35 50.58-244.16 109.07-244.16 95.66 0 154.69 167.7 154.69 380.82 0 183.04-50.49 244.16-109.16 244.16-95.57 0-154.6-167.7-154.6-380.82zm0 0"/></svg>