<svg width="2637" height="1100.002" xmlns="http://www.w3.org/2000/svg"><path d="M654.48 295.612l128.98-22.39c-9 278.71-57.33 525.19-163.96 631.82-33.07 33.07-86.41 74.09-146.54 74.09-76.39 0-137.94-68.09-137.94-211.24 0-52.26 8.11-100.72 17.87-156.52l74.5-.59c-19.46 116.15-51.19 232.18-114.52 295.5-40.52 40.52-88.76 72.85-152.02 72.85-94.37 0-138.2-74.13-138.2-171 0-144.22 74.68-276.35 160.76-373.43l-100.39-89.24 222.15-74.59c-83.93 164.63-151.97 339.78-151.97 516.02 0 77.46 20.67 151.78 61.87 151.78 36.56 0 81.86-79.19 109.78-234.56l73.67-408.09 129.07-22.39L463 638.022c-7.24 42.78-12.41 84.5-12.41 124.33 0 100.02 24.89 172.19 77.34 172.19 29.35 0 54.37-34.04 75.5-75.71zm134.69 683.52l147.44-28.39v-101.48c64.69-340.91 169.72-482.22 218.8-482.22 37.24 0 44.94 81.94 25.46 192.09l-74.2 419.41 188.76-37.32-51.45-33.22 72.15-408.57c27.96-156.84-6.72-228.56-73.15-228.56-34.3 0-70.37 17.02-104.11 50.76-54.46 54.46-120.77 161.23-166.07 321.44l111.63-592.2-156.76 30.46-7.04 153.76zm590.94-240.43c0 154.63 72.05 240.43 178 240.43 166.57 0 311.26-198.2 311.26-465.76 0-162.48-73.29-242.5-176.76-242.5-166.57 0-312.5 199.43-312.5 467.83zm129.35 41.76c0-224.96 85.91-497.94 166.87-497.94 40.26 0 63.69 57.05 63.69 188.26 0 224.96-86.74 496.7-167.69 496.7-39.85 0-62.87-60.35-62.87-187.02zm676-729.59l-149.09 31.63-6.46 152.59-131.04 741.98 187.59-37.33-51.46-33.22zm411.5 546.93c-20.55 256.74-134.22 381.33-255.79 381.33-91.24 0-170.89-85.5-170.89-244.61 0-146.26 55.29-297.5 142.42-384.63 50.34-50.35 108.41-79.02 173.02-79.02 83.71 0 143.37 45.54 143.37 131.89 0 61.26-29.16 121.83-67.76 160.44-71.63 71.63-174.57 104.47-287.68 123.47l10.33-72.95c25.93 17.21 49.04 31.19 74.28 31.19 38.17 0 69.35-8.28 91.96-30.89 33.87-33.87 49.11-116.52 49.11-195.91 0-77.35-22.87-127.74-57.96-127.74-63.61 0-143.87 185.43-143.87 364.28 0 144.07 52.04 216.76 113.46 216.76 62.52 0 139.56-60.02 180.69-273.61zm0 0"/></svg>