<svg width="2914" height="1100.002" xmlns="http://www.w3.org/2000/svg"><path d="M689.7 301.522l169.82-29.73c2.25 258.42-52.19 506.37-166.89 621.07-45.54 45.54-109.16 90.72-182.99 90.72-83.73 0-159.21-62.22-159.21-223.23 0-45.9 6.4-91.67 15.42-143.8l113.88-.34c-16.77 100.25-54.87 209.18-124.31 278.62-50.3 50.31-110.52 88.75-189.93 88.75-108.79 0-153.11-76.58-153.11-171 0-129.55 68.56-252.87 160.03-344.09l-96.48-101.22 251.25-96.85c-71.46 150.2-136.57 343.21-136.57 520.18 0 74.77 14.56 155.21 48.18 155.21 32.16 0 68.17-82.86 90.7-207.66l78.81-435.97 175.29-29.73-64.34 360.48c-7.97 46.21-12.66 90.12-12.66 130.44 0 104.18 26.61 175.86 76.37 175.86 17.12 0 35.05-19.86 47.38-44.16zm170.98 682.06l196.84-35.73v-125.45c51.49-290.53 138.17-422.54 181.39-422.54 37.97 0 43.71 91.96 22.76 208.72l-66.61 374.65 233.03-43.44-48.77-41.04 67.51-381.66c30.89-172.75-8.92-246.67-79.76-246.67-40.99 0-84.8 21.18-124.9 61.28-51.76 51.77-107.61 142.42-144.78 269.59l108.45-550.87-212.28 39.02-4.11 164.28zm650.72-256.09c0 162.7 82.44 256.09 211.75 256.09 179.66 0 338.65-190.62 338.65-453.78 0-175.2-84.42-259.38-209.78-259.38-179.66 0-340.62 192.59-340.62 457.07zm173.37 74.78c0-216.65 80.53-519.22 153.17-519.22 30.15 0 50.49 42.86 50.49 170.66 0 216.64-81.85 517.24-154.49 517.24-29.49 0-49.17-48.12-49.17-168.68zm734-751.85l-199.47 39.7-3.77 163.6-128.11 726.57 232.35-43.44-48.77-41.05zm458.12 534.47c-11.98 251.84-130.79 398.69-281.71 398.69-103.22 0-195.1-79.88-195.1-248.53 0-139.9 53.08-280.62 142.66-370.2 60.62-60.62 131.16-94.43 210.93-94.43 97.17 0 157.8 48.24 157.8 133.61 0 66.15-35.76 122.31-67.03 153.58-79.7 79.71-192.66 117.2-304.06 136.2l16.44-87.14c24.71 25.04 46.11 46.11 72.08 46.11 26.44 0 45.87-6.08 61.14-21.35 31.43-31.42 47.4-126.31 47.4-213.03 0-76.37-20.42-122.85-49.64-122.85-56.27 0-118.92 178.59-118.92 339.58 0 145.29 60.35 204.78 122.01 204.78 72.31 0 146.41-64.18 178.74-255.02zm0 0"/></svg>