<svg width="1596.46" height="1100.002" xmlns="http://www.w3.org/2000/svg"><path d="M654.48 295.612l128.98-22.39c-9 278.71-57.33 525.19-163.96 631.82-33.07 33.07-86.41 74.09-146.54 74.09-76.39 0-137.94-68.09-137.94-211.24 0-52.26 8.11-100.72 17.87-156.52l74.5-.59c-19.46 116.15-51.19 232.18-114.52 295.5-40.52 40.52-88.76 72.85-152.02 72.85-94.37 0-138.2-74.13-138.2-171 0-144.22 74.68-276.35 160.76-373.43l-100.39-89.24 222.15-74.59c-83.93 164.63-151.97 339.78-151.97 516.02 0 77.46 20.67 151.78 61.87 151.78 36.56 0 81.86-79.19 109.78-234.56l73.67-408.09 129.07-22.39L463 638.022c-7.24 42.78-12.41 84.5-12.41 124.33 0 100.02 24.89 172.19 77.34 172.19 29.35 0 54.37-34.04 75.5-75.71zm139.39 682.93l193.46-36.74-57.33-33.8 111.52-637.13-193.45 37.33 57.32 33.21zm203.09-760.24c57.43 0 98.61-32.08 98.61-76.13-.42-37.21-32.46-66.95-81.42-66.95-59.08 0-97.13 35.98-97.54 77.13-.41 35.39 30.98 65.95 80.35 65.95zm341.5-167.43l-149.09 31.63-6.46 152.59-131.04 741.98 187.59-37.33-51.46-33.22zm258 0l-149.09 31.63-6.46 152.59-131.04 741.98 187.59-37.33-51.46-33.22zm0 0"/></svg>