<svg width="3173" height="1100.002" xmlns="http://www.w3.org/2000/svg"><path d="M627.87 290.652l98.12-16.85c-17.5 294.06-61.21 539.43-161.74 639.96-23.64 23.64-69.23 61.52-119.01 61.52-70.85 0-121.86-72.52-121.86-202.18 0-57.07 9.4-107.56 19.72-166.13l44.75-.77c-21.49 128.16-48.43 249.54-107.13 308.25-33.13 33.13-72.32 60.83-123.38 60.83-83.47 0-126.93-72.28-126.93-171 0-155.3 79.3-294.08 161.32-395.61l-103.35-80.18 200.16-57.77c-93.36 175.53-163.62 337.19-163.62 512.88 0 79.49 25.3 149.19 72.22 149.19 39.89 0 92.22-76.42 124.2-254.89l69.79-387.02 94.14-16.85-64.77 367.35c-6.68 40.2-12.23 80.25-12.23 119.71 0 96.88 23.6 169.42 78.09 169.42 38.59 0 68.97-44.76 96.75-99.55zm113.85 683.86l161.49-31.93-61.21-28.08 112.63-643.78-161.49 32.7 61.21 27.31zm182.02-768.18c45.61 0 78.65-28.03 78.65-65.79-.23-31.3-25.99-56.24-64.23-56.24-46.52 0-78.28 30.62-78.51 66.79-.23 29.84 25.62 55.24 64.09 55.24zm252.91 477.2c55.58 50.75 78.69 88.48 78.69 144.73 0 79.97-57.54 122.89-112.55 122.89-67.96 0-120.58-58.1-139.32-220.28h-3.83l-56.8 225.78c34.37 10.09 66.02 18.63 128.25 18.63 167.03 0 248.59-98.62 248.59-204.55 0-60.52-27.19-111.43-85.9-164.43l-62.82-52.55c-43.61-38.77-78.32-76.44-78.32-140.41 0-79.97 48.27-118.49 103.28-118.49 67.95 0 116.52 60.68 133.1 220.51h3.83l59.08-226.01c-34.36-10.09-61.39-18.63-123.61-18.63-167.04 0-239.34 95.85-239.34 198.38 0 73.97 33.05 113.97 88.44 164.11zm362.12 220.25c-30.17 0-44.8-44.68-44.8-130.69 0-154.91 60.06-347.61 116.95-404.5 28.84-28.84 53.28-45.96 96.46-45.96 29.54 0 57.63 7.94 73.77 15.87-100.11 415.15-194.4 565.28-242.38 565.28zm320.39-614.73c-22.79-4.37-45.13-6.05-66.69-6.05-95.1 0-170.56 37.83-233.14 101.78-105.86 107.46-166.21 279.89-166.21 426.94 0 110.54 33.11 163.33 89.18 163.33 25.57 0 53.36-11.82 80.93-39.39 52.57-52.57 118.69-178.51 188.25-433.21l-85.38 472.06 157.05-33.16-53.49-27.31 152.86-863.32-107.19 23.3c0 37.05-2.32 94.59-10.04 133.95l-20.22 108.19zm50.24 457.62c0 148.54 64.2 228.61 152.5 228.61 156.68 0 290.57-203.92 290.57-474.81 0-152.87-64.89-229.75-151.82-229.75-156.67 0-291.25 204.61-291.25 475.95zm96.09 16.82c0-231.24 89.98-481.86 177.22-481.86 47.9 0 73.67 67.76 73.67 201.57 0 231.23-90.43 481.17-177.67 481.17-47.67 0-73.22-69.59-73.22-200.88zm376.37 210.65l109.34-22.85v-84.17c78.69-384.79 182.89-525.36 232.01-525.36 36.68 0 43.8 74.59 25.66 179.52l-79.24 452.86 109.34-22.85v-85.37c78.46-383.74 182.43-524.62 231.55-524.62 36.69 0 45.35 74.36 27.21 179.53l-79.93 454.82 153.55-32.7-50.98-41.23 73.61-416.57c25.74-144.83-3.46-214.89-66.57-214.89-30.53 0-61.06 14.11-89.54 42.59-54.17 54.17-113.55 176.42-165.02 361.06l36.69-203.82c23.46-133.2-6.33-199.37-69.44-199.37-29.62 0-60.38 14.33-89.55 43.5-54.17 54.17-114.69 175.96-165.93 360.15l73.43-403.65-156.82 33.16 51.2 35.75zm0 0"/></svg>