<svg width="3770" height="1100.002" xmlns="http://www.w3.org/2000/svg"><path d="M6.77 287.002l153.12 563.96 24.63 116.04h122.43c12-51.47 25.65-113.28 43.57-180.01l64.12-245.01 76.27 307.26 18.4 117.76h134.34c9-53.18 19.34-102.47 35.26-161.59l138.18-518.41H665.95c19.82 156.52 40.17 366.43-7.64 541.23l-122.55-460.93 9.25-80.3H358.03c22.38 204.48 9.92 366.33-34.74 542.26l-110.32-457.83 8.7-84.43zm881.02 635.61v-527.36c0-52.41-9.26-73.3-50.13-95.85l226.39-28.98-7.26 185.93v413.89c0 56.95 12.37 74.21 50.14 96.76H837.66zm77.82-689.44c-70.06 0-112.1-36.47-112.1-83.49 0-47.7 40.72-86.79 108.81-86.79 68.75 0 114.73 39.09 114.73 86.79 0 47.02-44.67 83.49-111.44 83.49zm240.78 454.72l-60.54 250.79c35.52 19.58 106.62 44.9 199.95 44.9 157.95 0 241.36-96.57 241.71-209.43 0-71.87-27.74-116.63-62.19-151.08-65.25-65.25-193.56-107.6-251.87-166.56-19.61-19.61-44.35-47.75-44.35-80.39 0-38.49 32.3-61.1 67.49-61.1 64.31 0 154.71 70.18 226.53 250.43h7.26l61.3-250.48c-33.46-18.55-102.56-44.55-188.58-44.55-146.08 0-244.91 88.1-244.91 208.12 0 65.23 27.03 112.18 63.4 148.55 50.12 50.12 196.32 113.59 248.02 165.29 26.19 26.19 44.36 52.46 44.36 86.16 0 41.12-29.96 61.76-64.6 61.76-56.3 0-162.07-60.32-235.72-252.41zm680.96-368.26c31.39 0 68.39 49.25 102.71 124.91v364.33c-14.16 26.21-33.15 43.96-51.13 43.96-77.89 0-135.05-153.19-135.05-320.48 0-163.3 46.8-212.72 83.47-212.72zm271.71-51.66l7.92-217.55-227.06 32.26c41.54 21.9 50.48 42.79 50.48 93.89v172.27l110.12-41.23c-42.77-18.79-80.78-24.03-109.47-24.03-93.54 0-167.32 27.52-223.97 84.16-72.89 72.9-120.92 194.34-120.92 342.38 0 185.14 84.26 273.46 170.42 273.46 86.7 0 152.16-78.84 173.48-159.97l-7.58 159.97 226.72-32.26c-41.54-21.9-50.14-42.79-50.14-93.89zm92.79 382.8c0 208.91 114.14 332.81 253.8 332.81 150.98 0 287.36-149.95 287.36-386.92 0-206.61-122.04-326.24-255.78-326.24-150.32 0-285.38 146-285.38 380.35zm166.63-149.19c0-144.65 29.67-202.34 66.68-202.34 69.09 0 140.56 227.05 140.56 453.18 0 128.21-29.01 202.34-67.34 202.34-68.43 0-139.9-227.05-139.9-453.18zm466.63 421.03l-43.56 44.39h262.69c-37.76-24.52-50.13-41.78-50.13-96.76v-417.59c22.19-24.12 49.15-40.5 75.18-40.5 56.92 0 81.4 59.46 81.4 167.71v342.75l-43.56 44.39h262.7c-37.77-24.52-50.14-41.78-50.14-96.76v-417.59c23.88-25.49 49.8-40.5 74.5-40.5 54.86 0 82.74 59.46 82.74 168.05v342.41l-43.56 44.39h262.7c-37.77-24.52-50.14-41.78-50.14-96.76v-403.77c0-141.15-56.84-196.05-136.94-196.05-85.07 0-151.25 68.21-189.98 167.54-2.74-131.64-63.61-167.54-126.73-167.54-82.76 0-156.23 76.81-198.17 166.86l7.26-166.86-226.4 35.55c40.88 18.61 50.14 39.5 50.14 93.88zm0 0"/></svg>