<svg width="3420" height="1100.002" xmlns="http://www.w3.org/2000/svg"><path d="M9.46 285.002l147.5 571.78 23.65 108.22h79.87c12-46.09 25.41-102.76 41.13-162.15l76.35-299.31 83.61 350.31 20.1 111.15h89.59c9-49.02 19.59-97.09 33.31-150.59l134.02-529.41H619.48c6.13 170.46 8.87 378.17-33.81 556.39L466.3 373.372l-2-88.37H340.91c5.5 190.54-19.43 375.13-63.84 558.15l-109.83-461.98.63-96.17zm806.76 643.2v-546.2c0-45.57-7.31-63.52-53.81-82.89l183.11-28.24-5.3 165.87v438.11c0 55.48 13.35 70.78 53.8 90.15H762.41zm54.82-710.48c-53.67 0-87.89-31.09-87.89-69.55 0-39.63 33.39-72.37 85.83-72.37 52.85 0 89.54 32.74 89.54 72.37 0 38.46-35.87 69.55-87.48 69.55zm213.76 465.24l-48.06 254.21c31.61 17.13 96.35 41.96 180.63 41.96 138.63 0 215.2-84.83 215.78-194.02 0-68.2-29.69-115.65-67.32-153.28-54-54-154.68-96.59-203.2-145.53-27.2-27.19-53.89-59-53.89-99.95 0-51.7 40.37-81.89 80.69-81.89 63.83 0 138.09 66.02 186.92 262.17h5.3l51.52-254.39c-28.08-15.37-90.82-41.37-168.28-41.37-130.43 0-215.56 81.74-215.56 193.2 0 62.54 27.76 108.02 65.1 145.36 44.5 44.5 160.14 102.59 203.77 146.22 31.32 31.33 53.89 64.94 53.89 108.42 0 53.34-37.79 82.3-80.74 82.3-64.37 0-154.98-59.83-201.24-263.41zm633.94-366.31c33.11 0 70.11 38 103.93 95.57v400.28c-18.56 40.63-46.1 69.63-72.65 69.63-74.95 0-136.52-147.17-136.52-324.39 0-189.22 59.52-241.09 105.24-241.09zm227.93-78.56l5.72-187.22-183.52 30.3c46.91 18.96 54.39 36.92 54.39 81.66v179.6l77.35-29.23c-42.11-26.31-74.91-34.07-104.09-34.07-71.78 0-131.13 23.61-178.24 70.72-69.95 69.95-118.71 194.34-118.71 352.65 0 188.8 82.3 276.63 163.56 276.63 78.63 0 138.72-74.43 159.54-149.93l-5.13 149.93 182.94-30.3c-46.91-18.96-53.81-36.92-53.81-81.66zm99.07 413.37c0 206.71 99.96 327.67 221.52 327.67 132.39 0 251.89-148.48 251.89-384.72 0-204.89-104.91-323.54-222.76-323.54-131.98 0-250.65 146-250.65 380.59zm120.65-127.18c0-162.26 38.72-220.43 85.02-220.43 80.59 0 146.68 201.37 146.68 421.87 0 151.93-38.31 220.43-85.44 220.43-80.17 0-146.26-201.37-146.26-421.87zm452.65 403.92l-49.67 36.8h227.48c-40.46-20.61-53.81-35.91-53.81-90.15v-433.74c27.33-36.35 62.11-63 98.18-63 54.71 0 83.11 54.09 83.11 168.93v381.16l-49.68 36.8h227.48c-40.46-20.61-53.8-35.91-53.8-90.15v-433.74c29.5-38.7 62.52-63 97-63 51.19 0 84.69 54.09 84.69 169.52v380.57l-49.67 36.8h227.48c-40.46-20.61-53.81-35.91-53.81-90.15v-415.76c0-136.26-52.43-188.22-126.17-188.22-77.98 0-140 64.78-180.7 155.06-4.69-122.1-61.89-155.06-119.39-155.06-76.15 0-144.24 71.67-184.72 153.89l5.31-153.89-183.11 32.37c46.5 16.89 53.8 34.85 53.8 81.65zm0 0"/></svg>