<svg width="2122" height="1100.002" xmlns="http://www.w3.org/2000/svg"><path d="M6.77 287.002l153.12 563.96 24.63 116.04h122.43c12-51.47 25.65-113.28 43.57-180.01l64.12-245.01 76.27 307.26 18.4 117.76h134.34c9-53.18 19.34-102.47 35.26-161.59l138.18-518.41H665.95c19.82 156.52 40.17 366.43-7.64 541.23l-122.55-460.93 9.25-80.3H358.03c22.38 204.48 9.92 366.33-34.74 542.26l-110.32-457.83 8.7-84.43zm881.02 635.61v-527.36c0-52.41-9.26-73.3-50.13-95.85l226.39-28.98-7.26 185.93v413.89c0 56.95 12.37 74.21 50.14 96.76H837.66zm77.82-689.44c-70.06 0-112.1-36.47-112.1-83.49 0-47.7 40.72-86.79 108.81-86.79 68.75 0 114.73 39.09 114.73 86.79 0 47.02-44.67 83.49-111.44 83.49zm387.53 107.5v312.02c0 116.86 23.34 171.46 78.93 171.46 18.74 0 36.74-19.78 56.03-77.08-36.17 145.54-107 236.51-180.51 236.51-74.33 0-123.45-57.58-123.45-221.49v-349.4c0-77.33-13.03-96.57-50.14-125.69h50.45l154.37-201.68 14.32 201.68h141.33v7.26zm212.28 581.94v-747.36c0-52.41-9.26-73.3-50.13-95.85l224.08-28.98-5.29 419.73c47.6-107.66 119.15-196.44 202.25-196.44 74.39 0 125.62 56.24 125.62 196.87v399.66c0 54.98 12.37 72.24 50.14 96.76h-262.01l42.87-44.39v-335.56c0-99.02-17.61-159.12-76.4-159.12-22.21 0-50.12 12.93-82.13 58.28v384.03c0 54.98 12.37 72.24 50.14 96.76h-268.59zm0 0"/></svg>