<svg width="3430.13" height="1100.002" xmlns="http://www.w3.org/2000/svg"><path d="M654.48 295.612l128.98-22.39c-9 278.71-57.33 525.19-163.96 631.82-33.07 33.07-86.41 74.09-146.54 74.09-76.39 0-137.94-68.09-137.94-211.24 0-52.26 8.11-100.72 17.87-156.52l74.5-.59c-19.46 116.15-51.19 232.18-114.52 295.5-40.52 40.52-88.76 72.85-152.02 72.85-94.37 0-138.2-74.13-138.2-171 0-144.22 74.68-276.35 160.76-373.43l-100.39-89.24 222.15-74.59c-83.93 164.63-151.97 339.78-151.97 516.02 0 77.46 20.67 151.78 61.87 151.78 36.56 0 81.86-79.19 109.78-234.56l73.67-408.09 129.07-22.39L463 638.022c-7.24 42.78-12.41 84.5-12.41 124.33 0 100.02 24.89 172.19 77.34 172.19 29.35 0 54.37-34.04 75.5-75.71zm139.39 682.93l193.46-36.74-57.33-33.8 111.52-637.13-193.45 37.33 57.32 33.21zm203.09-760.24c57.43 0 98.61-32.08 98.61-76.13-.42-37.21-32.46-66.95-81.42-66.95-59.08 0-97.13 35.98-97.54 77.13-.41 35.39 30.98 65.95 80.35 65.95zm302.58 66.7h121.59v5.3l-130.85 45.44-62.89 359.83c-20.82 118.95-12.32 184.45 18.46 184.45 25.69 0 55.74-30.85 92.85-160.22h5.3c-33.41 183.53-103.13 259.33-174.09 259.33-63.48 0-106.32-61.15-76.84-231.5l48.97-280.24c18-102.59 15.59-136.5-.37-177.98l168.44-185.67zm82.63 694.13l147.44-28.39v-101.48c64.69-340.91 169.72-482.22 218.8-482.22 37.24 0 44.94 81.94 25.46 192.09l-74.2 419.41 188.76-37.32-51.45-33.22 72.15-408.57c27.96-156.84-6.72-228.56-73.15-228.56-34.3 0-70.37 17.02-104.11 50.76-54.46 54.46-120.77 161.23-166.07 321.44l111.63-592.2-156.76 30.46-7.04 153.76zm590.94-240.43c0 154.63 72.05 240.43 178 240.43 166.57 0 311.26-198.2 311.26-465.76 0-162.48-73.29-242.5-176.76-242.5-166.57 0-312.5 199.43-312.5 467.83zm129.35 41.76c0-224.96 85.91-497.94 166.87-497.94 40.26 0 63.69 57.05 63.69 188.26 0 224.96-86.74 496.7-167.69 496.7-39.85 0-62.87-60.35-62.87-187.02zm634.3-508.59L2548 309.202l51.46 33.21-71.74 408.16c-28.37 156.84 6.3 228.56 72.74 228.56 33.74 0 69.54-17.43 102.45-50.35 54.46-54.45 121.52-161.61 166.89-322.26l-65.78 372.61 189.35-37.33-51.46-33.21 112.35-637.72-147.02 28.39v97.87c-72.72 355.67-169.72 485.83-219.22 485.83-37.24 0-44.93-81.94-25.45-192.09zm571.78 13.13h121.59v5.3l-130.85 45.44-62.89 359.83c-20.82 118.95-12.32 184.45 18.46 184.45 25.69 0 55.74-30.85 92.85-160.22h5.3c-33.41 183.53-103.13 259.33-174.09 259.33-63.48 0-106.32-61.15-76.84-231.5l48.97-280.24c18-102.59 15.59-136.5-.37-177.98l168.44-185.67zm0 0"/></svg>