<svg width="1789" height="1100.002" xmlns="http://www.w3.org/2000/svg"><path d="M627.87 290.652l98.12-16.85c-17.5 294.06-61.21 539.43-161.74 639.96-23.64 23.64-69.23 61.52-119.01 61.52-70.85 0-121.86-72.52-121.86-202.18 0-57.07 9.4-107.56 19.72-166.13l44.75-.77c-21.49 128.16-48.43 249.54-107.13 308.25-33.13 33.13-72.32 60.83-123.38 60.83-83.47 0-126.93-72.28-126.93-171 0-155.3 79.3-294.08 161.32-395.61l-103.35-80.18 200.16-57.77c-93.36 175.53-163.62 337.19-163.62 512.88 0 79.49 25.3 149.19 72.22 149.19 39.89 0 92.22-76.42 124.2-254.89l69.79-387.02 94.14-16.85-64.77 367.35c-6.68 40.2-12.23 80.25-12.23 119.71 0 96.88 23.6 169.42 78.09 169.42 38.59 0 68.97-44.76 96.75-99.55zm113.85 683.86l161.49-31.93-61.21-28.08 112.63-643.78-161.49 32.7 61.21 27.31zm182.02-768.18c45.61 0 78.65-28.03 78.65-65.79-.23-31.3-25.99-56.24-64.23-56.24-46.52 0-78.28 30.62-78.51 66.79-.23 29.84 25.62 55.24 64.09 55.24zm254.77 76.67h121.77v3.83l-127.33 42.1-70.1 401.96c-20.46 116.74-7.71 169.49 20.49 169.49 27.17 0 59.43-35.84 97.83-179.8h3.83c-33.23 184.63-92.78 254.7-153.02 254.7-53.87 0-93.21-56.16-64.84-218.75l52.12-296.68c18-102.77 15.77-132.25 2.03-172.62l131.11-181.8zm89.03 692.28l110.11-22.85v-83.36c74.68-378.98 193.56-527.31 247.08-527.31 36.68 0 45.86 74.36 27.49 179.52l-79.93 453.23 155.32-32.71-53.49-27.3 75.66-428.89c25.74-144.84-5.05-214.89-68.16-214.89-29.24 0-59.47 13.88-88.4 42.81-56.49 56.49-130.72 175.44-182.14 360.61l114.03-623.42-114.82 23.99-9.26 145.81zm0 0"/></svg>