<svg width="2469" height="1100.002" xmlns="http://www.w3.org/2000/svg"><path d="M741 310.002l227-40c18 230-45 480-171 606-63 63-141 114-234 114-94 0-189-54-189-240 0-37 4-79 12-126h169c-13 78-60 177-138 255-64 64-141 111-243 111-129 0-174-80-174-171 0-109 60-220 159-303l-91-118 292-128c-54 130-115 348-115 526 0 71 6 160 29 160 26 0 49-88 64-170l86-475 240-40-64 355c-9 51-13 98-13 139 0 110 29 181 75 181h8zm222 680l295-52-45-52 108-616-295 52 45 52zm269-735c95 0 162-45 162-109-1-56-53-101-136-101-99 0-157 53-158 110-1 53 48 100 132 100zm456 35h121v10l-142 56-40 226c-22 126-27 232 12 232 21 0 44-15 77-98h10c-34 180-136 274-241 274-94 0-148-77-115-272l39-228c18-102 15-150-8-195l287-198zm66 700l266-46v-159c33-220 94-339 129-339 39 0 42 106 19 232l-56 312 295-52-45-52 61-344c35-195-12-272-89-272-50.36 0-105 27-154 76-48 48-89.18 116.08-115 197l104-493-290 51v179zm0 0"/></svg>