<svg width="3043" height="1100.002" xmlns="http://www.w3.org/2000/svg"><path d="M11.49 283.002l143.25 577.7 22.91 102.3h47.72c12-42.02 25.23-94.82 39.28-148.66l85.59-340.33 89.15 382.83 21.4 106.16h55.78c9-45.88 19.77-93.02 31.82-142.27l130.88-537.73h-94.9c-4.22 180.99-14.78 387.04-53.58 567.85l-116.96-473.38-10.5-94.47h-75.35c-7.25 180.01-41.61 381.78-85.84 570.16l-109.46-465.12-5.46-105.04zm749.31 648.92v-560.42c0-40.39-5.82-56.13-56.57-73.1l150.4-27.68-3.83 150.71v456.41c0 54.37 14.09 68.19 56.58 85.16H704.23zm37.46-726.37c-41.29 0-69.6-27.02-69.6-59.01 0-33.53 27.85-61.46 68.46-61.46 40.84 0 70.51 27.93 70.51 61.46 0 31.99-29.22 59.01-69.37 59.01zm281.32 115.67v375.99c0 141.76 23.77 193.36 60.04 193.36 22.17 0 40.17-40.82 57.31-159.95-12.55 171.3-59.33 244.66-109.66 244.66-58.44 0-97.69-53.28-97.69-244.67v-352.4c0-61.45-14.32-75.96-56.58-95.21h56.03l77.09-202.54 13.46 202.54h125.44v3.83zm209.14 610.7v-780.42c0-40.39-5.83-56.13-56.58-73.1l148.95-27.68-3.14 406.85c44.59-107.23 110.56-185.71 182.5-185.71 61.07 0 107.58 51.51 107.58 190.42v415.56c0 53.68 14.09 67.51 56.58 85.16h-199.33l52.75-31.08v-425.29c0-100.31-30.92-149.25-79.4-149.25-32.52 0-71.59 25.38-119.91 118.82v401.64c0 53.68 14.08 67.51 56.57 85.16h-201.61zm480.71-280.43c0 205.05 89.24 323.79 197.14 323.79 118.34 0 225.09-147.37 225.09-383.05 0-203.6-91.98-321.51-197.81-321.51-118.12 0-224.42 146-224.42 380.77zm85.92-110.54c0-175.57 45.55-234.11 98.88-234.11 89.27 0 151.29 181.96 151.29 398.21 0 169.86-45.32 234.11-99.11 234.11-89.04 0-151.06-181.96-151.06-398.21zm528.23-117.34v294.15c0 120.38 34.78 170.86 84.8 170.86 33.29 0 66.19-25.38 114.51-118.82v-396.7c0-41.08-5.82-56.82-56.57-72.42l150.4-29.96-3.83 152.89v452.72c0 39.7 5.6 54.3 56.58 71.27l-151.09 27.68 4.51-189.93c-44.6 110.31-110.56 188.79-182.5 188.79-60.3 0-106.81-49.97-106.81-181.16v-419.88c0-41.08-5.83-56.82-56.58-72.42l150.4-29.96zm518-102.39v375.99c0 141.76 23.77 193.36 60.04 193.36 22.17 0 40.17-40.82 57.31-159.95-12.55 171.3-59.33 244.66-109.66 244.66-58.44 0-97.69-53.28-97.69-244.67v-352.4c0-61.45-14.32-75.96-56.58-95.21h56.03l77.09-202.54 13.46 202.54h125.44v3.83zm0 0"/></svg>