<svg width="2521.93" height="1100.002" xmlns="http://www.w3.org/2000/svg"><path d="M627.87 290.652l98.12-16.85c-17.5 294.06-61.21 539.43-161.74 639.96-23.64 23.64-69.23 61.52-119.01 61.52-70.85 0-121.86-72.52-121.86-202.18 0-57.07 9.4-107.56 19.72-166.13l44.75-.77c-21.49 128.16-48.43 249.54-107.13 308.25-33.13 33.13-72.32 60.83-123.38 60.83-83.47 0-126.93-72.28-126.93-171 0-155.3 79.3-294.08 161.32-395.61l-103.35-80.18 200.16-57.77c-93.36 175.53-163.62 337.19-163.62 512.88 0 79.49 25.3 149.19 72.22 149.19 39.89 0 92.22-76.42 124.2-254.89l69.79-387.02 94.14-16.85-64.77 367.35c-6.68 40.2-12.23 80.25-12.23 119.71 0 96.88 23.6 169.42 78.09 169.42 38.59 0 68.97-44.76 96.75-99.55zm131.53 456.02c0 148.54 64.2 228.61 152.5 228.61 156.68 0 290.57-203.92 290.57-474.81 0-152.87-64.89-229.75-151.82-229.75-156.67 0-291.25 204.61-291.25 475.95zm96.09 16.82c0-231.24 89.98-481.86 177.22-481.86 47.9 0 73.67 67.76 73.67 201.57 0 231.23-90.43 481.17-177.67 481.17-47.67 0-73.22-69.59-73.22-200.88zm371.6 212.93l113.08-645.69-55.03-27.31 155.32-32.7-57.83 315.92c69.83-280.69 148.82-315.92 199.55-315.92 14.67 0 35.56 7 50.99 17.8l-85.75 314.39h-3.82c20.95-194.34-4.08-240.19-30.94-240.19-32.66 0-100.32 59.28-177.15 496.68v94.18zm517.68-72.64c-30.17 0-44.8-44.68-44.8-130.69 0-154.91 60.06-347.61 116.95-404.5 28.84-28.84 53.28-45.96 96.46-45.96 29.54 0 57.63 7.94 73.77 15.87-100.11 415.15-194.4 565.28-242.38 565.28zm320.39-614.73c-22.79-4.37-45.13-6.05-66.69-6.05-95.1 0-170.56 37.83-233.14 101.78-105.86 107.46-166.21 279.89-166.21 426.94 0 110.54 33.11 163.33 89.18 163.33 25.57 0 53.36-11.82 80.93-39.39 52.57-52.57 118.69-178.51 188.25-433.21l-85.38 472.06 157.05-33.16-53.49-27.31 152.86-863.32-107.19 23.3c0 37.05-2.32 94.59-10.04 133.95l-20.22 108.19zm241.49 394.48c55.58 50.75 78.69 88.48 78.69 144.73 0 79.97-57.54 122.89-112.55 122.89-67.96 0-120.58-58.1-139.32-220.28h-3.83l-56.8 225.78c34.37 10.09 66.02 18.63 128.25 18.63 167.03 0 248.59-98.62 248.59-204.55 0-60.52-27.19-111.43-85.9-164.43l-62.82-52.55c-43.61-38.77-78.32-76.44-78.32-140.41 0-79.97 48.27-118.49 103.28-118.49 67.95 0 116.52 60.68 133.1 220.51h3.83l59.08-226.01c-34.36-10.09-61.39-18.63-123.61-18.63-167.04 0-239.34 95.85-239.34 198.38 0 73.97 33.05 113.97 88.44 164.11zm0 0"/></svg>