<svg width="3474" height="1100.002" xmlns="http://www.w3.org/2000/svg"><path d="M167.53 970.722h60.59c12.17-70.87 27.86-139.09 46.2-210.64l104.4-426.54 125.53 519.43 26.12 117.75h64.01c8.14-74.57 22.09-155.07 31.05-204.65l116.25-663.07H640.62c-1.97 315.84-14.29 565.47-40.44 735.7l-159.22-651.81-12.36-91.61h-78.08c-19.3 353.98-49.1 489.57-107.88 741.82l-103.07-602.36-6.1-131.74H16.12l134.55 756.14zm624.9-319.23c0 205.05 89.24 323.79 197.14 323.79 118.34 0 225.09-147.37 225.09-383.05 0-203.6-91.98-321.51-197.81-321.51-118.12 0-224.42 146-224.42 380.77zm85.92-110.54c0-175.57 45.55-234.11 98.88-234.11 89.27 0 151.29 181.96 151.29 398.21 0 169.86-45.32 234.11-99.11 234.11-89.04 0-151.06-181.96-151.06-398.21zm438.68 390.97v-558.82c0-41.08-5.82-56.82-56.57-72.42l150.4-29.96-4.46 250.41c16.2-153.76 72.68-248.81 136.07-248.81 16 0 38.71 6.08 59.35 26.2l-37.61 310.33h-3.83c-11.56-178.72-41.56-241.34-71.02-241.34-34.63 0-82.33 81.12-82.33 301.42v208.91c0 52.08 14.09 65.91 56.58 85.16h-203.15zm529.4-618.01c34.41 0 71.41 29.5 104.86 73.39v427.45c-21.89 51.53-55.9 89.03-88.91 89.03-72.74 0-137.63-142.62-137.63-327.35 0-208.8 69.13-262.52 121.68-262.52zm194.86-98.89l4.06-164.3-150.63 28.82c50.98 16.74 57.35 32.48 57.35 72.42v185.15l52.58-20.19c-41.61-31.98-70.48-41.64-100.02-41.64-55.35 0-103.78 20.65-143.68 60.56-67.74 67.74-117.06 194.35-117.06 360.41 0 191.58 80.83 279.03 158.39 279.03 72.54 0 128.56-71.11 149.01-142.36l-3.28 142.36 149.86-28.82c-50.98-16.74-56.58-32.48-56.58-72.42zm617.45-112.02l-13.19 591.52c-1.59 41.02-2.28 87.31-2.28 120.87 0 60.63 6.02 111.36 16.15 155.33h-93.29l-33.96-83.12-333.15-670.81c.77 243.89 51.98 617.29 79.11 746.21h-104.4l13.18-589.24c1.6-41.48 2.51-87.99 2.51-121.78 0-60.86-5.33-109.76-16.38-156.7h82.79l20.83 56.88 355.47 707.08c-.77-246.04-56.54-627.32-82.99-756.24zm93.84 549c0 207.12 81.01 323.28 184.35 323.28 97.18 0 175.57-100.53 183.33-327.13l-3.37-.45c-27.07 210.4-88.34 247.48-134.73 247.48-82.95 0-150.78-120.48-150.78-367.6 0-165.71 50.64-220.06 94.85-220.06 68.95 0 116.55 122.16 116.55 280.65l24.51-20.02-256.24 26.13v9.55l318.65 26.92c3.37-23.3 4.82-40.18 4.82-61.21 0-196.97-70.27-299.28-164.53-299.28-114.49 0-217.41 150.71-217.41 381.74zm580-330.78v375.99c0 141.76 23.77 193.36 60.04 193.36 22.17 0 40.17-40.82 57.31-159.95-12.55 171.3-59.33 244.66-109.66 244.66-58.44 0-97.69-53.28-97.69-244.67v-352.4c0-61.45-14.32-75.96-56.58-95.21h56.03l77.09-202.54 13.46 202.54h125.44v3.83zm0 0"/></svg>