<svg width="3565" height="1100.002" xmlns="http://www.w3.org/2000/svg"><path d="M9.46 285.002l147.5 571.78 23.65 108.22h79.87c12-46.09 25.41-102.76 41.13-162.15l76.35-299.31 83.61 350.31 20.1 111.15h89.59c9-49.02 19.59-97.09 33.31-150.59l134.02-529.41H619.48c6.13 170.46 8.87 378.17-33.81 556.39L466.3 373.372l-2-88.37H340.91c5.5 190.54-19.43 375.13-63.84 558.15l-109.83-461.98.63-96.17zm770.28 366.46c0 206.71 99.96 327.67 221.52 327.67 132.39 0 251.89-148.48 251.89-384.72 0-204.89-104.91-323.54-222.76-323.54-131.98 0-250.65 146-250.65 380.59zm120.65-127.18c0-162.26 38.72-220.43 85.02-220.43 80.59 0 146.68 201.37 146.68 421.87 0 151.93-38.31 220.43-85.44 220.43-80.17 0-146.26-201.37-146.26-421.87zm448.24 403.92v-543.31c0-46.8-7.3-64.76-53.8-81.65l183.1-32.37-4.82 259.65c18.78-160.04 79.69-256.76 148.26-256.76 16 0 36.87 5.35 56.39 22.33l-49.43 354.3h-5.31c-15.26-176.87-45.26-244.85-75.09-244.85-33.52 0-75.3 77.98-75.3 270.2v199.11c0 51.35 13.35 66.65 53.8 90.15h-231.6zm398.24 0l-53.8 36.8h231.6c-40.45-19.37-53.8-34.67-53.8-90.15v-655.76l6.13-168.22-183.93 28.24c46.5 19.37 53.8 37.32 53.8 82.89zm306.26-15.27l.83 52.07h170.47L2055 674.982c-34.67-65.61-67.22-107.35-124.93-120.87 119.39-67.68 208.23-161.37 274.43-269.11h-166.59c-12.08 36.78-28.11 76.91-41.02 112.8-32.28 91.27-62.19 143.53-121.78 196.31zm223.09 15.27v-546.2c0-45.57-7.31-63.52-53.81-82.89l183.11-28.24-5.3 165.87v438.11c0 55.48 13.35 70.78 53.8 90.15h-231.61zm54.82-710.48c-53.67 0-87.89-31.09-87.89-69.55 0-39.63 33.39-72.37 85.83-72.37 52.85 0 89.54 32.74 89.54 72.37 0 38.46-35.87 69.55-87.48 69.55zm203 710.48l-53.8 36.8h231.61c-40.46-23.5-53.81-38.8-53.81-90.15v-402.33c40.48-73.56 69.63-94.41 98.31-94.41 51.19 0 83.45 54.5 83.45 169.52v380.57l-49.67 36.8h227.48c-40.46-23.5-53.81-38.8-53.81-90.15v-417.83c0-133.78-48.54-186.15-114.76-186.15-76.74 0-145.11 80.85-191 183.54l5.31-183.54-183.11 32.37c46.5 16.89 53.8 34.85 53.8 81.65zm538.98-340.33c0 150.93 84.48 259.17 198.28 259.17 144.87 0 245.13-174.07 245.13-329.78 0-54.2-22.22-112.85-43.76-149.69l78.22-41.94c-70.87-34.98-150.43-54.76-221.91-54.76-148.26 0-255.96 143.33-255.96 317zm112.28-75.5c0-131.89 37.99-210.59 94.44-210.59 67.65 0 126.48 145.65 126.48 286.5 0 137.35-37.36 227.85-97.96 227.85-72.13 0-122.96-154.93-122.96-303.76zm317.31 552.63l8.26-114.02h-355.41l-10.05-179.98-83.67 294zm0 0"/></svg>