<svg width="4149" height="1100.002" xmlns="http://www.w3.org/2000/svg"><path d="M3 290.002l161 553 26 127h182c12-59 26-128 47-205l47-169 66 247 16 127h197c9-59 19-110 38-177l144-503H731c39 137 84 350 29 520l-127-451 25-69H382c46 224 51 354 6 520l-111-452 20-68zm947 360c0 212 134 340 299 340 177 0 337-152 337-390 0-209-146-330-302-330-176 0-334 146-334 380zm231-180c0-120 17-177 41-177 53 0 132 263 132 497 0 95-16 177-42 177-52 0-131-263-131-497zm482 445v-494c0-65-12-90-45-111l287-40-6 289c27-180 102-282 187-282 16 0 31 3 47 10l-87 494h-10c-27-171-57-256-88-256-30 0-53 68-53 171v168c0 49 11 69 45 106h-322zm519 0l-45 55h322c-34-27-45-47-45-106v-600l12-214-289 30c33 27 45 52 45 114zm372 0l-25 55h309l-126-273c-47-102-86-159-203-169 164-26 264-115 312-238h-301c2 18 3 37 3 77 0 103-17 167-103 228zm292-256c0 194 125 331 287 331s262-126 296-287l-8-2c-51 63-103 97-171 97-120 0-194-112-194-346 0-114 19-156 47-156 35 0 88 143 88 293l33-37-159 57v8l358 74c8-48 11-78 11-116 0-180-105-307-261-307-177 0-327 170-327 391zm905-335c29 0 66 65 101 166v314c-8 6-15 8-21 8-82 0-133-161.62-133-315 0-127 29-173 53-173zm333-14l11-260-288 35c34 26 45 51 45 111v162l156-58c-43.7-8.27-89-10-117-10-124 0-218 33-288 103-77 77-124 194.32-124 328 0 180 87 269 180 269 98 0 171-85 193-174l-11 174 288-35c-34-26-45-51-45-111zm0 0"/></svg>