<svg width="3260" height="1100.002" xmlns="http://www.w3.org/2000/svg"><path d="M11.49 283.002l143.25 577.7 22.91 102.3h47.72c12-42.02 25.23-94.82 39.28-148.66l85.59-340.33 89.15 382.83 21.4 106.16h55.78c9-45.88 19.77-93.02 31.82-142.27l130.88-537.73h-94.9c-4.22 180.99-14.78 387.04-53.58 567.85l-116.96-473.38-10.5-94.47h-75.35c-7.25 180.01-41.61 381.78-85.84 570.16l-109.46-465.12-5.46-105.04zm713.94 368.49c0 205.05 89.24 323.79 197.14 323.79 118.34 0 225.09-147.37 225.09-383.05 0-203.6-91.98-321.51-197.81-321.51-118.12 0-224.42 146-224.42 380.77zm85.92-110.54c0-175.57 45.55-234.11 98.88-234.11 89.27 0 151.29 181.96 151.29 398.21 0 169.86-45.32 234.11-99.11 234.11-89.04 0-151.06-181.96-151.06-398.21zm438.68 390.97v-558.82c0-41.08-5.82-56.82-56.57-72.42l150.4-29.96-4.46 250.41c16.2-153.76 72.68-248.81 136.07-248.81 16 0 38.71 6.08 59.35 26.2l-37.61 310.33h-3.83c-11.56-178.72-41.56-241.34-71.02-241.34-34.63 0-82.33 81.12-82.33 301.42v208.91c0 52.08 14.09 65.91 56.58 85.16h-203.15zm360.69 0l-56.58 31.08h203.15c-42.49-16.97-56.57-30.79-56.57-85.16v-673.32l4.28-153.8-150.86 27.68c50.75 16.97 56.58 32.71 56.58 73.1zm285.56-20.06l8.96 51.14h126.87L1849 667.622c-30.79-54.15-61.3-91.09-100.36-105.72 105.35-80.79 190.69-175.97 262.61-278.9h-124.27c-16.52 42.7-37.9 89.48-54.88 124.08-42.45 87.56-76.43 136.13-127.7 186.32zm189.52 20.06v-560.42c0-40.39-5.82-56.13-56.57-73.1l150.4-27.68-3.83 150.71v456.41c0 54.37 14.09 68.19 56.58 85.16h-203.15zm37.46-726.37c-41.29 0-69.6-27.02-69.6-59.01 0-33.53 27.85-61.46 68.46-61.46 40.84 0 70.51 27.93 70.51 61.46 0 31.99-29.22 59.01-69.37 59.01zm191 726.37l-56.58 31.08h203.16c-42.49-19.25-56.58-33.08-56.58-85.16v-406.21c47.87-93.89 80.53-119.73 113.83-119.73 48.42 0 85.49 50.25 85.49 170.63v409.39l-54.3 31.08h200.87c-42.49-19.25-56.57-33.08-56.57-85.16v-425.96c0-131.2-46.51-181.16-106.82-181.16-71.93 0-137.9 77.33-182.5 181.51l3.83-181.51-150.41 29.96c50.75 15.6 56.58 31.34 56.58 72.42zm495.12-335.7c0 151.86 74.87 259.54 174.45 259.54 129.71 0 226.28-178.96 226.28-335.69 0-61.72-27.49-130.82-52.82-168.18l80.81-34.36c-64.22-29.62-130.11-46.81-191.98-46.81-136.07 0-236.74 147.2-236.74 325.5zm79.95-71.25c0-139.1 43.36-219.27 108.1-219.27 73.63 0 133.87 136.41 133.87 273.75 0 146.58-42.56 241.33-112.73 241.33-78.79 0-129.24-147.36-129.24-295.81zm307.32 538.03l4.57-85.38h-329.73l4.74-200.12-79.8 285.5zm0 0"/></svg>