<svg width="2478.34" height="1100.002" xmlns="http://www.w3.org/2000/svg"><path d="M6.77 287.002l153.12 563.96 24.63 116.04h122.43c12-51.47 25.65-113.28 43.57-180.01l64.12-245.01 76.27 307.26 18.4 117.76h134.34c9-53.18 19.34-102.47 35.26-161.59l138.18-518.41H665.95c19.82 156.52 40.17 366.43-7.64 541.23l-122.55-460.93 9.25-80.3H358.03c22.38 204.48 9.92 366.33-34.74 542.26l-110.32-457.83 8.7-84.43zm843.08 363.77c0 208.91 114.14 332.81 253.8 332.81 150.98 0 287.36-149.95 287.36-386.92 0-206.61-122.04-326.24-255.78-326.24-150.32 0-285.38 146-285.38 380.35zm166.63-149.19c0-144.65 29.67-202.34 66.68-202.34 69.09 0 140.56 227.05 140.56 453.18 0 128.21-29.01 202.34-67.34 202.34-68.43 0-139.9-227.05-139.9-453.18zm461.97 421.03v-522.76c0-54.38-9.26-75.27-50.13-93.88l226.39-35.55-5.31 271.88c22.2-168.35 88.99-267.27 164.4-267.27 16 0 34.42 4.37 52.48 17.19l-65.09 412.51h-7.26c-20.15-174.43-50.15-249.5-80.47-249.5-32.05 0-66.01 73.82-66.01 228.87v186.14c0 50.37 12.37 67.63 50.14 96.76h-269.27zm447.97 0l-50.13 44.39h269.27c-37.77-22.55-50.14-39.81-50.14-96.76v-632.52l8.58-187.3-227.71 28.98c40.87 22.55 50.13 43.44 50.13 95.85zm333.66-8.9l-9.94 53.29h228.2L2327 684.072c-39.81-80.77-75.04-128.87-157.46-140.92 137.98-50.31 231.47-142.05 290.09-256.15h-222.6c-6.21 28.96-15.14 60.28-22.68 97.89-18.83 96.15-43.36 153.3-113.95 209.51zm0 0"/></svg>