<svg width="2709" height="1100.002" xmlns="http://www.w3.org/2000/svg"><path d="M11.49 283.002l143.25 577.7 22.91 102.3h47.72c12-42.02 25.23-94.82 39.28-148.66l85.59-340.33 89.15 382.83 21.4 106.16h55.78c9-45.88 19.77-93.02 31.82-142.27l130.88-537.73h-94.9c-4.22 180.99-14.78 387.04-53.58 567.85l-116.96-473.38-10.5-94.47h-75.35c-7.25 180.01-41.61 381.78-85.84 570.16l-109.46-465.12-5.46-105.04zm713.94 368.49c0 205.05 89.24 323.79 197.14 323.79 118.34 0 225.09-147.37 225.09-383.05 0-203.6-91.98-321.51-197.81-321.51-118.12 0-224.42 146-224.42 380.77zm85.92-110.54c0-175.57 45.55-234.11 98.88-234.11 89.27 0 151.29 181.96 151.29 398.21 0 169.86-45.32 234.11-99.11 234.11-89.04 0-151.06-181.96-151.06-398.21zm438.68 390.97v-558.82c0-41.08-5.82-56.82-56.57-72.42l150.4-29.96-4.46 250.41c16.2-153.76 72.68-248.81 136.07-248.81 16 0 38.71 6.08 59.35 26.2l-37.61 310.33h-3.83c-11.56-178.72-41.56-241.34-71.02-241.34-34.63 0-82.33 81.12-82.33 301.42v208.91c0 52.08 14.09 65.91 56.58 85.16h-203.15zm363.77 0l-56.57 31.08h203.15c-42.49-16.97-56.58-30.79-56.58-85.16v-673.32l4.29-153.8-150.86 27.68c50.75 16.97 56.57 32.71 56.57 73.1zm396.63-618.01c34.41 0 71.41 29.5 104.86 73.39v427.45c-21.89 51.53-55.9 89.03-88.91 89.03-72.74 0-137.63-142.62-137.63-327.35 0-208.8 69.13-262.52 121.68-262.52zm194.86-98.89l4.06-164.3-150.63 28.82c50.98 16.74 57.35 32.48 57.35 72.42v185.15l52.58-20.19c-41.61-31.98-70.48-41.64-100.02-41.64-55.35 0-103.78 20.65-143.68 60.56-67.74 67.74-117.06 194.35-117.06 360.41 0 191.58 80.83 279.03 158.39 279.03 72.54 0 128.56-71.11 149.01-142.36l-3.28 142.36 149.86-28.82c-50.98-16.74-56.58-32.48-56.58-72.42zm142.79 463.72l-38.65 256.8c28.66 15.29 88.59 39.74 166.04 39.74 124.03 0 195.42-75.95 196.19-182.38 0-65.42-31.17-114.91-71.2-154.94-45.5-45.5-125.3-88.28-166.43-129.63-32.92-32.93-61.1-67.5-61.1-114.74 0-61.68 46.47-97.6 90.68-97.6 63.46 0 125.52 62.88 156.98 271.04h3.82l44.13-257.35c-24.02-12.96-81.95-38.96-152.94-38.96-118.61 0-193.39 76.93-193.39 181.92 0 60.51 28.31 104.88 66.4 142.97 40.25 40.25 132.78 94.27 170.31 131.8 35.21 35.21 61.1 74.36 61.1 125.23 0 62.59-43.69 97.83-92.93 97.83-70.47 0-149.62-59.46-175.19-271.73zm0 0"/></svg>