<svg width="1794" height="1100.002" xmlns="http://www.w3.org/2000/svg"><path d="M0 290.002h288l11 80 185 409c53.55-147.27-2.58-343.54-91-489h321l-207 476c-120 277-294 324-407 324-31 0-59-4-85-10l72-421h10c40 277 110 345 182 345 18 0 36-5 55-12zm734 369c0 194 125 331 287 331s262-126 296-287l-8-2c-51 63-103 97-171 97-120 0-194-112-194-346 0-114 19-156 47-156 35 0 88 143 88 293l33-37-159 57v8l358 74c8-48 11-78 11-116 0-180-105-307-261-307-177 0-327 170-327 391zm905-303v261c0 97 23 154 94 154 16 0 34-3 55-11-55 125-145 230-237 230-87 0-144-61-144-203v-347c0-90-12-113-45-150h46l216-201 15 201h154v10zm0 0"/></svg>