<svg width="1609.51" height="1100.002" xmlns="http://www.w3.org/2000/svg"><path d="M659.06 270.422l-190.55 35.73v116.61c-27.33 182.79-69.71 298.45-113.59 342.32-13.76 13.77-27.97 20.79-41.58 20.79-37.7 0-51.52-51.83-51.52-120.13 0-112.91 49.52-250.38 103.88-395.32l-231.53 98.16 94.46 98.88c-65.46 74.18-154.85 192.14-154.85 311.66 0 91.9 50.23 136.59 112.12 136.59 42.5 0 89.94-20.92 130.14-61.13 46.51-46.5 83.96-116.94 112.04-206.59l-39.37 226.3c-24.86 141.37-82.99 167.06-125.77 167.06-47.56 0-122.7-55.36-181.91-169.5h-7.26L0 1065.292c41.68 12.62 78.92 18.29 123.68 18.29 116.25 0 216.65-37.9 311.29-132.53 80.62-80.62 132.84-154.84 161.7-320.95zm490.76 314.47c-11.98 251.84-130.79 398.69-281.71 398.69-103.22 0-195.1-79.88-195.1-248.53 0-139.9 53.08-280.62 142.66-370.2 60.62-60.62 131.16-94.43 210.93-94.43 97.17 0 157.8 48.24 157.8 133.61 0 66.15-35.76 122.31-67.03 153.58-79.7 79.71-192.66 117.2-304.06 136.2l16.44-87.14c24.71 25.04 46.11 46.11 72.08 46.11 26.44 0 45.87-6.08 61.14-21.35 31.43-31.42 47.4-126.31 47.4-213.03 0-76.37-20.42-122.85-49.64-122.85-56.27 0-118.92 178.59-118.92 339.58 0 145.29 60.35 204.78 122.01 204.78 72.31 0 146.41-64.18 178.74-255.02zm338.34-297.89h121.35v7.26l-135.5 49.84-53.35 304.06c-21.32 121.89-18.44 204.27 15.76 204.27 23.74 0 50.85-24.25 86.25-134.29h7.26c-33.66 182.05-116.83 265.44-201.97 265.44-76.19 0-123.69-67.76-92.74-248.38l44.82-258.47c18-102.34 15.34-142.13-3.55-185.07l217.84-190.81zm0 0"/></svg>