<svg width="1385" height="1100.002" xmlns="http://www.w3.org/2000/svg"><path d="M10.43 281.002h84.7l19.16 105.41 146.88 477.98c68.48-233.25 92.34-445.61 99.6-583.39h93.19l-198.83 649.35c-34.68 103.65-102.49 141.57-158.31 141.57-22.84 0-44.48-6.72-65.04-19.07l27.53-306.64h2.74c3.69 221.63 31.94 281.46 79.44 281.46 21.63 0 60.5-11.35 83.14-65.54zm473.72 369.98c0 203.84 81.36 320.94 179.2 320.94 108.02 0 205.39-146.55 205.39-381.83 0-202.64-82.46-320.01-179.47-320.01-107.93 0-205.12 146-205.12 380.9zm60.37-98.31c0-185.35 50.58-244.16 109.07-244.16 95.66 0 154.69 167.7 154.69 380.82 0 183.04-50.49 244.16-109.16 244.16-95.57 0-154.6-167.7-154.6-380.82zm495.09-139.76v323.23c0 124.32 39.68 171.54 86.71 171.54 36.69 0 72.03-29.32 125.52-137.97v-405.81c0-36.87-4.74-50.98-58.62-65.62l126.36-28.2-2.74 142.83v466.58c0 36.31 4.64 49.96 58.61 65.16l-126.63 27.27 3.02-186.4c-43.65 110.72-107.85 185.94-176.25 185.94-55.96 0-100.98-48.2-100.98-177.49v-430.07c0-36.87-4.73-50.98-58.61-65.62l126.35-28.2zm0 0"/></svg>