<svg width="1238" height="1100.002" xmlns="http://www.w3.org/2000/svg"><path d="M487 217.002l26-110H348c-245 0-290 146-290 373h120c0-144 11-234 72-257l-28 152c-31 169-136 365-222 499h148c98 0 150-60 150-204v-138h111l28-110H335c2-7 4-14 5-20l32-185zm222 49c-37 0-69 19-94 48h-85c-62 112-122 278-122 397 0 113 68 183 147 183 159 0 274-255 274-451 0-109-51-177-120-177zm-52 412c-10-70-18-140-18-201 0-57 21-107 42-107 17 0 27 33 27 89 0 77-22 157-51 219zm-95 108c-26 0-42-29-42-93 0-54 10-117 29-182v11c0 78 9 140 18 198h67c-24 40-51 66-72 66zm591-520c-41 0-83 24-124 63v-43H907l7 195c-60 106-102 230-102 315 0 47 14 98 59 98 62 0 130-157 151-426 31-47 59-81 71-81 6 0 11 7 11 28 0 22-5 50-21 107h125c21-57 30-105 30-144 0-73-33-112-85-112zm0 0"/></svg>