<svg width="2374" height="1100.002" xmlns="http://www.w3.org/2000/svg"><path d="M385 86.002c-44 0-89 28-132 74 1-18 1-36 1-53H132v233c-78 151-132 334-132 449 0 53 12 105 52 105 65 0 158-293 190-588 34-55 66-95 84-95s25 39 4 123l-135 540h125l143-576c32-129-2-212-78-212zm367 200c-4 17-9 34-14 51-20-45-48-71-81-71-134 0-237 306-237 472 0 87 37 156 91 156 34 0 74-33 116-87l-15 67h105c34-127 50-235 53-322 37-86 70-179 94-266zm-191 487c-15 0-19-17-19-46 0-118 74-341 113-341 15 0 21 47 21 91 0 21-2 46-5 76-44 127-87 220-110 220zm442 125c34 0 68-12 95-25l31-118c-27 14-49 24-75 24-49 0-58-55-58-101 0-98 40-186 86-275h138l28-117h-107l52-151-291 151-28 117h81c-46 93-85 195-85 302 0 102 40 193 133 193zm304-4c114 0 204-140 329-608h-125c-102 379-158 478-176 478-6 0-10-10-10-45 0-45 21-171 92-433h-125c-54 200-87 338-87 444 0 116 49 164 102 164zm598-628c-41 0-83 24-124 63v-43h-122l7 195c-60 106-102 230-102 315 0 47 14 98 59 98 62 0 130-157 151-426 31-47 59-81 71-81 6 0 11 7 11 28 0 22-5 50-21 107h125c21-57 30-105 30-144 0-73-33-112-85-112zm469 110c0-71-43-114-112-114-153 0-289 210-289 414 0 123 61 218 175 218 33 0 70-6 104-20l33-118c-42 17-73 30-102 30-49 0-81-32-88-87h198l30-106h-58c64-62 109-141 109-217zm-149 5c11 0 24 12 24 37 0 33-55 106-148 174 21-111 80-211 124-211zm0 0"/></svg>