<svg width="2024" height="1100.002" xmlns="http://www.w3.org/2000/svg"><path d="M332 286.002c-4 17-9 34-14 51-20-45-48-71-81-71-134 0-237 306-237 472 0 87 37 156 91 156 34 0 74-33 116-87l-15 67h105c34-127 50-235 53-322 37-86 70-179 94-266zm-191 487c-15 0-19-17-19-46 0-118 74-341 113-341 15 0 21 47 21 91 0 21-2 46-5 76-44 127-87 220-110 220zm563-507c-32 0-69 22-107 62 21-83 47-176 78-278H554c-70 226-109 417-123 538-41 86-79 183-113 286h122c4-16 8-31 13-46 20 43 52 66 90 66 153 0 243-333 243-486 0-94-34-142-82-142zm-156 514c-17 0-25-24-25-76 0-24 7-73 20-141 45-109 85-178 104-178 17 0 22 22 22 53 0 123-76 342-121 342zm532-514c-37 0-69 19-94 48h-85c-62 112-122 278-122 397 0 113 68 183 147 183 159 0 274-255 274-451 0-109-51-177-120-177zm-52 412c-10-70-18-140-18-201 0-57 21-107 42-107 17 0 27 33 27 89 0 77-22 157-51 219zm-95 108c-26 0-42-29-42-93 0-54 10-117 29-182v11c0 78 9 140 18 198h67c-24 40-51 66-72 66zm378 108c114 0 204-140 329-608h-125c-102 379-158 478-176 478-6 0-10-10-10-45 0-45 21-171 92-433h-125c-54 200-87 338-87 444 0 116 49 164 102 164zm468 4c34 0 68-12 95-25l31-118c-27 14-49 24-75 24-49 0-58-55-58-101 0-98 40-186 86-275h138l28-117h-107l52-151-291 151-28 117h81c-46 93-85 195-85 302 0 102 40 193 133 193zm0 0"/></svg>