<svg width="869" height="1100.002" xmlns="http://www.w3.org/2000/svg"><path d="M386 266.002c-32 0-69 22-107 62 21-83 47-176 78-278H236c-70 226-109 417-123 538-41 86-79 183-113 286h122c4-16 8-31 13-46 20 43 52 66 90 66 153 0 243-333 243-486 0-94-34-142-82-142zm-156 514c-17 0-25-24-25-76 0-24 7-73 20-141 45-109 85-178 104-178 17 0 22 22 22 53 0 123-76 342-121 342zm639-404c0-71-43-114-112-114-153 0-289 210-289 414 0 123 61 218 175 218 33 0 70-6 104-20l33-118c-42 17-73 30-102 30-49 0-81-32-88-87h198l30-106h-58c64-62 109-141 109-217zm-149 5c11 0 24 12 24 37 0 33-55 106-148 174 21-111 80-211 124-211zm0 0"/></svg>