<svg width="3115" height="1100.002" xmlns="http://www.w3.org/2000/svg"><path d="M386 266.002c-32 0-69 22-107 62 21-83 47-176 78-278H236c-70 226-109 417-123 538-41 86-79 183-113 286h122c4-16 8-31 13-46 20 43 52 66 90 66 153 0 243-333 243-486 0-94-34-142-82-142zm-156 514c-17 0-25-24-25-76 0-24 7-73 20-141 45-109 85-178 104-178 17 0 22 22 22 53 0 123-76 342-121 342zm639-404c0-71-43-114-112-114-153 0-289 210-289 414 0 123 61 218 175 218 33 0 70-6 104-20l33-118c-42 17-73 30-102 30-49 0-81-32-88-87h198l30-106h-58c64-62 109-141 109-217zm-149 5c11 0 24 12 24 37 0 33-55 106-148 174 21-111 80-211 124-211zm573-202c0-99-58-152-122-152-134 0-234 192-234 416 0 62 6 125 19 197-58 81-120 161-179 234h151l61-82c6 26 13 53 21 82h129c-20-81-38-153-52-219 115-164 206-326 206-476zm-235 215c3-76 45-249 89-249 13 0 23 15 23 48 0 77-45 180-110 290-3-31-4-60-2-89zm435-155c61 0 109-44 109-100 0-45-28-76-81-76-61 0-111 44-111 100 0 45 31 76 83 76zm-102 655c32 0 51-5 78-18l30-118c-26 14-45 19-62 19-39 0-55-31-55-76 0-121 99-274 199-415h-254l-28 117h69c-55 96-111 219-111 326 0 86 46 165 134 165zm575-518c0-71-43-114-112-114-153 0-289 210-289 414 0 123 61 218 175 218 33 0 70-6 104-20l33-118c-42 17-73 30-102 30-49 0-81-32-88-87h198l30-106h-58c64-62 109-141 109-217zm-149 5c11 0 24 12 24 37 0 33-55 106-148 174 21-111 80-211 124-211zm375-95c1 22 1 44 1 64 0 324-84 414-101 414-6 0-10-10-10-36 0-64 19-184 81-442h-125c-47 191-73 328-73 426 0 139 42 182 104 182 88 0 241-175 241-468v-23h44l29-117zm544 90c0-71-43-114-112-114-153 0-289 210-289 414 0 123 61 218 175 218 33 0 70-6 104-20l33-118c-42 17-73 30-102 30-49 0-81-32-88-87h198l30-106h-58c64-62 109-141 109-217zm-149 5c11 0 24 12 24 37 0 33-55 106-148 174 21-111 80-211 124-211zm528-33c0-89-58-148-133-148-120 0-189 121-189 238 0 72 23 143 48 209-58 68-130 144-208 227h155c33-34 66-69 99-106 9 26 14 50 14 71 0 83-63 123-120 123-49 0-100-19-137-32l-30 115c31 12 92 29 155 29 139 0 252-87 252-253 0-57-17-114-37-171 76-101 131-206 131-302zm-203 45c0-52 21-85 48-85 16 0 34 26 34 62 0 45-21 95-57 152-14-44-25-87-25-129zm0 0"/></svg>