<svg width="1285" height="1100.002" xmlns="http://www.w3.org/2000/svg"><path d="M386 266.002c-32 0-69 22-107 62 21-83 47-176 78-278H236c-70 226-109 417-123 538-41 86-79 183-113 286h122c4-16 8-31 13-46 20 43 52 66 90 66 153 0 243-333 243-486 0-94-34-142-82-142zm-156 514c-17 0-25-24-25-76 0-24 7-73 20-141 45-109 85-178 104-178 17 0 22 22 22 53 0 123-76 342-121 342zm342 114c114 0 204-140 329-608H776c-102 379-158 478-176 478-6 0-10-10-10-45 0-45 21-171 92-433H557c-54 200-87 338-87 444 0 116 49 164 102 164zm468 4c34 0 68-12 95-25l31-118c-27 14-49 24-75 24-49 0-58-55-58-101 0-98 40-186 86-275h138l28-117h-107l52-151-291 151-28 117h81c-46 93-85 195-85 302 0 102 40 193 133 193zm0 0"/></svg>