<svg width="2430" height="1100.002" xmlns="http://www.w3.org/2000/svg"><path d="M321 730.002c-70 36-102 44-132 44-33 0-66-24-66-108 0-100 65-282 108-282 20 0 16 92-18 263h120c63-256 25-381-77-381-132 0-252 210-252 434 0 127 79 194 161 194 53 0 86-15 120-31zm392-444c-4 17-9 34-14 51-20-45-48-71-81-71-134 0-237 306-237 472 0 87 37 156 91 156 34 0 74-33 116-87l-15 67h105c34-127 50-235 53-322 37-86 70-179 94-266zm-191 487c-15 0-19-17-19-46 0-118 74-341 113-341 15 0 21 47 21 91 0 21-2 46-5 76-44 127-87 220-110 220zm571-507c-38 0-80 24-120 64 0-15-1-30-2-44H849v213c-56 102-95 217-95 297 0 47 14 98 59 98 58 0 132-221 154-435 31-46 58-75 73-75 26 0 19 56 8 101l-98 389h118l98-394c26-103 12-214-73-214zm400 0c-38 0-80 24-120 64 0-15-1-30-2-44h-122v213c-56 102-95 217-95 297 0 47 14 98 59 98 58 0 132-221 154-435 31-46 58-75 73-75 26 0 19 56 8 101l-98 389h118l98-394c26-103 12-214-73-214zm378 0c-37 0-69 19-94 48h-85c-62 112-122 278-122 397 0 113 68 183 147 183 159 0 274-255 274-451 0-109-51-177-120-177zm-52 412c-10-70-18-140-18-201 0-57 21-107 42-107 17 0 27 33 27 89 0 77-22 157-51 219zm-95 108c-26 0-42-29-42-93 0-54 10-117 29-182v11c0 78 9 140 18 198h67c-24 40-51 66-72 66zm461 112c34 0 68-12 95-25l31-118c-27 14-49 24-75 24-49 0-58-55-58-101 0-98 40-186 86-275h138l28-117h-107l52-151-291 151-28 117h81c-46 93-85 195-85 302 0 102 40 193 133 193zm0 0"/></svg>