<svg width="3688" height="1100.002" xmlns="http://www.w3.org/2000/svg"><path d="M321 730.002c-70 36-102 44-132 44-33 0-66-24-66-108 0-100 65-282 108-282 20 0 16 92-18 263h120c63-256 25-381-77-381-132 0-252 210-252 434 0 127 79 194 161 194 53 0 86-15 120-31zm365-464c-37 0-69 19-94 48h-85c-62 112-122 278-122 397 0 113 68 183 147 183 159 0 274-255 274-451 0-109-51-177-120-177zm-52 412c-10-70-18-140-18-201 0-57 21-107 42-107 17 0 27 33 27 89 0 77-22 157-51 219zm-95 108c-26 0-42-29-42-93 0-54 10-117 29-182v11c0 78 9 140 18 198h67c-24 40-51 66-72 66zm590-520c-38 0-80 24-120 64 0-15-1-30-2-44H885v213c-56 102-95 217-95 297 0 47 14 98 59 98 58 0 132-221 154-435 31-46 58-75 73-75 26 0 19 56 8 101l-98 389h118l98-394c26-103 12-214-73-214zm454-159c-21 81-41 157-61 225-20-42-47-66-79-66-134 0-237 306-237 472 0 87 35 156 87 156 37 0 78-32 120-89-4 22-9 45-15 69h105c37-137 52-251 53-341 50-122 97-267 139-426zm-236 666c-15 0-19-17-19-46 0-118 74-341 113-341 15 0 21 47 21 91 0 17-1 37-3 61-51 151-91 235-112 235zm658-397c0-71-43-114-112-114-153 0-289 210-289 414 0 123 61 218 175 218 33 0 70-6 104-20l33-118c-42 17-73 30-102 30-49 0-81-32-88-87h198l30-106h-58c64-62 109-141 109-217zm-149 5c11 0 24 12 24 37 0 33-55 106-148 174 21-111 80-211 124-211zm477-115c-26 0-52 21-78 56-12-40-34-56-67-56-99 0-194 335-261 608h115c55-256 113-477 132-477 5 0 6 7 6 17 0 18-1 39-3 60-49 126-84 280-84 366 0 38 11 54 28 54 73 0 144-357 144-487v-5c4-5 9-7 12-7 5 0 9 5 9 20 0 128-34 297-77 459h114c44-175 75-359 75-461 0-98-23-147-65-147zm404 0c-38 0-80 24-120 64 0-15-1-30-2-44h-122v213c-56 102-95 217-95 297 0 47 14 98 59 98 58 0 132-221 154-435 31-46 58-75 73-75 26 0 19 56 8 101l-98 389h118l98-394c26-103 12-214-73-214zm485 110c0-71-43-114-112-114-153 0-289 210-289 414 0 123 61 218 175 218 33 0 70-6 104-20l33-118c-42 17-73 30-102 30-49 0-81-32-88-87h198l30-106h-58c64-62 109-141 109-217zm-149 5c11 0 24 12 24 37 0 33-55 106-148 174 21-111 80-211 124-211zm503-274c-21 81-41 157-61 225-20-42-47-66-79-66-134 0-237 306-237 472 0 87 35 156 87 156 37 0 78-32 120-89-4 22-9 45-15 69h105c37-137 52-251 53-341 50-122 97-267 139-426zm-236 666c-15 0-19-17-19-46 0-118 74-341 113-341 15 0 21 47 21 91 0 17-1 37-3 61-51 151-91 235-112 235zm0 0"/></svg>