<svg width="3877" height="1100.002" xmlns="http://www.w3.org/2000/svg"><path d="M321 730.002c-70 36-102 44-132 44-33 0-66-24-66-108 0-100 65-282 108-282 20 0 16 92-18 263h120c63-256 25-381-77-381-132 0-252 210-252 434 0 127 79 194 161 194 53 0 86-15 120-31zm365-464c-37 0-69 19-94 48h-85c-62 112-122 278-122 397 0 113 68 183 147 183 159 0 274-255 274-451 0-109-51-177-120-177zm-52 412c-10-70-18-140-18-201 0-57 21-107 42-107 17 0 27 33 27 89 0 77-22 157-51 219zm-95 108c-26 0-42-29-42-93 0-54 10-117 29-182v11c0 78 9 140 18 198h67c-24 40-51 66-72 66zm590-520c-38 0-80 24-120 64 0-15-1-30-2-44H885v213c-56 102-95 217-95 297 0 47 14 98 59 98 58 0 132-221 154-435 31-46 58-75 73-75 26 0 19 56 8 101l-98 389h118l98-394c26-103 12-214-73-214zm479 82c0-89-58-148-133-148-120 0-189 121-189 238 0 72 23 143 48 209-58 68-130 144-208 227h155c33-34 66-69 99-106 9 26 14 50 14 71 0 83-63 123-120 123-49 0-100-19-137-32l-30 115c31 12 92 29 155 29 139 0 252-87 252-253 0-57-17-114-37-171 76-101 131-206 131-302zm-203 45c0-52 21-85 48-85 16 0 34 26 34 62 0 45-21 95-57 152-14-44-25-87-25-129zm380 505c34 0 68-12 95-25l31-118c-27 14-49 24-75 24-49 0-58-55-58-101 0-98 40-186 86-275h138l28-117h-107l52-151-291 151-28 117h81c-46 93-85 195-85 302 0 102 40 193 133 193zm517-632c-41 0-83 24-124 63v-43h-122l7 195c-60 106-102 230-102 315 0 47 14 98 59 98 62 0 130-157 151-426 31-47 59-81 71-81 6 0 11 7 11 28 0 22-5 50-21 107h125c21-57 30-105 30-144 0-73-33-112-85-112zm389 20c-4 17-9 34-14 51-20-45-48-71-81-71-134 0-237 306-237 472 0 87 37 156 91 156 34 0 74-33 116-87l-15 67h105c34-127 50-235 53-322 37-86 70-179 94-266zm-191 487c-15 0-19-17-19-46 0-118 74-341 113-341 15 0 21 47 21 91 0 21-2 46-5 76-44 127-87 220-110 220zm510-534c61 0 109-44 109-100 0-45-28-76-81-76-61 0-111 44-111 100 0 45 31 76 83 76zm-102 655c32 0 51-5 78-18l30-118c-26 14-45 19-62 19-39 0-55-31-55-76 0-121 99-274 199-415h-254l-28 117h69c-55 96-111 219-111 326 0 86 46 165 134 165zm490-628c-38 0-80 24-120 64 0-15-1-30-2-44h-122v213c-56 102-95 217-95 297 0 47 14 98 59 98 58 0 132-221 154-435 31-46 58-75 73-75 26 0 19 56 8 101l-98 389h118l98-394c26-103 12-214-73-214zm479 82c0-89-58-148-133-148-120 0-189 121-189 238 0 72 23 143 48 209-58 68-130 144-208 227h155c33-34 66-69 99-106 9 26 14 50 14 71 0 83-63 123-120 123-49 0-100-19-137-32l-30 115c31 12 92 29 155 29 139 0 252-87 252-253 0-57-17-114-37-171 76-101 131-206 131-302zm-203 45c0-52 21-85 48-85 16 0 34 26 34 62 0 45-21 95-57 152-14-44-25-87-25-129zm0 0"/></svg>