<svg width="2724" height="1100.002" xmlns="http://www.w3.org/2000/svg"><path d="M377 107.002c-21 81-41 157-61 225-20-42-47-66-79-66-134 0-237 306-237 472 0 87 35 156 87 156 37 0 78-32 120-89-4 22-9 45-15 69h105c37-137 52-251 53-341 50-122 97-267 139-426zm-236 666c-15 0-19-17-19-46 0-118 74-341 113-341 15 0 21 47 21 91 0 17-1 37-3 61-51 151-91 235-112 235zm658-397c0-71-43-114-112-114-153 0-289 210-289 414 0 123 61 218 175 218 33 0 70-6 104-20l33-118c-42 17-73 30-102 30-49 0-81-32-88-87h198l30-106h-58c64-62 109-141 109-217zm-149 5c11 0 24 12 24 37 0 33-55 106-148 174 21-111 80-211 124-211zm447 349c-70 36-102 44-132 44-33 0-66-24-66-108 0-100 65-282 108-282 20 0 16 92-18 263h120c63-256 25-381-77-381-132 0-252 210-252 434 0 127 79 194 161 194 53 0 86-15 120-31zm511-551c0-99-58-152-122-152-134 0-234 192-234 416 0 62 6 125 19 197-58 81-120 161-179 234h151l61-82c6 26 13 53 21 82h129c-20-81-38-153-52-219 115-164 206-326 206-476zm-235 215c3-76 45-249 89-249 13 0 23 15 23 48 0 77-45 180-110 290-3-31-4-60-2-89zm501-108c-4 17-9 34-14 51-20-45-48-71-81-71-134 0-237 306-237 472 0 87 37 156 91 156 34 0 74-33 116-87l-15 67h105c34-127 50-235 53-322 37-86 70-179 94-266zm-191 487c-15 0-19-17-19-46 0-118 74-341 113-341 15 0 21 47 21 91 0 21-2 46-5 76-44 127-87 220-110 220zm572-507c-41 0-83 24-124 63v-43h-122l7 195c-60 106-102 230-102 315 0 47 14 98 59 98 62 0 130-157 151-426 31-47 59-81 71-81 6 0 11 7 11 28 0 22-5 50-21 107h125c21-57 30-105 30-144 0-73-33-112-85-112zm469 110c0-71-43-114-112-114-153 0-289 210-289 414 0 123 61 218 175 218 33 0 70-6 104-20l33-118c-42 17-73 30-102 30-49 0-81-32-88-87h198l30-106h-58c64-62 109-141 109-217zm-149 5c11 0 24 12 24 37 0 33-55 106-148 174 21-111 80-211 124-211zm0 0"/></svg>