<svg width="2670" height="1100.002" xmlns="http://www.w3.org/2000/svg"><path d="M254 285.002l62-235H192l-62 235H73c14 21 27 45 39 70l-79 301c-23 87-33 158-33 225 0 134 63 189 131 189 139 0 187-203 187-330 0-115-33-251-72-338h167l28-117zm-114 670c-13 0-20-26-20-71 0-54 10-133 35-228l23-88c13 63 19 126 19 181 0 100-21 206-57 206zm583-669c-4 17-9 34-14 51-20-45-48-71-81-71-134 0-237 306-237 472 0 87 37 156 91 156 34 0 74-33 116-87l-15 67h105c34-127 50-235 53-322 37-86 70-179 94-266zm-191 487c-15 0-19-17-19-46 0-118 74-341 113-341 15 0 21 47 21 91 0 21-2 46-5 76-44 127-87 220-110 220zm510-534c61 0 109-44 109-100 0-45-28-76-81-76-61 0-111 44-111 100 0 45 31 76 83 76zm-102 655c32 0 51-5 78-18l30-118c-26 14-45 19-62 19-39 0-55-31-55-76 0-121 99-274 199-415H876l-28 117h69c-55 96-111 219-111 326 0 86 46 165 134 165zm614-715c0-99-58-152-122-152-134 0-234 192-234 416 0 62 6 125 19 197-58 81-120 161-179 234h151l61-82c6 26 13 53 21 82h129c-20-81-38-153-52-219 115-164 206-326 206-476zm-235 215c3-76 45-249 89-249 13 0 23 15 23 48 0 77-45 180-110 290-3-31-4-60-2-89zm284 500c114 0 204-140 329-608h-125c-102 379-158 478-176 478-6 0-10-10-10-45 0-45 21-171 92-433h-125c-54 200-87 338-87 444 0 116 49 164 102 164zm598-628c-41 0-83 24-124 63v-43h-122l7 195c-60 106-102 230-102 315 0 47 14 98 59 98 62 0 130-157 151-426 31-47 59-81 71-81 6 0 11 7 11 28 0 22-5 50-21 107h125c21-57 30-105 30-144 0-73-33-112-85-112zm469 110c0-71-43-114-112-114-153 0-289 210-289 414 0 123 61 218 175 218 33 0 70-6 104-20l33-118c-42 17-73 30-102 30-49 0-81-32-88-87h198l30-106h-58c64-62 109-141 109-217zm-149 5c11 0 24 12 24 37 0 33-55 106-148 174 21-111 80-211 124-211zm0 0"/></svg>