<svg width="1267" height="1100.002" xmlns="http://www.w3.org/2000/svg"><path d="M254 285.002l62-235H192l-62 235H73c14 21 27 45 39 70l-79 301c-23 87-33 158-33 225 0 134 63 189 131 189 139 0 187-203 187-330 0-115-33-251-72-338h167l28-117zm-114 670c-13 0-20-26-20-71 0-54 10-133 35-228l23-88c13 63 19 126 19 181 0 100-21 206-57 206zm663-579c0-71-43-114-112-114-153 0-289 210-289 414 0 123 61 218 175 218 33 0 70-6 104-20l33-118c-42 17-73 30-102 30-49 0-81-32-88-87h198l30-106h-58c64-62 109-141 109-217zm-149 5c11 0 24 12 24 37 0 33-55 106-148 174 21-111 80-211 124-211zm498-95c-55 256-113 477-132 477-5 0-6-7-6-17 0-18 1-39 3-60 49-126 84-280 84-366 0-38-11-54-28-54-73 0-144 357-144 487v5c-4 5-9 7-12 7-5 0-9-5-9-20 0-128 34-297 77-459H871c-44 175-75 359-75 461 0 98 23 147 65 147 26 0 52-21 78-56 12 40 34 56 67 56 99 0 194-335 261-608zm0 0"/></svg>