<svg width="2769" height="1100.002" xmlns="http://www.w3.org/2000/svg"><path d="M262 239.002c61 0 109-44 109-100 0-45-28-76-81-76-61 0-111 44-111 100 0 45 31 76 83 76zm-102 655c32 0 51-5 78-18l30-118c-26 14-45 19-62 19-39 0-55-31-55-76 0-121 99-274 199-415H96l-28 117h69c-55 96-111 219-111 326 0 86 46 165 134 165zm518-628c-26 0-52 21-78 56-12-40-34-56-67-56-99 0-194 335-261 608h115c55-256 113-477 132-477 5 0 6 7 6 17 0 18-1 39-3 60-49 126-84 280-84 366 0 38 11 54 28 54 73 0 144-357 144-487v-5c4-5 9-7 12-7 5 0 9 5 9 20 0 128-34 297-77 459h114c44-175 75-359 75-461 0-98-23-147-65-147zm432 0c-26 0-52 21-78 56-12-40-34-56-67-56-99 0-194 335-261 608h115c55-256 113-477 132-477 5 0 6 7 6 17 0 18-1 39-3 60-49 126-84 280-84 366 0 38 11 54 28 54 73 0 144-357 144-487v-5c4-5 9-7 12-7 5 0 9 5 9 20 0 128-34 297-77 459h114c44-175 75-359 75-461 0-98-23-147-65-147zm489 110c0-71-43-114-112-114-153 0-289 210-289 414 0 123 61 218 175 218 33 0 70-6 104-20l33-118c-42 17-73 30-102 30-49 0-81-32-88-87h198l30-106h-58c64-62 109-141 109-217zm-149 5c11 0 24 12 24 37 0 33-55 106-148 174 21-111 80-211 124-211zm449-115c-38 0-80 24-120 64 0-15-1-30-2-44h-122v213c-56 102-95 217-95 297 0 47 14 98 59 98 58 0 132-221 154-435 31-46 58-75 73-75 26 0 19 56 8 101l-98 389h118l98-394c26-103 12-214-73-214zm479 82c0-89-58-148-133-148-120 0-189 121-189 238 0 72 23 143 48 209-58 68-130 144-208 227h155c33-34 66-69 99-106 9 26 14 50 14 71 0 83-63 123-120 123-49 0-100-19-137-32l-30 115c31 12 92 29 155 29 139 0 252-87 252-253 0-57-17-114-37-171 76-101 131-206 131-302zm-203 45c0-52 21-85 48-85 16 0 34 26 34 62 0 45-21 95-57 152-14-44-25-87-25-129zm594-17c0-71-43-114-112-114-153 0-289 210-289 414 0 123 61 218 175 218 33 0 70-6 104-20l33-118c-42 17-73 30-102 30-49 0-81-32-88-87h198l30-106h-58c64-62 109-141 109-217zm-149 5c11 0 24 12 24 37 0 33-55 106-148 174 21-111 80-211 124-211zm0 0"/></svg>