<svg width="4643" height="1100.002" xmlns="http://www.w3.org/2000/svg"><path d="M262 239.002c61 0 109-44 109-100 0-45-28-76-81-76-61 0-111 44-111 100 0 45 31 76 83 76zm-102 655c32 0 51-5 78-18l30-118c-26 14-45 19-62 19-39 0-55-31-55-76 0-121 99-274 199-415H96l-28 117h69c-55 96-111 219-111 326 0 86 46 165 134 165zm490-628c-38 0-80 24-120 64 0-15-1-30-2-44H406v213c-56 102-95 217-95 297 0 47 14 98 59 98 58 0 132-221 154-435 31-46 58-75 73-75 26 0 19 56 8 101l-98 389h118l98-394c26-103 12-214-73-214zm271 632c34 0 68-12 95-25l31-118c-27 14-49 24-75 24-49 0-58-55-58-101 0-98 40-186 86-275h138l28-117h-107l52-151-291 151-28 117h81c-46 93-85 195-85 302 0 102 40 193 133 193zm601-522c0-71-43-114-112-114-153 0-289 210-289 414 0 123 61 218 175 218 33 0 70-6 104-20l33-118c-42 17-73 30-102 30-49 0-81-32-88-87h198l30-106h-58c64-62 109-141 109-217zm-149 5c11 0 24 12 24 37 0 33-55 106-148 174 21-111 80-211 124-211zm573-202c0-99-58-152-122-152-134 0-234 192-234 416 0 62 6 125 19 197-58 81-120 161-179 234h151l61-82c6 26 13 53 21 82h129c-20-81-38-153-52-219 115-164 206-326 206-476zm-235 215c3-76 45-249 89-249 13 0 23 15 23 48 0 77-45 180-110 290-3-31-4-60-2-89zm620-215c0-99-58-152-122-152-134 0-234 192-234 416 0 62 6 125 19 197-58 81-120 161-179 234h151l61-82c6 26 13 53 21 82h129c-20-81-38-153-52-219 115-164 206-326 206-476zm-235 215c3-76 45-249 89-249 13 0 23 15 23 48 0 77-45 180-110 290-3-31-4-60-2-89zm581-18c0-71-43-114-112-114-153 0-289 210-289 414 0 123 61 218 175 218 33 0 70-6 104-20l33-118c-42 17-73 30-102 30-49 0-81-32-88-87h198l30-106h-58c64-62 109-141 109-217zm-149 5c11 0 24 12 24 37 0 33-55 106-148 174 21-111 80-211 124-211zm447 349c-70 36-102 44-132 44-33 0-66-24-66-108 0-100 65-282 108-282 20 0 16 92-18 263h120c63-256 25-381-77-381-132 0-252 210-252 434 0 127 79 194 161 194 53 0 86-15 120-31zm258 168c34 0 68-12 95-25l31-118c-27 14-49 24-75 24-49 0-58-55-58-101 0-98 40-186 86-275h138l28-117h-107l52-151-291 151-28 117h81c-46 93-85 195-85 302 0 102 40 193 133 193zm304-4c114 0 204-140 329-608h-125c-102 379-158 478-176 478-6 0-10-10-10-45 0-45 21-171 92-433h-125c-54 200-87 338-87 444 0 116 49 164 102 164zm602-608c-4 17-9 34-14 51-20-45-48-71-81-71-134 0-237 306-237 472 0 87 37 156 91 156 34 0 74-33 116-87l-15 67h105c34-127 50-235 53-322 37-86 70-179 94-266zm-191 487c-15 0-19-17-19-46 0-118 74-341 113-341 15 0 21 47 21 91 0 21-2 46-5 76-44 127-87 220-110 220zm695-594c0-99-58-152-122-152-134 0-234 192-234 416 0 62 6 125 19 197-58 81-120 161-179 234h151l61-82c6 26 13 53 21 82h129c-20-81-38-153-52-219 115-164 206-326 206-476zm-235 215c3-76 45-249 89-249 13 0 23 15 23 48 0 77-45 180-110 290-3-31-4-60-2-89zm0 0"/></svg>