<svg width="729" height="1100.002" xmlns="http://www.w3.org/2000/svg"><path d="M262 239.002c61 0 109-44 109-100 0-45-28-76-81-76-61 0-111 44-111 100 0 45 31 76 83 76zm-102 655c32 0 51-5 78-18l30-118c-26 14-45 19-62 19-39 0-55-31-55-76 0-121 99-274 199-415H96l-28 117h69c-55 96-111 219-111 326 0 86 46 165 134 165zm569-546c0-89-58-148-133-148-120 0-189 121-189 238 0 72 23 143 48 209-58 68-130 144-208 227h155c33-34 66-69 99-106 9 26 14 50 14 71 0 83-63 123-120 123-49 0-100-19-137-32l-30 115c31 12 92 29 155 29 139 0 252-87 252-253 0-57-17-114-37-171 76-101 131-206 131-302zm-203 45c0-52 21-85 48-85 16 0 34 26 34 62 0 45-21 95-57 152-14-44-25-87-25-129zm0 0"/></svg>