<svg width="1735" height="1100.002" xmlns="http://www.w3.org/2000/svg"><path d="M455 376.002c0-61-24-114-80-114-43 0-82 30-123 77l80-289H208l-208 824h123c17-82 35-157 54-223l55 223h124l-72-236c100-84 171-158 171-262zm-254 202c42-121 85-193 119-193 12 0 16 13 16 25 0 31-49 98-135 168zm549-312c-38 0-80 24-120 64 0-15-1-30-2-44H506v213c-56 102-95 217-95 297 0 47 14 98 59 98 58 0 132-221 154-435 31-46 58-75 73-75 26 0 19 56 8 101l-98 389h118l98-394c26-103 12-214-73-214zm378 0c-37 0-69 19-94 48h-85c-62 112-122 278-122 397 0 113 68 183 147 183 159 0 274-255 274-451 0-109-51-177-120-177zm-52 412c-10-70-18-140-18-201 0-57 21-107 42-107 17 0 27 33 27 89 0 77-22 157-51 219zm-95 108c-26 0-42-29-42-93 0-54 10-117 29-182v11c0 78 9 140 18 198h67c-24 40-51 66-72 66zm639-500c-55 256-113 477-132 477-5 0-6-7-6-17 0-18 1-39 3-60 49-126 84-280 84-366 0-38-11-54-28-54-73 0-144 357-144 487v5c-4 5-9 7-12 7-5 0-9-5-9-20 0-128 34-297 77-459h-114c-44 175-75 359-75 461 0 98 23 147 65 147 26 0 52-21 78-56 12 40 34 56 67 56 99 0 194-335 261-608zm0 0"/></svg>