<svg width="1293" height="1100.002" xmlns="http://www.w3.org/2000/svg"><path d="M416 459.002c30-129 31-173 31-212 0-85-43-160-134-160-131 0-192 125-192 277v108c0 33-2 61-5 86-70 69-116 192-116 268 0 40 12 68 37 68 62 0 136-147 175-281 18 6 27 34 27 79 0 44-16 117-42 182h121c28-86 40-159 40-209 0-109-53-154-122-159 3-17 4-34 4-48v-103c0-99 31-162 60-162 20 0 28 36 28 67 0 46-7 102-27 199zm333-173c-4 17-9 34-14 51-20-45-48-71-81-71-134 0-237 306-237 472 0 87 37 156 91 156 34 0 74-33 116-87l-15 67h105c34-127 50-235 53-322 37-86 70-179 94-266zm-191 487c-15 0-19-17-19-46 0-118 74-341 113-341 15 0 21 47 21 91 0 21-2 46-5 76-44 127-87 220-110 220zm620-487c-55 256-113 477-132 477-5 0-6-7-6-17 0-18 1-39 3-60 49-126 84-280 84-366 0-38-11-54-28-54-73 0-144 357-144 487v5c-4 5-9 7-12 7-5 0-9-5-9-20 0-128 34-297 77-459H897c-44 175-75 359-75 461 0 98 23 147 65 147 26 0 52-21 78-56 12 40 34 56 67 56 99 0 194-335 261-608zm0 0"/></svg>