<svg width="4021" height="1100.002" xmlns="http://www.w3.org/2000/svg"><path d="M516 179.002c0-99-58-152-122-152-134 0-234 192-234 416 0 62 6 125 19 197-58 81-120 161-179 234h151l61-82c6 26 13 53 21 82h129c-20-81-38-153-52-219 115-164 206-326 206-476zm-235 215c3-76 45-249 89-249 13 0 23 15 23 48 0 77-45 180-110 290-3-31-4-60-2-89zm435-155c61 0 109-44 109-100 0-45-28-76-81-76-61 0-111 44-111 100 0 45 31 76 83 76zm-102 655c32 0 51-5 78-18l30-118c-26 14-45 19-62 19-39 0-55-31-55-76 0-121 99-274 199-415H550l-28 117h69c-55 96-111 219-111 326 0 86 46 165 134 165zm575-518c0-71-43-114-112-114-153 0-289 210-289 414 0 123 61 218 175 218 33 0 70-6 104-20l33-118c-42 17-73 30-102 30-49 0-81-32-88-87h198l30-106h-58c64-62 109-141 109-217zm-149 5c11 0 24 12 24 37 0 33-55 106-148 174 21-111 80-211 124-211zm528-33c0-89-58-148-133-148-120 0-189 121-189 238 0 72 23 143 48 209-58 68-130 144-208 227h155c33-34 66-69 99-106 9 26 14 50 14 71 0 83-63 123-120 123-49 0-100-19-137-32l-30 115c31 12 92 29 155 29 139 0 252-87 252-253 0-57-17-114-37-171 76-101 131-206 131-302zm-203 45c0-52 21-85 48-85 16 0 34 26 34 62 0 45-21 95-57 152-14-44-25-87-25-129zm501-127c-32 0-69 22-107 62 21-83 47-176 78-278h-121c-70 226-109 417-123 538-41 86-79 183-113 286h122c4-16 8-31 13-46 20 43 52 66 90 66 153 0 243-333 243-486 0-94-34-142-82-142zm-156 514c-17 0-25-24-25-76 0-24 7-73 20-141 45-109 85-178 104-178 17 0 22 22 22 53 0 123-76 342-121 342zm639-404c0-71-43-114-112-114-153 0-289 210-289 414 0 123 61 218 175 218 33 0 70-6 104-20l33-118c-42 17-73 30-102 30-49 0-81-32-88-87h198l30-106h-58c64-62 109-141 109-217zm-149 5c11 0 24 12 24 37 0 33-55 106-148 174 21-111 80-211 124-211zm432-95c-26 31-53 64-80 99l-30-99h-131c25 78 48 155 66 225-99 142-177 289-177 399 0 96 57 160 132 160 139 0 211-172 211-323 0-60-13-137-34-223 64-85 136-168 200-238zm-129 483c0 70-28 179-75 179-16 0-26-17-26-46 0-65 36-148 90-237 7 40 11 75 11 104zm509-503c-37 0-69 19-94 48h-85c-62 112-122 278-122 397 0 113 68 183 147 183 159 0 274-255 274-451 0-109-51-177-120-177zm-52 412c-10-70-18-140-18-201 0-57 21-107 42-107 17 0 27 33 27 89 0 77-22 157-51 219zm-95 108c-26 0-42-29-42-93 0-54 10-117 29-182v11c0 78 9 140 18 198h67c-24 40-51 66-72 66zm590-520c-38 0-80 24-120 64 0-15-1-30-2-44h-122v213c-56 102-95 217-95 297 0 47 14 98 59 98 58 0 132-221 154-435 31-46 58-75 73-75 26 0 19 56 8 101l-98 389h118l98-394c26-103 12-214-73-214zm454-159c-21 81-41 157-61 225-20-42-47-66-79-66-134 0-237 306-237 472 0 87 35 156 87 156 37 0 78-32 120-89-4 22-9 45-15 69h105c37-137 52-251 53-341 50-122 97-267 139-426zm-236 666c-15 0-19-17-19-46 0-118 74-341 113-341 15 0 21 47 21 91 0 17-1 37-3 61-51 151-91 235-112 235zm0 0"/></svg>