<svg width="1735" height="1100.002" xmlns="http://www.w3.org/2000/svg"><path d="M406 266.002c-26 0-52 21-78 56-12-40-34-56-67-56-99 0-194 335-261 608h115c55-256 113-477 132-477 5 0 6 7 6 17 0 18-1 39-3 60-49 126-84 280-84 366 0 38 11 54 28 54 73 0 144-357 144-487v-5c4-5 9-7 12-7 5 0 9 5 9 20 0 128-34 297-77 459h114c44-175 75-359 75-461 0-98-23-147-65-147zm409 20c-4 17-9 34-14 51-20-45-48-71-81-71-134 0-237 306-237 472 0 87 37 156 91 156 34 0 74-33 116-87l-15 67h105c34-127 50-235 53-322 37-86 70-179 94-266zm-191 487c-15 0-19-17-19-46 0-118 74-341 113-341 15 0 21 47 21 91 0 21-2 46-5 76-44 127-87 220-110 220zm571-507c-38 0-80 24-120 64 0-15-1-30-2-44H951v213c-56 102-95 217-95 297 0 47 14 98 59 98 58 0 132-221 154-435 31-46 58-75 73-75 26 0 19 56 8 101l-98 389h118l98-394c26-103 12-214-73-214zm383 20c-26 31-53 64-80 99l-30-99h-131c25 78 48 155 66 225-99 142-177 289-177 399 0 96 57 160 132 160 139 0 211-172 211-323 0-60-13-137-34-223 64-85 136-168 200-238zm-129 483c0 70-28 179-75 179-16 0-26-17-26-46 0-65 36-148 90-237 7 40 11 75 11 104zm0 0"/></svg>