<svg width="1656.118" height="1100.002" xmlns="http://www.w3.org/2000/svg"><path d="M406 266.002c-26 0-52 21-78 56-12-40-34-56-67-56-99 0-194 335-261 608h115c55-256 113-477 132-477 5 0 6 7 6 17 0 18-1 39-3 60-49 126-84 280-84 366 0 38 11 54 28 54 73 0 144-357 144-487v-5c4-5 9-7 12-7 5 0 9 5 9 20 0 128-34 297-77 459h114c44-175 75-359 75-461 0-98-23-147-65-147zm192 628c114 0 204-140 329-608H802c-102 379-158 478-176 478-6 0-10-10-10-45 0-45 21-171 92-433H583c-54 200-87 338-87 444 0 116 49 164 102 164zm595-164c-70 36-102 44-132 44-33 0-66-24-66-108 0-100 65-282 108-282 20 0 16 92-18 263h120c63-256 25-381-77-381-132 0-252 210-252 434 0 127 79 194 161 194 53 0 86-15 120-31zm381-464c-23 0-48 10-74 28l62-244h-123l-107 444c-66 111-112 237-106 318 3 42 20 82 53 82 71 0 143-291 179-432l10-39c24-25 42-41 50-41 12 0 19 25 5 80l-103 412h122l103-412c26-105 8-196-71-196zm0 0"/></svg>