<svg width="1696" height="1100.002" xmlns="http://www.w3.org/2000/svg"><path d="M406 266.002c-26 0-52 21-78 56-12-40-34-56-67-56-99 0-194 335-261 608h115c55-256 113-477 132-477 5 0 6 7 6 17 0 18-1 39-3 60-49 126-84 280-84 366 0 38 11 54 28 54 73 0 144-357 144-487v-5c4-5 9-7 12-7 5 0 9 5 9 20 0 128-34 297-77 459h114c44-175 75-359 75-461 0-98-23-147-65-147zm192 628c114 0 204-140 329-608H802c-102 379-158 478-176 478-6 0-10-10-10-45 0-45 21-171 92-433H583c-54 200-87 338-87 444 0 116 49 164 102 164zm676-546c0-89-58-148-133-148-120 0-189 121-189 238 0 72 23 143 48 209-58 68-130 144-208 227h155c33-34 66-69 99-106 9 26 14 50 14 71 0 83-63 123-120 123-49 0-100-19-137-32l-30 115c31 12 92 29 155 29 139 0 252-87 252-253 0-57-17-114-37-171 76-101 131-206 131-302zm-203 45c0-52 21-85 48-85 16 0 34 26 34 62 0 45-21 95-57 152-14-44-25-87-25-129zm380 505c34 0 68-12 95-25l31-118c-27 14-49 24-75 24-49 0-58-55-58-101 0-98 40-186 86-275h138l28-117h-107l52-151-291 151-28 117h81c-46 93-85 195-85 302 0 102 40 193 133 193zm0 0"/></svg>