<svg width="1980" height="1100.002" xmlns="http://www.w3.org/2000/svg"><path d="M339 266.002c-38 0-80 24-120 64 0-15-1-30-2-44H95v213c-56 102-95 217-95 297 0 47 14 98 59 98 58 0 132-221 154-435 31-46 58-75 73-75 26 0 19 56 8 101l-98 389h118l98-394c26-103 12-214-73-214zm485 110c0-71-43-114-112-114-153 0-289 210-289 414 0 123 61 218 175 218 33 0 70-6 104-20l33-118c-42 17-73 30-102 30-49 0-81-32-88-87h198l30-106h-58c64-62 109-141 109-217zm-149 5c11 0 24 12 24 37 0 33-55 106-148 174 21-111 80-211 124-211zm375-95c1 22 1 44 1 64 0 324-84 414-101 414-6 0-10-10-10-36 0-64 19-184 81-442H896c-47 191-73 328-73 426 0 139 42 182 104 182 88 0 241-175 241-468v-23h44l29-117zm544 90c0-71-43-114-112-114-153 0-289 210-289 414 0 123 61 218 175 218 33 0 70-6 104-20l33-118c-42 17-73 30-102 30-49 0-81-32-88-87h198l30-106h-58c64-62 109-141 109-217zm-149 5c11 0 24 12 24 37 0 33-55 106-148 174 21-111 80-211 124-211zm450-115c-41 0-83 24-124 63v-43h-122l7 195c-60 106-102 230-102 315 0 47 14 98 59 98 62 0 130-157 151-426 31-47 59-81 71-81 6 0 11 7 11 28 0 22-5 50-21 107h125c21-57 30-105 30-144 0-73-33-112-85-112zm0 0"/></svg>