<svg width="1711" height="1100.002" xmlns="http://www.w3.org/2000/svg"><path d="M406 266.002c-39 0-81 25-125 80l6-60H173c-10 101-15 188-15 261v20c-51 121-104 280-158 483h119c23-94 46-178 68-253 23 67 55 96 93 96 135 0 214-291 214-452 0-102-20-175-88-175zm-118 509c-11 0-22-58-22-169 0-16 0-33 1-51 39-103 71-159 89-159 17 0 21 16 21 64 0 118-69 315-89 315zm542-489c-4 17-9 34-14 51-20-45-48-71-81-71-134 0-237 306-237 472 0 87 37 156 91 156 34 0 74-33 116-87l-15 67h105c34-127 50-235 53-322 37-86 70-179 94-266zm-191 487c-15 0-19-17-19-46 0-118 74-341 113-341 15 0 21 47 21 91 0 21-2 46-5 76-44 127-87 220-110 220zm572-507c-41 0-83 24-124 63v-43H965l7 195c-60 106-102 230-102 315 0 47 14 98 59 98 62 0 130-157 151-426 31-47 59-81 71-81 6 0 11 7 11 28 0 22-5 50-21 107h125c21-57 30-105 30-144 0-73-33-112-85-112zm255 632c34 0 68-12 95-25l31-118c-27 14-49 24-75 24-49 0-58-55-58-101 0-98 40-186 86-275h138l28-117h-107l52-151-291 151-28 117h81c-46 93-85 195-85 302 0 102 40 193 133 193zm0 0"/></svg>