<svg width="2835" height="1100.002" xmlns="http://www.w3.org/2000/svg"><path d="M406 266.002c-39 0-81 25-125 80l6-60H173c-10 101-15 188-15 261v20c-51 121-104 280-158 483h119c23-94 46-178 68-253 23 67 55 96 93 96 135 0 214-291 214-452 0-102-20-175-88-175zm-118 509c-11 0-22-58-22-169 0-16 0-33 1-51 39-103 71-159 89-159 17 0 21 16 21 64 0 118-69 315-89 315zm542-489c-4 17-9 34-14 51-20-45-48-71-81-71-134 0-237 306-237 472 0 87 37 156 91 156 34 0 74-33 116-87l-15 67h105c34-127 50-235 53-322 37-86 70-179 94-266zm-191 487c-15 0-19-17-19-46 0-118 74-341 113-341 15 0 21 47 21 91 0 21-2 46-5 76-44 127-87 220-110 220zm650-425c0-89-58-148-133-148-120 0-189 121-189 238 0 72 23 143 48 209-58 68-130 144-208 227h155c33-34 66-69 99-106 9 26 14 50 14 71 0 83-63 123-120 123-49 0-100-19-137-32l-30 115c31 12 92 29 155 29 139 0 252-87 252-253 0-57-17-114-37-171 76-101 131-206 131-302zm-203 45c0-52 21-85 48-85 16 0 34 26 34 62 0 45-21 95-57 152-14-44-25-87-25-129zm588-45c0-89-58-148-133-148-120 0-189 121-189 238 0 72 23 143 48 209-58 68-130 144-208 227h155c33-34 66-69 99-106 9 26 14 50 14 71 0 83-63 123-120 123-49 0-100-19-137-32l-30 115c31 12 92 29 155 29 139 0 252-87 252-253 0-57-17-114-37-171 76-101 131-206 131-302zm-203 45c0-52 21-85 48-85 16 0 34 26 34 62 0 45-21 95-57 152-14-44-25-87-25-129zm514-107c-4 17-9 34-14 51-20-45-48-71-81-71-134 0-237 306-237 472 0 87 37 156 91 156 34 0 74-33 116-87l-15 67h105c34-127 50-235 53-322 37-86 70-179 94-266zm-191 487c-15 0-19-17-19-46 0-118 74-341 113-341 15 0 21 47 21 91 0 21-2 46-5 76-44 127-87 220-110 220zm565-507c-188 0-322 253-322 467 0 96 44 160 99 160 20 0 40-9 58-25-33 71-86 91-131 91-31 0-65-9-107-29l-29 113c51 20 102 27 133 27 111 0 223-51 281-280l127-501c-38-15-74-23-109-23zm-181 507c-15 0-24-31-24-73 0-126 93-309 178-320-44 160-125 393-154 393zm657-397c0-71-43-114-112-114-153 0-289 210-289 414 0 123 61 218 175 218 33 0 70-6 104-20l33-118c-42 17-73 30-102 30-49 0-81-32-88-87h198l30-106h-58c64-62 109-141 109-217zm-149 5c11 0 24 12 24 37 0 33-55 106-148 174 21-111 80-211 124-211zm0 0"/></svg>