<svg width="2101" height="1100.002" xmlns="http://www.w3.org/2000/svg"><path d="M406 266.002c-39 0-81 25-125 80l6-60H173c-10 101-15 188-15 261v20c-51 121-104 280-158 483h119c23-94 46-178 68-253 23 67 55 96 93 96 135 0 214-291 214-452 0-102-20-175-88-175zm-118 509c-11 0-22-58-22-169 0-16 0-33 1-51 39-103 71-159 89-159 17 0 21 16 21 64 0 118-69 315-89 315zm538-509c-41 0-83 24-124 63v-43H580l7 195c-60 106-102 230-102 315 0 47 14 98 59 98 62 0 130-157 151-426 31-47 59-81 71-81 6 0 11 7 11 28 0 22-5 50-21 107h125c21-57 30-105 30-144 0-73-33-112-85-112zm362 0c-37 0-69 19-94 48h-85c-62 112-122 278-122 397 0 113 68 183 147 183 159 0 274-255 274-451 0-109-51-177-120-177zm-52 412c-10-70-18-140-18-201 0-57 21-107 42-107 17 0 27 33 27 89 0 77-22 157-51 219zm-95 108c-26 0-42-29-42-93 0-54 10-117 29-182v11c0 78 9 140 18 198h67c-24 40-51 66-72 66zm516-500c1 22 1 44 1 64 0 324-84 414-101 414-6 0-10-10-10-36 0-64 19-184 81-442h-125c-47 191-73 328-73 426 0 139 42 182 104 182 88 0 241-175 241-468v-23h44l29-117zm544 90c0-71-43-114-112-114-153 0-289 210-289 414 0 123 61 218 175 218 33 0 70-6 104-20l33-118c-42 17-73 30-102 30-49 0-81-32-88-87h198l30-106h-58c64-62 109-141 109-217zm-149 5c11 0 24 12 24 37 0 33-55 106-148 174 21-111 80-211 124-211zm0 0"/></svg>