<svg width="1895" height="1100.002" xmlns="http://www.w3.org/2000/svg"><path d="M398 445.002c0-112-48-183-130-183-159 0-268 270-268 426 0 132 54 210 131 210 36 0 73-23 108-59-4 30-11 65-20 117h120c18-101 25-177 25-240 0-23-3-47-9-71 26-69 43-140 43-200zm-285 281c-4-13-5-24-5-30 0-174 101-324 140-324 21 0 31 35 31 84 0 17-2 39-6 65-9-5-19-7-29-7-76 0-131 104-131 212zm90 62c-12 0-18-34-18-70 0-38 15-89 36-89 12 0 18 16 22 47-16 63-32 112-40 112zm296 106c114 0 204-140 329-608H703c-102 379-158 478-176 478-6 0-10-10-10-45 0-45 21-171 92-433H484c-54 200-87 338-87 444 0 116 49 164 102 164zm536-655c61 0 109-44 109-100 0-45-28-76-81-76-61 0-111 44-111 100 0 45 31 76 83 76zm-102 655c32 0 51-5 78-18l30-118c-26 14-45 19-62 19-39 0-55-31-55-76 0-121 99-274 199-415H869l-28 117h69c-55 96-111 219-111 326 0 86 46 165 134 165zm361 4c34 0 68-12 95-25l31-118c-27 14-49 24-75 24-49 0-58-55-58-101 0-98 40-186 86-275h138l28-117h-107l52-151-291 151-28 117h81c-46 93-85 195-85 302 0 102 40 193 133 193zm601-522c0-71-43-114-112-114-153 0-289 210-289 414 0 123 61 218 175 218 33 0 70-6 104-20l33-118c-42 17-73 30-102 30-49 0-81-32-88-87h198l30-106h-58c64-62 109-141 109-217zm-149 5c11 0 24 12 24 37 0 33-55 106-148 174 21-111 80-211 124-211zm0 0"/></svg>