<svg width="4684" height="1100.002" xmlns="http://www.w3.org/2000/svg"><path d="M418 397.002c18-61 24-95 24-130 0-99-46-180-147-180-105 0-180 90-180 204 0 60 28 124 55 189-108 50-170 141-170 242 0 102 56 172 150 172 125 0 195-116 195-237 0-38-8-74-19-110 16-1 33-2 51-1l30-108c-43-2-84 0-121 7-27-62-52-121-52-178 0-39 20-74 46-74 23 0 44 30 44 81 0 28-4 59-21 123zm-192 280c0 76-33 111-63 111s-48-31-48-64c0-68 33-119 93-149 11 34 18 68 18 102zm474-411c-39 0-81 25-125 80l6-60H467c-10 101-15 188-15 261v20c-51 121-104 280-158 483h119c23-94 46-178 68-253 23 67 55 96 93 96 135 0 214-291 214-452 0-102-20-175-88-175zm-118 509c-11 0-22-58-22-169 0-16 0-33 1-51 39-103 71-159 89-159 17 0 21 16 21 64 0 118-69 315-89 315zm542-489c-4 17-9 34-14 51-20-45-48-71-81-71-134 0-237 306-237 472 0 87 37 156 91 156 34 0 74-33 116-87l-15 67h105c34-127 50-235 53-322 37-86 70-179 94-266zm-191 487c-15 0-19-17-19-46 0-118 74-341 113-341 15 0 21 47 21 91 0 21-2 46-5 76-44 127-87 220-110 220zm569-43c-70 36-102 44-132 44-33 0-66-24-66-108 0-100 65-282 108-282 20 0 16 92-18 263h120c63-256 25-381-77-381-132 0-252 210-252 434 0 127 79 194 161 194 53 0 86-15 120-31zm472-354c0-71-43-114-112-114-153 0-289 210-289 414 0 123 61 218 175 218 33 0 70-6 104-20l33-118c-42 17-73 30-102 30-49 0-81-32-88-87h198l30-106h-58c64-62 109-141 109-217zm-149 5c11 0 24 12 24 37 0 33-55 106-148 174 21-111 80-211 124-211zm573-202c0-99-58-152-122-152-134 0-234 192-234 416 0 62 6 125 19 197-58 81-120 161-179 234h151l61-82c6 26 13 53 21 82h129c-20-81-38-153-52-219 115-164 206-326 206-476zm-235 215c3-76 45-249 89-249 13 0 23 15 23 48 0 77-45 180-110 290-3-31-4-60-2-89zm501-108c-4 17-9 34-14 51-20-45-48-71-81-71-134 0-237 306-237 472 0 87 37 156 91 156 34 0 74-33 116-87l-15 67h105c34-127 50-235 53-322 37-86 70-179 94-266zm-191 487c-15 0-19-17-19-46 0-118 74-341 113-341 15 0 21 47 21 91 0 21-2 46-5 76-44 127-87 220-110 220zm571-507c-38 0-80 24-120 64 0-15-1-30-2-44h-122v213c-56 102-95 217-95 297 0 47 14 98 59 98 58 0 132-221 154-435 31-46 58-75 73-75 26 0 19 56 8 101l-98 389h118l98-394c26-103 12-214-73-214zm454-159c-21 81-41 157-61 225-20-42-47-66-79-66-134 0-237 306-237 472 0 87 35 156 87 156 37 0 78-32 120-89-4 22-9 45-15 69h105c37-137 52-251 53-341 50-122 97-267 139-426zm-236 666c-15 0-19-17-19-46 0-118 74-341 113-341 15 0 21 47 21 91 0 17-1 37-3 61-51 151-91 235-112 235zm658-397c0-71-43-114-112-114-153 0-289 210-289 414 0 123 61 218 175 218 33 0 70-6 104-20l33-118c-42 17-73 30-102 30-49 0-81-32-88-87h198l30-106h-58c64-62 109-141 109-217zm-149 5c11 0 24 12 24 37 0 33-55 106-148 174 21-111 80-211 124-211zm450-115c-41 0-83 24-124 63v-43h-122l7 195c-60 106-102 230-102 315 0 47 14 98 59 98 62 0 130-157 151-426 31-47 59-81 71-81 6 0 11 7 11 28 0 22-5 50-21 107h125c21-57 30-105 30-144 0-73-33-112-85-112zm463 82c0-89-58-148-133-148-120 0-189 121-189 238 0 72 23 143 48 209-58 68-130 144-208 227h155c33-34 66-69 99-106 9 26 14 50 14 71 0 83-63 123-120 123-49 0-100-19-137-32l-30 115c31 12 92 29 155 29 139 0 252-87 252-253 0-57-17-114-37-171 76-101 131-206 131-302zm-203 45c0-52 21-85 48-85 16 0 34 26 34 62 0 45-21 95-57 152-14-44-25-87-25-129zm0 0"/></svg>