<svg width="1656" height="1100.002" xmlns="http://www.w3.org/2000/svg"><path d="M501 348.002c0-89-58-148-133-148-120 0-189 121-189 238 0 72 23 143 48 209-58 68-130 144-208 227h155c33-34 66-69 99-106 9 26 14 50 14 71 0 83-63 123-120 123-49 0-100-19-137-32l-30 115c31 12 92 29 155 29 139 0 252-87 252-253 0-57-17-114-37-171 76-101 131-206 131-302zm-203 45c0-52 21-85 48-85 16 0 34 26 34 62 0 45-21 95-57 152-14-44-25-87-25-129zm514-107c-4 17-9 34-14 51-20-45-48-71-81-71-134 0-237 306-237 472 0 87 37 156 91 156 34 0 74-33 116-87l-15 67h105c34-127 50-235 53-322 37-86 70-179 94-266zm-191 487c-15 0-19-17-19-46 0-118 74-341 113-341 15 0 21 47 21 91 0 21-2 46-5 76-44 127-87 220-110 220zm554-487c-26 31-53 64-80 99l-30-99H934c25 78 48 155 66 225-99 142-177 289-177 399 0 96 57 160 132 160 139 0 211-172 211-323 0-60-13-137-34-223 64-85 136-168 200-238zm-129 483c0 70-28 179-75 179-16 0-26-17-26-46 0-65 36-148 90-237 7 40 11 75 11 104zm610-421c0-89-58-148-133-148-120 0-189 121-189 238 0 72 23 143 48 209-58 68-130 144-208 227h155c33-34 66-69 99-106 9 26 14 50 14 71 0 83-63 123-120 123-49 0-100-19-137-32l-30 115c31 12 92 29 155 29 139 0 252-87 252-253 0-57-17-114-37-171 76-101 131-206 131-302zm-203 45c0-52 21-85 48-85 16 0 34 26 34 62 0 45-21 95-57 152-14-44-25-87-25-129zm0 0"/></svg>