<svg width="3979" height="1100.002" xmlns="http://www.w3.org/2000/svg"><path d="M501 348.002c0-89-58-148-133-148-120 0-189 121-189 238 0 72 23 143 48 209-58 68-130 144-208 227h155c33-34 66-69 99-106 9 26 14 50 14 71 0 83-63 123-120 123-49 0-100-19-137-32l-30 115c31 12 92 29 155 29 139 0 252-87 252-253 0-57-17-114-37-171 76-101 131-206 131-302zm-203 45c0-52 21-85 48-85 16 0 34 26 34 62 0 45-21 95-57 152-14-44-25-87-25-129zm594-17c0-71-43-114-112-114-153 0-289 210-289 414 0 123 61 218 175 218 33 0 70-6 104-20l33-118c-42 17-73 30-102 30-49 0-81-32-88-87h198l30-106h-58c64-62 109-141 109-217zm-149 5c11 0 24 12 24 37 0 33-55 106-148 174 21-111 80-211 124-211zm449-115c-38 0-80 24-120 64 0-15-1-30-2-44H948v213c-56 102-95 217-95 297 0 47 14 98 59 98 58 0 132-221 154-435 31-46 58-75 73-75 26 0 19 56 8 101l-98 389h118l98-394c26-103 12-214-73-214zm271 632c34 0 68-12 95-25l31-118c-27 14-49 24-75 24-49 0-58-55-58-101 0-98 40-186 86-275h138l28-117h-107l52-151-291 151-28 117h81c-46 93-85 195-85 302 0 102 40 193 133 193zm601-522c0-71-43-114-112-114-153 0-289 210-289 414 0 123 61 218 175 218 33 0 70-6 104-20l33-118c-42 17-73 30-102 30-49 0-81-32-88-87h198l30-106h-58c64-62 109-141 109-217zm-149 5c11 0 24 12 24 37 0 33-55 106-148 174 21-111 80-211 124-211zm449-115c-38 0-80 24-120 64 0-15-1-30-2-44h-122v213c-56 102-95 217-95 297 0 47 14 98 59 98 58 0 132-221 154-435 31-46 58-75 73-75 26 0 19 56 8 101l-98 389h118l98-394c26-103 12-214-73-214zm398 464c-70 36-102 44-132 44-33 0-66-24-66-108 0-100 65-282 108-282 20 0 16 92-18 263h120c63-256 25-381-77-381-132 0-252 210-252 434 0 127 79 194 161 194 53 0 86-15 120-31zm326-491c61 0 109-44 109-100 0-45-28-76-81-76-61 0-111 44-111 100 0 45 31 76 83 76zm-102 655c32 0 51-5 78-18l30-118c-26 14-45 19-62 19-39 0-55-31-55-76 0-121 99-274 199-415h-254l-28 117h69c-55 96-111 219-111 326 0 86 46 165 134 165zm490-628c-38 0-80 24-120 64 0-15-1-30-2-44h-122v213c-56 102-95 217-95 297 0 47 14 98 59 98 58 0 132-221 154-435 31-46 58-75 73-75 26 0 19 56 8 101l-98 389h118l98-394c26-103 12-214-73-214zm394 0c-188 0-322 253-322 467 0 96 44 160 99 160 20 0 40-9 58-25-33 71-86 91-131 91-31 0-65-9-107-29l-29 113c51 20 102 27 133 27 111 0 223-51 281-280l127-501c-38-15-74-23-109-23zm-181 507c-15 0-24-31-24-73 0-126 93-309 178-320-44 160-125 393-154 393zm0 0"/></svg>