<svg width="3706" height="1100.002" xmlns="http://www.w3.org/2000/svg"><path d="M501 348.002c0-89-58-148-133-148-120 0-189 121-189 238 0 72 23 143 48 209-58 68-130 144-208 227h155c33-34 66-69 99-106 9 26 14 50 14 71 0 83-63 123-120 123-49 0-100-19-137-32l-30 115c31 12 92 29 155 29 139 0 252-87 252-253 0-57-17-114-37-171 76-101 131-206 131-302zm-203 45c0-52 21-85 48-85 16 0 34 26 34 62 0 45-21 95-57 152-14-44-25-87-25-129zm297 501c114 0 204-140 329-608H799c-102 379-158 478-176 478-6 0-10-10-10-45 0-45 21-171 92-433H580c-54 200-87 338-87 444 0 116 49 164 102 164zm580-628c-39 0-81 25-125 80l6-60H942c-10 101-15 188-15 261v20c-51 121-104 280-158 483h119c23-94 46-178 68-253 23 67 55 96 93 96 135 0 214-291 214-452 0-102-20-175-88-175zm-118 509c-11 0-22-58-22-169 0-16 0-33 1-51 39-103 71-159 89-159 17 0 21 16 21 64 0 118-69 315-89 315zm538-509c-41 0-83 24-124 63v-43h-122l7 195c-60 106-102 230-102 315 0 47 14 98 59 98 62 0 130-157 151-426 31-47 59-81 71-81 6 0 11 7 11 28 0 22-5 50-21 107h125c21-57 30-105 30-144 0-73-33-112-85-112zm469 110c0-71-43-114-112-114-153 0-289 210-289 414 0 123 61 218 175 218 33 0 70-6 104-20l33-118c-42 17-73 30-102 30-49 0-81-32-88-87h198l30-106h-58c64-62 109-141 109-217zm-149 5c11 0 24 12 24 37 0 33-55 106-148 174 21-111 80-211 124-211zm477-115c-26 0-52 21-78 56-12-40-34-56-67-56-99 0-194 335-261 608h115c55-256 113-477 132-477 5 0 6 7 6 17 0 18-1 39-3 60-49 126-84 280-84 366 0 38 11 54 28 54 73 0 144-357 144-487v-5c4-5 9-7 12-7 5 0 9 5 9 20 0 128-34 297-77 459h114c44-175 75-359 75-461 0-98-23-147-65-147zm409 20c-4 17-9 34-14 51-20-45-48-71-81-71-134 0-237 306-237 472 0 87 37 156 91 156 34 0 74-33 116-87l-15 67h105c34-127 50-235 53-322 37-86 70-179 94-266zm-191 487c-15 0-19-17-19-46 0-118 74-341 113-341 15 0 21 47 21 91 0 21-2 46-5 76-44 127-87 220-110 220zm569-43c-70 36-102 44-132 44-33 0-66-24-66-108 0-100 65-282 108-282 20 0 16 92-18 263h120c63-256 25-381-77-381-132 0-252 210-252 434 0 127 79 194 161 194 53 0 86-15 120-31zm370-444c-26 31-53 64-80 99l-30-99h-131c25 78 48 155 66 225-99 142-177 289-177 399 0 96 57 160 132 160 139 0 211-172 211-323 0-60-13-137-34-223 64-85 136-168 200-238zm-129 483c0 70-28 179-75 179-16 0-26-17-26-46 0-65 36-148 90-237 7 40 11 75 11 104zm0 0"/></svg>