<svg width="1949.773" height="1100.002" xmlns="http://www.w3.org/2000/svg"><path d="M194 898.002c34 0 68-12 95-25l31-118c-27 14-49 24-75 24-49 0-58-55-58-101 0-98 40-186 86-275h138l28-117H332l52-151-291 151-28 117h81c-46 93-85 195-85 302 0 102 40 193 133 193zm521-612c-4 17-9 34-14 51-20-45-48-71-81-71-134 0-237 306-237 472 0 87 37 156 91 156 34 0 74-33 116-87l-15 67h105c34-127 50-235 53-322 37-86 70-179 94-266zm-191 487c-15 0-19-17-19-46 0-118 74-341 113-341 15 0 21 47 21 91 0 21-2 46-5 76-44 127-87 220-110 220zm661-397c0-61-24-114-80-114-43 0-82 30-123 77l80-289H938l-208 824h123c17-82 35-157 54-223l55 223h124l-72-236c100-84 171-158 171-262zm-254 202c42-121 85-193 119-193 12 0 16 13 16 25 0 31-49 98-135 168zm634-202c0-71-43-114-112-114-153 0-289 210-289 414 0 123 61 218 175 218 33 0 70-6 104-20l33-118c-42 17-73 30-102 30-49 0-81-32-88-87h198l30-106h-58c64-62 109-141 109-217zm-149 5c11 0 24 12 24 37 0 33-55 106-148 174 21-111 80-211 124-211zm449-115c-38 0-80 24-120 64 0-15-1-30-2-44h-122v213c-56 102-95 217-95 297 0 47 14 98 59 98 58 0 132-221 154-435 31-46 58-75 73-75 26 0 19 56 8 101l-98 389h118l98-394c26-103 12-214-73-214zm0 0"/></svg>