<svg width="1589" height="1100.002" xmlns="http://www.w3.org/2000/svg"><path d="M194 898.002c34 0 68-12 95-25l31-118c-27 14-49 24-75 24-49 0-58-55-58-101 0-98 40-186 86-275h138l28-117H332l52-151-291 151-28 117h81c-46 93-85 195-85 302 0 102 40 193 133 193zm510-632c-23 0-48 10-74 28l62-244H569l-107 444c-66 111-112 237-106 318 3 42 20 82 53 82 71 0 143-291 179-432l10-39c24-25 42-41 50-41 12 0 19 25 5 80l-103 412h122l103-412c26-105 8-196-71-196zm476 110c0-71-43-114-112-114-153 0-289 210-289 414 0 123 61 218 175 218 33 0 70-6 104-20l33-118c-42 17-73 30-102 30-49 0-81-32-88-87h198l30-106h-58c64-62 109-141 109-217zm-149 5c11 0 24 12 24 37 0 33-55 106-148 174 21-111 80-211 124-211zm477-115c-26 0-52 21-78 56-12-40-34-56-67-56-99 0-194 335-261 608h115c55-256 113-477 132-477 5 0 6 7 6 17 0 18-1 39-3 60-49 126-84 280-84 366 0 38 11 54 28 54 73 0 144-357 144-487v-5c4-5 9-7 12-7 5 0 9 5 9 20 0 128-34 297-77 459h114c44-175 75-359 75-461 0-98-23-147-65-147zm0 0"/></svg>