<svg width="808" height="1100.002" xmlns="http://www.w3.org/2000/svg"><path d="M194 898.002c34 0 68-12 95-25l31-118c-27 14-49 24-75 24-49 0-58-55-58-101 0-98 40-186 86-275h138l28-117H332l52-151-291 151-28 117h81c-46 93-85 195-85 302 0 102 40 193 133 193zm494-632c-37 0-69 19-94 48h-85c-62 112-122 278-122 397 0 113 68 183 147 183 159 0 274-255 274-451 0-109-51-177-120-177zm-52 412c-10-70-18-140-18-201 0-57 21-107 42-107 17 0 27 33 27 89 0 77-22 157-51 219zm-95 108c-26 0-42-29-42-93 0-54 10-117 29-182v11c0 78 9 140 18 198h67c-24 40-51 66-72 66zm0 0"/></svg>