<svg width="2031" height="1100.002" xmlns="http://www.w3.org/2000/svg"><path d="M372 286.002c-55 256-113 477-132 477-5 0-6-7-6-17 0-18 1-39 3-60 49-126 84-280 84-366 0-38-11-54-28-54-73 0-144 357-144 487v5c-4 5-9 7-12 7-5 0-9-5-9-20 0-128 34-297 77-459H91c-44 175-75 359-75 461 0 98 23 147 65 147 26 0 52-21 78-56 12 40 34 56 67 56 99 0 194-335 261-608zm377-20c-23 0-48 10-74 28l62-244H614l-107 444c-66 111-112 237-106 318 3 42 20 82 53 82 71 0 143-291 179-432l10-39c24-25 42-41 50-41 12 0 19 25 5 80l-103 412h122l103-412c26-105 8-196-71-196zm369 0c-37 0-69 19-94 48h-85c-62 112-122 278-122 397 0 113 68 183 147 183 159 0 274-255 274-451 0-109-51-177-120-177zm-52 412c-10-70-18-140-18-201 0-57 21-107 42-107 17 0 27 33 27 89 0 77-22 157-51 219zm-95 108c-26 0-42-29-42-93 0-54 10-117 29-182v11c0 78 9 140 18 198h67c-24 40-51 66-72 66zm714-607c0-99-58-152-122-152-134 0-234 192-234 416 0 62 6 125 19 197-58 81-120 161-179 234h151l61-82c6 26 13 53 21 82h129c-20-81-38-153-52-219 115-164 206-326 206-476zm-235 215c3-76 45-249 89-249 13 0 23 15 23 48 0 77-45 180-110 290-3-31-4-60-2-89zm581-18c0-71-43-114-112-114-153 0-289 210-289 414 0 123 61 218 175 218 33 0 70-6 104-20l33-118c-42 17-73 30-102 30-49 0-81-32-88-87h198l30-106h-58c64-62 109-141 109-217zm-149 5c11 0 24 12 24 37 0 33-55 106-148 174 21-111 80-211 124-211zm0 0"/></svg>