<svg width="1651" height="1100.002" xmlns="http://www.w3.org/2000/svg"><path d="M372 286.002c-55 256-113 477-132 477-5 0-6-7-6-17 0-18 1-39 3-60 49-126 84-280 84-366 0-38-11-54-28-54-73 0-144 357-144 487v5c-4 5-9 7-12 7-5 0-9-5-9-20 0-128 34-297 77-459H91c-44 175-75 359-75 461 0 98 23 147 65 147 26 0 52-21 78-56 12 40 34 56 67 56 99 0 194-335 261-608zm361-20c-37 0-69 19-94 48h-85c-62 112-122 278-122 397 0 113 68 183 147 183 159 0 274-255 274-451 0-109-51-177-120-177zm-52 412c-10-70-18-140-18-201 0-57 21-107 42-107 17 0 27 33 27 89 0 77-22 157-51 219zm-95 108c-26 0-42-29-42-93 0-54 10-117 29-182v11c0 78 9 140 18 198h67c-24 40-51 66-72 66zm591-520c-41 0-83 24-124 63v-43H931l7 195c-60 106-102 230-102 315 0 47 14 98 59 98 62 0 130-157 151-426 31-47 59-81 71-81 6 0 11 7 11 28 0 22-5 50-21 107h125c21-57 30-105 30-144 0-73-33-112-85-112zm474 110c0-61-24-114-80-114-43 0-82 30-123 77l80-289h-124l-208 824h123c17-82 35-157 54-223l55 223h124l-72-236c100-84 171-158 171-262zm-254 202c42-121 85-193 119-193 12 0 16 13 16 25 0 31-49 98-135 168zm0 0"/></svg>