<svg width="1292" height="1100.002" xmlns="http://www.w3.org/2000/svg"><path d="M352 286.002c-26 31-53 64-80 99l-30-99H111c25 78 48 155 66 225-99 142-177 289-177 399 0 96 57 160 132 160 139 0 211-172 211-323 0-60-13-137-34-223 64-85 136-168 200-238zm-129 483c0 70-28 179-75 179-16 0-26-17-26-46 0-65 36-148 90-237 7 40 11 75 11 104zm509-503c-37 0-69 19-94 48h-85c-62 112-122 278-122 397 0 113 68 183 147 183 159 0 274-255 274-451 0-109-51-177-120-177zm-52 412c-10-70-18-140-18-201 0-57 21-107 42-107 17 0 27 33 27 89 0 77-22 157-51 219zm-95 108c-26 0-42-29-42-93 0-54 10-117 29-182v11c0 78 9 140 18 198h67c-24 40-51 66-72 66zm378 108c114 0 204-140 329-608h-125c-102 379-158 478-176 478-6 0-10-10-10-45 0-45 21-171 92-433H948c-54 200-87 338-87 444 0 116 49 164 102 164zm0 0"/></svg>