<?xml version="1.0" encoding="UTF-8" standalone="no"?>
<!DOCTYPE svg PUBLIC "-//W3C//DTD SVG 1.1//EN" "http://www.w3.org/Graphics/SVG/1.1/DTD/svg11.dtd">
<svg width="100%" height="100%" viewBox="0 0 5589 1000" version="1.1" xmlns="http://www.w3.org/2000/svg" xmlns:xlink="http://www.w3.org/1999/xlink" xml:space="preserve" xmlns:serif="http://www.serif.com/" style="fill-rule:evenodd;clip-rule:evenodd;stroke-linejoin:round;stroke-miterlimit:2;">
    <g transform="matrix(1,0,0,1,-2367,0)">
        <g id="Artboard1" transform="matrix(5.58854,0,0,1,-10863.6,0)">
            <rect x="2367.45" y="0" width="1000" height="1000" style="fill:none;"/>
            <g transform="matrix(0.417851,-0.190311,0.0143231,0.982184,331.408,1008.96)">
                <path d="M7209,690.982C7208.95,678.209 7206.95,664.549 7201.32,652.13C7196.06,640.518 7185.89,627.855 7170.63,617.023C7121.16,581.911 7010.14,551.657 6856.74,530.35C6648.28,501.393 6360.98,488.287 6043.99,497.06C5727.01,488.347 5439.71,501.39 5231.25,530.501C5077.88,551.92 4966.88,582.468 4917.43,617.559C4902.21,628.354 4892.06,640.931 4886.81,652.5C4881.23,664.794 4879.25,678.327 4879.19,690.982C4879.07,719.912 4912.78,719.31 4913.77,690.474C4919.45,684.472 4926.93,678.597 4936.09,672.712C5002.51,630.038 5150,591.354 5348.34,561.098C5541.5,531.632 5782.56,510.164 6043.99,502.94C6305.43,510.264 6546.48,531.787 6739.64,561.364C6937.95,591.73 7085.42,630.644 7151.83,673.275C7160.74,678.992 7168.06,684.679 7173.67,690.504C7172.88,713.805 7209.05,703.787 7209,690.982Z" style="fill:rgb(0,255,0);"/>
            </g>
            <g transform="matrix(0.126809,0,0,0.70868,2460.1,-135.218)">
                <g transform="matrix(1061.35,0,0,1061.35,-163.14,1264.17)">
                    <path d="M0.635,-0.19L0.631,-0.19C0.581,-0.164 0.504,-0.14 0.448,-0.14L0.444,-0.14C0.391,-0.14 0.359,-0.164 0.359,-0.205C0.359,-0.259 0.423,-0.34 0.634,-0.34L0.634,-0.5L0.44,-0.5L0.44,-0.65L0.22,-0.65L0.22,-0.5L0.04,-0.5L0.04,-0.34L0.237,-0.34C0.176,-0.301 0.139,-0.243 0.139,-0.17C0.139,-0.061 0.222,0.02 0.376,0.02L0.38,0.02C0.459,0.02 0.554,-0 0.635,-0.034L0.635,-0.19Z" style="fill-rule:nonzero;"/>
                </g>
                <g transform="matrix(1061.35,0,0,1061.35,579.803,1264.17)">
                    <path d="M0.587,-0.18L0.583,-0.18C0.523,-0.151 0.466,-0.13 0.401,-0.13L0.397,-0.13C0.325,-0.13 0.276,-0.165 0.276,-0.21L0.629,-0.21C0.633,-0.23 0.635,-0.24 0.635,-0.262C0.635,-0.419 0.534,-0.52 0.357,-0.52L0.353,-0.52C0.184,-0.52 0.066,-0.398 0.066,-0.25C0.066,-0.102 0.152,0.02 0.374,0.02L0.378,0.02C0.448,0.02 0.523,0.003 0.587,-0.026L0.587,-0.18ZM0.358,-0.38C0.4,-0.38 0.434,-0.343 0.434,-0.3L0.276,-0.3C0.276,-0.343 0.307,-0.38 0.354,-0.38L0.358,-0.38Z" style="fill-rule:nonzero;"/>
                </g>
                <g transform="matrix(1061.35,0,0,1061.35,1322.75,1264.17)">
                    <path d="M0.643,-0L0.643,-0.16L0.421,-0.16C0.401,-0.197 0.387,-0.241 0.387,-0.272C0.387,-0.323 0.425,-0.36 0.499,-0.36L0.503,-0.36C0.542,-0.36 0.6,-0.347 0.639,-0.33L0.643,-0.33L0.643,-0.482C0.59,-0.507 0.536,-0.52 0.478,-0.52L0.473,-0.52C0.402,-0.52 0.345,-0.5 0.301,-0.45L0.297,-0.45L0.275,-0.5L0.034,-0.5L0.205,-0.16L0.047,-0.16L0.047,-0L0.643,-0Z" style="fill-rule:nonzero;"/>
                </g>
                <g transform="matrix(1061.35,0,0,1061.35,2065.69,1264.17)">
                    <path d="M0.643,-0L0.643,-0.16L0.421,-0.16C0.401,-0.197 0.387,-0.241 0.387,-0.272C0.387,-0.323 0.425,-0.36 0.499,-0.36L0.503,-0.36C0.542,-0.36 0.6,-0.347 0.639,-0.33L0.643,-0.33L0.643,-0.482C0.59,-0.507 0.536,-0.52 0.478,-0.52L0.473,-0.52C0.402,-0.52 0.345,-0.5 0.301,-0.45L0.297,-0.45L0.275,-0.5L0.034,-0.5L0.205,-0.16L0.047,-0.16L0.047,-0L0.643,-0Z" style="fill-rule:nonzero;"/>
                </g>
                <g transform="matrix(1061.35,0,0,1061.35,2808.63,1264.17)">
                    <path d="M0.64,-0L0.64,-0.16L0.46,-0.16L0.46,-0.34L0.64,-0.34L0.64,-0.5L0.06,-0.5L0.06,-0.34L0.24,-0.34L0.24,-0.16L0.06,-0.16L0.06,-0L0.64,-0ZM0.352,-0.56C0.428,-0.56 0.49,-0.605 0.49,-0.681C0.49,-0.757 0.428,-0.8 0.352,-0.8L0.348,-0.8C0.272,-0.8 0.21,-0.757 0.21,-0.681C0.21,-0.605 0.272,-0.56 0.348,-0.56L0.352,-0.56Z" style="fill-rule:nonzero;"/>
                </g>
                <g transform="matrix(1061.35,0,0,1061.35,3551.58,1264.17)">
                    <path d="M0.635,-0.19L0.631,-0.19C0.581,-0.164 0.504,-0.14 0.448,-0.14L0.444,-0.14C0.391,-0.14 0.359,-0.164 0.359,-0.205C0.359,-0.259 0.423,-0.34 0.634,-0.34L0.634,-0.5L0.44,-0.5L0.44,-0.65L0.22,-0.65L0.22,-0.5L0.04,-0.5L0.04,-0.34L0.237,-0.34C0.176,-0.301 0.139,-0.243 0.139,-0.17C0.139,-0.061 0.222,0.02 0.376,0.02L0.38,0.02C0.459,0.02 0.554,-0 0.635,-0.034L0.635,-0.19Z" style="fill-rule:nonzero;"/>
                </g>
                <g transform="matrix(1061.35,0,0,1061.35,4294.52,1264.17)">
                    <path d="M0.352,0.02C0.569,0.02 0.66,-0.12 0.66,-0.25C0.66,-0.38 0.569,-0.52 0.352,-0.52L0.348,-0.52C0.133,-0.52 0.04,-0.38 0.04,-0.25C0.04,-0.12 0.133,0.02 0.348,0.02L0.352,0.02ZM0.348,-0.14C0.3,-0.14 0.26,-0.176 0.26,-0.25C0.26,-0.324 0.3,-0.36 0.348,-0.36L0.352,-0.36C0.397,-0.36 0.44,-0.326 0.44,-0.25C0.44,-0.174 0.397,-0.14 0.352,-0.14L0.348,-0.14Z" style="fill-rule:nonzero;"/>
                </g>
                <g transform="matrix(1061.35,0,0,1061.35,5037.46,1264.17)">
                    <path d="M0.643,-0L0.643,-0.16L0.421,-0.16C0.401,-0.197 0.387,-0.241 0.387,-0.272C0.387,-0.323 0.425,-0.36 0.499,-0.36L0.503,-0.36C0.542,-0.36 0.6,-0.347 0.639,-0.33L0.643,-0.33L0.643,-0.482C0.59,-0.507 0.536,-0.52 0.478,-0.52L0.473,-0.52C0.402,-0.52 0.345,-0.5 0.301,-0.45L0.297,-0.45L0.275,-0.5L0.034,-0.5L0.205,-0.16L0.047,-0.16L0.047,-0L0.643,-0Z" style="fill-rule:nonzero;"/>
                </g>
                <g transform="matrix(1061.35,0,0,1061.35,5780.41,1264.17)">
                    <path d="M0.69,-0.5L0.43,-0.5L0.365,-0.333L0.3,-0.5L0.04,-0.5L0.24,-0.187C0.273,-0.135 0.28,-0.096 0.28,-0.076C0.28,-0.045 0.263,-0.02 0.214,-0.02L0.21,-0.02C0.177,-0.02 0.136,-0.031 0.081,-0.05L0.077,-0.05L0.077,0.11C0.145,0.129 0.211,0.14 0.269,0.14L0.273,0.14C0.396,0.14 0.492,0.082 0.492,-0.049C0.492,-0.092 0.469,-0.138 0.453,-0.168L0.69,-0.5Z" style="fill-rule:nonzero;"/>
                </g>
            </g>
            <g transform="matrix(0.417851,-0.190311,0.0143231,0.982184,331.408,1008.71)">
                <path d="M4913.77,690.474C4919.5,696.211 4927.07,701.665 4936.32,707.162C5002.97,746.758 5150.55,778.592 5348.8,800.231C5452.3,811.529 5569.54,819.727 5696.26,825.124C5805.98,829.797 5922.81,832.755 6043.99,832.077C6139.91,832.549 6233.1,830.686 6322.19,827.81C6475.67,822.857 6616.99,813.531 6739.18,800.071C6937.42,778.234 7084.99,746.448 7151.62,706.772C7160.62,701.417 7173.67,690.504 7173.67,690.504C7173.67,690.504 7208.99,689.931 7209,690.982C7209.05,703.787 7206.95,717.359 7201.41,730.048C7196.21,741.929 7186.04,754.815 7170.81,766.359C7121.56,803.687 7010.63,839.147 6857.2,867.159C6722.99,891.66 6556.01,911.187 6369.38,922.186C6266.19,928.268 6156.98,931.183 6043.99,931.85C5931.01,931.245 5821.8,928.475 5718.6,922.363C5531.97,911.31 5365,891.376 5230.8,866.788C5077.39,838.68 4966.47,803.328 4917.23,765.953C4902.04,754.423 4891.89,741.562 4886.72,729.702C4881.23,717.115 4879.14,703.673 4879.19,690.982C4880.13,663.602 4914.51,669.006 4913.77,690.474Z" style="fill:rgb(0,255,0);"/>
            </g>
        </g>
    </g>
</svg>
