<?xml version="1.0" encoding="UTF-8" standalone="no"?>
<!DOCTYPE svg PUBLIC "-//W3C//DTD SVG 1.1//EN" "http://www.w3.org/Graphics/SVG/1.1/DTD/svg11.dtd">
<svg width="100%" height="100%" viewBox="0 0 2437 1000" version="1.1" xmlns="http://www.w3.org/2000/svg" xmlns:xlink="http://www.w3.org/1999/xlink" xml:space="preserve" xmlns:serif="http://www.serif.com/" style="fill-rule:evenodd;clip-rule:evenodd;stroke-linejoin:round;stroke-miterlimit:2;">
    <g id="t" transform="matrix(2.03069,0,0,1,0,0)">
        <rect x="0" y="0" width="1200" height="1000" style="fill:none;"/>
        <clipPath id="_clip1">
            <rect x="0" y="0" width="1200" height="1000"/>
        </clipPath>
        <g clip-path="url(#_clip1)">
            <g transform="matrix(1.24479,0,0,1,7.78001,0)">
                <rect x="-86.24" y="-83.928" width="1487.1" height="1320.07" style="fill:rgb(0,255,0);"/>
            </g>
            <g transform="matrix(0.287258,0,0,1,-19.9207,-5.2433)">
                <g transform="matrix(2.1377,0,0,1.24699,220.679,-326.932)">
                    <path d="M616.31,927.971L584.233,366.621L439.084,366.621L359.693,561.49L278.698,366.621L135.153,366.621L103.076,927.971L278.698,927.971L278.698,664.939L309.974,737.112L406.205,737.112L439.084,664.939L439.084,927.971L616.31,927.971Z" style="fill:white;fill-rule:nonzero;stroke:black;stroke-width:3.61px;"/>
                    <path d="M922.647,944.01C1096.66,944.01 1169.64,831.74 1169.64,727.489C1169.64,623.239 1096.66,510.969 922.647,510.969L919.439,510.969C747.025,510.969 672.445,623.239 672.445,727.489C672.445,831.74 747.025,944.01 919.439,944.01L922.647,944.01ZM919.439,815.701C880.947,815.701 848.87,786.832 848.87,727.489C848.87,668.147 880.947,639.277 919.439,639.277L922.647,639.277C958.734,639.277 993.217,666.543 993.217,727.489C993.217,788.436 958.734,815.701 922.647,815.701L919.439,815.701Z" style="fill:white;fill-rule:nonzero;stroke:black;stroke-width:3.61px;"/>
                    <path d="M1717.36,927.971L1717.36,799.663L1539.33,799.663C1523.29,769.991 1512.06,734.707 1512.06,709.847C1512.06,668.949 1542.54,639.277 1601.88,639.277L1605.09,639.277C1636.36,639.277 1682.88,649.702 1714.15,663.335L1717.36,663.335L1717.36,541.442C1674.86,521.394 1631.55,510.969 1585.04,510.969L1581.03,510.969C1524.09,510.969 1478.38,527.007 1443.1,567.104L1439.89,567.104L1422.25,527.007L1228.98,527.007L1366.11,799.663L1239.41,799.663L1239.41,927.971L1717.36,927.971Z" style="fill:white;fill-rule:nonzero;stroke:black;stroke-width:3.61px;"/>
                </g>
                <g transform="matrix(2.1377,0,0,1.24699,220.679,-326.932)">
                    <path d="M572.204,927.971L548.146,366.621L398.988,366.621L359.693,496.534L318.795,366.621L171.24,366.621L147.182,927.971L318.795,927.971L318.795,737.112L398.988,737.112L398.988,927.971L572.204,927.971Z" style="fill:white;fill-rule:nonzero;stroke:black;stroke-width:3.61px;"/>
                    <path d="M941.893,944.01C1072.61,944.01 1127.94,831.74 1127.94,727.489C1127.94,623.239 1072.61,510.969 941.893,510.969L900.193,510.969C770.281,510.969 714.146,623.239 714.146,727.489C714.146,831.74 771.083,944.01 899.391,944.01L941.893,944.01ZM887.362,727.489C887.362,681.779 901.797,654.514 921.043,644.089C940.289,654.514 954.724,680.977 954.724,727.489C954.724,774.001 939.487,800.465 921.043,810.89C901.797,800.465 887.362,773.199 887.362,727.489Z" style="fill:white;fill-rule:nonzero;stroke:black;stroke-width:3.61px;"/>
                    <path d="M1678.87,927.971L1678.87,799.663L1544.94,799.663C1532.91,769.991 1524.89,735.509 1524.89,709.847C1524.89,674.562 1540.93,648.098 1573.81,640.881C1594.66,644.891 1618.72,652.91 1636.36,663.335L1678.87,663.335L1678.87,541.442C1646.79,521.394 1613.91,510.969 1579.43,510.969L1536.12,510.969C1507.25,510.969 1481.59,518.186 1460.74,535.828L1457.53,527.007L1272.29,527.007L1374.93,799.663L1280.31,799.663L1280.31,927.971L1678.87,927.971Z" style="fill:white;fill-rule:nonzero;stroke:black;stroke-width:3.61px;"/>
                </g>
                <g transform="matrix(2.1377,0,0,1.24699,220.679,-326.932)">
                    <path d="M528.098,927.971L512.06,366.621L207.327,366.621L191.288,927.971L528.098,927.971Z" style="fill:white;fill-rule:nonzero;stroke:black;stroke-width:3.61px;"/>
                    <path d="M961.941,944.01C1049.35,944.01 1085.44,831.74 1085.44,727.489C1085.44,623.239 1049.35,510.969 961.941,510.969L880.145,510.969C794.338,510.969 756.648,623.239 756.648,727.489C756.648,831.74 794.338,944.01 880.145,944.01L961.941,944.01Z" style="fill:white;fill-rule:nonzero;stroke:black;stroke-width:3.61px;"/>
                    <path d="M1639.57,927.971L1639.57,799.663L1551.36,799.663C1543.34,769.991 1536.92,737.112 1536.92,709.847C1536.92,688.195 1541.74,669.75 1549.76,656.92C1552.96,659.325 1555.37,660.929 1557.77,663.335L1639.57,663.335L1639.57,541.442C1618.72,521.394 1597.07,510.969 1573.81,510.969L1492.02,510.969C1475.98,510.969 1462.35,515.78 1449.51,527.007L1315.59,527.007L1384.56,799.663L1320.4,799.663L1320.4,927.971L1639.57,927.971Z" style="fill:white;fill-rule:nonzero;stroke:black;stroke-width:3.61px;"/>
                </g>
                <g transform="matrix(2.1377,0,0,1.24699,220.679,-326.932)">
                    <path d="M483.992,927.971L475.973,366.621L243.414,366.621L235.394,927.971L483.992,927.971Z" style="fill:white;fill-rule:nonzero;stroke:black;stroke-width:3.61px;"/>
                    <path d="M981.188,944.01C1025.29,944.01 1042.94,831.74 1042.94,727.489C1042.94,623.239 1025.29,510.969 981.99,510.969L860.097,510.969C817.594,510.969 799.15,623.239 799.15,727.489C799.15,831.74 817.594,944.01 860.097,944.01L981.188,944.01Z" style="fill:white;fill-rule:nonzero;stroke:black;stroke-width:3.61px;"/>
                    <path d="M1601.08,927.971L1601.08,799.663L1556.97,799.663C1552.96,769.991 1549.76,737.914 1549.76,709.847C1549.76,691.402 1551.36,675.364 1554.57,663.335L1601.08,663.335L1601.08,541.442C1590.65,521.394 1580.23,510.969 1568.2,510.969L1447.11,510.969C1439.09,510.969 1431.87,515.78 1426.26,527.007L1358.9,527.007L1393.38,799.663L1361.3,799.663L1361.3,927.971L1601.08,927.971Z" style="fill:white;fill-rule:nonzero;stroke:black;stroke-width:3.61px;"/>
                </g>
                <g transform="matrix(2.1377,0,0,1.24699,220.679,-326.932)">
                    <rect x="279.5" y="366.621" width="160.386" height="561.35" style="fill:white;fill-rule:nonzero;stroke:black;stroke-width:3.61px;"/>
                    <rect x="840.85" y="510.969" width="160.386" height="433.041" style="fill:white;fill-rule:nonzero;stroke:black;stroke-width:3.61px;"/>
                    <rect x="1402.2" y="510.969" width="160.386" height="417.003" style="fill:white;fill-rule:nonzero;stroke:black;stroke-width:3.61px;"/>
                </g>
            </g>
        </g>
    </g>
</svg>
