<?xml version="1.0" encoding="UTF-8" standalone="no"?>
<!DOCTYPE svg PUBLIC "-//W3C//DTD SVG 1.1//EN" "http://www.w3.org/Graphics/SVG/1.1/DTD/svg11.dtd">
<svg width="100%" height="100%" viewBox="0 0 1200 1000" version="1.1" xmlns="http://www.w3.org/2000/svg" xmlns:xlink="http://www.w3.org/1999/xlink" xml:space="preserve" xmlns:serif="http://www.serif.com/" style="fill-rule:evenodd;clip-rule:evenodd;stroke-linejoin:round;stroke-miterlimit:2;">
    <rect id="Artboard1" x="0" y="0" width="1200" height="1000" style="fill:none;"/>
    <clipPath id="_clip1">
        <rect id="Artboard11" serif:id="Artboard1" x="0" y="0" width="1200" height="1000"/>
    </clipPath>
    <g clip-path="url(#_clip1)">
        <rect x="-86.24" y="-83.928" width="1487.1" height="1320.07" style="fill:rgb(0,255,0);"/>
        <g transform="matrix(1.24699,0,0,1.24699,48.4708,-234.381)">
            <rect x="348.106" y="228.343" width="215.27" height="721.156" style="fill:none;fill-rule:nonzero;stroke:black;stroke-width:2.41px;"/>
        </g>
        <g transform="matrix(1.24699,0,0,1.24699,48.4708,-234.381)">
            <path d="M662.401,723.465L552.613,723.465C544.002,733.152 533.239,741.763 521.399,750.373C517.093,738.534 513.864,724.541 513.864,707.319C513.864,649.196 549.384,562.012 662.401,562.012L662.401,389.796L557.995,389.796L557.995,228.343L331.961,228.343L331.961,389.796L235.089,389.796L235.089,562.012L341.648,562.012C308.281,603.99 288.907,666.418 288.907,744.992C287.83,862.314 333.037,949.498 415.916,949.498L525.704,949.498C567.682,949.498 619.347,927.971 662.401,891.375L662.401,723.465Z" style="fill:none;fill-rule:nonzero;stroke:black;stroke-width:2.41px;"/>
        </g>
        <g transform="matrix(1.24699,0,0,1.24699,48.4708,-234.381)">
            <path d="M612.889,723.465L538.62,723.465L538.62,707.319C538.62,649.196 555.842,562.012 612.889,562.012L612.889,389.796L561.224,389.796L561.224,228.343L340.572,228.343L340.572,389.796L292.136,389.796L292.136,562.012L344.877,562.012C327.655,603.99 317.968,666.418 317.968,744.992C317.968,862.314 340.572,949.498 381.473,949.498L544.002,949.498C565.529,949.498 591.362,927.971 612.889,891.375L612.889,723.465Z" style="fill:none;fill-rule:nonzero;stroke:black;stroke-width:2.41px;"/>
        </g>
        <g transform="matrix(1.24699,0,0,1.24699,48.4708,-234.381)">
            <path d="M712.989,723.465L655.943,723.465C622.576,746.068 576.293,767.595 536.468,774.053C507.406,766.519 490.185,742.839 490.185,707.319C490.185,649.196 541.849,562.012 711.913,562.012L711.913,389.796L554.766,389.796L554.766,228.343L324.426,228.343L324.426,389.796L178.043,389.796L178.043,562.012L337.343,562.012C287.83,603.99 258.769,666.418 258.769,744.992C258.769,862.314 325.503,949.498 449.283,949.498L506.33,949.498C569.835,949.498 647.332,927.971 712.989,891.375L712.989,723.465Z" style="fill:none;fill-rule:nonzero;stroke:black;stroke-width:2.41px;"/>
        </g>
        <g transform="matrix(1.24699,0,0,1.24699,48.4708,-234.381)">
            <path d="M762.501,723.465L758.196,723.465C704.379,751.45 621.499,777.282 561.224,777.282L556.918,777.282C499.872,777.282 465.428,751.45 465.428,707.319C465.428,649.196 534.315,562.012 761.425,562.012L761.425,389.796L552.613,389.796L552.613,228.343L315.816,228.343L315.816,389.796L122.072,389.796L122.072,562.012L334.114,562.012C268.456,603.99 228.631,666.418 228.631,744.992C228.631,862.314 317.968,949.498 483.726,949.498L488.032,949.498C573.064,949.498 675.317,927.971 762.501,891.375L762.501,723.465Z" style="fill:none;fill-rule:nonzero;stroke:black;stroke-width:2.41px;"/>
        </g>
    </g>
</svg>
