<?xml version="1.0" encoding="UTF-8"?>
<svg width="5592.0" height="1071.0" viewBox="0 0 5592.0 1071.0" version="1.1" xmlns="http://www.w3.org/2000/svg" xmlns:xlink="http://www.w3.org/1999/xlink">
 <path d="M671,200 c-23,341,-100,788,-319,788 c-210,0,-300,-447,-323,-788 l190,0 c5,66,12,132,19,195 l224,0 c7,-63,14,-129,19,-195 Z M262,567 c23,141,53,242,88,242 c35,0,65,-101,88,-242 Z M1105,788 l68,236 l-192,0 l-70,-236 l-175,0 l0,-167 c40,-11,78,-24,113,-39 l-26,-88 c-32,-108,-41,-163,-41,-213 c0,-197,140,-281,273,-281 c147,0,267,115,267,281 c0,138,-101,277,-201,338 l238,0 l0,169 Z M1133,281 c0,-61,-24,-116,-75,-116 c-37,0,-83,44,-83,116 c0,48,9,85,21,127 l21,73 c75,-63,116,-135,116,-200 Z M1867,812 c-75,0,-147,-35,-207,-92 c-14,25,-28,48,-40,68 l-196,0 c47,-74,91,-166,116,-253 c-22,-59,-35,-124,-35,-190 c0,-105,53,-169,121,-169 c99,0,134,120,134,212 c0,62,-15,126,-36,187 c33,49,76,77,106,77 c45,0,69,-43,69,-156 l188,0 c0,192,-57,316,-220,316 Z M2450,835 c79,0,131,47,131,118 c0,69,-52,118,-131,118 c-78,0,-130,-49,-130,-118 c0,-71,52,-118,130,-118 Z M2602,352 c-60,0,-93,50,-93,128 c0,100,53,256,76,308 l-453,0 l0,-169 l224,0 c-23,-70,-33,-128,-33,-190 c0,-161,118,-253,248,-253 c68,0,114,17,201,53 l0,170 c-87,-35,-126,-47,-170,-47 Z M3334,439 c67,60,123,120,123,207 c0,96,-62,166,-175,166 c-69,0,-142,-27,-208,-71 c-9,87,-22,181,-37,283 l-192,0 c32,-194,47,-332,53,-472 c-37,-64,-59,-136,-59,-207 c0,-105,53,-169,122,-169 c91,0,127,142,127,306 c0,28,-1,57,-2,86 c47,51,101,87,144,87 c25,0,40,-24,40,-51 c0,-41,-49,-110,-129,-162 l122,-242 l211,0 Z M3850,176 c189,0,322,139,322,318 c0,179,-133,318,-322,318 c-189,0,-322,-139,-322,-318 c0,-179,133,-318,322,-318 Z M3850,339 c-80,0,-133,62,-133,155 c0,93,53,155,133,155 c81,0,133,-62,133,-155 c0,-93,-52,-155,-133,-155 Z M4888,200 c-87,94,-162,176,-225,248 c119,148,165,235,165,328 c0,184,-132,266,-278,266 c-132,0,-278,-82,-278,-266 c0,-94,40,-184,159,-334 c-60,-68,-133,-148,-219,-242 l238,0 l95,108 c30,-33,62,-69,98,-108 Z M4460,788 c0,65,46,92,91,92 c46,0,91,-28,91,-92 c0,-54,-30,-116,-92,-200 c-58,81,-90,146,-90,200 Z M5563,200 c-7,119,-27,225,-56,313 c26,89,40,185,44,275 l-177,0 c-1,-15,-1,-29,-2,-43 c-47,44,-100,67,-158,67 c-138,0,-276,-112,-276,-323 c0,-177,101,-313,260,-313 c67,0,124,28,172,76 c1,-17,3,-34,4,-52 Z M5223,339 c-62,0,-97,79,-97,155 c0,108,43,155,87,155 c40,0,86,-60,120,-182 c-27,-88,-64,-128,-110,-128 Z M5223,339" fill="rgb(0,0,0)" transform="matrix(1,0,0,-1,0.0,1071.0)"/>
</svg>