<?xml version="1.0" encoding="UTF-8"?>
<svg width="6341.0" height="1043.0" viewBox="0 0 6341.0 1043.0" version="1.1" xmlns="http://www.w3.org/2000/svg" xmlns:xlink="http://www.w3.org/1999/xlink">
 <path d="M365,963 c-5,-17,-9,-34,-14,-51 c-16,41,-40,71,-75,71 c-155,0,-261,-442,-261,-634 c0,-127,46,-173,89,-173 c32,0,63,28,97,81 l-10,-61 l110,0 c38,206,66,357,75,468 c33,88,67,188,106,299 Z M149,312 c-8,0,-12,13,-12,38 c0,158,98,520,140,520 c6,0,9,-11,9,-32 c0,-54,-11,-140,-27,-239 c-56,-182,-97,-287,-110,-287 Z M628,785 l62,235 l-124,0 l-62,-235 l-57,0 c14,-21,27,-45,39,-70 l-79,-301 c-23,-87,-33,-158,-33,-225 c0,-134,63,-189,131,-189 c139,0,187,203,187,330 c0,115,-33,251,-72,338 l167,0 l28,117 Z M514,115 c-13,0,-20,26,-20,71 c0,54,10,133,35,228 l23,88 c13,-63,19,-126,19,-181 c0,-100,-21,-206,-57,-206 Z M1093,804 c-41,0,-83,-24,-124,-63 l0,43 l-122,0 l7,-195 c-60,-106,-102,-230,-102,-315 c0,-47,14,-98,59,-98 c62,0,130,157,151,426 c31,47,59,81,71,81 c6,0,11,-7,11,-28 c0,-22,-5,-50,-21,-107 l125,0 c21,57,30,105,30,144 c0,73,-33,112,-85,112 Z M1416,831 c61,0,109,44,109,100 c0,45,-28,76,-81,76 c-61,0,-111,-44,-111,-100 c0,-45,31,-76,83,-76 Z M1314,176 c32,0,51,5,78,18 l30,118 c-26,-14,-45,-19,-62,-19 c-39,0,-55,31,-55,76 c0,121,99,274,199,415 l-254,0 l-28,-117 l69,0 c-55,-96,-111,-219,-111,-326 c0,-86,46,-165,134,-165 Z M1894,694 c0,61,-24,114,-80,114 c-43,0,-82,-30,-123,-77 l80,289 l-124,0 l-208,-824 l123,0 c17,82,35,157,54,223 l55,-223 l124,0 l-72,236 c100,84,171,158,171,262 Z M1640,492 c42,121,85,193,119,193 c12,0,16,-13,16,-25 c0,-31,-49,-98,-135,-168 Z M2167,804 c-37,0,-69,-19,-94,-48 l-85,0 c-62,-112,-122,-278,-122,-397 c0,-113,68,-183,147,-183 c159,0,274,255,274,451 c0,109,-51,177,-120,177 Z M2115,392 c-10,70,-18,140,-18,201 c0,57,21,107,42,107 c17,0,27,-33,27,-89 c0,-77,-22,-157,-51,-219 Z M2020,284 c-26,0,-42,29,-42,93 c0,54,10,117,29,182 l0,-11 c0,-78,9,-140,18,-198 l67,0 c-24,-40,-51,-66,-72,-66 Z M2734,891 c0,99,-58,152,-122,152 c-134,0,-234,-192,-234,-416 c0,-62,6,-125,19,-197 c-58,-81,-120,-161,-179,-234 l151,0 l61,82 c6,-26,13,-53,21,-82 l129,0 c-20,81,-38,153,-52,219 c115,164,206,326,206,476 Z M2499,676 c3,76,45,249,89,249 c13,0,23,-15,23,-48 c0,-77,-45,-180,-110,-290 c-3,31,-4,60,-2,89 Z M3000,784 c-4,-17,-9,-34,-14,-51 c-20,45,-48,71,-81,71 c-134,0,-237,-306,-237,-472 c0,-87,37,-156,91,-156 c34,0,74,33,116,87 l-15,-67 l105,0 c34,127,50,235,53,322 c37,86,70,179,94,266 Z M2809,297 c-15,0,-19,17,-19,46 c0,118,74,341,113,341 c15,0,21,-47,21,-91 c0,-21,-2,-46,-5,-76 c-44,-127,-87,-220,-110,-220 Z M3326,196 l83,336 l90,0 l-83,-336 l124,0 l190,767 l-124,0 l-79,-322 l-91,0 l80,322 l-123,0 l-191,-767 Z M4053,694 c0,71,-43,114,-112,114 c-153,0,-289,-210,-289,-414 c0,-123,61,-218,175,-218 c33,0,70,6,104,20 l33,118 c-42,-17,-73,-30,-102,-30 c-49,0,-81,32,-88,87 l198,0 l30,106 l-58,0 c64,62,109,141,109,217 Z M3904,689 c11,0,24,-12,24,-37 c0,-33,-55,-106,-148,-174 c21,111,80,211,124,211 Z M4358,784 c-4,-17,-9,-34,-14,-51 c-20,45,-48,71,-81,71 c-134,0,-237,-306,-237,-472 c0,-87,37,-156,91,-156 c34,0,74,33,116,87 l-15,-67 l105,0 c34,127,50,235,53,322 c37,86,70,179,94,266 Z M4167,297 c-15,0,-19,17,-19,46 c0,118,74,341,113,341 c15,0,21,-47,21,-91 c0,-21,-2,-46,-5,-76 c-44,-127,-87,-220,-110,-220 Z M4792,963 c-21,-81,-41,-157,-61,-225 c-20,42,-47,66,-79,66 c-134,0,-237,-306,-237,-472 c0,-87,35,-156,87,-156 c37,0,78,32,120,89 c-4,-22,-9,-45,-15,-69 l105,0 c37,137,52,251,53,341 c50,122,97,267,139,426 Z M4556,297 c-15,0,-19,17,-19,46 c0,118,74,341,113,341 c15,0,21,-47,21,-91 c0,-17,-1,-37,-3,-61 c-51,-151,-91,-235,-112,-235 Z M5253,891 c0,99,-58,152,-122,152 c-134,0,-234,-192,-234,-416 c0,-62,6,-125,19,-197 c-58,-81,-120,-161,-179,-234 l151,0 l61,82 c6,-26,13,-53,21,-82 l129,0 c-20,81,-38,153,-52,219 c115,164,206,326,206,476 Z M5018,676 c3,76,45,249,89,249 c13,0,23,-15,23,-48 c0,-77,-45,-180,-110,-290 c-3,31,-4,60,-2,89 Z M5453,831 c61,0,109,44,109,100 c0,45,-28,76,-81,76 c-61,0,-111,-44,-111,-100 c0,-45,31,-76,83,-76 Z M5351,176 c32,0,51,5,78,18 l30,118 c-26,-14,-45,-19,-62,-19 c-39,0,-55,31,-55,76 c0,121,99,274,199,415 l-254,0 l-28,-117 l69,0 c-55,-96,-111,-219,-111,-326 c0,-86,46,-165,134,-165 Z M5841,804 c-38,0,-80,-24,-120,-64 c0,15,-1,30,-2,44 l-122,0 l0,-213 c-56,-102,-95,-217,-95,-297 c0,-47,14,-98,59,-98 c58,0,132,221,154,435 c31,46,58,75,73,75 c26,0,19,-56,8,-101 l-98,-389 l118,0 l98,394 c26,103,12,214,-73,214 Z M6326,694 c0,71,-43,114,-112,114 c-153,0,-289,-210,-289,-414 c0,-123,61,-218,175,-218 c33,0,70,6,104,20 l33,118 c-42,-17,-73,-30,-102,-30 c-49,0,-81,32,-88,87 l198,0 l30,106 l-58,0 c64,62,109,141,109,217 Z M6177,689 c11,0,24,-12,24,-37 c0,-33,-55,-106,-148,-174 c21,111,80,211,124,211 Z M6177,689" fill="rgb(0,0,0)" transform="matrix(1,0,0,-1,0.0,1043.0)"/>
</svg>