<?xml version="1.0" encoding="UTF-8"?>
<svg width="3406.0" height="773.0" viewBox="0 0 3406.0 773.0" version="1.1" xmlns="http://www.w3.org/2000/svg" xmlns:xlink="http://www.w3.org/1999/xlink">
 <path d="M634,39 l0,365 l-290,-58 l0,-14 l196,-51 l0,-215 c-197,2,-273,37,-323,87 c-51,51,-75,126,-75,225 c0,88,24,167,78,221 c42,42,102,68,181,68 c41,0,89,-8,115,-16 l50,-167 l15,0 l70,230 c-73,18,-131,25,-202,25 c-112,0,-211,-46,-283,-118 c-74,-74,-120,-177,-120,-287 c0,-182,116,-333,353,-333 c87,0,146,14,235,38 Z M1257,65 l0,14 c-29,7,-49,18,-62,31 c-24,24,-25,61,-25,135 l0,166 c0,75,-65,118,-135,118 c-86,0,-178,-43,-242,-78 l45,-138 l16,0 l55,148 c86,0,126,-3,153,-30 c14,-14,18,-33,18,-59 l0,-75 l-72,-19 c-79,-21,-150,-46,-180,-76 c-24,-24,-33,-52,-33,-82 c0,-68,56,-119,133,-119 c58,0,108,26,152,53 l2,-54 Z M1080,100 c-26,-12,-77,-27,-117,-27 c-60,0,-76,40,-76,84 c0,9,1,23,3,33 l190,45 Z M1501,1 c78,0,160,27,226,93 c50,50,86,123,86,224 c0,126,-78,211,-190,211 c-69,0,-120,-27,-159,-55 l0,76 l9,213 l-10,10 l-165,-67 l0,-15 c25,-7,41,-17,53,-29 c21,-21,25,-53,25,-107 l0,-455 l-79,-37 l0,-14 c63,-30,133,-48,204,-48 Z M1466,86 l0,339 c34,17,78,29,124,29 c34,0,63,-9,85,-31 c30,-30,46,-78,46,-143 c0,-81,-19,-134,-50,-165 c-26,-26,-59,-45,-106,-45 c-26,0,-68,5,-99,16 Z M2017,615 c42,0,75,34,75,75 c0,41,-33,75,-75,75 c-41,0,-76,-34,-76,-75 c0,-41,35,-75,76,-75 Z M1980,68 l-81,-31 l0,-22 l252,0 l0,25 c-27,5,-45,14,-58,27 c-17,17,-23,45,-23,175 l0,115 l10,172 l-178,-65 l0,-15 c25,-7,42,-18,53,-31 c23,-26,25,-61,25,-115 Z M2222,238 c0,-124,75,-237,209,-237 c144,0,268,129,268,291 c0,124,-75,237,-209,237 c-144,0,-268,-129,-268,-291 Z M2607,245 c0,-63,-15,-110,-44,-139 c-22,-22,-50,-33,-94,-33 c-38,0,-75,12,-107,44 c-34,34,-48,95,-48,168 c0,63,15,110,44,139 c22,22,50,33,94,33 c38,0,75,-12,107,-44 c34,-34,48,-95,48,-168 Z M2866,313 l0,-245 l-81,-31 l0,-22 l252,0 l0,25 c-27,5,-45,14,-58,27 c-17,17,-23,45,-23,175 l0,173 c36,19,78,35,137,35 c59,0,96,-25,96,-92 l0,-290 l-81,-31 l0,-22 l252,0 l0,25 c-27,5,-45,14,-58,27 c-17,17,-23,45,-23,175 l0,123 c0,112,-52,164,-139,164 c-74,0,-134,-33,-184,-64 l0,64 l-168,-65 l0,-15 c25,-5,42,-10,55,-23 c20,-20,23,-59,23,-113 Z M2866,313" fill="rgb(0,0,0)" transform="matrix(1,0,0,-1,0.0,773.0)"/>
</svg>