<?xml version="1.0" encoding="UTF-8"?>
<svg width="7798.169998168945" height="934.469970703125" viewBox="0 0 7798.169998168945 934.469970703125" version="1.1" xmlns="http://www.w3.org/2000/svg" xmlns:xlink="http://www.w3.org/1999/xlink">
 <path d="M639.83,491.36 l-379.42,-83.31 l0,-7.26 c174.94,-48.91,206.45,-92.92,206.45,-194.61 l0,-189.99 l47.88,16.63 c-25.27,-5.08,-54.33,-8.08,-69.33,-8.08 c-89.03,0,-214.45,176.28,-214.45,555.01 c0,189.44,54.92,293.24,108.27,293.24 c49.13,0,121.71,-84.01,174.91,-390.05 l7.26,0 l105.03,363.06 c-85.79,36.86,-173.57,48.47,-245.63,48.47 c-188.89,0,-346.35,-178.68,-346.35,-476.69 c0,-255.72,132.96,-417.78,352.37,-417.78 c82.17,0,172.68,25.84,253.01,69.55 Z M1029.22,318.88 l-0.34,-150.8 c-17.68,-19.72,-40.8,-51.14,-69.55,-51.14 c-41.53,0,-74.45,33.66,-74.45,117.35 c0,45.14,10.05,79.73,30.53,100.2 c11.82,11.82,31.49,20.99,53.16,20.99 c15.65,0,35.34,-13.18,60.65,-36.6 Z M1197.22,535.41 c0,128.99,-51.97,179.06,-123.9,179.06 c-88.71,0,-162.52,-105.16,-224.4,-273.34 l65.09,256.76 l-183.63,0 l84.19,-384.84 l7.26,0 c37.81,183.51,91.79,246.62,135.39,246.62 c40.03,0,71.66,-35.34,71.66,-101.37 l0,-62.8 c-146.4,-48.17,-205.61,-80.59,-245.29,-120.27 c-38.43,-38.43,-57.74,-84.84,-57.74,-137.38 c0,-82.88,53.26,-136.54,123.36,-136.54 c76.02,0,138,73.41,179.67,153.09 l-9.55,-153.09 l228.03,28.98 c-41.53,22.55,-50.14,40.15,-50.14,90.59 Z M1492.71,165.46 l0,374.31 c14.17,26.2,33.15,43.95,51.13,43.95 c77.89,0,135.06,-156.73,135.06,-327.72 c0,-163.29,-46.81,-212.71,-83.48,-212.71 c-32.08,0,-68.39,48.56,-102.71,122.17 Z M1500.29,934.47 l-226.71,-32.26 c41.53,-21.9,50.13,-42.79,50.13,-93.89 l0,-774.95 c45.97,-21.06,103.07,-32.06,160.75,-32.06 c202.14,0,352.15,183.65,352.15,439.71 c0,185.13,-83.96,273.45,-170.41,273.45 c-86.71,0,-152.52,-79.53,-173.83,-158.94 Z M1927.79,62.28 l0,527.36 c0,52.41,-9.26,73.3,-50.13,95.85 l226.39,28.98 l-7.26,-185.93 l0,-413.89 c0,-56.95,12.37,-74.21,50.14,-96.76 l-269.27,0 Z M2005.61,751.72 c-70.06,0,-112.1,36.47,-112.1,83.49 c0,47.7,40.72,86.79,108.81,86.79 c68.75,0,114.73,-39.09,114.73,-86.79 c0,-47.02,-44.67,-83.49,-111.44,-83.49 Z M2185.85,334.12 c0,-208.91,114.14,-332.81,253.8,-332.81 c150.98,0,287.36,149.95,287.36,386.92 c0,206.61,-122.04,326.24,-255.78,326.24 c-150.32,0,-285.38,-146,-285.38,-380.35 Z M2352.48,483.31 c0,144.65,29.67,202.34,66.68,202.34 c69.09,0,140.56,-227.05,140.56,-453.18 c0,-128.21,-29.01,-202.34,-67.34,-202.34 c-68.43,0,-139.9,227.05,-139.9,453.18 Z M2819.11,62.28 l-50.14,-44.39 l269.27,0 c-37.76,29.13,-50.13,46.39,-50.13,96.76 l0,397.19 c30.69,46.66,55.2,60.9,77.76,60.9 c54.86,0,80.77,-60.12,80.77,-168.05 l0,-342.41 l-43.56,-44.39 l262.69,0 c-37.76,29.13,-50.13,46.39,-50.13,96.76 l0,407.06 c0,137.21,-51.24,192.76,-125.28,192.76 c-83.1,0,-154.65,-85.5,-202.25,-186.24 l7.26,186.24 l-226.4,-35.55 c40.88,-18.61,50.14,-39.5,50.14,-93.88 Z M3814.49,395.32 l220.59,66.86 l0,-395.93 l-48.29,-48.36 l288.1,0 c-35.72,20.92,-51.72,39.84,-51.72,102.1 l0,709.54 l47.95,48.36 l-287.76,0 c35.37,-22.89,51.72,-41.81,51.72,-100.12 l0,-300.65 l-220.59,0 l0,352.41 l47.95,48.36 l-287.76,0 c35.37,-20.92,51.72,-39.84,51.72,-102.1 l0,-709.54 l-48.29,-48.36 l288.1,0 c-35.72,22.89,-51.72,41.81,-51.72,100.13 Z M4322.14,328.89 c0,-199.82,105.48,-327.58,241.46,-327.58 c133.24,0,223.65,114.71,246.01,304.81 l-5.95,1.31 c-40.38,-128.39,-96.49,-163.76,-154.9,-163.76 c-103.57,0,-174.83,115.76,-174.83,355.58 c0,136.94,33.04,184.42,68.23,184.42 c50.06,0,100.67,-133.75,100.67,-287.52 l29.23,29.47 l-202.14,-43.31 l0,-8.68 l340.54,-53.11 c5.94,37.04,8.26,61.22,8.26,91.69 c0,187.53,-89.59,303.57,-218.2,303.57 c-149.27,0,-278.38,-161.44,-278.38,-386.89 Z M5183.22,318.88 l-0.34,-150.8 c-17.68,-19.72,-40.8,-51.14,-69.55,-51.14 c-41.53,0,-74.45,33.66,-74.45,117.35 c0,45.14,10.05,79.73,30.53,100.2 c11.82,11.82,31.49,20.99,53.16,20.99 c15.65,0,35.34,-13.18,60.65,-36.6 Z M5351.22,535.41 c0,128.99,-51.97,179.06,-123.9,179.06 c-88.71,0,-162.52,-105.16,-224.4,-273.34 l65.09,256.76 l-183.63,0 l84.19,-384.84 l7.26,0 c37.81,183.51,91.79,246.62,135.39,246.62 c40.03,0,71.66,-35.34,71.66,-101.37 l0,-62.8 c-146.4,-48.17,-205.61,-80.59,-245.29,-120.27 c-38.43,-38.43,-57.74,-84.84,-57.74,-137.38 c0,-82.88,53.26,-136.54,123.36,-136.54 c76.02,0,138,73.41,179.67,153.09 l-9.55,-153.09 l228.03,28.98 c-41.53,22.55,-50.14,40.15,-50.14,90.59 Z M5678.35,665.26 c31.39,0,68.39,-49.25,102.71,-124.91 l0,-364.33 c-14.16,-26.21,-33.15,-43.96,-51.13,-43.96 c-77.89,0,-135.05,153.19,-135.05,320.48 c0,163.3,46.8,212.72,83.47,212.72 Z M5950.06,716.92 l7.92,217.55 l-227.06,-32.26 c41.54,-21.9,50.48,-42.79,50.48,-93.89 l0,-172.27 l110.12,41.23 c-42.77,18.79,-80.78,24.03,-109.47,24.03 c-93.54,0,-167.32,-27.52,-223.97,-84.16 c-72.89,-72.9,-120.92,-194.34,-120.92,-342.38 c0,-185.14,84.26,-273.46,170.42,-273.46 c86.7,0,152.16,78.84,173.48,159.97 l-7.58,-159.97 l226.72,32.26 c-41.54,21.9,-50.14,42.79,-50.14,93.89 Z M6080.79,62.28 l-50.13,-44.39 l269.27,0 c-37.77,22.55,-50.14,39.81,-50.14,96.76 l0,632.52 l8.58,187.3 l-227.71,-28.98 c40.87,-22.55,50.13,-43.44,50.13,-95.85 Z M6378.79,62.28 l0,527.36 c0,52.41,-9.26,73.3,-50.13,95.85 l226.39,28.98 l-7.26,-185.93 l0,-413.89 c0,-56.95,12.37,-74.21,50.14,-96.76 l-269.27,0 Z M6456.61,751.72 c-70.06,0,-112.1,36.47,-112.1,83.49 c0,47.7,40.72,86.79,108.81,86.79 c68.75,0,114.73,-39.09,114.73,-86.79 c0,-47.02,-44.67,-83.49,-111.44,-83.49 Z M6676.11,62.28 l-50.14,-44.39 l269.27,0 c-37.76,29.13,-50.13,46.39,-50.13,96.76 l0,397.19 c30.69,46.66,55.2,60.9,77.76,60.9 c54.86,0,80.77,-60.12,80.77,-168.05 l0,-342.41 l-43.56,-44.39 l262.69,0 c-37.76,29.13,-50.13,46.39,-50.13,96.76 l0,407.06 c0,137.21,-51.24,192.76,-125.28,192.76 c-83.1,0,-154.65,-85.5,-202.25,-186.24 l7.26,186.24 l-226.4,-35.55 c40.88,-18.61,50.14,-39.5,50.14,-93.88 Z M7267.14,328.89 c0,-199.82,105.48,-327.58,241.46,-327.58 c133.24,0,223.65,114.71,246.01,304.81 l-5.95,1.31 c-40.38,-128.39,-96.49,-163.76,-154.9,-163.76 c-103.57,0,-174.83,115.76,-174.83,355.58 c0,136.94,33.04,184.42,68.23,184.42 c50.06,0,100.67,-133.75,100.67,-287.52 l29.23,29.47 l-202.14,-43.31 l0,-8.68 l340.54,-53.11 c5.94,37.04,8.26,61.22,8.26,91.69 c0,187.53,-89.59,303.57,-218.2,303.57 c-149.27,0,-278.38,-161.44,-278.38,-386.89 Z M7267.14,328.89" fill="rgb(0,0,0)" transform="matrix(1,0,0,-1,0.0,934.469970703125)"/>
</svg>