<?xml version="1.0" encoding="UTF-8"?>
<svg width="5872.0" height="966.0" viewBox="0 0 5872.0 966.0" version="1.1" xmlns="http://www.w3.org/2000/svg" xmlns:xlink="http://www.w3.org/1999/xlink">
 <path d="M108,248 l99,704 l-84,0 l-99,-704 Z M316,248 c46,320,155,416,220,416 c46,0,71,-38,64,-90 l-30,-216 c-11,-81,36,-124,93,-124 c23,0,35,4,59,14 l10,68 c-22,-7,-34,-10,-52,-10 c-17,0,-36,10,-31,47 l30,214 c15,103,-38,165,-127,165 c-68,0,-131,-35,-183,-124 l15,110 l-80,0 l-66,-470 Z M835,645 l-39,-277 c-12,-87,37,-134,112,-134 c28,0,53,7,83,23 l10,68 c-22,-11,-52,-20,-83,-20 c-29,0,-48,19,-42,63 l39,277 l131,0 l10,73 l-131,0 l17,120 l-80,0 l-17,-120 l-70,0 l-10,-73 Z M1473,602 c0,68,-54,130,-153,130 c-147,0,-259,-128,-259,-279 c0,-144,109,-219,234,-219 c56,0,96,12,145,33 l11,76 c-59,-26,-95,-37,-155,-37 c-73,0,-131,39,-148,112 c240,6,325,88,325,184 Z M1388,595 c0,-47,-55,-104,-243,-110 c11,96,84,175,172,175 c46,0,71,-30,71,-65 Z M1558,466 c0,-103,52,-161,118,-182 c-56,-32,-100,-85,-100,-153 c0,-75,48,-131,162,-131 c122,0,218,74,243,251 l66,467 l-78,0 l-9,-63 c-36,52,-95,77,-154,77 c-155,0,-248,-135,-248,-266 Z M1810,664 c53,0,108,-32,138,-99 c-16,-111,-74,-219,-199,-219 c-58,0,-106,37,-106,125 c0,98,59,193,167,193 Z M1656,147 c0,34,18,60,45,82 c59,48,132,59,193,110 c9,8,18,16,26,25 l-16,-111 c-18,-129,-89,-179,-163,-179 c-61,0,-85,34,-85,73 Z M2159,361 l57,226 c6,22,10,41,14,59 l143,0 l-41,-288 c-12,-81,36,-124,93,-124 c23,0,35,4,59,14 l10,68 c-22,-7,-34,-10,-52,-10 c-17,0,-36,10,-31,47 l52,365 l-191,0 c-10,0,-21,0,-33,0 c1,17,2,34,2,54 c-15,5,-31,8,-47,8 c-59,0,-79,-33,-79,-60 c0,-21,13,-47,42,-62 l-71,-279 Z M2710,234 c49,0,120,18,179,83 c8,-49,42,-76,93,-76 c23,0,35,4,59,14 l10,68 c-22,-7,-34,-10,-52,-10 c-17,0,-36,10,-31,47 l50,358 l-80,0 l-9,-65 c-35,52,-90,79,-157,79 c-127,0,-243,-124,-243,-285 c0,-149,85,-213,181,-213 Z M2781,660 c53,0,99,-30,135,-97 c-24,-168,-116,-257,-196,-257 c-58,0,-106,47,-106,145 c0,138,82,209,167,209 Z M3789,789 c0,99,-73,177,-189,177 c-118,0,-214,-88,-214,-197 c0,-238,297,-142,297,-326 c0,-85,-71,-134,-155,-134 c-58,0,-125,14,-198,61 l-11,-82 c68,-38,129,-54,208,-54 c130,0,236,83,236,212 c0,244,-297,152,-297,326 c0,65,64,119,133,119 c58,0,110,-42,110,-102 Z M4259,357 c-70,-37,-120,-51,-183,-51 c-72,0,-142,54,-142,155 c0,107,73,199,168,199 c53,0,121,-29,105,-140 l82,0 c19,131,-52,212,-176,212 c-155,0,-262,-128,-262,-279 c0,-144,113,-219,224,-219 c60,0,112,9,173,44 Z M4398,361 l57,226 c6,22,10,41,14,59 l143,0 l-41,-288 c-12,-81,36,-124,93,-124 c23,0,35,4,59,14 l10,68 c-22,-7,-34,-10,-52,-10 c-17,0,-36,10,-31,47 l52,365 l-191,0 c-10,0,-21,0,-33,0 c1,17,2,34,2,54 c-15,5,-31,8,-47,8 c-59,0,-79,-33,-79,-60 c0,-21,13,-47,42,-62 l-71,-279 Z M4921,718 l-80,0 l-50,-360 c-11,-81,36,-124,93,-124 c23,0,35,4,59,14 l10,68 c-22,-7,-34,-10,-52,-10 c-17,0,-36,10,-31,47 Z M4894,798 c34,0,60,28,60,62 c0,27,-19,47,-50,47 c-34,0,-61,-26,-61,-61 c0,-27,20,-48,51,-48 Z M5044,14 l42,299 c35,-52,90,-79,157,-79 c127,0,243,124,243,285 c0,149,-85,213,-181,213 c-58,0,-126,-30,-173,-90 l10,76 l-79,0 l-99,-704 Z M5099,403 c24,168,116,257,196,257 c58,0,106,-47,106,-145 c0,-138,-82,-209,-167,-209 c-53,0,-99,30,-135,97 Z M5627,645 l-39,-277 c-12,-87,37,-134,112,-134 c28,0,53,7,83,23 l10,68 c-22,-11,-52,-20,-83,-20 c-29,0,-48,19,-42,63 l39,277 l131,0 l10,73 l-131,0 l17,120 l-80,0 l-17,-120 l-70,0 l-10,-73 Z M5627,645" fill="rgb(0,0,0)" transform="matrix(1,0,0,-1,0.0,966.0)"/>
</svg>