<?xml version="1.0" encoding="UTF-8"?>
<svg width="3040.0" height="952.0" viewBox="0 0 3040.0 952.0" version="1.1" xmlns="http://www.w3.org/2000/svg" xmlns:xlink="http://www.w3.org/1999/xlink">
 <path d="M149,248 l0,704 l-84,0 l0,-704 Z M279,248 l80,0 l0,263 c0,105,63,152,124,152 c57,0,112,-39,112,-135 l0,-280 l80,0 l0,289 c0,130,-83,195,-170,195 c-54,0,-109,-25,-146,-75 l0,61 l-80,0 Z M828,645 l0,-277 c0,-90,52,-134,124,-134 c36,0,66,10,95,31 l-33,57 c-19,-11,-38,-17,-55,-17 c-29,0,-51,19,-51,63 l0,277 l131,0 l0,73 l-131,0 l0,120 l-80,0 l0,-120 l-70,0 l0,-73 Z M1319,234 c85,0,152,40,200,105 l-58,45 c-24,-33,-72,-78,-142,-78 c-86,0,-141,72,-150,155 l369,0 c0,0,1,14,1,22 c0,145,-85,249,-225,249 c-126,0,-228,-106,-228,-251 c0,-135,92,-247,233,-247 Z M1172,529 c16,78,74,131,142,131 c76,0,125,-54,139,-131 Z M1856,244 c67,0,129,28,172,74 l0,-83 c0,-106,-74,-164,-157,-164 c-58,0,-118,37,-148,107 l-69,-29 c40,-102,132,-149,219,-149 c140,0,235,98,235,245 l0,473 l-80,0 l0,-66 c-43,49,-105,80,-172,80 c-128,0,-231,-100,-231,-244 c0,-144,103,-244,231,-244 Z M1874,663 c97,0,160,-93,160,-183 c0,-92,-63,-167,-160,-167 c-99,0,-167,72,-167,177 c0,105,68,173,167,173 Z M2238,248 l80,0 l0,263 c0,105,72,142,146,142 l0,79 c-54,0,-109,-25,-146,-75 l0,61 l-80,0 Z M2725,234 c67,0,127,30,170,78 l0,-64 l80,0 l0,470 l-80,0 l0,-65 c-43,49,-103,79,-170,79 c-128,0,-233,-105,-233,-249 c0,-144,105,-249,233,-249 Z M2574,485 c0,105,70,178,169,178 c98,0,158,-93,158,-183 c0,-91,-60,-177,-158,-177 c-99,0,-169,77,-169,182 Z M2574,485" fill="rgb(0,0,0)" transform="matrix(1,0,0,-1,0.0,952.0)"/>
</svg>