<?xml version="1.0" encoding="UTF-8" standalone="no"?>
<!DOCTYPE svg PUBLIC "-//W3C//DTD SVG 1.1//EN" "http://www.w3.org/Graphics/SVG/1.1/DTD/svg11.dtd">
<svg width="100%" height="100%" viewBox="0 0 500 261" version="1.1" xmlns="http://www.w3.org/2000/svg" xmlns:xlink="http://www.w3.org/1999/xlink" xml:space="preserve" xmlns:serif="http://www.serif.com/" style="fill-rule:evenodd;clip-rule:evenodd;stroke-linejoin:round;stroke-miterlimit:2;">
    <rect id="Artboard1" x="0" y="0" width="500" height="261" style="fill:none;"/>
    <clipPath id="_clip1">
        <rect id="Artboard11" serif:id="Artboard1" x="0" y="0" width="500" height="261"/>
    </clipPath>
    <g clip-path="url(#_clip1)">
        <rect x="-12.492" y="-20.936" width="524.764" height="315.749" style="fill:rgb(0,255,0);"/>
        <g transform="matrix(1,0,0,1,-2.86121,12.6129)">
            <g transform="matrix(1.22025,0,0,1.22025,13.9095,-17.0887)">
                <g transform="matrix(174.184,0,0,174.184,56.045,202.557)">
                    <path d="M0.595,-0L0.595,-0.16L0.428,-0.16C0.413,-0.197 0.403,-0.24 0.403,-0.272C0.403,-0.316 0.423,-0.349 0.464,-0.358C0.49,-0.353 0.52,-0.343 0.542,-0.33L0.595,-0.33L0.595,-0.482C0.555,-0.507 0.514,-0.52 0.471,-0.52L0.417,-0.52C0.381,-0.52 0.349,-0.511 0.323,-0.489L0.319,-0.5L0.088,-0.5L0.216,-0.16L0.098,-0.16L0.098,-0L0.595,-0Z" style="fill-rule:nonzero;"/>
                </g>
            </g>
            <g transform="matrix(1.22025,0,0,1.22025,13.9095,-17.0887)">
                <g transform="matrix(174.184,0,0,174.184,56.045,202.557)">
                    <path d="M0.545,-0L0.545,-0.16L0.378,-0.16C0.363,-0.197 0.353,-0.24 0.353,-0.272C0.353,-0.323 0.381,-0.36 0.437,-0.36L0.44,-0.36C0.469,-0.36 0.512,-0.347 0.542,-0.33L0.545,-0.33L0.545,-0.482C0.505,-0.507 0.464,-0.52 0.421,-0.52L0.417,-0.52C0.364,-0.52 0.321,-0.5 0.288,-0.45L0.285,-0.45L0.269,-0.5L0.088,-0.5L0.216,-0.16L0.098,-0.16L0.098,-0L0.545,-0Z" style="fill:white;fill-rule:nonzero;"/>
                </g>
            </g>
        </g>
        <g transform="matrix(2.55992,0,0,2.55992,-319.582,-154.507)">
            <g transform="matrix(85.8766,0,0,85.8766,212.384,174.045)">
                <path d="M0.365,-0.767C0.36,-0.75 0.356,-0.733 0.351,-0.716C0.335,-0.757 0.311,-0.787 0.276,-0.787C0.121,-0.787 0.015,-0.345 0.015,-0.153C0.015,-0.026 0.061,0.02 0.104,0.02C0.136,0.02 0.167,-0.008 0.201,-0.061L0.191,-0L0.301,-0C0.339,-0.206 0.367,-0.357 0.376,-0.468C0.409,-0.556 0.443,-0.656 0.482,-0.767L0.365,-0.767ZM0.149,-0.116C0.141,-0.116 0.137,-0.129 0.137,-0.154C0.137,-0.312 0.235,-0.674 0.277,-0.674C0.283,-0.674 0.286,-0.663 0.286,-0.642C0.286,-0.588 0.275,-0.502 0.259,-0.403C0.203,-0.221 0.162,-0.116 0.149,-0.116Z" style="fill-rule:nonzero;"/>
            </g>
            <g transform="matrix(85.8766,0,0,85.8766,245.361,174.045)">
                <path d="M0.481,-0.657L0.507,-0.767L0.342,-0.767C0.097,-0.767 0.052,-0.621 0.052,-0.394L0.172,-0.394C0.172,-0.538 0.183,-0.628 0.244,-0.651L0.216,-0.499C0.185,-0.33 0.08,-0.134 -0.006,-0L0.142,-0C0.24,-0 0.292,-0.06 0.292,-0.204L0.292,-0.342L0.403,-0.342L0.431,-0.452L0.329,-0.452C0.331,-0.459 0.333,-0.466 0.334,-0.472L0.366,-0.657L0.481,-0.657Z" style="fill-rule:nonzero;"/>
            </g>
            <g transform="matrix(85.8766,0,0,85.8766,279.883,174.045)">
                <path d="M0.469,-0.684C0.469,-0.756 0.428,-0.788 0.383,-0.788C0.338,-0.788 0.291,-0.757 0.246,-0.708C0.247,-0.728 0.247,-0.748 0.247,-0.767L0.125,-0.767L0.125,-0.527C0.048,-0.378 -0.007,-0.198 -0.007,-0.085C-0.007,-0.032 0.005,0.02 0.035,0.02C0.084,0.02 0.147,-0.135 0.191,-0.328L0.207,-0L0.328,-0L0.309,-0.341C0.411,-0.469 0.469,-0.583 0.469,-0.684ZM0.202,-0.374C0.214,-0.432 0.224,-0.492 0.232,-0.552C0.271,-0.616 0.31,-0.665 0.33,-0.665C0.342,-0.665 0.346,-0.654 0.346,-0.634C0.346,-0.586 0.276,-0.471 0.202,-0.374Z" style="fill-rule:nonzero;"/>
            </g>
        </g>
        <g transform="matrix(1,0,0,1,-18.7838,12.6129)">
            <g transform="matrix(1.22025,0,0,1.22025,-38.4019,-17.0887)">
                <g transform="matrix(174.184,0,0,174.184,56.045,202.557)">
                    <path d="M0.376,0.02C0.539,0.02 0.608,-0.12 0.608,-0.25C0.608,-0.38 0.539,-0.52 0.376,-0.52L0.324,-0.52C0.162,-0.52 0.092,-0.38 0.092,-0.25C0.092,-0.12 0.163,0.02 0.323,0.02L0.376,0.02ZM0.308,-0.25C0.308,-0.307 0.326,-0.341 0.35,-0.354C0.374,-0.341 0.392,-0.308 0.392,-0.25C0.392,-0.192 0.373,-0.159 0.35,-0.146C0.326,-0.159 0.308,-0.193 0.308,-0.25Z" style="fill-rule:nonzero;"/>
                </g>
            </g>
            <g transform="matrix(1.22025,0,0,1.22025,-38.4019,-17.0887)">
                <g transform="matrix(174.184,0,0,174.184,56.045,202.557)">
                    <path d="M0.326,0.02C0.489,0.02 0.558,-0.12 0.558,-0.25C0.558,-0.38 0.489,-0.52 0.326,-0.52L0.324,-0.52C0.162,-0.52 0.092,-0.38 0.092,-0.25C0.092,-0.12 0.163,0.02 0.323,0.02L0.326,0.02ZM0.323,-0.14C0.288,-0.14 0.258,-0.176 0.258,-0.25C0.258,-0.324 0.288,-0.36 0.324,-0.36L0.326,-0.36C0.36,-0.36 0.392,-0.326 0.392,-0.25C0.392,-0.174 0.36,-0.14 0.326,-0.14L0.323,-0.14Z" style="fill:white;fill-rule:nonzero;"/>
                </g>
            </g>
        </g>
        <g transform="matrix(1,0,0,1,-29.1651,12.6129)">
            <g transform="matrix(1.22025,0,0,1.22025,-87.0934,-17.0887)">
                <g transform="matrix(174.184,0,0,174.184,56.045,202.557)">
                    <path d="M0.586,-0L0.586,-0.16L0.459,-0.16L0.459,-0.26L0.586,-0.26L0.586,-0.42C0.468,-0.42 0.401,-0.451 0.401,-0.506C0.401,-0.531 0.416,-0.551 0.444,-0.558C0.471,-0.554 0.502,-0.545 0.533,-0.535L0.586,-0.535L0.586,-0.689C0.536,-0.708 0.48,-0.72 0.427,-0.72L0.374,-0.72C0.236,-0.72 0.186,-0.631 0.186,-0.548C0.186,-0.507 0.199,-0.462 0.236,-0.42L0.112,-0.42L0.112,-0.26L0.244,-0.26L0.244,-0.16L0.112,-0.16L0.112,-0L0.586,-0Z" style="fill-rule:nonzero;"/>
                </g>
            </g>
            <g transform="matrix(1.22025,0,0,1.22025,-87.0934,-17.0887)">
                <g transform="matrix(174.184,0,0,174.184,56.045,202.557)">
                    <path d="M0.536,-0L0.536,-0.16L0.409,-0.16L0.409,-0.26L0.536,-0.26L0.536,-0.42C0.418,-0.42 0.351,-0.451 0.351,-0.506C0.351,-0.537 0.373,-0.56 0.415,-0.56L0.419,-0.56C0.449,-0.56 0.491,-0.548 0.533,-0.535L0.536,-0.535L0.536,-0.689C0.486,-0.708 0.43,-0.72 0.377,-0.72L0.374,-0.72C0.236,-0.72 0.186,-0.631 0.186,-0.548C0.186,-0.507 0.199,-0.462 0.236,-0.42L0.112,-0.42L0.112,-0.26L0.244,-0.26L0.244,-0.16L0.112,-0.16L0.112,-0L0.536,-0Z" style="fill:white;fill-rule:nonzero;"/>
                </g>
            </g>
        </g>
        <g transform="matrix(1.33042,0,0,1.31813,-71.6227,-46.2765)">
            <g transform="matrix(108.532,0,0,108.532,123.822,111.839)">
                <path d="M-0.001,0.02L0.294,-0.032L0.249,-0.084L0.357,-0.7L0.062,-0.648L0.107,-0.596L-0.001,0.02Z" style="fill-rule:nonzero;"/>
            </g>
            <g transform="matrix(108.532,0,0,108.532,162.459,111.839)">
                <path d="M0.055,-0.229L-0.052,0.067C0.032,0.078 0.112,0.09 0.204,0.09C0.388,0.09 0.567,0.017 0.565,-0.099C0.566,-0.171 0.51,-0.235 0.421,-0.279C0.588,-0.375 0.633,-0.465 0.633,-0.551C0.633,-0.64 0.581,-0.7 0.5,-0.7C0.38,-0.7 0.304,-0.592 0.246,-0.482L0.326,-0.68L0.076,-0.68L0.181,-0.352L0.191,-0.352C0.249,-0.488 0.298,-0.526 0.335,-0.526C0.365,-0.526 0.39,-0.496 0.39,-0.43C0.39,-0.398 0.38,-0.357 0.341,-0.31C0.275,-0.33 0.197,-0.342 0.115,-0.342L0.115,-0.146C0.153,-0.159 0.189,-0.173 0.222,-0.186C0.294,-0.1 0.34,-0.024 0.34,0.022C0.34,0.051 0.324,0.069 0.296,0.069C0.234,0.069 0.145,-0.048 0.065,-0.229L0.055,-0.229Z" style="fill-rule:nonzero;"/>
            </g>
            <g transform="matrix(108.532,0,0,108.532,232.137,111.839)">
                <path d="M0.019,-0.258C0.019,-0.084 0.116,0.02 0.278,0.02C0.476,0.02 0.655,-0.16 0.655,-0.417C0.655,-0.61 0.555,-0.7 0.399,-0.7C0.201,-0.7 0.019,-0.517 0.019,-0.258ZM0.254,-0.137C0.254,-0.342 0.327,-0.686 0.388,-0.686C0.404,-0.686 0.42,-0.663 0.42,-0.54C0.42,-0.335 0.345,0.006 0.284,0.006C0.269,0.006 0.254,-0.025 0.254,-0.137Z" style="fill-rule:nonzero;"/>
            </g>
        </g>
        <g transform="matrix(1.56715,0,0,1.56715,-185.012,-15.5955)">
            <g transform="matrix(79.8777,0,0,79.8777,335.575,74.4905)">
                <path d="M0.408,-0.103C0.372,-0.072 0.332,-0.058 0.29,-0.058C0.207,-0.058 0.125,-0.129 0.125,-0.237C0.125,-0.345 0.207,-0.412 0.29,-0.412C0.332,-0.412 0.372,-0.398 0.408,-0.367L0.453,-0.423C0.41,-0.461 0.359,-0.484 0.292,-0.484C0.148,-0.484 0.043,-0.37 0.043,-0.233C0.043,-0.096 0.148,0.014 0.292,0.014C0.359,0.014 0.41,-0.009 0.453,-0.047L0.408,-0.103Z" style="fill:white;fill-rule:nonzero;"/>
            </g>
            <g transform="matrix(79.8777,0,0,79.8777,371.839,74.4905)">
                <path d="M0.541,-0.235C0.541,-0.372 0.436,-0.484 0.292,-0.484C0.148,-0.484 0.043,-0.372 0.043,-0.235C0.043,-0.098 0.148,0.014 0.292,0.014C0.436,0.014 0.541,-0.098 0.541,-0.235ZM0.459,-0.235C0.459,-0.138 0.389,-0.058 0.292,-0.058C0.196,-0.058 0.125,-0.138 0.125,-0.235C0.125,-0.332 0.196,-0.412 0.292,-0.412C0.389,-0.412 0.459,-0.332 0.459,-0.235Z" style="fill:white;fill-rule:nonzero;"/>
            </g>
            <g transform="matrix(79.8777,0,0,79.8777,418.488,74.4905)">
                <path d="M0.065,-0L0.145,-0L0.145,-0.263C0.145,-0.368 0.208,-0.415 0.269,-0.415C0.326,-0.415 0.381,-0.376 0.381,-0.28L0.381,-0L0.461,-0L0.461,-0.289C0.461,-0.419 0.378,-0.484 0.291,-0.484C0.237,-0.484 0.182,-0.459 0.145,-0.409L0.145,-0.47L0.065,-0.47L0.065,-0Z" style="fill:white;fill-rule:nonzero;"/>
            </g>
        </g>
    </g>
</svg>
