<?xml version="1.0" encoding="UTF-8"?>
<svg width="3389.0" height="670.0" viewBox="0 0 3389.0 670.0" version="1.1" xmlns="http://www.w3.org/2000/svg" xmlns:xlink="http://www.w3.org/1999/xlink">
 <path d="M547,20 l-398,0 l0,160 l79,0 l-86,340 l221,0 l11,-50 l-98,0 c10.67,25.33,23.17,43.33,37.5,54 c14.33,10.67,30.5,16,48.5,16 l102,0 c14.67,0,28.83,-3.17,42.5,-9.5 c13.67,-6.33,27.17,-15.83,40.5,-28.5 l0,-152 l-102,0 c-10.0,8.67,-21.5,15.83,-34.5,21.5 c-13.0,5.67,-24.17,8.5,-33.5,8.5 l98,0 c-18.67,0,-32.67,-8.33,-42,-25 c-9.33,-16.67,-14,-37.67,-14,-63 c0,-16.67,1.5,-34.83,4.5,-54.5 c3.0,-19.67,7.17,-38.83,12.5,-57.5 l111,0 Z M1101,0 l-102,0 c-26.67,0,-49.67,7.83,-69,23.5 c-19.33,15.67,-35.33,36.5,-48,62.5 c-12.67,26.0,-22.0,55.0,-28,87 c-6.0,32.0,-9,64.33,-9,97 c0,32.67,3.0,65.0,9,97 c6.0,32.0,15.33,61.0,28,87 c12.67,26.0,28.67,46.83,48,62.5 c19.33,15.67,42.33,23.5,69,23.5 l102,0 c27.33,0,50.67,-7.83,70,-23.5 c19.33,-15.67,35.33,-36.5,48,-62.5 c12.67,-26.0,21.83,-55.0,27.5,-87 c5.67,-32.0,8.5,-64.33,8.5,-97 c0,-32.67,-2.83,-65.0,-8.5,-97 c-5.67,-32.0,-14.83,-61.0,-27.5,-87 c-12.67,-26.0,-28.67,-46.83,-48,-62.5 c-19.33,-15.67,-42.67,-23.5,-70,-23.5 Z M1099,160 l-98,0 c11.33,0,21.5,8.83,30.5,26.5 c9.0,17.67,13.5,45.5,13.5,83.5 c0,38.0,-4.5,65.83,-13.5,83.5 c-9.0,17.67,-19.17,26.5,-30.5,26.5 l98,0 c-12.0,0,-22.33,-9.0,-31,-27 c-8.67,-18.0,-13,-45.67,-13,-83 c0,-36.67,4.33,-64.17,13,-82.5 c8.67,-18.33,19.0,-27.5,31,-27.5 Z M1943,210 l0,-156 c-20.67,-16.67,-42.17,-29.83,-64.5,-39.5 c-22.33,-9.67,-43.5,-14.5,-63.5,-14.5 l-102,0 c-25.33,0,-46.83,8.33,-64.5,25 c-17.67,16.67,-31.0,39.17,-40,67.5 c-9.0,28.33,-13.5,60.83,-13.5,97.5 c0,36.67,4.33,69.33,13,98 c8.67,28.67,20.67,52.67,36,72 l-99,0 l0,160 l90,0 l0,150 l210,0 l0,-150 l97,0 l0,-160 c-26.0,0,-47.83,-4.33,-65.5,-13 c-17.67,-8.67,-31.83,-20.0,-42.5,-34 c-10.67,-14.0,-18.17,-28.83,-22.5,-44.5 c-4.33,-15.67,-6.5,-30.17,-6.5,-43.5 c0,-20.67,3.67,-36.67,11,-48 c7.33,-11.33,17.67,-17,31,-17 l-98,0 c14.0,0.67,29.67,5.83,47,15.5 c17.33,9.67,32.33,21.17,45,34.5 Z M2501,0 l-102,0 c-26.67,0,-49.67,7.83,-69,23.5 c-19.33,15.67,-35.33,36.5,-48,62.5 c-12.67,26.0,-22.0,55.0,-28,87 c-6.0,32.0,-9,64.33,-9,97 c0,32.67,3.0,65.0,9,97 c6.0,32.0,15.33,61.0,28,87 c12.67,26.0,28.67,46.83,48,62.5 c19.33,15.67,42.33,23.5,69,23.5 l102,0 c27.33,0,50.67,-7.83,70,-23.5 c19.33,-15.67,35.33,-36.5,48,-62.5 c12.67,-26.0,21.83,-55.0,27.5,-87 c5.67,-32.0,8.5,-64.33,8.5,-97 c0,-32.67,-2.83,-65.0,-8.5,-97 c-5.67,-32.0,-14.83,-61.0,-27.5,-87 c-12.67,-26.0,-28.67,-46.83,-48,-62.5 c-19.33,-15.67,-42.67,-23.5,-70,-23.5 Z M2499,160 l-98,0 c11.33,0,21.5,8.83,30.5,26.5 c9.0,17.67,13.5,45.5,13.5,83.5 c0,38.0,-4.5,65.83,-13.5,83.5 c-9.0,17.67,-19.17,26.5,-30.5,26.5 l98,0 c-12.0,0,-22.33,-9.0,-31,-27 c-8.67,-18.0,-13,-45.67,-13,-83 c0,-36.67,4.33,-64.17,13,-82.5 c8.67,-18.33,19.0,-27.5,31,-27.5 Z M3347,20 l-398,0 l0,160 l79,0 l-86,340 l221,0 l11,-50 l-98,0 c10.67,25.33,23.17,43.33,37.5,54 c14.33,10.67,30.5,16,48.5,16 l102,0 c14.67,0,28.83,-3.17,42.5,-9.5 c13.67,-6.33,27.17,-15.83,40.5,-28.5 l0,-152 l-102,0 c-10.0,8.67,-21.5,15.83,-34.5,21.5 c-13.0,5.67,-24.17,8.5,-33.5,8.5 l98,0 c-18.67,0,-32.67,-8.33,-42,-25 c-9.33,-16.67,-14,-37.67,-14,-63 c0,-16.67,1.5,-34.83,4.5,-54.5 c3.0,-19.67,7.17,-38.83,12.5,-57.5 l111,0 Z M3347,20" fill="rgb(0,0,0)" transform="matrix(1,0,0,-1,0.0,670.0)"/>
 <path d="M447,20 l-298,0 l0,160 l79,0 l-86,340 l121,0 l11,-50 l2,0 c10.67,25.33,23.17,43.33,37.5,54 c14.33,10.67,30.5,16,48.5,16 l2,0 c14.67,0,28.83,-3.17,42.5,-9.5 c13.67,-6.33,27.17,-15.83,40.5,-28.5 l0,-152 l-2,0 c-10.0,8.67,-21.5,15.83,-34.5,21.5 c-13.0,5.67,-24.17,8.5,-33.5,8.5 l-2,0 c-18.67,0,-32.67,-8.33,-42,-25 c-9.33,-16.67,-14,-37.67,-14,-63 c0,-16.67,1.5,-34.83,4.5,-54.5 c3.0,-19.67,7.17,-38.83,12.5,-57.5 l111,0 Z M1001,0 l-2,0 c-26.67,0,-49.67,7.83,-69,23.5 c-19.33,15.67,-35.33,36.5,-48,62.5 c-12.67,26.0,-22.0,55.0,-28,87 c-6.0,32.0,-9,64.33,-9,97 c0,32.67,3.0,65.0,9,97 c6.0,32.0,15.33,61.0,28,87 c12.67,26.0,28.67,46.83,48,62.5 c19.33,15.67,42.33,23.5,69,23.5 l2,0 c27.33,0,50.67,-7.83,70,-23.5 c19.33,-15.67,35.33,-36.5,48,-62.5 c12.67,-26.0,21.83,-55.0,27.5,-87 c5.67,-32.0,8.5,-64.33,8.5,-97 c0,-32.67,-2.83,-65.0,-8.5,-97 c-5.67,-32.0,-14.83,-61.0,-27.5,-87 c-12.67,-26.0,-28.67,-46.83,-48,-62.5 c-19.33,-15.67,-42.67,-23.5,-70,-23.5 Z M999,160 l2,0 c11.33,0,21.5,8.83,30.5,26.5 c9.0,17.67,13.5,45.5,13.5,83.5 c0,38.0,-4.5,65.83,-13.5,83.5 c-9.0,17.67,-19.17,26.5,-30.5,26.5 l-2,0 c-12.0,0,-22.33,-9.0,-31,-27 c-8.67,-18.0,-13,-45.67,-13,-83 c0,-36.67,4.33,-64.17,13,-82.5 c8.67,-18.33,19.0,-27.5,31,-27.5 Z M1843,210 l0,-156 c-20.67,-16.67,-42.17,-29.83,-64.5,-39.5 c-22.33,-9.67,-43.5,-14.5,-63.5,-14.5 l-2,0 c-25.33,0,-46.83,8.33,-64.5,25 c-17.67,16.67,-31.0,39.17,-40,67.5 c-9.0,28.33,-13.5,60.83,-13.5,97.5 c0,36.67,4.33,69.33,13,98 c8.67,28.67,20.67,52.67,36,72 l-99,0 l0,160 l90,0 l0,150 l110,0 l0,-150 l97,0 l0,-160 c-26.0,0,-47.83,-4.33,-65.5,-13 c-17.67,-8.67,-31.83,-20.0,-42.5,-34 c-10.67,-14.0,-18.17,-28.83,-22.5,-44.5 c-4.33,-15.67,-6.5,-30.17,-6.5,-43.5 c0,-20.67,3.67,-36.67,11,-48 c7.33,-11.33,17.67,-17,31,-17 l2,0 c14.0,0.67,29.67,5.83,47,15.5 c17.33,9.67,32.33,21.17,45,34.5 Z M2401,0 l-2,0 c-26.67,0,-49.67,7.83,-69,23.5 c-19.33,15.67,-35.33,36.5,-48,62.5 c-12.67,26.0,-22.0,55.0,-28,87 c-6.0,32.0,-9,64.33,-9,97 c0,32.67,3.0,65.0,9,97 c6.0,32.0,15.33,61.0,28,87 c12.67,26.0,28.67,46.83,48,62.5 c19.33,15.67,42.33,23.5,69,23.5 l2,0 c27.33,0,50.67,-7.83,70,-23.5 c19.33,-15.67,35.33,-36.5,48,-62.5 c12.67,-26.0,21.83,-55.0,27.5,-87 c5.67,-32.0,8.5,-64.33,8.5,-97 c0,-32.67,-2.83,-65.0,-8.5,-97 c-5.67,-32.0,-14.83,-61.0,-27.5,-87 c-12.67,-26.0,-28.67,-46.83,-48,-62.5 c-19.33,-15.67,-42.67,-23.5,-70,-23.5 Z M2399,160 l2,0 c11.33,0,21.5,8.83,30.5,26.5 c9.0,17.67,13.5,45.5,13.5,83.5 c0,38.0,-4.5,65.83,-13.5,83.5 c-9.0,17.67,-19.17,26.5,-30.5,26.5 l-2,0 c-12.0,0,-22.33,-9.0,-31,-27 c-8.67,-18.0,-13,-45.67,-13,-83 c0,-36.67,4.33,-64.17,13,-82.5 c8.67,-18.33,19.0,-27.5,31,-27.5 Z M3247,20 l-298,0 l0,160 l79,0 l-86,340 l121,0 l11,-50 l2,0 c10.67,25.33,23.17,43.33,37.5,54 c14.33,10.67,30.5,16,48.5,16 l2,0 c14.67,0,28.83,-3.17,42.5,-9.5 c13.67,-6.33,27.17,-15.83,40.5,-28.5 l0,-152 l-2,0 c-10.0,8.67,-21.5,15.83,-34.5,21.5 c-13.0,5.67,-24.17,8.5,-33.5,8.5 l-2,0 c-18.67,0,-32.67,-8.33,-42,-25 c-9.33,-16.67,-14,-37.67,-14,-63 c0,-16.67,1.5,-34.83,4.5,-54.5 c3.0,-19.67,7.17,-38.83,12.5,-57.5 l111,0 Z M3247,20" fill="rgb(0,255,0)" transform="matrix(1,0,0,-1,0.0,670.0)"/>
</svg>