<svg width="3500" height="1100.002" xmlns="http://www.w3.org/2000/svg"><path d="M634 874.002c-8-122-28-228-57-315 21-78 36-169 43-273h-29c-5 84-16 160-32 227-62-153-157-237-263-237-131 0-234 124-234 309 0 181 103 298 233 298 108 0 205-95 265-269 21 75 35 162 42 260zm-340-19c-111 0-200-106-200-270 0-170 88-280 201-280 101 0 193 93 250 262-54 187-148 288-251 288zm829-579c-109 0-206 93-272 235-15-81-23-176-23-287 0-54 2-112 6-174h-32c-4 61-6 119-6 173 0 136 12 249 33 341-35 91-59 197-67 310h32c6-91 23-179 49-257 53 183 149 265 257 265 124 0 233-117 233-313 0-169-86-293-210-293zm-23 578c-101 0-191-93-238-290 62-154 157-259 262-259 102 0 177 110 177 264 0 174-93 285-201 285zm650 29c159 0 289-141 289-303s-130-304-289-304-289 142-289 304 130 303 289 303zm0-28c-141 0-258-128-258-275s117-275 258-275 258 128 258 275-117 275-258 275zm700 27c175 0 245-310 256-596h-31c-12 263-77 568-225 568s-213-305-225-568h-31c11 286 81 596 256 596zm774-27c-113 0-168-73-168-169 0-154 41-210 55-372h293v-28h-291c2-28 3-58 3-93h-21c-63 66-123 93-257 93v28h243c-8 108-57 218-57 372 0 114 67 197 201 197 75 0 153-28 202-47v-29c-64 26-137 48-203 48zm0 0"/></svg>