<svg width="4200" height="1100.002" xmlns="http://www.w3.org/2000/svg"><path d="M663 874.002c-7-119-27-225-56-313 26-89 40-185 44-275H474c-1 15-1 29-2 43-47-44-100-67-158-67-138 0-276 112-276 323 0 177 101 313 260 313 67 0 124-28 172-76 1 17 3 34 4 52zm-340-139c-62 0-97-79-97-155 0-108 43-155 87-155 40 0 86 60 120 182-27 88-64 128-110 128zm1065 139c-87-94-162-176-225-248 119-148 165-235 165-328 0-184-132-266-278-266-132 0-278 82-278 266 0 94 40 184 159 334-60 68-133 148-219 242h238l95-108c30 33 62 69 98 108zm-428-588c0-65 46-92 91-92 46 0 91 28 91 92 0 54-30 116-92 200-58-81-90-146-90-200zm930 0c0 318-12 428-59 428-10 0-19-9-26-26 19-59 30-127 30-198 0-168-41-228-81-228-43 0-84 60-84 228 0 70 11 136 29 194-7 19-16 29-24 29-43 0-65-109-65-427h-188c0 478 99 609 204 609 43 0 89-35 126-92 36 57 80 92 122 92 105 0 204-131 204-609zm873 588c-7-119-27-225-56-313 26-89 40-185 44-275h-177c-1 15-1 29-2 43-47-44-100-67-158-67-138 0-276 112-276 323 0 177 101 313 260 313 67 0 124-28 172-76 1 17 3 34 4 52zm-340-139c-62 0-97-79-97-155 0-108 43-155 87-155 40 0 86 60 120 182-27 88-64 128-110 128zm815-449c-33 29-62 57-90 83-26-26-55-54-86-83h-257c86 87 159 158 218 217-102 123-137 216-137 306 0 166 108 265 257 265 157 0 271-99 271-265 0-97-42-190-148-314 61-61 137-130 229-209zm-12 523c0 70-27 112-79 112-38 0-73-33-73-112 0-52 23-109 71-175 54 66 81 119 81 175zm809-219c72-72 112-150 112-224 0-126-107-233-254-233s-259 113-259 237c0 99 49 166 110 221-58 27-126 50-204 68v168c134-26 251-71 347-126 49 39 86 78 86 128 0 49-59 83-122 83-66 0-145-16-205-32v165c62 15 116 29 214 29 161 0 301-80 301-259 0-97-58-167-126-225zm-142-295c33 0 66 25 66 74 0 39-20 80-58 118-46-36-79-71-79-111 0-54 36-81 71-81zm0 0"/></svg>