<svg width="4900" height="1100.002" xmlns="http://www.w3.org/2000/svg"><path d="M634 874.002c-8-122-28-228-57-315 21-78 36-169 43-273h-29c-5 84-16 160-32 227-62-153-157-237-263-237-131 0-234 124-234 309 0 181 103 298 233 298 108 0 205-95 265-269 21 75 35 162 42 260zm-340-19c-111 0-200-106-200-270 0-170 88-280 201-280 101 0 193 93 250 262-54 187-148 288-251 288zm860-579c-35 0-72 16-106 47-34-31-70-47-101-47-103 0-203 147-203 598h30c0-441 99-569 174-569 24 0 53 13 81 38-54 60-94 160-94 290 0 152 49 250 116 250 70 0 112-98 112-250 0-132-43-230-95-290 28-25 58-37 83-37 86 0 177 127 177 568h28c0-451-91-598-202-598zm-103 579c-47 0-87-88-87-222 0-129 38-218 84-270 47 54 87 146 87 270 0 134-35 222-84 222zm699 27c175 0 245-310 256-596h-31c-12 263-77 568-225 568s-213-305-225-568h-31c11 286 81 596 256 596zm769-276c96-76 146-155 146-237 0-96-66-183-180-183-110 0-177 87-177 184 0 110 76 177 160 238-72 51-169 102-290 152v30c131-53 236-108 315-164 95 67 190 130 190 240 0 103-85 164-205 164-87 0-169-22-242-49v33c73 26 154 45 239 45 147 0 240-73 240-193 0-123-100-191-196-260zm-180-236c0-81 55-157 147-157 95 0 148 76 148 157 0 74-46 147-140 219-82-59-155-121-155-219zm812-191c27 0 44-17 44-44s-17-43-44-43-43 16-43 43 16 44 43 44zm88 676c-73 0-152-42-152-162 0-115 44-254 113-407h-371v28h326c-57 127-100 268-100 379 0 139 94 190 184 190 77 0 142-23 207-48v-32c-61 24-131 52-207 52zm702-579c-88 0-174 53-240 131-25-42-53-83-80-121h-38c35 49 68 99 97 148-60 82-99 186-99 285 0 117 56 164 105 164 48 0 114-47 114-182 0-88-35-179-83-265 61-77 142-131 224-131 78 0 133 69 133 193v376h32v-376c0-149-64-222-165-222zm-173 431c0 118-52 148-80 148s-75-30-75-141c0-84 32-175 83-250 43 81 72 162 72 243zm1043-421c-9 82-27 167-53 245-56-195-150-255-245-255-145 0-245 142-245 316 0 171 88 291 219 291 113 0 203-106 266-253 19 100 30 229 30 392h-499v28h530c0-201-16-353-42-467 33-92 57-195 69-297zm-325 569c-112 0-186-110-186-263 0-157 84-287 213-287 88 0 178 64 229 273-58 157-147 277-256 277zm0 0"/></svg>