<svg width="8400" height="1100.002" xmlns="http://www.w3.org/2000/svg"><path d="M663 874.002c-7-119-27-225-56-313 26-89 40-185 44-275H474c-1 15-1 29-2 43-47-44-100-67-158-67-138 0-276 112-276 323 0 177 101 313 260 313 67 0 124-28 172-76 1 17 3 34 4 52zm-340-139c-62 0-97-79-97-155 0-108 43-155 87-155 40 0 86 60 120 182-27 88-64 128-110 128zm912-145c72-72 112-150 112-224 0-126-107-233-254-233s-259 113-259 237c0 99 49 166 110 221-58 27-126 50-204 68v168c134-26 251-71 347-126 49 39 86 78 86 128 0 49-59 83-122 83-66 0-145-16-205-32v165c62 15 116 29 214 29 161 0 301-80 301-259 0-97-58-167-126-225zm-142-295c33 0 66 25 66 74 0 39-20 80-58 118-46-36-79-71-79-111 0-54 36-81 71-81zm842 295c72-72 112-150 112-224 0-126-107-233-254-233s-259 113-259 237c0 99 49 166 110 221-58 27-126 50-204 68v168c134-26 251-71 347-126 49 39 86 78 86 128 0 49-59 83-122 83-66 0-145-16-205-32v165c62 15 116 29 214 29 161 0 301-80 301-259 0-97-58-167-126-225zm-142-295c33 0 66 25 66 74 0 39-20 80-58 118-46-36-79-71-79-111 0-54 36-81 71-81zm657 603c189 0 322-139 322-318s-133-318-322-318-322 139-322 318 133 318 322 318zm0-163c-80 0-133-62-133-155s53-155 133-155c81 0 133 62 133 155s-52 155-133 155zm991-39c-86 27-157 38-230 38-82 0-175-45-175-159 0-96 56-148 115-148 62 0 99 61 99 149h189c0-189-107-314-290-314-168 0-301 146-301 325 0 200 154 311 352 311 95 0 184-23 241-37zm409-457c79 0 131-47 131-118 0-69-52-118-131-118-78 0-130 49-130 118 0 71 52 118 130 118zm152 483c-60 0-93-50-93-128 0-100 53-256 76-308h-453v169h224c-23 70-33 128-33 190 0 161 118 253 248 253 68 0 114-17 201-53v-170c-87 35-126 47-170 47zm861 152c-7-119-27-225-56-313 26-89 40-185 44-275h-177c-1 15-1 29-2 43-47-44-100-67-158-67-138 0-276 112-276 323 0 177 101 313 260 313 67 0 124-28 172-76 1 17 3 34 4 52zm-340-139c-62 0-97-79-97-155 0-108 43-155 87-155 40 0 86 60 120 182-27 88-64 128-110 128zm1020-449h-194c8-48 13-106 13-177h-137c-59 91-166 173-284 200v146h186c-27 66-55 136-55 211 0 139 94 232 223 232 75 0 163-20 248-48v-161c-75 20-137 40-193 40s-89-33-89-94c0-71 20-120 42-180h240zm407-47c79 0 131-47 131-118 0-69-52-118-131-118-78 0-130 49-130 118 0 71 52 118 130 118zm152 483c-60 0-93-50-93-128 0-100 53-256 76-308h-453v169h224c-23 70-33 128-33 190 0 161 118 253 248 253 68 0 114-17 201-53v-170c-87 35-126 47-170 47zm548 176c189 0 322-139 322-318s-133-318-322-318-322 139-322 318 133 318 322 318zm0-163c-80 0-133-62-133-155s53-155 133-155c81 0 133 62 133 155s-52 155-133 155zm792-473c-71 0-145 31-209 84-6-23-12-43-18-60h-185c26 76 49 160 64 239-30 63-48 133-48 204 0 105 53 169 121 169 92 0 127-130 127-212 0-58-9-122-21-185 35-43 79-72 116-72 51 0 84 44 84 113v332h188v-340c0-164-75-272-219-272zm793 328c72-72 112-150 112-224 0-126-107-233-254-233s-259 113-259 237c0 99 49 166 110 221-58 27-126 50-204 68v168c134-26 251-71 347-126 49 39 86 78 86 128 0 49-59 83-122 83-66 0-145-16-205-32v165c62 15 116 29 214 29 161 0 301-80 301-259 0-97-58-167-126-225zm-142-295c33 0 66 25 66 74 0 39-20 80-58 118-46-36-79-71-79-111 0-54 36-81 71-81zm0 0"/></svg>