<svg width="1400" height="1100.002" xmlns="http://www.w3.org/2000/svg"><path d="M407 262.002c-62 0-115 19-161 55v-1c0-76 6-164 21-266H79c-14 97-21 186-21 268 0 98 9 184 27 258-30 87-51 188-66 298h176c2-20 5-39 8-58 52 54 115 82 185 82 131 0 276-117 276-328 0-171-103-308-257-308zm-16 473c-37 0-92-57-122-190 33-79 73-120 120-120 49 0 86 78 86 155 0 96-44 155-84 155zm551-70c0-8 1-16 3-23 47 11 102 18 167 18 122 0 225-24 225-80 0-55-99-80-206-80-53 0-103 6-147 17-23-14-38-31-38-47 0-28 48-54 139-54 65 0 153 17 244 42v-156c-78-23-171-40-257-40-202 0-316 92-316 204 0 46 23 90 70 124-46 35-72 77-72 116 0 96 103 192 323 192 76 0 167-15 252-43v-157c-98 30-179 45-251 45-88 0-136-35-136-78zm0 0"/></svg>