<svg width="5600" height="1100.002" xmlns="http://www.w3.org/2000/svg"><path d="M407 262.002c-62 0-115 19-161 55v-1c0-76 6-164 21-266H79c-14 97-21 186-21 268 0 98 9 184 27 258-30 87-51 188-66 298h176c2-20 5-39 8-58 52 54 115 82 185 82 131 0 276-117 276-328 0-171-103-308-257-308zm-16 473c-37 0-92-57-122-190 33-79 73-120 120-120 49 0 86 78 86 155 0 96-44 155-84 155zm551-70c0-8 1-16 3-23 47 11 102 18 167 18 122 0 225-24 225-80 0-55-99-80-206-80-53 0-103 6-147 17-23-14-38-31-38-47 0-28 48-54 139-54 65 0 153 17 244 42v-156c-78-23-171-40-257-40-202 0-316 92-316 204 0 46 23 90 70 124-46 35-72 77-72 116 0 96 103 192 323 192 76 0 167-15 252-43v-157c-98 30-179 45-251 45-88 0-136-35-136-78zm1146 209c-87-94-162-176-225-248 119-148 165-235 165-328 0-184-132-266-278-266-132 0-278 82-278 266 0 94 40 184 159 334-60 68-133 148-219 242h238l95-108c30 33 62 69 98 108zm-428-588c0-65 46-92 91-92 46 0 91 28 91 92 0 54-30 116-92 200-58-81-90-146-90-200zm790-47c79 0 131-47 131-118 0-69-52-118-131-118-78 0-130 49-130 118 0 71 52 118 130 118zm152 483c-60 0-93-50-93-128 0-100 53-256 76-308h-453v169h224c-23 70-33 128-33 190 0 161 118 253 248 253 68 0 114-17 201-53v-170c-87 35-126 47-170 47zm440-57c0-8 1-16 3-23 47 11 102 18 167 18 122 0 225-24 225-80 0-55-99-80-206-80-53 0-103 6-147 17-23-14-38-31-38-47 0-28 48-54 139-54 65 0 153 17 244 42v-156c-78-23-171-40-257-40-202 0-316 92-316 204 0 46 23 90 70 124-46 35-72 77-72 116 0 96 103 192 323 192 76 0 167-15 252-43v-157c-98 30-179 45-251 45-88 0-136-35-136-78zm1120-379h-350c114 175 148 273 148 339 0 69-33 110-92 110-61 0-126-61-126-190 0-55 14-164 53-259h-192c-30 94-49 202-49 270 0 233 135 342 308 342 157 0 286-97 286-253 0-78-27-131-62-190h76zm280 379c0-8 1-16 3-23 47 11 102 18 167 18 122 0 225-24 225-80 0-55-99-80-206-80-53 0-103 6-147 17-23-14-38-31-38-47 0-28 48-54 139-54 65 0 153 17 244 42v-156c-78-23-171-40-257-40-202 0-316 92-316 204 0 46 23 90 70 124-46 35-72 77-72 116 0 96 103 192 323 192 76 0 167-15 252-43v-157c-98 30-179 45-251 45-88 0-136-35-136-78zm993-75c72-72 112-150 112-224 0-126-107-233-254-233s-259 113-259 237c0 99 49 166 110 221-58 27-126 50-204 68v168c134-26 251-71 347-126 49 39 86 78 86 128 0 49-59 83-122 83-66 0-145-16-205-32v165c62 15 116 29 214 29 161 0 301-80 301-259 0-97-58-167-126-225zm-142-295c33 0 66 25 66 74 0 39-20 80-58 118-46-36-79-71-79-111 0-54 36-81 71-81zm0 0"/></svg>