<svg width="4900" height="1100.002" xmlns="http://www.w3.org/2000/svg"><path d="M423 276.002c-109 0-206 93-272 235-15-81-23-176-23-287 0-54 2-112 6-174h-32c-4 61-6 119-6 173 0 136 12 249 33 341-35 91-59 197-67 310h32c6-91 23-179 49-257 53 183 149 265 257 265 124 0 233-117 233-313 0-169-86-293-210-293zm-23 578c-101 0-191-93-238-290 62-154 157-259 262-259 102 0 177 110 177 264 0 174-93 285-201 285zm421-162c0-35 13-66 35-91 60 48 153 75 259 75 103 0 199-35 199-95 0-62-96-98-199-98s-196 28-256 76c-24-26-38-57-38-92 0-90 104-162 257-162 61 0 133 11 229 46v-33c-88-28-162-41-229-41-173 0-289 83-289 190 0 44 17 83 46 114-29 31-46 69-46 111 0 108 114 191 289 191 69 0 144-17 229-43v-31c-94 30-166 46-229 46-152 0-257-66-257-163zm461-111c0 46-83 67-167 67-88 0-178-25-235-70 55-44 142-67 235-67 84 0 167 21 167 70zm542 274c-113 0-168-73-168-169 0-154 41-210 55-372h293v-28h-291c2-28 3-58 3-93h-21c-63 66-123 93-257 93v28h243c-8 108-57 218-57 372 0 114 67 197 201 197 75 0 153-28 202-47v-29c-64 26-137 48-203 48zm902-569c0 441-99 569-174 569-24 0-53-13-81-38 54-60 94-160 94-290 0-152-49-250-116-250-70 0-112 98-112 250 0 132 43 230 95 290-28 25-58 37-83 37-86 0-177-127-177-568h-28c0 451 91 598 202 598 35 0 72-16 106-47 34 31 70 47 101 47 103 0 203-147 203-598zm-277 19c47 0 87 88 87 222 0 129-38 218-84 270-47-54-87-146-87-270 0-134 35-222 84-222zm472 387c0-35 13-66 35-91 60 48 153 75 259 75 103 0 199-35 199-95 0-62-96-98-199-98s-196 28-256 76c-24-26-38-57-38-92 0-90 104-162 257-162 61 0 133 11 229 46v-33c-88-28-162-41-229-41-173 0-289 83-289 190 0 44 17 83 46 114-29 31-46 69-46 111 0 108 114 191 289 191 69 0 144-17 229-43v-31c-94 30-166 46-229 46-152 0-257-66-257-163zm461-111c0 46-83 67-167 67-88 0-178-25-235-70 55-44 142-67 235-67 84 0 167 21 167 70zm239 111c0-35 13-66 35-91 60 48 153 75 259 75 103 0 199-35 199-95 0-62-96-98-199-98s-196 28-256 76c-24-26-38-57-38-92 0-90 104-162 257-162 61 0 133 11 229 46v-33c-88-28-162-41-229-41-173 0-289 83-289 190 0 44 17 83 46 114-29 31-46 69-46 111 0 108 114 191 289 191 69 0 144-17 229-43v-31c-94 30-166 46-229 46-152 0-257-66-257-163zm461-111c0 46-83 67-167 67-88 0-178-25-235-70 55-44 142-67 235-67 84 0 167 21 167 70zm559-305c-88 0-174 53-240 131-25-42-53-83-80-121h-38c35 49 68 99 97 148-60 82-99 186-99 285 0 117 56 164 105 164 48 0 114-47 114-182 0-88-35-179-83-265 61-77 142-131 224-131 78 0 133 69 133 193v376h32v-376c0-149-64-222-165-222zm-173 431c0 118-52 148-80 148s-75-30-75-141c0-84 32-175 83-250 43 81 72 162 72 243zm0 0"/></svg>