<svg width="2100" height="1100.002" xmlns="http://www.w3.org/2000/svg"><path d="M407 262.002c-62 0-115 19-161 55v-1c0-76 6-164 21-266H79c-14 97-21 186-21 268 0 98 9 184 27 258-30 87-51 188-66 298h176c2-20 5-39 8-58 52 54 115 82 185 82 131 0 276-117 276-328 0-171-103-308-257-308zm-16 473c-37 0-92-57-122-190 33-79 73-120 120-120 49 0 86 78 86 155 0 96-44 155-84 155zm659 163c193 0 312-244 312-611l-189-1c0 314-74 452-123 452-48 0-122-145-122-452l-188 1c0 367 115 611 310 611zm993-612h-194c8-48 13-106 13-177h-137c-59 91-166 173-284 200v146h186c-27 66-55 136-55 211 0 139 94 232 223 232 75 0 163-20 248-48v-161c-75 20-137 40-193 40s-89-33-89-94c0-71 20-120 42-180h240zm0 0"/></svg>