<svg width="1400" height="1100.002" xmlns="http://www.w3.org/2000/svg"><path d="M407 262.002c-62 0-115 19-161 55v-1c0-76 6-164 21-266H79c-14 97-21 186-21 268 0 98 9 184 27 258-30 87-51 188-66 298h176c2-20 5-39 8-58 52 54 115 82 185 82 131 0 276-117 276-328 0-171-103-308-257-308zm-16 473c-37 0-92-57-122-190 33-79 73-120 120-120 49 0 86 78 86 155 0 96-44 155-84 155zm747-449c-33 29-62 57-90 83-26-26-55-54-86-83H705c86 87 159 158 218 217-102 123-137 216-137 306 0 166 108 265 257 265 157 0 271-99 271-265 0-97-42-190-148-314 61-61 137-130 229-209zm-12 523c0 70-27 112-79 112-38 0-73-33-73-112 0-52 23-109 71-175 54 66 81 119 81 175zm0 0"/></svg>