<svg width="1400" height="1100.002" xmlns="http://www.w3.org/2000/svg"><path d="M423 276.002c-109 0-206 93-272 235-15-81-23-176-23-287 0-54 2-112 6-174h-32c-4 61-6 119-6 173 0 136 12 249 33 341-35 91-59 197-67 310h32c6-91 23-179 49-257 53 183 149 265 257 265 124 0 233-117 233-313 0-169-86-293-210-293zm-23 578c-101 0-191-93-238-290 62-154 157-259 262-259 102 0 177 110 177 264 0 174-93 285-201 285zm673-342c70-66 159-140 266-226h-46c-94 76-175 144-240 207-67-63-150-132-247-207h-45c109 85 199 160 271 227-125 124-190 226-190 326 0 133 92 219 210 219 117 0 212-83 212-219 0-101-66-205-191-327zm-21 517c-101 0-178-73-178-190 0-96 59-190 178-307 119 117 180 213 180 307 0 115-84 190-180 190zm0 0"/></svg>