<svg width="2100" height="1100.002" xmlns="http://www.w3.org/2000/svg"><path d="M641 696.002c-86 27-157 38-230 38-82 0-175-45-175-159 0-96 56-148 115-148 62 0 99 61 99 149h189c0-189-107-314-290-314-168 0-301 146-301 325 0 200 154 311 352 311 95 0 184-23 241-37zm722 178c-7-119-27-225-56-313 26-89 40-185 44-275h-177c-1 15-1 29-2 43-47-44-100-67-158-67-138 0-276 112-276 323 0 177 101 313 260 313 67 0 124-28 172-76 1 17 3 34 4 52zm-340-139c-62 0-97-79-97-155 0-108 43-155 87-155 40 0 86 60 120 182-27 88-64 128-110 128zm819-473c-71 0-145 31-209 84-6-23-12-43-18-60h-185c26 76 49 160 64 239-30 63-48 133-48 204 0 105 53 169 121 169 92 0 127-130 127-212 0-58-9-122-21-185 35-43 79-72 116-72 51 0 84 44 84 113v332h188v-340c0-164-75-272-219-272zm0 0"/></svg>