<svg width="4200" height="1100.002" xmlns="http://www.w3.org/2000/svg"><path d="M625 799.002c-49 26-133 55-215 55-165 0-279-104-279-262 0-172 115-283 233-283 116 0 215 84 215 240h32c0-179-114-271-246-271-136 0-266 122-266 314 0 174 118 290 313 290 80 0 163-26 213-50zm709 75c-8-122-28-228-57-315 21-78 36-169 43-273h-29c-5 84-16 160-32 227-62-153-157-237-263-237-131 0-234 124-234 309 0 181 103 298 233 298 108 0 205-95 265-269 21 75 35 162 42 260zm-340-19c-111 0-200-106-200-270 0-170 88-280 201-280 101 0 193 93 250 262-54 187-148 288-251 288zm847-579c-88 0-174 53-240 131-25-42-53-83-80-121h-38c35 49 68 99 97 148-60 82-99 186-99 285 0 117 56 164 105 164 48 0 114-47 114-182 0-88-35-179-83-265 61-77 142-131 224-131 78 0 133 69 133 193v376h32v-376c0-149-64-222-165-222zm-173 431c0 118-52 148-80 148s-75-30-75-141c0-84 32-175 83-250 43 81 72 162 72 243zm873-431c-88 0-174 53-240 131-25-42-53-83-80-121h-38c35 49 68 99 97 148-60 82-99 186-99 285 0 117 56 164 105 164 48 0 114-47 114-182 0-88-35-179-83-265 61-77 142-131 224-131 78 0 133 69 133 193v376h32v-376c0-149-64-222-165-222zm-173 431c0 118-52 148-80 148s-75-30-75-141c0-84 32-175 83-250 43 81 72 162 72 243zm782 176c159 0 289-141 289-303s-130-304-289-304-289 142-289 304 130 303 289 303zm0-28c-141 0-258-128-258-275s117-275 258-275 258 128 258 275-117 275-258 275zm774 0c-113 0-168-73-168-169 0-154 41-210 55-372h293v-28h-291c2-28 3-58 3-93h-21c-63 66-123 93-257 93v28h243c-8 108-57 218-57 372 0 114 67 197 201 197 75 0 153-28 202-47v-29c-64 26-137 48-203 48zm0 0"/></svg>