<svg width="7000" height="1100.002" xmlns="http://www.w3.org/2000/svg"><path d="M625 799.002c-49 26-133 55-215 55-165 0-279-104-279-262 0-172 115-283 233-283 116 0 215 84 215 240h32c0-179-114-271-246-271-136 0-266 122-266 314 0 174 118 290 313 290 80 0 163-26 213-50zm425 84c159 0 289-141 289-303s-130-304-289-304-289 142-289 304 130 303 289 303zm0-28c-141 0-258-128-258-275s117-275 258-275 258 128 258 275-117 275-258 275zm806-579c-87 0-175 57-242 139-32-45-69-89-105-129h-41c47 52 90 104 126 155-57 81-95 182-95 278 0 110 51 164 110 164 58 0 121-51 121-179 0-86-41-177-98-263 62-80 144-136 224-136 104 0 168 69 168 228h32c0-184-73-257-200-257zm-158 434c0 108-52 145-87 145s-80-40-80-141c0-83 32-172 82-246 52 81 85 161 85 242zm858-434c-87 0-175 57-242 139-32-45-69-89-105-129h-41c47 52 90 104 126 155-57 81-95 182-95 278 0 110 51 164 110 164 58 0 121-51 121-179 0-86-41-177-98-263 62-80 144-136 224-136 104 0 168 69 168 228h32c0-184-73-257-200-257zm-158 434c0 108-52 145-87 145s-80-40-80-141c0-83 32-172 82-246 52 81 85 161 85 242zm523-18c0-35 13-66 35-91 60 48 153 75 259 75 103 0 199-35 199-95 0-62-96-98-199-98s-196 28-256 76c-24-26-38-57-38-92 0-90 104-162 257-162 61 0 133 11 229 46v-33c-88-28-162-41-229-41-173 0-289 83-289 190 0 44 17 83 46 114-29 31-46 69-46 111 0 108 114 191 289 191 69 0 144-17 229-43v-31c-94 30-166 46-229 46-152 0-257-66-257-163zm461-111c0 46-83 67-167 67-88 0-178-25-235-70 55-44 142-67 235-67 84 0 167 21 167 70zm537 25c96-76 146-155 146-237 0-96-66-183-180-183-110 0-177 87-177 184 0 110 76 177 160 238-72 51-169 102-290 152v30c131-53 236-108 315-164 95 67 190 130 190 240 0 103-85 164-205 164-87 0-169-22-242-49v33c73 26 154 45 239 45 147 0 240-73 240-193 0-123-100-191-196-260zm-180-236c0-81 55-157 147-157 95 0 148 76 148 157 0 74-46 147-140 219-82-59-155-121-155-219zm899-94c-91 0-175 56-240 141-26-41-55-84-89-131h-39c43 58 79 110 108 158-71 106-116 248-116 385 0 138 54 231 141 231 88 0 138-94 138-231 0-103-29-220-128-386 61-83 139-138 225-138 97 0 172 82 172 228 0 116-51 232-168 341h41c112-108 159-225 159-341 0-164-87-257-204-257zm-129 552c0 122-36 204-106 204s-110-82-110-204c0-127 39-257 101-357 89 152 115 260 115 357zm741 55c159 0 289-141 289-303s-130-304-289-304-289 142-289 304 130 303 289 303zm0-28c-141 0-258-128-258-275s117-275 258-275 258 128 258 275-117 275-258 275zm791-579c-88 0-174 53-240 131-25-42-53-83-80-121h-38c35 49 68 99 97 148-60 82-99 186-99 285 0 117 56 164 105 164 48 0 114-47 114-182 0-88-35-179-83-265 61-77 142-131 224-131 78 0 133 69 133 193v376h32v-376c0-149-64-222-165-222zm-173 431c0 118-52 148-80 148s-75-30-75-141c0-84 32-175 83-250 43 81 72 162 72 243zm1061 167c-5-145-35-272-81-371 28-122 44-271 44-449h-31c1 158-12 294-34 406-65-116-154-184-249-184-124 0-233 118-233 313 0 170 86 294 210 294 116 0 219-111 280-327 35 90 57 200 62 318zm-375-19c-102 0-177-112-177-266 0-174 93-284 201-284 94 0 179 80 237 206-55 226-154 344-261 344zm0 0"/></svg>