<svg width="7000" height="1100.002" xmlns="http://www.w3.org/2000/svg"><path d="M641 696.002c-86 27-157 38-230 38-82 0-175-45-175-159 0-96 56-148 115-148 62 0 99 61 99 149h189c0-189-107-314-290-314-168 0-301 146-301 325 0 200 154 311 352 311 95 0 184-23 241-37zm409 202c189 0 322-139 322-318s-133-318-322-318-322 139-322 318 133 318 322 318zm0-163c-80 0-133-62-133-155s53-155 133-155c81 0 133 62 133 155s-52 155-133 155zm817-473c-75 0-147 35-207 92-14-25-28-48-40-68h-196c47 74 91 166 116 253-22 59-35 124-35 190 0 105 53 169 121 169 99 0 134-120 134-212 0-62-15-126-36-187 33-49 76-77 106-77 45 0 69 43 69 156h188c0-192-57-316-220-316zm700 0c-75 0-147 35-207 92-14-25-28-48-40-68h-196c47 74 91 166 116 253-22 59-35 124-35 190 0 105 53 169 121 169 99 0 134-120 134-212 0-62-15-126-36-187 33-49 76-77 106-77 45 0 69 43 69 156h188c0-192-57-316-220-316zm475 403c0-8 1-16 3-23 47 11 102 18 167 18 122 0 225-24 225-80 0-55-99-80-206-80-53 0-103 6-147 17-23-14-38-31-38-47 0-28 48-54 139-54 65 0 153 17 244 42v-156c-78-23-171-40-257-40-202 0-316 92-316 204 0 46 23 90 70 124-46 35-72 77-72 116 0 96 103 192 323 192 76 0 167-15 252-43v-157c-98 30-179 45-251 45-88 0-136-35-136-78zm993-75c72-72 112-150 112-224 0-126-107-233-254-233s-259 113-259 237c0 99 49 166 110 221-58 27-126 50-204 68v168c134-26 251-71 347-126 49 39 86 78 86 128 0 49-59 83-122 83-66 0-145-16-205-32v165c62 15 116 29 214 29 161 0 301-80 301-259 0-97-58-167-126-225zm-142-295c33 0 66 25 66 74 0 39-20 80-58 118-46-36-79-71-79-111 0-54 36-81 71-81zm735-32c-77 0-151 37-213 100-10-26-20-51-31-77h-202c40 83 77 193 101 298-25 74-39 156-39 244 0 141 51 246 130 246 62 0 135-65 135-266 0-87-13-176-37-266 42-71 95-120 140-120 49 0 76 44 76 119 0 108-64 220-160 333h207c95-115 137-244 137-347 0-167-108-264-244-264zm622 635c189 0 322-139 322-318s-133-318-322-318-322 139-322 318 133 318 322 318zm0-163c-80 0-133-62-133-155s53-155 133-155c81 0 133 62 133 155s-52 155-133 155zm792-473c-71 0-145 31-209 84-6-23-12-43-18-60h-185c26 76 49 160 64 239-30 63-48 133-48 204 0 105 53 169 121 169 92 0 127-130 127-212 0-58-9-122-21-185 35-43 79-72 116-72 51 0 84 44 84 113v332h188v-340c0-164-75-272-219-272zm931 612c0-117-20-234-58-334 33-128 51-290 51-490h-188c0 105-3 195-8 274-49-39-106-62-170-62-139 0-269 117-269 327 0 172 100 309 254 309 75 0 143-29 199-89 1 21 1 42 1 65zm-358-139c-66 0-96-79-96-155 0-108 50-155 108-155 48 0 88 41 115 117-29 137-73 193-127 193zm0 0"/></svg>