<svg width="3500" height="1100.002" xmlns="http://www.w3.org/2000/svg"><path d="M629 874.002c-5-145-35-272-81-371 28-122 44-271 44-449h-31c1 158-12 294-34 406-65-116-154-184-249-184-124 0-233 118-233 313 0 170 86 294 210 294 116 0 219-111 280-327 35 90 57 200 62 318zm-375-19c-102 0-177-112-177-266 0-174 93-284 201-284 94 0 179 80 237 206-55 226-154 344-261 344zm1080 19c-8-122-28-228-57-315 21-78 36-169 43-273h-29c-5 84-16 160-32 227-62-153-157-237-263-237-131 0-234 124-234 309 0 181 103 298 233 298 108 0 205-95 265-269 21 75 35 162 42 260zm-340-19c-111 0-200-106-200-270 0-170 88-280 201-280 101 0 193 93 250 262-54 187-148 288-251 288zm757-676c27 0 44-17 44-44s-17-43-44-43-43 16-43 43 16 44 43 44zm88 676c-73 0-152-42-152-162 0-115 44-254 113-407h-371v28h326c-57 127-100 268-100 379 0 139 94 190 184 190 77 0 142-23 207-48v-32c-61 24-131 52-207 52zm864 19c-98-101-174-183-233-254 123-147 167-242 167-354 0-140-83-223-188-223-107 0-191 80-191 223 0 93 41 193 172 354-59 71-136 153-233 254h40c87-90 157-165 213-230 55 66 124 141 211 230zm-413-608c0-121 72-194 158-194 87 0 157 70 157 194 0 101-42 193-154 330-124-153-161-244-161-330zm883 246c70-66 159-140 266-226h-46c-94 76-175 144-240 207-67-63-150-132-247-207h-45c109 85 199 160 271 227-125 124-190 226-190 326 0 133 92 219 210 219 117 0 212-83 212-219 0-101-66-205-191-327zm-21 517c-101 0-178-73-178-190 0-96 59-190 178-307 119 117 180 213 180 307 0 115-84 190-180 190zm0 0"/></svg>