<svg width="3500" height="1100.002" xmlns="http://www.w3.org/2000/svg"><path d="M673 874.002c0-117-20-234-58-334 33-128 51-290 51-490H478c0 105-3 195-8 274-49-39-106-62-170-62-139 0-269 117-269 327 0 172 100 309 254 309 75 0 143-29 199-89 1 21 1 42 1 65zm-358-139c-66 0-96-79-96-155 0-108 50-155 108-155 48 0 88 41 115 117-29 137-73 193-127 193zm1048 139c-7-119-27-225-56-313 26-89 40-185 44-275h-177c-1 15-1 29-2 43-47-44-100-67-158-67-138 0-276 112-276 323 0 177 101 313 260 313 67 0 124-28 172-76 1 17 3 34 4 52zm-340-139c-62 0-97-79-97-155 0-108 43-155 87-155 40 0 86 60 120 182-27 88-64 128-110 128zm727-496c79 0 131-47 131-118 0-69-52-118-131-118-78 0-130 49-130 118 0 71 52 118 130 118zm152 483c-60 0-93-50-93-128 0-100 53-256 76-308h-453v169h224c-23 70-33 128-33 190 0 161 118 253 248 253 68 0 114-17 201-53v-170c-87 35-126 47-170 47zm886 152c-87-94-162-176-225-248 119-148 165-235 165-328 0-184-132-266-278-266-132 0-278 82-278 266 0 94 40 184 159 334-60 68-133 148-219 242h238l95-108c30 33 62 69 98 108zm-428-588c0-65 46-92 91-92 46 0 91 28 91 92 0 54-30 116-92 200-58-81-90-146-90-200zm878 0c-33 29-62 57-90 83-26-26-55-54-86-83h-257c86 87 159 158 218 217-102 123-137 216-137 306 0 166 108 265 257 265 157 0 271-99 271-265 0-97-42-190-148-314 61-61 137-130 229-209zm-12 523c0 70-27 112-79 112-38 0-73-33-73-112 0-52 23-109 71-175 54 66 81 119 81 175zm0 0"/></svg>