<svg width="4900" height="1100.002" xmlns="http://www.w3.org/2000/svg"><path d="M629 874.002c-5-145-35-272-81-371 28-122 44-271 44-449h-31c1 158-12 294-34 406-65-116-154-184-249-184-124 0-233 118-233 313 0 170 86 294 210 294 116 0 219-111 280-327 35 90 57 200 62 318zm-375-19c-102 0-177-112-177-266 0-174 93-284 201-284 94 0 179 80 237 206-55 226-154 344-261 344zm567-163c0-35 13-66 35-91 60 48 153 75 259 75 103 0 199-35 199-95 0-62-96-98-199-98s-196 28-256 76c-24-26-38-57-38-92 0-90 104-162 257-162 61 0 133 11 229 46v-33c-88-28-162-41-229-41-173 0-289 83-289 190 0 44 17 83 46 114-29 31-46 69-46 111 0 108 114 191 289 191 69 0 144-17 229-43v-31c-94 30-166 46-229 46-152 0-257-66-257-163zm461-111c0 46-83 67-167 67-88 0-178-25-235-70 55-44 142-67 235-67 84 0 167 21 167 70zm743 218c-49 26-133 55-215 55-165 0-279-104-279-262 0-172 115-283 233-283 116 0 215 84 215 240h32c0-179-114-271-246-271-136 0-266 122-266 314 0 174 118 290 313 290 80 0 163-26 213-50zm678 75c-98-101-174-183-233-254 123-147 167-242 167-354 0-140-83-223-188-223-107 0-191 80-191 223 0 93 41 193 172 354-59 71-136 153-233 254h40c87-90 157-165 213-230 55 66 124 141 211 230zm-413-608c0-121 72-194 158-194 87 0 157 70 157 194 0 101-42 193-154 330-124-153-161-244-161-330zm861-87c27 0 44-17 44-44s-17-43-44-43-43 16-43 43 16 44 43 44zm88 676c-73 0-152-42-152-162 0-115 44-254 113-407h-371v28h326c-57 127-100 268-100 379 0 139 94 190 184 190 77 0 142-23 207-48v-32c-61 24-131 52-207 52zm702-579c-88 0-174 53-240 131-25-42-53-83-80-121h-38c35 49 68 99 97 148-60 82-99 186-99 285 0 117 56 164 105 164 48 0 114-47 114-182 0-88-35-179-83-265 61-77 142-131 224-131 78 0 133 69 133 193v376h32v-376c0-149-64-222-165-222zm-173 431c0 118-52 148-80 148s-75-30-75-141c0-84 32-175 83-250 43 81 72 162 72 243zm553-15c0-35 13-66 35-91 60 48 153 75 259 75 103 0 199-35 199-95 0-62-96-98-199-98s-196 28-256 76c-24-26-38-57-38-92 0-90 104-162 257-162 61 0 133 11 229 46v-33c-88-28-162-41-229-41-173 0-289 83-289 190 0 44 17 83 46 114-29 31-46 69-46 111 0 108 114 191 289 191 69 0 144-17 229-43v-31c-94 30-166 46-229 46-152 0-257-66-257-163zm461-111c0 46-83 67-167 67-88 0-178-25-235-70 55-44 142-67 235-67 84 0 167 21 167 70zm0 0"/></svg>