<svg width="4900" height="1100.002" xmlns="http://www.w3.org/2000/svg"><path d="M673 874.002c0-117-20-234-58-334 33-128 51-290 51-490H478c0 105-3 195-8 274-49-39-106-62-170-62-139 0-269 117-269 327 0 172 100 309 254 309 75 0 143-29 199-89 1 21 1 42 1 65zm-358-139c-66 0-96-79-96-155 0-108 50-155 108-155 48 0 88 41 115 117-29 137-73 193-127 193zm627-70c0-8 1-16 3-23 47 11 102 18 167 18 122 0 225-24 225-80 0-55-99-80-206-80-53 0-103 6-147 17-23-14-38-31-38-47 0-28 48-54 139-54 65 0 153 17 244 42v-156c-78-23-171-40-257-40-202 0-316 92-316 204 0 46 23 90 70 124-46 35-72 77-72 116 0 96 103 192 323 192 76 0 167-15 252-43v-157c-98 30-179 45-251 45-88 0-136-35-136-78zm1099 31c-86 27-157 38-230 38-82 0-175-45-175-159 0-96 56-148 115-148 62 0 99 61 99 149h189c0-189-107-314-290-314-168 0-301 146-301 325 0 200 154 311 352 311 95 0 184-23 241-37zm747 178c-87-94-162-176-225-248 119-148 165-235 165-328 0-184-132-266-278-266-132 0-278 82-278 266 0 94 40 184 159 334-60 68-133 148-219 242h238l95-108c30 33 62 69 98 108zm-428-588c0-65 46-92 91-92 46 0 91 28 91 92 0 54-30 116-92 200-58-81-90-146-90-200zm790-47c79 0 131-47 131-118 0-69-52-118-131-118-78 0-130 49-130 118 0 71 52 118 130 118zm152 483c-60 0-93-50-93-128 0-100 53-256 76-308h-453v169h224c-23 70-33 128-33 190 0 161 118 253 248 253 68 0 114-17 201-53v-170c-87 35-126 47-170 47zm640-460c-71 0-145 31-209 84-6-23-12-43-18-60h-185c26 76 49 160 64 239-30 63-48 133-48 204 0 105 53 169 121 169 92 0 127-130 127-212 0-58-9-122-21-185 35-43 79-72 116-72 51 0 84 44 84 113v332h188v-340c0-164-75-272-219-272zm500 403c0-8 1-16 3-23 47 11 102 18 167 18 122 0 225-24 225-80 0-55-99-80-206-80-53 0-103 6-147 17-23-14-38-31-38-47 0-28 48-54 139-54 65 0 153 17 244 42v-156c-78-23-171-40-257-40-202 0-316 92-316 204 0 46 23 90 70 124-46 35-72 77-72 116 0 96 103 192 323 192 76 0 167-15 252-43v-157c-98 30-179 45-251 45-88 0-136-35-136-78zm0 0"/></svg>