<svg width="7000" height="1100.002" xmlns="http://www.w3.org/2000/svg"><path d="M121 692.002c0-35 13-66 35-91 60 48 153 75 259 75 103 0 199-35 199-95 0-62-96-98-199-98s-196 28-256 76c-24-26-38-57-38-92 0-90 104-162 257-162 61 0 133 11 229 46v-33c-88-28-162-41-229-41-173 0-289 83-289 190 0 44 17 83 46 114-29 31-46 69-46 111 0 108 114 191 289 191 69 0 144-17 229-43v-31c-94 30-166 46-229 46-152 0-257-66-257-163zm461-111c0 46-83 67-167 67-88 0-178-25-235-70 55-44 142-67 235-67 84 0 167 21 167 70zm708-295l-239 274-239-274h-40l256 294-257 294h40l237-271 236 271h40l-254-291 260-297zm548-10c-91 0-175 56-240 141-26-41-55-84-89-131h-39c43 58 79 110 108 158-71 106-116 248-116 385 0 138 54 231 141 231 88 0 138-94 138-231 0-103-29-220-128-386 61-83 139-138 225-138 97 0 172 82 172 228 0 116-51 232-168 341h41c112-108 159-225 159-341 0-164-87-257-204-257zm-129 552c0 122-36 204-106 204s-110-82-110-204c0-127 39-257 101-357 89 152 115 260 115 357zm512-136c0-35 13-66 35-91 60 48 153 75 259 75 103 0 199-35 199-95 0-62-96-98-199-98s-196 28-256 76c-24-26-38-57-38-92 0-90 104-162 257-162 61 0 133 11 229 46v-33c-88-28-162-41-229-41-173 0-289 83-289 190 0 44 17 83 46 114-29 31-46 69-46 111 0 108 114 191 289 191 69 0 144-17 229-43v-31c-94 30-166 46-229 46-152 0-257-66-257-163zm461-111c0 46-83 67-167 67-88 0-178-25-235-70 55-44 142-67 235-67 84 0 167 21 167 70zm574-305c-87 0-175 57-242 139-32-45-69-89-105-129h-41c47 52 90 104 126 155-57 81-95 182-95 278 0 110 51 164 110 164 58 0 121-51 121-179 0-86-41-177-98-263 62-80 144-136 224-136 104 0 168 69 168 228h32c0-184-73-257-200-257zm-158 434c0 108-52 145-87 145s-80-40-80-141c0-83 32-172 82-246 52 81 85 161 85 242zm753-531c27 0 44-17 44-44s-17-43-44-43-43 16-43 43 16 44 43 44zm88 676c-73 0-152-42-152-162 0-115 44-254 113-407h-371v28h326c-57 127-100 268-100 379 0 139 94 190 184 190 77 0 142-23 207-48v-32c-61 24-131 52-207 52zm382-163c0-35 13-66 35-91 60 48 153 75 259 75 103 0 199-35 199-95 0-62-96-98-199-98s-196 28-256 76c-24-26-38-57-38-92 0-90 104-162 257-162 61 0 133 11 229 46v-33c-88-28-162-41-229-41-173 0-289 83-289 190 0 44 17 83 46 114-29 31-46 69-46 111 0 108 114 191 289 191 69 0 144-17 229-43v-31c-94 30-166 46-229 46-152 0-257-66-257-163zm461-111c0 46-83 67-167 67-88 0-178-25-235-70 55-44 142-67 235-67 84 0 167 21 167 70zm559-305c-88 0-174 53-240 131-25-42-53-83-80-121h-38c35 49 68 99 97 148-60 82-99 186-99 285 0 117 56 164 105 164 48 0 114-47 114-182 0-88-35-179-83-265 61-77 142-131 224-131 78 0 133 69 133 193v376h32v-376c0-149-64-222-165-222zm-173 431c0 118-52 148-80 148s-75-30-75-141c0-84 32-175 83-250 43 81 72 162 72 243zm1057 92c-49 26-133 55-215 55-165 0-279-104-279-262 0-172 115-283 233-283 116 0 215 84 215 240h32c0-179-114-271-246-271-136 0-266 122-266 314 0 174 118 290 313 290 80 0 163-26 213-50zm196-107c0-35 13-66 35-91 60 48 153 75 259 75 103 0 199-35 199-95 0-62-96-98-199-98s-196 28-256 76c-24-26-38-57-38-92 0-90 104-162 257-162 61 0 133 11 229 46v-33c-88-28-162-41-229-41-173 0-289 83-289 190 0 44 17 83 46 114-29 31-46 69-46 111 0 108 114 191 289 191 69 0 144-17 229-43v-31c-94 30-166 46-229 46-152 0-257-66-257-163zm461-111c0 46-83 67-167 67-88 0-178-25-235-70 55-44 142-67 235-67 84 0 167 21 167 70zm0 0"/></svg>