<svg width="2100" height="1100.002" xmlns="http://www.w3.org/2000/svg"><path d="M643 286.002H308l64-236h-31l-64 236H52v28c58 38 121 83 183 131l-61 225c-12 44-26 119-26 171 0 160 118 219 221 219 96 0 192-59 192-207 0-147-145-301-293-419l33-120h342zm-400 128c-50-38-99-72-142-100h169zm286 439c0 126-85 179-163 179-81 0-185-53-185-191 0-75 14-133 24-171l55-205c144 118 269 257 269 388zm805 21c-8-122-28-228-57-315 21-78 36-169 43-273h-29c-5 84-16 160-32 227-62-153-157-237-263-237-131 0-234 124-234 309 0 181 103 298 233 298 108 0 205-95 265-269 21 75 35 162 42 260zm-340-19c-111 0-200-106-200-270 0-170 88-280 201-280 101 0 193 93 250 262-54 187-148 288-251 288zm862-579c-87 0-175 57-242 139-32-45-69-89-105-129h-41c47 52 90 104 126 155-57 81-95 182-95 278 0 110 51 164 110 164 58 0 121-51 121-179 0-86-41-177-98-263 62-80 144-136 224-136 104 0 168 69 168 228h32c0-184-73-257-200-257zm-158 434c0 108-52 145-87 145s-80-40-80-141c0-83 32-172 82-246 52 81 85 161 85 242zm0 0"/></svg>