<svg width="2100" height="1100.002" xmlns="http://www.w3.org/2000/svg"><path d="M643 286.002H308l64-236h-31l-64 236H52v28c58 38 121 83 183 131l-61 225c-12 44-26 119-26 171 0 160 118 219 221 219 96 0 192-59 192-207 0-147-145-301-293-419l33-120h342zm-400 128c-50-38-99-72-142-100h169zm286 439c0 126-85 179-163 179-81 0-185-53-185-191 0-75 14-133 24-171l55-205c144 118 269 257 269 388zm292-161c0-35 13-66 35-91 60 48 153 75 259 75 103 0 199-35 199-95 0-62-96-98-199-98s-196 28-256 76c-24-26-38-57-38-92 0-90 104-162 257-162 61 0 133 11 229 46v-33c-88-28-162-41-229-41-173 0-289 83-289 190 0 44 17 83 46 114-29 31-46 69-46 111 0 108 114 191 289 191 69 0 144-17 229-43v-31c-94 30-166 46-229 46-152 0-257-66-257-163zm461-111c0 46-83 67-167 67-88 0-178-25-235-70 55-44 142-67 235-67 84 0 167 21 167 70zm744-295c0 441-99 569-174 569-24 0-53-13-81-38 54-60 94-160 94-290 0-152-49-250-116-250-70 0-112 98-112 250 0 132 43 230 95 290-28 25-58 37-83 37-86 0-177-127-177-568h-28c0 451 91 598 202 598 35 0 72-16 106-47 34 31 70 47 101 47 103 0 203-147 203-598zm-277 19c47 0 87 88 87 222 0 129-38 218-84 270-47-54-87-146-87-270 0-134 35-222 84-222zm0 0"/></svg>