<svg width="2100" height="1100.002" xmlns="http://www.w3.org/2000/svg"><path d="M652 109.002H109v30c109 133 163 230 179 350-156 62-240 162-240 261 0 93 44 133 105 133 80 0 172-97 172-313 0-21-1-42-3-61 89-32 200-51 330-51v-30c-132 0-243 19-334 50-20-134-86-231-170-339h504zm-359 461c0 198-80 285-140 285-39 0-73-36-73-107 0-85 75-171 211-227 1 16 2 32 2 49zm757 313c159 0 289-141 289-303s-130-304-289-304-289 142-289 304 130 303 289 303zm0-28c-141 0-258-128-258-275s117-275 258-275 258 128 258 275-117 275-258 275zm806-579c-87 0-175 57-242 139-32-45-69-89-105-129h-41c47 52 90 104 126 155-57 81-95 182-95 278 0 110 51 164 110 164 58 0 121-51 121-179 0-86-41-177-98-263 62-80 144-136 224-136 104 0 168 69 168 228h32c0-184-73-257-200-257zm-158 434c0 108-52 145-87 145s-80-40-80-141c0-83 32-172 82-246 52 81 85 161 85 242zm0 0"/></svg>