<svg width="3500" height="1100.002" xmlns="http://www.w3.org/2000/svg"><path d="M496 286.002c-1 21-2 42-4 62-56-61-121-86-192-86-141 0-266 103-266 281 0 152 111 263 268 263 59 0 112-14 158-39 6 36 11 74 14 114H46v169h628c-8-190-29-339-61-454 40-85 61-190 61-310zm-169 355c-72 0-104-55-104-112 0-60 35-103 75-103 46 0 90 63 123 167-24 31-55 48-94 48zm840-379c-75 0-147 35-207 92-14-25-28-48-40-68H724c47 74 91 166 116 253-22 59-35 124-35 190 0 105 53 169 121 169 99 0 134-120 134-212 0-62-15-126-36-187 33-49 76-77 106-77 45 0 69 43 69 156h188c0-192-57-316-220-316zm475 403c0-8 1-16 3-23 47 11 102 18 167 18 122 0 225-24 225-80 0-55-99-80-206-80-53 0-103 6-147 17-23-14-38-31-38-47 0-28 48-54 139-54 65 0 153 17 244 42v-156c-78-23-171-40-257-40-202 0-316 92-316 204 0 46 23 90 70 124-46 35-72 77-72 116 0 96 103 192 323 192 76 0 167-15 252-43v-157c-98 30-179 45-251 45-88 0-136-35-136-78zm1121 209c-7-119-27-225-56-313 26-89 40-185 44-275h-177c-1 15-1 29-2 43-47-44-100-67-158-67-138 0-276 112-276 323 0 177 101 313 260 313 67 0 124-28 172-76 1 17 3 34 4 52zm-340-139c-62 0-97-79-97-155 0-108 43-155 87-155 40 0 86 60 120 182-27 88-64 128-110 128zm1020-449h-194c8-48 13-106 13-177h-137c-59 91-166 173-284 200v146h186c-27 66-55 136-55 211 0 139 94 232 223 232 75 0 163-20 248-48v-161c-75 20-137 40-193 40s-89-33-89-94c0-71 20-120 42-180h240zm0 0"/></svg>