<svg width="2800" height="1100.002" xmlns="http://www.w3.org/2000/svg"><path d="M437 276.002c-77 0-153 36-216 92-24-94-59-196-104-318H79c51 132 89 243 114 345-83 86-139 208-139 324 0 120 48 164 95 164 54 0 112-68 112-217 0-88-11-173-32-265 60-58 134-96 208-96 78 0 133 69 133 193v376h32v-376c0-149-64-222-165-222zm-286 579c-23 0-66-30-66-141 0-98 47-204 117-284 18 83 27 161 27 242 0 129-50 183-78 183zm1183 19c-8-122-28-228-57-315 21-78 36-169 43-273h-29c-5 84-16 160-32 227-62-153-157-237-263-237-131 0-234 124-234 309 0 181 103 298 233 298 108 0 205-95 265-269 21 75 35 162 42 260zm-340-19c-111 0-200-106-200-270 0-170 88-280 201-280 101 0 193 93 250 262-54 187-148 288-251 288zm847-579c-88 0-174 53-240 131-25-42-53-83-80-121h-38c35 49 68 99 97 148-60 82-99 186-99 285 0 117 56 164 105 164 48 0 114-47 114-182 0-88-35-179-83-265 61-77 142-131 224-131 78 0 133 69 133 193v376h32v-376c0-149-64-222-165-222zm-173 431c0 118-52 148-80 148s-75-30-75-141c0-84 32-175 83-250 43 81 72 162 72 243zm1061 167c-5-145-35-272-81-371 28-122 44-271 44-449h-31c1 158-12 294-34 406-65-116-154-184-249-184-124 0-233 118-233 313 0 170 86 294 210 294 116 0 219-111 280-327 35 90 57 200 62 318zm-375-19c-102 0-177-112-177-266 0-174 93-284 201-284 94 0 179 80 237 206-55 226-154 344-261 344zm0 0"/></svg>