<svg width="2100" height="1100.002" xmlns="http://www.w3.org/2000/svg"><path d="M437 276.002c-77 0-153 36-216 92-24-94-59-196-104-318H79c51 132 89 243 114 345-83 86-139 208-139 324 0 120 48 164 95 164 54 0 112-68 112-217 0-88-11-173-32-265 60-58 134-96 208-96 78 0 133 69 133 193v376h32v-376c0-149-64-222-165-222zm-286 579c-23 0-66-30-66-141 0-98 47-204 117-284 18 83 27 161 27 242 0 129-50 183-78 183zm1183 19c-8-122-28-228-57-315 21-78 36-169 43-273h-29c-5 84-16 160-32 227-62-153-157-237-263-237-131 0-234 124-234 309 0 181 103 298 233 298 108 0 205-95 265-269 21 75 35 162 42 260zm-340-19c-111 0-200-106-200-270 0-170 88-280 201-280 101 0 193 93 250 262-54 187-148 288-251 288zm825-249c96-76 146-155 146-237 0-96-66-183-180-183-110 0-177 87-177 184 0 110 76 177 160 238-72 51-169 102-290 152v30c131-53 236-108 315-164 95 67 190 130 190 240 0 103-85 164-205 164-87 0-169-22-242-49v33c73 26 154 45 239 45 147 0 240-73 240-193 0-123-100-191-196-260zm-180-236c0-81 55-157 147-157 95 0 148 76 148 157 0 74-46 147-140 219-82-59-155-121-155-219zm0 0"/></svg>