<svg width="2800" height="1100.002" xmlns="http://www.w3.org/2000/svg"><path d="M437 276.002c-77 0-153 36-216 92-24-94-59-196-104-318H79c51 132 89 243 114 345-83 86-139 208-139 324 0 120 48 164 95 164 54 0 112-68 112-217 0-88-11-173-32-265 60-58 134-96 208-96 78 0 133 69 133 193v376h32v-376c0-149-64-222-165-222zm-286 579c-23 0-66-30-66-141 0-98 47-204 117-284 18 83 27 161 27 242 0 129-50 183-78 183zm1183 19c-8-122-28-228-57-315 21-78 36-169 43-273h-29c-5 84-16 160-32 227-62-153-157-237-263-237-131 0-234 124-234 309 0 181 103 298 233 298 108 0 205-95 265-269 21 75 35 162 42 260zm-340-19c-111 0-200-106-200-270 0-170 88-280 201-280 101 0 193 93 250 262-54 187-148 288-251 288zm1024-569h-221c125 107 185 204 185 334 0 140-88 233-227 233s-237-113-237-267c0-84 25-171 80-300h-34c-55 122-77 212-77 300 0 170 112 295 268 295 160 0 259-100 259-261 0-118-56-231-144-306h148zm203 406c0-35 13-66 35-91 60 48 153 75 259 75 103 0 199-35 199-95 0-62-96-98-199-98s-196 28-256 76c-24-26-38-57-38-92 0-90 104-162 257-162 61 0 133 11 229 46v-33c-88-28-162-41-229-41-173 0-289 83-289 190 0 44 17 83 46 114-29 31-46 69-46 111 0 108 114 191 289 191 69 0 144-17 229-43v-31c-94 30-166 46-229 46-152 0-257-66-257-163zm461-111c0 46-83 67-167 67-88 0-178-25-235-70 55-44 142-67 235-67 84 0 167 21 167 70zm0 0"/></svg>