<svg width="3500" height="1100.002" xmlns="http://www.w3.org/2000/svg"><path d="M437 276.002c-77 0-153 36-216 92-24-94-59-196-104-318H79c51 132 89 243 114 345-83 86-139 208-139 324 0 120 48 164 95 164 54 0 112-68 112-217 0-88-11-173-32-265 60-58 134-96 208-96 78 0 133 69 133 193v376h32v-376c0-149-64-222-165-222zm-286 579c-23 0-66-30-66-141 0-98 47-204 117-284 18 83 27 161 27 242 0 129-50 183-78 183zm899 28c159 0 289-141 289-303s-130-304-289-304-289 142-289 304 130 303 289 303zm0-28c-141 0-258-128-258-275s117-275 258-275 258 128 258 275-117 275-258 275zm788-579c-91 0-175 56-240 141-26-41-55-84-89-131h-39c43 58 79 110 108 158-71 106-116 248-116 385 0 138 54 231 141 231 88 0 138-94 138-231 0-103-29-220-128-386 61-83 139-138 225-138 97 0 172 82 172 228 0 116-51 232-168 341h41c112-108 159-225 159-341 0-164-87-257-204-257zm-129 552c0 122-36 204-106 204s-110-82-110-204c0-127 39-257 101-357 89 152 115 260 115 357zm512-136c0-35 13-66 35-91 60 48 153 75 259 75 103 0 199-35 199-95 0-62-96-98-199-98s-196 28-256 76c-24-26-38-57-38-92 0-90 104-162 257-162 61 0 133 11 229 46v-33c-88-28-162-41-229-41-173 0-289 83-289 190 0 44 17 83 46 114-29 31-46 69-46 111 0 108 114 191 289 191 69 0 144-17 229-43v-31c-94 30-166 46-229 46-152 0-257-66-257-163zm461-111c0 46-83 67-167 67-88 0-178-25-235-70 55-44 142-67 235-67 84 0 167 21 167 70zm537 25c96-76 146-155 146-237 0-96-66-183-180-183-110 0-177 87-177 184 0 110 76 177 160 238-72 51-169 102-290 152v30c131-53 236-108 315-164 95 67 190 130 190 240 0 103-85 164-205 164-87 0-169-22-242-49v33c73 26 154 45 239 45 147 0 240-73 240-193 0-123-100-191-196-260zm-180-236c0-81 55-157 147-157 95 0 148 76 148 157 0 74-46 147-140 219-82-59-155-121-155-219zm0 0"/></svg>