<svg width="6300" height="1100.002" xmlns="http://www.w3.org/2000/svg"><path d="M350 239.002c79 0 131-47 131-118 0-69-52-118-131-118-78 0-130 49-130 118 0 71 52 118 130 118zm152 483c-60 0-93-50-93-128 0-100 53-256 76-308H32v169h224c-23 70-33 128-33 190 0 161 118 253 248 253 68 0 114-17 201-53v-170c-87 35-126 47-170 47zm733-132c72-72 112-150 112-224 0-126-107-233-254-233s-259 113-259 237c0 99 49 166 110 221-58 27-126 50-204 68v168c134-26 251-71 347-126 49 39 86 78 86 128 0 49-59 83-122 83-66 0-145-16-205-32v165c62 15 116 29 214 29 161 0 301-80 301-259 0-97-58-167-126-225zm-142-295c33 0 66 25 66 74 0 39-20 80-58 118-46-36-79-71-79-111 0-54 36-81 71-81zm797-9c0 318-12 428-59 428-10 0-19-9-26-26 19-59 30-127 30-198 0-168-41-228-81-228-43 0-84 60-84 228 0 70 11 136 29 194-7 19-16 29-24 29-43 0-65-109-65-427h-188c0 478 99 609 204 609 43 0 89-35 126-92 36 57 80 92 122 92 105 0 204-131 204-609zm560 612c189 0 322-139 322-318s-133-318-322-318-322 139-322 318 133 318 322 318zm0-163c-80 0-133-62-133-155s53-155 133-155c81 0 133 62 133 155s-52 155-133 155zm817-473c-75 0-147 35-207 92-14-25-28-48-40-68h-196c47 74 91 166 116 253-22 59-35 124-35 190 0 105 53 169 121 169 99 0 134-120 134-212 0-62-15-126-36-187 33-49 76-77 106-77 45 0 69 43 69 156h188c0-192-57-316-220-316zm767 373c67-60 123-120 123-207 0-96-62-166-175-166-69 0-142 27-208 71-9-87-22-181-37-283h-192c32 194 47 332 53 472-37 64-59 136-59 207 0 105 53 169 122 169 91 0 127-142 127-306 0-28-1-57-2-86 47-51 101-87 144-87 25 0 40 24 40 51 0 41-49 110-129 162l122 242h211zm516-396c79 0 131-47 131-118 0-69-52-118-131-118-78 0-130 49-130 118 0 71 52 118 130 118zm152 483c-60 0-93-50-93-128 0-100 53-256 76-308h-453v169h224c-23 70-33 128-33 190 0 161 118 253 248 253 68 0 114-17 201-53v-170c-87 35-126 47-170 47zm640-460c-71 0-145 31-209 84-6-23-12-43-18-60h-185c26 76 49 160 64 239-30 63-48 133-48 204 0 105 53 169 121 169 92 0 127-130 127-212 0-58-9-122-21-185 35-43 79-72 116-72 51 0 84 44 84 113v332h188v-340c0-164-75-272-219-272zm754 24c-1 21-2 42-4 62-56-61-121-86-192-86-141 0-266 103-266 281 0 152 111 263 268 263 59 0 112-14 158-39 6 36 11 74 14 114h-428v169h628c-8-190-29-339-61-454 40-85 61-190 61-310zm-169 355c-72 0-104-55-104-112 0-60 35-103 75-103 46 0 90 63 123 167-24 31-55 48-94 48zm0 0"/></svg>