<svg width="3500" height="1100.002" xmlns="http://www.w3.org/2000/svg"><path d="M626 409.002c-1-62-49-133-170-133-85 0-167 39-234 100-24-108-55-224-86-326H98c38 116 72 241 97 352-81 86-134 205-134 317 0 120 50 164 97 164s110-56 110-205c0-63-15-160-38-268 63-63 143-105 226-105 87 0 139 51 139 110 0 61-45 124-186 220l162 239h38l-159-234c132-88 178-158 176-231zm-465 446c-24 0-69-30-69-141 0-94 43-197 111-275 21 99 33 186 33 244 0 130-52 172-75 172zm890-676c27 0 44-17 44-44s-17-43-44-43-43 16-43 43 16 44 43 44zm88 676c-73 0-152-42-152-162 0-115 44-254 113-407H729v28h326c-57 127-100 268-100 379 0 139 94 190 184 190 77 0 142-23 207-48v-32c-61 24-131 52-207 52zm702-579c-88 0-174 53-240 131-25-42-53-83-80-121h-38c35 49 68 99 97 148-60 82-99 186-99 285 0 117 56 164 105 164 48 0 114-47 114-182 0-88-35-179-83-265 61-77 142-131 224-131 78 0 133 69 133 193v376h32v-376c0-149-64-222-165-222zm-173 431c0 118-52 148-80 148s-75-30-75-141c0-84 32-175 83-250 43 81 72 162 72 243zm1061 167c-5-145-35-272-81-371 28-122 44-271 44-449h-31c1 158-12 294-34 406-65-116-154-184-249-184-124 0-233 118-233 313 0 170 86 294 210 294 116 0 219-111 280-327 35 90 57 200 62 318zm-375-19c-102 0-177-112-177-266 0-174 93-284 201-284 94 0 179 80 237 206-55 226-154 344-261 344zm865-249c96-76 146-155 146-237 0-96-66-183-180-183-110 0-177 87-177 184 0 110 76 177 160 238-72 51-169 102-290 152v30c131-53 236-108 315-164 95 67 190 130 190 240 0 103-85 164-205 164-87 0-169-22-242-49v33c73 26 154 45 239 45 147 0 240-73 240-193 0-123-100-191-196-260zm-180-236c0-81 55-157 147-157 95 0 148 76 148 157 0 74-46 147-140 219-82-59-155-121-155-219zm0 0"/></svg>