<svg width="2800" height="1100.002" xmlns="http://www.w3.org/2000/svg"><path d="M534 635.002c67-60 123-120 123-207 0-96-62-166-175-166-69 0-142 27-208 71-9-87-22-181-37-283H45c32 194 47 332 53 472-37 64-59 136-59 207 0 105 53 169 122 169 91 0 127-142 127-306 0-28-1-57-2-86 47-51 101-87 144-87 25 0 40 24 40 51 0 41-49 110-129 162l122 242h211zm608-373c-71 0-145 31-209 84-6-23-12-43-18-60H730c26 76 49 160 64 239-30 63-48 133-48 204 0 105 53 169 121 169 92 0 127-130 127-212 0-58-9-122-21-185 35-43 79-72 116-72 51 0 84 44 84 113v332h188v-340c0-164-75-272-219-272zm608 636c189 0 322-139 322-318s-133-318-322-318-322 139-322 318 133 318 322 318zm0-163c-80 0-133-62-133-155s53-155 133-155c81 0 133 62 133 155s-52 155-133 155zm840-449c0 318-12 428-59 428-10 0-19-9-26-26 19-59 30-127 30-198 0-168-41-228-81-228-43 0-84 60-84 228 0 70 11 136 29 194-7 19-16 29-24 29-43 0-65-109-65-427h-188c0 478 99 609 204 609 43 0 89-35 126-92 36 57 80 92 122 92 105 0 204-131 204-609zm0 0"/></svg>