<svg width="2100" height="1100.002" xmlns="http://www.w3.org/2000/svg"><path d="M482 592.002c0 80-17 109-56 109-21 0-48-20-81-41-3-97-54-181-54-300 0-70 24-106 67-106 36 0 71 51 71 158h196c0-202-92-326-253-326-154 0-277 106-277 279 0 97 38 164 61 240-63 10-143 58-143 154 0 81 47 139 138 139 52 0 107-34 146-87 59 38 107 87 190 87 97 0 191-82 191-306zm881 282c-7-119-27-225-56-313 26-89 40-185 44-275h-177c-1 15-1 29-2 43-47-44-100-67-158-67-138 0-276 112-276 323 0 177 101 313 260 313 67 0 124-28 172-76 1 17 3 34 4 52zm-340-139c-62 0-97-79-97-155 0-108 43-155 87-155 40 0 86 60 120 182-27 88-64 128-110 128zm867-449c0 318-12 428-59 428-10 0-19-9-26-26 19-59 30-127 30-198 0-168-41-228-81-228-43 0-84 60-84 228 0 70 11 136 29 194-7 19-16 29-24 29-43 0-65-109-65-427h-188c0 478 99 609 204 609 43 0 89-35 126-92 36 57 80 92 122 92 105 0 204-131 204-609zm0 0"/></svg>