<svg width="2100" height="1100.002" xmlns="http://www.w3.org/2000/svg"><path d="M462 86.002c-40 0-80 30-113 80-32-50-71-80-110-80-106 0-217 132-217 788h198c0-496 14-607 49-606 10 0 19 7 25 20-18 60-28 130-28 205 0 166 41 252 81 252 42 0 84-86 84-252-1-74-11-144-29-204 7-14 15-21 24-21 30 0 55 110 55 606h198c0-656-111-788-217-788zm901 788c-7-119-27-225-56-313 26-89 40-185 44-275h-177c-1 15-1 29-2 43-47-44-100-67-158-67-138 0-276 112-276 323 0 177 101 313 260 313 67 0 124-28 172-76 1 17 3 34 4 52zm-340-139c-62 0-97-79-97-155 0-108 43-155 87-155 40 0 86 60 120 182-27 88-64 128-110 128zm819-473c-71 0-145 31-209 84-6-23-12-43-18-60h-185c26 76 49 160 64 239-30 63-48 133-48 204 0 105 53 169 121 169 92 0 127-130 127-212 0-58-9-122-21-185 35-43 79-72 116-72 51 0 84 44 84 113v332h188v-340c0-164-75-272-219-272zm0 0"/></svg>