<svg width="3500" height="1100.002" xmlns="http://www.w3.org/2000/svg"><path d="M474 265.002c-43 0-89 35-126 92-36-57-80-92-122-92-105 0-204 131-204 609h188c0-318 12-428 59-428 10 0 19 9 26 26-19 59-30 127-30 198 0 168 41 228 81 228 43 0 84-60 84-228 0-70-11-136-29-194 7-19 16-29 24-29 43 0 65 109 65 427h188c0-478-99-609-204-609zm576-26c79 0 131-47 131-118 0-69-52-118-131-118-78 0-130 49-130 118 0 71 52 118 130 118zm152 483c-60 0-93-50-93-128 0-100 53-256 76-308H732v169h224c-23 70-33 128-33 190 0 161 118 253 248 253 68 0 114-17 201-53v-170c-87 35-126 47-170 47zm694-436c-1 21-2 42-4 62-56-61-121-86-192-86-141 0-266 103-266 281 0 152 111 263 268 263 59 0 112-14 158-39 6 36 11 74 14 114h-428v169h628c-8-190-29-339-61-454 40-85 61-190 61-310zm-169 355c-72 0-104-55-104-112 0-60 35-103 75-103 46 0 90 63 123 167-24 31-55 48-94 48zm806-379c-57 0-116 20-171 55-9-83-21-171-36-267h-187c29 185 45 320 52 454-37 68-60 145-60 225 0 105 53 169 121 169 92 0 127-142 127-306 0-36-1-73-3-111 32-32 67-52 98-52 51 0 91 43 91 156v289h188v-309c0-179-69-303-220-303zm910 24h-194c8-48 13-106 13-177h-137c-59 91-166 173-284 200v146h186c-27 66-55 136-55 211 0 139 94 232 223 232 75 0 163-20 248-48v-161c-75 20-137 40-193 40s-89-33-89-94c0-71 20-120 42-180h240zm0 0"/></svg>