<svg width="4900" height="1100.002" xmlns="http://www.w3.org/2000/svg"><path d="M350 898.002c189 0 322-139 322-318s-133-318-322-318-322 139-322 318 133 318 322 318zm0-163c-80 0-133-62-133-155s53-155 133-155c81 0 133 62 133 155s-52 155-133 155zm757-473c-62 0-115 19-161 55v-1c0-76 6-164 21-266H779c-14 97-21 186-21 268 0 98 9 184 27 258-30 87-51 188-66 298h176c2-20 5-39 8-58 52 54 115 82 185 82 131 0 276-117 276-328 0-171-103-308-257-308zm-16 473c-37 0-92-57-122-190 33-79 73-120 120-120 49 0 86 78 86 155 0 96-44 155-84 155zm844-145c72-72 112-150 112-224 0-126-107-233-254-233s-259 113-259 237c0 99 49 166 110 221-58 27-126 50-204 68v168c134-26 251-71 347-126 49 39 86 78 86 128 0 49-59 83-122 83-66 0-145-16-205-32v165c62 15 116 29 214 29 161 0 301-80 301-259 0-97-58-167-126-225zm-142-295c33 0 66 25 66 74 0 39-20 80-58 118-46-36-79-71-79-111 0-54 36-81 71-81zm948 401c-86 27-157 38-230 38-82 0-175-45-175-159 0-96 56-148 115-148 62 0 99 61 99 149h189c0-189-107-314-290-314-168 0-301 146-301 325 0 200 154 311 352 311 95 0 184-23 241-37zm409 202c193 0 312-244 312-611l-189-1c0 314-74 452-123 452-48 0-122-145-122-452l-188 1c0 367 115 611 310 611zm817-636c-75 0-147 35-207 92-14-25-28-48-40-68h-196c47 74 91 166 116 253-22 59-35 124-35 190 0 105 53 169 121 169 99 0 134-120 134-212 0-62-15-126-36-187 33-49 76-77 106-77 45 0 69 43 69 156h188c0-192-57-316-220-316zm475 403c0-8 1-16 3-23 47 11 102 18 167 18 122 0 225-24 225-80 0-55-99-80-206-80-53 0-103 6-147 17-23-14-38-31-38-47 0-28 48-54 139-54 65 0 153 17 244 42v-156c-78-23-171-40-257-40-202 0-316 92-316 204 0 46 23 90 70 124-46 35-72 77-72 116 0 96 103 192 323 192 76 0 167-15 252-43v-157c-98 30-179 45-251 45-88 0-136-35-136-78zm0 0"/></svg>