<svg width="1400" height="1100.002" xmlns="http://www.w3.org/2000/svg"><path d="M350 883.002c159 0 289-141 289-303s-130-304-289-304-289 142-289 304 130 303 289 303zm0-28c-141 0-258-128-258-275s117-275 258-275 258 128 258 275-117 275-258 275zm993-569h-335l64-236h-31l-64 236H752v28c58 38 121 83 183 131l-61 225c-12 44-26 119-26 171 0 160 118 219 221 219 96 0 192-59 192-207 0-147-145-301-293-419l33-120h342zm-400 128c-50-38-99-72-142-100h169zm286 439c0 126-85 179-163 179-81 0-185-53-185-191 0-75 14-133 24-171l55-205c144 118 269 257 269 388zm0 0"/></svg>