<svg width="1400" height="1100.002" xmlns="http://www.w3.org/2000/svg"><path d="M350 898.002c189 0 322-139 322-318s-133-318-322-318-322 139-322 318 133 318 322 318zm0-163c-80 0-133-62-133-155s53-155 133-155c81 0 133 62 133 155s-52 155-133 155zm755-449l68-236H981l-70 236H736v167c40 11 78 24 113 39l-26 88c-32 108-41 163-41 213 0 197 140 281 273 281 147 0 267-115 267-281 0-138-101-277-201-338h238v-169zm28 507c0 61-24 116-75 116-37 0-83-44-83-116 0-48 9-85 21-127l21-73c75 63 116 135 116 200zm0 0"/></svg>