<svg width="2100" height="1100.002" xmlns="http://www.w3.org/2000/svg"><path d="M350 898.002c189 0 322-139 322-318s-133-318-322-318-322 139-322 318 133 318 322 318zm0-163c-80 0-133-62-133-155s53-155 133-155c81 0 133 62 133 155s-52 155-133 155zm792-473c-71 0-145 31-209 84-6-23-12-43-18-60H730c26 76 49 160 64 239-30 63-48 133-48 204 0 105 53 169 121 169 92 0 127-130 127-212 0-58-9-122-21-185 35-43 79-72 116-72 51 0 84 44 84 113v332h188v-340c0-164-75-272-219-272zm500 403c0-8 1-16 3-23 47 11 102 18 167 18 122 0 225-24 225-80 0-55-99-80-206-80-53 0-103 6-147 17-23-14-38-31-38-47 0-28 48-54 139-54 65 0 153 17 244 42v-156c-78-23-171-40-257-40-202 0-316 92-316 204 0 46 23 90 70 124-46 35-72 77-72 116 0 96 103 192 323 192 76 0 167-15 252-43v-157c-98 30-179 45-251 45-88 0-136-35-136-78zm0 0"/></svg>