<svg width="3500" height="1100.002" xmlns="http://www.w3.org/2000/svg"><path d="M350 898.002c189 0 322-139 322-318s-133-318-322-318-322 139-322 318 133 318 322 318zm0-163c-80 0-133-62-133-155s53-155 133-155c81 0 133 62 133 155s-52 155-133 155zm993-449h-194c8-48 13-106 13-177h-137c-59 91-166 173-284 200v146h186c-27 66-55 136-55 211 0 139 94 232 223 232 75 0 163-20 248-48v-161c-75 20-137 40-193 40s-89-33-89-94c0-71 20-120 42-180h240zm490-24c-57 0-116 20-171 55-9-83-21-171-36-267h-187c29 185 45 320 52 454-37 68-60 145-60 225 0 105 53 169 121 169 92 0 127-142 127-306 0-36-1-73-3-111 32-32 67-52 98-52 51 0 91 43 91 156v289h188v-309c0-179-69-303-220-303zm509 403c0-8 1-16 3-23 47 11 102 18 167 18 122 0 225-24 225-80 0-55-99-80-206-80-53 0-103 6-147 17-23-14-38-31-38-47 0-28 48-54 139-54 65 0 153 17 244 42v-156c-78-23-171-40-257-40-202 0-316 92-316 204 0 46 23 90 70 124-46 35-72 77-72 116 0 96 103 192 323 192 76 0 167-15 252-43v-157c-98 30-179 45-251 45-88 0-136-35-136-78zm925-403c-75 0-147 35-207 92-14-25-28-48-40-68h-196c47 74 91 166 116 253-22 59-35 124-35 190 0 105 53 169 121 169 99 0 134-120 134-212 0-62-15-126-36-187 33-49 76-77 106-77 45 0 69 43 69 156h188c0-192-57-316-220-316zm0 0"/></svg>