<svg width="2800" height="1100.002" xmlns="http://www.w3.org/2000/svg"><path d="M438 276.002c-91 0-175 56-240 141-26-41-55-84-89-131H70c43 58 79 110 108 158-71 106-116 248-116 385 0 138 54 231 141 231 88 0 138-94 138-231 0-103-29-220-128-386 61-83 139-138 225-138 97 0 172 82 172 228 0 116-51 232-168 341h41c112-108 159-225 159-341 0-164-87-257-204-257zm-129 552c0 122-36 204-106 204s-110-82-110-204c0-127 39-257 101-357 89 152 115 260 115 357zm1025 46c-8-122-28-228-57-315 21-78 36-169 43-273h-29c-5 84-16 160-32 227-62-153-157-237-263-237-131 0-234 124-234 309 0 181 103 298 233 298 108 0 205-95 265-269 21 75 35 162 42 260zm-340-19c-111 0-200-106-200-270 0-170 88-280 201-280 101 0 193 93 250 262-54 187-148 288-251 288zm862-579c-87 0-175 57-242 139-32-45-69-89-105-129h-41c47 52 90 104 126 155-57 81-95 182-95 278 0 110 51 164 110 164 58 0 121-51 121-179 0-86-41-177-98-263 62-80 144-136 224-136 104 0 168 69 168 228h32c0-184-73-257-200-257zm-158 434c0 108-52 145-87 145s-80-40-80-141c0-83 32-172 82-246 52 81 85 161 85 242zm826 145c-113 0-168-73-168-169 0-154 41-210 55-372h293v-28h-291c2-28 3-58 3-93h-21c-63 66-123 93-257 93v28h243c-8 108-57 218-57 372 0 114 67 197 201 197 75 0 153-28 202-47v-29c-64 26-137 48-203 48zm0 0"/></svg>