<svg width="6300" height="1100.002" xmlns="http://www.w3.org/2000/svg"><path d="M438 276.002c-91 0-175 56-240 141-26-41-55-84-89-131H70c43 58 79 110 108 158-71 106-116 248-116 385 0 138 54 231 141 231 88 0 138-94 138-231 0-103-29-220-128-386 61-83 139-138 225-138 97 0 172 82 172 228 0 116-51 232-168 341h41c112-108 159-225 159-341 0-164-87-257-204-257zm-129 552c0 122-36 204-106 204s-110-82-110-204c0-127 39-257 101-357 89 152 115 260 115 357zm847-552c-87 0-175 57-242 139-32-45-69-89-105-129h-41c47 52 90 104 126 155-57 81-95 182-95 278 0 110 51 164 110 164 58 0 121-51 121-179 0-86-41-177-98-263 62-80 144-136 224-136 104 0 168 69 168 228h32c0-184-73-257-200-257zm-158 434c0 108-52 145-87 145s-80-40-80-141c0-83 32-172 82-246 52 81 85 161 85 242zm523-18c0-35 13-66 35-91 60 48 153 75 259 75 103 0 199-35 199-95 0-62-96-98-199-98s-196 28-256 76c-24-26-38-57-38-92 0-90 104-162 257-162 61 0 133 11 229 46v-33c-88-28-162-41-229-41-173 0-289 83-289 190 0 44 17 83 46 114-29 31-46 69-46 111 0 108 114 191 289 191 69 0 144-17 229-43v-31c-94 30-166 46-229 46-152 0-257-66-257-163zm461-111c0 46-83 67-167 67-88 0-178-25-235-70 55-44 142-67 235-67 84 0 167 21 167 70zm743 218c-49 26-133 55-215 55-165 0-279-104-279-262 0-172 115-283 233-283 116 0 215 84 215 240h32c0-179-114-271-246-271-136 0-266 122-266 314 0 174 118 290 313 290 80 0 163-26 213-50zm426-620c27 0 44-17 44-44s-17-43-44-43-43 16-43 43 16 44 43 44zm88 676c-73 0-152-42-152-162 0-115 44-254 113-407h-371v28h326c-57 127-100 268-100 379 0 139 94 190 184 190 77 0 142-23 207-48v-32c-61 24-131 52-207 52zm680-249c96-76 146-155 146-237 0-96-66-183-180-183-110 0-177 87-177 184 0 110 76 177 160 238-72 51-169 102-290 152v30c131-53 236-108 315-164 95 67 190 130 190 240 0 103-85 164-205 164-87 0-169-22-242-49v33c73 26 154 45 239 45 147 0 240-73 240-193 0-123-100-191-196-260zm-180-236c0-81 55-157 147-157 95 0 148 76 148 157 0 74-46 147-140 219-82-59-155-121-155-219zm582 322c0-35 13-66 35-91 60 48 153 75 259 75 103 0 199-35 199-95 0-62-96-98-199-98s-196 28-256 76c-24-26-38-57-38-92 0-90 104-162 257-162 61 0 133 11 229 46v-33c-88-28-162-41-229-41-173 0-289 83-289 190 0 44 17 83 46 114-29 31-46 69-46 111 0 108 114 191 289 191 69 0 144-17 229-43v-31c-94 30-166 46-229 46-152 0-257-66-257-163zm461-111c0 46-83 67-167 67-88 0-178-25-235-70 55-44 142-67 235-67 84 0 167 21 167 70zm721 293c-98-101-174-183-233-254 123-147 167-242 167-354 0-140-83-223-188-223-107 0-191 80-191 223 0 93 41 193 172 354-59 71-136 153-233 254h40c87-90 157-165 213-230 55 66 124 141 211 230zm-413-608c0-121 72-194 158-194 87 0 157 70 157 194 0 101-42 193-154 330-124-153-161-244-161-330zm883 246c70-66 159-140 266-226h-46c-94 76-175 144-240 207-67-63-150-132-247-207h-45c109 85 199 160 271 227-125 124-190 226-190 326 0 133 92 219 210 219 117 0 212-83 212-219 0-101-66-205-191-327zm-21 517c-101 0-178-73-178-190 0-96 59-190 178-307 119 117 180 213 180 307 0 115-84 190-180 190zm0 0"/></svg>