<svg width="3518" height="1100.002" xmlns="http://www.w3.org/2000/svg"><path d="M446 263.002c-77 0-151 37-213 100-10-26-20-51-31-77H0c40 83 77 193 101 298-25 74-39 156-39 244 0 141 51 246 130 246 62 0 135-65 135-266 0-87-13-176-37-266 42-71 95-120 140-120 49 0 76 44 76 119 0 108-64 220-160 333h207c95-115 137-244 137-347 0-167-108-264-244-264zm739-1c-75 0-147 35-207 92-14-25-28-48-40-68H742c47 74 91 166 116 253-22 59-35 124-35 190 0 105 53 169 121 169 99 0 134-120 134-212 0-62-15-126-36-187 33-49 76-77 106-77 45 0 69 43 69 156h188c0-192-57-316-220-316zm583 636c189 0 322-139 322-318s-133-318-322-318-322 139-322 318 133 318 322 318zm0-163c-80 0-133-62-133-155s53-155 133-155c81 0 133 62 133 155s-52 155-133 155zm1012-449h-350c114 175 148 273 148 339 0 69-33 110-92 110-61 0-126-61-126-190 0-55 14-164 53-259h-192c-30 94-49 202-49 270 0 233 135 342 308 342 157 0 286-97 286-253 0-78-27-131-62-190h76zm280 379c0-8 1-16 3-23 47 11 102 18 167 18 122 0 225-24 225-80 0-55-99-80-206-80-53 0-103 6-147 17-23-14-38-31-38-47 0-28 48-54 139-54 65 0 153 17 244 42v-156c-78-23-171-40-257-40-202 0-316 92-316 204 0 46 23 90 70 124-46 35-72 77-72 116 0 96 103 192 323 192 76 0 167-15 252-43v-157c-98 30-179 45-251 45-88 0-136-35-136-78zm0 0"/></svg>