<svg width="3500" height="1100.002" xmlns="http://www.w3.org/2000/svg"><path d="M730 1035.002c0-142-44-257-114-331 15-38 23-80 23-124 0-163-128-303-291-303-161 0-287 140-287 303 0 162 134 302 300 302 109 0 195-61 241-148 59 69 96 174 96 301zm-637-455c0-147 111-274 255-274 146 0 259 127 259 274 0 35-6 69-16 100-52-43-114-67-182-67-94 0-164 61-164 144 0 32 11 63 35 86-106-39-187-151-187-263zm285 274c-69 0-103-48-103-97 0-67 57-116 135-116 64 0 122 25 169 69-39 84-114 144-201 144zm672 28c175 0 245-310 256-596h-31c-12 263-77 568-225 568s-213-305-225-568h-31c11 286 81 596 256 596zm701-703c27 0 44-17 44-44s-17-43-44-43-43 16-43 43 16 44 43 44zm88 676c-73 0-152-42-152-162 0-115 44-254 113-407h-371v28h326c-57 127-100 268-100 379 0 139 94 190 184 190 77 0 142-23 207-48v-32c-61 24-131 52-207 52zm685 0c-113 0-168-73-168-169 0-154 41-210 55-372h293v-28h-291c2-28 3-58 3-93h-21c-63 66-123 93-257 93v28h243c-8 108-57 218-57 372 0 114 67 197 201 197 75 0 153-28 202-47v-29c-64 26-137 48-203 48zm397-163c0-35 13-66 35-91 60 48 153 75 259 75 103 0 199-35 199-95 0-62-96-98-199-98s-196 28-256 76c-24-26-38-57-38-92 0-90 104-162 257-162 61 0 133 11 229 46v-33c-88-28-162-41-229-41-173 0-289 83-289 190 0 44 17 83 46 114-29 31-46 69-46 111 0 108 114 191 289 191 69 0 144-17 229-43v-31c-94 30-166 46-229 46-152 0-257-66-257-163zm461-111c0 46-83 67-167 67-88 0-178-25-235-70 55-44 142-67 235-67 84 0 167 21 167 70zm0 0"/></svg>