<svg width="3500" height="1100.002" xmlns="http://www.w3.org/2000/svg"><path d="M734 945.002c0-112-27-202-71-271 9-30 14-61 14-94 0-179-141-318-325-318-183 0-324 139-324 318s135 318 319 318c73 0 141-22 196-61 5 32 8 67 8 108zm-381-524c74 0 129 42 146 115-37-14-74-21-112-21-75 0-149 33-183 97-1-10-2-21-2-32 0-100 63-159 151-159zm44 352c-38 0-66-24-66-58 0-36 31-61 69-61 27 0 59 13 86 45-20 50-54 74-89 74zm653 125c193 0 312-244 312-611l-189-1c0 314-74 452-123 452-48 0-122-145-122-452l-188 1c0 367 115 611 310 611zm700-659c79 0 131-47 131-118 0-69-52-118-131-118-78 0-130 49-130 118 0 71 52 118 130 118zm152 483c-60 0-93-50-93-128 0-100 53-256 76-308h-453v169h224c-23 70-33 128-33 190 0 161 118 253 248 253 68 0 114-17 201-53v-170c-87 35-126 47-170 47zm841-436h-194c8-48 13-106 13-177h-137c-59 91-166 173-284 200v146h186c-27 66-55 136-55 211 0 139 94 232 223 232 75 0 163-20 248-48v-161c-75 20-137 40-193 40s-89-33-89-94c0-71 20-120 42-180h240zm299 379c0-8 1-16 3-23 47 11 102 18 167 18 122 0 225-24 225-80 0-55-99-80-206-80-53 0-103 6-147 17-23-14-38-31-38-47 0-28 48-54 139-54 65 0 153 17 244 42v-156c-78-23-171-40-257-40-202 0-316 92-316 204 0 46 23 90 70 124-46 35-72 77-72 116 0 96 103 192 323 192 76 0 167-15 252-43v-157c-98 30-179 45-251 45-88 0-136-35-136-78zm0 0"/></svg>