<svg width="2800" height="1100.002" xmlns="http://www.w3.org/2000/svg"><path d="M456 276.002c-87 0-175 57-242 139-32-45-69-89-105-129H68c47 52 90 104 126 155-57 81-95 182-95 278 0 110 51 164 110 164 58 0 121-51 121-179 0-86-41-177-98-263 62-80 144-136 224-136 104 0 168 69 168 228h32c0-184-73-257-200-257zm-158 434c0 108-52 145-87 145s-80-40-80-141c0-83 32-172 82-246 52 81 85 161 85 242zm523-18c0-35 13-66 35-91 60 48 153 75 259 75 103 0 199-35 199-95 0-62-96-98-199-98s-196 28-256 76c-24-26-38-57-38-92 0-90 104-162 257-162 61 0 133 11 229 46v-33c-88-28-162-41-229-41-173 0-289 83-289 190 0 44 17 83 46 114-29 31-46 69-46 111 0 108 114 191 289 191 69 0 144-17 229-43v-31c-94 30-166 46-229 46-152 0-257-66-257-163zm461-111c0 46-83 67-167 67-88 0-178-25-235-70 55-44 142-67 235-67 84 0 167 21 167 70zm537 25c96-76 146-155 146-237 0-96-66-183-180-183-110 0-177 87-177 184 0 110 76 177 160 238-72 51-169 102-290 152v30c131-53 236-108 315-164 95 67 190 130 190 240 0 103-85 164-205 164-87 0-169-22-242-49v33c73 26 154 45 239 45 147 0 240-73 240-193 0-123-100-191-196-260zm-180-236c0-81 55-157 147-157 95 0 148 76 148 157 0 74-46 147-140 219-82-59-155-121-155-219zm885 485c-113 0-168-73-168-169 0-154 41-210 55-372h293v-28h-291c2-28 3-58 3-93h-21c-63 66-123 93-257 93v28h243c-8 108-57 218-57 372 0 114 67 197 201 197 75 0 153-28 202-47v-29c-64 26-137 48-203 48zm0 0"/></svg>