<svg width="2100" height="1100.002" xmlns="http://www.w3.org/2000/svg"><path d="M419 606.002c96-76 146-155 146-237 0-96-66-183-180-183-110 0-177 87-177 184 0 110 76 177 160 238-72 51-169 102-290 152v30c131-53 236-108 315-164 95 67 190 130 190 240 0 103-85 164-205 164-87 0-169-22-242-49v33c73 26 154 45 239 45 147 0 240-73 240-193 0-123-100-191-196-260zm-180-236c0-81 55-157 147-157 95 0 148 76 148 157 0 74-46 147-140 219-82-59-155-121-155-219zm1095 504c-8-122-28-228-57-315 21-78 36-169 43-273h-29c-5 84-16 160-32 227-62-153-157-237-263-237-131 0-234 124-234 309 0 181 103 298 233 298 108 0 205-95 265-269 21 75 35 162 42 260zm-340-19c-111 0-200-106-200-270 0-170 88-280 201-280 101 0 193 93 250 262-54 187-148 288-251 288zm779-343c70-66 159-140 266-226h-46c-94 76-175 144-240 207-67-63-150-132-247-207h-45c109 85 199 160 271 227-125 124-190 226-190 326 0 133 92 219 210 219 117 0 212-83 212-219 0-101-66-205-191-327zm-21 517c-101 0-178-73-178-190 0-96 59-190 178-307 119 117 180 213 180 307 0 115-84 190-180 190zm0 0"/></svg>