<svg width="4200" height="1100.002" xmlns="http://www.w3.org/2000/svg"><path d="M535 590.002c72-72 112-150 112-224 0-126-107-233-254-233s-259 113-259 237c0 99 49 166 110 221-58 27-126 50-204 68v168c134-26 251-71 347-126 49 39 86 78 86 128 0 49-59 83-122 83-66 0-145-16-205-32v165c62 15 116 29 214 29 161 0 301-80 301-259 0-97-58-167-126-225zm-142-295c33 0 66 25 66 74 0 39-20 80-58 118-46-36-79-71-79-111 0-54 36-81 71-81zm657-56c79 0 131-47 131-118 0-69-52-118-131-118-78 0-130 49-130 118 0 71 52 118 130 118zm152 483c-60 0-93-50-93-128 0-100 53-256 76-308H732v169h224c-23 70-33 128-33 190 0 161 118 253 248 253 68 0 114-17 201-53v-170c-87 35-126 47-170 47zm672-457c-43 0-89 35-126 92-36-57-80-92-122-92-105 0-204 131-204 609h188c0-318 12-428 59-428 10 0 19 9 26 26-19 59-30 127-30 198 0 168 41 228 81 228 43 0 84-60 84-228 0-70-11-136-29-194 7-19 16-29 24-29 43 0 65 109 65 427h188c0-478-99-609-204-609zm654-2c-77 0-151 37-213 100-10-26-20-51-31-77h-202c40 83 77 193 101 298-25 74-39 156-39 244 0 141 51 246 130 246 62 0 135-65 135-266 0-87-13-176-37-266 42-71 95-120 140-120 49 0 76 44 76 119 0 108-64 220-160 333h207c95-115 137-244 137-347 0-167-108-264-244-264zm960 611c-87-94-162-176-225-248 119-148 165-235 165-328 0-184-132-266-278-266-132 0-278 82-278 266 0 94 40 184 159 334-60 68-133 148-219 242h238l95-108c30 33 62 69 98 108zm-428-588c0-65 46-92 91-92 46 0 91 28 91 92 0 54-30 116-92 200-58-81-90-146-90-200zm682 379c0-8 1-16 3-23 47 11 102 18 167 18 122 0 225-24 225-80 0-55-99-80-206-80-53 0-103 6-147 17-23-14-38-31-38-47 0-28 48-54 139-54 65 0 153 17 244 42v-156c-78-23-171-40-257-40-202 0-316 92-316 204 0 46 23 90 70 124-46 35-72 77-72 116 0 96 103 192 323 192 76 0 167-15 252-43v-157c-98 30-179 45-251 45-88 0-136-35-136-78zm0 0"/></svg>