<svg width="6300" height="1100.002" xmlns="http://www.w3.org/2000/svg"><path d="M419 606.002c96-76 146-155 146-237 0-96-66-183-180-183-110 0-177 87-177 184 0 110 76 177 160 238-72 51-169 102-290 152v30c131-53 236-108 315-164 95 67 190 130 190 240 0 103-85 164-205 164-87 0-169-22-242-49v33c73 26 154 45 239 45 147 0 240-73 240-193 0-123-100-191-196-260zm-180-236c0-81 55-157 147-157 95 0 148 76 148 157 0 74-46 147-140 219-82-59-155-121-155-219zm1064 504c-98-101-174-183-233-254 123-147 167-242 167-354 0-140-83-223-188-223-107 0-191 80-191 223 0 93 41 193 172 354-59 71-136 153-233 254h40c87-90 157-165 213-230 55 66 124 141 211 230zm-413-608c0-121 72-194 158-194 87 0 157 70 157 194 0 101-42 193-154 330-124-153-161-244-161-330zm1144 608c-8-122-28-228-57-315 21-78 36-169 43-273h-29c-5 84-16 160-32 227-62-153-157-237-263-237-131 0-234 124-234 309 0 181 103 298 233 298 108 0 205-95 265-269 21 75 35 162 42 260zm-340-19c-111 0-200-106-200-270 0-170 88-280 201-280 101 0 193 93 250 262-54 187-148 288-251 288zm756 27c175 0 245-310 256-596h-31c-12 263-77 568-225 568s-213-305-225-568h-31c11 286 81 596 256 596zm961-596c-9 82-27 167-53 245-56-195-150-255-245-255-145 0-245 142-245 316 0 171 88 291 219 291 113 0 203-106 266-253 19 100 30 229 30 392h-499v28h530c0-201-16-353-42-467 33-92 57-195 69-297zm-325 569c-112 0-186-110-186-263 0-157 84-287 213-287 88 0 178 64 229 273-58 157-147 277-256 277zm851-579c-77 0-153 36-216 92-24-94-59-196-104-318h-38c51 132 89 243 114 345-83 86-139 208-139 324 0 120 48 164 95 164 54 0 112-68 112-217 0-88-11-173-32-265 60-58 134-96 208-96 78 0 133 69 133 193v376h32v-376c0-149-64-222-165-222zm-286 579c-23 0-66-30-66-141 0-98 47-204 117-284 18 83 27 161 27 242 0 129-50 183-78 183zm973 0c-113 0-168-73-168-169 0-154 41-210 55-372h293v-28h-291c2-28 3-58 3-93h-21c-63 66-123 93-257 93v28h243c-8 108-57 218-57 372 0 114 67 197 201 197 75 0 153-28 202-47v-29c-64 26-137 48-203 48zm397-163c0-35 13-66 35-91 60 48 153 75 259 75 103 0 199-35 199-95 0-62-96-98-199-98s-196 28-256 76c-24-26-38-57-38-92 0-90 104-162 257-162 61 0 133 11 229 46v-33c-88-28-162-41-229-41-173 0-289 83-289 190 0 44 17 83 46 114-29 31-46 69-46 111 0 108 114 191 289 191 69 0 144-17 229-43v-31c-94 30-166 46-229 46-152 0-257-66-257-163zm461-111c0 46-83 67-167 67-88 0-178-25-235-70 55-44 142-67 235-67 84 0 167 21 167 70zm574-305c-87 0-175 57-242 139-32-45-69-89-105-129h-41c47 52 90 104 126 155-57 81-95 182-95 278 0 110 51 164 110 164 58 0 121-51 121-179 0-86-41-177-98-263 62-80 144-136 224-136 104 0 168 69 168 228h32c0-184-73-257-200-257zm-158 434c0 108-52 145-87 145s-80-40-80-141c0-83 32-172 82-246 52 81 85 161 85 242zm0 0"/></svg>