<svg width="5600" height="1100.002" xmlns="http://www.w3.org/2000/svg"><path d="M535 590.002c72-72 112-150 112-224 0-126-107-233-254-233s-259 113-259 237c0 99 49 166 110 221-58 27-126 50-204 68v168c134-26 251-71 347-126 49 39 86 78 86 128 0 49-59 83-122 83-66 0-145-16-205-32v165c62 15 116 29 214 29 161 0 301-80 301-259 0-97-58-167-126-225zm-142-295c33 0 66 25 66 74 0 39-20 80-58 118-46-36-79-71-79-111 0-54 36-81 71-81zm735-32c-77 0-151 37-213 100-10-26-20-51-31-77H682c40 83 77 193 101 298-25 74-39 156-39 244 0 141 51 246 130 246 62 0 135-65 135-266 0-87-13-176-37-266 42-71 95-120 140-120 49 0 76 44 76 119 0 108-64 220-160 333h207c95-115 137-244 137-347 0-167-108-264-244-264zm514 402c0-8 1-16 3-23 47 11 102 18 167 18 122 0 225-24 225-80 0-55-99-80-206-80-53 0-103 6-147 17-23-14-38-31-38-47 0-28 48-54 139-54 65 0 153 17 244 42v-156c-78-23-171-40-257-40-202 0-316 92-316 204 0 46 23 90 70 124-46 35-72 77-72 116 0 96 103 192 323 192 76 0 167-15 252-43v-157c-98 30-179 45-251 45-88 0-136-35-136-78zm1121 209c-7-119-27-225-56-313 26-89 40-185 44-275h-177c-1 15-1 29-2 43-47-44-100-67-158-67-138 0-276 112-276 323 0 177 101 313 260 313 67 0 124-28 172-76 1 17 3 34 4 52zm-340-139c-62 0-97-79-97-155 0-108 43-155 87-155 40 0 86 60 120 182-27 88-64 128-110 128zm911-100c67-60 123-120 123-207 0-96-62-166-175-166-69 0-142 27-208 71-9-87-22-181-37-283h-192c32 194 47 332 53 472-37 64-59 136-59 207 0 105 53 169 122 169 91 0 127-142 127-306 0-28-1-57-2-86 47-51 101-87 144-87 25 0 40 24 40 51 0 41-49 110-129 162l122 242h211zm516-396c79 0 131-47 131-118 0-69-52-118-131-118-78 0-130 49-130 118 0 71 52 118 130 118zm152 483c-60 0-93-50-93-128 0-100 53-256 76-308h-453v169h224c-23 70-33 128-33 190 0 161 118 253 248 253 68 0 114-17 201-53v-170c-87 35-126 47-170 47zm640-460c-71 0-145 31-209 84-6-23-12-43-18-60h-185c26 76 49 160 64 239-30 63-48 133-48 204 0 105 53 169 121 169 92 0 127-130 127-212 0-58-9-122-21-185 35-43 79-72 116-72 51 0 84 44 84 113v332h188v-340c0-164-75-272-219-272zm754 24c-1 21-2 42-4 62-56-61-121-86-192-86-141 0-266 103-266 281 0 152 111 263 268 263 59 0 112-14 158-39 6 36 11 74 14 114h-428v169h628c-8-190-29-339-61-454 40-85 61-190 61-310zm-169 355c-72 0-104-55-104-112 0-60 35-103 75-103 46 0 90 63 123 167-24 31-55 48-94 48zm0 0"/></svg>