<svg width="3500" height="1100.002" xmlns="http://www.w3.org/2000/svg"><path d="M535 590.002c72-72 112-150 112-224 0-126-107-233-254-233s-259 113-259 237c0 99 49 166 110 221-58 27-126 50-204 68v168c134-26 251-71 347-126 49 39 86 78 86 128 0 49-59 83-122 83-66 0-145-16-205-32v165c62 15 116 29 214 29 161 0 301-80 301-259 0-97-58-167-126-225zm-142-295c33 0 66 25 66 74 0 39-20 80-58 118-46-36-79-71-79-111 0-54 36-81 71-81zm950-9h-194c8-48 13-106 13-177h-137c-59 91-166 173-284 200v146h186c-27 66-55 136-55 211 0 139 94 232 223 232 75 0 163-20 248-48v-161c-75 20-137 40-193 40s-89-33-89-94c0-71 20-120 42-180h240zm407-47c79 0 131-47 131-118 0-69-52-118-131-118-78 0-130 49-130 118 0 71 52 118 130 118zm152 483c-60 0-93-50-93-128 0-100 53-256 76-308h-453v169h224c-23 70-33 128-33 190 0 161 118 253 248 253 68 0 114-17 201-53v-170c-87 35-126 47-170 47zm886 152c-87-94-162-176-225-248 119-148 165-235 165-328 0-184-132-266-278-266-132 0-278 82-278 266 0 94 40 184 159 334-60 68-133 148-219 242h238l95-108c30 33 62 69 98 108zm-428-588c0-65 46-92 91-92 46 0 91 28 91 92 0 54-30 116-92 200-58-81-90-146-90-200zm1128 588c-87-94-162-176-225-248 119-148 165-235 165-328 0-184-132-266-278-266-132 0-278 82-278 266 0 94 40 184 159 334-60 68-133 148-219 242h238l95-108c30 33 62 69 98 108zm-428-588c0-65 46-92 91-92 46 0 91 28 91 92 0 54-30 116-92 200-58-81-90-146-90-200zm0 0"/></svg>