<svg width="4200" height="1100.002" xmlns="http://www.w3.org/2000/svg"><path d="M419 606.002c96-76 146-155 146-237 0-96-66-183-180-183-110 0-177 87-177 184 0 110 76 177 160 238-72 51-169 102-290 152v30c131-53 236-108 315-164 95 67 190 130 190 240 0 103-85 164-205 164-87 0-169-22-242-49v33c73 26 154 45 239 45 147 0 240-73 240-193 0-123-100-191-196-260zm-180-236c0-81 55-157 147-157 95 0 148 76 148 157 0 74-46 147-140 219-82-59-155-121-155-219zm885 485c-113 0-168-73-168-169 0-154 41-210 55-372h293v-28h-291c2-28 3-58 3-93h-21c-63 66-123 93-257 93v28h243c-8 108-57 218-57 372 0 114 67 197 201 197 75 0 153-28 202-47v-29c-64 26-137 48-203 48zm626 27c175 0 245-310 256-596h-31c-12 263-77 568-225 568s-213-305-225-568h-31c11 286 81 596 256 596zm993-596h-335l64-236h-31l-64 236h-225v28c58 38 121 83 183 131l-61 225c-12 44-26 119-26 171 0 160 118 219 221 219 96 0 192-59 192-207 0-147-145-301-293-419l33-120h342zm-400 128c-50-38-99-72-142-100h169zm286 439c0 126-85 179-163 179-81 0-185-53-185-191 0-75 14-133 24-171l55-205c144 118 269 257 269 388zm814-567h-335l64-236h-31l-64 236h-225v28c58 38 121 83 183 131l-61 225c-12 44-26 119-26 171 0 160 118 219 221 219 96 0 192-59 192-207 0-147-145-301-293-419l33-120h342zm-400 128c-50-38-99-72-142-100h169zm286 439c0 126-85 179-163 179-81 0-185-53-185-191 0-75 14-133 24-171l55-205c144 118 269 257 269 388zm490-1c0 18 13 31 33 31 17 0 30-13 30-31s-13-31-30-31c-20 0-33 13-33 31zm0 0"/></svg>