<svg width="3500" height="1100.002" xmlns="http://www.w3.org/2000/svg"><path d="M643 286.002H449c8-48 13-106 13-177H325c-59 91-166 173-284 200v146h186c-27 66-55 136-55 211 0 139 94 232 223 232 75 0 163-20 248-48v-161c-75 20-137 40-193 40s-89-33-89-94c0-71 20-120 42-180h240zm720 588c-7-119-27-225-56-313 26-89 40-185 44-275h-177c-1 15-1 29-2 43-47-44-100-67-158-67-138 0-276 112-276 323 0 177 101 313 260 313 67 0 124-28 172-76 1 17 3 34 4 52zm-340-139c-62 0-97-79-97-155 0-108 43-155 87-155 40 0 86 60 120 182-27 88-64 128-110 128zm911-100c67-60 123-120 123-207 0-96-62-166-175-166-69 0-142 27-208 71-9-87-22-181-37-283h-192c32 194 47 332 53 472-37 64-59 136-59 207 0 105 53 169 122 169 91 0 127-142 127-306 0-28-1-57-2-86 47-51 101-87 144-87 25 0 40 24 40 51 0 41-49 110-129 162l122 242h211zm408 30c0-8 1-16 3-23 47 11 102 18 167 18 122 0 225-24 225-80 0-55-99-80-206-80-53 0-103 6-147 17-23-14-38-31-38-47 0-28 48-54 139-54 65 0 153 17 244 42v-156c-78-23-171-40-257-40-202 0-316 92-316 204 0 46 23 90 70 124-46 35-72 77-72 116 0 96 103 192 323 192 76 0 167-15 252-43v-157c-98 30-179 45-251 45-88 0-136-35-136-78zm900-403c-71 0-145 31-209 84-6-23-12-43-18-60h-185c26 76 49 160 64 239-30 63-48 133-48 204 0 105 53 169 121 169 92 0 127-130 127-212 0-58-9-122-21-185 35-43 79-72 116-72 51 0 84 44 84 113v332h188v-340c0-164-75-272-219-272zm0 0"/></svg>