<svg width="2800" height="1100.002" xmlns="http://www.w3.org/2000/svg"><path d="M643 286.002H449c8-48 13-106 13-177H325c-59 91-166 173-284 200v146h186c-27 66-55 136-55 211 0 139 94 232 223 232 75 0 163-20 248-48v-161c-75 20-137 40-193 40s-89-33-89-94c0-71 20-120 42-180h240zm490-24c-57 0-116 20-171 55-9-83-21-171-36-267H739c29 185 45 320 52 454-37 68-60 145-60 225 0 105 53 169 121 169 92 0 127-142 127-306 0-36-1-73-3-111 32-32 67-52 98-52 51 0 91 43 91 156v289h188v-309c0-179-69-303-220-303zm930 612c-7-119-27-225-56-313 26-89 40-185 44-275h-177c-1 15-1 29-2 43-47-44-100-67-158-67-138 0-276 112-276 323 0 177 101 313 260 313 67 0 124-28 172-76 1 17 3 34 4 52zm-340-139c-62 0-97-79-97-155 0-108 43-155 87-155 40 0 86 60 120 182-27 88-64 128-110 128zm1020-449h-194c8-48 13-106 13-177h-137c-59 91-166 173-284 200v146h186c-27 66-55 136-55 211 0 139 94 232 223 232 75 0 163-20 248-48v-161c-75 20-137 40-193 40s-89-33-89-94c0-71 20-120 42-180h240zm0 0"/></svg>