<svg width="3500" height="1100.002" xmlns="http://www.w3.org/2000/svg"><path d="M643 286.002H449c8-48 13-106 13-177H325c-59 91-166 173-284 200v146h186c-27 66-55 136-55 211 0 139 94 232 223 232 75 0 163-20 248-48v-161c-75 20-137 40-193 40s-89-33-89-94c0-71 20-120 42-180h240zm490-24c-57 0-116 20-171 55-9-83-21-171-36-267H739c29 185 45 320 52 454-37 68-60 145-60 225 0 105 53 169 121 169 92 0 127-142 127-306 0-36-1-73-3-111 32-32 67-52 98-52 51 0 91 43 91 156v289h188v-309c0-179-69-303-220-303zm509 403c0-8 1-16 3-23 47 11 102 18 167 18 122 0 225-24 225-80 0-55-99-80-206-80-53 0-103 6-147 17-23-14-38-31-38-47 0-28 48-54 139-54 65 0 153 17 244 42v-156c-78-23-171-40-257-40-202 0-316 92-316 204 0 46 23 90 70 124-46 35-72 77-72 116 0 96 103 192 323 192 76 0 167-15 252-43v-157c-98 30-179 45-251 45-88 0-136-35-136-78zm808-426c79 0 131-47 131-118 0-69-52-118-131-118-78 0-130 49-130 118 0 71 52 118 130 118zm152 483c-60 0-93-50-93-128 0-100 53-256 76-308h-453v169h224c-23 70-33 128-33 190 0 161 118 253 248 253 68 0 114-17 201-53v-170c-87 35-126 47-170 47zm665-460c-75 0-147 35-207 92-14-25-28-48-40-68h-196c47 74 91 166 116 253-22 59-35 124-35 190 0 105 53 169 121 169 99 0 134-120 134-212 0-62-15-126-36-187 33-49 76-77 106-77 45 0 69 43 69 156h188c0-192-57-316-220-316zm0 0"/></svg>