<svg width="2800" height="1100.002" xmlns="http://www.w3.org/2000/svg"><path d="M626 286.002c0 441-99 569-174 569-24 0-53-13-81-38 54-60 94-160 94-290 0-152-49-250-116-250-70 0-112 98-112 250 0 132 43 230 95 290-28 25-58 37-83 37-86 0-177-127-177-568H44c0 451 91 598 202 598 35 0 72-16 106-47 34 31 70 47 101 47 103 0 203-147 203-598zm-277 19c47 0 87 88 87 222 0 129-38 218-84 270-47-54-87-146-87-270 0-134 35-222 84-222zm472 387c0-35 13-66 35-91 60 48 153 75 259 75 103 0 199-35 199-95 0-62-96-98-199-98s-196 28-256 76c-24-26-38-57-38-92 0-90 104-162 257-162 61 0 133 11 229 46v-33c-88-28-162-41-229-41-173 0-289 83-289 190 0 44 17 83 46 114-29 31-46 69-46 111 0 108 114 191 289 191 69 0 144-17 229-43v-31c-94 30-166 46-229 46-152 0-257-66-257-163zm461-111c0 46-83 67-167 67-88 0-178-25-235-70 55-44 142-67 235-67 84 0 167 21 167 70zm721 293c-98-101-174-183-233-254 123-147 167-242 167-354 0-140-83-223-188-223-107 0-191 80-191 223 0 93 41 193 172 354-59 71-136 153-233 254h40c87-90 157-165 213-230 55 66 124 141 211 230zm-413-608c0-121 72-194 158-194 87 0 157 70 157 194 0 101-42 193-154 330-124-153-161-244-161-330zm1113 608c-98-101-174-183-233-254 123-147 167-242 167-354 0-140-83-223-188-223-107 0-191 80-191 223 0 93 41 193 172 354-59 71-136 153-233 254h40c87-90 157-165 213-230 55 66 124 141 211 230zm-413-608c0-121 72-194 158-194 87 0 157 70 157 194 0 101-42 193-154 330-124-153-161-244-161-330zm0 0"/></svg>