<svg width="2100" height="1100.002" xmlns="http://www.w3.org/2000/svg"><path d="M490 286.002c0 318-12 428-59 428-10 0-19-9-26-26 19-59 30-127 30-198 0-168-41-228-81-228-43 0-84 60-84 228 0 70 11 136 29 194-7 19-16 29-24 29-43 0-65-109-65-427H22c0 478 99 609 204 609 43 0 89-35 126-92 36 57 80 92 122 92 105 0 204-131 204-609zm643-24c-57 0-116 20-171 55-9-83-21-171-36-267H739c29 185 45 320 52 454-37 68-60 145-60 225 0 105 53 169 121 169 92 0 127-142 127-306 0-36-1-73-3-111 32-32 67-52 98-52 51 0 91 43 91 156v289h188v-309c0-179-69-303-220-303zm617 636c189 0 322-139 322-318s-133-318-322-318-322 139-322 318 133 318 322 318zm0-163c-80 0-133-62-133-155s53-155 133-155c81 0 133 62 133 155s-52 155-133 155zm0 0"/></svg>