<svg width="2100" height="1100.002" xmlns="http://www.w3.org/2000/svg"><path d="M626 286.002c0 441-99 569-174 569-24 0-53-13-81-38 54-60 94-160 94-290 0-152-49-250-116-250-70 0-112 98-112 250 0 132 43 230 95 290-28 25-58 37-83 37-86 0-177-127-177-568H44c0 451 91 598 202 598 35 0 72-16 106-47 34 31 70 47 101 47 103 0 203-147 203-598zm-277 19c47 0 87 88 87 222 0 129-38 218-84 270-47-54-87-146-87-270 0-134 35-222 84-222zm788-29c-77 0-153 36-216 92-24-94-59-196-104-318h-38c51 132 89 243 114 345-83 86-139 208-139 324 0 120 48 164 95 164 54 0 112-68 112-217 0-88-11-173-32-265 60-58 134-96 208-96 78 0 133 69 133 193v376h32v-376c0-149-64-222-165-222zm-286 579c-23 0-66-30-66-141 0-98 47-204 117-284 18 83 27 161 27 242 0 129-50 183-78 183zm899 28c159 0 289-141 289-303s-130-304-289-304-289 142-289 304 130 303 289 303zm0-28c-141 0-258-128-258-275s117-275 258-275 258 128 258 275-117 275-258 275zm0 0"/></svg>