<svg width="4200" height="1100.002" xmlns="http://www.w3.org/2000/svg"><path d="M490 286.002c0 318-12 428-59 428-10 0-19-9-26-26 19-59 30-127 30-198 0-168-41-228-81-228-43 0-84 60-84 228 0 70 11 136 29 194-7 19-16 29-24 29-43 0-65-109-65-427H22c0 478 99 609 204 609 43 0 89-35 126-92 36 57 80 92 122 92 105 0 204-131 204-609zm560-47c79 0 131-47 131-118 0-69-52-118-131-118-78 0-130 49-130 118 0 71 52 118 130 118zm152 483c-60 0-93-50-93-128 0-100 53-256 76-308H732v169h224c-23 70-33 128-33 190 0 161 118 253 248 253 68 0 114-17 201-53v-170c-87 35-126 47-170 47zm733-132c72-72 112-150 112-224 0-126-107-233-254-233s-259 113-259 237c0 99 49 166 110 221-58 27-126 50-204 68v168c134-26 251-71 347-126 49 39 86 78 86 128 0 49-59 83-122 83-66 0-145-16-205-32v165c62 15 116 29 214 29 161 0 301-80 301-259 0-97-58-167-126-225zm-142-295c33 0 66 25 66 74 0 39-20 80-58 118-46-36-79-71-79-111 0-54 36-81 71-81zm980 579c0-117-20-234-58-334 33-128 51-290 51-490h-188c0 105-3 195-8 274-49-39-106-62-170-62-139 0-269 117-269 327 0 172 100 309 254 309 75 0 143-29 199-89 1 21 1 42 1 65zm-358-139c-66 0-96-79-96-155 0-108 50-155 108-155 48 0 88 41 115 117-29 137-73 193-127 193zm735 163c189 0 322-139 322-318s-133-318-322-318-322 139-322 318 133 318 322 318zm0-163c-80 0-133-62-133-155s53-155 133-155c81 0 133 62 133 155s-52 155-133 155zm824-470c-43 0-89 35-126 92-36-57-80-92-122-92-105 0-204 131-204 609h188c0-318 12-428 59-428 10 0 19 9 26 26-19 59-30 127-30 198 0 168 41 228 81 228 43 0 84-60 84-228 0-70-11-136-29-194 7-19 16-29 24-29 43 0 65 109 65 427h188c0-478-99-609-204-609zm0 0"/></svg>