<svg width="4900" height="1100.002" xmlns="http://www.w3.org/2000/svg"><path d="M626 109.002c0 488-99 746-174 746-26 0-56-28-85-75 54-95 96-245 96-406 0-164-41-274-112-274-72 0-112 110-112 274 0 162 44 310 98 404-30 48-61 76-88 76-86 0-177-257-177-745H44c0 498 91 774 202 774 35 0 73-30 106-80 34 50 70 80 101 80 103 0 203-276 203-774zm-359 265c0-146 30-246 84-246s82 100 82 246c0 155-37 291-82 378-46-90-84-228-84-378zm783 509c159 0 289-141 289-303s-130-304-289-304-289 142-289 304 130 303 289 303zm0-28c-141 0-258-128-258-275s117-275 258-275 258 128 258 275-117 275-258 275zm806-579c-87 0-175 57-242 139-32-45-69-89-105-129h-41c47 52 90 104 126 155-57 81-95 182-95 278 0 110 51 164 110 164 58 0 121-51 121-179 0-86-41-177-98-263 62-80 144-136 224-136 104 0 168 69 168 228h32c0-184-73-257-200-257zm-158 434c0 108-52 145-87 145s-80-40-80-141c0-83 32-172 82-246 52 81 85 161 85 242zm1031 164c-5-145-35-272-81-371 28-122 44-271 44-449h-31c1 158-12 294-34 406-65-116-154-184-249-184-124 0-233 118-233 313 0 170 86 294 210 294 116 0 219-111 280-327 35 90 57 200 62 318zm-375-19c-102 0-177-112-177-266 0-174 93-284 201-284 94 0 179 80 237 206-55 226-154 344-261 344zm904-755c-90 0-194 82-275 196-37-74-75-139-105-187h-37c37 59 82 134 121 217-73 111-124 246-124 363 0 114 47 194 121 194 75 0 133-80 133-205 0-112-43-239-94-350 77-115 176-200 260-200 74 0 134 70 134 217v529h32v-529c0-172-68-245-166-245zm-197 583c0 106-49 172-99 172-51 0-92-66-92-170 0-102 44-223 107-326 48 105 84 219 84 324zm560 9c0-35 13-66 35-91 60 48 153 75 259 75 103 0 199-35 199-95 0-62-96-98-199-98s-196 28-256 76c-24-26-38-57-38-92 0-90 104-162 257-162 61 0 133 11 229 46v-33c-88-28-162-41-229-41-173 0-289 83-289 190 0 44 17 83 46 114-29 31-46 69-46 111 0 108 114 191 289 191 69 0 144-17 229-43v-31c-94 30-166 46-229 46-152 0-257-66-257-163zm461-111c0 46-83 67-167 67-88 0-178-25-235-70 55-44 142-67 235-67 84 0 167 21 167 70zm542 274c-113 0-168-73-168-169 0-154 41-210 55-372h293v-28h-291c2-28 3-58 3-93h-21c-63 66-123 93-257 93v28h243c-8 108-57 218-57 372 0 114 67 197 201 197 75 0 153-28 202-47v-29c-64 26-137 48-203 48zm0 0"/></svg>