<svg width="2800" height="1100.002" xmlns="http://www.w3.org/2000/svg"><path d="M626 286.002c0 441-99 569-174 569-24 0-53-13-81-38 54-60 94-160 94-290 0-152-49-250-116-250-70 0-112 98-112 250 0 132 43 230 95 290-28 25-58 37-83 37-86 0-177-127-177-568H44c0 451 91 598 202 598 35 0 72-16 106-47 34 31 70 47 101 47 103 0 203-147 203-598zm-277 19c47 0 87 88 87 222 0 129-38 218-84 270-47-54-87-146-87-270 0-134 35-222 84-222zm701 578c159 0 289-141 289-303s-130-304-289-304-289 142-289 304 130 303 289 303zm0-28c-141 0-258-128-258-275s117-275 258-275 258 128 258 275-117 275-258 275zm806-579c-87 0-175 57-242 139-32-45-69-89-105-129h-41c47 52 90 104 126 155-57 81-95 182-95 278 0 110 51 164 110 164 58 0 121-51 121-179 0-86-41-177-98-263 62-80 144-136 224-136 104 0 168 69 168 228h32c0-184-73-257-200-257zm-158 434c0 108-52 145-87 145s-80-40-80-141c0-83 32-172 82-246 52 81 85 161 85 242zm1028-301c-1-62-49-133-170-133-85 0-167 39-234 100-24-108-55-224-86-326h-38c38 116 72 241 97 352-81 86-134 205-134 317 0 120 50 164 97 164s110-56 110-205c0-63-15-160-38-268 63-63 143-105 226-105 87 0 139 51 139 110 0 61-45 124-186 220l162 239h38l-159-234c132-88 178-158 176-231zm-465 446c-24 0-69-30-69-141 0-94 43-197 111-275 21 99 33 186 33 244 0 130-52 172-75 172zm0 0"/></svg>