<svg width="2100" height="1100.002" xmlns="http://www.w3.org/2000/svg"><path d="M438 286.002c-33 29-62 57-90 83-26-26-55-54-86-83H5c86 87 159 158 218 217-102 123-137 216-137 306 0 166 108 265 257 265 157 0 271-99 271-265 0-97-42-190-148-314 61-61 137-130 229-209zm-12 523c0 70-27 112-79 112-38 0-73-33-73-112 0-52 23-109 71-175 54 66 81 119 81 175zm516-144c0-8 1-16 3-23 47 11 102 18 167 18 122 0 225-24 225-80 0-55-99-80-206-80-53 0-103 6-147 17-23-14-38-31-38-47 0-28 48-54 139-54 65 0 153 17 244 42v-156c-78-23-171-40-257-40-202 0-316 92-316 204 0 46 23 90 70 124-46 35-72 77-72 116 0 96 103 192 323 192 76 0 167-15 252-43v-157c-98 30-179 45-251 45-88 0-136-35-136-78zm1101-379h-194c8-48 13-106 13-177h-137c-59 91-166 173-284 200v146h186c-27 66-55 136-55 211 0 139 94 232 223 232 75 0 163-20 248-48v-161c-75 20-137 40-193 40s-89-33-89-94c0-71 20-120 42-180h240zm0 0"/></svg>