<svg width="4269" height="1064.002" xmlns="http://www.w3.org/2000/svg"><path d="M595 708.002c-80 40-155 58-238 58-195 0-282-136-282-292 0-209 154-384 340-384 126 0 208 74 208 210h23c0-147-92-230-231-230-199 0-362 186-362 404 0 174 98 312 306 312 79 0 155-18 234-56zm175-398h-21l-55 393c-8 56 10 83 48 83 17 0 27-3 45-11l3-19c-18 7-31 10-44 10-27 0-37-17-31-63zm-1-84c13 0 23-11 23-24 0-10-7-17-18-17-13 0-23 10-23 23 0 10 7 18 18 18zm99 445l86-271c34-5 78-18 145-45l52-19-51 373c-7 46 20 77 57 77 17 0 27-3 45-11l3-19c-18 7-31 10-44 10-24 0-45-17-40-56l56-404-82 32c-65 25-105 37-134 42 8-24 26-79 29-89-14-5-33-9-51-9-50 0-81 25-81 61 0 44 38 58 76 58l-85 265zm68-372c10 0 20 1 30 4-3 9-19 59-26 80-29 0-62-5-62-41-1-28 21-43 58-43zm707 424c-68 33-124 43-173 43-108 0-178-72-178-194 0-137 100-248 225-248 87 0 145 58 143 166h22c3-115-60-186-163-186-139 0-249 121-249 269 0 133 81 213 200 213 43 0 106-9 170-41zm512-413h-21c-44 315-166 457-277 457-62 0-89-43-79-115l48-342h-22l-47 340c-12 84 23 136 96 136 98 0 203-95 256-299l-32 221c-7 47 13 73 49 73 15 0 32-4 50-11l3-19c-17 7-35 11-49 11-25 0-37-19-32-54zm198-260h-21l-91 648c-9 60 9 88 48 88 15 0 25-3 44-11l3-19c-20 7-32 10-44 10-27 0-37-18-30-67zm219 736c80 0 169-57 219-171l-14 92c-6 49 13 78 50 78 13 0 28-4 45-11l2-19c-17 7-33 10-44 10-23 0-37-19-31-57l56-398h-21l-19 134c-31-72-85-140-178-140-123 0-238 118-238 277 0 146 87 205 173 205zm66-462c91 0 142 71 172 151-27 192-137 291-236 291-80 0-153-58-153-186 0-154 109-256 217-256zm315 347l86-271c34-5 78-18 145-45l52-19-51 373c-7 46 20 77 57 77 17 0 27-3 45-11l3-19c-18 7-31 10-44 10-24 0-45-17-40-56l56-404-82 32c-65 25-105 37-134 42 8-24 26-79 29-89-14-5-33-9-51-9-50 0-81 25-81 61 0 44 38 58 76 58l-85 265zm68-372c10 0 20 1 30 4-3 9-19 59-26 80-29 0-62-5-62-41-1-28 21-43 58-43zm518 487c133 0 236-113 240-260 22 3 47 5 76 5l3-20c-32 0-58-2-79-5-2-42-11-85-25-120-54 0-88 26-88 59 0 30 25 62 92 77-1 139-98 244-219 244-94 0-168-81-168-194 0-138 90-252 252-252l3-21c-182 0-277 127-277 274 0 119 79 213 190 213zm147-341c0-22 20-41 52-41 9 23 17 61 19 98-56-13-71-37-71-57zm220 226l86-271c34-5 78-18 145-45l52-19-51 373c-7 46 20 77 57 77 17 0 27-3 45-11l3-19c-18 7-31 10-44 10-24 0-45-17-40-56l56-404-82 32c-65 25-105 37-134 42 8-24 26-79 29-89-14-5-33-9-51-9-50 0-81 25-81 61 0 44 38 58 76 58l-85 265zm68-372c10 0 20 1 30 4-3 9-19 59-26 80-29 0-62-5-62-41-1-28 21-43 58-43zm0 0"/></svg>