<svg width="2266" height="1064.002" xmlns="http://www.w3.org/2000/svg"><path d="M489 310.002h-10l-21 147c-29-75-84-151-182-151-122 0-237 117-237 275 0 146 88 203 172 203 92 0 187-73 231-210l-20 142c-6 43 9 68 41 68 11 0 26-3 42-10l1-9c-17 7-33 10-42 10-25 0-38-21-32-59zm-440 271c0-158 115-266 227-266 98 0 150 80 179 162-27 197-141 298-244 298-84 0-162-61-162-194zm652 203c102 0 209-100 237-301 3-25 5-47 6-68 21 4 48 7 80 7l1-9c-33 0-59-3-81-8 1-43-3-80-8-118-47 0-74 19-74 52 0 31 19 59 72 73-1 22-2 45-6 71-28 202-134 292-227 292-84 0-117-63-101-182l77-543h-10l-77 543c-17 125 20 191 111 191zm171-445c0-27 20-43 55-43 4 31 8 66 7 107-44-13-62-37-62-64zm354 445c146 0 236-131 236-267 22 4 48 6 79 6l1-9c-32 0-59-2-80-6-2-43-11-86-24-119-44 0-72 25-72 55 0 26 21 56 86 71 0 132-83 260-226 260-97 0-176-83-176-202 0-143 92-261 264-261l1-10c-182 0-275 125-275 271 0 119 79 211 186 211zm150-340c0-25 22-45 55-45 10 24 19 67 21 107-59-14-76-40-76-62zm595-134h-10c-44 314-168 465-289 465-64 0-92-44-81-120l48-345h-10l-48 344c-11 81 20 130 91 130 104 0 216-106 269-331l-38 262c-6 41 8 65 41 65 14 0 31-4 48-11l1-9c-16 7-35 11-48 11-27 0-37-21-32-56zm151 474c26 0 51-6 81-24l2-11c-30 18-56 26-83 26-49 0-69-34-59-101l50-355h152l1-9h-152l18-127h-10l-18 127h-56l-1 9h56l-50 355c-11 73 13 110 69 110zm0 0"/></svg>