<svg width="2303" height="1064.002" xmlns="http://www.w3.org/2000/svg"><path d="M212 786.002c80 0 169-57 219-171l-14 92c-6 49 13 78 50 78 13 0 28-4 45-11l2-19c-17 7-33 10-44 10-23 0-37-19-31-57l56-398h-21l-19 134c-31-72-85-140-178-140-123 0-238 118-238 277 0 146 87 205 173 205zm66-462c91 0 142 71 172 151-27 192-137 291-236 291-80 0-153-58-153-186 0-154 109-256 217-256zm431 462c107 0 215-110 239-308 2-18 3-34 4-50 22 4 48 6 78 6l3-20c-33 0-59-2-81-6 1-44-4-83-10-122-58 0-90 22-90 58 0 34 22 64 79 79 0 126-69 343-221 343-78 0-111-58-95-170l77-546h-22l-77 545c-18 126 25 191 116 191zm163-442c0-24 18-40 53-40 4 30 7 61 7 99-45-13-60-35-60-59zm366 442c133 0 236-113 240-260 22 3 47 5 76 5l3-20c-32 0-58-2-79-5-2-42-11-85-25-120-54 0-88 26-88 59 0 30 25 62 92 77-1 139-98 244-219 244-94 0-168-81-168-194 0-138 90-252 252-252l3-21c-182 0-277 127-277 274 0 119 79 213 190 213zm147-341c0-22 20-41 52-41 9 23 17 61 19 98-56-13-71-37-71-57zm613-135h-21c-44 315-166 457-277 457-62 0-89-43-79-115l48-342h-22l-47 340c-12 84 23 136 96 136 98 0 203-95 256-299l-32 221c-7 47 13 73 49 73 15 0 32-4 50-11l3-19c-17 7-35 11-49 11-25 0-37-19-32-54zm160 476c27 0 52-7 82-24l3-21c-29 17-55 26-83 26-46 0-66-32-57-95l49-343h148l3-19h-149l18-126h-21l-18 126h-58l-3 19h59l-49 343c-11 75 17 114 76 114zm0 0"/></svg>