<svg width="834" height="1064.002" xmlns="http://www.w3.org/2000/svg"><path d="M489 310.002h-10l-21 147c-29-75-84-151-182-151-122 0-237 117-237 275 0 146 88 203 172 203 92 0 187-73 231-210l-20 142c-6 43 9 68 41 68 11 0 26-3 42-10l1-9c-17 7-33 10-42 10-25 0-38-21-32-59zm-440 271c0-158 115-266 227-266 98 0 150 80 179 162-27 197-141 298-244 298-84 0-162-61-162-194zm626-531h-10l-92 654c-8 56 4 80 39 80 14 0 23-2 42-10l1-10c-19 8-31 11-42 11-29 0-37-20-30-71zm150 0h-10l-92 654c-8 56 4 80 39 80 14 0 23-2 42-10l1-10c-19 8-31 11-42 11-29 0-37-20-30-71zm0 0"/></svg>