<svg width="855" height="1064.002" xmlns="http://www.w3.org/2000/svg"><path d="M212 786.002c80 0 169-57 219-171l-14 92c-6 49 13 78 50 78 13 0 28-4 45-11l2-19c-17 7-33 10-44 10-23 0-37-19-31-57l56-398h-21l-19 134c-31-72-85-140-178-140-123 0-238 118-238 277 0 146 87 205 173 205zm66-462c91 0 142 71 172 151-27 192-137 291-236 291-80 0-153-58-153-186 0-154 109-256 217-256zm411-274h-21l-91 648c-9 60 9 88 48 88 15 0 25-3 44-11l3-19c-20 7-32 10-44 10-27 0-37-18-30-67zm157 0h-21l-91 648c-9 60 9 88 48 88 15 0 25-3 44-11l3-19c-20 7-32 10-44 10-27 0-37-18-30-67zm0 0"/></svg>