<svg width="2906" height="1064.002" xmlns="http://www.w3.org/2000/svg"><path d="M212 786.002c80 0 169-57 219-171l-14 92c-6 49 13 78 50 78 13 0 28-4 45-11l2-19c-17 7-33 10-44 10-23 0-37-19-31-57l56-398h-21l-19 134c-31-72-85-140-178-140-123 0-238 118-238 277 0 146 87 205 173 205zm66-462c91 0 142 71 172 151-27 192-137 291-236 291-80 0-153-58-153-186 0-154 109-256 217-256zm411-274h-21l-91 648c-9 60 9 88 48 88 15 0 25-3 44-11l3-19c-20 7-32 10-44 10-27 0-37-18-30-67zm74 260v348c0 82 35 128 96 128 84 0 142-85 176-202l-4 43c-5 68 16 159 106 159 106 0 191-152 215-358 23 4 51 6 84 6l3-19c-34 0-62-2-85-6 4-39 6-81 5-123-78 0-109 27-109 64 0 30 22 59 82 74-22 195-102 342-193 342-74 0-92-75-87-138l23-318h-21l-7 98c-13 179-75 358-186 358-47 0-77-34-77-109v-347zm575-6c0 34-1 68-4 101-47-12-64-33-64-56 0-36 39-45 68-45zm304 482c80 0 169-57 219-171l-14 92c-6 49 13 78 50 78 13 0 28-4 45-11l2-19c-17 7-33 10-44 10-23 0-37-19-31-57l56-398h-21l-19 134c-31-72-85-140-178-140-123 0-238 118-238 277 0 146 87 205 173 205zm66-462c91 0 142 71 172 151-27 192-137 291-236 291-80 0-153-58-153-186 0-154 109-256 217-256zm406 696c98 0 217-64 242-241l66-469h-21l-9 61c-20 133-77 347-247 347-68 0-107-52-96-130l39-278h-21l-39 276c-11 83 29 150 115 150 5 0 10-1 15-1-71 32-174 96-174 185 0 59 45 100 130 100zm-108-101c0-40 21-70 48-96 71-71 167-85 227-143 33-33 65-81 91-168l-37 268c-24 169-138 221-221 221-78 0-108-38-108-82zm464-174c40 21 95 41 161 41 140 0 223-75 223-182 0-138-140-176-140-330h-20l-179 260 17 12 164-240c13 129 136 179 136 299 0 99-78 161-201 161-62 0-117-20-159-40zm0 0"/></svg>