<svg width="2955" height="1064.002" xmlns="http://www.w3.org/2000/svg"><path d="M213 788.002c71 0 152-43 206-140l-7 48c-7 57 16 89 60 89 16 0 30-4 49-11l4-31c-19 7-33 10-46 10-22 0-37-17-31-54l54-389h-35l-17 117c-31-67-86-125-173-125-124 0-239 120-239 279 0 147 87 207 175 207zm68-454c81 0 131 62 162 139-26 186-132 283-226 283-75 0-142-56-142-177 0-150 103-245 206-245zm428-284h-36l-90 642c-9 64 16 96 59 96 17 0 27-3 48-12l5-31c-20 7-33 11-46 11-25 0-37-17-31-63zm73 260v346c0 84 37 132 102 132 70 0 127-60 164-159-3 73 23 159 112 159 109 0 195-149 219-345 24 3 52 5 85 5l5-31c-35 0-63-2-87-5 4-41 5-83 3-126-97 0-128 33-128 71 0 31 22 63 88 79-21 183-97 320-181 320-69 0-86-71-81-133l22-313h-34l-7 97c-12 176-75 349-176 349-44 0-72-34-72-101v-345zm569 4c1 31 0 62-3 92-44-12-59-31-59-51 0-23 22-41 62-41zm316 474c71 0 152-43 206-140l-7 48c-7 57 16 89 60 89 16 0 30-4 49-11l4-31c-19 7-33 10-46 10-22 0-37-17-31-54l54-389h-35l-17 117c-31-67-86-125-173-125-124 0-239 120-239 279 0 147 87 207 175 207zm68-454c81 0 131 62 162 139-26 186-132 283-226 283-75 0-142-56-142-177 0-150 103-245 206-245zm420 688c101 0 218-66 243-243l66-469h-35l-9 62c-18 130-70 338-236 338-62 0-98-49-88-120l39-280h-35l-39 276c-11 81 26 150 114 153-68 32-155 94-155 177 0 63 47 106 135 106zm-99-109c0-39 20-69 48-94 66-62 152-79 209-131 30-27 59-68 82-139l-32 230c-23 159-128 211-208 211-70 0-99-35-99-77zm460-166c41 22 97 41 160 41 149 0 227-82 227-186 0-139-136-182-136-330h-34l-176 263 27 18 155-230c23 118 128 167 128 281 0 92-74 151-191 151-59 0-116-20-156-39zm0 0"/></svg>