<svg width="3594" height="1064.002" xmlns="http://www.w3.org/2000/svg"><path d="M215 790.002c59 0 134-30 190-107-7 66 22 103 74 103 19 0 32-4 53-13l7-46c-20 7-34 10-48 10-20 0-37-14-32-51l53-376h-55l-13 95c-33-60-87-105-166-105-125 0-241 121-241 281 0 148 86 209 178 209zm69-441c69 0 117 48 151 120-25 179-125 272-214 272-67 0-126-52-126-163 0-145 94-229 189-229zm357 431c46-326 148-434 229-434 50 0 74 38 66 100l-47 334h53l1-11c46-313 146-423 226-423 51 0 73 40 65 102l-34 238c-11 72 22 101 72 101 19 0 38-4 59-10l6-45c-25 7-37 9-52 9-23 0-36-14-31-50l33-239c14-96-28-152-104-152-75 0-143 50-195 150 15-112-37-150-104-150-78 0-150 54-200 185l24-175h-54l-66 470zm877 10c82 0 165-62 218-203l1 1-15 100c-9 64 27 96 73 96 17 0 35-4 57-13l6-46c-19 7-34 10-50 10-21 0-36-14-31-50l53-375h-53c-45 318-159 434-245 434-53 0-79-40-70-101l46-333h-54l-46 328c-14 95 31 152 110 152zm377-39c42 22 102 39 161 39 159 0 232-92 232-192 0-138-131-188-131-328h-53l-173 265 42 27 144-221c28 108 115 156 115 262 0 81-68 138-176 138-54 0-114-21-154-39zm587-441h-54l-52 374c-10 71 24 106 73 106 20 0 32-3 53-12l7-47c-20 7-33 10-49 10-21 0-36-13-31-54zm-16-82c25 0 44-20 44-45 0-20-14-34-36-34-25 0-44 19-44 44 0 20 14 35 36 35zm146 552c45-318 161-434 243-434 49 0 81 37 71 112l-31 222c-10 73 28 110 77 110 20 0 31-3 53-12l6-47c-20 7-32 10-48 10-20 0-40-13-34-57l31-221c15-108-35-163-115-163-79 0-159 61-212 200l26-190h-54l-66 470zm630 244c115 0 222-73 247-250l65-464h-53l-13 94c-34-66-96-104-166-104-143 0-239 125-239 260 0 110 56 169 132 184-65 29-132 79-132 157 0 68 48 123 159 123zm-102-467c0-112 73-211 185-211 65 0 123 42 154 121-17 122-82 232-218 232-71 0-121-46-121-142zm37 258c72-64 173-72 242-135 15-14 29-33 38-50l-20 141c-20 142-108 203-193 203-74 0-107-40-107-83 0-30 15-55 40-76zm0 0"/></svg>