<svg width="1831" height="1064.002" xmlns="http://www.w3.org/2000/svg"><path d="M218 796.002c64 0 115-29 153-70 22 39 61 62 112 62 25 0 62-6 96-18l19-133c-11 4-29 9-46 9-34 0-41-24-38-45l40-291H399l-4 28c-32-28-73-44-119-44-117 0-243 114-243 286 0 144 81 216 185 216zm74-365c34 0 64 17 85 36-18 126-72 187-128 187-37 0-61-29-61-84 0-90 58-139 104-139zm497 349c37-277 99-334 145-334 21 0 37 18 32 53l-18 126c-16 109 26 171 126 171 30 0 62-6 96-18l19-133c-11 4-29 9-46 9-28 0-42-16-38-45l17-128c18-132-42-187-126-187-46 0-98 17-148 65l7-49H699l-66 470zm624 16c64 0 115-29 153-70 22 39 61 62 112 62 25 0 62-6 96-18l19-133c-11 4-29 9-46 9-34 0-41-24-38-45l73-525h-155l-37 262c-32-28-73-44-119-44-117 0-243 114-243 286 0 144 81 216 185 216zm74-365c34 0 64 17 85 36-18 126-72 187-128 187-37 0-61-29-61-84 0-90 58-139 104-139zm0 0"/></svg>