<svg width="1637" height="1064.002" xmlns="http://www.w3.org/2000/svg"><path d="M215 790.002c59 0 134-30 190-107-7 66 22 103 74 103 19 0 32-4 53-13l7-46c-20 7-34 10-48 10-20 0-37-14-32-51l53-376h-55l-13 95c-33-60-87-105-166-105-125 0-241 121-241 281 0 148 86 209 178 209zm69-441c69 0 117 48 151 120-25 179-125 272-214 272-67 0-126-52-126-163 0-145 94-229 189-229zm359 431c45-318 161-434 243-434 49 0 81 37 71 112l-31 222c-10 73 28 110 77 110 20 0 31-3 53-12l6-47c-20 7-32 10-48 10-20 0-40-13-34-57l31-221c15-108-35-163-115-163-79 0-159 61-212 200l26-190h-54l-66 470zm641 10c59 0 134-30 191-109-8 69 20 105 74 105 18 0 31-4 52-13l7-46c-20 7-34 10-48 10-22 0-37-13-31-54l85-607h-55l-46 329c-33-60-88-105-166-105-125 0-241 121-241 281 0 148 86 209 178 209zm69-441c69 0 117 48 151 120-26 179-126 272-214 272-67 0-126-52-126-163 0-145 94-229 189-229zm0 0"/></svg>