<svg width="3888" height="1064.002" xmlns="http://www.w3.org/2000/svg"><path d="M218 796.002c64 0 115-29 153-70 22 39 61 62 112 62 25 0 62-6 96-18l19-133c-11 4-29 9-46 9-34 0-41-24-38-45l40-291H399l-4 28c-32-28-73-44-119-44-117 0-243 114-243 286 0 144 81 216 185 216zm74-365c34 0 64 17 85 36-18 126-72 187-128 187-37 0-61-29-61-84 0-90 58-139 104-139zm497 349c37-277 99-334 145-334 21 0 37 18 32 53l-18 126c-16 109 26 171 126 171 30 0 62-6 96-18l19-133c-11 4-29 9-46 9-28 0-42-16-38-45l17-128c18-132-42-187-126-187-46 0-98 17-148 65l7-49H699l-66 470zm440-204c0 124 92 220 228 220 172 0 278-120 292-257 18 1 38 2 59 2l18-133c-36 0-69-3-99-7-9-23-22-47-38-72-101 0-141 44-141 92 0 28 12 58 50 81v17c0 81-53 135-127 135-55 0-84-44-84-97 0-65 43-120 107-131l20-142c-158 0-285 122-285 292zm709-133l-24 172c-18 128 53 181 161 181 42 0 67-8 99-22l19-139c-26 11-54 16-77 16-29 0-50-9-43-59l21-149h125l19-133h-125l15-110h-156l-15 110h-89l-19 133zm321 337h156c37-277 99-334 145-334 21 0 37 18 32 53l-15 104c-19 131 35 193 134 193 19 0 51-6 85-18l19-133c-11 4-29 9-46 9-34 0-40-29-38-45l17-128c18-132-42-187-126-187-46 0-98 17-148 65l44-309h-156zm1057-347c0-89-70-139-178-139-179 0-284 130-284 282 0 124 86 220 242 220 77 0 133-19 170-38l20-140c-60 27-122 46-176 46-58 0-85-14-94-41 228 0 300-103 300-190zm-164 16c0 32-45 75-149 75 14-60 62-104 109-104 23 0 40 9 40 29zm362 218l57-209h83l-22 159c-15 109 35 179 135 179 27 0 52-6 86-18l19-133c-11 4-29 9-46 9-34 0-40-30-38-45l43-299h-229c2-18 2-37 2-58-39-10-64-13-86-13-95 0-132 57-132 109 0 33 13 61 40 80l-54 199zm0 0"/></svg>