<svg width="3225" height="1064.002" xmlns="http://www.w3.org/2000/svg"><path d="M181 794.002c136 0 251-156 251-342 0-10 0-19-1-29 25 3 53 5 87 5l10-73c-37 0-74 0-105-3-3-23-8-46-14-68-75 0-104 22-104 55 0 24 13 47 50 64v28c0 156-77 287-168 287-43 0-76-29-65-107l79-561h-80l-79 560c-18 127 52 184 139 184zm777-368c0-68-54-130-153-130-147 0-259 128-259 279 0 144 109 219 234 219 56 0 96-12 145-33l11-76c-59 26-95 37-155 37-73 0-131-39-148-112 240-6 325-88 325-184zm-85 7c0 47-55 104-243 110 11-96 84-175 172-175 46 0 71 30 71 65zm150 469c0 74 56 126 152 126 110 0 223-75 248-251l66-467h-80l-9 67c-15 111-52 309-200 309-46 0-71-38-64-90l40-286h-80l-38 277c-9 66 12 132 80 154-58 32-115 92-115 161zm80-9c0-38 21-65 51-87 47-36 103-58 151-91 20-13 38-29 54-50l-16 113c-18 128-98 180-168 180-48 0-72-29-72-65zm454-319c0 121 77 220 212 220 146 0 251-116 261-259 19 3 41 5 64 5l11-73c-42 0-64-1-82-5-12-36-32-67-40-80-55 0-83 26-83 56 0 23 16 49 48 68v13c0 109-76 203-179 203-82 0-129-71-129-156 0-109 80-204 193-204l10-76c-179 0-286 138-286 288zm669 206c46-320 155-416 220-416 46 0 71 38 64 90l-30 216c-11 81 36 124 93 124 23 0 35-4 59-14l10-68c-22 7-34 10-52 10-17 0-36-10-31-47l30-214c15-103-38-165-127-165-68 0-131 35-183 124l15-110h-80l-66 470zm629 14c49 0 120-18 179-83 8 49 42 76 93 76 23 0 35-4 59-14l10-68c-22 7-34 10-52 10-17 0-36-10-31-47l83-592h-80l-42 299c-35-52-90-79-157-79-127 0-243 124-243 285 0 149 85 213 181 213zm71-426c53 0 99 30 135 97-24 168-116 257-196 257-58 0-106-47-106-145 0-138 82-209 167-209zm0 0"/></svg>