<svg width="3513" height="1064.002" xmlns="http://www.w3.org/2000/svg"><path d="M220 796.002c169 0 253-149 266-298 23 0 48-2 75-5l18-133c-42 0-76-1-104-3-14-48-33-73-33-73-83 0-145 59-145 115 0 25 12 49 39 67-5 77-28 188-100 188-26 0-46-14-39-62l76-542H118l-78 541c-20 139 77 205 180 205zm854-363c0-89-70-139-178-139-179 0-284 130-284 282 0 124 86 220 242 220 77 0 133-19 170-38l20-140c-60 27-122 46-176 46-58 0-85-14-94-41 228 0 300-103 300-190zm-164 16c0 32-45 75-149 75 14-60 62-104 109-104 23 0 40 9 40 29zm217 421c0 93 77 160 189 160 129 0 227-71 252-250l66-470h-156l-3 21c-9 60-46 293-141 293-23 0-36-19-31-55l36-259h-156l-38 273c-9 65 2 128 61 153-44 32-79 76-79 134zm188-88c31-32 72-45 99-72l9-9-14 102c-8 59-37 81-72 81-28 0-47-17-47-46 0-18 6-36 25-56zm377-206c0 124 92 220 228 220 172 0 278-120 292-257 18 1 38 2 59 2l18-133c-36 0-69-3-99-7-9-23-22-47-38-72-101 0-141 44-141 92 0 28 12 58 50 81v17c0 81-53 135-127 135-55 0-84-44-84-97 0-65 43-120 107-131l20-142c-158 0-285 122-285 292zm779 204c37-277 99-334 145-334 21 0 37 18 32 53l-18 126c-16 109 26 171 126 171 30 0 62-6 96-18l19-133c-11 4-29 9-46 9-28 0-42-16-38-45l17-128c18-132-42-187-126-187-46 0-98 17-148 65l7-49h-156l-66 470zm624 16c64 0 115-29 153-70 22 39 61 62 112 62 25 0 62-6 96-18l19-133c-11 4-29 9-46 9-34 0-41-24-38-45l73-525h-155l-37 262c-32-28-73-44-119-44-117 0-243 114-243 286 0 144 81 216 185 216zm74-365c34 0 64 17 85 36-18 126-72 187-128 187-37 0-61-29-61-84 0-90 58-139 104-139zm0 0"/></svg>