<svg width="1579" height="1064.002" xmlns="http://www.w3.org/2000/svg"><path d="M220 796.002c169 0 253-149 266-298 23 0 48-2 75-5l18-133c-42 0-76-1-104-3-14-48-33-73-33-73-83 0-145 59-145 115 0 25 12 49 39 67-5 77-28 188-100 188-26 0-46-14-39-62l76-542H118l-78 541c-20 139 77 205 180 205zm540 0c53 0 110-18 172-79 25 51 78 71 124 71 22 0 48-4 82-18l19-133c-11 4-31 9-48 9-34 0-41-29-39-45l41-291H957c-37 277-101 334-147 334-21 0-35-18-30-53l40-281H664l-39 275c-20 141 45 211 135 211zm518-353l-24 172c-18 128 53 181 161 181 42 0 67-8 99-22l19-139c-26 11-54 16-77 16-29 0-50-9-43-59l21-149h125l19-133h-125l15-110h-156l-15 110h-89l-19 133zm0 0"/></svg>