<svg width="1375" height="1064.002" xmlns="http://www.w3.org/2000/svg"><path d="M181 794.002c136 0 251-156 251-342 0-10 0-19-1-29 25 3 53 5 87 5l10-73c-37 0-74 0-105-3-3-23-8-46-14-68-75 0-104 22-104 55 0 24 13 47 50 64v28c0 156-77 287-168 287-43 0-76-29-65-107l79-561h-80l-79 560c-18 127 52 184 139 184zm518 0c70 0 136-37 189-129h1l-1 7c-11 77 38 115 90 115 20 0 39-4 63-14l10-68c-22 7-34 10-52 10-17 0-35-10-30-47l50-358h-78c-46 320-154 416-220 416-46 0-71-38-64-90l46-326h-80l-45 319c-15 103 38 165 121 165zm455-411l-39 277c-12 87 37 134 112 134 28 0 53-7 83-23l10-68c-22 11-52 20-83 20-29 0-48-19-42-63l39-277h131l10-73h-131l17-120h-80l-17 120h-70l-10 73zm0 0"/></svg>