<svg width="1456" height="1064.002" xmlns="http://www.w3.org/2000/svg"><path d="M197 795.002c157 0 259-165 259-340 12 1 24 1 37 1 14 0 28 0 43-1l13-98c-44 0-78-1-106-3-7-30-16-54-20-70-79 0-121 38-121 80 0 25 13 49 46 66-1 119-51 261-140 261-36 0-64-23-54-88l77-553H120l-79 552c-19 132 63 193 156 193zm528 0c60 0 118-25 176-96 11 62 62 88 110 88 21 0 43-4 71-15l14-96c-18 6-33 10-51 10-24 0-37-18-33-46l46-330H948c-43 302-132 381-189 381-36 0-56-29-50-74l43-307H640l-42 300c-17 119 41 185 127 185zm477-387l-33 233c-14 104 44 154 133 154 34 0 59-8 90-23l14-98c-24 11-53 19-81 19-29 0-49-15-42-62l31-223h129l13-98h-128l16-116h-112l-16 116h-78l-14 98zm0 0"/></svg>