<svg width="1056" height="1064.002" xmlns="http://www.w3.org/2000/svg"><path d="M181 794.002c136 0 251-156 251-342 0-10 0-19-1-29 25 3 53 5 87 5l10-73c-37 0-74 0-105-3-3-23-8-46-14-68-75 0-104 22-104 55 0 24 13 47 50 64v28c0 156-77 287-168 287-43 0-76-29-65-107l79-561h-80l-79 560c-18 127 52 184 139 184zm370 108c0 74 56 126 152 126 110 0 223-75 248-251l66-467h-80l-9 67c-15 111-52 309-200 309-46 0-71-38-64-90l40-286h-80l-38 277c-9 66 12 132 80 154-58 32-115 92-115 161zm80-9c0-38 21-65 51-87 47-36 103-58 151-91 20-13 38-29 54-50l-16 113c-18 128-98 180-168 180-48 0-72-29-72-65zm0 0"/></svg>