<svg width="1149" height="1064.002" xmlns="http://www.w3.org/2000/svg"><path d="M220 796.002c169 0 253-149 266-298 23 0 48-2 75-5l18-133c-42 0-76-1-104-3-14-48-33-73-33-73-83 0-145 59-145 115 0 25 12 49 39 67-5 77-28 188-100 188-26 0-46-14-39-62l76-542H118l-78 541c-20 139 77 205 180 205zm388 74c0 93 77 160 189 160 129 0 227-71 252-250l66-470H959l-3 21c-9 60-46 293-141 293-23 0-36-19-31-55l36-259H664l-38 273c-9 65 2 128 61 153-44 32-79 76-79 134zm188-88c31-32 72-45 99-72l9-9-14 102c-8 59-37 81-72 81-28 0-47-17-47-46 0-18 6-36 25-56zm0 0"/></svg>