<svg width="2772" height="1064.002" xmlns="http://www.w3.org/2000/svg"><path d="M410 733.002c-68 32-125 42-171 42-116 0-185-76-185-202 0-143 105-258 236-258 93 0 150 64 150 171h10c0-112-61-180-160-180-136 0-246 119-246 267 0 131 74 211 195 211 40 0 105-9 169-40zm556-423h-10l-21 147c-29-75-84-151-182-151-122 0-237 117-237 275 0 146 88 203 172 203 92 0 187-73 231-210l-20 142c-6 43 9 68 41 68 11 0 26-3 42-10l1-9c-17 7-33 10-42 10-25 0-38-21-32-59zm-440 271c0-158 115-266 227-266 98 0 150 80 179 162-27 197-141 298-244 298-84 0-162-61-162-194zm525 199c44-314 171-465 282-465 54 0 99 36 84 149l-32 235c-8 57 14 85 48 85 15 0 25-3 42-10l1-9c-17 7-30 10-42 10-25 0-47-19-39-76l32-234c16-114-29-159-93-159-98 0-209 107-263 332l46-328h-10l-66 470zm492 0c44-314 171-465 282-465 54 0 99 36 84 149l-32 235c-8 57 14 85 48 85 15 0 25-3 42-10l1-9c-17 7-30 10-42 10-25 0-47-19-39-76l32-234c16-114-29-159-93-159-98 0-209 107-263 332l46-328h-10l-66 470zm675 4c146 0 236-131 236-267 22 4 48 6 79 6l1-9c-32 0-59-2-80-6-2-43-11-86-24-119-44 0-72 25-72 55 0 26 21 56 86 71 0 132-83 260-226 260-97 0-176-83-176-202 0-143 92-261 264-261l1-10c-182 0-275 125-275 271 0 119 79 211 186 211zm150-340c0-25 22-45 55-45 10 24 19 67 21 107-59-14-76-40-76-62zm260 340c26 0 51-6 81-24l2-11c-30 18-56 26-83 26-49 0-69-34-59-101l50-355h152l1-9h-152l18-127h-10l-18 127h-56l-1 9h56l-50 355c-11 73 13 110 69 110zm0 0"/></svg>