<svg width="3055" height="1064.002" xmlns="http://www.w3.org/2000/svg"><path d="M442 671.002c-70 37-120 51-183 51-72 0-142-54-142-155 0-107 73-199 168-199 53 0 121 29 105 140h82c19-131-52-212-176-212-155 0-262 128-262 279 0 144 113 219 224 219 60 0 112-9 173-44zm282 123c49 0 120-18 179-83 8 49 42 76 93 76 23 0 35-4 59-14l10-68c-22 7-34 10-52 10-17 0-36-10-31-47l50-358h-80l-9 65c-35-52-90-79-157-79-127 0-243 124-243 285 0 149 85 213 181 213zm71-426c53 0 99 30 135 97-24 168-116 257-196 257-58 0-106-47-106-145 0-138 82-209 167-209zm395 412c46-320 155-416 220-416 46 0 71 38 64 90l-30 216c-11 81 36 124 93 124 23 0 35-4 59-14l10-68c-22 7-34 10-52 10-17 0-36-10-31-47l30-214c15-103-38-165-127-165-68 0-131 35-183 124l15-110h-80l-66 470zm540 0c46-320 155-416 220-416 46 0 71 38 64 90l-30 216c-11 81 36 124 93 124 23 0 35-4 59-14l10-68c-22 7-34 10-52 10-17 0-36-10-31-47l30-214c15-103-38-165-127-165-68 0-131 35-183 124l15-110h-80l-66 470zm446-206c0 121 77 220 212 220 146 0 251-116 261-259 19 3 41 5 64 5l11-73c-42 0-64-1-82-5-12-36-32-67-40-80-55 0-83 26-83 56 0 23 16 49 48 68v13c0 109-76 203-179 203-82 0-129-71-129-156 0-109 80-204 193-204l10-76c-179 0-286 138-286 288zm658-191l-39 277c-12 87 37 134 112 134 28 0 53-7 83-23l10-68c-22 11-52 20-83 20-29 0-48-19-42-63l39-277h131l10-73h-131l17-120h-80l-17 120h-70l-10 73zm0 0"/></svg>