<svg width="2948" height="1064.002" xmlns="http://www.w3.org/2000/svg"><path d="M430 694.002c-69 35-121 47-178 47-88 0-158-62-158-172 0-120 85-220 193-220 68 0 131 41 121 151h56c12-124-55-200-170-200-148 0-256 124-256 274 0 139 98 216 213 216 53 0 110-9 172-42zm281 96c59 0 134-30 190-107-7 66 22 103 74 103 19 0 32-4 53-13l7-46c-20 7-34 10-48 10-20 0-37-14-32-51l53-376h-55l-13 95c-33-60-87-105-166-105-125 0-241 121-241 281 0 148 86 209 178 209zm69-441c69 0 117 48 151 120-25 179-125 272-214 272-67 0-126-52-126-163 0-145 94-229 189-229zm359 431c45-318 161-434 243-434 49 0 81 37 71 112l-31 222c-10 73 28 110 77 110 20 0 31-3 53-12l6-47c-20 7-32 10-48 10-20 0-40-13-34-57l31-221c15-108-35-163-115-163-79 0-159 61-212 200l26-190h-54l-66 470zm522 0c45-318 161-434 243-434 49 0 81 37 71 112l-31 222c-10 73 28 110 77 110 20 0 31-3 53-12l6-47c-20 7-32 10-48 10-20 0-40-13-34-57l31-221c15-108-35-163-115-163-79 0-159 61-212 200l26-190h-54l-66 470zm664 10c134 0 236-105 251-240 20 2 43 3 67 3l8-49c-29 0-53-1-73-3-3-38-14-85-31-125-83 0-131 30-131 75-1 39 34 72 104 89-9 113-90 201-195 201-87 0-146-75-146-173 0-121 84-224 219-224l7-52c-180 0-282 133-282 282 0 120 77 216 202 216zm139-340c0-24 26-30 45-30 5 18 10 44 11 73-46-12-56-29-56-43zm284-90l-43 305c-12 82 28 125 96 125 27 0 52-6 82-23l7-47c-25 13-53 22-83 22-36 0-55-25-48-77l43-305h139l7-50h-139l17-123h-54l-18 123h-64l-7 50zm0 0"/></svg>