<svg width="3727" height="1064.002" xmlns="http://www.w3.org/2000/svg"><path d="M410 733.002c-68 32-125 42-171 42-116 0-185-76-185-202 0-143 105-258 236-258 93 0 150 64 150 171h10c0-112-61-180-160-180-136 0-246 119-246 267 0 131 74 211 195 211 40 0 105-9 169-40zm290 51c146 0 236-131 236-267 22 4 48 6 79 6l1-9c-32 0-59-2-80-6-2-43-11-86-24-119-44 0-72 25-72 55 0 26 21 56 86 71 0 132-83 260-226 260-97 0-176-83-176-202 0-143 92-261 264-261l1-10c-182 0-275 125-275 271 0 119 79 211 186 211zm150-340c0-25 22-45 55-45 10 24 19 67 21 107-59-14-76-40-76-62zm505 336l1-6c45-318 156-459 257-459 59 0 93 44 82 122l-40 286c-5 38 12 61 42 61 15 0 31-4 48-11l1-9c-21 9-39 11-48 11-20 0-38-16-33-52l40-286c12-84-28-131-92-131-96 0-185 109-236 318l27-192c11-81-28-126-95-126-98 0-191 101-242 318l44-314h-10l-66 470h10c47-335 160-465 264-465 57 0 96 37 85 117l-49 348zm766 0l1-6c45-318 156-459 257-459 59 0 93 44 82 122l-40 286c-5 38 12 61 42 61 15 0 31-4 48-11l1-9c-21 9-39 11-48 11-20 0-38-16-33-52l40-286c12-84-28-131-92-131-96 0-185 109-236 318l27-192c11-81-28-126-95-126-98 0-191 101-242 318l44-314h-10l-66 470h10c47-335 160-465 264-465 57 0 96 37 85 117l-49 348zm832-361c0-66-54-113-136-113-124 0-241 122-241 267 0 152 87 211 197 211 39 0 83-8 133-28l2-12c-52 23-99 31-135 31-102 0-186-54-187-199 251-1 367-61 367-157zm-10 0c0 90-113 147-357 148 3-141 114-252 231-252 78 0 126 42 126 104zm86 361c44-314 171-465 282-465 54 0 99 36 84 149l-32 235c-8 57 14 85 48 85 15 0 25-3 42-10l1-9c-17 7-30 10-42 10-25 0-47-19-39-76l32-234c16-114-29-159-93-159-98 0-209 107-263 332l46-328h-10l-66 470zm554 4c26 0 51-6 81-24l2-11c-30 18-56 26-83 26-49 0-69-34-59-101l50-355h152l1-9h-152l18-127h-10l-18 127h-56l-1 9h56l-50 355c-11 73 13 110 69 110zm0 0"/></svg>