<svg width="5671" height="1064.002" xmlns="http://www.w3.org/2000/svg"><path d="M467 604.002c-47 21-117 50-187 50-55 0-98-24-98-97 0-67 44-121 94-121 39 0 56 32 56 84h160c0-149-70-226-205-226-162 0-263 130-263 282 0 124 92 220 248 220 89 0 140-28 174-48zm88-28c0 124 92 220 228 220 172 0 278-120 292-257 18 1 38 2 59 2l18-133c-36 0-69-3-99-7-9-23-22-47-38-72-101 0-141 44-141 92 0 28 12 58 50 81v17c0 81-53 135-127 135-55 0-84-44-84-97 0-65 43-120 107-131l20-142c-158 0-285 122-285 292zm778 91l57-209h83l-22 159c-15 109 35 179 135 179 27 0 52-6 86-18l19-133c-11 4-29 9-46 9-34 0-40-30-38-45l43-299h-229c2-18 2-37 2-58-39-10-64-13-86-13-95 0-132 57-132 109 0 33 13 61 40 80l-54 199zm549 0l57-209h83l-22 159c-15 109 35 179 135 179 27 0 52-6 86-18l19-133c-11 4-29 9-46 9-34 0-40-30-38-45l43-299h-229c2-18 2-37 2-58-39-10-64-13-86-13-95 0-132 57-132 109 0 33 13 61 40 80l-54 199zm870-234c0-89-70-139-178-139-179 0-284 130-284 282 0 124 86 220 242 220 77 0 133-19 170-38l20-140c-60 27-122 46-176 46-58 0-85-14-94-41 228 0 300-103 300-190zm-164 16c0 32-45 75-149 75 14-60 62-104 109-104 23 0 40 9 40 29zm315 125l85-122c23 45 47 82 47 138 0 36-32 64-87 64-28 0-72-5-111-17l-19 138c43 15 92 21 130 21 160 0 246-83 246-208 0-127-111-198-111-308h-145l-150 214zm324 440h155l36-262c32 28 73 44 119 44 117 0 243-114 243-286 0-144-83-216-175-216-50 0-94 22-130 54l6-38h-155zm209-391c18-126 72-187 128-187 37 0 61 29 61 84 0 90-58 139-104 139-34 0-64-17-85-36zm414-47c0 124 92 220 228 220 172 0 278-120 292-257 18 1 38 2 59 2l18-133c-36 0-69-3-99-7-9-23-22-47-38-72-101 0-141 44-141 92 0 28 12 58 50 81v17c0 81-53 135-127 135-55 0-84-44-84-97 0-65 43-120 107-131l20-142c-158 0-285 122-285 292zm779 204c37-277 99-334 145-334 21 0 37 18 32 53l-18 126c-16 109 26 171 126 171 30 0 62-6 96-18l19-133c-11 4-29 9-46 9-28 0-42-16-38-45l17-128c18-132-42-187-126-187-46 0-98 17-148 65l7-49h-156l-66 470zm624 16c64 0 115-29 153-70 22 39 61 62 112 62 25 0 62-6 96-18l19-133c-11 4-29 9-46 9-34 0-41-24-38-45l73-525h-155l-37 262c-32-28-73-44-119-44-117 0-243 114-243 286 0 144 81 216 185 216zm74-365c34 0 64 17 85 36-18 126-72 187-128 187-37 0-61-29-61-84 0-90 58-139 104-139zm0 0"/></svg>