<svg width="4990" height="1064.002" xmlns="http://www.w3.org/2000/svg"><path d="M422 710.002c-69 34-123 46-176 46-99 0-169-68-169-185 0-130 93-237 211-237 79 0 139 51 134 160h36c7-119-57-192-166-192-143 0-252 123-252 272 0 135 89 214 206 214 47 0 108-9 170-42zm296 78c133 0 236-110 244-252 22 2 46 4 73 4l4-32c-30 0-55-1-76-4-2-40-13-85-27-122-67 0-106 27-107 66 0 34 30 65 98 81-5 128-95 227-209 227-92 0-159-79-159-186 0-130 88-240 238-240l5-34c-181 0-280 130-280 277 0 120 79 215 196 215zm143-341c0-19 18-36 49-36 7 21 14 54 16 87-52-13-65-34-65-51zm635-137h-34c-45 316-163 447-264 447-58 0-84-42-75-109l47-338h-35l-47 335c-13 89 27 143 102 143 91 0 187-81 240-258l-25 170c-7 53 19 83 60 83 16 0 33-4 53-13l4-30c-18 7-35 11-49 11-24 0-37-17-32-53zm114 470c45-316 165-447 259-447 51 0 89 37 77 128l-31 227c-9 66 22 100 64 100 18 0 29-4 48-12l5-30c-19 7-32 10-46 10-22 0-43-16-36-66l32-226c15-111-33-162-106-162-87 0-181 81-234 257l35-249h-36l-66 470zm529-438l-46 327c-11 78 22 119 85 119 27 0 52-7 82-24l5-32c-27 16-55 24-83 24-42 0-62-29-53-87l46-327h144l4-32h-144l18-124h-36l-17 124h-61l-5 32zm202 4c0 39 31 66 80 68l-80 248 32 8 83-258c33-5 76-17 134-39l48-19-47 346c-8 54 24 88 66 88 18 0 29-4 48-12l5-30c-19 7-32 10-46 10-22 0-43-16-38-54l55-396-99 38c-52 20-89 31-116 36 10-30 26-82 31-94-15-5-40-12-62-12-59 0-94 31-94 72zm32-3c0-33 27-42 55-42 9 0 19 1 28 4-3 11-18 56-25 79-40 0-58-15-58-41zm512 679c101 0 218-66 243-243l66-469h-35l-9 62c-18 130-70 338-236 338-62 0-98-49-88-120l39-280h-35l-39 276c-11 81 26 150 114 153-68 32-155 94-155 177 0 63 47 106 135 106zm-99-109c0-39 20-69 48-94 66-62 152-79 209-131 30-27 59-68 82-139l-32 230c-23 159-128 211-208 211-70 0-99-35-99-77zm511-133c47-330 153-447 245-447 53 0 83 37 73 107l-48 340h35l1-9c46-315 151-438 240-438 54 0 81 42 72 110l-37 259c-8 57 18 84 60 84 17 0 34-4 54-10l4-31c-23 9-38 11-50 11-23 0-38-15-33-51l37-259c13-91-28-144-99-144-83 0-158 68-210 203l8-60c14-101-32-143-99-143-87 0-168 75-219 242l33-234h-35l-66 470zm1143-358c0-67-54-120-142-120-132 0-247 124-247 272 0 149 95 214 210 214 45 0 88-10 138-30l5-36c-55 25-98 34-142 34-92 0-166-49-173-168 246-2 351-71 351-166zm-37 2c0 74-91 131-315 134 6-125 103-224 209-224 66 0 106 38 106 90zm140 356c45-316 165-447 259-447 51 0 89 37 77 128l-31 227c-9 66 22 100 64 100 18 0 29-4 48-12l5-30c-19 7-32 10-46 10-22 0-43-16-36-66l32-226c15-111-33-162-106-162-87 0-181 81-234 257l35-249h-36l-66 470zm0 0"/></svg>