<svg width="5837" height="1064.002" xmlns="http://www.w3.org/2000/svg"><path d="M467 604.002c-47 21-117 50-187 50-55 0-98-24-98-97 0-67 44-121 94-121 39 0 56 32 56 84h160c0-149-70-226-205-226-162 0-263 130-263 282 0 124 92 220 248 220 89 0 140-28 174-48zm88-28c0 124 92 220 228 220 172 0 278-120 292-257 18 1 38 2 59 2l18-133c-36 0-69-3-99-7-9-23-22-47-38-72-101 0-141 44-141 92 0 28 12 58 50 81v17c0 81-53 135-127 135-55 0-84-44-84-97 0-65 43-120 107-131l20-142c-158 0-285 122-285 292zm785 220c53 0 110-18 172-79 25 51 78 71 124 71 22 0 48-4 82-18l19-133c-11 4-31 9-48 9-34 0-41-29-39-45l41-291h-154c-37 277-101 334-147 334-21 0-35-18-30-53l40-281h-156l-39 275c-20 141 45 211 135 211zm588-16c37-277 99-334 145-334 21 0 37 18 32 53l-18 126c-16 109 26 171 126 171 30 0 62-6 96-18l19-133c-11 4-29 9-46 9-28 0-42-16-38-45l17-128c18-132-42-187-126-187-46 0-98 17-148 65l7-49h-156l-66 470zm522-337l-24 172c-18 128 53 181 161 181 42 0 67-8 99-22l19-139c-26 11-54 16-77 16-29 0-50-9-43-59l21-149h125l19-133h-125l15-110h-156l-15 110h-89l-19 133zm476 224l57-209h83l-22 159c-15 109 35 179 135 179 27 0 52-6 86-18l19-133c-11 4-29 9-46 9-34 0-40-30-38-45l43-299h-229c2-18 2-37 2-58-39-10-64-13-86-13-95 0-132 57-132 109 0 33 13 61 40 80l-54 199zm404 203c0 93 77 160 189 160 129 0 227-71 252-250l66-470h-156l-3 21c-9 60-46 293-141 293-23 0-36-19-31-55l36-259h-156l-38 273c-9 65 2 128 61 153-44 32-79 76-79 134zm188-88c31-32 72-45 99-72l9-9-14 102c-8 59-37 81-72 81-28 0-47-17-47-46 0-18 6-36 25-56zm373-2h159c37-277 99-334 139-334 21 0 30 18 25 53l-40 281h158l4-28c37-253 97-306 126-306 21 0 29 18 24 53l-14 108c-16 119 27 189 125 189 28 0 60-6 94-18l19-133c-11 4-29 9-46 9-28 0-42-16-38-45l21-149c15-109-29-166-115-166-40 0-96 11-159 66-22-57-80-66-110-66-50 0-105 20-155 69l8-53h-158zm1331-347c0-89-70-139-178-139-179 0-284 130-284 282 0 124 86 220 242 220 77 0 133-19 170-38l20-140c-60 27-122 46-176 46-58 0-85-14-94-41 228 0 300-103 300-190zm-164 16c0 32-45 75-149 75 14-60 62-104 109-104 23 0 40 9 40 29zm363 331c37-277 99-334 145-334 21 0 37 18 32 53l-18 126c-16 109 26 171 126 171 30 0 62-6 96-18l19-133c-11 4-29 9-46 9-28 0-42-16-38-45l17-128c18-132-42-187-126-187-46 0-98 17-148 65l7-49h-156l-66 470zm0 0"/></svg>