<svg width="5488" height="1064.002" xmlns="http://www.w3.org/2000/svg"><path d="M453 643.002c-61 30-119 50-185 50-65 0-124-41-124-130 0-90 61-166 137-166 47 0 94 30 85 117h115c10-139-60-219-189-219-158 0-262 129-262 280 0 136 104 220 234 220 72 0 124-17 173-46zm91-68c0 122 83 220 219 220 156 0 262-118 274-258 19 2 39 3 62 3l13-98c-41 0-67-2-89-6-11-29-25-55-39-76-74 0-107 33-107 71 0 25 14 52 49 73v15c0 97-67 174-157 174-71 0-110-59-110-131 0-90 64-168 156-173l15-104c-171 0-286 131-286 290zm755 220c60 0 118-25 176-96 11 62 62 88 110 88 21 0 43-4 71-15l14-96c-18 6-33 10-51 10-24 0-37-18-33-46l46-330h-110c-43 302-132 381-189 381-36 0-56-29-50-74l43-307h-112l-42 300c-17 119 41 185 127 185zm523-15c42-302 131-381 188-381 36 0 57 29 51 74l-25 178c-13 93 31 144 107 144 26 0 46-5 74-16l14-95c-17 5-32 9-49 9-22 0-39-12-34-46l24-178c16-115-39-174-126-174-59 0-118 28-169 99l12-84h-112l-66 470zm516-372l-33 233c-14 104 44 154 133 154 34 0 59-8 90-23l14-98c-24 11-53 19-81 19-29 0-49-15-42-62l31-223h129l13-98h-128l16-116h-112l-16 116h-78l-14 98zm366 259l62-238c1-5 3-10 4-15h116l-33 234c-13 92 36 147 111 147 25 0 42-5 71-16l13-95c-17 5-31 9-49 9-24 0-38-18-34-46l48-337h-226c1-17 2-35 2-55-25-8-45-11-64-11-74 0-101 43-101 81 0 27 13 52 41 69l-63 246zm386 222c0 82 65 140 168 140 118 0 225-74 250-251l66-468h-113l-6 47c-12 90-47 303-175 303-36 0-56-30-50-75l38-275h-112l-38 275c-9 66 8 131 71 154-51 34-99 85-99 150zm115-19c0-30 15-53 40-74 40-34 90-53 129-83 13-9 25-20 35-33l-15 109c-14 99-72 138-127 138-40 0-62-24-62-57zm427-90h112c42-302 123-381 180-381 35 0 48 29 42 74l-44 307h112l3-20c43-286 122-361 173-361 36 0 48 29 42 74l-24 167c-14 104 28 151 105 151 24 0 49-4 77-12l14-95c-21 6-33 9-51 9-27 0-39-14-34-47l26-185c15-106-28-166-112-166-59 0-118 27-172 93-12-75-68-93-113-93-60 0-118 25-168 93l11-78h-113zm1259-351c0-77-61-134-164-134-161 0-269 129-269 280 0 136 99 220 237 220 65 0 112-15 156-35l14-103c-59 26-106 40-164 40-66 0-111-28-125-82 235-3 315-94 315-186zm-119 11c0 40-50 91-203 95 12-81 75-145 145-145 37 0 58 21 58 50zm288 340c42-302 131-381 188-381 36 0 57 29 51 74l-25 178c-13 93 31 144 107 144 26 0 46-5 74-16l14-95c-17 5-32 9-49 9-22 0-39-12-34-46l24-178c16-115-39-174-126-174-59 0-118 28-169 99l12-84h-112l-66 470zm0 0"/></svg>