<svg width="2372" height="1064.002" xmlns="http://www.w3.org/2000/svg"><path d="M415 723.002c-68 33-124 43-173 43-108 0-178-72-178-194 0-137 100-248 225-248 87 0 145 58 143 166h22c3-115-60-186-163-186-139 0-249 121-249 269 0 133 81 213 200 213 43 0 106-9 170-41zm119-52l86-271c34-5 78-18 145-45l52-19-51 373c-7 46 20 77 57 77 17 0 27-3 45-11l3-19c-18 7-31 10-44 10-24 0-45-17-40-56l56-404-82 32c-65 25-105 37-134 42 8-24 26-79 29-89-14-5-33-9-51-9-50 0-81 25-81 61 0 44 38 58 76 58l-85 265zm68-372c10 0 20 1 30 4-3 9-19 59-26 80-29 0-62-5-62-41-1-28 21-43 58-43zm407 11h-21l-55 393c-8 56 10 83 48 83 17 0 27-3 45-11l3-19c-18 7-31 10-44 10-27 0-37-17-31-63zm-1-84c13 0 23-11 23-24 0-10-7-17-18-17-13 0-23 10-23 23 0 10 7 18 18 18zm157 560c27 0 52-7 82-24l3-21c-29 17-55 26-83 26-46 0-66-32-57-95l49-343h148l3-19h-149l18-126h-21l-18 126h-58l-3 19h59l-49 343c-11 75 17 114 76 114zm241-476h-21l-55 393c-8 56 10 83 48 83 17 0 27-3 45-11l3-19c-18 7-31 10-44 10-27 0-37-17-31-63zm-1-84c13 0 23-11 23-24 0-10-7-17-18-17-13 0-23 10-23 23 0 10 7 18 18 18zm459 497c-68 33-124 43-173 43-108 0-178-72-178-194 0-137 100-248 225-248 87 0 145 58 143 166h22c3-115-60-186-163-186-139 0-249 121-249 269 0 133 81 213 200 213 43 0 106-9 170-41zm72 22c40 21 95 41 161 41 140 0 223-75 223-182 0-138-140-176-140-330h-20l-179 260 17 12 164-240c13 129 136 179 136 299 0 99-78 161-201 161-62 0-117-20-159-40zm0 0"/></svg>