<svg width="3083" height="1064.002" xmlns="http://www.w3.org/2000/svg"><path d="M467 604.002c-47 21-117 50-187 50-55 0-98-24-98-97 0-67 44-121 94-121 39 0 56 32 56 84h160c0-149-70-226-205-226-162 0-263 130-263 282 0 124 92 220 248 220 89 0 140-28 174-48zm239 63l57-209h83l-22 159c-15 109 35 179 135 179 27 0 52-6 86-18l19-133c-11 4-29 9-46 9-34 0-40-30-38-45l43-299H794c2-18 2-37 2-58-39-10-64-13-86-13-95 0-132 57-132 109 0 33 13 61 40 80l-54 199zm615-357h-156l-39 278c-22 155 56 208 145 208 27 0 48-5 77-16l19-129c-22 4-28 6-47 6-25 0-46-12-39-62zm-79-61c57 0 101-47 101-104 0-46-33-81-85-81-57 0-102 46-102 103 0 46 33 82 86 82zm244 194l-24 172c-18 128 53 181 161 181 42 0 67-8 99-22l19-139c-26 11-54 16-77 16-29 0-50-9-43-59l21-149h125l19-133h-125l15-110h-156l-15 110h-89l-19 133zm542-133h-156l-39 278c-22 155 56 208 145 208 27 0 48-5 77-16l19-129c-22 4-28 6-47 6-25 0-46-12-39-62zm-79-61c57 0 101-47 101-104 0-46-33-81-85-81-57 0-102 46-102 103 0 46 33 82 86 82zm605 355c-47 21-117 50-187 50-55 0-98-24-98-97 0-67 44-121 94-121 39 0 56 32 56 84h160c0-149-70-226-205-226-162 0-263 130-263 282 0 124 92 220 248 220 89 0 140-28 174-48zm192-30l85-122c23 45 47 82 47 138 0 36-32 64-87 64-28 0-72-5-111-17l-19 138c43 15 92 21 130 21 160 0 246-83 246-208 0-127-111-198-111-308h-145l-150 214zm0 0"/></svg>