<svg width="2497" height="1064.002" xmlns="http://www.w3.org/2000/svg"><path d="M211 795.002c55 0 116-23 166-76 15 43 51 68 103 68 23 0 46-4 74-15l14-96c-18 6-32 10-50 10-24 0-38-16-34-46l79-564H451l-39 284c-34-42-83-65-141-65-123 0-243 120-243 286 0 146 83 214 183 214zm72-400c45 0 84 24 114 71-22 150-98 227-168 227-49 0-87-39-87-119 0-118 72-179 141-179zm776 34c0-77-61-134-164-134-161 0-269 129-269 280 0 136 99 220 237 220 65 0 112-15 156-35l14-103c-59 26-106 40-164 40-66 0-111-28-125-82 235-3 315-94 315-186zm-119 11c0 40-50 91-203 95 12-81 75-145 145-145 37 0 58 21 58 50zm252-32l-33 233c-14 104 44 154 133 154 34 0 59-8 90-23l14-98c-24 11-53 19-81 19-29 0-49-15-42-62l31-223h129l13-98h-128l16-116h-112l-16 116h-78l-14 98zm447 387c55 0 116-23 166-76 15 43 51 68 103 68 23 0 46-4 74-15l14-96c-17 6-32 10-50 10-24 0-38-16-33-46l45-330h-111l-7 50c-34-42-83-65-141-65-123 0-243 120-243 286 0 146 83 214 183 214zm72-400c45 0 84 24 114 71-22 150-98 227-168 227-49 0-87-39-87-119 0-118 72-179 141-179zm503-85h-112l-45 325c-16 113 44 160 115 160 25 0 40-5 67-15l13-94c-22 6-31 9-50 9-20 0-40-11-34-54zm-49-72c44 0 78-36 78-80 0-35-25-61-65-61-44 0-78 34-78 79 0 35 25 62 65 62zm321-188h-114l-83 586c-14 97 28 159 110 159 25 0 40-3 71-15l14-97c-18 6-32 9-50 9-22 0-37-14-33-46zm0 0"/></svg>