<svg width="3641" height="1064.002" xmlns="http://www.w3.org/2000/svg"><path d="M211 788.002c71 0 153-44 207-141l-7 44c-8 62 14 94 60 94 15 0 29-4 48-11l4-31c-19 7-33 10-45 10-25 0-37-15-31-59l86-618h-35l-50 351c-31-67-86-125-173-125-124 0-239 120-239 279 0 147 87 207 175 207zm68-454c81 0 131 62 163 139-26 186-132 283-227 283-74 0-142-56-142-177 0-150 103-245 206-245zm399-24h-36l-53 385c-9 62 16 93 59 93 18 0 28-4 48-12l4-30c-18 7-31 10-45 10-25 0-37-16-31-59zm-8-83c19 0 32-15 32-33 0-14-10-25-25-25-19 0-33 14-33 33 0 14 11 25 26 25zm175 83l36-260h-36l-36 260H709c30 31 59 62 87 92l-53 382c-26 184 60 238 149 238 97 0 175-83 175-230 0-128-83-230-235-389l8-61h261l5-32zm187 482c0 129-62 198-139 198-62 0-138-34-114-205l48-349c116 127 205 244 205 356zm-232-422c-8-9-18-18-27-28h31zm446-60l36-260h-36l-36 260h-100c30 31 59 62 87 92l-53 382c-26 184 60 238 149 238 97 0 175-83 175-230 0-128-83-230-235-389l8-61h261l5-32zm187 482c0 129-62 198-139 198-62 0-138-34-114-205l48-349c116 127 205 244 205 356zm-232-422c-8-9-18-18-27-28h31zm740 52c0-67-54-120-142-120-132 0-247 124-247 272 0 149 95 214 210 214 45 0 88-10 138-30l5-36c-55 25-98 34-142 34-92 0-166-49-173-168 246-2 351-71 351-166zm-37 2c0 74-91 131-315 134 6-125 103-224 209-224 66 0 106 38 106 90zm109-78c0 39 31 66 80 68l-80 248 32 8 83-258c33-5 76-17 134-39l48-19-47 346c-8 54 24 88 66 88 18 0 29-4 48-12l5-30c-19 7-32 10-46 10-22 0-43-16-38-54l55-396-99 38c-52 20-89 31-116 36 10-30 26-82 31-94-15-5-40-12-62-12-59 0-94 31-94 72zm32-3c0-33 27-42 55-42 9 0 19 1 28 4-3 11-18 56-25 79-40 0-58-15-58-41zm780 79c0-67-54-120-142-120-132 0-247 124-247 272 0 149 95 214 210 214 45 0 88-10 138-30l5-36c-55 25-98 34-142 34-92 0-166-49-173-168 246-2 351-71 351-166zm-37 2c0 74-91 131-315 134 6-125 103-224 209-224 66 0 106 38 106 90zm140 356c45-316 165-447 259-447 51 0 89 37 77 128l-31 227c-9 66 22 100 64 100 18 0 29-4 48-12l5-30c-19 7-32 10-46 10-22 0-43-16-36-66l32-226c15-111-33-162-106-162-87 0-181 81-234 257l35-249h-36l-66 470zm529-438l-46 327c-11 78 22 119 85 119 27 0 52-7 82-24l5-32c-27 16-55 24-83 24-42 0-62-29-53-87l46-327h144l4-32h-144l18-124h-36l-17 124h-61l-5 32zm0 0"/></svg>