<svg width="2508" height="1064.002" xmlns="http://www.w3.org/2000/svg"><path d="M447 426.002c0-68-54-130-153-130-147 0-259 128-259 279 0 144 109 219 234 219 56 0 96-12 145-33l11-76c-59 26-95 37-155 37-73 0-131-39-148-112 240-6 325-88 325-184zm-85 7c0 47-55 104-243 110 11-96 84-175 172-175 46 0 71 30 71 65zm192 203c0 94 52 158 134 158 164 0 249-193 266-373 29 5 62 7 100 7l10-73c-47 0-81 0-106-2 0-24-2-46-4-68-80 0-117 21-117 59 0 23 15 42 43 56-10 136-77 322-190 322-36 0-60-25-60-84v-328h-76zm956-210c0-68-54-130-153-130-147 0-259 128-259 279 0 144 109 219 234 219 56 0 96-12 145-33l11-76c-59 26-95 37-155 37-73 0-131-39-148-112 240-6 325-88 325-184zm-85 7c0 47-55 104-243 110 11-96 84-175 172-175 46 0 71 30 71 65zm204 234l57-226c6-22 10-41 14-59h143l-41 288c-12 81 36 124 93 124 23 0 35-4 59-14l10-68c-22 7-34 10-52 10-17 0-36-10-31-47l52-365h-224c1-17 2-34 2-54-15-5-31-8-47-8-59 0-79 33-79 60 0 21 13 47 42 62l-71 279zm374 235c0 74 56 126 152 126 110 0 223-75 248-251l66-467h-80l-9 67c-15 111-52 309-200 309-46 0-71-38-64-90l40-286h-80l-38 277c-9 66 12 132 80 154-58 32-115 92-115 161zm80-9c0-38 21-65 51-87 47-36 103-58 151-91 20-13 38-29 54-50l-16 113c-18 128-98 180-168 180-48 0-72-29-72-65zm0 0"/></svg>