<svg width="2291" height="1064.002" xmlns="http://www.w3.org/2000/svg"><path d="M413 419.002c0-66-54-113-136-113-124 0-241 122-241 267 0 152 87 211 197 211 39 0 83-8 133-28l2-12c-52 23-99 31-135 31-102 0-186-54-187-199 251-1 367-61 367-157zm-10 0c0 90-113 147-357 148 3-141 114-252 231-252 78 0 126 42 126 104zm112 240c0 84 31 125 95 125 121 0 225-157 256-369 22 4 50 7 84 7l2-9c-34 0-62-3-85-7 5-39 8-79 8-120-63 0-93 23-93 59 0 28 21 54 75 68-29 206-131 362-247 362-56 0-85-39-85-116v-349h-10zm343-256c-47-12-66-34-66-58 0-31 27-50 73-50 0 37-2 73-7 108zm502 16c0-66-54-113-136-113-124 0-241 122-241 267 0 152 87 211 197 211 39 0 83-8 133-28l2-12c-52 23-99 31-135 31-102 0-186-54-187-199 251-1 367-61 367-157zm-10 0c0 90-113 147-357 148 3-141 114-252 231-252 78 0 126 42 126 104zm88 253l91-283c32-4 77-19 152-48l55-20-55 396c-5 39 17 67 51 67 15 0 25-3 42-10l1-9c-17 7-30 10-42 10-25 0-47-19-42-58l57-411-68 26c-76 30-117 43-148 48 6-20 25-77 27-84-14-5-28-7-42-7-43 0-71 20-71 52 0 43 39 49 73 49l-90 279zm18-331c0-27 22-43 62-43 10 0 20 1 30 4-3 8-20 63-26 79-30 0-66-1-66-40zm484 677c96 0 216-61 241-238l66-470h-10l-9 60c-20 139-81 354-256 354-72 0-114-55-102-137l39-277h-10l-39 276c-11 83 30 147 112 147 14 0 32-3 46-7-77 33-203 99-203 198 0 56 42 94 125 94zm-115-94c0-40 21-71 48-98 76-77 179-91 241-153 36-36 71-91 99-191l-42 298c-25 177-145 229-231 229-83 0-115-39-115-85zm0 0"/></svg>