<svg width="4286" height="1064.002" xmlns="http://www.w3.org/2000/svg"><path d="M413 419.002c0-66-54-113-136-113-124 0-241 122-241 267 0 152 87 211 197 211 39 0 83-8 133-28l2-12c-52 23-99 31-135 31-102 0-186-54-187-199 251-1 367-61 367-157zm-10 0c0 90-113 147-357 148 3-141 114-252 231-252 78 0 126 42 126 104zm29 361l216-224 113 189c10 17 23 39 54 39 15 0 26-1 42-11l1-10c-16 10-26 12-43 12-21 0-33-13-43-30l-117-198 230-237h-14l-222 231-135-231h-12l141 239-224 231zm449 234h10l54-384c28 78 81 154 180 154 124 0 239-117 239-275 0-146-88-203-172-203-86 0-188 69-231 211l29-207h-10zm311-699c84 0 162 61 162 194 0 158-115 266-229 266-96 0-150-80-178-162 27-197 142-298 245-298zm638 104c0-66-54-113-136-113-124 0-241 122-241 267 0 152 87 211 197 211 39 0 83-8 133-28l2-12c-52 23-99 31-135 31-102 0-186-54-187-199 251-1 367-61 367-157zm-10 0c0 90-113 147-357 148 3-141 114-252 231-252 78 0 126 42 126 104zm88 253l91-283c32-4 77-19 152-48l55-20-55 396c-5 39 17 67 51 67 15 0 25-3 42-10l1-9c-17 7-30 10-42 10-25 0-47-19-42-58l57-411-68 26c-76 30-117 43-148 48 6-20 25-77 27-84-14-5-28-7-42-7-43 0-71 20-71 52 0 43 39 49 73 49l-90 279zm18-331c0-27 22-43 62-43 10 0 20 1 30 4-3 8-20 63-26 79-30 0-66-1-66-40zm448-31h-10l-56 399c-7 52 5 75 40 75 15 0 25-3 42-10l1-9c-17 7-30 10-42 10-29 0-37-19-31-66zm4-85c9 0 16-7 16-16 0-7-5-12-12-12-9 0-16 7-16 16 0 7 5 12 12 12zm454 194c0-66-54-113-136-113-124 0-241 122-241 267 0 152 87 211 197 211 39 0 83-8 133-28l2-12c-52 23-99 31-135 31-102 0-186-54-187-199 251-1 367-61 367-157zm-10 0c0 90-113 147-357 148 3-141 114-252 231-252 78 0 126 42 126 104zm86 361c44-314 171-465 282-465 54 0 99 36 84 149l-32 235c-8 57 14 85 48 85 15 0 25-3 42-10l1-9c-17 7-30 10-42 10-25 0-47-19-39-76l32-234c16-114-29-159-93-159-98 0-209 107-263 332l46-328h-10l-66 470zm862-47c-68 32-125 42-171 42-116 0-185-76-185-202 0-143 105-258 236-258 93 0 150 64 150 171h10c0-112-61-180-160-180-136 0-246 119-246 267 0 131 74 211 195 211 40 0 105-9 169-40zm480-314c0-66-54-113-136-113-124 0-241 122-241 267 0 152 87 211 197 211 39 0 83-8 133-28l2-12c-52 23-99 31-135 31-102 0-186-54-187-199 251-1 367-61 367-157zm-10 0c0 90-113 147-357 148 3-141 114-252 231-252 78 0 126 42 126 104zm0 0"/></svg>