<svg width="2687" height="1064.002" xmlns="http://www.w3.org/2000/svg"><path d="M136 310.002l36-260h-36l-36 260H0c30 31 59 62 87 92l-53 382c-26 184 60 238 149 238 97 0 175-83 175-230 0-128-83-230-235-389l8-61h261l5-32zm187 482c0 129-62 198-139 198-62 0-138-34-114-205l48-349c116 127 205 244 205 356zm-232-422c-8-9-18-18-27-28h31zm528 418c71 0 152-43 206-140l-7 48c-7 57 16 89 60 89 16 0 30-4 49-11l4-31c-19 7-33 10-46 10-22 0-37-17-31-54l54-389h-35l-17 117c-31-67-86-125-173-125-124 0-239 120-239 279 0 147 87 207 175 207zm68-454c81 0 131 62 162 139-26 186-132 283-226 283-75 0-142-56-142-177 0-150 103-245 206-245zm396-24h-36l-53 385c-9 62 16 93 59 93 18 0 28-4 48-12l4-30c-18 7-31 10-45 10-25 0-37-16-31-59zm-8-83c19 0 32-15 32-33 0-14-10-25-25-25-19 0-33 14-33 33 0 14 11 25 26 25zm213-177h-36l-90 642c-9 64 16 96 59 96 17 0 27-3 48-12l5-31c-20 7-33 11-46 11-25 0-37-17-31-63zm464 260h-34c-45 316-163 447-264 447-58 0-84-42-75-109l47-338h-35l-47 335c-13 89 27 143 102 143 91 0 187-81 240-258l-25 170c-7 53 19 83 60 83 16 0 33-4 53-13l4-30c-18 7-35 11-49 11-24 0-37-17-32-53zm83 36c0 39 31 66 80 68l-80 248 32 8 83-258c33-5 76-17 134-39l48-19-47 346c-8 54 24 88 66 88 18 0 29-4 48-12l5-30c-19 7-32 10-46 10-22 0-43-16-38-54l55-396-99 38c-52 20-89 31-116 36 10-30 26-82 31-94-15-5-40-12-62-12-59 0-94 31-94 72zm32-3c0-33 27-42 55-42 9 0 19 1 28 4-3 11-18 56-25 79-40 0-58-15-58-41zm780 79c0-67-54-120-142-120-132 0-247 124-247 272 0 149 95 214 210 214 45 0 88-10 138-30l5-36c-55 25-98 34-142 34-92 0-166-49-173-168 246-2 351-71 351-166zm-37 2c0 74-91 131-315 134 6-125 103-224 209-224 66 0 106 38 106 90zm0 0"/></svg>