<svg width="1411" height="1064.002" xmlns="http://www.w3.org/2000/svg"><path d="M156 310.002l37-260h-55l-36 260H0c28 31 58 64 88 99l-56 397c-22 161 60 218 151 218 94 0 182-81 182-227 0-123-80-235-223-389l7-48h247l7-50zm154 485c0 119-61 180-126 180-53 0-116-32-98-167l48-343c94 113 176 234 176 330zm314-5c59 0 134-30 190-107-7 66 22 103 74 103 19 0 32-4 53-13l7-46c-20 7-34 10-48 10-20 0-37-14-32-51l53-376h-55l-13 95c-33-60-87-105-166-105-125 0-241 121-241 281 0 148 86 209 178 209zm69-441c69 0 117 48 151 120-25 179-125 272-214 272-67 0-126-52-126-163 0-145 94-229 189-229zm383 83l-73 224 50 13 76-239c33-4 72-15 120-34l45-17-43 308c-9 66 29 103 78 103 20 0 31-3 53-12l7-47c-21 7-33 10-49 10-20 0-40-13-35-51l54-384-123 47c-37 14-67 23-92 28l33-103c-14-5-48-15-75-15-71 0-111 39-111 87 0 43 34 76 85 82zm12-129c10 0 19 1 28 3-5 14-18 55-26 81-37-2-51-18-51-43 0-29 20-41 49-41zm0 0"/></svg>