<svg width="1622" height="1064.002" xmlns="http://www.w3.org/2000/svg"><path d="M136 310.002l36-260h-36l-36 260H0c30 31 59 62 87 92l-53 382c-26 184 60 238 149 238 97 0 175-83 175-230 0-128-83-230-235-389l8-61h261l5-32zm187 482c0 129-62 198-139 198-62 0-138-34-114-205l48-349c116 127 205 244 205 356zm-232-422c-8-9-18-18-27-28h31zm740 52c0-67-54-120-142-120-132 0-247 124-247 272 0 149 95 214 210 214 45 0 88-10 138-30l5-36c-55 25-98 34-142 34-92 0-166-49-173-168 246-2 351-71 351-166zm-37 2c0 74-91 131-315 134 6-125 103-224 209-224 66 0 106 38 106 90zm141-114v346c0 84 37 132 102 132 70 0 127-60 164-159-3 73 23 159 112 159 109 0 195-149 219-345 24 3 52 5 85 5l5-31c-35 0-63-2-87-5 4-41 5-83 3-126-97 0-128 33-128 71 0 31 22 63 88 79-21 183-97 320-181 320-69 0-86-71-81-133l22-313h-34l-7 97c-12 176-75 349-176 349-44 0-72-34-72-101v-345zm569 4c1 31 0 62-3 92-44-12-59-31-59-51 0-23 22-41 62-41zm0 0"/></svg>