<svg width="1100" height="1064.002" xmlns="http://www.w3.org/2000/svg"><path d="M20 780.002h156c37-277 99-334 145-334 21 0 37 18 32 53l-15 104c-19 131 35 193 134 193 19 0 51-6 85-18l19-133c-11 4-29 9-46 9-34 0-40-29-38-45l17-128c18-132-42-187-126-187-46 0-98 17-148 65l44-309H123zm1057-347c0-89-70-139-178-139-179 0-284 130-284 282 0 124 86 220 242 220 77 0 133-19 170-38l20-140c-60 27-122 46-176 46-58 0-85-14-94-41 228 0 300-103 300-190zm-164 16c0 32-45 75-149 75 14-60 62-104 109-104 23 0 40 9 40 29zm0 0"/></svg>