<svg width="2837" height="1064.002" xmlns="http://www.w3.org/2000/svg"><path d="M48 780.002c45-315 169-457 268-457 53 0 100 36 87 130l-36 256c-6 46 20 77 58 77 16 0 26-3 45-11l2-19c-18 7-31 10-44 10-23 0-45-17-40-56l36-255c14-103-36-151-104-151-87 0-185 84-242 271l74-525h-22l-103 730zm562-470h-21l-55 393c-8 56 10 83 48 83 17 0 27-3 45-11l3-19c-18 7-31 10-44 10-27 0-37-17-31-63zm-1-84c13 0 23-11 23-24 0-10-7-17-18-17-13 0-23 10-23 23 0 10 7 18 18 18zm221 794c105 0 227-73 252-251l65-459h-21l-19 133c-31-84-97-139-181-139-128 0-229 114-229 253 0 119 62 184 160 184 4 0 9 0 15-1-71 24-197 77-197 168 0 57 49 112 155 112zm-110-464c0-130 90-233 207-233 81 0 143 54 175 150-11 87-38 143-77 181-40 39-100 68-166 68-86 0-139-59-139-166zm10 280c88-86 224-89 306-169 21-21 41-53 51-82l-25 182c-22 158-133 233-232 233-90 0-133-47-133-95 0-26 11-48 33-69zm508-56c45-315 169-457 268-457 53 0 100 36 87 130l-36 256c-6 46 20 77 58 77 16 0 26-3 45-11l2-19c-18 7-31 10-44 10-23 0-45-17-40-56l36-255c14-103-36-151-104-151-87 0-185 84-242 271l74-525h-22l-103 730zm866-360c0-66-54-116-139-116-128 0-244 123-244 269 0 151 90 213 203 213 42 0 85-9 135-29l3-23c-53 24-98 32-138 32-97 0-177-51-181-185 249-1 361-65 361-161zm-23 1c0 83-103 140-338 142 4-134 109-239 221-239 73 0 117 39 117 97zm65 324c40 21 95 41 161 41 140 0 223-75 223-182 0-138-140-176-140-330h-20l-179 260 17 12 164-240c13 129 136 179 136 299 0 99-78 161-201 161-62 0-117-20-159-40zm546 41c27 0 52-7 82-24l3-21c-29 17-55 26-83 26-46 0-66-32-57-95l49-343h148l3-19h-149l18-126h-21l-18 126h-58l-3 19h59l-49 343c-11 75 17 114 76 114zm0 0"/></svg>