<svg width="1574" height="1064.002" xmlns="http://www.w3.org/2000/svg"><path d="M24 780.002h78c46-320 155-416 220-416 46 0 71 38 64 90l-30 216c-11 81 36 124 93 124 23 0 35-4 59-14l10-68c-22 7-34 10-52 10-17 0-36-10-31-47l30-214c15-103-38-165-127-165-68 0-131 35-183 124l52-370h-80zm681-470h-80l-50 360c-11 81 36 124 93 124 23 0 35-4 59-14l10-68c-22 7-34 10-52 10-17 0-36-10-31-47zm-27-80c34 0 60-28 60-62 0-27-19-47-50-47-34 0-61 26-61 61 0 27 20 48 51 48zm102 550h78c46-320 141-416 210-416 46 0 61 38 54 90l-46 326h78l2-15c47-310 140-401 208-401 46 0 61 38 54 90l-30 211c-14 92 28 123 90 123 20 0 41-3 64-8l10-67c-27 7-36 9-54 9-26 0-36-13-31-49l30-212c15-103-28-165-111-165-72 0-135 37-185 114-3-88-54-114-111-114-67 0-127 28-177 110l13-96h-80zm0 0"/></svg>