<svg width="1430" height="1064.002" xmlns="http://www.w3.org/2000/svg"><path d="M48 780.002c45-315 169-457 268-457 53 0 100 36 87 130l-36 256c-6 46 20 77 58 77 16 0 26-3 45-11l2-19c-18 7-31 10-44 10-23 0-45-17-40-56l36-255c14-103-36-151-104-151-87 0-185 84-242 271l74-525h-22l-103 730zm562-470h-21l-55 393c-8 56 10 83 48 83 17 0 27-3 45-11l3-19c-18 7-31 10-44 10-27 0-37-17-31-63zm-1-84c13 0 23-11 23-24 0-10-7-17-18-17-13 0-23 10-23 23 0 10 7 18 18 18zm94 554c47-333 157-457 255-457 56 0 91 37 80 113l-48 344h21l1-7c46-317 154-450 250-450 56 0 87 43 77 117l-39 274c-6 46 15 71 50 71 16 0 33-4 51-11l2-18c-22 8-38 10-49 10-21 0-37-15-32-51l38-274c12-87-28-137-95-137-89 0-170 87-223 257l17-123c13-90-30-134-97-134-93 0-181 90-231 285l39-279h-22l-66 470zm0 0"/></svg>