<svg width="1403" height="1064.002" xmlns="http://www.w3.org/2000/svg"><path d="M38 780.002c44-314 171-465 277-465 54 0 105 36 91 137l-37 265c-5 39 17 67 51 67 15 0 25-3 42-10l1-9c-17 7-30 10-42 10-25 0-47-19-42-58l37-264c14-102-36-147-100-147-94 0-205 106-258 331l83-587h-10l-103 730zm554-470h-10l-56 399c-7 52 5 75 40 75 15 0 25-3 42-10l1-9c-17 7-30 10-42 10-29 0-37-19-31-66zm4-85c9 0 16-7 16-16 0-7-5-12-12-12-9 0-16 7-16 16 0 7 5 12 12 12zm388 555l1-6c45-318 156-459 257-459 59 0 93 44 82 122l-40 286c-5 38 12 61 42 61 15 0 31-4 48-11l1-9c-21 9-39 11-48 11-20 0-38-16-33-52l40-286c12-84-28-131-92-131-96 0-185 109-236 318l27-192c11-81-28-126-95-126-98 0-191 101-242 318l44-314h-10l-66 470h10c47-335 160-465 264-465 57 0 96 37 85 117l-49 348zm0 0"/></svg>