<svg width="1465" height="1064.002" xmlns="http://www.w3.org/2000/svg"><path d="M61 780.002c45-316 166-447 257-447 51 0 92 37 81 120l-35 247c-7 54 24 88 67 88 18 0 28-4 48-12l4-30c-19 7-31 10-46 10-22 0-43-16-38-54l35-246c14-102-37-154-110-154-82 0-168 68-226 224l67-476h-35l-103 730zm572-470h-36l-53 385c-9 62 16 93 59 93 18 0 28-4 48-12l4-30c-18 7-31 10-45 10-25 0-37-16-31-59zm-8-83c19 0 32-15 32-33 0-14-10-25-25-25-19 0-33 14-33 33 0 14 11 25 26 25zm115 553c47-330 153-447 245-447 53 0 83 37 73 107l-48 340h35l1-9c46-315 151-438 240-438 54 0 81 42 72 110l-37 259c-8 57 18 84 60 84 17 0 34-4 54-10l4-31c-23 9-38 11-50 11-23 0-38-15-33-51l37-259c13-91-28-144-99-144-83 0-158 68-210 203l8-60c14-101-32-143-99-143-87 0-168 75-219 242l33-234h-35l-66 470zm0 0"/></svg>