<svg width="2633" height="1064.002" xmlns="http://www.w3.org/2000/svg"><path d="M24 780.002h78c46-320 155-416 220-416 46 0 71 38 64 90l-30 216c-11 81 36 124 93 124 23 0 35-4 59-14l10-68c-22 7-34 10-52 10-17 0-36-10-31-47l30-214c15-103-38-165-127-165-68 0-131 35-183 124l52-370h-80zm521-206c0 121 77 220 212 220 146 0 251-116 261-259 19 3 41 5 64 5l11-73c-42 0-64-1-82-5-12-36-32-67-40-80-55 0-83 26-83 56 0 23 16 49 48 68v13c0 109-76 203-179 203-82 0-129-71-129-156 0-109 80-204 193-204l10-76c-179 0-286 138-286 288zm637 440l42-299c35 52 90 79 157 79 127 0 243-124 243-285 0-149-85-213-181-213-58 0-126 30-173 90l10-76h-79l-99 704zm55-389c24-168 116-257 196-257 58 0 106 47 106 145 0 138-82 209-167 209-53 0-99-30-135-97zm883-199c0-68-54-130-153-130-147 0-259 128-259 279 0 144 109 219 234 219 56 0 96-12 145-33l11-76c-59 26-95 37-155 37-73 0-131-39-148-112 240-6 325-88 325-184zm-85 7c0 47-55 104-243 110 11-96 84-175 172-175 46 0 71 30 71 65zm150 322c43 23 106 39 160 39 174 0 239-106 239-200 0-139-124-197-124-328h-79l-169 270 62 39 131-209c31 93 97 139 97 235 0 68-61 120-157 120-48 0-112-22-150-37zm0 0"/></svg>