<svg width="2559" height="1064.002" xmlns="http://www.w3.org/2000/svg"><path d="M79 780.002c45-318 161-434 240-434 49 0 84 37 74 107l-32 234c-9 66 29 103 77 103 21 0 32-3 53-12l7-47c-20 7-33 10-48 10-20 0-41-13-35-51l32-232c15-103-37-158-117-158-75 0-150 51-207 173l60-423h-54l-103 730zm663 10c134 0 236-105 251-240 20 2 43 3 67 3l8-49c-29 0-53-1-73-3-3-38-14-85-31-125-83 0-131 30-131 75-1 39 34 72 104 89-9 113-90 201-195 201-87 0-146-75-146-173 0-121 84-224 219-224l7-52c-180 0-282 133-282 282 0 120 77 216 202 216zm139-340c0-24 26-30 45-30 5 18 10 44 11 73-46-12-56-29-56-43zm242 564l46-327c32 64 89 103 166 103 126 0 241-121 241-281 0-148-86-209-177-209-67 0-145 40-193 121l15-111h-53l-100 704zm55-393c25-179 126-272 214-272 68 0 127 52 127 162 0 146-94 230-190 230-69 0-118-48-151-120zm884-198c0-67-54-123-147-123-139 0-253 125-253 274 0 147 101 216 221 216 50 0 91-10 141-31l7-53c-56 25-96 35-147 35-84 0-152-44-162-144 243-3 340-78 340-174zm-58 5c0 63-76 119-284 124 7-113 94-203 193-203 58 0 91 34 91 79zm112 323c42 22 102 39 161 39 159 0 232-92 232-192 0-138-131-188-131-328h-53l-173 265 42 27 144-221c28 108 115 156 115 262 0 81-68 138-176 138-54 0-114-21-154-39zm0 0"/></svg>