<svg width="2438" height="1064.002" xmlns="http://www.w3.org/2000/svg"><path d="M38 780.002c44-314 171-465 277-465 54 0 105 36 91 137l-37 265c-5 39 17 67 51 67 15 0 25-3 42-10l1-9c-17 7-30 10-42 10-25 0-47-19-42-58l37-264c14-102-36-147-100-147-94 0-205 106-258 331l83-587h-10l-103 730zm676 4c146 0 236-131 236-267 22 4 48 6 79 6l1-9c-32 0-59-2-80-6-2-43-11-86-24-119-44 0-72 25-72 55 0 26 21 56 86 71 0 132-83 260-226 260-97 0-176-83-176-202 0-143 92-261 264-261l1-10c-182 0-275 125-275 271 0 119 79 211 186 211zm150-340c0-25 22-45 55-45 10 24 19 67 21 107-59-14-76-40-76-62zm153 570h10l54-384c28 78 81 154 180 154 124 0 239-117 239-275 0-146-88-203-172-203-86 0-188 69-231 211l29-207h-10zm311-699c84 0 162 61 162 194 0 158-115 266-229 266-96 0-150-80-178-162 27-197 142-298 245-298zm638 104c0-66-54-113-136-113-124 0-241 122-241 267 0 152 87 211 197 211 39 0 83-8 133-28l2-12c-52 23-99 31-135 31-102 0-186-54-187-199 251-1 367-61 367-157zm-10 0c0 90-113 147-357 148 3-141 114-252 231-252 78 0 126 42 126 104zm48 324c40 21 93 41 161 41 134 0 220-68 220-178 0-138-143-172-143-330h-8l-181 258 8 6 172-247c5 137 142 187 142 313 0 105-81 169-210 169-65 0-118-19-160-41zm0 0"/></svg>