<svg width="4105" height="1064.002" xmlns="http://www.w3.org/2000/svg"><path d="M241 310.002H85l-39 278c-22 155 56 208 145 208 27 0 48-5 77-16l19-129c-22 4-28 6-47 6-25 0-46-12-39-62zm-79-61c57 0 101-47 101-104 0-46-33-81-85-81-57 0-102 46-102 103 0 46 33 82 86 82zm158 531h159c37-277 99-334 139-334 21 0 30 18 25 53l-40 281h158l4-28c37-253 97-306 126-306 21 0 29 18 24 53l-14 108c-16 119 27 189 125 189 28 0 60-6 94-18l19-133c-11 4-29 9-46 9-28 0-42-16-38-45l21-149c15-109-29-166-115-166-40 0-96 11-159 66-22-57-80-66-110-66-50 0-105 20-155 69l8-53H387zm855 0h159c37-277 99-334 139-334 21 0 30 18 25 53l-40 281h158l4-28c37-253 97-306 126-306 21 0 29 18 24 53l-14 108c-16 119 27 189 125 189 28 0 60-6 94-18l19-133c-11 4-29 9-46 9-28 0-42-16-38-45l21-149c15-109-29-166-115-166-40 0-96 11-159 66-22-57-80-66-110-66-50 0-105 20-155 69l8-53h-158zm1331-347c0-89-70-139-178-139-179 0-284 130-284 282 0 124 86 220 242 220 77 0 133-19 170-38l20-140c-60 27-122 46-176 46-58 0-85-14-94-41 228 0 300-103 300-190zm-164 16c0 32-45 75-149 75 14-60 62-104 109-104 23 0 40 9 40 29zm363 331c37-277 99-334 145-334 21 0 37 18 32 53l-18 126c-16 109 26 171 126 171 30 0 62-6 96-18l19-133c-11 4-29 9-46 9-28 0-42-16-38-45l17-128c18-132-42-187-126-187-46 0-98 17-148 65l7-49h-156l-66 470zm544-206l85-122c23 45 47 82 47 138 0 36-32 64-87 64-28 0-72-5-111-17l-19 138c43 15 92 21 130 21 160 0 246-83 246-208 0-127-111-198-111-308h-145l-150 214zm833-141c0-89-70-139-178-139-179 0-284 130-284 282 0 124 86 220 242 220 77 0 133-19 170-38l20-140c-60 27-122 46-176 46-58 0-85-14-94-41 228 0 300-103 300-190zm-164 16c0 32-45 75-149 75 14-60 62-104 109-104 23 0 40 9 40 29zm0 0"/></svg>