<svg width="4731" height="1064.002" xmlns="http://www.w3.org/2000/svg"><path d="M126 310.002H90l-53 385c-9 62 16 93 59 93 18 0 28-4 48-12l4-30c-18 7-31 10-45 10-25 0-37-16-31-59zm-8-83c19 0 32-15 32-33 0-14-10-25-25-25-19 0-33 14-33 33 0 14 11 25 26 25zm115 553c47-330 153-447 245-447 53 0 83 37 73 107l-48 340h35l1-9c46-315 151-438 240-438 54 0 81 42 72 110l-37 259c-8 57 18 84 60 84 17 0 34-4 54-10l4-31c-23 9-38 11-50 11-23 0-38-15-33-51l37-259c13-91-28-144-99-144-83 0-158 68-210 203l8-60c14-101-32-143-99-143-87 0-168 75-219 242l33-234h-35l-66 470zm718 234h36l49-352c29 74 87 126 172 126 125 0 241-120 241-279 0-147-87-207-175-207-74 0-160 49-208 150l20-142h-35zm319-680c74 0 141 56 141 176 0 151-103 246-206 246-80 0-131-62-162-139 26-186 132-283 227-283zm460 454c133 0 236-110 244-252 22 2 46 4 73 4l4-32c-30 0-55-1-76-4-2-40-13-85-27-122-67 0-106 27-107 66 0 34 30 65 98 81-5 128-95 227-209 227-92 0-159-79-159-186 0-130 88-240 238-240l5-34c-181 0-280 130-280 277 0 120 79 215 196 215zm143-341c0-19 18-36 49-36 7 21 14 54 16 87-52-13-65-34-65-51zm212-101c0 39 31 66 80 68l-80 248 32 8 83-258c33-5 76-17 134-39l48-19-47 346c-8 54 24 88 66 88 18 0 29-4 48-12l5-30c-19 7-32 10-46 10-22 0-43-16-38-54l55-396-99 38c-52 20-89 31-116 36 10-30 26-82 31-94-15-5-40-12-62-12-59 0-94 31-94 72zm32-3c0-33 27-42 55-42 9 0 19 1 28 4-3 11-18 56-25 79-40 0-58-15-58-41zm444-1l-46 327c-11 78 22 119 85 119 27 0 52-7 82-24l5-32c-27 16-55 24-83 24-42 0-62-29-53-87l46-327h144l4-32h-144l18-124h-36l-17 124h-61l-5 32zm376 446c71 0 152-43 206-140l-7 48c-7 57 16 89 60 89 16 0 30-4 49-11l4-31c-19 7-33 10-46 10-22 0-37-17-31-54l54-389h-35l-17 117c-31-67-86-125-173-125-124 0-239 120-239 279 0 147 87 207 175 207zm68-454c81 0 131 62 162 139-26 186-132 283-226 283-75 0-142-56-142-177 0-150 103-245 206-245zm333 446c45-316 165-447 259-447 51 0 89 37 77 128l-31 227c-9 66 22 100 64 100 18 0 29-4 48-12l5-30c-19 7-32 10-46 10-22 0-43-16-36-66l32-226c15-111-33-162-106-162-87 0-181 81-234 257l35-249h-36l-66 470zm862-70c-69 34-123 46-176 46-99 0-169-68-169-185 0-130 93-237 211-237 79 0 139 51 134 160h36c7-119-57-192-166-192-143 0-252 123-252 272 0 135 89 214 206 214 47 0 108-9 170-42zm491-288c0-67-54-120-142-120-132 0-247 124-247 272 0 149 95 214 210 214 45 0 88-10 138-30l5-36c-55 25-98 34-142 34-92 0-166-49-173-168 246-2 351-71 351-166zm-37 2c0 74-91 131-315 134 6-125 103-224 209-224 66 0 106 38 106 90zm0 0"/></svg>