<svg width="4824" height="1064.002" xmlns="http://www.w3.org/2000/svg"><path d="M199 310.002H87l-45 325c-16 113 44 160 115 160 25 0 40-5 67-15l13-94c-22 6-31 9-50 9-20 0-40-11-34-54zm-49-72c44 0 78-36 78-80 0-35-25-61-65-61-44 0-78 34-78 79 0 35 25 62 65 62zm238 542c42-302 131-381 188-381 36 0 57 29 51 74l-25 178c-13 93 31 144 107 144 26 0 46-5 74-16l14-95c-17 5-32 9-49 9-22 0-39-12-34-46l24-178c16-115-39-174-126-174-59 0-118 28-169 99l12-84H343l-66 470zm516-372l-33 233c-14 104 44 154 133 154 34 0 59-8 90-23l14-98c-24 11-53 19-81 19-29 0-49-15-42-62l31-223h129l13-98h-128l16-116H934l-16 116h-78l-14 98zm697 21c0-77-61-134-164-134-161 0-269 129-269 280 0 136 99 220 237 220 65 0 112-15 156-35l14-103c-59 26-106 40-164 40-66 0-111-28-125-82 235-3 315-94 315-186zm-119 11c0 40-50 91-203 95 12-81 75-145 145-145 37 0 58 21 58 50zm381-390h-114l-83 586c-14 97 28 159 110 159 25 0 40-3 71-15l14-97c-18 6-32 9-50 9-22 0-37-14-33-46zm228 0h-114l-83 586c-14 97 28 159 110 159 25 0 40-3 71-15l14-97c-18 6-32 9-50 9-22 0-37-14-33-46zm469 379c0-77-61-134-164-134-161 0-269 129-269 280 0 136 99 220 237 220 65 0 112-15 156-35l14-103c-59 26-106 40-164 40-66 0-111-28-125-82 235-3 315-94 315-186zm-119 11c0 40-50 91-203 95 12-81 75-145 145-145 37 0 58 21 58 50zm607 203c-61 30-119 50-185 50-65 0-124-41-124-130 0-90 61-166 137-166 47 0 94 30 85 117h115c10-139-60-219-189-219-158 0-262 129-262 280 0 136 104 220 234 220 72 0 124-17 173-46zm162-235l-33 233c-14 104 44 154 133 154 34 0 59-8 90-23l14-98c-24 11-53 19-81 19-29 0-49-15-42-62l31-223h129l13-98h-128l16-116h-112l-16 116h-78l-14 98zm423 387c60 0 118-25 176-96 11 62 62 88 110 88 21 0 43-4 71-15l14-96c-18 6-33 10-51 10-24 0-37-18-33-46l46-330h-110c-43 302-132 381-189 381-36 0-56-29-50-74l43-307h-112l-42 300c-17 119 41 185 127 185zm587 0c55 0 116-23 166-76 15 43 51 68 103 68 23 0 46-4 74-15l14-96c-17 6-32 10-50 10-24 0-38-16-33-46l45-330h-111l-7 50c-34-42-83-65-141-65-123 0-243 120-243 286 0 146 83 214 183 214zm72-400c45 0 84 24 114 71-22 150-98 227-168 227-49 0-87-39-87-119 0-118 72-179 141-179zm521-345h-114l-83 586c-14 97 28 159 110 159 25 0 40-3 71-15l14-97c-18 6-32 9-50 9-22 0-37-14-33-46zm0 0"/></svg>