<svg width="5319" height="1064.002" xmlns="http://www.w3.org/2000/svg"><path d="M241 310.002H85l-39 278c-22 155 56 208 145 208 27 0 48-5 77-16l19-129c-22 4-28 6-47 6-25 0-46-12-39-62zm-79-61c57 0 101-47 101-104 0-46-33-81-85-81-57 0-102 46-102 103 0 46 33 82 86 82zm314 531c37-277 99-334 145-334 21 0 37 18 32 53l-18 126c-16 109 26 171 126 171 30 0 62-6 96-18l19-133c-11 4-29 9-46 9-28 0-42-16-38-45l17-128c18-132-42-187-126-187-46 0-98 17-148 65l7-49H386l-66 470zm522-337l-24 172c-18 128 53 181 161 181 42 0 67-8 99-22l19-139c-26 11-54 16-77 16-29 0-50-9-43-59l21-149h125l19-133h-125l15-110h-156l-15 110h-89l-19 133zm797-10c0-89-70-139-178-139-179 0-284 130-284 282 0 124 86 220 242 220 77 0 133-19 170-38l20-140c-60 27-122 46-176 46-58 0-85-14-94-41 228 0 300-103 300-190zm-164 16c0 32-45 75-149 75 14-60 62-104 109-104 23 0 40 9 40 29zm454-399h-161l-79 540c-17 119 18 206 135 206 26 0 46-2 86-17l19-136c-11 4-29 8-46 8-29 0-39-19-35-44zm279 0h-161l-79 540c-17 119 18 206 135 206 26 0 46-2 86-17l19-136c-11 4-29 8-46 8-29 0-39-19-35-44zm508 383c0-89-70-139-178-139-179 0-284 130-284 282 0 124 86 220 242 220 77 0 133-19 170-38l20-140c-60 27-122 46-176 46-58 0-85-14-94-41 228 0 300-103 300-190zm-164 16c0 32-45 75-149 75 14-60 62-104 109-104 23 0 40 9 40 29zm654 155c-47 21-117 50-187 50-55 0-98-24-98-97 0-67 44-121 94-121 39 0 56 32 56 84h160c0-149-70-226-205-226-162 0-263 130-263 282 0 124 92 220 248 220 89 0 140-28 174-48zm170-161l-24 172c-18 128 53 181 161 181 42 0 67-8 99-22l19-139c-26 11-54 16-77 16-29 0-50-9-43-59l21-149h125l19-133h-125l15-110h-156l-15 110h-89l-19 133zm483 353c53 0 110-18 172-79 25 51 78 71 124 71 22 0 48-4 82-18l19-133c-11 4-31 9-48 9-34 0-41-29-39-45l41-291h-154c-37 277-101 334-147 334-21 0-35-18-30-53l40-281h-156l-39 275c-20 141 45 211 135 211zm630 0c64 0 115-29 153-70 22 39 61 62 112 62 25 0 62-6 96-18l19-133c-11 4-29 9-46 9-34 0-41-24-38-45l40-291h-155l-4 28c-32-28-73-44-119-44-117 0-243 114-243 286 0 144 81 216 185 216zm74-365c34 0 64 17 85 36-18 126-72 187-128 187-37 0-61-29-61-84 0-90 58-139 104-139zm588-381h-161l-79 540c-17 119 18 206 135 206 26 0 46-2 86-17l19-136c-11 4-29 8-46 8-29 0-39-19-35-44zm0 0"/></svg>