<svg width="2591" height="1064.002" xmlns="http://www.w3.org/2000/svg"><path d="M54 1014.002l99-704H99l-99 704zm84-786c25 0 44-20 44-45 0-20-14-34-36-34-25 0-44 19-44 44 0 20 14 35 36 35zm210 562c82 0 165-62 218-203l1 1-15 100c-9 64 27 96 73 96 17 0 35-4 57-13l6-46c-19 7-34 10-50 10-21 0-36-14-31-50l53-375h-53c-45 318-159 434-245 434-53 0-79-40-70-101l46-333h-54l-46 328c-14 95 31 152 110 152zm377-39c42 22 102 39 161 39 159 0 232-92 232-192 0-138-131-188-131-328h-53l-173 265 42 27 144-221c28 108 115 156 115 262 0 81-68 138-176 138-54 0-114-21-154-39zm526-391l-43 305c-12 82 28 125 96 125 27 0 52-6 82-23l7-47c-25 13-53 22-83 22-36 0-55-25-48-77l43-305h139l7-50h-139l17-123h-54l-18 123h-64l-7 50zm331-50h-54l-52 374c-10 71 24 106 73 106 20 0 32-3 53-12l7-47c-20 7-33 10-49 10-21 0-36-13-31-54zm-16-82c25 0 44-20 44-45 0-20-14-34-36-34-25 0-44 19-44 44 0 20 14 35 36 35zm483 466c-69 35-121 47-178 47-88 0-158-62-158-172 0-120 85-220 193-220 68 0 131 41 121 151h56c12-124-55-200-170-200-148 0-256 124-256 274 0 139 98 216 213 216 53 0 110-9 172-42zm501-271c0-67-54-123-147-123-139 0-253 125-253 274 0 147 101 216 221 216 50 0 91-10 141-31l7-53c-56 25-96 35-147 35-84 0-152-44-162-144 243-3 340-78 340-174zm-58 5c0 63-76 119-284 124 7-113 94-203 193-203 58 0 91 34 91 79zm0 0"/></svg>