<svg width="2394" height="1064.002" xmlns="http://www.w3.org/2000/svg"><path d="M18 780.002h111c36-258 119-387 192-387 35 0 55 21 55 53 0 58-65 93-148 93h-17l31 149c15 69 46 107 127 107 22 0 52-4 83-15l14-99c-27 9-52 12-68 12-27 0-42-12-54-34l-23-59c126-25 169-106 169-180 0-66-52-125-136-125-56 0-117 27-170 98l49-343H121zm711-470H617l-45 325c-16 113 44 160 115 160 25 0 40-5 67-15l13-94c-22 6-31 9-50 9-20 0-40-11-34-54zm-49-72c44 0 78-36 78-80 0-35-25-61-65-61-44 0-78 34-78 79 0 35 25 62 65 62zm238 542c42-302 131-381 188-381 36 0 57 29 51 74l-25 178c-13 93 31 144 107 144 26 0 46-5 74-16l14-95c-17 5-32 9-49 9-22 0-39-12-34-46l24-178c16-115-39-174-126-174-59 0-118 28-169 99l12-84H873l-66 470zm619 15c55 0 116-23 166-76 15 43 51 68 103 68 23 0 46-4 74-15l14-96c-18 6-32 10-50 10-24 0-38-16-34-46l79-564h-112l-39 284c-34-42-83-65-141-65-123 0-243 120-243 286 0 146 83 214 183 214zm72-400c45 0 84 24 114 71-22 150-98 227-168 227-49 0-87-39-87-119 0-118 72-179 141-179zm348 368c43 20 100 32 147 32 168 0 242-96 242-204 0-134-118-197-118-319h-107l-161 246 84 57 111-171c31 70 77 113 77 192 0 55-49 97-128 97-39 0-95-15-133-29zm0 0"/></svg>