<svg width="3025" height="1064.002" xmlns="http://www.w3.org/2000/svg"><path d="M28 780.002h10c39-276 146-465 279-465 64 0 90 50 90 93 0 91-96 155-216 155h-17l114 175c22 33 41 46 70 46 16 0 30-4 47-14l1-11c-21 12-31 16-48 16-24 0-41-11-61-41l-105-162c124 0 225-68 225-164 0-49-28-102-100-102-99 0-205 104-259 330l83-586h-10zm452 0c44-314 171-465 282-465 54 0 99 36 84 149l-32 235c-8 57 14 85 48 85 15 0 25-3 42-10l1-9c-17 7-30 10-42 10-25 0-47-19-39-76l32-234c16-114-29-159-93-159-98 0-209 107-263 332l46-328h-10l-66 470zm675 4c146 0 236-131 236-267 22 4 48 6 79 6l1-9c-32 0-59-2-80-6-2-43-11-86-24-119-44 0-72 25-72 55 0 26 21 56 86 71 0 132-83 260-226 260-97 0-176-83-176-202 0-143 92-261 264-261l1-10c-182 0-275 125-275 271 0 119 79 211 186 211zm150-340c0-25 22-45 55-45 10 24 19 67 21 107-59-14-76-40-76-62zm224 215c0 81 33 125 91 125 99 0 157-114 185-248l-7 95c-5 64 13 153 102 153 102 0 187-155 212-369 22 4 49 7 82 7l2-9c-34 0-61-3-83-7 4-38 6-79 6-120-63 0-93 23-93 59 0 28 21 54 76 68-23 206-105 362-202 362-79 0-96-80-92-144l23-321h-10l-7 99c-13 180-75 366-194 366-48 0-81-35-81-116v-349h-10zm580-364c0 37-2 74-6 109-48-12-67-35-67-59 0-31 27-50 73-50zm571 15h-10l-21 147c-29-75-84-151-182-151-122 0-237 117-237 275 0 146 88 203 172 203 92 0 187-73 231-210l-20 142c-6 43 9 68 41 68 11 0 26-3 42-10l1-9c-17 7-33 10-42 10-25 0-38-21-32-59zm-440 271c0-158 115-266 227-266 98 0 150 80 179 162-27 197-141 298-244 298-84 0-162-61-162-194zm626-531h-10l-92 654c-8 56 4 80 39 80 14 0 23-2 42-10l1-10c-19 8-31 11-42 11-29 0-37-20-30-71zm150 0h-10l-92 654c-8 56 4 80 39 80 14 0 23-2 42-10l1-10c-19 8-31 11-42 11-29 0-37-20-30-71zm0 0"/></svg>