<svg width="1724" height="1064.002" xmlns="http://www.w3.org/2000/svg"><path d="M119 663.002l63-404c18-114 66-169 162-169 34 0 75 8 117 27l4-20c-43-19-83-27-121-27-103 0-163 58-183 190l-63 401c-44 0-98 9-98 65 0 34 24 60 77 60 20-32 32-63 39-105 19 3 39 9 62 17l236 88 2-20-229-85c-24-9-47-15-68-18zm-23 15c-7 35-17 63-33 88-25-1-43-17-43-41 0-31 23-48 63-48 4 0 8 1 13 1zm561 108c80 0 169-57 219-171l-14 92c-6 49 13 78 50 78 13 0 28-4 45-11l2-19c-17 7-33 10-44 10-23 0-37-19-31-57l56-398h-21l-19 134c-31-72-85-140-178-140-123 0-238 118-238 277 0 146 87 205 173 205zm66-462c91 0 142 71 172 151-27 192-137 291-236 291-80 0-153-58-153-186 0-154 109-256 217-256zm325-14v348c0 82 35 128 96 128 84 0 142-85 176-202l-4 43c-5 68 16 159 106 159 106 0 191-152 215-358 23 4 51 6 84 6l3-19c-34 0-62-2-85-6 4-39 6-81 5-123-78 0-109 27-109 64 0 30 22 59 82 74-22 195-102 342-193 342-74 0-92-75-87-138l23-318h-21l-7 98c-13 179-75 358-186 358-47 0-77-34-77-109v-347zm575-6c0 34-1 68-4 101-47-12-64-33-64-56 0-36 39-45 68-45zm0 0"/></svg>