<svg width="2513" height="1064.002" xmlns="http://www.w3.org/2000/svg"><path d="M22 780.002h112c42-302 123-381 180-381 35 0 48 29 42 74l-44 307h112l3-20c43-286 122-361 173-361 36 0 48 29 42 74l-24 167c-14 104 28 151 105 151 24 0 49-4 77-12l14-95c-21 6-33 9-51 9-27 0-39-14-34-47l26-185c15-106-28-166-112-166-59 0-118 27-172 93-12-75-68-93-113-93-60 0-118 25-168 93l11-78H88zm1009 15c55 0 116-23 166-76 15 43 51 68 103 68 23 0 46-4 74-15l14-96c-17 6-32 10-50 10-24 0-38-16-33-46l45-330h-111l-7 50c-34-42-83-65-141-65-123 0-243 120-243 286 0 146 83 214 183 214zm72-400c45 0 84 24 114 71-22 150-98 227-168 227-49 0-87-39-87-119 0-118 72-179 141-179zm438 385c42-302 131-381 188-381 36 0 57 29 51 74l-25 178c-13 93 31 144 107 144 26 0 46-5 74-16l14-95c-17 5-32 9-49 9-22 0-39-12-34-46l24-178c16-115-39-174-126-174-59 0-118 28-169 99l12-84h-112l-66 470zm452 109c0 82 65 140 168 140 118 0 225-74 250-251l66-468h-113l-6 47c-12 90-47 303-175 303-36 0-56-30-50-75l38-275h-112l-38 275c-9 66 8 131 71 154-51 34-99 85-99 150zm115-19c0-30 15-53 40-74 40-34 90-53 129-83 13-9 25-20 35-33l-15 109c-14 99-72 138-127 138-40 0-62-24-62-57zm0 0"/></svg>