<svg width="2382" height="1064.002" xmlns="http://www.w3.org/2000/svg"><path d="M78 780.002c46-326 148-434 229-434 50 0 74 38 66 100l-47 334h53l1-11c46-313 146-423 226-423 51 0 73 40 65 102l-34 238c-11 72 22 101 72 101 19 0 38-4 59-10l6-45c-25 7-37 9-52 9-23 0-36-14-31-50l33-239c14-96-28-152-104-152-75 0-143 50-195 150 15-112-37-150-104-150-78 0-150 54-200 185l24-175H91l-66 470zm922 10c59 0 134-30 190-107-7 66 22 103 74 103 19 0 32-4 53-13l7-46c-20 7-34 10-48 10-20 0-37-14-32-51l53-376h-55l-13 95c-33-60-87-105-166-105-125 0-241 121-241 281 0 148 86 209 178 209zm69-441c69 0 117 48 151 120-25 179-125 272-214 272-67 0-126-52-126-163 0-145 94-229 189-229zm359 431c45-318 161-434 243-434 49 0 81 37 71 112l-31 222c-10 73 28 110 77 110 20 0 31-3 53-12l6-47c-20 7-32 10-48 10-20 0-40-13-34-57l31-221c15-108-35-163-115-163-79 0-159 61-212 200l26-190h-54l-66 470zm459 130c0 68 51 114 142 114 105 0 221-69 246-246l66-468h-55l-9 64c-16 120-62 326-220 326-56 0-87-44-78-107l40-283h-55l-38 277c-10 73 18 141 97 154-64 32-136 92-136 169zm55-6c0-38 20-67 49-91 58-51 131-69 185-113 25-22 49-52 70-102l-26 181c-20 146-115 198-191 198-60 0-87-33-87-73zm0 0"/></svg>