<svg width="2684" height="1064.002" xmlns="http://www.w3.org/2000/svg"><path d="M60 780.002c47-330 153-447 245-447 53 0 83 37 73 107l-48 340h35l1-9c46-315 151-438 240-438 54 0 81 42 72 110l-37 259c-8 57 18 84 60 84 17 0 34-4 54-10l4-31c-23 9-38 11-50 11-23 0-38-15-33-51l37-259c13-91-28-144-99-144-83 0-158 68-210 203l8-60c14-101-32-143-99-143-87 0-168 75-219 242l33-234H92l-66 470zm851-470h-36l-53 385c-9 62 16 93 59 93 18 0 28-4 48-12l4-30c-18 7-31 10-45 10-25 0-37-16-31-59zm-8-83c19 0 32-15 32-33 0-14-10-25-25-25-19 0-33 14-33 33 0 14 11 25 26 25zm118 553c45-316 165-447 259-447 51 0 89 37 77 128l-31 227c-9 66 22 100 64 100 18 0 29-4 48-12l5-30c-19 7-32 10-46 10-22 0-43-16-36-66l32-226c15-111-33-162-106-162-87 0-181 81-234 257l35-249h-36l-66 470zm902-470h-34c-45 316-163 447-264 447-58 0-84-42-75-109l47-338h-35l-47 335c-13 89 27 143 102 143 91 0 187-81 240-258l-25 170c-7 53 19 83 60 83 16 0 33-4 53-13l4-30c-18 7-35 11-49 11-24 0-37-17-32-53zm133 32l-46 327c-11 78 22 119 85 119 27 0 52-7 82-24l5-32c-27 16-55 24-83 24-42 0-62-29-53-87l46-327h144l4-32h-144l18-124h-36l-17 124h-61l-5 32zm588 80c0-67-54-120-142-120-132 0-247 124-247 272 0 149 95 214 210 214 45 0 88-10 138-30l5-36c-55 25-98 34-142 34-92 0-166-49-173-168 246-2 351-71 351-166zm-37 2c0 74-91 131-315 134 6-125 103-224 209-224 66 0 106 38 106 90zm0 0"/></svg>