<svg width="2292" height="1064.002" xmlns="http://www.w3.org/2000/svg"><path d="M23 780.002h78c46-320 141-416 210-416 46 0 61 38 54 90l-46 326h78l2-15c47-310 140-401 208-401 46 0 61 38 54 90l-30 211c-14 92 28 123 90 123 20 0 41-3 64-8l10-67c-27 7-36 9-54 9-26 0-36-13-31-49l30-212c15-103-28-165-111-165-72 0-135 37-185 114-3-88-54-114-111-114-67 0-127 28-177 110l13-96H89zm803-206c0 121 77 220 212 220 146 0 251-116 261-259 19 3 41 5 64 5l11-73c-42 0-64-1-82-5-12-36-32-67-40-80-55 0-83 26-83 56 0 23 16 49 48 68v13c0 109-76 203-179 203-82 0-129-71-129-156 0-109 80-204 193-204l10-76c-179 0-286 138-286 288zm640 93l57-226c6-22 10-41 14-59h143l-41 288c-12 81 36 124 93 124 23 0 35-4 59-14l10-68c-22 7-34 10-52 10-17 0-36-10-31-47l52-365h-224c1-17 2-34 2-54-15-5-31-8-47-8-59 0-79 33-79 60 0 21 13 47 42 62l-71 279zm781-241c0-68-54-130-153-130-147 0-259 128-259 279 0 144 109 219 234 219 56 0 96-12 145-33l11-76c-59 26-95 37-155 37-73 0-131-39-148-112 240-6 325-88 325-184zm-85 7c0 47-55 104-243 110 11-96 84-175 172-175 46 0 71 30 71 65zm0 0"/></svg>