<svg width="2205" height="1064.002" xmlns="http://www.w3.org/2000/svg"><path d="M22 780.002h112c42-302 123-381 180-381 35 0 48 29 42 74l-44 307h112l3-20c43-286 122-361 173-361 36 0 48 29 42 74l-24 167c-14 104 28 151 105 151 24 0 49-4 77-12l14-95c-21 6-33 9-51 9-27 0-39-14-34-47l26-185c15-106-28-166-112-166-59 0-118 27-172 93-12-75-68-93-113-93-60 0-118 25-168 93l11-78H88zm985 15c60 0 118-25 176-96 11 62 62 88 110 88 21 0 43-4 71-15l14-96c-18 6-33 10-51 10-24 0-37-18-33-46l46-330h-110c-43 302-132 381-189 381-36 0-56-29-50-74l43-307H922l-42 300c-17 119 41 185 127 185zm419-32c43 20 100 32 147 32 168 0 242-96 242-204 0-134-118-197-118-319h-107l-161 246 84 57 111-171c31 70 77 113 77 192 0 55-49 97-128 97-39 0-95-15-133-29zm525-355l-33 233c-14 104 44 154 133 154 34 0 59-8 90-23l14-98c-24 11-53 19-81 19-29 0-49-15-42-62l31-223h129l13-98h-128l16-116h-112l-16 116h-78l-14 98zm0 0"/></svg>