<svg width="2058" height="1064.002" xmlns="http://www.w3.org/2000/svg"><path d="M78 780.002c46-326 148-434 229-434 50 0 74 38 66 100l-47 334h53l1-11c46-313 146-423 226-423 51 0 73 40 65 102l-34 238c-11 72 22 101 72 101 19 0 38-4 59-10l6-45c-25 7-37 9-52 9-23 0-36-14-31-50l33-239c14-96-28-152-104-152-75 0-143 50-195 150 15-112-37-150-104-150-78 0-150 54-200 185l24-175H91l-66 470zm877 10c82 0 165-62 218-203l1 1-15 100c-9 64 27 96 73 96 17 0 35-4 57-13l6-46c-19 7-34 10-50 10-21 0-36-14-31-50l53-375h-53c-45 318-159 434-245 434-53 0-79-40-70-101l46-333h-54l-46 328c-14 95 31 152 110 152zm377-39c42 22 102 39 161 39 159 0 232-92 232-192 0-138-131-188-131-328h-53l-173 265 42 27 144-221c28 108 115 156 115 262 0 81-68 138-176 138-54 0-114-21-154-39zm526-391l-43 305c-12 82 28 125 96 125 27 0 52-6 82-23l7-47c-25 13-53 22-83 22-36 0-55-25-48-77l43-305h139l7-50h-139l17-123h-54l-18 123h-64l-7 50zm0 0"/></svg>