<svg width="2392" height="1064.002" xmlns="http://www.w3.org/2000/svg"><path d="M50 780.002c45-315 169-457 272-457 53 0 95 36 81 140l-32 231c-8 61 18 92 56 92 16 0 26-3 44-11l3-19c-18 7-31 10-44 10-24 0-45-17-38-71l32-230c16-113-30-161-98-161-94 0-197 95-250 299l41-293H95l-66 470zm866-360c0-66-54-116-139-116-128 0-244 123-244 269 0 151 90 213 203 213 42 0 85-9 135-29l3-23c-53 24-98 32-138 32-97 0-177-51-181-185 249-1 361-65 361-161zm-23 1c0 83-103 140-338 142 4-134 109-239 221-239 73 0 117 39 117 97zm479-1c0-66-54-116-139-116-128 0-244 123-244 269 0 151 90 213 203 213 42 0 85-9 135-29l3-23c-53 24-98 32-138 32-97 0-177-51-181-185 249-1 361-65 361-161zm-23 1c0 83-103 140-338 142 4-134 109-239 221-239 73 0 117 39 117 97zm271 365c81 0 169-58 219-173l-12 89c-8 55 9 83 49 83 12 0 27-4 44-11l3-19c-18 7-33 10-43 10-28 0-38-16-32-62l88-627h-21l-52 368c-31-72-85-140-178-140-123 0-238 118-238 277 0 146 87 205 173 205zm66-462c91 0 142 71 172 151-26 192-137 291-236 291-80 0-153-58-153-186 0-154 110-256 217-256zm270 421c40 21 95 41 161 41 140 0 223-75 223-182 0-138-140-176-140-330h-20l-179 260 17 12 164-240c13 129 136 179 136 299 0 99-78 161-201 161-62 0-117-20-159-40zm0 0"/></svg>