<svg width="1807" height="1064.002" xmlns="http://www.w3.org/2000/svg"><path d="M63 780.002c45-316 165-447 259-447 51 0 89 37 77 128l-31 227c-9 66 22 100 64 100 18 0 29-4 48-12l5-30c-19 7-32 10-46 10-22 0-43-16-36-66l32-226c15-111-33-162-106-162-87 0-181 81-234 257l35-249H94l-66 470zm670 8c133 0 236-110 244-252 22 2 46 4 73 4l4-32c-30 0-55-1-76-4-2-40-13-85-27-122-67 0-106 27-107 66 0 34 30 65 98 81-5 128-95 227-209 227-92 0-159-79-159-186 0-130 88-240 238-240l5-34c-181 0-280 130-280 277 0 120 79 215 196 215zm143-341c0-19 18-36 49-36 7 21 14 54 16 87-52-13-65-34-65-51zm244-137v346c0 84 37 132 102 132 70 0 127-60 164-159-3 73 23 159 112 159 109 0 195-149 219-345 24 3 52 5 85 5l5-31c-35 0-63-2-87-5 4-41 5-83 3-126-97 0-128 33-128 71 0 31 22 63 88 79-21 183-97 320-181 320-69 0-86-71-81-133l22-313h-34l-7 97c-12 176-75 349-176 349-44 0-72-34-72-101v-345zm569 4c1 31 0 62-3 92-44-12-59-31-59-51 0-23 22-41 62-41zm0 0"/></svg>