<svg width="1933" height="1064.002" xmlns="http://www.w3.org/2000/svg"><path d="M134 780.002c42-302 131-381 188-381 36 0 57 29 51 74l-25 178c-13 93 31 144 107 144 26 0 46-5 74-16l14-95c-17 5-32 9-49 9-22 0-39-12-34-46l24-178c16-115-39-174-126-174-59 0-118 28-169 99l12-84H89l-66 470zm435-205c0 122 83 220 219 220 156 0 262-118 274-258 19 2 39 3 62 3l13-98c-41 0-67-2-89-6-11-29-25-55-39-76-74 0-107 33-107 71 0 25 14 52 49 73v15c0 97-67 174-157 174-71 0-110-59-110-131 0-90 64-168 156-173l15-104c-171 0-286 131-286 290zm632-265v319c0 104 51 166 135 166 57 0 108-32 149-85 23 50 65 85 126 85 124 0 224-157 241-343 21 2 43 3 67 3l14-98c-35 0-60 0-79-2-2-23-5-47-9-71-113 0-146 31-146 70 0 29 17 52 48 69-14 157-71 266-128 266-40 0-53-41-49-98l20-281h-107l-7 93c-11 162-66 286-126 286-27 0-44-23-44-62v-317zm0 0"/></svg>