<svg width="967" height="1064.002" xmlns="http://www.w3.org/2000/svg"><path d="M29 574.002c0 121 77 220 212 220 146 0 251-116 261-259 19 3 41 5 64 5l11-73c-42 0-64-1-82-5-12-36-32-67-40-80-55 0-83 26-83 56 0 23 16 49 48 68v13c0 109-76 203-179 203-82 0-129-71-129-156 0-109 80-204 193-204l10-76c-179 0-286 138-286 288zm698-264l37-260h-81l-36 260H545c21 28 52 67 86 111l-58 415c-18 129 61 192 154 192 91 0 190-79 190-226 0-113-76-242-204-387l4-32h227l11-73zm110 490c0 104-61 156-109 156-42 0-87-29-75-117l46-326c72 102 138 213 138 287zm0 0"/></svg>