<svg width="4548" height="1064.002" xmlns="http://www.w3.org/2000/svg"><path d="M29 574.002c0 121 77 220 212 220 146 0 251-116 261-259 19 3 41 5 64 5l11-73c-42 0-64-1-82-5-12-36-32-67-40-80-55 0-83 26-83 56 0 23 16 49 48 68v13c0 109-76 203-179 203-82 0-129-71-129-156 0-109 80-204 193-204l10-76c-179 0-286 138-286 288zm698-264l37-260h-81l-36 260H545c21 28 52 67 86 111l-58 415c-18 129 61 192 154 192 91 0 190-79 190-226 0-113-76-242-204-387l4-32h227l11-73zm110 490c0 104-61 156-109 156-42 0-87-29-75-117l46-326c72 102 138 213 138 287zm259-539c0-92 36-109 136-109h115l-31 220h-148l-11 76h148l-19 133c-13 92-65 137-143 137-31 0-72-8-114-25l-8 76c35 16 76 24 125 24 91 0 198-38 223-216l18-129h189l11-76h-190l31-220h189l11-76h-401c-143 0-213 55-213 185zm699-211h-80l-86 620c-11 81 36 124 93 124 23 0 35-4 59-14l10-68c-22 7-34 10-52 10-17 0-36-10-31-47zm217 744c49 0 120-18 179-83 8 49 42 76 93 76 23 0 35-4 59-14l10-68c-22 7-34 10-52 10-17 0-36-10-31-47l50-358h-80l-9 65c-35-52-90-79-157-79-127 0-243 124-243 285 0 149 85 213 181 213zm71-426c53 0 99 30 135 97-24 168-116 257-196 257-58 0-106-47-106-145 0-138 82-209 167-209zm374 15l-39 277c-12 87 37 134 112 134 28 0 53-7 83-23l10-68c-22 11-52 20-83 20-29 0-48-19-42-63l39-277h131l10-73h-131l17-120h-80l-17 120h-70l-10 73zm409-333h-80l-86 620c-11 81 36 124 93 124 23 0 35-4 59-14l10-68c-22 7-34 10-52 10-17 0-36-10-31-47zm217 744c49 0 120-18 179-83 8 49 42 76 93 76 23 0 35-4 59-14l10-68c-22 7-34 10-52 10-17 0-36-10-31-47l50-358h-80l-9 65c-35-52-90-79-157-79-127 0-243 124-243 285 0 149 85 213 181 213zm71-426c53 0 99 30 135 97-24 168-116 257-196 257-58 0-106-47-106-145 0-138 82-209 167-209zm395 412c46-320 155-416 220-416 46 0 71 38 64 90l-30 216c-11 81 36 124 93 124 23 0 35-4 59-14l10-68c-22 7-34 10-52 10-17 0-36-10-31-47l30-214c15-103-38-165-127-165-68 0-131 35-183 124l15-110h-80l-66 470zm629 14c49 0 120-18 179-83 8 49 42 76 93 76 23 0 35-4 59-14l10-68c-22 7-34 10-52 10-17 0-36-10-31-47l83-592h-80l-42 299c-35-52-90-79-157-79-127 0-243 124-243 285 0 149 85 213 181 213zm71-426c53 0 99 30 135 97-24 168-116 257-196 257-58 0-106-47-106-145 0-138 82-209 167-209zm0 0"/></svg>