<svg width="1219" height="1064.002" xmlns="http://www.w3.org/2000/svg"><path d="M24 576.002c0 124 92 220 228 220 172 0 278-120 292-257 18 1 38 2 59 2l18-133c-36 0-69-3-99-7-9-23-22-47-38-72-101 0-141 44-141 92 0 28 12 58 50 81v17c0 81-53 135-127 135-55 0-84-44-84-97 0-65 43-120 107-131l20-142c-158 0-285 122-285 292zm779 204c37-277 99-334 145-334 21 0 37 18 32 53l-18 126c-16 109 26 171 126 171 30 0 62-6 96-18l19-133c-11 4-29 9-46 9-28 0-42-16-38-45l17-128c18-132-42-187-126-187-46 0-98 17-148 65l7-49H713l-66 470zm0 0"/></svg>