<svg width="1023" height="1064.002" xmlns="http://www.w3.org/2000/svg"><path d="M223 784.002c146 0 236-131 236-267 22 4 48 6 79 6l1-9c-32 0-59-2-80-6-2-43-11-86-24-119-44 0-72 25-72 55 0 26 21 56 86 71 0 132-83 260-226 260-97 0-176-83-176-202 0-143 92-261 264-261l1-10c-182 0-275 125-275 271 0 119 79 211 186 211zm150-340c0-25 22-45 55-45 10 24 19 67 21 107-59-14-76-40-76-62zm198 336c44-314 171-465 282-465 54 0 99 36 84 149l-32 235c-8 57 14 85 48 85 15 0 25-3 42-10l1-9c-17 7-30 10-42 10-25 0-47-19-39-76l32-234c16-114-29-159-93-159-98 0-209 107-263 332l46-328h-10l-66 470zm0 0"/></svg>