<svg width="1554" height="1064.002" xmlns="http://www.w3.org/2000/svg"><path d="M235 790.002c134 0 236-105 251-240 20 2 43 3 67 3l8-49c-29 0-53-1-73-3-3-38-14-85-31-125-83 0-131 30-131 75-1 39 34 72 104 89-9 113-90 201-195 201-87 0-146-75-146-173 0-121 84-224 219-224l7-52c-180 0-282 133-282 282 0 120 77 216 202 216zm139-340c0-24 26-30 45-30 5 18 10 44 11 73-46-12-56-29-56-43zm275 330c45-318 161-434 243-434 49 0 81 37 71 112l-31 222c-10 73 28 110 77 110 20 0 31-3 53-12l6-47c-20 7-32 10-48 10-20 0-40-13-34-57l31-221c15-108-35-163-115-163-79 0-159 61-212 200l26-190h-54l-66 470zm864-357c0-67-54-123-147-123-139 0-253 125-253 274 0 147 101 216 221 216 50 0 91-10 141-31l7-53c-56 25-96 35-147 35-84 0-152-44-162-144 243-3 340-78 340-174zm-58 5c0 63-76 119-284 124 7-113 94-203 193-203 58 0 91 34 91 79zm0 0"/></svg>