<svg width="2148" height="1064.002" xmlns="http://www.w3.org/2000/svg"><path d="M226 786.002c133 0 236-113 240-260 22 3 47 5 76 5l3-20c-32 0-58-2-79-5-2-42-11-85-25-120-54 0-88 26-88 59 0 30 25 62 92 77-1 139-98 244-219 244-94 0-168-81-168-194 0-138 90-252 252-252l3-21c-182 0-277 127-277 274 0 119 79 213 190 213zm147-341c0-22 20-41 52-41 9 23 17 61 19 98-56-13-71-37-71-57zm280 341c27 0 52-7 82-24l3-21c-29 17-55 26-83 26-46 0-66-32-57-95l49-343h148l3-19H649l18-126h-21l-18 126h-58l-3 19h59l-49 343c-11 75 17 114 76 114zm177-6c45-315 169-457 268-457 53 0 100 36 87 130l-36 256c-6 46 20 77 58 77 16 0 26-3 45-11l2-19c-18 7-31 10-44 10-23 0-45-17-40-56l36-255c14-103-36-151-104-151-87 0-185 84-242 271l74-525h-22l-103 730zm866-360c0-66-54-116-139-116-128 0-244 123-244 269 0 151 90 213 203 213 42 0 85-9 135-29l3-23c-53 24-98 32-138 32-97 0-177-51-181-185 249-1 361-65 361-161zm-23 1c0 83-103 140-338 142 4-134 109-239 221-239 73 0 117 39 117 97zm112 250l86-271c34-5 78-18 145-45l52-19-51 373c-7 46 20 77 57 77 17 0 27-3 45-11l3-19c-18 7-31 10-44 10-24 0-45-17-40-56l56-404-82 32c-65 25-105 37-134 42 8-24 26-79 29-89-14-5-33-9-51-9-50 0-81 25-81 61 0 44 38 58 76 58l-85 265zm68-372c10 0 20 1 30 4-3 9-19 59-26 80-29 0-62-5-62-41-1-28 21-43 58-43zm0 0"/></svg>