<svg width="2022" height="1064.002" xmlns="http://www.w3.org/2000/svg"><path d="M235 790.002c134 0 236-105 251-240 20 2 43 3 67 3l8-49c-29 0-53-1-73-3-3-38-14-85-31-125-83 0-131 30-131 75-1 39 34 72 104 89-9 113-90 201-195 201-87 0-146-75-146-173 0-121 84-224 219-224l7-52c-180 0-282 133-282 282 0 120 77 216 202 216zm139-340c0-24 26-30 45-30 5 18 10 44 11 73-46-12-56-29-56-43zm259 194c0 91 45 146 120 146 138 0 226-155 256-328 26 4 57 6 93 6l7-47c-37 0-68-2-93-5 4-44 6-88 3-130-122 0-154 39-154 79 0 33 24 68 94 87-26 146-102 289-205 289-43 0-69-30-69-95v-336h-52zm332-238c-38-11-51-27-51-44 0-18 18-34 54-34 1 25 0 52-3 78zm577 17c0-67-54-123-147-123-139 0-253 125-253 274 0 147 101 216 221 216 50 0 91-10 141-31l7-53c-56 25-96 35-147 35-84 0-152-44-162-144 243-3 340-78 340-174zm-58 5c0 63-76 119-284 124 7-113 94-203 193-203 58 0 91 34 91 79zm203 4l-73 224 50 13 76-239c33-4 72-15 120-34l45-17-43 308c-9 66 29 103 78 103 20 0 31-3 53-12l7-47c-21 7-33 10-49 10-20 0-40-13-35-51l54-384-123 47c-37 14-67 23-92 28l33-103c-14-5-48-15-75-15-71 0-111 39-111 87 0 43 34 76 85 82zm12-129c10 0 19 1 28 3-5 14-18 55-26 81-37-2-51-18-51-43 0-29 20-41 49-41zm0 0"/></svg>