<svg width="2256" height="1064.002" xmlns="http://www.w3.org/2000/svg"><path d="M24 576.002c0 124 92 220 228 220 172 0 278-120 292-257 18 1 38 2 59 2l18-133c-36 0-69-3-99-7-9-23-22-47-38-72-101 0-141 44-141 92 0 28 12 58 50 81v17c0 81-53 135-127 135-55 0-84-44-84-97 0-65 43-120 107-131l20-142c-158 0-285 122-285 292zm632 19c0 110 43 201 173 201 151 0 236-151 264-308 25 3 51 5 78 5l18-133c-36 0-63-1-86-4-1-26-4-50-8-73-156 0-184 44-184 86 0 29 16 54 42 73-30 147-65 212-109 212-28 0-37-28-37-58v-286H656zm1028-162c0-89-70-139-178-139-179 0-284 130-284 282 0 124 86 220 242 220 77 0 133-19 170-38l20-140c-60 27-122 46-176 46-58 0-85-14-94-41 228 0 300-103 300-190zm-164 16c0 32-45 75-149 75 14-60 62-104 109-104 23 0 40 9 40 29zm362 218l57-209h83l-22 159c-15 109 35 179 135 179 27 0 52-6 86-18l19-133c-11 4-29 9-46 9-34 0-40-30-38-45l43-299h-229c2-18 2-37 2-58-39-10-64-13-86-13-95 0-132 57-132 109 0 33 13 61 40 80l-54 199zm0 0"/></svg>