<svg width="2459" height="1064.002" xmlns="http://www.w3.org/2000/svg"><path d="M0 1014.002h22l52-371c27 78 83 143 176 143 125 0 240-119 240-277 0-147-88-205-174-205-80 0-175 60-220 182l25-176H99zm315-690c79 0 153 58 153 186 0 154-110 256-219 256-89 0-142-72-171-151 26-192 137-291 237-291zm279 347l86-271c34-5 78-18 145-45l52-19-51 373c-7 46 20 77 57 77 17 0 27-3 45-11l3-19c-18 7-31 10-44 10-24 0-45-17-40-56l56-404-82 32c-65 25-105 37-134 42 8-24 26-79 29-89-14-5-33-9-51-9-50 0-81 25-81 61 0 44 38 58 76 58l-85 265zm68-372c10 0 20 1 30 4-3 9-19 59-26 80-29 0-62-5-62-41-1-28 21-43 58-43zm518 487c133 0 236-113 240-260 22 3 47 5 76 5l3-20c-32 0-58-2-79-5-2-42-11-85-25-120-54 0-88 26-88 59 0 30 25 62 92 77-1 139-98 244-219 244-94 0-168-81-168-194 0-138 90-252 252-252l3-21c-182 0-277 127-277 274 0 119 79 213 190 213zm147-341c0-22 20-41 52-41 9 23 17 61 19 98-56-13-71-37-71-57zm234 211c0 85 34 130 101 130 126 0 226-158 256-359 23 5 52 7 86 7l3-19c-35 0-64-2-87-7 5-39 8-80 7-122-78 0-108 27-108 64 0 29 21 58 79 73-28 189-123 343-236 343-52 0-81-37-81-110v-346h-20zm340-252c-45-12-62-33-62-55 0-27 24-46 68-46 0 34-2 68-6 101zm521 16c0-66-54-116-139-116-128 0-244 123-244 269 0 151 90 213 203 213 42 0 85-9 135-29l3-23c-53 24-98 32-138 32-97 0-177-51-181-185 249-1 361-65 361-161zm-23 1c0 83-103 140-338 142 4-134 109-239 221-239 73 0 117 39 117 97zm0 0"/></svg>