<svg width="1843" height="1064.002" xmlns="http://www.w3.org/2000/svg"><path d="M211 784.002c84 0 186-69 230-206l-61 436h9l100-704h-10l-21 146c-21-77-83-150-180-150-124 0-239 117-239 275 0 146 88 203 172 203zm67-469c96 0 160 80 178 162-27 197-142 298-245 298-84 0-162-61-162-194 0-158 115-266 229-266zm692-5h-10c-44 314-168 465-289 465-64 0-92-44-81-120l48-345h-10l-48 344c-11 81 20 130 91 130 104 0 216-106 269-331l-38 262c-6 41 8 65 41 65 14 0 31-4 48-11l1-9c-16 7-35 11-48 11-27 0-37-21-32-56zm150 0h-10l-56 399c-7 52 5 75 40 75 15 0 25-3 42-10l1-9c-17 7-30 10-42 10-29 0-37-19-31-66zm4-85c9 0 16-7 16-16 0-7-5-12-12-12-9 0-16 7-16 16 0 7 5 12 12 12zm143 559c26 0 51-6 81-24l2-11c-30 18-56 26-83 26-49 0-69-34-59-101l50-355h152l1-9h-152l18-127h-10l-18 127h-56l-1 9h56l-50 355c-11 73 13 110 69 110zm540-365c0-66-54-113-136-113-124 0-241 122-241 267 0 152 87 211 197 211 39 0 83-8 133-28l2-12c-52 23-99 31-135 31-102 0-186-54-187-199 251-1 367-61 367-157zm-10 0c0 90-113 147-357 148 3-141 114-252 231-252 78 0 126 42 126 104zm0 0"/></svg>