<svg width="2210" height="1064.002" xmlns="http://www.w3.org/2000/svg"><path d="M212 795.002c57 0 112-29 154-74l-41 293h111l100-704H424l-6 47c-35-40-84-62-141-62-123 0-243 120-243 286 0 146 84 214 178 214zm77-400c44 0 84 24 113 71-21 150-97 227-167 227-49 0-87-39-87-119 0-118 72-179 141-179zm458 400c60 0 118-25 176-96 11 62 62 88 110 88 21 0 43-4 71-15l14-96c-18 6-33 10-51 10-24 0-37-18-33-46l46-330H970c-43 302-132 381-189 381-36 0-56-29-50-74l43-307H662l-42 300c-17 119 41 185 127 185zm588-485h-112l-45 325c-16 113 44 160 115 160 25 0 40-5 67-15l13-94c-22 6-31 9-50 9-20 0-40-11-34-54zm-49-72c44 0 78-36 78-80 0-35-25-61-65-61-44 0-78 34-78 79 0 35 25 62 65 62zm192 170l-33 233c-14 104 44 154 133 154 34 0 59-8 90-23l14-98c-24 11-53 19-81 19-29 0-49-15-42-62l31-223h129l13-98h-128l16-116h-112l-16 116h-78l-14 98zm697 21c0-77-61-134-164-134-161 0-269 129-269 280 0 136 99 220 237 220 65 0 112-15 156-35l14-103c-59 26-106 40-164 40-66 0-111-28-125-82 235-3 315-94 315-186zm-119 11c0 40-50 91-203 95 12-81 75-145 145-145 37 0 58 21 58 50zm0 0"/></svg>