<svg width="1940" height="1064.002" xmlns="http://www.w3.org/2000/svg"><path d="M175 667.002l57-209h83l-22 159c-15 109 35 179 135 179 27 0 52-6 86-18l19-133c-11 4-29 9-46 9-34 0-40-30-38-45l43-299H263c2-18 2-37 2-58-39-10-64-13-86-13-95 0-132 57-132 109 0 33 13 61 40 80l-54 199zm870-234c0-89-70-139-178-139-179 0-284 130-284 282 0 124 86 220 242 220 77 0 133-19 170-38l20-140c-60 27-122 46-176 46-58 0-85-14-94-41 228 0 300-103 300-190zm-164 16c0 32-45 75-149 75 14-60 62-104 109-104 23 0 40 9 40 29zm315 125l85-122c23 45 47 82 47 138 0 36-32 64-87 64-28 0-72-5-111-17l-19 138c43 15 92 21 130 21 160 0 246-83 246-208 0-127-111-198-111-308h-145l-150 214zm443-131l-24 172c-18 128 53 181 161 181 42 0 67-8 99-22l19-139c-26 11-54 16-77 16-29 0-50-9-43-59l21-149h125l19-133h-125l15-110h-156l-15 110h-89l-19 133zm0 0"/></svg>