<svg width="4818" height="1064.002" xmlns="http://www.w3.org/2000/svg"><path d="M32 134.002c37-5 74-10 112-13l-93 659h57l44-310c20 0 39-1 57-3l102 217c37 78 76 106 124 106 24 0 39-4 59-14l6-47c-19 6-31 12-51 12-28 0-57-14-84-70l-101-212c153-30 233-118 233-217 0-104-80-176-253-176-59 0-142 7-206 17zm212-18c134 0 196 53 196 128 0 99-91 171-280 175l42-302c14-1 28-1 42-1zm720 307c0-67-54-123-147-123-139 0-253 125-253 274 0 147 101 216 221 216 50 0 91-10 141-31l7-53c-56 25-96 35-147 35-84 0-152-44-162-144 243-3 340-78 340-174zm-58 5c0 63-76 119-284 124 7-113 94-203 193-203 58 0 91 34 91 79zm163 216c0 91 45 146 120 146 138 0 226-155 256-328 26 4 57 6 93 6l7-47c-37 0-68-2-93-5 4-44 6-88 3-130-122 0-154 39-154 79 0 33 24 68 94 87-26 146-102 289-205 289-43 0-69-30-69-95v-336h-52zm332-238c-38-11-51-27-51-44 0-18 18-34 54-34 1 25 0 52-3 78zm377 384c134 0 236-105 251-240 20 2 43 3 67 3l8-49c-29 0-53-1-73-3-3-38-14-85-31-125-83 0-131 30-131 75-1 39 34 72 104 89-9 113-90 201-195 201-87 0-146-75-146-173 0-121 84-224 219-224l7-52c-180 0-282 133-282 282 0 120 77 216 202 216zm139-340c0-24 26-30 45-30 5 18 10 44 11 73-46-12-56-29-56-43zm372-400h-54l-89 632c-10 72 25 108 74 108 19 0 30-3 52-12l7-47c-21 7-33 10-48 10-22 0-37-13-31-55zm167 740c82 0 165-62 218-203l1 1-15 100c-9 64 27 96 73 96 17 0 35-4 57-13l6-46c-19 7-34 10-50 10-21 0-36-14-31-50l53-375h-53c-45 318-159 434-245 434-53 0-79-40-70-101l46-333h-54l-46 328c-14 95 31 152 110 152zm447-430l-43 305c-12 82 28 125 96 125 27 0 52-6 82-23l7-47c-25 13-53 22-83 22-36 0-55-25-48-77l43-305h139l7-50h-139l17-123h-54l-18 123h-64l-7 50zm331-50h-54l-52 374c-10 71 24 106 73 106 20 0 32-3 53-12l7-47c-20 7-33 10-49 10-21 0-36-13-31-54zm-16-82c25 0 44-20 44-45 0-20-14-34-36-34-25 0-44 19-44 44 0 20 14 35 36 35zm288 562c134 0 236-105 251-240 20 2 43 3 67 3l8-49c-29 0-53-1-73-3-3-38-14-85-31-125-83 0-131 30-131 75-1 39 34 72 104 89-9 113-90 201-195 201-87 0-146-75-146-173 0-121 84-224 219-224l7-52c-180 0-282 133-282 282 0 120 77 216 202 216zm139-340c0-24 26-30 45-30 5 18 10 44 11 73-46-12-56-29-56-43zm275 330c45-318 161-434 243-434 49 0 81 37 71 112l-31 222c-10 73 28 110 77 110 20 0 31-3 53-12l6-47c-20 7-32 10-48 10-20 0-40-13-34-57l31-221c15-108-35-163-115-163-79 0-159 61-212 200l26-190h-54l-66 470zm455-29c42 22 102 39 161 39 159 0 232-92 232-192 0-138-131-188-131-328h-53l-173 265 42 27 144-221c28 108 115 156 115 262 0 81-68 138-176 138-54 0-114-21-154-39zm0 0"/></svg>