<svg width="1458" height="1064.002" xmlns="http://www.w3.org/2000/svg"><path d="M2 743.002c40 21 93 41 161 41 134 0 220-68 220-178 0-138-143-172-143-330h-8l-181 258 8 6 172-247c5 137 142 187 142 313 0 105-81 169-210 169-65 0-118-19-160-41zm923-433h-10l-21 147c-29-75-84-151-182-151-122 0-237 117-237 275 0 146 88 203 172 203 92 0 187-73 231-210l-20 142c-6 43 9 68 41 68 11 0 26-3 42-10l1-9c-17 7-33 10-42 10-25 0-38-21-32-59zm-440 271c0-158 115-266 227-266 98 0 150 80 179 162-27 197-141 298-244 298-84 0-162-61-162-194zm622 437c96 0 216-61 241-238l66-470h-10l-9 60c-20 139-81 354-256 354-72 0-114-55-102-137l39-277h-10l-39 276c-11 83 30 147 112 147 14 0 32-3 46-7-77 33-203 99-203 198 0 56 42 94 125 94zm-115-94c0-40 21-71 48-98 76-77 179-91 241-153 36-36 71-91 99-191l-42 298c-25 177-145 229-231 229-83 0-115-39-115-85zm0 0"/></svg>