<svg width="1503" height="1064.002" xmlns="http://www.w3.org/2000/svg"><path d="M128 574.002l85-122c23 45 47 82 47 138 0 36-32 64-87 64-28 0-72-5-111-17l-19 138c43 15 92 21 130 21 160 0 246-83 246-208 0-127-111-198-111-308H163l-150 214zm833-141c0-89-70-139-178-139-179 0-284 130-284 282 0 124 86 220 242 220 77 0 133-19 170-38l20-140c-60 27-122 46-176 46-58 0-85-14-94-41 228 0 300-103 300-190zm-164 16c0 32-45 75-149 75 14-60 62-104 109-104 23 0 40 9 40 29zm683-16c0-89-70-139-178-139-179 0-284 130-284 282 0 124 86 220 242 220 77 0 133-19 170-38l20-140c-60 27-122 46-176 46-58 0-85-14-94-41 228 0 300-103 300-190zm-164 16c0 32-45 75-149 75 14-60 62-104 109-104 23 0 40 9 40 29zm0 0"/></svg>