<svg width="1452" height="1064.002" xmlns="http://www.w3.org/2000/svg"><path d="M20 755.002c43 23 106 39 160 39 174 0 239-106 239-200 0-139-124-197-124-328h-79l-169 270 62 39 131-209c31 93 97 139 97 235 0 68-61 120-157 120-48 0-112-22-150-37zm895-329c0-68-54-130-153-130-147 0-259 128-259 279 0 144 109 219 234 219 56 0 96-12 145-33l11-76c-59 26-95 37-155 37-73 0-131-39-148-112 240-6 325-88 325-184zm-85 7c0 47-55 104-243 110 11-96 84-175 172-175 46 0 71 30 71 65zm577-7c0-68-54-130-153-130-147 0-259 128-259 279 0 144 109 219 234 219 56 0 96-12 145-33l11-76c-59 26-95 37-155 37-73 0-131-39-148-112 240-6 325-88 325-184zm-85 7c0 47-55 104-243 110 11-96 84-175 172-175 46 0 71 30 71 65zm0 0"/></svg>