<svg width="2580" height="1064.002" xmlns="http://www.w3.org/2000/svg"><path d="M9 747.002c41 22 97 41 160 41 149 0 227-82 227-186 0-139-136-182-136-330h-34l-176 263 27 18 155-230c23 118 128 167 128 281 0 92-74 151-191 151-59 0-116-20-156-39zm565-437h-36l-53 385c-9 62 16 93 59 93 18 0 28-4 48-12l4-30c-18 7-31 10-45 10-25 0-37-16-31-59zm-8-83c19 0 32-15 32-33 0-14-10-25-25-25-19 0-33 14-33 33 0 14 11 25 26 25zm115 553c47-330 153-447 245-447 53 0 83 37 73 107l-48 340h35l1-9c46-315 151-438 240-438 54 0 81 42 72 110l-37 259c-8 57 18 84 60 84 17 0 34-4 54-10l4-31c-23 9-38 11-50 11-23 0-38-15-33-51l37-259c13-91-28-144-99-144-83 0-158 68-210 203l8-60c14-101-32-143-99-143-87 0-168 75-219 242l33-234h-35l-66 470zm718 234h36l49-352c29 74 87 126 172 126 125 0 241-120 241-279 0-147-87-207-175-207-74 0-160 49-208 150l20-142h-35zm319-680c74 0 141 56 141 176 0 151-103 246-206 246-80 0-131-62-162-139 26-186 132-283 227-283zm392-284h-36l-90 642c-9 64 16 96 59 96 17 0 27-3 48-12l5-31c-20 7-33 11-46 11-25 0-37-17-31-63zm430 372c0-67-54-120-142-120-132 0-247 124-247 272 0 149 95 214 210 214 45 0 88-10 138-30l5-36c-55 25-98 34-142 34-92 0-166-49-173-168 246-2 351-71 351-166zm-37 2c0 74-91 131-315 134 6-125 103-224 209-224 66 0 106 38 106 90zm0 0"/></svg>