<svg width="4296" height="1064.002" xmlns="http://www.w3.org/2000/svg"><path d="M461 245.002c0-108-68-177-179-177-115 0-197 81-197 176 0 213 303 146 303 350 0 113-94 161-182 161-56 0-121-20-188-70l-5 37c67 46 127 66 193 66 110 0 217-64 217-196 0-229-303-164-303-349 0-76 68-142 161-142 87 0 144 53 144 144zm16 769h36l49-352c29 74 87 126 172 126 125 0 241-120 241-279 0-147-87-207-175-207-74 0-160 49-208 150l20-142h-35zm319-680c74 0 141 56 141 176 0 151-103 246-206 246-80 0-131-62-162-139 26-186 132-283 227-283zm443 454c71 0 152-43 206-140l-7 48c-7 57 16 89 60 89 16 0 30-4 49-11l4-31c-19 7-33 10-46 10-22 0-37-17-31-54l54-389h-35l-17 117c-31-67-86-125-173-125-124 0-239 120-239 279 0 147 87 207 175 207zm68-454c81 0 131 62 162 139-26 186-132 283-226 283-75 0-142-56-142-177 0-150 103-245 206-245zm685 376c-69 34-123 46-176 46-99 0-169-68-169-185 0-130 93-237 211-237 79 0 139 51 134 160h36c7-119-57-192-166-192-143 0-252 123-252 272 0 135 89 214 206 214 47 0 108-9 170-42zm491-288c0-67-54-120-142-120-132 0-247 124-247 272 0 149 95 214 210 214 45 0 88-10 138-30l5-36c-55 25-98 34-142 34-92 0-166-49-173-168 246-2 351-71 351-166zm-37 2c0 74-91 131-315 134 6-125 103-224 209-224 66 0 106 38 106 90zm239-374h-36l-90 642c-9 64 16 96 59 96 17 0 27-3 48-12l5-31c-20 7-33 11-46 11-25 0-37-17-31-63zm218 738c71 0 152-43 206-140l-7 48c-7 57 16 89 60 89 16 0 30-4 49-11l4-31c-19 7-33 10-46 10-22 0-37-17-31-54l54-389h-35l-17 117c-31-67-86-125-173-125-124 0-239 120-239 279 0 147 87 207 175 207zm68-454c81 0 131 62 162 139-26 186-132 283-226 283-75 0-142-56-142-177 0-150 103-245 206-245zm333 446c45-316 165-447 259-447 51 0 89 37 77 128l-31 227c-9 66 22 100 64 100 18 0 29-4 48-12l5-30c-19 7-32 10-46 10-22 0-43-16-36-66l32-226c15-111-33-162-106-162-87 0-181 81-234 257l35-249h-36l-66 470zm651 8c71 0 153-44 207-141l-7 44c-8 62 14 94 60 94 15 0 29-4 48-11l4-31c-19 7-33 10-45 10-25 0-37-15-31-59l86-618h-35l-50 351c-31-67-86-125-173-125-124 0-239 120-239 279 0 147 87 207 175 207zm68-454c81 0 131 62 163 139-26 186-132 283-227 283-74 0-142-56-142-177 0-150 103-245 206-245zm0 0"/></svg>