<svg width="5535" height="1064.002" xmlns="http://www.w3.org/2000/svg"><path d="M455 246.002c0-110-67-176-176-176-114 0-192 78-192 169 0 205 305 148 305 357 0 123-101 170-190 170-55 0-119-21-185-72l-3 22c66 48 126 70 188 70 104 0 212-57 212-190 0-225-306-169-306-358 0-79 69-148 171-148 95 0 154 56 154 156zm15 768h22l52-371c27 78 83 143 176 143 125 0 240-119 240-277 0-147-88-205-174-205-80 0-175 60-220 182l25-176h-22zm315-690c79 0 153 58 153 186 0 154-110 256-219 256-89 0-142-72-171-151 26-192 137-291 237-291zm439 462c80 0 169-57 219-171l-14 92c-6 49 13 78 50 78 13 0 28-4 45-11l2-19c-17 7-33 10-44 10-23 0-37-19-31-57l56-398h-21l-19 134c-31-72-85-140-178-140-123 0-238 118-238 277 0 146 87 205 173 205zm66-462c91 0 142 71 172 151-27 192-137 291-236 291-80 0-153-58-153-186 0-154 109-256 217-256zm675 399c-68 33-124 43-173 43-108 0-178-72-178-194 0-137 100-248 225-248 87 0 145 58 143 166h22c3-115-60-186-163-186-139 0-249 121-249 269 0 133 81 213 200 213 43 0 106-9 170-41zm486-303c0-66-54-116-139-116-128 0-244 123-244 269 0 151 90 213 203 213 42 0 85-9 135-29l3-23c-53 24-98 32-138 32-97 0-177-51-181-185 249-1 361-65 361-161zm-23 1c0 83-103 140-338 142 4-134 109-239 221-239 73 0 117 39 117 97zm210-371h-21l-91 648c-9 60 9 88 48 88 15 0 25-3 44-11l3-19c-20 7-32 10-44 10-27 0-37-18-30-67zm219 736c80 0 169-57 219-171l-14 92c-6 49 13 78 50 78 13 0 28-4 45-11l2-19c-17 7-33 10-44 10-23 0-37-19-31-57l56-398h-21l-19 134c-31-72-85-140-178-140-123 0-238 118-238 277 0 146 87 205 173 205zm66-462c91 0 142 71 172 151-27 192-137 291-236 291-80 0-153-58-153-186 0-154 109-256 217-256zm313 456c45-315 169-457 272-457 53 0 95 36 81 140l-32 231c-8 61 18 92 56 92 16 0 26-3 44-11l3-19c-18 7-31 10-44 10-24 0-45-17-38-71l32-230c16-113-30-161-98-161-94 0-197 95-250 299l41-293h-22l-66 470zm658 6c81 0 169-58 219-173l-12 89c-8 55 9 83 49 83 12 0 27-4 44-11l3-19c-18 7-33 10-43 10-28 0-38-16-32-62l88-627h-21l-52 368c-31-72-85-140-178-140-123 0-238 118-238 277 0 146 87 205 173 205zm66-462c91 0 142 71 172 151-26 192-137 291-236 291-80 0-153-58-153-186 0-154 110-256 217-256zm682 96c0-66-54-116-139-116-128 0-244 123-244 269 0 151 90 213 203 213 42 0 85-9 135-29l3-23c-53 24-98 32-138 32-97 0-177-51-181-185 249-1 361-65 361-161zm-23 1c0 83-103 140-338 142 4-134 109-239 221-239 73 0 117 39 117 97zm112 250l86-271c34-5 78-18 145-45l52-19-51 373c-7 46 20 77 57 77 17 0 27-3 45-11l3-19c-18 7-31 10-44 10-24 0-45-17-40-56l56-404-82 32c-65 25-105 37-134 42 8-24 26-79 29-89-14-5-33-9-51-9-50 0-81 25-81 61 0 44 38 58 76 58l-85 265zm68-372c10 0 20 1 30 4-3 9-19 59-26 80-29 0-62-5-62-41-1-28 21-43 58-43zm300 446c40 21 95 41 161 41 140 0 223-75 223-182 0-138-140-176-140-330h-20l-179 260 17 12 164-240c13 129 136 179 136 299 0 99-78 161-201 161-62 0-117-20-159-40zm0 0"/></svg>