<svg width="3614" height="1064.002" xmlns="http://www.w3.org/2000/svg"><path d="M5 745.002c40 21 95 41 161 41 140 0 223-75 223-182 0-138-140-176-140-330h-20l-179 260 17 12 164-240c13 129 136 179 136 299 0 99-78 161-201 161-62 0-117-20-159-40zm430 269h22l52-371c27 78 83 143 176 143 125 0 240-119 240-277 0-147-88-205-174-205-80 0-175 60-220 182l25-176h-22zm315-690c79 0 153 58 153 186 0 154-110 256-219 256-89 0-142-72-171-151 26-192 137-291 237-291zm646 96c0-66-54-116-139-116-128 0-244 123-244 269 0 151 90 213 203 213 42 0 85-9 135-29l3-23c-53 24-98 32-138 32-97 0-177-51-181-185 249-1 361-65 361-161zm-23 1c0 83-103 140-338 142 4-134 109-239 221-239 73 0 117 39 117 97zm272 365c80 0 169-57 219-171l-14 92c-6 49 13 78 50 78 13 0 28-4 45-11l2-19c-17 7-33 10-44 10-23 0-37-19-31-57l56-398h-21l-19 134c-31-72-85-140-178-140-123 0-238 118-238 277 0 146 87 205 173 205zm66-462c91 0 142 71 172 151-27 192-137 291-236 291-80 0-153-58-153-186 0-154 109-256 217-256zm290 456h21c38-271 143-457 269-457 60 0 86 46 86 88 0 87-91 148-209 148h-17l102 172c22 41 44 55 76 55 17 0 33-4 52-15l3-20c-23 12-35 16-52 16-24 0-40-12-58-42l-94-151c128-4 219-73 219-165 0-52-32-105-106-105-92 0-191 93-246 297l78-551h-21zm534-470h-21l-55 393c-8 56 10 83 48 83 17 0 27-3 45-11l3-19c-18 7-31 10-44 10-27 0-37-17-31-63zm-1-84c13 0 23-11 23-24 0-10-7-17-18-17-13 0-23 10-23 23 0 10 7 18 18 18zm97 554c45-315 169-457 272-457 53 0 95 36 81 140l-32 231c-8 61 18 92 56 92 16 0 26-3 44-11l3-19c-18 7-31 10-44 10-24 0-45-17-38-71l32-230c16-113-30-161-98-161-94 0-197 95-250 299l41-293h-22l-66 470zm623 240c105 0 227-73 252-251l65-459h-21l-19 133c-31-84-97-139-181-139-128 0-229 114-229 253 0 119 62 184 160 184 4 0 9 0 15-1-71 24-197 77-197 168 0 57 49 112 155 112zm-110-464c0-130 90-233 207-233 81 0 143 54 175 150-11 87-38 143-77 181-40 39-100 68-166 68-86 0-139-59-139-166zm10 280c88-86 224-89 306-169 21-21 41-53 51-82l-25 182c-22 158-133 233-232 233-90 0-133-47-133-95 0-26 11-48 33-69zm0 0"/></svg>