<svg width="5012" height="1064.002" xmlns="http://www.w3.org/2000/svg"><path d="M30 763.002c43 20 100 32 147 32 168 0 242-96 242-204 0-134-118-197-118-319H194l-161 246 84 57 111-171c31 70 77 113 77 192 0 55-49 97-128 97-39 0-95-15-133-29zm611 32c60 0 118-25 176-96 11 62 62 88 110 88 21 0 43-4 71-15l14-96c-18 6-33 10-51 10-24 0-37-18-33-46l46-330H864c-43 302-132 381-189 381-36 0-56-29-50-74l43-307H556l-42 300c-17 119 41 185 127 185zm378 219h112l39-281c35 40 84 62 141 62 123 0 243-120 243-286 0-147-84-214-178-214-57 0-113 29-155 75l8-60h-111zm167-390c21-150 97-227 167-227 49 0 87 39 87 119 0 118-72 179-140 179-45 0-85-24-114-71zm533 43l62-238c1-5 3-10 4-15h116l-33 234c-13 92 36 147 111 147 25 0 42-5 71-16l13-95c-17 5-31 9-49 9-24 0-38-18-34-46l48-337h-226c1-17 2-35 2-55-25-8-45-11-64-11-74 0-101 43-101 81 0 27 13 52 41 69l-63 246zm810-238c0-77-61-134-164-134-161 0-269 129-269 280 0 136 99 220 237 220 65 0 112-15 156-35l14-103c-59 26-106 40-164 40-66 0-111-28-125-82 235-3 315-94 315-186zm-119 11c0 40-50 91-203 95 12-81 75-145 145-145 37 0 58 21 58 50zm176 340h112c42-302 123-381 180-381 35 0 48 29 42 74l-44 307h112l3-20c43-286 122-361 173-361 36 0 48 29 42 74l-24 167c-14 104 28 151 105 151 24 0 49-4 77-12l14-95c-21 6-33 9-51 9-27 0-39-14-34-47l26-185c15-106-28-166-112-166-59 0-118 27-172 93-12-75-68-93-113-93-60 0-118 25-168 93l11-78h-113zm1009 15c55 0 116-23 166-76 15 43 51 68 103 68 23 0 46-4 74-15l14-96c-17 6-32 10-50 10-24 0-38-16-33-46l45-330h-111l-7 50c-34-42-83-65-141-65-123 0-243 120-243 286 0 146 83 214 183 214zm72-400c45 0 84 24 114 71-22 150-98 227-168 227-49 0-87-39-87-119 0-118 72-179 141-179zm737 248c-61 30-119 50-185 50-65 0-124-41-124-130 0-90 61-166 137-166 47 0 94 30 85 117h115c10-139-60-219-189-219-158 0-262 129-262 280 0 136 104 220 234 220 72 0 124-17 173-46zm88 246c0 82 65 140 168 140 118 0 225-74 250-251l66-468h-113l-6 47c-12 90-47 303-175 303-36 0-56-30-50-75l38-275h-112l-38 275c-9 66 8 131 71 154-51 34-99 85-99 150zm115-19c0-30 15-53 40-74 40-34 90-53 129-83 13-9 25-20 35-33l-15 109c-14 99-72 138-127 138-40 0-62-24-62-57zm0 0"/></svg>