<svg width="4547" height="1064.002" xmlns="http://www.w3.org/2000/svg"><path d="M92 383.002l-39 277c-12 87 37 134 112 134 28 0 53-7 83-23l10-68c-22 11-52 20-83 20-29 0-48-19-42-63l39-277h131l10-73H182l17-120h-80l-17 120H32l-10 73zm638 43c0-68-54-130-153-130-147 0-259 128-259 279 0 144 109 219 234 219 56 0 96-12 145-33l11-76c-59 26-95 37-155 37-73 0-131-39-148-112 240-6 325-88 325-184zm-85 7c0 47-55 104-243 110 11-96 84-175 172-175 46 0 71 30 71 65zm233 347c46-320 155-416 220-416 46 0 71 38 64 90l-30 216c-11 81 36 124 93 124 23 0 35-4 59-14l10-68c-22 7-34 10-52 10-17 0-36-10-31-47l30-214c15-103-38-165-127-165-68 0-131 35-183 124l15-110h-80l-66 470zm629 14c49 0 120-18 179-83 8 49 42 76 93 76 23 0 35-4 59-14l10-68c-22 7-34 10-52 10-17 0-36-10-31-47l83-592h-80l-42 299c-35-52-90-79-157-79-127 0-243 124-243 285 0 149 85 213 181 213zm71-426c53 0 99 30 135 97-24 168-116 257-196 257-58 0-106-47-106-145 0-138 82-209 167-209zm736 58c0-68-54-130-153-130-147 0-259 128-259 279 0 144 109 219 234 219 56 0 96-12 145-33l11-76c-59 26-95 37-155 37-73 0-131-39-148-112 240-6 325-88 325-184zm-85 7c0 47-55 104-243 110 11-96 84-175 172-175 46 0 71 30 71 65zm233 347c46-320 155-416 220-416 46 0 71 38 64 90l-30 216c-11 81 36 124 93 124 23 0 35-4 59-14l10-68c-22 7-34 10-52 10-17 0-36-10-31-47l30-214c15-103-38-165-127-165-68 0-131 35-183 124l15-110h-80l-66 470zm859-109c-70 37-120 51-183 51-72 0-142-54-142-155 0-107 73-199 168-199 53 0 121 29 105 140h82c19-131-52-212-176-212-155 0-262 128-262 279 0 144 113 219 224 219 60 0 112-9 173-44zm234-361h-80l-50 360c-11 81 36 124 93 124 23 0 35-4 59-14l10-68c-22 7-34 10-52 10-17 0-36-10-31-47zm-27-80c34 0 60-28 60-62 0-27-19-47-50-47-34 0-61 26-61 61 0 27 20 48 51 48zm506 196c0-68-54-130-153-130-147 0-259 128-259 279 0 144 109 219 234 219 56 0 96-12 145-33l11-76c-59 26-95 37-155 37-73 0-131-39-148-112 240-6 325-88 325-184zm-85 7c0 47-55 104-243 110 11-96 84-175 172-175 46 0 71 30 71 65zm150 322c43 23 106 39 160 39 174 0 239-106 239-200 0-139-124-197-124-328h-79l-169 270 62 39 131-209c31 93 97 139 97 235 0 68-61 120-157 120-48 0-112-22-150-37zm0 0"/></svg>