<svg width="4250" height="1064.002" xmlns="http://www.w3.org/2000/svg"><path d="M102 784.002c26 0 51-6 81-24l2-11c-30 18-56 26-83 26-49 0-69-34-59-101l50-355h152l1-9H94l18-127h-10l-18 127H28l-1 9h56l-50 355c-11 73 13 110 69 110zm165-4c44-314 171-465 277-465 54 0 105 36 91 137l-37 265c-5 39 17 67 51 67 15 0 25-3 42-10l1-9c-17 7-30 10-42 10-25 0-47-19-42-58l37-264c14-102-36-147-100-147-94 0-205 106-258 331l83-587h-10l-103 730zm942-470h-10l-21 147c-29-75-84-151-182-151-122 0-237 117-237 275 0 146 88 203 172 203 92 0 187-73 231-210l-20 142c-6 43 9 68 41 68 11 0 26-3 42-10l1-9c-17 7-33 10-42 10-25 0-38-21-32-59zm-440 271c0-158 115-266 227-266 98 0 150 80 179 162-27 197-141 298-244 298-84 0-162-61-162-194zm587 203c26 0 51-6 81-24l2-11c-30 18-56 26-83 26-49 0-69-34-59-101l50-355h152l1-9h-152l18-127h-10l-18 127h-56l-1 9h56l-50 355c-11 73 13 110 69 110zm199-4l13-91c68-474 254-608 385-608 115 0 141 83 126 190l-62 434c-8 54 19 79 56 79 18 0 36-6 58-16l1-10c-25 13-45 17-59 17-31 0-53-20-46-70l62-433c17-117-21-200-136-200-122 0-278 107-361 442l49-348c7-48-3-90-53-90-19 0-41 7-59 19l-2 11c22-15 41-21 61-21 38 0 49 33 43 80l-86 615zm1079-470h-10l-21 147c-29-75-84-151-182-151-122 0-237 117-237 275 0 146 88 203 172 203 92 0 187-73 231-210l-20 142c-6 43 9 68 41 68 11 0 26-3 42-10l1-9c-17 7-33 10-42 10-25 0-38-21-32-59zm-440 271c0-158 115-266 227-266 98 0 150 80 179 162-27 197-141 298-244 298-84 0-162-61-162-194zm587 203c26 0 51-6 81-24l2-11c-30 18-56 26-83 26-49 0-69-34-59-101l50-355h152l1-9h-152l18-127h-10l-18 127h-56l-1 9h56l-50 355c-11 73 13 110 69 110zm564-474h-10c-44 314-168 465-289 465-64 0-92-44-81-120l48-345h-10l-48 344c-11 81 20 130 91 130 104 0 216-106 269-331l-38 262c-6 41 8 65 41 65 14 0 31-4 48-11l1-9c-16 7-35 11-48 11-27 0-37-21-32-56zm91 362l91-283c32-4 77-19 152-48l55-20-55 396c-5 39 17 67 51 67 15 0 25-3 42-10l1-9c-17 7-30 10-42 10-25 0-47-19-42-58l57-411-68 26c-76 30-117 43-148 48 6-20 25-77 27-84-14-5-28-7-42-7-43 0-71 20-71 52 0 43 39 49 73 49l-90 279zm18-331c0-27 22-43 62-43 10 0 20 1 30 4-3 8-20 63-26 79-30 0-66-1-66-40zm760 78c0-66-54-113-136-113-124 0-241 122-241 267 0 152 87 211 197 211 39 0 83-8 133-28l2-12c-52 23-99 31-135 31-102 0-186-54-187-199 251-1 367-61 367-157zm-10 0c0 90-113 147-357 148 3-141 114-252 231-252 78 0 126 42 126 104zm0 0"/></svg>