<svg width="4434" height="1064.002" xmlns="http://www.w3.org/2000/svg"><path d="M86 342.002l-46 327c-11 78 22 119 85 119 27 0 52-7 82-24l5-32c-27 16-55 24-83 24-42 0-62-29-53-87l46-327h144l4-32H126l18-124h-36l-17 124H30l-5 32zm231 438c45-316 166-447 257-447 51 0 92 37 81 120l-35 247c-7 54 24 88 67 88 18 0 28-4 48-12l4-30c-19 7-31 10-46 10-22 0-43-16-38-54l35-246c14-102-37-154-110-154-82 0-168 68-226 224l67-476h-35l-103 730zm652 8c71 0 152-43 206-140l-7 48c-7 57 16 89 60 89 16 0 30-4 49-11l4-31c-19 7-33 10-46 10-22 0-37-17-31-54l54-389h-35l-17 117c-31-67-86-125-173-125-124 0-239 120-239 279 0 147 87 207 175 207zm68-454c81 0 131 62 162 139-26 186-132 283-226 283-75 0-142-56-142-177 0-150 103-245 206-245zm352 8l-46 327c-11 78 22 119 85 119 27 0 52-7 82-24l5-32c-27 16-55 24-83 24-42 0-62-29-53-87l46-327h144l4-32h-144l18-124h-36l-17 124h-61l-5 32zm268 438l16-115c62-432 233-563 357-563 99 0 129 73 115 175l-59 412c-9 65 29 99 76 99 20 0 39-6 61-16l4-32c-22 10-42 15-59 15-29 0-52-17-45-64l59-412c16-117-25-211-150-211-108 0-244 87-325 354l34-245c9-62-16-106-69-106-24 0-45 7-65 18l-4 32c20-11 39-18 59-18 34 0 49 26 43 71l-85 606zm797 8c71 0 152-43 206-140l-7 48c-7 57 16 89 60 89 16 0 30-4 49-11l4-31c-19 7-33 10-46 10-22 0-37-17-31-54l54-389h-35l-17 117c-31-67-86-125-173-125-124 0-239 120-239 279 0 147 87 207 175 207zm68-454c81 0 131 62 162 139-26 186-132 283-226 283-75 0-142-56-142-177 0-150 103-245 206-245zm352 8l-46 327c-11 78 22 119 85 119 27 0 52-7 82-24l5-32c-27 16-55 24-83 24-42 0-62-29-53-87l46-327h144l4-32h-144l18-124h-36l-17 124h-61l-5 32zm625-32h-34c-45 316-163 447-264 447-58 0-84-42-75-109l47-338h-35l-47 335c-13 89 27 143 102 143 91 0 187-81 240-258l-25 170c-7 53 19 83 60 83 16 0 33-4 53-13l4-30c-18 7-35 11-49 11-24 0-37-17-32-53zm83 36c0 39 31 66 80 68l-80 248 32 8 83-258c33-5 76-17 134-39l48-19-47 346c-8 54 24 88 66 88 18 0 29-4 48-12l5-30c-19 7-32 10-46 10-22 0-43-16-38-54l55-396-99 38c-52 20-89 31-116 36 10-30 26-82 31-94-15-5-40-12-62-12-59 0-94 31-94 72zm32-3c0-33 27-42 55-42 9 0 19 1 28 4-3 11-18 56-25 79-40 0-58-15-58-41zm780 79c0-67-54-120-142-120-132 0-247 124-247 272 0 149 95 214 210 214 45 0 88-10 138-30l5-36c-55 25-98 34-142 34-92 0-166-49-173-168 246-2 351-71 351-166zm-37 2c0 74-91 131-315 134 6-125 103-224 209-224 66 0 106 38 106 90zm0 0"/></svg>