<svg width="4723" height="1064.002" xmlns="http://www.w3.org/2000/svg"><path d="M92 383.002l-39 277c-12 87 37 134 112 134 28 0 53-7 83-23l10-68c-22 11-52 20-83 20-29 0-48-19-42-63l39-277h131l10-73H182l17-120h-80l-17 120H32l-10 73zm235 397h78c46-320 155-416 220-416 46 0 71 38 64 90l-30 216c-11 81 36 124 93 124 23 0 35-4 59-14l10-68c-22 7-34 10-52 10-17 0-36-10-31-47l30-214c15-103-38-165-127-165-68 0-131 35-183 124l52-370h-80zm709 14c49 0 120-18 179-83 8 49 42 76 93 76 23 0 35-4 59-14l10-68c-22 7-34 10-52 10-17 0-36-10-31-47l50-358h-80l-9 65c-35-52-90-79-157-79-127 0-243 124-243 285 0 149 85 213 181 213zm71-426c53 0 99 30 135 97-24 168-116 257-196 257-58 0-106-47-106-145 0-138 82-209 167-209zm374 15l-39 277c-12 87 37 134 112 134 28 0 53-7 83-23l10-68c-22 11-52 20-83 20-29 0-48-19-42-63l39-277h131l10-73h-131l17-120h-80l-17 120h-70l-10 73zm354 397l22-158c50-357 195-484 308-484 72 0 108 57 95 150l-52 372c-12 87 45 134 109 134 25 0 45-6 67-16l9-69c-15 5-37 12-58 12-27 0-50-12-44-54l53-377c16-115-30-228-173-228-84 0-185 51-263 200l9-66c12-87-41-134-98-134-34 0-51 6-75 18l-9 67c17-6 36-12 57-12 27 0 48 13 42 55l-83 590zm791 14c49 0 120-18 179-83 8 49 42 76 93 76 23 0 35-4 59-14l10-68c-22 7-34 10-52 10-17 0-36-10-31-47l50-358h-80l-9 65c-35-52-90-79-157-79-127 0-243 124-243 285 0 149 85 213 181 213zm71-426c53 0 99 30 135 97-24 168-116 257-196 257-58 0-106-47-106-145 0-138 82-209 167-209zm374 15l-39 277c-12 87 37 134 112 134 28 0 53-7 83-23l10-68c-22 11-52 20-83 20-29 0-48-19-42-63l39-277h131l10-73h-131l17-120h-80l-17 120h-70l-10 73zm379 411c70 0 136-37 189-129h1l-1 7c-11 77 38 115 90 115 20 0 39-4 63-14l10-68c-22 7-34 10-52 10-17 0-35-10-30-47l50-358h-78c-46 320-154 416-220 416-46 0-71-38-64-90l46-326h-80l-45 319c-15 103 38 165 121 165zm447-127l57-226c6-22 10-41 14-59h143l-41 288c-12 81 36 124 93 124 23 0 35-4 59-14l10-68c-22 7-34 10-52 10-17 0-36-10-31-47l52-365h-224c1-17 2-34 2-54-15-5-31-8-47-8-59 0-79 33-79 60 0 21 13 47 42 62l-71 279zm781-241c0-68-54-130-153-130-147 0-259 128-259 279 0 144 109 219 234 219 56 0 96-12 145-33l11-76c-59 26-95 37-155 37-73 0-131-39-148-112 240-6 325-88 325-184zm-85 7c0 47-55 104-243 110 11-96 84-175 172-175 46 0 71 30 71 65zm0 0"/></svg>