<svg width="1192" height="1064.002" xmlns="http://www.w3.org/2000/svg"><path d="M112 786.002c27 0 52-7 82-24l3-21c-29 17-55 26-83 26-46 0-66-32-57-95l49-343h148l3-19H108l18-126h-21l-18 126H29l-3 19h59l-49 343c-11 75 17 114 76 114zm177-6c45-315 169-457 268-457 53 0 100 36 87 130l-36 256c-6 46 20 77 58 77 16 0 26-3 45-11l2-19c-18 7-31 10-44 10-23 0-45-17-40-56l36-255c14-103-36-151-104-151-87 0-185 84-242 271l74-525h-22l-103 730zm866-360c0-66-54-116-139-116-128 0-244 123-244 269 0 151 90 213 203 213 42 0 85-9 135-29l3-23c-53 24-98 32-138 32-97 0-177-51-181-185 249-1 361-65 361-161zm-23 1c0 83-103 140-338 142 4-134 109-239 221-239 73 0 117 39 117 97zm0 0"/></svg>