<svg width="2118" height="1064.002" xmlns="http://www.w3.org/2000/svg"><path d="M98 408.002l-33 233c-14 104 44 154 133 154 34 0 59-8 90-23l14-98c-24 11-53 19-81 19-29 0-49-15-42-62l31-223h129l13-98H224l16-116H128l-16 116H34l-14 98zm271 372h111c42-302 132-381 189-381 35 0 56 29 50 74l-24 169c-14 102 36 153 111 153 21 0 42-5 70-16l14-95c-18 5-32 9-50 9-24 0-38-18-34-46l25-178c16-115-40-174-127-174-57 0-116 26-167 93l47-338H472zm981-351c0-77-61-134-164-134-161 0-269 129-269 280 0 136 99 220 237 220 65 0 112-15 156-35l14-103c-59 26-106 40-164 40-66 0-111-28-125-82 235-3 315-94 315-186zm-119 11c0 40-50 91-203 95 12-81 75-145 145-145 37 0 58 21 58 50zm353-130h-112l-45 325c-16 113 44 160 115 160 25 0 40-5 67-15l13-94c-22 6-31 9-50 9-20 0-40-11-34-54zm-49-72c44 0 78-36 78-80 0-35-25-61-65-61-44 0-78 34-78 79 0 35 25 62 65 62zm221 429l62-238c1-5 3-10 4-15h116l-33 234c-13 92 36 147 111 147 25 0 42-5 71-16l13-95c-17 5-31 9-49 9-24 0-38-18-34-46l48-337h-226c1-17 2-35 2-55-25-8-45-11-64-11-74 0-101 43-101 81 0 27 13 52 41 69l-63 246zm0 0"/></svg>