<svg width="4524" height="1064.002" xmlns="http://www.w3.org/2000/svg"><path d="M86 342.002l-46 327c-11 78 22 119 85 119 27 0 52-7 82-24l5-32c-27 16-55 24-83 24-42 0-62-29-53-87l46-327h144l4-32H126l18-124h-36l-17 124H30l-5 32zm231 438c45-316 166-447 257-447 51 0 92 37 81 120l-35 247c-7 54 24 88 67 88 18 0 28-4 48-12l4-30c-19 7-31 10-46 10-22 0-43-16-38-54l35-246c14-102-37-154-110-154-82 0-168 68-226 224l67-476h-35l-103 730zm864-358c0-67-54-120-142-120-132 0-247 124-247 272 0 149 95 214 210 214 45 0 88-10 138-30l5-36c-55 25-98 34-142 34-92 0-166-49-173-168 246-2 351-71 351-166zm-37 2c0 74-91 131-315 134 6-125 103-224 209-224 66 0 106 38 106 90zm137 356c47-330 153-447 245-447 53 0 83 37 73 107l-48 340h35l1-9c46-315 151-438 240-438 54 0 81 42 72 110l-37 259c-8 57 18 84 60 84 17 0 34-4 54-10l4-31c-23 9-38 11-50 11-23 0-38-15-33-51l37-259c13-91-28-144-99-144-83 0-158 68-210 203l8-60c14-101-32-143-99-143-87 0-168 75-219 242l33-234h-35l-66 470zm734-33c41 22 97 41 160 41 149 0 227-82 227-186 0-139-136-182-136-330h-34l-176 263 27 18 155-230c23 118 128 167 128 281 0 92-74 151-191 151-59 0-116-20-156-39zm864-325c0-67-54-120-142-120-132 0-247 124-247 272 0 149 95 214 210 214 45 0 88-10 138-30l5-36c-55 25-98 34-142 34-92 0-166-49-173-168 246-2 351-71 351-166zm-37 2c0 74-91 131-315 134 6-125 103-224 209-224 66 0 106 38 106 90zm239-374h-36l-90 642c-9 64 16 96 59 96 17 0 27-3 48-12l5-31c-20 7-33 11-46 11-25 0-37-17-31-63zm74 601c0 87 39 137 109 137 132 0 226-158 256-346 25 4 54 6 89 6l5-31c-36 0-66-2-90-6 5-41 7-83 6-125-97 0-128 32-128 71 0 30 23 61 85 78-26 170-113 321-222 321-49 0-76-35-76-105v-341h-34zm337-246c-43-12-58-30-58-50 0-23 22-41 62-41 1 30-1 61-4 91zm544 17c0-67-54-120-142-120-132 0-247 124-247 272 0 149 95 214 210 214 45 0 88-10 138-30l5-36c-55 25-98 34-142 34-92 0-166-49-173-168 246-2 351-71 351-166zm-37 2c0 74-91 131-315 134 6-125 103-224 209-224 66 0 106 38 106 90zm86 323c41 22 97 41 160 41 149 0 227-82 227-186 0-139-136-182-136-330h-34l-176 263 27 18 155-230c23 118 128 167 128 281 0 92-74 151-191 151-59 0-116-20-156-39zm0 0"/></svg>