<svg width="2362" height="1064.002" xmlns="http://www.w3.org/2000/svg"><path d="M106 443.002l-24 172c-18 128 53 181 161 181 42 0 67-8 99-22l19-139c-26 11-54 16-77 16-29 0-50-9-43-59l21-149h125l19-133H281l15-110H140l-15 110H36l-19 133zm321 337h156c37-277 99-334 145-334 21 0 37 18 32 53l-15 104c-19 131 35 193 134 193 19 0 51-6 85-18l19-133c-11 4-29 9-46 9-34 0-40-29-38-45l17-128c18-132-42-187-126-187-46 0-98 17-148 65l44-309H530zm1057-347c0-89-70-139-178-139-179 0-284 130-284 282 0 124 86 220 242 220 77 0 133-19 170-38l20-140c-60 27-122 46-176 46-58 0-85-14-94-41 228 0 300-103 300-190zm-164 16c0 32-45 75-149 75 14-60 62-104 109-104 23 0 40 9 40 29zm207 331h159c37-277 99-334 139-334 21 0 30 18 25 53l-40 281h158l4-28c37-253 97-306 126-306 21 0 29 18 24 53l-14 108c-16 119 27 189 125 189 28 0 60-6 94-18l19-133c-11 4-29 9-46 9-28 0-42-16-38-45l21-149c15-109-29-166-115-166-40 0-96 11-159 66-22-57-80-66-110-66-50 0-105 20-155 69l8-53h-158zm0 0"/></svg>