<svg width="4959" height="1064.002" xmlns="http://www.w3.org/2000/svg"><path d="M98 408.002l-33 233c-14 104 44 154 133 154 34 0 59-8 90-23l14-98c-24 11-53 19-81 19-29 0-49-15-42-62l31-223h129l13-98H224l16-116H128l-16 116H34l-14 98zm271 372h111c42-302 132-381 189-381 35 0 56 29 50 74l-24 169c-14 102 36 153 111 153 21 0 42-5 70-16l14-95c-18 5-32 9-50 9-24 0-38-18-34-46l25-178c16-115-40-174-127-174-57 0-116 26-167 93l47-338H472zm981-351c0-77-61-134-164-134-161 0-269 129-269 280 0 136 99 220 237 220 65 0 112-15 156-35l14-103c-59 26-106 40-164 40-66 0-111-28-125-82 235-3 315-94 315-186zm-119 11c0 40-50 91-203 95 12-81 75-145 145-145 37 0 58 21 58 50zm176 340h112c42-302 123-381 180-381 35 0 48 29 42 74l-44 307h112l3-20c43-286 122-361 173-361 36 0 48 29 42 74l-24 167c-14 104 28 151 105 151 24 0 49-4 77-12l14-95c-21 6-33 9-51 9-27 0-39-14-34-47l26-185c15-106-28-166-112-166-59 0-118 27-172 93-12-75-68-93-113-93-60 0-118 25-168 93l11-78h-113zm841-17c43 20 100 32 147 32 168 0 242-96 242-204 0-134-118-197-118-319h-107l-161 246 84 57 111-171c31 70 77 113 77 192 0 55-49 97-128 97-39 0-95-15-133-29zm905-334c0-77-61-134-164-134-161 0-269 129-269 280 0 136 99 220 237 220 65 0 112-15 156-35l14-103c-59 26-106 40-164 40-66 0-111-28-125-82 235-3 315-94 315-186zm-119 11c0 40-50 91-203 95 12-81 75-145 145-145 37 0 58 21 58 50zm381-390h-114l-83 586c-14 97 28 159 110 159 25 0 40-3 71-15l14-97c-18 6-32 9-50 9-22 0-37-14-33-46zm59 569c0 100 48 176 151 176 159 0 244-176 266-346 27 4 57 6 89 6l14-98c-43 0-75-1-98-3 0-24-2-47-5-69-113 0-146 30-145 69 0 26 15 47 42 64-19 142-73 275-156 275-33 0-50-26-50-73v-310h-108zm983-190c0-77-61-134-164-134-161 0-269 129-269 280 0 136 99 220 237 220 65 0 112-15 156-35l14-103c-59 26-106 40-164 40-66 0-111-28-125-82 235-3 315-94 315-186zm-119 11c0 40-50 91-203 95 12-81 75-145 145-145 37 0 58 21 58 50zm184 323c43 20 100 32 147 32 168 0 242-96 242-204 0-134-118-197-118-319h-107l-161 246 84 57 111-171c31 70 77 113 77 192 0 55-49 97-128 97-39 0-95-15-133-29zm0 0"/></svg>