<svg width="2460" height="1064.002" xmlns="http://www.w3.org/2000/svg"><path d="M98 408.002l-33 233c-14 104 44 154 133 154 34 0 59-8 90-23l14-98c-24 11-53 19-81 19-29 0-49-15-42-62l31-223h129l13-98H224l16-116H128l-16 116H34l-14 98zm271 372h111c42-302 132-381 189-381 35 0 56 29 50 74l-24 169c-14 102 36 153 111 153 21 0 42-5 70-16l14-95c-18 5-32 9-50 9-24 0-38-18-34-46l25-178c16-115-40-174-127-174-57 0-116 26-167 93l47-338H472zm540-205c0 122 83 220 219 220 156 0 262-118 274-258 19 2 39 3 62 3l13-98c-41 0-67-2-89-6-11-29-25-55-39-76-74 0-107 33-107 71 0 25 14 52 49 73v15c0 97-67 174-157 174-71 0-110-59-110-131 0-90 64-168 156-173l15-104c-171 0-286 131-286 290zm611 188c43 20 100 32 147 32 168 0 242-96 242-204 0-134-118-197-118-319h-107l-161 246 84 57 111-171c31 70 77 113 77 192 0 55-49 97-128 97-39 0-95-15-133-29zm905-334c0-77-61-134-164-134-161 0-269 129-269 280 0 136 99 220 237 220 65 0 112-15 156-35l14-103c-59 26-106 40-164 40-66 0-111-28-125-82 235-3 315-94 315-186zm-119 11c0 40-50 91-203 95 12-81 75-145 145-145 37 0 58 21 58 50zm0 0"/></svg>