<svg width="1773" height="1064.002" xmlns="http://www.w3.org/2000/svg"><path d="M89 360.002l-43 305c-12 82 28 125 96 125 27 0 52-6 82-23l7-47c-25 13-53 22-83 22-36 0-55-25-48-77l43-305h139l7-50H150l17-123h-54l-18 123H31l-7 50zm266 420c45-318 161-434 240-434 49 0 84 37 74 107l-32 234c-9 66 29 103 77 103 21 0 32-3 53-12l7-47c-20 7-33 10-48 10-20 0-41-13-35-51l32-232c15-103-37-158-117-158-75 0-150 51-207 173l60-423h-54l-103 730zm598 10c82 0 165-62 218-203l1 1-15 100c-9 64 27 96 73 96 17 0 35-4 57-13l6-46c-19 7-34 10-50 10-21 0-36-14-31-50l53-375h-53c-45 318-159 434-245 434-53 0-79-40-70-101l46-333h-54l-46 328c-14 95 31 152 110 152zm377-39c42 22 102 39 161 39 159 0 232-92 232-192 0-138-131-188-131-328h-53l-173 265 42 27 144-221c28 108 115 156 115 262 0 81-68 138-176 138-54 0-114-21-154-39zm0 0"/></svg>