<svg width="1932" height="1064.002" xmlns="http://www.w3.org/2000/svg"><path d="M98 408.002l-33 233c-14 104 44 154 133 154 34 0 59-8 90-23l14-98c-24 11-53 19-81 19-29 0-49-15-42-62l31-223h129l13-98H224l16-116H128l-16 116H34l-14 98zm271 372h111c42-302 132-381 189-381 35 0 56 29 50 74l-24 169c-14 102 36 153 111 153 21 0 42-5 70-16l14-95c-18 5-32 9-50 9-24 0-38-18-34-46l25-178c16-115-40-174-127-174-57 0-116 26-167 93l47-338H472zm707 15c60 0 118-25 176-96 11 62 62 88 110 88 21 0 43-4 71-15l14-96c-18 6-33 10-51 10-24 0-37-18-33-46l46-330h-110c-43 302-132 381-189 381-36 0-56-29-50-74l43-307H991l-42 300c-17 119 41 185 127 185zm419-32c43 20 100 32 147 32 168 0 242-96 242-204 0-134-118-197-118-319h-107l-161 246 84 57 111-171c31 70 77 113 77 192 0 55-49 97-128 97-39 0-95-15-133-29zm0 0"/></svg>