<svg width="1219" height="1064.002" xmlns="http://www.w3.org/2000/svg"><path d="M62 310.002v343c0 86 41 137 111 137 59 0 114-41 156-129 6 67 40 129 118 129 112 0 199-142 223-327 25 3 54 5 87 5l8-47c-36 0-65-2-90-4 4-43 4-86 0-131-122 0-154 40-154 79 0 34 23 70 98 89-20 166-92 287-166 287-61 0-78-63-74-123l22-308h-52l-7 96c-12 173-74 335-163 335-41 0-65-33-65-90v-341zm562 19c1 27 1 53-1 78-40-11-53-28-54-45 0-27 35-33 55-33zm554 94c0-67-54-123-147-123-139 0-253 125-253 274 0 147 101 216 221 216 50 0 91-10 141-31l7-53c-56 25-96 35-147 35-84 0-152-44-162-144 243-3 340-78 340-174zm-58 5c0 63-76 119-284 124 7-113 94-203 193-203 58 0 91 34 91 79zm0 0"/></svg>