<svg width="2630" height="1064.002" xmlns="http://www.w3.org/2000/svg"><path d="M51 310.002v319c0 104 51 166 135 166 57 0 108-32 149-85 23 50 65 85 126 85 124 0 224-157 241-343 21 2 43 3 67 3l14-98c-35 0-60 0-79-2-2-23-5-47-9-71-113 0-146 31-146 70 0 29 17 52 48 69-14 157-71 266-128 266-40 0-53-41-49-98l20-281H333l-7 93c-11 162-66 286-126 286-27 0-44-23-44-62v-317zm740 470h111c42-302 132-381 189-381 35 0 56 29 50 74l-24 169c-14 102 36 153 111 153 21 0 42-5 70-16l14-95c-18 5-32 9-50 9-24 0-38-18-34-46l25-178c16-115-40-174-127-174-57 0-116 26-167 93l47-338H894zm732-470h-112l-45 325c-16 113 44 160 115 160 25 0 40-5 67-15l13-94c-22 6-31 9-50 9-20 0-40-11-34-54zm-49-72c44 0 78-36 78-80 0-35-25-61-65-61-44 0-78 34-78 79 0 35 25 62 65 62zm537 405c-61 30-119 50-185 50-65 0-124-41-124-130 0-90 61-166 137-166 47 0 94 30 85 117h115c10-139-60-219-189-219-158 0-262 129-262 280 0 136 104 220 234 220 72 0 124-17 173-46zm86 137h111c42-302 132-381 189-381 35 0 56 29 50 74l-24 169c-14 102 36 153 111 153 21 0 42-5 70-16l14-95c-18 5-32 9-50 9-24 0-38-18-34-46l25-178c16-115-40-174-127-174-57 0-116 26-167 93l47-338h-112zm0 0"/></svg>