<svg width="2723" height="1064.002" xmlns="http://www.w3.org/2000/svg"><path d="M43 217.002c17-4 34-7 48-7 28 0 48 12 48 56v314c0 136 71 216 178 216 68 0 132-31 184-102 32 66 86 102 155 102 201 0 345-188 383-720H867c-29 418-110 563-195 563-35 0-68-42-45-203l50-360H509l-40 286c-28 205-76 277-126 277-19 0-39-12-39-62v-327c0-125-53-189-153-189-22 0-53 4-88 16zm1021 563h156c37-277 99-334 145-334 21 0 37 18 32 53l-15 104c-19 131 35 193 134 193 19 0 51-6 85-18l19-133c-11 4-29 9-46 9-34 0-40-29-38-45l17-128c18-132-42-187-126-187-46 0-98 17-148 65l44-309h-156zm802-470h-156l-39 278c-22 155 56 208 145 208 27 0 48-5 77-16l19-129c-22 4-28 6-47 6-25 0-46-12-39-62zm-79-61c57 0 101-47 101-104 0-46-33-81-85-81-57 0-102 46-102 103 0 46 33 82 86 82zm405-199h-161l-79 540c-17 119 18 206 135 206 26 0 46-2 86-17l19-136c-11 4-29 8-46 8-29 0-39-19-35-44zm508 383c0-89-70-139-178-139-179 0-284 130-284 282 0 124 86 220 242 220 77 0 133-19 170-38l20-140c-60 27-122 46-176 46-58 0-85-14-94-41 228 0 300-103 300-190zm-164 16c0 32-45 75-149 75 14-60 62-104 109-104 23 0 40 9 40 29zm0 0"/></svg>