<svg width="2349" height="1064.002" xmlns="http://www.w3.org/2000/svg"><path d="M66 659.002c0 81 33 125 91 125 99 0 157-114 185-248l-7 95c-5 64 13 153 102 153 102 0 187-155 212-369 22 4 49 7 82 7l2-9c-34 0-61-3-83-7 4-38 6-79 6-120-63 0-93 23-93 59 0 28 21 54 76 68-23 206-105 362-202 362-79 0-96-80-92-144l23-321h-10l-7 99c-13 180-75 366-194 366-48 0-81-35-81-116v-349H66zm580-364c0 37-2 74-6 109-48-12-67-35-67-59 0-31 27-50 73-50zm120 485c44-314 171-465 277-465 54 0 105 36 91 137l-37 265c-5 39 17 67 51 67 15 0 25-3 42-10l1-9c-17 7-30 10-42 10-25 0-47-19-42-58l37-264c14-102-36-147-100-147-94 0-205 106-258 331l83-587h-10l-103 730zm676 4c146 0 236-131 236-267 22 4 48 6 79 6l1-9c-32 0-59-2-80-6-2-43-11-86-24-119-44 0-72 25-72 55 0 26 21 56 86 71 0 132-83 260-226 260-97 0-176-83-176-202 0-143 92-261 264-261l1-10c-182 0-275 125-275 271 0 119 79 211 186 211zm150-340c0-25 22-45 55-45 10 24 19 67 21 107-59-14-76-40-76-62zm299-394h-10l-92 654c-8 56 4 80 39 80 14 0 23-2 42-10l1-10c-19 8-31 11-42 11-29 0-37-20-30-71zm422 369c0-66-54-113-136-113-124 0-241 122-241 267 0 152 87 211 197 211 39 0 83-8 133-28l2-12c-52 23-99 31-135 31-102 0-186-54-187-199 251-1 367-61 367-157zm-10 0c0 90-113 147-357 148 3-141 114-252 231-252 78 0 126 42 126 104zm0 0"/></svg>