<svg width="3141" height="1064.002" xmlns="http://www.w3.org/2000/svg"><path d="M66 659.002c0 81 33 125 91 125 99 0 157-114 185-248l-7 95c-5 64 13 153 102 153 102 0 187-155 212-369 22 4 49 7 82 7l2-9c-34 0-61-3-83-7 4-38 6-79 6-120-63 0-93 23-93 59 0 28 21 54 76 68-23 206-105 362-202 362-79 0-96-80-92-144l23-321h-10l-7 99c-13 180-75 366-194 366-48 0-81-35-81-116v-349H66zm580-364c0 37-2 74-6 109-48-12-67-35-67-59 0-31 27-50 73-50zm183 15h-10l-56 399c-7 52 5 75 40 75 15 0 25-3 42-10l1-9c-17 7-30 10-42 10-29 0-37-19-31-66zm4-85c9 0 16-7 16-16 0-7-5-12-12-12-9 0-16 7-16 16 0 7 5 12 12 12zm43 518c40 21 93 41 161 41 134 0 220-68 220-178 0-138-143-172-143-330h-8l-181 258 8 6 172-247c5 137 142 187 142 313 0 105-81 169-210 169-65 0-118-19-160-41zm956-667h-10l-54 381c-29-75-84-151-182-151-122 0-237 117-237 275 0 146 88 203 172 203 92 0 187-73 231-210l-19 136c-7 50 6 74 41 74 10 0 25-3 41-10l1-9c-17 7-33 10-41 10-30 0-38-18-32-65zm-473 505c0-158 115-266 227-266 98 0 150 80 179 162-27 197-141 298-244 298-84 0-162-61-162-194zm708 203c146 0 236-131 236-267 22 4 48 6 79 6l1-9c-32 0-59-2-80-6-2-43-11-86-24-119-44 0-72 25-72 55 0 26 21 56 86 71 0 132-83 260-226 260-97 0-176-83-176-202 0-143 92-261 264-261l1-10c-182 0-275 125-275 271 0 119 79 211 186 211zm150-340c0-25 22-45 55-45 10 24 19 67 21 107-59-14-76-40-76-62zm505 336l1-6c45-318 156-459 257-459 59 0 93 44 82 122l-40 286c-5 38 12 61 42 61 15 0 31-4 48-11l1-9c-21 9-39 11-48 11-20 0-38-16-33-52l40-286c12-84-28-131-92-131-96 0-185 109-236 318l27-192c11-81-28-126-95-126-98 0-191 101-242 318l44-314h-10l-66 470h10c47-335 160-465 264-465 57 0 96 37 85 117l-49 348zm0 0"/></svg>