<svg width="3213" height="1064.002" xmlns="http://www.w3.org/2000/svg"><path d="M59 310.002v340c0 89 46 144 122 144 48 0 103-24 149-104 15 59 53 104 121 104 131 0 224-170 237-370 21 3 44 4 69 4l10-73c-34 0-59 0-78-1-1-23-3-46-6-69-81 0-117 21-117 58 0 26 16 46 46 60-8 182-80 319-151 319-51 0-67-54-63-112l21-300h-76l-7 95c-12 169-74 317-146 317-36 0-55-32-55-75v-337zm854 0h-80l-50 360c-11 81 36 124 93 124 23 0 35-4 59-14l10-68c-22 7-34 10-52 10-17 0-36-10-31-47zm-27-80c34 0 60-28 60-62 0-27-19-47-50-47-34 0-61 26-61 61 0 27 20 48 51 48zm161 153l-39 277c-12 87 37 134 112 134 28 0 53-7 83-23l10-68c-22 11-52 20-83 20-29 0-48-19-42-63l39-277h131l10-73h-131l17-120h-80l-17 120h-70l-10 73zm235 397h78c46-320 155-416 220-416 46 0 71 38 64 90l-30 216c-11 81 36 124 93 124 23 0 35-4 59-14l10-68c-22 7-34 10-52 10-17 0-36-10-31-47l30-214c15-103-38-165-127-165-68 0-131 35-183 124l52-370h-80zm521-206c0 121 77 220 212 220 146 0 251-116 261-259 19 3 41 5 64 5l11-73c-42 0-64-1-82-5-12-36-32-67-40-80-55 0-83 26-83 56 0 23 16 49 48 68v13c0 109-76 203-179 203-82 0-129-71-129-156 0-109 80-204 193-204l10-76c-179 0-286 138-286 288zm734 220c70 0 136-37 189-129h1l-1 7c-11 77 38 115 90 115 20 0 39-4 63-14l10-68c-22 7-34 10-52 10-17 0-35-10-30-47l50-358h-78c-46 320-154 416-220 416-46 0-71-38-64-90l46-326h-80l-45 319c-15 103 38 165 121 165zm455-411l-39 277c-12 87 37 134 112 134 28 0 53-7 83-23l10-68c-22 11-52 20-83 20-29 0-48-19-42-63l39-277h131l10-73h-131l17-120h-80l-17 120h-70l-10 73zm0 0"/></svg>