<svg width="1733" height="1064.002" xmlns="http://www.w3.org/2000/svg"><path d="M62 310.002v343c0 86 41 137 111 137 59 0 114-41 156-129 6 67 40 129 118 129 112 0 199-142 223-327 25 3 54 5 87 5l8-47c-36 0-65-2-90-4 4-43 4-86 0-131-122 0-154 40-154 79 0 34 23 70 98 89-20 166-92 287-166 287-61 0-78-63-74-123l22-308h-52l-7 96c-12 173-74 335-163 335-41 0-65-33-65-90v-341zm562 19c1 27 1 53-1 78-40-11-53-28-54-45 0-27 35-33 55-33zm269-19h-54l-52 374c-10 71 24 106 73 106 20 0 32-3 53-12l7-47c-20 7-33 10-49 10-21 0-36-13-31-54zm-16-82c25 0 44-20 44-45 0-20-14-34-36-34-25 0-44 19-44 44 0 20 14 35 36 35zm149 132l-43 305c-12 82 28 125 96 125 27 0 52-6 82-23l7-47c-25 13-53 22-83 22-36 0-55-25-48-77l43-305h139l7-50h-139l17-123h-54l-18 123h-64l-7 50zm266 420c45-318 161-434 240-434 49 0 84 37 74 107l-32 234c-9 66 29 103 77 103 21 0 32-3 53-12l7-47c-20 7-33 10-48 10-20 0-41-13-35-51l32-232c15-103-37-158-117-158-75 0-150 51-207 173l60-423h-54l-103 730zm0 0"/></svg>