<svg width="2990" height="1064.002" xmlns="http://www.w3.org/2000/svg"><path d="M64 310.002v346c0 84 37 132 102 132 70 0 127-60 164-159-3 73 23 159 112 159 109 0 195-149 219-345 24 3 52 5 85 5l5-31c-35 0-63-2-87-5 4-41 5-83 3-126-97 0-128 33-128 71 0 31 22 63 88 79-21 183-97 320-181 320-69 0-86-71-81-133l22-313h-34l-7 97c-12 176-75 349-176 349-44 0-72-34-72-101v-345zm569 4c1 31 0 62-3 92-44-12-59-31-59-51 0-23 22-41 62-41zm233-4h-36l-53 385c-9 62 16 93 59 93 18 0 28-4 48-12l4-30c-18 7-31 10-45 10-25 0-37-16-31-59zm-8-83c19 0 32-15 32-33 0-14-10-25-25-25-19 0-33 14-33 33 0 14 11 25 26 25zm137 115l-46 327c-11 78 22 119 85 119 27 0 52-7 82-24l5-32c-27 16-55 24-83 24-42 0-62-29-53-87l46-327h144l4-32h-144l18-124h-36l-17 124h-61l-5 32zm231 438c45-316 166-447 257-447 51 0 92 37 81 120l-35 247c-7 54 24 88 67 88 18 0 28-4 48-12l4-30c-19 7-31 10-46 10-22 0-43-16-38-54l35-246c14-102-37-154-110-154-82 0-168 68-226 224l67-476h-35l-103 730zm669 8c133 0 236-110 244-252 22 2 46 4 73 4l4-32c-30 0-55-1-76-4-2-40-13-85-27-122-67 0-106 27-107 66 0 34 30 65 98 81-5 128-95 227-209 227-92 0-159-79-159-186 0-130 88-240 238-240l5-34c-181 0-280 130-280 277 0 120 79 215 196 215zm143-341c0-19 18-36 49-36 7 21 14 54 16 87-52-13-65-34-65-51zm635-137h-34c-45 316-163 447-264 447-58 0-84-42-75-109l47-338h-35l-47 335c-13 89 27 143 102 143 91 0 187-81 240-258l-25 170c-7 53 19 83 60 83 16 0 33-4 53-13l4-30c-18 7-35 11-49 11-24 0-37-17-32-53zm133 32l-46 327c-11 78 22 119 85 119 27 0 52-7 82-24l5-32c-27 16-55 24-83 24-42 0-62-29-53-87l46-327h144l4-32h-144l18-124h-36l-17 124h-61l-5 32zm0 0"/></svg>