<svg width="1594" height="1064.002" xmlns="http://www.w3.org/2000/svg"><path d="M66 659.002c0 81 33 125 91 125 99 0 157-114 185-248l-7 95c-5 64 13 153 102 153 102 0 187-155 212-369 22 4 49 7 82 7l2-9c-34 0-61-3-83-7 4-38 6-79 6-120-63 0-93 23-93 59 0 28 21 54 76 68-23 206-105 362-202 362-79 0-96-80-92-144l23-321h-10l-7 99c-13 180-75 366-194 366-48 0-81-35-81-116v-349H66zm580-364c0 37-2 74-6 109-48-12-67-35-67-59 0-31 27-50 73-50zm183 15h-10l-56 399c-7 52 5 75 40 75 15 0 25-3 42-10l1-9c-17 7-30 10-42 10-29 0-37-19-31-66zm4-85c9 0 16-7 16-16 0-7-5-12-12-12-9 0-16 7-16 16 0 7 5 12 12 12zm143 559c26 0 51-6 81-24l2-11c-30 18-56 26-83 26-49 0-69-34-59-101l50-355h152l1-9H968l18-127h-10l-18 127h-56l-1 9h56l-50 355c-11 73 13 110 69 110zm165-4c44-314 171-465 277-465 54 0 105 36 91 137l-37 265c-5 39 17 67 51 67 15 0 25-3 42-10l1-9c-17 7-30 10-42 10-25 0-47-19-42-58l37-264c14-102-36-147-100-147-94 0-205 106-258 331l83-587h-10l-103 730zm0 0"/></svg>