<svg width="3408" height="1064.002" xmlns="http://www.w3.org/2000/svg"><path d="M51 310.002v319c0 104 51 166 135 166 57 0 108-32 149-85 23 50 65 85 126 85 124 0 224-157 241-343 21 2 43 3 67 3l14-98c-35 0-60 0-79-2-2-23-5-47-9-71-113 0-146 31-146 70 0 29 17 52 48 69-14 157-71 266-128 266-40 0-53-41-49-98l20-281H333l-7 93c-11 162-66 286-126 286-27 0-44-23-44-62v-317zm917 0H856l-45 325c-16 113 44 160 115 160 25 0 40-5 67-15l13-94c-22 6-31 9-50 9-20 0-40-11-34-54zm-49-72c44 0 78-36 78-80 0-35-25-61-65-61-44 0-78 34-78 79 0 35 25 62 65 62zm192 170l-33 233c-14 104 44 154 133 154 34 0 59-8 90-23l14-98c-24 11-53 19-81 19-29 0-49-15-42-62l31-223h129l13-98h-128l16-116h-112l-16 116h-78l-14 98zm271 372h111c42-302 132-381 189-381 35 0 56 29 50 74l-24 169c-14 102 36 153 111 153 21 0 42-5 70-16l14-95c-18 5-32 9-50 9-24 0-38-18-34-46l25-178c16-115-40-174-127-174-57 0-116 26-167 93l47-338h-112zm540-205c0 122 83 220 219 220 156 0 262-118 274-258 19 2 39 3 62 3l13-98c-41 0-67-2-89-6-11-29-25-55-39-76-74 0-107 33-107 71 0 25 14 52 49 73v15c0 97-67 174-157 174-71 0-110-59-110-131 0-90 64-168 156-173l15-104c-171 0-286 131-286 290zm755 220c60 0 118-25 176-96 11 62 62 88 110 88 21 0 43-4 71-15l14-96c-18 6-33 10-51 10-24 0-37-18-33-46l46-330h-110c-43 302-132 381-189 381-36 0-56-29-50-74l43-307h-112l-42 300c-17 119 41 185 127 185zm477-387l-33 233c-14 104 44 154 133 154 34 0 59-8 90-23l14-98c-24 11-53 19-81 19-29 0-49-15-42-62l31-223h129l13-98h-128l16-116h-112l-16 116h-78l-14 98zm0 0"/></svg>