<svg width="2376" height="1064.002" xmlns="http://www.w3.org/2000/svg"><path d="M51 310.002v319c0 104 51 166 135 166 57 0 108-32 149-85 23 50 65 85 126 85 124 0 224-157 241-343 21 2 43 3 67 3l14-98c-35 0-60 0-79-2-2-23-5-47-9-71-113 0-146 31-146 70 0 29 17 52 48 69-14 157-71 266-128 266-40 0-53-41-49-98l20-281H333l-7 93c-11 162-66 286-126 286-27 0-44-23-44-62v-317zm735 265c0 122 83 220 219 220 156 0 262-118 274-258 19 2 39 3 62 3l13-98c-41 0-67-2-89-6-11-29-25-55-39-76-74 0-107 33-107 71 0 25 14 52 49 73v15c0 97-67 174-157 174-71 0-110-59-110-131 0-90 64-168 156-173l15-104c-171 0-286 131-286 290zm698 92l62-238c1-5 3-10 4-15h116l-33 234c-13 92 36 147 111 147 25 0 42-5 71-16l13-95c-17 5-31 9-49 9-24 0-38-18-34-46l48-337h-226c1-17 2-35 2-55-25-8-45-11-64-11-74 0-101 43-101 81 0 27 13 52 41 69l-63 246zm380 113h111c36-258 119-387 192-387 35 0 55 21 55 53 0 58-65 93-148 93h-17l31 149c15 69 46 107 127 107 22 0 52-4 83-15l14-99c-27 9-52 12-68 12-27 0-42-12-54-34l-23-59c126-25 169-106 169-180 0-66-52-125-136-125-56 0-117 27-170 98l49-343h-112zm0 0"/></svg>