<svg width="2227" height="1064.002" xmlns="http://www.w3.org/2000/svg"><path d="M62 310.002v343c0 86 41 137 111 137 59 0 114-41 156-129 6 67 40 129 118 129 112 0 199-142 223-327 25 3 54 5 87 5l8-47c-36 0-65-2-90-4 4-43 4-86 0-131-122 0-154 40-154 79 0 34 23 70 98 89-20 166-92 287-166 287-61 0-78-63-74-123l22-308h-52l-7 96c-12 173-74 335-163 335-41 0-65-33-65-90v-341zm562 19c1 27 1 53-1 78-40-11-53-28-54-45 0-27 35-33 55-33zm354 461c134 0 236-105 251-240 20 2 43 3 67 3l8-49c-29 0-53-1-73-3-3-38-14-85-31-125-83 0-131 30-131 75-1 39 34 72 104 89-9 113-90 201-195 201-87 0-146-75-146-173 0-121 84-224 219-224l7-52c-180 0-282 133-282 282 0 120 77 216 202 216zm139-340c0-24 26-30 45-30 5 18 10 44 11 73-46-12-56-29-56-43zm299-18l-73 224 50 13 76-239c33-4 72-15 120-34l45-17-43 308c-9 66 29 103 78 103 20 0 31-3 53-12l7-47c-21 7-33 10-49 10-20 0-40-13-35-51l54-384-123 47c-37 14-67 23-92 28l33-103c-14-5-48-15-75-15-71 0-111 39-111 87 0 43 34 76 85 82zm12-129c10 0 19 1 28 3-5 14-18 55-26 81-37-2-51-18-51-43 0-29 20-41 49-41zm347 477h53c36-256 134-435 241-435 48 0 74 34 74 74 0 75-78 126-191 126h-17l70 168c21 62 52 77 94 77 19 0 39-3 65-14l6-48c-25 11-46 14-60 14-25 0-39-14-52-44l-59-119c138-15 198-87 198-167 0-60-44-112-118-112-76 0-155 59-211 197l64-447h-55zm0 0"/></svg>