<svg width="3394" height="1064.002" xmlns="http://www.w3.org/2000/svg"><path d="M64 310.002v346c0 84 37 132 102 132 70 0 127-60 164-159-3 73 23 159 112 159 109 0 195-149 219-345 24 3 52 5 85 5l5-31c-35 0-63-2-87-5 4-41 5-83 3-126-97 0-128 33-128 71 0 31 22 63 88 79-21 183-97 320-181 320-69 0-86-71-81-133l22-313h-34l-7 97c-12 176-75 349-176 349-44 0-72-34-72-101v-345zm569 4c1 31 0 62-3 92-44-12-59-31-59-51 0-23 22-41 62-41zm333 474c133 0 236-110 244-252 22 2 46 4 73 4l4-32c-30 0-55-1-76-4-2-40-13-85-27-122-67 0-106 27-107 66 0 34 30 65 98 81-5 128-95 227-209 227-92 0-159-79-159-186 0-130 88-240 238-240l5-34c-181 0-280 130-280 277 0 120 79 215 196 215zm143-341c0-19 18-36 49-36 7 21 14 54 16 87-52-13-65-34-65-51zm212-101c0 39 31 66 80 68l-80 248 32 8 83-258c33-5 76-17 134-39l48-19-47 346c-8 54 24 88 66 88 18 0 29-4 48-12l5-30c-19 7-32 10-46 10-22 0-43-16-38-54l55-396-99 38c-52 20-89 31-116 36 10-30 26-82 31-94-15-5-40-12-62-12-59 0-94 31-94 72zm32-3c0-33 27-42 55-42 9 0 19 1 28 4-3 11-18 56-25 79-40 0-58-15-58-41zm387 437h35c38-264 140-448 257-448 56 0 81 41 81 82 0 82-85 139-201 139h-17l88 171c22 49 48 64 84 64 18 0 36-4 58-15l4-32c-24 12-40 15-55 15-25 0-40-13-56-43l-79-137c132-8 210-79 210-165 0-56-37-109-111-109-85 0-176 79-231 254l72-506h-36zm561-470h-36l-53 385c-9 62 16 93 59 93 18 0 28-4 48-12l4-30c-18 7-31 10-45 10-25 0-37-16-31-59zm-8-83c19 0 32-15 32-33 0-14-10-25-25-25-19 0-33 14-33 33 0 14 11 25 26 25zm118 553c45-316 165-447 259-447 51 0 89 37 77 128l-31 227c-9 66 22 100 64 100 18 0 29-4 48-12l5-30c-19 7-32 10-46 10-22 0-43-16-36-66l32-226c15-111-33-162-106-162-87 0-181 81-234 257l35-249h-36l-66 470zm627 242c109 0 224-74 249-251l66-461h-35l-16 116c-33-76-98-124-175-124-135 0-233 119-233 256 0 117 62 180 151 186-70 26-164 74-164 161 0 61 49 117 157 117zm90-689c75 0 135 49 167 138-12 87-40 143-79 180s-95 61-154 61c-79 0-131-54-131-156 0-122 83-223 197-223zm-175 494c81-76 202-81 278-155 19-18 36-44 46-68l-23 165c-21 151-123 220-215 220-83 0-122-44-122-90 0-28 13-51 36-72zm0 0"/></svg>